%TF.GenerationSoftware,KiCad,Pcbnew,(6.0.11)*%
%TF.CreationDate,2026-08-21T12:35:05+05:30*%
%TF.ProjectId,Smart_5V_Power_Supply,536d6172-745f-4355-965f-506f7765725f,rev?*%
%TF.SameCoordinates,Original*%
%TF.FileFunction,Legend,Top*%
%TF.FilePolarity,Positive*%
%FSLAX46Y46*%
G04 Gerber Fmt 4.6, Leading zero omitted, Abs format (unit mm)*
G04 Created by KiCad (PCBNEW (6.0.11)) date 2026-08-21 12:35:05*
%MOMM*%
%LPD*%
G01*
G04 APERTURE LIST*
%ADD10C,0.150000*%
%ADD11C,0.120000*%
G04 APERTURE END LIST*
D10*
%TO.C,C1*%
X117773333Y-83867142D02*
X117725714Y-83914761D01*
X117582857Y-83962380D01*
X117487619Y-83962380D01*
X117344761Y-83914761D01*
X117249523Y-83819523D01*
X117201904Y-83724285D01*
X117154285Y-83533809D01*
X117154285Y-83390952D01*
X117201904Y-83200476D01*
X117249523Y-83105238D01*
X117344761Y-83010000D01*
X117487619Y-82962380D01*
X117582857Y-82962380D01*
X117725714Y-83010000D01*
X117773333Y-83057619D01*
X118725714Y-83962380D02*
X118154285Y-83962380D01*
X118440000Y-83962380D02*
X118440000Y-82962380D01*
X118344761Y-83105238D01*
X118249523Y-83200476D01*
X118154285Y-83248095D01*
%TO.C,J1*%
X91106666Y-83482380D02*
X91106666Y-84196666D01*
X91059047Y-84339523D01*
X90963809Y-84434761D01*
X90820952Y-84482380D01*
X90725714Y-84482380D01*
X92106666Y-84482380D02*
X91535238Y-84482380D01*
X91820952Y-84482380D02*
X91820952Y-83482380D01*
X91725714Y-83625238D01*
X91630476Y-83720476D01*
X91535238Y-83768095D01*
%TO.C,J2*%
X144446666Y-80942380D02*
X144446666Y-81656666D01*
X144399047Y-81799523D01*
X144303809Y-81894761D01*
X144160952Y-81942380D01*
X144065714Y-81942380D01*
X144875238Y-81037619D02*
X144922857Y-80990000D01*
X145018095Y-80942380D01*
X145256190Y-80942380D01*
X145351428Y-80990000D01*
X145399047Y-81037619D01*
X145446666Y-81132857D01*
X145446666Y-81228095D01*
X145399047Y-81370952D01*
X144827619Y-81942380D01*
X145446666Y-81942380D01*
%TO.C,D1*%
X100861904Y-84342380D02*
X100861904Y-83342380D01*
X101100000Y-83342380D01*
X101242857Y-83390000D01*
X101338095Y-83485238D01*
X101385714Y-83580476D01*
X101433333Y-83770952D01*
X101433333Y-83913809D01*
X101385714Y-84104285D01*
X101338095Y-84199523D01*
X101242857Y-84294761D01*
X101100000Y-84342380D01*
X100861904Y-84342380D01*
X102385714Y-84342380D02*
X101814285Y-84342380D01*
X102100000Y-84342380D02*
X102100000Y-83342380D01*
X102004761Y-83485238D01*
X101909523Y-83580476D01*
X101814285Y-83628095D01*
X96258095Y-84712380D02*
X96258095Y-83712380D01*
X96829523Y-84712380D02*
X96400952Y-84140952D01*
X96829523Y-83712380D02*
X96258095Y-84283809D01*
%TO.C,D2*%
X133881904Y-100932380D02*
X133881904Y-99932380D01*
X134120000Y-99932380D01*
X134262857Y-99980000D01*
X134358095Y-100075238D01*
X134405714Y-100170476D01*
X134453333Y-100360952D01*
X134453333Y-100503809D01*
X134405714Y-100694285D01*
X134358095Y-100789523D01*
X134262857Y-100884761D01*
X134120000Y-100932380D01*
X133881904Y-100932380D01*
X134834285Y-100027619D02*
X134881904Y-99980000D01*
X134977142Y-99932380D01*
X135215238Y-99932380D01*
X135310476Y-99980000D01*
X135358095Y-100027619D01*
X135405714Y-100122857D01*
X135405714Y-100218095D01*
X135358095Y-100360952D01*
X134786666Y-100932380D01*
X135405714Y-100932380D01*
%TO.C,J3*%
X125609166Y-83664880D02*
X125609166Y-84379166D01*
X125561547Y-84522023D01*
X125466309Y-84617261D01*
X125323452Y-84664880D01*
X125228214Y-84664880D01*
X125990119Y-83664880D02*
X126609166Y-83664880D01*
X126275833Y-84045833D01*
X126418690Y-84045833D01*
X126513928Y-84093452D01*
X126561547Y-84141071D01*
X126609166Y-84236309D01*
X126609166Y-84474404D01*
X126561547Y-84569642D01*
X126513928Y-84617261D01*
X126418690Y-84664880D01*
X126132976Y-84664880D01*
X126037738Y-84617261D01*
X125990119Y-84569642D01*
%TO.C,R1*%
X147602380Y-94146666D02*
X147126190Y-94480000D01*
X147602380Y-94718095D02*
X146602380Y-94718095D01*
X146602380Y-94337142D01*
X146650000Y-94241904D01*
X146697619Y-94194285D01*
X146792857Y-94146666D01*
X146935714Y-94146666D01*
X147030952Y-94194285D01*
X147078571Y-94241904D01*
X147126190Y-94337142D01*
X147126190Y-94718095D01*
X147602380Y-93194285D02*
X147602380Y-93765714D01*
X147602380Y-93480000D02*
X146602380Y-93480000D01*
X146745238Y-93575238D01*
X146840476Y-93670476D01*
X146888095Y-93765714D01*
%TO.C,C2*%
X135283333Y-88512142D02*
X135235714Y-88559761D01*
X135092857Y-88607380D01*
X134997619Y-88607380D01*
X134854761Y-88559761D01*
X134759523Y-88464523D01*
X134711904Y-88369285D01*
X134664285Y-88178809D01*
X134664285Y-88035952D01*
X134711904Y-87845476D01*
X134759523Y-87750238D01*
X134854761Y-87655000D01*
X134997619Y-87607380D01*
X135092857Y-87607380D01*
X135235714Y-87655000D01*
X135283333Y-87702619D01*
X135664285Y-87702619D02*
X135711904Y-87655000D01*
X135807142Y-87607380D01*
X136045238Y-87607380D01*
X136140476Y-87655000D01*
X136188095Y-87702619D01*
X136235714Y-87797857D01*
X136235714Y-87893095D01*
X136188095Y-88035952D01*
X135616666Y-88607380D01*
X136235714Y-88607380D01*
%TO.C,U1*%
X123698095Y-71652380D02*
X123698095Y-72461904D01*
X123745714Y-72557142D01*
X123793333Y-72604761D01*
X123888571Y-72652380D01*
X124079047Y-72652380D01*
X124174285Y-72604761D01*
X124221904Y-72557142D01*
X124269523Y-72461904D01*
X124269523Y-71652380D01*
X125269523Y-72652380D02*
X124698095Y-72652380D01*
X124983809Y-72652380D02*
X124983809Y-71652380D01*
X124888571Y-71795238D01*
X124793333Y-71890476D01*
X124698095Y-71938095D01*
D11*
%TO.C,C1*%
X115270000Y-84639000D02*
X115270000Y-85305000D01*
X120610000Y-84639000D02*
X120610000Y-85305000D01*
X120610000Y-87415000D02*
X120610000Y-88081000D01*
X115270000Y-84639000D02*
X120610000Y-84639000D01*
X115270000Y-87415000D02*
X115270000Y-88081000D01*
X115270000Y-88081000D02*
X120610000Y-88081000D01*
%TO.C,J1*%
X90110000Y-85030000D02*
X91440000Y-85030000D01*
X90110000Y-87630000D02*
X92770000Y-87630000D01*
X90110000Y-87690000D02*
X92770000Y-87690000D01*
X92770000Y-87630000D02*
X92770000Y-87690000D01*
X90110000Y-87630000D02*
X90110000Y-87690000D01*
X90110000Y-86360000D02*
X90110000Y-85030000D01*
%TO.C,J2*%
X143450000Y-82490000D02*
X144780000Y-82490000D01*
X143450000Y-85090000D02*
X146110000Y-85090000D01*
X143450000Y-85150000D02*
X146110000Y-85150000D01*
X146110000Y-85090000D02*
X146110000Y-85150000D01*
X143450000Y-85090000D02*
X143450000Y-85150000D01*
X143450000Y-83820000D02*
X143450000Y-82490000D01*
%TO.C,D1*%
X99780000Y-84890000D02*
X99780000Y-87830000D01*
X99900000Y-84890000D02*
X99900000Y-87830000D01*
X98880000Y-87830000D02*
X104320000Y-87830000D01*
X105340000Y-86360000D02*
X104320000Y-86360000D01*
X98880000Y-84890000D02*
X98880000Y-87830000D01*
X99660000Y-84890000D02*
X99660000Y-87830000D01*
X104320000Y-87830000D02*
X104320000Y-84890000D01*
X97860000Y-86360000D02*
X98880000Y-86360000D01*
X104320000Y-84890000D02*
X98880000Y-84890000D01*
%TO.C,D2*%
X137180000Y-98065000D02*
X137180000Y-94975000D01*
X137180000Y-94975170D02*
G75*
G03*
X131630000Y-96520462I-2560000J-1544830D01*
G01*
X131630000Y-96519538D02*
G75*
G03*
X137180000Y-98064830I2990000J-462D01*
G01*
X137120000Y-96520000D02*
G75*
G03*
X137120000Y-96520000I-2500000J0D01*
G01*
%TO.C,J3*%
X124612500Y-85212500D02*
X125942500Y-85212500D01*
X124612500Y-87812500D02*
X127272500Y-87812500D01*
X124612500Y-87872500D02*
X127272500Y-87872500D01*
X127272500Y-87812500D02*
X127272500Y-87872500D01*
X124612500Y-87812500D02*
X124612500Y-87872500D01*
X124612500Y-86542500D02*
X124612500Y-85212500D01*
%TO.C,R1*%
X144780000Y-98020000D02*
X144780000Y-97250000D01*
X144780000Y-89940000D02*
X144780000Y-90710000D01*
X146150000Y-90710000D02*
X143410000Y-90710000D01*
X143410000Y-97250000D02*
X146150000Y-97250000D01*
X143410000Y-90710000D02*
X143410000Y-97250000D01*
X146150000Y-97250000D02*
X146150000Y-90710000D01*
%TO.C,C2*%
X138120000Y-87026000D02*
X138120000Y-86360000D01*
X132780000Y-87026000D02*
X132780000Y-86360000D01*
X132780000Y-84250000D02*
X132780000Y-83584000D01*
X138120000Y-87026000D02*
X132780000Y-87026000D01*
X138120000Y-84250000D02*
X138120000Y-83584000D01*
X138120000Y-83584000D02*
X132780000Y-83584000D01*
%TO.C,U1*%
X119340000Y-73200000D02*
X129580000Y-73200000D01*
X122610000Y-73200000D02*
X122610000Y-74710000D01*
X126311000Y-73200000D02*
X126311000Y-74710000D01*
X119340000Y-73200000D02*
X119340000Y-77841000D01*
X119340000Y-77841000D02*
X129580000Y-77841000D01*
X129580000Y-73200000D02*
X129580000Y-77841000D01*
X119340000Y-74710000D02*
X129580000Y-74710000D01*
%TD*%
M02*
