%TF.GenerationSoftware,KiCad,Pcbnew,(6.0.11)*%
%TF.CreationDate,2026-08-16T11:33:41+05:30*%
%TF.ProjectId,pcb,7063622e-6b69-4636-9164-5f7063625858,rev?*%
%TF.SameCoordinates,Original*%
%TF.FileFunction,Copper,L1,Top*%
%TF.FilePolarity,Positive*%
%FSLAX46Y46*%
G04 Gerber Fmt 4.6, Leading zero omitted, Abs format (unit mm)*
G04 Created by KiCad (PCBNEW (6.0.11)) date 2026-08-16 11:33:41*
%MOMM*%
%LPD*%
G01*
G04 APERTURE LIST*
%TA.AperFunction,NonConductor*%
%ADD10C,0.200000*%
%TD*%
%TA.AperFunction,ComponentPad*%
%ADD11O,1.700000X1.700000*%
%TD*%
%TA.AperFunction,ComponentPad*%
%ADD12R,1.700000X1.700000*%
%TD*%
%TA.AperFunction,ComponentPad*%
%ADD13C,1.600000*%
%TD*%
%TA.AperFunction,ComponentPad*%
%ADD14O,1.600000X1.600000*%
%TD*%
%TA.AperFunction,ComponentPad*%
%ADD15R,2.200000X2.200000*%
%TD*%
%TA.AperFunction,ComponentPad*%
%ADD16O,2.200000X2.200000*%
%TD*%
%TA.AperFunction,ComponentPad*%
%ADD17C,1.440000*%
%TD*%
%TA.AperFunction,ComponentPad*%
%ADD18R,1.600000X1.600000*%
%TD*%
%TA.AperFunction,ViaPad*%
%ADD19C,0.800000*%
%TD*%
%TA.AperFunction,Conductor*%
%ADD20C,0.250000*%
%TD*%
G04 APERTURE END LIST*
D10*
X171451200Y-97180400D02*
X204520800Y-97180400D01*
X204520800Y-97180400D02*
X204520800Y-127811600D01*
X204520800Y-127811600D02*
X171451200Y-127811600D01*
X171451200Y-127811600D02*
X171451200Y-97180400D01*
D11*
%TO.P,out + -,3,Pin_3*%
%TO.N,/OUT*%
X196799200Y-114249200D03*
%TO.P,out + -,2,Pin_2*%
%TO.N,VCC*%
X196799200Y-111709200D03*
D12*
%TO.P,out + -,1,Pin_1*%
%TO.N,GND*%
X196799200Y-109169200D03*
%TD*%
D13*
%TO.P,10k,1*%
%TO.N,/R_OUT*%
X180086000Y-120091200D03*
D14*
%TO.P,10k,2*%
%TO.N,VCC*%
X190246000Y-120091200D03*
%TD*%
D13*
%TO.P,220k,1*%
%TO.N,/TR*%
X173583600Y-101854000D03*
D14*
%TO.P,220k,2*%
%TO.N,/DISC*%
X183743600Y-101854000D03*
%TD*%
D13*
%TO.P,0.1u,1*%
%TO.N,/TR*%
X178866800Y-113040800D03*
%TO.P,0.1u,2*%
%TO.N,GND*%
X178866800Y-108040800D03*
%TD*%
D15*
%TO.P,D1,1,A*%
%TO.N,/DISC*%
X191617600Y-100787200D03*
D16*
%TO.P,D1,2,K*%
%TO.N,/TR*%
X201777600Y-100787200D03*
%TD*%
D12*
%TO.P,+ Bat -,1,Pin_1*%
%TO.N,VCC*%
X174853600Y-122941000D03*
D11*
%TO.P,+ Bat -,2,Pin_2*%
%TO.N,GND*%
X174853600Y-120401000D03*
%TD*%
D17*
%TO.P,47k,1*%
%TO.N,/DISC*%
X200568400Y-123037600D03*
%TO.P,47k,2*%
%TO.N,/R_OUT*%
X198028400Y-123037600D03*
%TO.P,47k,3*%
%TO.N,unconnected-(R3-Pad3)*%
X195488400Y-123037600D03*
%TD*%
D18*
%TO.P,IC 555,1,GND*%
%TO.N,GND*%
X183702800Y-105724800D03*
D14*
%TO.P,IC 555,2,TR*%
%TO.N,/TR*%
X183702800Y-108264800D03*
%TO.P,IC 555,3,Q*%
%TO.N,/OUT*%
X183702800Y-110804800D03*
%TO.P,IC 555,4,R*%
%TO.N,VCC*%
X183702800Y-113344800D03*
%TO.P,IC 555,5,CV*%
%TO.N,unconnected-(X1-Pad5)*%
X191322800Y-113344800D03*
%TO.P,IC 555,6,THR*%
%TO.N,/TR*%
X191322800Y-110804800D03*
%TO.P,IC 555,7,DIS*%
%TO.N,/DISC*%
X191322800Y-108264800D03*
%TO.P,IC 555,8,VCC*%
%TO.N,VCC*%
X191322800Y-105724800D03*
%TD*%
D19*
%TO.N,/DISC*%
X192836800Y-103936800D03*
%TO.N,GND*%
X192941000Y-107139800D03*
%TO.N,VCC*%
X188671200Y-109677200D03*
%TO.N,/TR*%
X177698400Y-105054400D03*
%TD*%
D20*
%TO.N,/DISC*%
X193755600Y-108264800D02*
X191322800Y-108264800D01*
X193910800Y-108109600D02*
X193755600Y-108264800D01*
X193910800Y-105010800D02*
X193910800Y-108109600D01*
X192836800Y-103936800D02*
X193910800Y-105010800D01*
%TO.N,GND*%
X185117800Y-107139800D02*
X192941000Y-107139800D01*
X183702800Y-105724800D02*
X185117800Y-107139800D01*
%TO.N,/TR*%
X181965600Y-110002000D02*
X183702800Y-108264800D01*
X181965600Y-112014000D02*
X181965600Y-110002000D01*
X180441600Y-113538000D02*
X181965600Y-112014000D01*
X179364000Y-113538000D02*
X180441600Y-113538000D01*
X178866800Y-113040800D02*
X179364000Y-113538000D01*
%TO.N,VCC*%
X185003600Y-113344800D02*
X188671200Y-109677200D01*
X183702800Y-113344800D02*
X185003600Y-113344800D01*
X178358800Y-115824000D02*
X179070000Y-115112800D01*
X179070000Y-115112800D02*
X181934800Y-115112800D01*
X178358800Y-121513600D02*
X178358800Y-115824000D01*
X176931400Y-122941000D02*
X178358800Y-121513600D01*
X181934800Y-115112800D02*
X183702800Y-113344800D01*
X174853600Y-122941000D02*
X176931400Y-122941000D01*
%TO.N,/TR*%
X199567800Y-102997000D02*
X201777600Y-100787200D01*
X198145400Y-102997000D02*
X199567800Y-102997000D01*
X198145400Y-102997000D02*
X198170800Y-102971600D01*
X194360800Y-106781600D02*
X198145400Y-102997000D01*
X193588800Y-110804800D02*
X193954400Y-110439200D01*
X194360800Y-110032800D02*
X194360800Y-106781600D01*
X191322800Y-110804800D02*
X193588800Y-110804800D01*
X193954400Y-110439200D02*
X194360800Y-110032800D01*
X188782800Y-108264800D02*
X191322800Y-110804800D01*
X183702800Y-108264800D02*
X188782800Y-108264800D01*
%TO.N,/DISC*%
X190550800Y-101854000D02*
X191617600Y-100787200D01*
X183743600Y-101854000D02*
X190550800Y-101854000D01*
%TO.N,/TR*%
X173583600Y-104089200D02*
X174548800Y-105054400D01*
X174548800Y-105054400D02*
X177698400Y-105054400D01*
X173583600Y-101854000D02*
X173583600Y-104089200D01*
%TO.N,GND*%
X177139600Y-113177009D02*
X178866800Y-111449809D01*
X178866800Y-111449809D02*
X178866800Y-108040800D01*
X177139600Y-119684800D02*
X177139600Y-113177009D01*
X176423400Y-120401000D02*
X177139600Y-119684800D01*
X174853600Y-120401000D02*
X176423400Y-120401000D01*
X179537200Y-105724800D02*
X183702800Y-105724800D01*
X179476400Y-105664000D02*
X179537200Y-105724800D01*
X178866800Y-106273600D02*
X179476400Y-105664000D01*
X178866800Y-108040800D02*
X178866800Y-106273600D01*
%TD*%
%TA.AperFunction,Conductor*%
%TO.N,GND*%
G36*
X203854421Y-97808902D02*
G01*
X203900914Y-97862558D01*
X203912300Y-97914900D01*
X203912300Y-127077100D01*
X203892298Y-127145221D01*
X203838642Y-127191714D01*
X203786300Y-127203100D01*
X172185700Y-127203100D01*
X172117579Y-127183098D01*
X172071086Y-127129442D01*
X172059700Y-127077100D01*
X172059700Y-123839134D01*
X173495100Y-123839134D01*
X173501855Y-123901316D01*
X173552985Y-124037705D01*
X173640339Y-124154261D01*
X173756895Y-124241615D01*
X173893284Y-124292745D01*
X173955466Y-124299500D01*
X175751734Y-124299500D01*
X175813916Y-124292745D01*
X175950305Y-124241615D01*
X176066861Y-124154261D01*
X176154215Y-124037705D01*
X176205345Y-123901316D01*
X176212100Y-123839134D01*
X176212100Y-123700500D01*
X176232102Y-123632379D01*
X176285758Y-123585886D01*
X176338100Y-123574500D01*
X176852633Y-123574500D01*
X176863816Y-123575027D01*
X176871309Y-123576702D01*
X176879235Y-123576453D01*
X176879236Y-123576453D01*
X176939386Y-123574562D01*
X176943345Y-123574500D01*
X176971256Y-123574500D01*
X176975191Y-123574003D01*
X176975256Y-123573995D01*
X176987093Y-123573062D01*
X177019351Y-123572048D01*
X177023370Y-123571922D01*
X177031289Y-123571673D01*
X177050743Y-123566021D01*
X177070100Y-123562013D01*
X177082330Y-123560468D01*
X177082331Y-123560468D01*
X177090197Y-123559474D01*
X177097568Y-123556555D01*
X177097570Y-123556555D01*
X177131312Y-123543196D01*
X177142542Y-123539351D01*
X177177383Y-123529229D01*
X177177384Y-123529229D01*
X177184993Y-123527018D01*
X177191812Y-123522985D01*
X177191817Y-123522983D01*
X177202428Y-123516707D01*
X177220176Y-123508012D01*
X177239017Y-123500552D01*
X177274787Y-123474564D01*
X177284707Y-123468048D01*
X177315935Y-123449580D01*
X177315938Y-123449578D01*
X177322762Y-123445542D01*
X177337083Y-123431221D01*
X177352117Y-123418380D01*
X177358637Y-123413643D01*
X177368507Y-123406472D01*
X177396698Y-123372395D01*
X177404688Y-123363616D01*
X177730704Y-123037600D01*
X194255207Y-123037600D01*
X194273942Y-123251742D01*
X194275366Y-123257055D01*
X194275366Y-123257057D01*
X194322034Y-123431221D01*
X194329578Y-123459377D01*
X194331900Y-123464357D01*
X194331901Y-123464359D01*
X194410251Y-123632379D01*
X194420424Y-123654196D01*
X194543719Y-123830281D01*
X194695719Y-123982281D01*
X194871803Y-124105576D01*
X194876781Y-124107897D01*
X194876784Y-124107899D01*
X194976208Y-124154261D01*
X195066623Y-124196422D01*
X195071931Y-124197844D01*
X195071933Y-124197845D01*
X195268943Y-124250634D01*
X195268945Y-124250634D01*
X195274258Y-124252058D01*
X195488400Y-124270793D01*
X195702542Y-124252058D01*
X195707855Y-124250634D01*
X195707857Y-124250634D01*
X195904867Y-124197845D01*
X195904869Y-124197844D01*
X195910177Y-124196422D01*
X196000592Y-124154261D01*
X196100016Y-124107899D01*
X196100019Y-124107897D01*
X196104997Y-124105576D01*
X196281081Y-123982281D01*
X196433081Y-123830281D01*
X196556376Y-123654196D01*
X196566550Y-123632379D01*
X196644205Y-123465847D01*
X196691123Y-123412562D01*
X196759400Y-123393101D01*
X196827360Y-123413643D01*
X196872595Y-123465847D01*
X196950251Y-123632379D01*
X196960424Y-123654196D01*
X197083719Y-123830281D01*
X197235719Y-123982281D01*
X197411803Y-124105576D01*
X197416781Y-124107897D01*
X197416784Y-124107899D01*
X197516208Y-124154261D01*
X197606623Y-124196422D01*
X197611931Y-124197844D01*
X197611933Y-124197845D01*
X197808943Y-124250634D01*
X197808945Y-124250634D01*
X197814258Y-124252058D01*
X198028400Y-124270793D01*
X198242542Y-124252058D01*
X198247855Y-124250634D01*
X198247857Y-124250634D01*
X198444867Y-124197845D01*
X198444869Y-124197844D01*
X198450177Y-124196422D01*
X198540592Y-124154261D01*
X198640016Y-124107899D01*
X198640019Y-124107897D01*
X198644997Y-124105576D01*
X198821081Y-123982281D01*
X198973081Y-123830281D01*
X199096376Y-123654196D01*
X199106550Y-123632379D01*
X199184205Y-123465847D01*
X199231123Y-123412562D01*
X199299400Y-123393101D01*
X199367360Y-123413643D01*
X199412595Y-123465847D01*
X199490251Y-123632379D01*
X199500424Y-123654196D01*
X199623719Y-123830281D01*
X199775719Y-123982281D01*
X199951803Y-124105576D01*
X199956781Y-124107897D01*
X199956784Y-124107899D01*
X200056208Y-124154261D01*
X200146623Y-124196422D01*
X200151931Y-124197844D01*
X200151933Y-124197845D01*
X200348943Y-124250634D01*
X200348945Y-124250634D01*
X200354258Y-124252058D01*
X200568400Y-124270793D01*
X200782542Y-124252058D01*
X200787855Y-124250634D01*
X200787857Y-124250634D01*
X200984867Y-124197845D01*
X200984869Y-124197844D01*
X200990177Y-124196422D01*
X201080592Y-124154261D01*
X201180016Y-124107899D01*
X201180019Y-124107897D01*
X201184997Y-124105576D01*
X201361081Y-123982281D01*
X201513081Y-123830281D01*
X201636376Y-123654196D01*
X201646550Y-123632379D01*
X201724899Y-123464359D01*
X201724900Y-123464357D01*
X201727222Y-123459377D01*
X201734767Y-123431221D01*
X201781434Y-123257057D01*
X201781434Y-123257055D01*
X201782858Y-123251742D01*
X201801593Y-123037600D01*
X201782858Y-122823458D01*
X201739766Y-122662638D01*
X201728645Y-122621133D01*
X201728644Y-122621131D01*
X201727222Y-122615823D01*
X201636376Y-122421004D01*
X201513081Y-122244919D01*
X201361081Y-122092919D01*
X201184997Y-121969624D01*
X201180019Y-121967303D01*
X201180016Y-121967301D01*
X200995159Y-121881101D01*
X200995158Y-121881100D01*
X200990177Y-121878778D01*
X200984869Y-121877356D01*
X200984867Y-121877355D01*
X200787857Y-121824566D01*
X200787855Y-121824566D01*
X200782542Y-121823142D01*
X200568400Y-121804407D01*
X200354258Y-121823142D01*
X200348945Y-121824566D01*
X200348943Y-121824566D01*
X200151933Y-121877355D01*
X200151931Y-121877356D01*
X200146623Y-121878778D01*
X200141643Y-121881100D01*
X200141641Y-121881101D01*
X199956785Y-121967301D01*
X199956782Y-121967303D01*
X199951804Y-121969624D01*
X199775719Y-122092919D01*
X199623719Y-122244919D01*
X199500424Y-122421004D01*
X199498103Y-122425982D01*
X199498101Y-122425985D01*
X199412595Y-122609353D01*
X199365677Y-122662638D01*
X199297400Y-122682099D01*
X199229440Y-122661557D01*
X199184205Y-122609353D01*
X199098699Y-122425985D01*
X199098697Y-122425982D01*
X199096376Y-122421004D01*
X198973081Y-122244919D01*
X198821081Y-122092919D01*
X198644997Y-121969624D01*
X198640019Y-121967303D01*
X198640016Y-121967301D01*
X198455159Y-121881101D01*
X198455158Y-121881100D01*
X198450177Y-121878778D01*
X198444869Y-121877356D01*
X198444867Y-121877355D01*
X198247857Y-121824566D01*
X198247855Y-121824566D01*
X198242542Y-121823142D01*
X198028400Y-121804407D01*
X197814258Y-121823142D01*
X197808945Y-121824566D01*
X197808943Y-121824566D01*
X197611933Y-121877355D01*
X197611931Y-121877356D01*
X197606623Y-121878778D01*
X197601643Y-121881100D01*
X197601641Y-121881101D01*
X197416785Y-121967301D01*
X197416782Y-121967303D01*
X197411804Y-121969624D01*
X197235719Y-122092919D01*
X197083719Y-122244919D01*
X196960424Y-122421004D01*
X196958103Y-122425982D01*
X196958101Y-122425985D01*
X196872595Y-122609353D01*
X196825677Y-122662638D01*
X196757400Y-122682099D01*
X196689440Y-122661557D01*
X196644205Y-122609353D01*
X196558699Y-122425985D01*
X196558697Y-122425982D01*
X196556376Y-122421004D01*
X196433081Y-122244919D01*
X196281081Y-122092919D01*
X196104997Y-121969624D01*
X196100019Y-121967303D01*
X196100016Y-121967301D01*
X195915159Y-121881101D01*
X195915158Y-121881100D01*
X195910177Y-121878778D01*
X195904869Y-121877356D01*
X195904867Y-121877355D01*
X195707857Y-121824566D01*
X195707855Y-121824566D01*
X195702542Y-121823142D01*
X195488400Y-121804407D01*
X195274258Y-121823142D01*
X195268945Y-121824566D01*
X195268943Y-121824566D01*
X195071933Y-121877355D01*
X195071931Y-121877356D01*
X195066623Y-121878778D01*
X195061643Y-121881100D01*
X195061641Y-121881101D01*
X194876785Y-121967301D01*
X194876782Y-121967303D01*
X194871804Y-121969624D01*
X194695719Y-122092919D01*
X194543719Y-122244919D01*
X194420424Y-122421004D01*
X194329578Y-122615823D01*
X194328156Y-122621131D01*
X194328155Y-122621133D01*
X194317034Y-122662638D01*
X194273942Y-122823458D01*
X194255207Y-123037600D01*
X177730704Y-123037600D01*
X178751047Y-122017257D01*
X178759337Y-122009713D01*
X178765818Y-122005600D01*
X178789216Y-121980684D01*
X178812458Y-121955933D01*
X178815213Y-121953091D01*
X178834934Y-121933370D01*
X178837412Y-121930175D01*
X178845118Y-121921153D01*
X178869958Y-121894701D01*
X178875386Y-121888921D01*
X178885146Y-121871168D01*
X178895999Y-121854645D01*
X178903553Y-121844906D01*
X178908413Y-121838641D01*
X178925976Y-121798057D01*
X178931183Y-121787427D01*
X178952495Y-121748660D01*
X178954466Y-121740983D01*
X178954468Y-121740978D01*
X178957532Y-121729042D01*
X178963938Y-121710330D01*
X178968834Y-121699017D01*
X178971981Y-121691745D01*
X178978897Y-121648081D01*
X178981304Y-121636460D01*
X178990328Y-121601311D01*
X178990328Y-121601310D01*
X178992300Y-121593630D01*
X178992300Y-121573369D01*
X178993851Y-121553658D01*
X178993936Y-121553125D01*
X178997019Y-121533657D01*
X178992859Y-121489646D01*
X178992300Y-121477789D01*
X178992300Y-121152188D01*
X179012302Y-121084067D01*
X179065958Y-121037574D01*
X179136232Y-121027470D01*
X179200812Y-121056964D01*
X179207395Y-121063093D01*
X179241700Y-121097398D01*
X179246208Y-121100555D01*
X179246211Y-121100557D01*
X179319948Y-121152188D01*
X179429251Y-121228723D01*
X179434233Y-121231046D01*
X179434238Y-121231049D01*
X179556586Y-121288100D01*
X179636757Y-121325484D01*
X179642065Y-121326906D01*
X179642067Y-121326907D01*
X179852598Y-121383319D01*
X179852600Y-121383319D01*
X179857913Y-121384743D01*
X180086000Y-121404698D01*
X180314087Y-121384743D01*
X180319400Y-121383319D01*
X180319402Y-121383319D01*
X180529933Y-121326907D01*
X180529935Y-121326906D01*
X180535243Y-121325484D01*
X180615414Y-121288100D01*
X180737762Y-121231049D01*
X180737767Y-121231046D01*
X180742749Y-121228723D01*
X180852052Y-121152188D01*
X180925789Y-121100557D01*
X180925792Y-121100555D01*
X180930300Y-121097398D01*
X181092198Y-120935500D01*
X181223523Y-120747949D01*
X181225846Y-120742967D01*
X181225849Y-120742962D01*
X181317961Y-120545425D01*
X181317961Y-120545424D01*
X181320284Y-120540443D01*
X181379543Y-120319287D01*
X181399498Y-120091200D01*
X188932502Y-120091200D01*
X188952457Y-120319287D01*
X189011716Y-120540443D01*
X189014039Y-120545424D01*
X189014039Y-120545425D01*
X189106151Y-120742962D01*
X189106154Y-120742967D01*
X189108477Y-120747949D01*
X189239802Y-120935500D01*
X189401700Y-121097398D01*
X189406208Y-121100555D01*
X189406211Y-121100557D01*
X189479948Y-121152188D01*
X189589251Y-121228723D01*
X189594233Y-121231046D01*
X189594238Y-121231049D01*
X189716586Y-121288100D01*
X189796757Y-121325484D01*
X189802065Y-121326906D01*
X189802067Y-121326907D01*
X190012598Y-121383319D01*
X190012600Y-121383319D01*
X190017913Y-121384743D01*
X190246000Y-121404698D01*
X190474087Y-121384743D01*
X190479400Y-121383319D01*
X190479402Y-121383319D01*
X190689933Y-121326907D01*
X190689935Y-121326906D01*
X190695243Y-121325484D01*
X190775414Y-121288100D01*
X190897762Y-121231049D01*
X190897767Y-121231046D01*
X190902749Y-121228723D01*
X191012052Y-121152188D01*
X191085789Y-121100557D01*
X191085792Y-121100555D01*
X191090300Y-121097398D01*
X191252198Y-120935500D01*
X191383523Y-120747949D01*
X191385846Y-120742967D01*
X191385849Y-120742962D01*
X191477961Y-120545425D01*
X191477961Y-120545424D01*
X191480284Y-120540443D01*
X191539543Y-120319287D01*
X191559498Y-120091200D01*
X191539543Y-119863113D01*
X191504578Y-119732623D01*
X191481707Y-119647267D01*
X191481706Y-119647265D01*
X191480284Y-119641957D01*
X191432609Y-119539717D01*
X191385849Y-119439438D01*
X191385846Y-119439433D01*
X191383523Y-119434451D01*
X191267828Y-119269222D01*
X191255357Y-119251411D01*
X191255355Y-119251408D01*
X191252198Y-119246900D01*
X191090300Y-119085002D01*
X191085792Y-119081845D01*
X191085789Y-119081843D01*
X191007611Y-119027102D01*
X190902749Y-118953677D01*
X190897767Y-118951354D01*
X190897762Y-118951351D01*
X190700225Y-118859239D01*
X190700224Y-118859239D01*
X190695243Y-118856916D01*
X190689935Y-118855494D01*
X190689933Y-118855493D01*
X190479402Y-118799081D01*
X190479400Y-118799081D01*
X190474087Y-118797657D01*
X190246000Y-118777702D01*
X190017913Y-118797657D01*
X190012600Y-118799081D01*
X190012598Y-118799081D01*
X189802067Y-118855493D01*
X189802065Y-118855494D01*
X189796757Y-118856916D01*
X189791776Y-118859239D01*
X189791775Y-118859239D01*
X189594238Y-118951351D01*
X189594233Y-118951354D01*
X189589251Y-118953677D01*
X189484389Y-119027102D01*
X189406211Y-119081843D01*
X189406208Y-119081845D01*
X189401700Y-119085002D01*
X189239802Y-119246900D01*
X189236645Y-119251408D01*
X189236643Y-119251411D01*
X189224172Y-119269222D01*
X189108477Y-119434451D01*
X189106154Y-119439433D01*
X189106151Y-119439438D01*
X189059391Y-119539717D01*
X189011716Y-119641957D01*
X189010294Y-119647265D01*
X189010293Y-119647267D01*
X188987422Y-119732623D01*
X188952457Y-119863113D01*
X188932502Y-120091200D01*
X181399498Y-120091200D01*
X181379543Y-119863113D01*
X181344578Y-119732623D01*
X181321707Y-119647267D01*
X181321706Y-119647265D01*
X181320284Y-119641957D01*
X181272609Y-119539717D01*
X181225849Y-119439438D01*
X181225846Y-119439433D01*
X181223523Y-119434451D01*
X181107828Y-119269222D01*
X181095357Y-119251411D01*
X181095355Y-119251408D01*
X181092198Y-119246900D01*
X180930300Y-119085002D01*
X180925792Y-119081845D01*
X180925789Y-119081843D01*
X180847611Y-119027102D01*
X180742749Y-118953677D01*
X180737767Y-118951354D01*
X180737762Y-118951351D01*
X180540225Y-118859239D01*
X180540224Y-118859239D01*
X180535243Y-118856916D01*
X180529935Y-118855494D01*
X180529933Y-118855493D01*
X180319402Y-118799081D01*
X180319400Y-118799081D01*
X180314087Y-118797657D01*
X180086000Y-118777702D01*
X179857913Y-118797657D01*
X179852600Y-118799081D01*
X179852598Y-118799081D01*
X179642067Y-118855493D01*
X179642065Y-118855494D01*
X179636757Y-118856916D01*
X179631776Y-118859239D01*
X179631775Y-118859239D01*
X179434238Y-118951351D01*
X179434233Y-118951354D01*
X179429251Y-118953677D01*
X179324389Y-119027102D01*
X179246211Y-119081843D01*
X179246208Y-119081845D01*
X179241700Y-119085002D01*
X179207395Y-119119307D01*
X179145083Y-119153333D01*
X179074268Y-119148268D01*
X179017432Y-119105721D01*
X178992621Y-119039201D01*
X178992300Y-119030212D01*
X178992300Y-116138594D01*
X179012302Y-116070473D01*
X179029205Y-116049499D01*
X179295499Y-115783205D01*
X179357811Y-115749179D01*
X179384594Y-115746300D01*
X181856033Y-115746300D01*
X181867216Y-115746827D01*
X181874709Y-115748502D01*
X181882635Y-115748253D01*
X181882636Y-115748253D01*
X181942786Y-115746362D01*
X181946745Y-115746300D01*
X181974656Y-115746300D01*
X181978591Y-115745803D01*
X181978656Y-115745795D01*
X181990493Y-115744862D01*
X182022751Y-115743848D01*
X182026770Y-115743722D01*
X182034689Y-115743473D01*
X182054143Y-115737821D01*
X182073500Y-115733813D01*
X182085730Y-115732268D01*
X182085731Y-115732268D01*
X182093597Y-115731274D01*
X182100968Y-115728355D01*
X182100970Y-115728355D01*
X182134712Y-115714996D01*
X182145942Y-115711151D01*
X182180783Y-115701029D01*
X182180784Y-115701029D01*
X182188393Y-115698818D01*
X182195212Y-115694785D01*
X182195217Y-115694783D01*
X182205828Y-115688507D01*
X182223576Y-115679812D01*
X182242417Y-115672352D01*
X182278187Y-115646364D01*
X182288107Y-115639848D01*
X182319335Y-115621380D01*
X182319338Y-115621378D01*
X182326162Y-115617342D01*
X182340483Y-115603021D01*
X182355517Y-115590180D01*
X182357224Y-115588940D01*
X182371907Y-115578272D01*
X182400098Y-115544195D01*
X182408088Y-115535416D01*
X183289552Y-114653952D01*
X183351864Y-114619926D01*
X183411259Y-114621341D01*
X183469391Y-114636918D01*
X183469402Y-114636920D01*
X183474713Y-114638343D01*
X183702800Y-114658298D01*
X183930887Y-114638343D01*
X183936200Y-114636919D01*
X183936202Y-114636919D01*
X184146733Y-114580507D01*
X184146735Y-114580506D01*
X184152043Y-114579084D01*
X184180934Y-114565612D01*
X184354562Y-114484649D01*
X184354567Y-114484646D01*
X184359549Y-114482323D01*
X184528506Y-114364018D01*
X184542589Y-114354157D01*
X184542592Y-114354155D01*
X184547100Y-114350998D01*
X184708998Y-114189100D01*
X184713056Y-114183305D01*
X184818981Y-114032029D01*
X184874438Y-113987701D01*
X184922194Y-113978300D01*
X184924833Y-113978300D01*
X184936016Y-113978827D01*
X184943509Y-113980502D01*
X184951435Y-113980253D01*
X184951436Y-113980253D01*
X185011586Y-113978362D01*
X185015545Y-113978300D01*
X185043456Y-113978300D01*
X185047391Y-113977803D01*
X185047456Y-113977795D01*
X185059293Y-113976862D01*
X185091551Y-113975848D01*
X185095570Y-113975722D01*
X185103489Y-113975473D01*
X185122943Y-113969821D01*
X185142300Y-113965813D01*
X185154530Y-113964268D01*
X185154531Y-113964268D01*
X185162397Y-113963274D01*
X185169768Y-113960355D01*
X185169770Y-113960355D01*
X185203512Y-113946996D01*
X185214742Y-113943151D01*
X185249583Y-113933029D01*
X185249584Y-113933029D01*
X185257193Y-113930818D01*
X185264012Y-113926785D01*
X185264017Y-113926783D01*
X185274628Y-113920507D01*
X185292376Y-113911812D01*
X185311217Y-113904352D01*
X185343925Y-113880589D01*
X185346987Y-113878364D01*
X185356907Y-113871848D01*
X185388135Y-113853380D01*
X185388138Y-113853378D01*
X185394962Y-113849342D01*
X185409283Y-113835021D01*
X185424317Y-113822180D01*
X185434294Y-113814931D01*
X185440707Y-113810272D01*
X185468898Y-113776195D01*
X185476888Y-113767416D01*
X188621699Y-110622605D01*
X188684011Y-110588579D01*
X188710794Y-110585700D01*
X188766687Y-110585700D01*
X188773139Y-110584328D01*
X188773144Y-110584328D01*
X188860088Y-110565847D01*
X188953488Y-110545994D01*
X188988942Y-110530209D01*
X189121922Y-110471003D01*
X189121924Y-110471002D01*
X189127952Y-110468318D01*
X189133915Y-110463986D01*
X189234000Y-110391269D01*
X189282453Y-110356066D01*
X189388190Y-110238633D01*
X189405821Y-110219052D01*
X189405822Y-110219051D01*
X189410240Y-110214144D01*
X189484064Y-110086277D01*
X189535446Y-110037284D01*
X189605160Y-110023848D01*
X189671071Y-110050234D01*
X189682278Y-110060182D01*
X190013648Y-110391552D01*
X190047674Y-110453864D01*
X190046259Y-110513259D01*
X190030682Y-110571391D01*
X190030681Y-110571398D01*
X190029257Y-110576713D01*
X190009302Y-110804800D01*
X190029257Y-111032887D01*
X190030681Y-111038200D01*
X190030681Y-111038202D01*
X190084353Y-111238505D01*
X190088516Y-111254043D01*
X190090839Y-111259024D01*
X190090839Y-111259025D01*
X190182951Y-111456562D01*
X190182954Y-111456567D01*
X190185277Y-111461549D01*
X190316602Y-111649100D01*
X190478500Y-111810998D01*
X190483008Y-111814155D01*
X190483011Y-111814157D01*
X190561189Y-111868898D01*
X190666051Y-111942323D01*
X190671033Y-111944646D01*
X190671038Y-111944649D01*
X190705257Y-111960605D01*
X190758542Y-112007522D01*
X190778003Y-112075799D01*
X190757461Y-112143759D01*
X190705257Y-112188995D01*
X190671038Y-112204951D01*
X190671033Y-112204954D01*
X190666051Y-112207277D01*
X190561189Y-112280702D01*
X190483011Y-112335443D01*
X190483008Y-112335445D01*
X190478500Y-112338602D01*
X190316602Y-112500500D01*
X190313447Y-112505006D01*
X190313443Y-112505011D01*
X190298582Y-112526235D01*
X190185277Y-112688051D01*
X190182954Y-112693033D01*
X190182951Y-112693038D01*
X190090839Y-112890575D01*
X190088516Y-112895557D01*
X190087094Y-112900865D01*
X190087093Y-112900867D01*
X190030706Y-113111304D01*
X190029257Y-113116713D01*
X190009302Y-113344800D01*
X190029257Y-113572887D01*
X190030681Y-113578200D01*
X190030681Y-113578202D01*
X190084353Y-113778505D01*
X190088516Y-113794043D01*
X190090839Y-113799024D01*
X190090839Y-113799025D01*
X190182951Y-113996562D01*
X190182954Y-113996567D01*
X190185277Y-114001549D01*
X190210052Y-114036931D01*
X190310685Y-114180649D01*
X190316602Y-114189100D01*
X190478500Y-114350998D01*
X190483008Y-114354155D01*
X190483011Y-114354157D01*
X190497094Y-114364018D01*
X190666051Y-114482323D01*
X190671033Y-114484646D01*
X190671038Y-114484649D01*
X190844666Y-114565612D01*
X190873557Y-114579084D01*
X190878865Y-114580506D01*
X190878867Y-114580507D01*
X191089398Y-114636919D01*
X191089400Y-114636919D01*
X191094713Y-114638343D01*
X191322800Y-114658298D01*
X191550887Y-114638343D01*
X191556200Y-114636919D01*
X191556202Y-114636919D01*
X191766733Y-114580507D01*
X191766735Y-114580506D01*
X191772043Y-114579084D01*
X191800934Y-114565612D01*
X191974562Y-114484649D01*
X191974567Y-114484646D01*
X191979549Y-114482323D01*
X192148506Y-114364018D01*
X192162589Y-114354157D01*
X192162592Y-114354155D01*
X192167100Y-114350998D01*
X192302203Y-114215895D01*
X195436451Y-114215895D01*
X195436748Y-114221048D01*
X195436748Y-114221051D01*
X195448307Y-114421522D01*
X195449310Y-114438915D01*
X195450447Y-114443961D01*
X195450448Y-114443967D01*
X195465958Y-114512786D01*
X195498422Y-114656839D01*
X195582466Y-114863816D01*
X195699187Y-115054288D01*
X195845450Y-115223138D01*
X196017326Y-115365832D01*
X196210200Y-115478538D01*
X196215025Y-115480380D01*
X196215026Y-115480381D01*
X196247284Y-115492699D01*
X196418892Y-115558230D01*
X196423960Y-115559261D01*
X196423963Y-115559262D01*
X196487389Y-115572166D01*
X196637797Y-115602767D01*
X196642972Y-115602957D01*
X196642974Y-115602957D01*
X196855873Y-115610764D01*
X196855877Y-115610764D01*
X196861037Y-115610953D01*
X196866157Y-115610297D01*
X196866159Y-115610297D01*
X197077488Y-115583225D01*
X197077489Y-115583225D01*
X197082616Y-115582568D01*
X197087566Y-115581083D01*
X197291629Y-115519861D01*
X197291634Y-115519859D01*
X197296584Y-115518374D01*
X197497194Y-115420096D01*
X197679060Y-115290373D01*
X197837296Y-115132689D01*
X197896794Y-115049889D01*
X197964635Y-114955477D01*
X197967653Y-114951277D01*
X198066630Y-114751011D01*
X198118433Y-114580507D01*
X198130065Y-114542223D01*
X198130065Y-114542221D01*
X198131570Y-114537269D01*
X198160729Y-114315790D01*
X198161724Y-114275084D01*
X198162274Y-114252565D01*
X198162274Y-114252561D01*
X198162356Y-114249200D01*
X198144052Y-114026561D01*
X198089631Y-113809902D01*
X198000554Y-113605040D01*
X197879214Y-113417477D01*
X197728870Y-113252251D01*
X197724819Y-113249052D01*
X197724815Y-113249048D01*
X197557614Y-113117000D01*
X197557610Y-113116998D01*
X197553559Y-113113798D01*
X197512253Y-113090996D01*
X197462284Y-113040564D01*
X197447512Y-112971121D01*
X197472628Y-112904716D01*
X197499980Y-112878109D01*
X197543803Y-112846850D01*
X197679060Y-112750373D01*
X197837296Y-112592689D01*
X197852689Y-112571268D01*
X197964635Y-112415477D01*
X197967653Y-112411277D01*
X197978505Y-112389321D01*
X198064336Y-112215653D01*
X198064337Y-112215651D01*
X198066630Y-112211011D01*
X198108327Y-112073769D01*
X198130065Y-112002223D01*
X198130065Y-112002221D01*
X198131570Y-111997269D01*
X198160729Y-111775790D01*
X198161320Y-111751595D01*
X198162274Y-111712565D01*
X198162274Y-111712561D01*
X198162356Y-111709200D01*
X198144052Y-111486561D01*
X198089631Y-111269902D01*
X198000554Y-111065040D01*
X197879214Y-110877477D01*
X197875740Y-110873659D01*
X197875733Y-110873650D01*
X197731635Y-110715288D01*
X197700583Y-110651442D01*
X197708979Y-110580944D01*
X197754156Y-110526176D01*
X197780600Y-110512507D01*
X197887252Y-110472525D01*
X197902849Y-110463986D01*
X198004924Y-110387485D01*
X198017485Y-110374924D01*
X198093986Y-110272849D01*
X198102524Y-110257254D01*
X198147678Y-110136806D01*
X198151305Y-110121551D01*
X198156831Y-110070686D01*
X198157200Y-110063872D01*
X198157200Y-109441315D01*
X198152725Y-109426076D01*
X198151335Y-109424871D01*
X198143652Y-109423200D01*
X195459316Y-109423200D01*
X195444077Y-109427675D01*
X195442872Y-109429065D01*
X195441201Y-109436748D01*
X195441201Y-110063869D01*
X195441571Y-110070690D01*
X195447095Y-110121552D01*
X195450721Y-110136804D01*
X195495876Y-110257254D01*
X195504414Y-110272849D01*
X195580915Y-110374924D01*
X195593476Y-110387485D01*
X195695551Y-110463986D01*
X195711146Y-110472524D01*
X195820027Y-110513342D01*
X195876791Y-110555984D01*
X195901491Y-110622545D01*
X195886283Y-110691894D01*
X195866891Y-110718375D01*
X195743400Y-110847601D01*
X195739829Y-110851338D01*
X195613943Y-111035880D01*
X195598203Y-111069790D01*
X195523081Y-111231627D01*
X195519888Y-111238505D01*
X195460189Y-111453770D01*
X195436451Y-111675895D01*
X195436748Y-111681048D01*
X195436748Y-111681051D01*
X195443900Y-111805093D01*
X195449310Y-111898915D01*
X195450447Y-111903961D01*
X195450448Y-111903967D01*
X195470319Y-111992139D01*
X195498422Y-112116839D01*
X195582466Y-112323816D01*
X195619378Y-112384051D01*
X195690738Y-112500500D01*
X195699187Y-112514288D01*
X195845450Y-112683138D01*
X196017326Y-112825832D01*
X196087795Y-112867011D01*
X196090645Y-112868676D01*
X196139369Y-112920314D01*
X196152440Y-112990097D01*
X196125709Y-113055869D01*
X196085255Y-113089227D01*
X196072807Y-113095707D01*
X196068674Y-113098810D01*
X196068671Y-113098812D01*
X195898300Y-113226730D01*
X195894165Y-113229835D01*
X195739829Y-113391338D01*
X195613943Y-113575880D01*
X195598203Y-113609790D01*
X195523081Y-113771627D01*
X195519888Y-113778505D01*
X195460189Y-113993770D01*
X195436451Y-114215895D01*
X192302203Y-114215895D01*
X192328998Y-114189100D01*
X192334916Y-114180649D01*
X192435548Y-114036931D01*
X192460323Y-114001549D01*
X192462646Y-113996567D01*
X192462649Y-113996562D01*
X192554761Y-113799025D01*
X192554761Y-113799024D01*
X192557084Y-113794043D01*
X192561248Y-113778505D01*
X192614919Y-113578202D01*
X192614919Y-113578200D01*
X192616343Y-113572887D01*
X192636298Y-113344800D01*
X192616343Y-113116713D01*
X192614894Y-113111304D01*
X192558507Y-112900867D01*
X192558506Y-112900865D01*
X192557084Y-112895557D01*
X192554761Y-112890575D01*
X192462649Y-112693038D01*
X192462646Y-112693033D01*
X192460323Y-112688051D01*
X192347018Y-112526235D01*
X192332157Y-112505011D01*
X192332153Y-112505006D01*
X192328998Y-112500500D01*
X192167100Y-112338602D01*
X192162592Y-112335445D01*
X192162589Y-112335443D01*
X192084411Y-112280702D01*
X191979549Y-112207277D01*
X191974567Y-112204954D01*
X191974562Y-112204951D01*
X191940343Y-112188995D01*
X191887058Y-112142078D01*
X191867597Y-112073801D01*
X191888139Y-112005841D01*
X191940343Y-111960605D01*
X191974562Y-111944649D01*
X191974567Y-111944646D01*
X191979549Y-111942323D01*
X192084411Y-111868898D01*
X192162589Y-111814157D01*
X192162592Y-111814155D01*
X192167100Y-111810998D01*
X192328998Y-111649100D01*
X192438981Y-111492029D01*
X192494438Y-111447701D01*
X192542194Y-111438300D01*
X193510033Y-111438300D01*
X193521216Y-111438827D01*
X193528709Y-111440502D01*
X193536635Y-111440253D01*
X193536636Y-111440253D01*
X193596786Y-111438362D01*
X193600745Y-111438300D01*
X193628656Y-111438300D01*
X193632591Y-111437803D01*
X193632656Y-111437795D01*
X193644493Y-111436862D01*
X193676751Y-111435848D01*
X193680770Y-111435722D01*
X193688689Y-111435473D01*
X193708143Y-111429821D01*
X193727500Y-111425813D01*
X193739730Y-111424268D01*
X193739731Y-111424268D01*
X193747597Y-111423274D01*
X193754968Y-111420355D01*
X193754970Y-111420355D01*
X193788712Y-111406996D01*
X193799942Y-111403151D01*
X193834783Y-111393029D01*
X193834784Y-111393029D01*
X193842393Y-111390818D01*
X193849212Y-111386785D01*
X193849217Y-111386783D01*
X193859828Y-111380507D01*
X193877576Y-111371812D01*
X193896417Y-111364352D01*
X193932187Y-111338364D01*
X193942107Y-111331848D01*
X193973335Y-111313380D01*
X193973338Y-111313378D01*
X193980162Y-111309342D01*
X193994483Y-111295021D01*
X194009517Y-111282180D01*
X194019494Y-111274931D01*
X194025907Y-111270272D01*
X194054098Y-111236195D01*
X194062088Y-111227416D01*
X194753047Y-110536457D01*
X194761337Y-110528913D01*
X194767818Y-110524800D01*
X194814459Y-110475132D01*
X194817213Y-110472291D01*
X194836934Y-110452570D01*
X194839412Y-110449375D01*
X194847118Y-110440353D01*
X194871958Y-110413901D01*
X194877386Y-110408121D01*
X194886495Y-110391552D01*
X194887146Y-110390368D01*
X194897999Y-110373845D01*
X194905553Y-110364106D01*
X194910413Y-110357841D01*
X194927976Y-110317257D01*
X194933183Y-110306627D01*
X194954495Y-110267860D01*
X194956466Y-110260183D01*
X194956468Y-110260178D01*
X194959532Y-110248242D01*
X194965938Y-110229530D01*
X194970834Y-110218217D01*
X194973981Y-110210945D01*
X194980897Y-110167281D01*
X194983304Y-110155660D01*
X194992328Y-110120511D01*
X194992328Y-110120510D01*
X194994300Y-110112830D01*
X194994300Y-110092569D01*
X194995851Y-110072858D01*
X194996195Y-110070690D01*
X194999019Y-110052857D01*
X194994859Y-110008846D01*
X194994300Y-109996989D01*
X194994300Y-108897085D01*
X195441200Y-108897085D01*
X195445675Y-108912324D01*
X195447065Y-108913529D01*
X195454748Y-108915200D01*
X196527085Y-108915200D01*
X196542324Y-108910725D01*
X196543529Y-108909335D01*
X196545200Y-108901652D01*
X196545200Y-108897085D01*
X197053200Y-108897085D01*
X197057675Y-108912324D01*
X197059065Y-108913529D01*
X197066748Y-108915200D01*
X198139084Y-108915200D01*
X198154323Y-108910725D01*
X198155528Y-108909335D01*
X198157199Y-108901652D01*
X198157199Y-108274531D01*
X198156829Y-108267710D01*
X198151305Y-108216848D01*
X198147679Y-108201596D01*
X198102524Y-108081146D01*
X198093986Y-108065551D01*
X198017485Y-107963476D01*
X198004924Y-107950915D01*
X197902849Y-107874414D01*
X197887254Y-107865876D01*
X197766806Y-107820722D01*
X197751551Y-107817095D01*
X197700686Y-107811569D01*
X197693872Y-107811200D01*
X197071315Y-107811200D01*
X197056076Y-107815675D01*
X197054871Y-107817065D01*
X197053200Y-107824748D01*
X197053200Y-108897085D01*
X196545200Y-108897085D01*
X196545200Y-107829316D01*
X196540725Y-107814077D01*
X196539335Y-107812872D01*
X196531652Y-107811201D01*
X195904531Y-107811201D01*
X195897710Y-107811571D01*
X195846848Y-107817095D01*
X195831596Y-107820721D01*
X195711146Y-107865876D01*
X195695551Y-107874414D01*
X195593476Y-107950915D01*
X195580915Y-107963476D01*
X195504414Y-108065551D01*
X195495876Y-108081146D01*
X195450722Y-108201594D01*
X195447095Y-108216849D01*
X195441569Y-108267714D01*
X195441200Y-108274528D01*
X195441200Y-108897085D01*
X194994300Y-108897085D01*
X194994300Y-107096194D01*
X195014302Y-107028073D01*
X195031205Y-107007099D01*
X198370899Y-103667405D01*
X198433211Y-103633379D01*
X198459994Y-103630500D01*
X199489033Y-103630500D01*
X199500216Y-103631027D01*
X199507709Y-103632702D01*
X199515635Y-103632453D01*
X199515636Y-103632453D01*
X199575786Y-103630562D01*
X199579745Y-103630500D01*
X199607656Y-103630500D01*
X199611591Y-103630003D01*
X199611656Y-103629995D01*
X199623493Y-103629062D01*
X199655751Y-103628048D01*
X199659770Y-103627922D01*
X199667689Y-103627673D01*
X199687143Y-103622021D01*
X199706500Y-103618013D01*
X199718730Y-103616468D01*
X199718731Y-103616468D01*
X199726597Y-103615474D01*
X199733968Y-103612555D01*
X199733970Y-103612555D01*
X199767712Y-103599196D01*
X199778942Y-103595351D01*
X199813783Y-103585229D01*
X199813784Y-103585229D01*
X199821393Y-103583018D01*
X199828212Y-103578985D01*
X199828217Y-103578983D01*
X199838828Y-103572707D01*
X199856576Y-103564012D01*
X199875417Y-103556552D01*
X199911187Y-103530564D01*
X199921107Y-103524048D01*
X199952335Y-103505580D01*
X199952338Y-103505578D01*
X199959162Y-103501542D01*
X199973483Y-103487221D01*
X199988517Y-103474380D01*
X199998494Y-103467131D01*
X200004907Y-103462472D01*
X200033098Y-103428395D01*
X200041088Y-103419616D01*
X201120475Y-102340229D01*
X201182787Y-102306203D01*
X201257788Y-102312915D01*
X201279009Y-102321705D01*
X201338128Y-102335898D01*
X201520384Y-102379654D01*
X201520390Y-102379655D01*
X201525197Y-102380809D01*
X201777600Y-102400674D01*
X202030003Y-102380809D01*
X202034810Y-102379655D01*
X202034816Y-102379654D01*
X202217072Y-102335898D01*
X202276191Y-102321705D01*
X202308735Y-102308225D01*
X202505528Y-102226711D01*
X202505532Y-102226709D01*
X202510102Y-102224816D01*
X202725976Y-102092528D01*
X202918498Y-101928098D01*
X203082928Y-101735576D01*
X203215216Y-101519702D01*
X203260629Y-101410067D01*
X203310211Y-101290364D01*
X203310212Y-101290362D01*
X203312105Y-101285791D01*
X203371209Y-101039603D01*
X203391074Y-100787200D01*
X203371209Y-100534797D01*
X203312105Y-100288609D01*
X203215216Y-100054698D01*
X203082928Y-99838824D01*
X202918498Y-99646302D01*
X202725976Y-99481872D01*
X202510102Y-99349584D01*
X202505532Y-99347691D01*
X202505528Y-99347689D01*
X202280764Y-99254589D01*
X202280762Y-99254588D01*
X202276191Y-99252695D01*
X202191568Y-99232379D01*
X202034816Y-99194746D01*
X202034810Y-99194745D01*
X202030003Y-99193591D01*
X201777600Y-99173726D01*
X201525197Y-99193591D01*
X201520390Y-99194745D01*
X201520384Y-99194746D01*
X201363632Y-99232379D01*
X201279009Y-99252695D01*
X201274438Y-99254588D01*
X201274436Y-99254589D01*
X201049672Y-99347689D01*
X201049668Y-99347691D01*
X201045098Y-99349584D01*
X200829224Y-99481872D01*
X200636702Y-99646302D01*
X200472272Y-99838824D01*
X200339984Y-100054698D01*
X200243095Y-100288609D01*
X200183991Y-100534797D01*
X200164126Y-100787200D01*
X200183991Y-101039603D01*
X200243095Y-101285791D01*
X200244988Y-101290362D01*
X200244989Y-101290364D01*
X200251885Y-101307012D01*
X200259474Y-101377602D01*
X200224572Y-101444324D01*
X199342298Y-102326597D01*
X199279988Y-102360621D01*
X199253205Y-102363500D01*
X198368282Y-102363500D01*
X198340795Y-102360465D01*
X198238633Y-102337628D01*
X198238628Y-102337628D01*
X198230891Y-102335898D01*
X198222965Y-102336147D01*
X198222964Y-102336147D01*
X198136307Y-102338871D01*
X198070911Y-102340927D01*
X198063299Y-102343139D01*
X198063296Y-102343139D01*
X197924820Y-102383370D01*
X197924818Y-102383371D01*
X197917207Y-102385582D01*
X197779438Y-102467058D01*
X197773832Y-102472663D01*
X197773833Y-102472663D01*
X197739710Y-102506785D01*
X197724679Y-102519622D01*
X197714709Y-102526866D01*
X197708293Y-102531528D01*
X197703240Y-102537636D01*
X197703237Y-102537639D01*
X197680119Y-102565585D01*
X197672119Y-102574376D01*
X197669271Y-102577224D01*
X197669258Y-102577238D01*
X194759395Y-105487100D01*
X194697083Y-105521126D01*
X194626267Y-105516061D01*
X194569432Y-105473514D01*
X194544621Y-105406994D01*
X194544300Y-105398005D01*
X194544300Y-105089563D01*
X194544827Y-105078379D01*
X194546501Y-105070891D01*
X194544362Y-105002832D01*
X194544300Y-104998875D01*
X194544300Y-104970944D01*
X194543794Y-104966938D01*
X194542861Y-104955092D01*
X194541722Y-104918837D01*
X194541473Y-104910910D01*
X194535822Y-104891458D01*
X194531814Y-104872106D01*
X194530267Y-104859863D01*
X194529274Y-104852003D01*
X194526077Y-104843928D01*
X194513000Y-104810897D01*
X194509155Y-104799670D01*
X194508521Y-104797487D01*
X194496818Y-104757207D01*
X194492784Y-104750385D01*
X194492781Y-104750379D01*
X194486506Y-104739768D01*
X194477810Y-104722018D01*
X194473272Y-104710556D01*
X194473269Y-104710551D01*
X194470352Y-104703183D01*
X194444373Y-104667425D01*
X194437857Y-104657507D01*
X194419375Y-104626257D01*
X194415342Y-104619437D01*
X194401018Y-104605113D01*
X194388176Y-104590078D01*
X194384451Y-104584951D01*
X194376272Y-104573693D01*
X194342206Y-104545511D01*
X194333427Y-104537522D01*
X193783922Y-103988017D01*
X193749896Y-103925705D01*
X193747707Y-103912092D01*
X193731032Y-103753435D01*
X193731032Y-103753433D01*
X193730342Y-103746872D01*
X193671327Y-103565244D01*
X193651305Y-103530564D01*
X193622231Y-103480207D01*
X193575840Y-103399856D01*
X193448053Y-103257934D01*
X193293552Y-103145682D01*
X193287524Y-103142998D01*
X193287522Y-103142997D01*
X193125119Y-103070691D01*
X193125118Y-103070691D01*
X193119088Y-103068006D01*
X193025687Y-103048153D01*
X192938744Y-103029672D01*
X192938739Y-103029672D01*
X192932287Y-103028300D01*
X192741313Y-103028300D01*
X192734861Y-103029672D01*
X192734856Y-103029672D01*
X192647913Y-103048153D01*
X192554512Y-103068006D01*
X192548482Y-103070691D01*
X192548481Y-103070691D01*
X192386078Y-103142997D01*
X192386076Y-103142998D01*
X192380048Y-103145682D01*
X192225547Y-103257934D01*
X192097760Y-103399856D01*
X192051369Y-103480207D01*
X192022296Y-103530564D01*
X192002273Y-103565244D01*
X191943258Y-103746872D01*
X191923296Y-103936800D01*
X191923986Y-103943365D01*
X191932282Y-104022293D01*
X191943258Y-104126728D01*
X192002273Y-104308356D01*
X192005576Y-104314078D01*
X192005577Y-104314079D01*
X192031196Y-104358452D01*
X192047934Y-104427447D01*
X192024714Y-104494539D01*
X191968907Y-104538426D01*
X191898231Y-104545175D01*
X191868827Y-104535647D01*
X191848798Y-104526307D01*
X191781408Y-104494883D01*
X191777025Y-104492839D01*
X191777024Y-104492839D01*
X191772043Y-104490516D01*
X191766735Y-104489094D01*
X191766733Y-104489093D01*
X191556202Y-104432681D01*
X191556200Y-104432681D01*
X191550887Y-104431257D01*
X191322800Y-104411302D01*
X191094713Y-104431257D01*
X191089400Y-104432681D01*
X191089398Y-104432681D01*
X190878867Y-104489093D01*
X190878865Y-104489094D01*
X190873557Y-104490516D01*
X190868576Y-104492839D01*
X190868575Y-104492839D01*
X190671038Y-104584951D01*
X190671033Y-104584954D01*
X190666051Y-104587277D01*
X190620122Y-104619437D01*
X190483011Y-104715443D01*
X190483008Y-104715445D01*
X190478500Y-104718602D01*
X190316602Y-104880500D01*
X190313445Y-104885008D01*
X190313443Y-104885011D01*
X190264372Y-104955092D01*
X190185277Y-105068051D01*
X190182954Y-105073033D01*
X190182951Y-105073038D01*
X190103078Y-105244328D01*
X190088516Y-105275557D01*
X190087094Y-105280865D01*
X190087093Y-105280867D01*
X190038714Y-105461418D01*
X190029257Y-105496713D01*
X190009302Y-105724800D01*
X190029257Y-105952887D01*
X190030681Y-105958200D01*
X190030681Y-105958202D01*
X190039831Y-105992348D01*
X190088516Y-106174043D01*
X190090839Y-106179024D01*
X190090839Y-106179025D01*
X190182951Y-106376562D01*
X190182954Y-106376567D01*
X190185277Y-106381549D01*
X190316602Y-106569100D01*
X190478500Y-106730998D01*
X190483008Y-106734155D01*
X190483011Y-106734157D01*
X190504459Y-106749175D01*
X190666051Y-106862323D01*
X190671033Y-106864646D01*
X190671038Y-106864649D01*
X190705257Y-106880605D01*
X190758542Y-106927522D01*
X190778003Y-106995799D01*
X190757461Y-107063759D01*
X190705257Y-107108995D01*
X190671038Y-107124951D01*
X190671033Y-107124954D01*
X190666051Y-107127277D01*
X190561755Y-107200306D01*
X190483011Y-107255443D01*
X190483008Y-107255445D01*
X190478500Y-107258602D01*
X190316602Y-107420500D01*
X190185277Y-107608051D01*
X190182954Y-107613033D01*
X190182951Y-107613038D01*
X190091852Y-107808402D01*
X190088516Y-107815557D01*
X190029257Y-108036713D01*
X190009302Y-108264800D01*
X190009781Y-108270275D01*
X190009781Y-108270285D01*
X190010826Y-108282228D01*
X189996838Y-108351833D01*
X189947439Y-108402826D01*
X189878314Y-108419017D01*
X189811408Y-108395265D01*
X189796211Y-108382306D01*
X189286452Y-107872547D01*
X189278912Y-107864261D01*
X189274800Y-107857782D01*
X189225148Y-107811156D01*
X189222307Y-107808402D01*
X189202570Y-107788665D01*
X189199373Y-107786185D01*
X189190351Y-107778480D01*
X189163900Y-107753641D01*
X189158121Y-107748214D01*
X189151175Y-107744395D01*
X189151172Y-107744393D01*
X189140366Y-107738452D01*
X189123847Y-107727601D01*
X189123383Y-107727241D01*
X189107841Y-107715186D01*
X189100572Y-107712041D01*
X189100568Y-107712038D01*
X189067263Y-107697626D01*
X189056613Y-107692409D01*
X189017860Y-107671105D01*
X188998237Y-107666067D01*
X188979534Y-107659663D01*
X188968220Y-107654767D01*
X188968219Y-107654767D01*
X188960945Y-107651619D01*
X188953122Y-107650380D01*
X188953112Y-107650377D01*
X188917276Y-107644701D01*
X188905656Y-107642295D01*
X188870511Y-107633272D01*
X188870510Y-107633272D01*
X188862830Y-107631300D01*
X188842576Y-107631300D01*
X188822865Y-107629749D01*
X188810686Y-107627820D01*
X188802857Y-107626580D01*
X188794965Y-107627326D01*
X188758839Y-107630741D01*
X188746981Y-107631300D01*
X184922194Y-107631300D01*
X184854073Y-107611298D01*
X184818981Y-107577571D01*
X184712157Y-107425011D01*
X184712155Y-107425008D01*
X184708998Y-107420500D01*
X184547100Y-107258602D01*
X184542589Y-107255443D01*
X184538376Y-107251908D01*
X184539188Y-107250940D01*
X184498710Y-107200306D01*
X184491396Y-107129687D01*
X184523424Y-107066324D01*
X184584623Y-107030336D01*
X184601701Y-107027280D01*
X184605152Y-107026905D01*
X184620404Y-107023279D01*
X184740854Y-106978124D01*
X184756449Y-106969586D01*
X184858524Y-106893085D01*
X184871085Y-106880524D01*
X184947586Y-106778449D01*
X184956124Y-106762854D01*
X185001278Y-106642406D01*
X185004905Y-106627151D01*
X185010431Y-106576286D01*
X185010800Y-106569472D01*
X185010800Y-105996915D01*
X185006325Y-105981676D01*
X185004935Y-105980471D01*
X184997252Y-105978800D01*
X182412916Y-105978800D01*
X182397677Y-105983275D01*
X182396472Y-105984665D01*
X182394801Y-105992348D01*
X182394801Y-106569469D01*
X182395171Y-106576290D01*
X182400695Y-106627152D01*
X182404321Y-106642404D01*
X182449476Y-106762854D01*
X182458014Y-106778449D01*
X182534515Y-106880524D01*
X182547076Y-106893085D01*
X182649151Y-106969586D01*
X182664746Y-106978124D01*
X182785194Y-107023278D01*
X182800443Y-107026904D01*
X182803896Y-107027279D01*
X182806406Y-107028322D01*
X182808131Y-107028732D01*
X182808065Y-107029011D01*
X182869459Y-107054519D01*
X182909888Y-107112880D01*
X182912346Y-107183834D01*
X182876053Y-107244854D01*
X182864560Y-107254144D01*
X182863014Y-107255441D01*
X182858500Y-107258602D01*
X182696602Y-107420500D01*
X182565277Y-107608051D01*
X182562954Y-107613033D01*
X182562951Y-107613038D01*
X182471852Y-107808402D01*
X182468516Y-107815557D01*
X182409257Y-108036713D01*
X182389302Y-108264800D01*
X182409257Y-108492887D01*
X182410679Y-108498192D01*
X182410681Y-108498206D01*
X182426259Y-108556339D01*
X182424571Y-108627316D01*
X182393648Y-108678048D01*
X181573342Y-109498353D01*
X181565063Y-109505887D01*
X181558582Y-109510000D01*
X181515308Y-109556083D01*
X181511957Y-109559651D01*
X181509202Y-109562493D01*
X181489465Y-109582230D01*
X181486985Y-109585427D01*
X181479282Y-109594447D01*
X181449014Y-109626679D01*
X181445195Y-109633625D01*
X181445193Y-109633628D01*
X181439252Y-109644434D01*
X181428401Y-109660953D01*
X181415986Y-109676959D01*
X181412841Y-109684228D01*
X181412838Y-109684232D01*
X181398426Y-109717537D01*
X181393209Y-109728187D01*
X181371905Y-109766940D01*
X181366928Y-109786326D01*
X181366867Y-109786562D01*
X181360463Y-109805266D01*
X181352419Y-109823855D01*
X181351180Y-109831678D01*
X181351177Y-109831688D01*
X181345501Y-109867524D01*
X181343095Y-109879144D01*
X181332100Y-109921970D01*
X181332100Y-109942224D01*
X181330549Y-109961934D01*
X181327380Y-109981943D01*
X181328126Y-109989835D01*
X181331541Y-110025961D01*
X181332100Y-110037819D01*
X181332100Y-111699405D01*
X181312098Y-111767526D01*
X181295195Y-111788500D01*
X180338041Y-112745654D01*
X180275729Y-112779680D01*
X180204914Y-112774615D01*
X180148078Y-112732068D01*
X180127240Y-112689172D01*
X180101084Y-112591557D01*
X180062552Y-112508924D01*
X180006649Y-112389038D01*
X180006646Y-112389033D01*
X180004323Y-112384051D01*
X179904422Y-112241378D01*
X179876157Y-112201011D01*
X179876155Y-112201008D01*
X179872998Y-112196500D01*
X179711100Y-112034602D01*
X179706592Y-112031445D01*
X179706589Y-112031443D01*
X179628411Y-111976702D01*
X179523549Y-111903277D01*
X179518567Y-111900954D01*
X179518562Y-111900951D01*
X179321025Y-111808839D01*
X179321024Y-111808839D01*
X179316043Y-111806516D01*
X179310735Y-111805094D01*
X179310733Y-111805093D01*
X179100202Y-111748681D01*
X179100200Y-111748681D01*
X179094887Y-111747257D01*
X178866800Y-111727302D01*
X178638713Y-111747257D01*
X178633400Y-111748681D01*
X178633398Y-111748681D01*
X178422867Y-111805093D01*
X178422865Y-111805094D01*
X178417557Y-111806516D01*
X178412576Y-111808839D01*
X178412575Y-111808839D01*
X178215038Y-111900951D01*
X178215033Y-111900954D01*
X178210051Y-111903277D01*
X178105189Y-111976702D01*
X178027011Y-112031443D01*
X178027008Y-112031445D01*
X178022500Y-112034602D01*
X177860602Y-112196500D01*
X177857445Y-112201008D01*
X177857443Y-112201011D01*
X177829178Y-112241378D01*
X177729277Y-112384051D01*
X177726954Y-112389033D01*
X177726951Y-112389038D01*
X177671048Y-112508924D01*
X177632516Y-112591557D01*
X177631094Y-112596865D01*
X177631093Y-112596867D01*
X177590937Y-112746729D01*
X177573257Y-112812713D01*
X177553302Y-113040800D01*
X177573257Y-113268887D01*
X177574681Y-113274200D01*
X177574681Y-113274202D01*
X177605067Y-113387601D01*
X177632516Y-113490043D01*
X177634839Y-113495024D01*
X177634839Y-113495025D01*
X177726951Y-113692562D01*
X177726954Y-113692567D01*
X177729277Y-113697549D01*
X177860602Y-113885100D01*
X178022500Y-114046998D01*
X178027008Y-114050155D01*
X178027011Y-114050157D01*
X178088040Y-114092890D01*
X178210051Y-114178323D01*
X178215033Y-114180646D01*
X178215038Y-114180649D01*
X178408344Y-114270788D01*
X178417557Y-114275084D01*
X178422865Y-114276506D01*
X178422867Y-114276507D01*
X178633398Y-114332919D01*
X178633400Y-114332919D01*
X178638713Y-114334343D01*
X178644189Y-114334822D01*
X178644194Y-114334823D01*
X178678598Y-114337833D01*
X178682285Y-114338155D01*
X178748404Y-114364018D01*
X178790043Y-114421522D01*
X178793984Y-114492409D01*
X178758975Y-114554174D01*
X178745364Y-114565612D01*
X178726612Y-114579236D01*
X178716695Y-114585751D01*
X178678638Y-114608258D01*
X178664317Y-114622579D01*
X178649284Y-114635419D01*
X178632893Y-114647328D01*
X178623818Y-114658298D01*
X178604712Y-114681393D01*
X178596722Y-114690174D01*
X177966542Y-115320353D01*
X177958263Y-115327887D01*
X177951782Y-115332000D01*
X177920012Y-115365832D01*
X177905157Y-115381651D01*
X177902402Y-115384493D01*
X177882665Y-115404230D01*
X177880185Y-115407427D01*
X177872482Y-115416447D01*
X177842214Y-115448679D01*
X177838395Y-115455625D01*
X177838393Y-115455628D01*
X177832452Y-115466434D01*
X177821601Y-115482953D01*
X177809186Y-115498959D01*
X177806041Y-115506228D01*
X177806038Y-115506232D01*
X177791626Y-115539537D01*
X177786409Y-115550187D01*
X177765105Y-115588940D01*
X177763134Y-115596615D01*
X177763134Y-115596616D01*
X177760067Y-115608562D01*
X177753663Y-115627266D01*
X177745619Y-115645855D01*
X177744380Y-115653678D01*
X177744377Y-115653688D01*
X177738701Y-115689524D01*
X177736295Y-115701144D01*
X177725300Y-115743970D01*
X177725300Y-115764224D01*
X177723749Y-115783934D01*
X177720580Y-115803943D01*
X177721326Y-115811835D01*
X177724741Y-115847961D01*
X177725300Y-115859819D01*
X177725300Y-121199005D01*
X177705298Y-121267126D01*
X177688395Y-121288100D01*
X176705900Y-122270595D01*
X176643588Y-122304621D01*
X176616805Y-122307500D01*
X176338100Y-122307500D01*
X176269979Y-122287498D01*
X176223486Y-122233842D01*
X176212100Y-122181500D01*
X176212100Y-122042866D01*
X176205345Y-121980684D01*
X176154215Y-121844295D01*
X176066861Y-121727739D01*
X175950305Y-121640385D01*
X175922921Y-121630119D01*
X175831287Y-121595767D01*
X175774523Y-121553125D01*
X175749823Y-121486564D01*
X175765030Y-121417215D01*
X175786577Y-121388535D01*
X175887652Y-121287812D01*
X175894330Y-121279965D01*
X176018603Y-121107020D01*
X176023913Y-121098183D01*
X176118270Y-120907267D01*
X176122069Y-120897672D01*
X176183977Y-120693910D01*
X176186155Y-120683837D01*
X176187586Y-120672962D01*
X176185375Y-120658778D01*
X176172217Y-120655000D01*
X173536825Y-120655000D01*
X173523294Y-120658973D01*
X173521857Y-120668966D01*
X173552165Y-120803446D01*
X173555245Y-120813275D01*
X173635370Y-121010603D01*
X173640013Y-121019794D01*
X173751294Y-121201388D01*
X173757377Y-121209699D01*
X173896813Y-121370667D01*
X173904177Y-121377879D01*
X173909122Y-121381985D01*
X173948756Y-121440889D01*
X173950253Y-121511870D01*
X173913137Y-121572392D01*
X173872864Y-121596910D01*
X173765305Y-121637232D01*
X173765304Y-121637233D01*
X173756895Y-121640385D01*
X173640339Y-121727739D01*
X173552985Y-121844295D01*
X173501855Y-121980684D01*
X173495100Y-122042866D01*
X173495100Y-123839134D01*
X172059700Y-123839134D01*
X172059700Y-120135183D01*
X173517989Y-120135183D01*
X173519512Y-120143607D01*
X173531892Y-120147000D01*
X174581485Y-120147000D01*
X174596724Y-120142525D01*
X174597929Y-120141135D01*
X174599600Y-120133452D01*
X174599600Y-120128885D01*
X175107600Y-120128885D01*
X175112075Y-120144124D01*
X175113465Y-120145329D01*
X175121148Y-120147000D01*
X176171944Y-120147000D01*
X176185475Y-120143027D01*
X176186780Y-120133947D01*
X176144814Y-119966875D01*
X176141494Y-119957124D01*
X176056572Y-119761814D01*
X176051705Y-119752739D01*
X175936026Y-119573926D01*
X175929736Y-119565757D01*
X175786406Y-119408240D01*
X175778873Y-119401215D01*
X175611739Y-119269222D01*
X175603152Y-119263517D01*
X175416717Y-119160599D01*
X175407305Y-119156369D01*
X175206559Y-119085280D01*
X175196588Y-119082646D01*
X175125437Y-119069972D01*
X175112140Y-119071432D01*
X175107600Y-119085989D01*
X175107600Y-120128885D01*
X174599600Y-120128885D01*
X174599600Y-119084102D01*
X174595682Y-119070758D01*
X174581406Y-119068771D01*
X174542924Y-119074660D01*
X174532888Y-119077051D01*
X174330468Y-119143212D01*
X174320959Y-119147209D01*
X174132063Y-119245542D01*
X174123338Y-119251036D01*
X173953033Y-119378905D01*
X173945326Y-119385748D01*
X173798190Y-119539717D01*
X173791704Y-119547727D01*
X173671698Y-119723649D01*
X173666600Y-119732623D01*
X173576938Y-119925783D01*
X173573375Y-119935470D01*
X173517989Y-120135183D01*
X172059700Y-120135183D01*
X172059700Y-109126862D01*
X178145293Y-109126862D01*
X178154589Y-109138877D01*
X178205794Y-109174731D01*
X178215289Y-109180214D01*
X178412747Y-109272290D01*
X178423039Y-109276036D01*
X178633488Y-109332425D01*
X178644281Y-109334328D01*
X178861325Y-109353317D01*
X178872275Y-109353317D01*
X179089319Y-109334328D01*
X179100112Y-109332425D01*
X179310561Y-109276036D01*
X179320853Y-109272290D01*
X179518311Y-109180214D01*
X179527806Y-109174731D01*
X179579848Y-109138291D01*
X179588224Y-109127812D01*
X179581156Y-109114366D01*
X178879612Y-108412822D01*
X178865668Y-108405208D01*
X178863835Y-108405339D01*
X178857220Y-108409590D01*
X178151723Y-109115087D01*
X178145293Y-109126862D01*
X172059700Y-109126862D01*
X172059700Y-108046275D01*
X177554283Y-108046275D01*
X177573272Y-108263319D01*
X177575175Y-108274112D01*
X177631564Y-108484561D01*
X177635310Y-108494853D01*
X177727386Y-108692311D01*
X177732869Y-108701806D01*
X177769309Y-108753848D01*
X177779788Y-108762224D01*
X177793234Y-108755156D01*
X178494778Y-108053612D01*
X178501156Y-108041932D01*
X179231208Y-108041932D01*
X179231339Y-108043765D01*
X179235590Y-108050380D01*
X179941087Y-108755877D01*
X179952862Y-108762307D01*
X179964877Y-108753011D01*
X180000731Y-108701806D01*
X180006214Y-108692311D01*
X180098290Y-108494853D01*
X180102036Y-108484561D01*
X180158425Y-108274112D01*
X180160328Y-108263319D01*
X180179317Y-108046275D01*
X180179317Y-108035325D01*
X180160328Y-107818281D01*
X180158425Y-107807488D01*
X180102036Y-107597039D01*
X180098290Y-107586747D01*
X180006214Y-107389289D01*
X180000731Y-107379794D01*
X179964291Y-107327752D01*
X179953812Y-107319376D01*
X179940366Y-107326444D01*
X179238822Y-108027988D01*
X179231208Y-108041932D01*
X178501156Y-108041932D01*
X178502392Y-108039668D01*
X178502261Y-108037835D01*
X178498010Y-108031220D01*
X177792513Y-107325723D01*
X177780738Y-107319293D01*
X177768723Y-107328589D01*
X177732869Y-107379794D01*
X177727386Y-107389289D01*
X177635310Y-107586747D01*
X177631564Y-107597039D01*
X177575175Y-107807488D01*
X177573272Y-107818281D01*
X177554283Y-108035325D01*
X177554283Y-108046275D01*
X172059700Y-108046275D01*
X172059700Y-106953788D01*
X178145376Y-106953788D01*
X178152444Y-106967234D01*
X178853988Y-107668778D01*
X178867932Y-107676392D01*
X178869765Y-107676261D01*
X178876380Y-107672010D01*
X179581877Y-106966513D01*
X179588307Y-106954738D01*
X179579011Y-106942723D01*
X179527806Y-106906869D01*
X179518311Y-106901386D01*
X179320853Y-106809310D01*
X179310561Y-106805564D01*
X179100112Y-106749175D01*
X179089319Y-106747272D01*
X178872275Y-106728283D01*
X178861325Y-106728283D01*
X178644281Y-106747272D01*
X178633488Y-106749175D01*
X178423039Y-106805564D01*
X178412747Y-106809310D01*
X178215289Y-106901386D01*
X178205794Y-106906869D01*
X178153752Y-106943309D01*
X178145376Y-106953788D01*
X172059700Y-106953788D01*
X172059700Y-102179449D01*
X172079702Y-102111328D01*
X172133358Y-102064835D01*
X172203632Y-102054731D01*
X172268212Y-102084225D01*
X172307407Y-102146838D01*
X172349316Y-102303243D01*
X172351639Y-102308224D01*
X172351639Y-102308225D01*
X172443751Y-102505762D01*
X172443754Y-102505767D01*
X172446077Y-102510749D01*
X172577402Y-102698300D01*
X172739300Y-102860198D01*
X172743808Y-102863355D01*
X172743811Y-102863357D01*
X172896371Y-102970181D01*
X172940699Y-103025638D01*
X172950100Y-103073394D01*
X172950100Y-104010433D01*
X172949573Y-104021616D01*
X172947898Y-104029109D01*
X172948147Y-104037035D01*
X172948147Y-104037036D01*
X172950038Y-104097186D01*
X172950100Y-104101145D01*
X172950100Y-104129056D01*
X172950597Y-104132990D01*
X172950597Y-104132991D01*
X172950605Y-104133056D01*
X172951538Y-104144893D01*
X172952927Y-104189089D01*
X172958578Y-104208539D01*
X172962587Y-104227900D01*
X172965126Y-104247997D01*
X172968045Y-104255368D01*
X172968045Y-104255370D01*
X172981404Y-104289112D01*
X172985249Y-104300342D01*
X172997582Y-104342793D01*
X173001615Y-104349612D01*
X173001617Y-104349617D01*
X173007893Y-104360228D01*
X173016588Y-104377976D01*
X173024048Y-104396817D01*
X173028710Y-104403233D01*
X173028710Y-104403234D01*
X173050036Y-104432587D01*
X173056552Y-104442507D01*
X173079058Y-104480562D01*
X173093379Y-104494883D01*
X173106219Y-104509916D01*
X173118128Y-104526307D01*
X173124232Y-104531357D01*
X173124237Y-104531362D01*
X173152198Y-104554493D01*
X173160979Y-104562483D01*
X174045153Y-105446658D01*
X174052687Y-105454937D01*
X174056800Y-105461418D01*
X174084149Y-105487100D01*
X174106451Y-105508043D01*
X174109293Y-105510798D01*
X174129030Y-105530535D01*
X174132227Y-105533015D01*
X174141247Y-105540718D01*
X174173479Y-105570986D01*
X174180425Y-105574805D01*
X174180428Y-105574807D01*
X174191234Y-105580748D01*
X174207753Y-105591599D01*
X174223759Y-105604014D01*
X174231028Y-105607159D01*
X174231032Y-105607162D01*
X174264337Y-105621574D01*
X174274987Y-105626791D01*
X174313740Y-105648095D01*
X174321415Y-105650066D01*
X174321416Y-105650066D01*
X174333362Y-105653133D01*
X174352067Y-105659537D01*
X174370655Y-105667581D01*
X174378478Y-105668820D01*
X174378488Y-105668823D01*
X174414324Y-105674499D01*
X174425944Y-105676905D01*
X174461089Y-105685928D01*
X174468770Y-105687900D01*
X174489024Y-105687900D01*
X174508734Y-105689451D01*
X174528743Y-105692620D01*
X174536635Y-105691874D01*
X174572761Y-105688459D01*
X174584619Y-105687900D01*
X176990200Y-105687900D01*
X177058321Y-105707902D01*
X177077547Y-105724243D01*
X177077820Y-105723940D01*
X177082732Y-105728363D01*
X177087147Y-105733266D01*
X177241648Y-105845518D01*
X177247676Y-105848202D01*
X177247678Y-105848203D01*
X177410081Y-105920509D01*
X177416112Y-105923194D01*
X177509513Y-105943047D01*
X177596456Y-105961528D01*
X177596461Y-105961528D01*
X177602913Y-105962900D01*
X177793887Y-105962900D01*
X177800339Y-105961528D01*
X177800344Y-105961528D01*
X177887288Y-105943047D01*
X177980688Y-105923194D01*
X177986719Y-105920509D01*
X178149122Y-105848203D01*
X178149124Y-105848202D01*
X178155152Y-105845518D01*
X178309653Y-105733266D01*
X178332491Y-105707902D01*
X178433021Y-105596252D01*
X178433022Y-105596251D01*
X178437440Y-105591344D01*
X178517495Y-105452685D01*
X182394800Y-105452685D01*
X182399275Y-105467924D01*
X182400665Y-105469129D01*
X182408348Y-105470800D01*
X183430685Y-105470800D01*
X183445924Y-105466325D01*
X183447129Y-105464935D01*
X183448800Y-105457252D01*
X183448800Y-105452685D01*
X183956800Y-105452685D01*
X183961275Y-105467924D01*
X183962665Y-105469129D01*
X183970348Y-105470800D01*
X184992684Y-105470800D01*
X185007923Y-105466325D01*
X185009128Y-105464935D01*
X185010799Y-105457252D01*
X185010799Y-104880131D01*
X185010429Y-104873310D01*
X185004905Y-104822448D01*
X185001279Y-104807196D01*
X184956124Y-104686746D01*
X184947586Y-104671151D01*
X184871085Y-104569076D01*
X184858524Y-104556515D01*
X184756449Y-104480014D01*
X184740854Y-104471476D01*
X184620406Y-104426322D01*
X184605151Y-104422695D01*
X184554286Y-104417169D01*
X184547472Y-104416800D01*
X183974915Y-104416800D01*
X183959676Y-104421275D01*
X183958471Y-104422665D01*
X183956800Y-104430348D01*
X183956800Y-105452685D01*
X183448800Y-105452685D01*
X183448800Y-104434916D01*
X183444325Y-104419677D01*
X183442935Y-104418472D01*
X183435252Y-104416801D01*
X182858131Y-104416801D01*
X182851310Y-104417171D01*
X182800448Y-104422695D01*
X182785196Y-104426321D01*
X182664746Y-104471476D01*
X182649151Y-104480014D01*
X182547076Y-104556515D01*
X182534515Y-104569076D01*
X182458014Y-104671151D01*
X182449476Y-104686746D01*
X182404322Y-104807194D01*
X182400695Y-104822449D01*
X182395169Y-104873314D01*
X182394800Y-104880128D01*
X182394800Y-105452685D01*
X178517495Y-105452685D01*
X178532927Y-105425956D01*
X178591942Y-105244328D01*
X178611904Y-105054400D01*
X178602091Y-104961037D01*
X178592632Y-104871035D01*
X178592632Y-104871033D01*
X178591942Y-104864472D01*
X178532927Y-104682844D01*
X178521246Y-104662611D01*
X178473610Y-104580105D01*
X178437440Y-104517456D01*
X178416806Y-104494539D01*
X178314075Y-104380445D01*
X178314074Y-104380444D01*
X178309653Y-104375534D01*
X178155152Y-104263282D01*
X178149124Y-104260598D01*
X178149122Y-104260597D01*
X177986719Y-104188291D01*
X177986718Y-104188291D01*
X177980688Y-104185606D01*
X177887288Y-104165753D01*
X177800344Y-104147272D01*
X177800339Y-104147272D01*
X177793887Y-104145900D01*
X177602913Y-104145900D01*
X177596461Y-104147272D01*
X177596456Y-104147272D01*
X177509513Y-104165753D01*
X177416112Y-104185606D01*
X177410082Y-104188291D01*
X177410081Y-104188291D01*
X177247678Y-104260597D01*
X177247676Y-104260598D01*
X177241648Y-104263282D01*
X177087147Y-104375534D01*
X177082732Y-104380437D01*
X177077820Y-104384860D01*
X177076695Y-104383611D01*
X177023386Y-104416451D01*
X176990200Y-104420900D01*
X174863395Y-104420900D01*
X174795274Y-104400898D01*
X174774299Y-104383995D01*
X174254004Y-103863699D01*
X174219979Y-103801387D01*
X174217100Y-103774604D01*
X174217100Y-103073394D01*
X174237102Y-103005273D01*
X174270829Y-102970181D01*
X174423389Y-102863357D01*
X174423392Y-102863355D01*
X174427900Y-102860198D01*
X174589798Y-102698300D01*
X174721123Y-102510749D01*
X174723446Y-102505767D01*
X174723449Y-102505762D01*
X174815561Y-102308225D01*
X174815561Y-102308224D01*
X174817884Y-102303243D01*
X174873654Y-102095110D01*
X174875719Y-102087402D01*
X174875719Y-102087400D01*
X174877143Y-102082087D01*
X174897098Y-101854000D01*
X182430102Y-101854000D01*
X182450057Y-102082087D01*
X182451481Y-102087400D01*
X182451481Y-102087402D01*
X182453547Y-102095110D01*
X182509316Y-102303243D01*
X182511639Y-102308224D01*
X182511639Y-102308225D01*
X182603751Y-102505762D01*
X182603754Y-102505767D01*
X182606077Y-102510749D01*
X182737402Y-102698300D01*
X182899300Y-102860198D01*
X182903808Y-102863355D01*
X182903811Y-102863357D01*
X182981989Y-102918098D01*
X183086851Y-102991523D01*
X183091833Y-102993846D01*
X183091838Y-102993849D01*
X183168662Y-103029672D01*
X183294357Y-103088284D01*
X183299665Y-103089706D01*
X183299667Y-103089707D01*
X183510198Y-103146119D01*
X183510200Y-103146119D01*
X183515513Y-103147543D01*
X183743600Y-103167498D01*
X183971687Y-103147543D01*
X183977000Y-103146119D01*
X183977002Y-103146119D01*
X184187533Y-103089707D01*
X184187535Y-103089706D01*
X184192843Y-103088284D01*
X184318538Y-103029672D01*
X184395362Y-102993849D01*
X184395367Y-102993846D01*
X184400349Y-102991523D01*
X184505211Y-102918098D01*
X184583389Y-102863357D01*
X184583392Y-102863355D01*
X184587900Y-102860198D01*
X184749798Y-102698300D01*
X184834570Y-102577234D01*
X184859781Y-102541229D01*
X184915238Y-102496901D01*
X184962994Y-102487500D01*
X190472033Y-102487500D01*
X190483216Y-102488027D01*
X190490709Y-102489702D01*
X190498635Y-102489453D01*
X190498636Y-102489453D01*
X190558786Y-102487562D01*
X190562745Y-102487500D01*
X190590656Y-102487500D01*
X190594591Y-102487003D01*
X190594656Y-102486995D01*
X190606493Y-102486062D01*
X190638751Y-102485048D01*
X190642770Y-102484922D01*
X190650689Y-102484673D01*
X190670143Y-102479021D01*
X190689500Y-102475013D01*
X190701730Y-102473468D01*
X190701731Y-102473468D01*
X190709597Y-102472474D01*
X190716968Y-102469555D01*
X190716970Y-102469555D01*
X190750712Y-102456196D01*
X190761942Y-102452351D01*
X190796783Y-102442229D01*
X190796784Y-102442229D01*
X190804393Y-102440018D01*
X190811212Y-102435985D01*
X190811217Y-102435983D01*
X190821828Y-102429707D01*
X190839576Y-102421012D01*
X190858417Y-102413552D01*
X190862118Y-102410863D01*
X190921178Y-102395700D01*
X192765734Y-102395700D01*
X192827916Y-102388945D01*
X192964305Y-102337815D01*
X193080861Y-102250461D01*
X193168215Y-102133905D01*
X193219345Y-101997516D01*
X193226100Y-101935334D01*
X193226100Y-99639066D01*
X193219345Y-99576884D01*
X193168215Y-99440495D01*
X193080861Y-99323939D01*
X192964305Y-99236585D01*
X192827916Y-99185455D01*
X192765734Y-99178700D01*
X190469466Y-99178700D01*
X190407284Y-99185455D01*
X190270895Y-99236585D01*
X190154339Y-99323939D01*
X190066985Y-99440495D01*
X190015855Y-99576884D01*
X190009100Y-99639066D01*
X190009100Y-101094500D01*
X189989098Y-101162621D01*
X189935442Y-101209114D01*
X189883100Y-101220500D01*
X184962994Y-101220500D01*
X184894873Y-101200498D01*
X184859781Y-101166771D01*
X184752957Y-101014211D01*
X184752955Y-101014208D01*
X184749798Y-101009700D01*
X184587900Y-100847802D01*
X184583392Y-100844645D01*
X184583389Y-100844643D01*
X184494311Y-100782270D01*
X184400349Y-100716477D01*
X184395367Y-100714154D01*
X184395362Y-100714151D01*
X184197825Y-100622039D01*
X184197824Y-100622039D01*
X184192843Y-100619716D01*
X184187535Y-100618294D01*
X184187533Y-100618293D01*
X183977002Y-100561881D01*
X183977000Y-100561881D01*
X183971687Y-100560457D01*
X183743600Y-100540502D01*
X183515513Y-100560457D01*
X183510200Y-100561881D01*
X183510198Y-100561881D01*
X183299667Y-100618293D01*
X183299665Y-100618294D01*
X183294357Y-100619716D01*
X183289376Y-100622039D01*
X183289375Y-100622039D01*
X183091838Y-100714151D01*
X183091833Y-100714154D01*
X183086851Y-100716477D01*
X182992889Y-100782270D01*
X182903811Y-100844643D01*
X182903808Y-100844645D01*
X182899300Y-100847802D01*
X182737402Y-101009700D01*
X182734245Y-101014208D01*
X182734243Y-101014211D01*
X182679502Y-101092389D01*
X182606077Y-101197251D01*
X182603754Y-101202233D01*
X182603751Y-101202238D01*
X182518625Y-101384793D01*
X182509316Y-101404757D01*
X182507894Y-101410065D01*
X182507893Y-101410067D01*
X182476145Y-101528551D01*
X182450057Y-101625913D01*
X182430102Y-101854000D01*
X174897098Y-101854000D01*
X174877143Y-101625913D01*
X174851055Y-101528551D01*
X174819307Y-101410067D01*
X174819306Y-101410065D01*
X174817884Y-101404757D01*
X174808575Y-101384793D01*
X174723449Y-101202238D01*
X174723446Y-101202233D01*
X174721123Y-101197251D01*
X174647698Y-101092389D01*
X174592957Y-101014211D01*
X174592955Y-101014208D01*
X174589798Y-101009700D01*
X174427900Y-100847802D01*
X174423392Y-100844645D01*
X174423389Y-100844643D01*
X174334311Y-100782270D01*
X174240349Y-100716477D01*
X174235367Y-100714154D01*
X174235362Y-100714151D01*
X174037825Y-100622039D01*
X174037824Y-100622039D01*
X174032843Y-100619716D01*
X174027535Y-100618294D01*
X174027533Y-100618293D01*
X173817002Y-100561881D01*
X173817000Y-100561881D01*
X173811687Y-100560457D01*
X173583600Y-100540502D01*
X173355513Y-100560457D01*
X173350200Y-100561881D01*
X173350198Y-100561881D01*
X173139667Y-100618293D01*
X173139665Y-100618294D01*
X173134357Y-100619716D01*
X173129376Y-100622039D01*
X173129375Y-100622039D01*
X172931838Y-100714151D01*
X172931833Y-100714154D01*
X172926851Y-100716477D01*
X172832889Y-100782270D01*
X172743811Y-100844643D01*
X172743808Y-100844645D01*
X172739300Y-100847802D01*
X172577402Y-101009700D01*
X172574245Y-101014208D01*
X172574243Y-101014211D01*
X172519502Y-101092389D01*
X172446077Y-101197251D01*
X172443754Y-101202233D01*
X172443751Y-101202238D01*
X172358625Y-101384793D01*
X172349316Y-101404757D01*
X172347894Y-101410065D01*
X172347893Y-101410067D01*
X172307407Y-101561162D01*
X172270455Y-101621785D01*
X172206594Y-101652806D01*
X172136100Y-101644378D01*
X172081353Y-101599175D01*
X172059700Y-101528551D01*
X172059700Y-97914900D01*
X172079702Y-97846779D01*
X172133358Y-97800286D01*
X172185700Y-97788900D01*
X203786300Y-97788900D01*
X203854421Y-97808902D01*
G37*
%TD.AperFunction*%
%TA.AperFunction,Conductor*%
G36*
X192550271Y-104803706D02*
G01*
X192554512Y-104805594D01*
X192633808Y-104822449D01*
X192734856Y-104843928D01*
X192734861Y-104843928D01*
X192741313Y-104845300D01*
X192797206Y-104845300D01*
X192865327Y-104865302D01*
X192886301Y-104882205D01*
X193240395Y-105236299D01*
X193274421Y-105298611D01*
X193277300Y-105325394D01*
X193277300Y-107505300D01*
X193257298Y-107573421D01*
X193203642Y-107619914D01*
X193151300Y-107631300D01*
X192542194Y-107631300D01*
X192474073Y-107611298D01*
X192438981Y-107577571D01*
X192332157Y-107425011D01*
X192332155Y-107425008D01*
X192328998Y-107420500D01*
X192167100Y-107258602D01*
X192162592Y-107255445D01*
X192162589Y-107255443D01*
X192083845Y-107200306D01*
X191979549Y-107127277D01*
X191974567Y-107124954D01*
X191974562Y-107124951D01*
X191940343Y-107108995D01*
X191887058Y-107062078D01*
X191867597Y-106993801D01*
X191888139Y-106925841D01*
X191940343Y-106880605D01*
X191974562Y-106864649D01*
X191974567Y-106864646D01*
X191979549Y-106862323D01*
X192141141Y-106749175D01*
X192162589Y-106734157D01*
X192162592Y-106734155D01*
X192167100Y-106730998D01*
X192328998Y-106569100D01*
X192460323Y-106381549D01*
X192462646Y-106376567D01*
X192462649Y-106376562D01*
X192554761Y-106179025D01*
X192554761Y-106179024D01*
X192557084Y-106174043D01*
X192605770Y-105992348D01*
X192614919Y-105958202D01*
X192614919Y-105958200D01*
X192616343Y-105952887D01*
X192636298Y-105724800D01*
X192616343Y-105496713D01*
X192606886Y-105461418D01*
X192558507Y-105280867D01*
X192558506Y-105280865D01*
X192557084Y-105275557D01*
X192542522Y-105244328D01*
X192462649Y-105073038D01*
X192462646Y-105073033D01*
X192460323Y-105068051D01*
X192410019Y-104996210D01*
X192387332Y-104928939D01*
X192404617Y-104860078D01*
X192456386Y-104811494D01*
X192526204Y-104798610D01*
X192550271Y-104803706D01*
G37*
%TD.AperFunction*%
%TD*%
M02*
