%TF.GenerationSoftware,KiCad,Pcbnew,(6.0.11)*%
%TF.CreationDate,2026-08-16T11:33:41+05:30*%
%TF.ProjectId,pcb,7063622e-6b69-4636-9164-5f7063625858,rev?*%
%TF.SameCoordinates,Original*%
%TF.FileFunction,Legend,Top*%
%TF.FilePolarity,Positive*%
%FSLAX46Y46*%
G04 Gerber Fmt 4.6, Leading zero omitted, Abs format (unit mm)*
G04 Created by KiCad (PCBNEW (6.0.11)) date 2026-08-16 11:33:41*
%MOMM*%
%LPD*%
G01*
G04 APERTURE LIST*
%ADD10C,0.150000*%
%ADD11C,0.120000*%
G04 APERTURE END LIST*
D10*
%TO.C,out + -*%
X200096380Y-114925123D02*
X200048761Y-115020361D01*
X200001142Y-115067980D01*
X199905904Y-115115600D01*
X199620190Y-115115600D01*
X199524952Y-115067980D01*
X199477333Y-115020361D01*
X199429714Y-114925123D01*
X199429714Y-114782266D01*
X199477333Y-114687028D01*
X199524952Y-114639409D01*
X199620190Y-114591790D01*
X199905904Y-114591790D01*
X200001142Y-114639409D01*
X200048761Y-114687028D01*
X200096380Y-114782266D01*
X200096380Y-114925123D01*
X199429714Y-113734647D02*
X200096380Y-113734647D01*
X199429714Y-114163219D02*
X199953523Y-114163219D01*
X200048761Y-114115600D01*
X200096380Y-114020361D01*
X200096380Y-113877504D01*
X200048761Y-113782266D01*
X200001142Y-113734647D01*
X199429714Y-113401314D02*
X199429714Y-113020361D01*
X199096380Y-113258457D02*
X199953523Y-113258457D01*
X200048761Y-113210838D01*
X200096380Y-113115600D01*
X200096380Y-113020361D01*
X199715428Y-111925123D02*
X199715428Y-111163219D01*
X200096380Y-111544171D02*
X199334476Y-111544171D01*
X199715428Y-109925123D02*
X199715428Y-109163219D01*
%TO.C,10k*%
X184519961Y-123489980D02*
X183948533Y-123489980D01*
X184234247Y-123489980D02*
X184234247Y-122489980D01*
X184139009Y-122632838D01*
X184043771Y-122728076D01*
X183948533Y-122775695D01*
X185139009Y-122489980D02*
X185234247Y-122489980D01*
X185329485Y-122537600D01*
X185377104Y-122585219D01*
X185424723Y-122680457D01*
X185472342Y-122870933D01*
X185472342Y-123109028D01*
X185424723Y-123299504D01*
X185377104Y-123394742D01*
X185329485Y-123442361D01*
X185234247Y-123489980D01*
X185139009Y-123489980D01*
X185043771Y-123442361D01*
X184996152Y-123394742D01*
X184948533Y-123299504D01*
X184900914Y-123109028D01*
X184900914Y-122870933D01*
X184948533Y-122680457D01*
X184996152Y-122585219D01*
X185043771Y-122537600D01*
X185139009Y-122489980D01*
X185900914Y-123489980D02*
X185900914Y-122489980D01*
X185996152Y-123109028D02*
X186281866Y-123489980D01*
X186281866Y-122823314D02*
X185900914Y-123204266D01*
%TO.C,220k*%
X177020742Y-99031619D02*
X177068361Y-98984000D01*
X177163600Y-98936380D01*
X177401695Y-98936380D01*
X177496933Y-98984000D01*
X177544552Y-99031619D01*
X177592171Y-99126857D01*
X177592171Y-99222095D01*
X177544552Y-99364952D01*
X176973123Y-99936380D01*
X177592171Y-99936380D01*
X177973123Y-99031619D02*
X178020742Y-98984000D01*
X178115980Y-98936380D01*
X178354076Y-98936380D01*
X178449314Y-98984000D01*
X178496933Y-99031619D01*
X178544552Y-99126857D01*
X178544552Y-99222095D01*
X178496933Y-99364952D01*
X177925504Y-99936380D01*
X178544552Y-99936380D01*
X179163600Y-98936380D02*
X179258838Y-98936380D01*
X179354076Y-98984000D01*
X179401695Y-99031619D01*
X179449314Y-99126857D01*
X179496933Y-99317333D01*
X179496933Y-99555428D01*
X179449314Y-99745904D01*
X179401695Y-99841142D01*
X179354076Y-99888761D01*
X179258838Y-99936380D01*
X179163600Y-99936380D01*
X179068361Y-99888761D01*
X179020742Y-99841142D01*
X178973123Y-99745904D01*
X178925504Y-99555428D01*
X178925504Y-99317333D01*
X178973123Y-99126857D01*
X179020742Y-99031619D01*
X179068361Y-98984000D01*
X179163600Y-98936380D01*
X179925504Y-99936380D02*
X179925504Y-98936380D01*
X180020742Y-99555428D02*
X180306457Y-99936380D01*
X180306457Y-99269714D02*
X179925504Y-99650666D01*
%TO.C,0.1u*%
X175819180Y-111755085D02*
X175819180Y-111659847D01*
X175866800Y-111564609D01*
X175914419Y-111516990D01*
X176009657Y-111469371D01*
X176200133Y-111421752D01*
X176438228Y-111421752D01*
X176628704Y-111469371D01*
X176723942Y-111516990D01*
X176771561Y-111564609D01*
X176819180Y-111659847D01*
X176819180Y-111755085D01*
X176771561Y-111850323D01*
X176723942Y-111897942D01*
X176628704Y-111945561D01*
X176438228Y-111993180D01*
X176200133Y-111993180D01*
X176009657Y-111945561D01*
X175914419Y-111897942D01*
X175866800Y-111850323D01*
X175819180Y-111755085D01*
X176723942Y-110993180D02*
X176771561Y-110945561D01*
X176819180Y-110993180D01*
X176771561Y-111040800D01*
X176723942Y-110993180D01*
X176819180Y-110993180D01*
X176819180Y-109993180D02*
X176819180Y-110564609D01*
X176819180Y-110278895D02*
X175819180Y-110278895D01*
X175962038Y-110374133D01*
X176057276Y-110469371D01*
X176104895Y-110564609D01*
X176152514Y-109136038D02*
X176819180Y-109136038D01*
X176152514Y-109564609D02*
X176676323Y-109564609D01*
X176771561Y-109516990D01*
X176819180Y-109421752D01*
X176819180Y-109278895D01*
X176771561Y-109183657D01*
X176723942Y-109136038D01*
%TO.C,D1*%
X195959504Y-98769580D02*
X195959504Y-97769580D01*
X196197600Y-97769580D01*
X196340457Y-97817200D01*
X196435695Y-97912438D01*
X196483314Y-98007676D01*
X196530933Y-98198152D01*
X196530933Y-98341009D01*
X196483314Y-98531485D01*
X196435695Y-98626723D01*
X196340457Y-98721961D01*
X196197600Y-98769580D01*
X195959504Y-98769580D01*
X197483314Y-98769580D02*
X196911885Y-98769580D01*
X197197600Y-98769580D02*
X197197600Y-97769580D01*
X197102361Y-97912438D01*
X197007123Y-98007676D01*
X196911885Y-98055295D01*
X191355695Y-99139580D02*
X191355695Y-98139580D01*
X191927123Y-99139580D02*
X191498552Y-98568152D01*
X191927123Y-98139580D02*
X191355695Y-98711009D01*
%TO.C,+ Bat -*%
X172486628Y-124869200D02*
X172486628Y-124107295D01*
X172867580Y-124488247D02*
X172105676Y-124488247D01*
X172343771Y-122535866D02*
X172391390Y-122393009D01*
X172439009Y-122345390D01*
X172534247Y-122297771D01*
X172677104Y-122297771D01*
X172772342Y-122345390D01*
X172819961Y-122393009D01*
X172867580Y-122488247D01*
X172867580Y-122869200D01*
X171867580Y-122869200D01*
X171867580Y-122535866D01*
X171915200Y-122440628D01*
X171962819Y-122393009D01*
X172058057Y-122345390D01*
X172153295Y-122345390D01*
X172248533Y-122393009D01*
X172296152Y-122440628D01*
X172343771Y-122535866D01*
X172343771Y-122869200D01*
X172867580Y-121440628D02*
X172343771Y-121440628D01*
X172248533Y-121488247D01*
X172200914Y-121583485D01*
X172200914Y-121773961D01*
X172248533Y-121869200D01*
X172819961Y-121440628D02*
X172867580Y-121535866D01*
X172867580Y-121773961D01*
X172819961Y-121869200D01*
X172724723Y-121916819D01*
X172629485Y-121916819D01*
X172534247Y-121869200D01*
X172486628Y-121773961D01*
X172486628Y-121535866D01*
X172439009Y-121440628D01*
X172200914Y-121107295D02*
X172200914Y-120726342D01*
X171867580Y-120964438D02*
X172724723Y-120964438D01*
X172819961Y-120916819D01*
X172867580Y-120821580D01*
X172867580Y-120726342D01*
X172486628Y-119631104D02*
X172486628Y-118869200D01*
%TO.C,47k*%
X197734323Y-126430114D02*
X197734323Y-127096780D01*
X197496228Y-126049161D02*
X197258133Y-126763447D01*
X197877180Y-126763447D01*
X198162895Y-126096780D02*
X198829561Y-126096780D01*
X198400990Y-127096780D01*
X199210514Y-127096780D02*
X199210514Y-126096780D01*
X199305752Y-126715828D02*
X199591466Y-127096780D01*
X199591466Y-126430114D02*
X199210514Y-126811066D01*
%TO.C,IC 555*%
X185244076Y-116377980D02*
X185244076Y-115377980D01*
X186291695Y-116282742D02*
X186244076Y-116330361D01*
X186101219Y-116377980D01*
X186005980Y-116377980D01*
X185863123Y-116330361D01*
X185767885Y-116235123D01*
X185720266Y-116139885D01*
X185672647Y-115949409D01*
X185672647Y-115806552D01*
X185720266Y-115616076D01*
X185767885Y-115520838D01*
X185863123Y-115425600D01*
X186005980Y-115377980D01*
X186101219Y-115377980D01*
X186244076Y-115425600D01*
X186291695Y-115473219D01*
X187958361Y-115377980D02*
X187482171Y-115377980D01*
X187434552Y-115854171D01*
X187482171Y-115806552D01*
X187577409Y-115758933D01*
X187815504Y-115758933D01*
X187910742Y-115806552D01*
X187958361Y-115854171D01*
X188005980Y-115949409D01*
X188005980Y-116187504D01*
X187958361Y-116282742D01*
X187910742Y-116330361D01*
X187815504Y-116377980D01*
X187577409Y-116377980D01*
X187482171Y-116330361D01*
X187434552Y-116282742D01*
X188910742Y-115377980D02*
X188434552Y-115377980D01*
X188386933Y-115854171D01*
X188434552Y-115806552D01*
X188529790Y-115758933D01*
X188767885Y-115758933D01*
X188863123Y-115806552D01*
X188910742Y-115854171D01*
X188958361Y-115949409D01*
X188958361Y-116187504D01*
X188910742Y-116282742D01*
X188863123Y-116330361D01*
X188767885Y-116377980D01*
X188529790Y-116377980D01*
X188434552Y-116330361D01*
X188386933Y-116282742D01*
X189863123Y-115377980D02*
X189386933Y-115377980D01*
X189339314Y-115854171D01*
X189386933Y-115806552D01*
X189482171Y-115758933D01*
X189720266Y-115758933D01*
X189815504Y-115806552D01*
X189863123Y-115854171D01*
X189910742Y-115949409D01*
X189910742Y-116187504D01*
X189863123Y-116282742D01*
X189815504Y-116330361D01*
X189720266Y-116377980D01*
X189482171Y-116377980D01*
X189386933Y-116330361D01*
X189339314Y-116282742D01*
D11*
%TO.C,out + -*%
X195469200Y-109169200D02*
X195469200Y-107839200D01*
X198129200Y-110439200D02*
X198129200Y-115579200D01*
X195469200Y-110439200D02*
X195469200Y-115579200D01*
X195469200Y-110439200D02*
X198129200Y-110439200D01*
X195469200Y-107839200D02*
X196799200Y-107839200D01*
X195469200Y-115579200D02*
X198129200Y-115579200D01*
%TO.C,10k*%
X188436000Y-121461200D02*
X188436000Y-118721200D01*
X189206000Y-120091200D02*
X188436000Y-120091200D01*
X181896000Y-118721200D02*
X181896000Y-121461200D01*
X181896000Y-121461200D02*
X188436000Y-121461200D01*
X181126000Y-120091200D02*
X181896000Y-120091200D01*
X188436000Y-118721200D02*
X181896000Y-118721200D01*
%TO.C,220k*%
X175393600Y-100484000D02*
X175393600Y-103224000D01*
X182703600Y-101854000D02*
X181933600Y-101854000D01*
X174623600Y-101854000D02*
X175393600Y-101854000D01*
X181933600Y-103224000D02*
X181933600Y-100484000D01*
X181933600Y-100484000D02*
X175393600Y-100484000D01*
X175393600Y-103224000D02*
X181933600Y-103224000D01*
%TO.C,0.1u*%
X177496800Y-113160800D02*
X177496800Y-107920800D01*
X177496800Y-113160800D02*
X177811800Y-113160800D01*
X179921800Y-107920800D02*
X180236800Y-107920800D01*
X179921800Y-113160800D02*
X180236800Y-113160800D01*
X180236800Y-113160800D02*
X180236800Y-107920800D01*
X177496800Y-107920800D02*
X177811800Y-107920800D01*
%TO.C,D1*%
X194997600Y-99317200D02*
X194997600Y-102257200D01*
X193977600Y-99317200D02*
X193977600Y-102257200D01*
X199417600Y-99317200D02*
X193977600Y-99317200D01*
X194877600Y-99317200D02*
X194877600Y-102257200D01*
X192957600Y-100787200D02*
X193977600Y-100787200D01*
X193977600Y-102257200D02*
X199417600Y-102257200D01*
X200437600Y-100787200D02*
X199417600Y-100787200D01*
X199417600Y-102257200D02*
X199417600Y-99317200D01*
X194757600Y-99317200D02*
X194757600Y-102257200D01*
%TO.C,+ Bat -*%
X176183600Y-124271000D02*
X174853600Y-124271000D01*
X176183600Y-119071000D02*
X173523600Y-119071000D01*
X176183600Y-121671000D02*
X173523600Y-121671000D01*
X176183600Y-122941000D02*
X176183600Y-124271000D01*
X173523600Y-121671000D02*
X173523600Y-119071000D01*
X176183600Y-121671000D02*
X176183600Y-119071000D01*
%TO.C,47k*%
X193143400Y-125577600D02*
X202913400Y-125577600D01*
X193143400Y-120507600D02*
X202913400Y-120507600D01*
X193143400Y-120507600D02*
X193143400Y-125577600D01*
X202913400Y-120507600D02*
X202913400Y-125577600D01*
%TO.C,IC 555*%
X190162800Y-104394800D02*
X188512800Y-104394800D01*
X186512800Y-104394800D02*
X184862800Y-104394800D01*
X184862800Y-114674800D02*
X190162800Y-114674800D01*
X190162800Y-114674800D02*
X190162800Y-104394800D01*
X184862800Y-104394800D02*
X184862800Y-114674800D01*
X186512800Y-104394800D02*
G75*
G03*
X188512800Y-104394800I1000000J0D01*
G01*
%TD*%
M02*
