ISO-10303-21;
HEADER;
FILE_DESCRIPTION (( 'STEP AP214' ),
    '1' );
FILE_NAME ('C1005JB0G475K050BB.STEP',
    '2022-02-03T09:09:49',
    ( '' ),
    ( '' ),
    'SwSTEP 2.0',
    'SolidWorks 2020',
    '' );
FILE_SCHEMA (( 'AUTOMOTIVE_DESIGN' ));
ENDSEC;

DATA;
#1 = FACE_OUTER_BOUND ( 'NONE', #520, .T. ) ;
#2 = VERTEX_POINT ( 'NONE', #1165 ) ;
#3 = CARTESIAN_POINT ( 'NONE',  ( -0.2749999999999998557, 0.02499999999999995628, -0.2249999999999998945 ) ) ;
#4 = EDGE_CURVE ( 'NONE', #561, #830, #417, .T. ) ;
#5 = DIRECTION ( 'NONE',  ( -0.000000000000000000, 0.000000000000000000, -1.000000000000000000 ) ) ;
#6 = CARTESIAN_POINT ( 'NONE',  ( 0.4999999999999997780, 0.02499999999999995628, 0.2250000000000000888 ) ) ;
#7 = ORIENTED_EDGE ( 'NONE', *, *, #869, .F. ) ;
#8 = CARTESIAN_POINT ( 'NONE',  ( -0.4749999999999997558, 0.000000000000000000, -0.2250000000000000056 ) ) ;
#9 = STYLED_ITEM ( 'NONE', ( #476 ), #297 ) ;
#10 = DIRECTION ( 'NONE',  ( -0.000000000000000000, -0.000000000000000000, 1.000000000000000000 ) ) ;
#11 = CIRCLE ( 'NONE', #737, 0.02500000000000001180 ) ;
#12 = AXIS2_PLACEMENT_3D ( 'NONE', #921, #241, #316 ) ;
#13 =( LENGTH_UNIT ( ) NAMED_UNIT ( * ) SI_UNIT ( .MILLI., .METRE. ) );
#14 = DIRECTION ( 'NONE',  ( 1.000000000000000000, 0.000000000000000000, 2.168404344971009115E-16 ) ) ;
#15 = ORIENTED_EDGE ( 'NONE', *, *, #925, .F. ) ;
#16 = EDGE_CURVE ( 'NONE', #1268, #911, #286, .T. ) ;
#17 = CARTESIAN_POINT ( 'NONE',  ( 0.4999999999999997780, 0.6250000000000000000, -0.2500000000000000000 ) ) ;
#18 = EDGE_CURVE ( 'NONE', #514, #1268, #236, .T. ) ;
#19 = CARTESIAN_POINT ( 'NONE',  ( 0.4999999999999997780, 0.02499999999999995628, -0.2250000000000000056 ) ) ;
#20 = DIRECTION ( 'NONE',  ( 0.000000000000000000, 0.000000000000000000, -1.000000000000000000 ) ) ;
#21 = DIRECTION ( 'NONE',  ( 1.000000000000000000, 0.000000000000000000, 2.168404344971009115E-16 ) ) ;
#22 = DIRECTION ( 'NONE',  ( 0.000000000000000000, 1.000000000000000000, 0.000000000000000000 ) ) ;
#23 = DIRECTION ( 'NONE',  ( 0.000000000000000000, 1.000000000000000000, 0.000000000000000000 ) ) ;
#24 = ORIENTED_EDGE ( 'NONE', *, *, #180, .T. ) ;
#25 = CARTESIAN_POINT ( 'NONE',  ( -0.2749999999999999112, 0.6500000000000000222, -0.2499999999999998890 ) ) ;
#26 = FACE_OUTER_BOUND ( 'NONE', #748, .T. ) ;
#27 = CARTESIAN_POINT ( 'NONE',  ( -0.4999999999999997780, 0.6250000000000000000, 0.2500000000000001110 ) ) ;
#28 = CARTESIAN_POINT ( 'NONE',  ( 0.2749999999999999112, 0.6250000000000000000, -0.2249999999999998945 ) ) ;
#29 = EDGE_LOOP ( 'NONE', ( #1123, #118, #292, #496 ) ) ;
#30 = AXIS2_PLACEMENT_3D ( 'NONE', #461, #457, #273 ) ;
#31 = EDGE_CURVE ( 'NONE', #887, #1118, #526, .T. ) ;
#32 = ORIENTED_EDGE ( 'NONE', *, *, #810, .F. ) ;
#33 = FILL_AREA_STYLE_COLOUR ( '', #94 ) ;
#34 = STYLED_ITEM ( 'NONE', ( #502 ), #330 ) ;
#35 = VECTOR ( 'NONE', #956, 1000.000000000000000 ) ;
#36 = FACE_OUTER_BOUND ( 'NONE', #1206, .T. ) ;
#37 = CARTESIAN_POINT ( 'NONE',  ( -0.4999999999999997780, 0.02499999999999995628, -0.2500000000000000000 ) ) ;
#38 = VECTOR ( 'NONE', #603, 1000.000000000000000 ) ;
#39 = ORIENTED_EDGE ( 'NONE', *, *, #1130, .T. ) ;
#40 = CARTESIAN_POINT ( 'NONE',  ( -0.2749999999999998557, 0.02499999999999995628, 0.2250000000000000888 ) ) ;
#41 = CARTESIAN_POINT ( 'NONE',  ( 0.000000000000000000, 0.000000000000000000, 0.000000000000000000 ) ) ;
#42 = LINE ( 'NONE', #1024, #1250 ) ;
#43 = ORIENTED_EDGE ( 'NONE', *, *, #848, .F. ) ;
#44 = CARTESIAN_POINT ( 'NONE',  ( 0.4749999999999997558, 0.02499999999999995628, 0.2250000000000000888 ) ) ;
#45 = ORIENTED_EDGE ( 'NONE', *, *, #166, .F. ) ;
#46 =( NAMED_UNIT ( * ) SI_UNIT ( $, .STERADIAN. ) SOLID_ANGLE_UNIT ( ) );
#47 = AXIS2_PLACEMENT_3D ( 'NONE', #1009, #478, #123 ) ;
#48 = VECTOR ( 'NONE', #776, 1000.000000000000000 ) ;
#49 = DIRECTION ( 'NONE',  ( -1.000000000000000000, 0.000000000000000000, 8.673617379884037937E-17 ) ) ;
#50 = DIRECTION ( 'NONE',  ( -0.000000000000000000, -1.000000000000000000, -0.000000000000000000 ) ) ;
#51 = ADVANCED_FACE ( 'NONE', ( #1210 ), #966, .F. ) ;
#52 = AXIS2_PLACEMENT_3D ( 'NONE', #3, #81, #1192 ) ;
#53 = VECTOR ( 'NONE', #503, 1000.000000000000000 ) ;
#54 = EDGE_CURVE ( 'NONE', #239, #1038, #447, .T. ) ;
#55 = EDGE_LOOP ( 'NONE', ( #152, #1100, #161, #1005 ) ) ;
#56 = DIRECTION ( 'NONE',  ( -1.000000000000000000, 0.000000000000000000, 0.000000000000000000 ) ) ;
#57 = DIRECTION ( 'NONE',  ( 0.000000000000000000, -1.000000000000000000, 0.000000000000000000 ) ) ;
#58 = DIRECTION ( 'NONE',  ( -1.000000000000000000, -0.000000000000000000, -0.000000000000000000 ) ) ;
#59 = EDGE_CURVE ( 'NONE', #1115, #596, #1081, .T. ) ;
#60 = EDGE_LOOP ( 'NONE', ( #80, #529, #1226, #760 ) ) ;
#61 = CARTESIAN_POINT ( 'NONE',  ( 0.4999999999999997780, 0.02499999999999995628, -0.2500000000000000000 ) ) ;
#62 = CARTESIAN_POINT ( 'NONE',  ( -0.2749999999999999112, 0.000000000000000000, -0.2499999999999998890 ) ) ;
#63 = CYLINDRICAL_SURFACE ( 'NONE', #545, 0.02500000000000001180 ) ;
#64 = ORIENTED_EDGE ( 'NONE', *, *, #105, .F. ) ;
#65 = ADVANCED_FACE ( 'NONE', ( #329 ), #438, .T. ) ;
#66 =( NAMED_UNIT ( * ) PLANE_ANGLE_UNIT ( ) SI_UNIT ( $, .RADIAN. ) );
#67 = CARTESIAN_POINT ( 'NONE',  ( 0.000000000000000000, 0.000000000000000000, 0.000000000000000000 ) ) ;
#68 = SURFACE_STYLE_USAGE ( .BOTH. , #77 ) ;
#69 = AXIS2_PLACEMENT_3D ( 'NONE', #470, #289, #173 ) ;
#70 = VECTOR ( 'NONE', #988, 1000.000000000000000 ) ;
#71 = ORIENTED_EDGE ( 'NONE', *, *, #1279, .T. ) ;
#72 = VERTEX_POINT ( 'NONE', #356 ) ;
#73 = LINE ( 'NONE', #1259, #70 ) ;
#74 = FACE_OUTER_BOUND ( 'NONE', #1261, .T. ) ;
#75 = ORIENTED_EDGE ( 'NONE', *, *, #445, .F. ) ;
#76 = DIRECTION ( 'NONE',  ( 0.000000000000000000, 0.000000000000000000, -1.000000000000000000 ) ) ;
#77 = SURFACE_SIDE_STYLE ('',( #963 ) ) ;
#78 = EDGE_CURVE ( 'NONE', #1080, #951, #42, .T. ) ;
#79 = CARTESIAN_POINT ( 'NONE',  ( 0.4999999999999997780, 0.02499999999999995628, 0.2500000000000001110 ) ) ;
#80 = ORIENTED_EDGE ( 'NONE', *, *, #88, .T. ) ;
#81 = DIRECTION ( 'NONE',  ( 1.000000000000000000, 0.000000000000000000, -8.673617379884036705E-17 ) ) ;
#82 = CIRCLE ( 'NONE', #790, 0.02500000000000001180 ) ;
#83 = CARTESIAN_POINT ( 'NONE',  ( 0.4749999999999997558, 0.6250000000000000000, -0.2250000000000000056 ) ) ;
#84 = DIRECTION ( 'NONE',  ( 0.000000000000000000, 0.000000000000000000, 1.000000000000000000 ) ) ;
#85 = ORIENTED_EDGE ( 'NONE', *, *, #343, .T. ) ;
#86 = LINE ( 'NONE', #483, #135 ) ;
#87 = EDGE_CURVE ( 'NONE', #285, #370, #1233, .T. ) ;
#88 = EDGE_CURVE ( 'NONE', #315, #653, #1230, .T. ) ;
#89 = COLOUR_RGB ( '',0.7921568627450980005, 0.8196078431372548767, 0.9333333333333333481 ) ;
#90 = EDGE_CURVE ( 'NONE', #139, #145, #813, .T. ) ;
#91 = CARTESIAN_POINT ( 'NONE',  ( 0.4749999999999997558, 0.02499999999999995628, -0.2250000000000000056 ) ) ;
#92 = AXIS2_PLACEMENT_3D ( 'NONE', #642, #259, #1143 ) ;
#93 = CARTESIAN_POINT ( 'NONE',  ( -0.4999999999999997780, 0.6250000000000000000, 0.2250000000000000888 ) ) ;
#94 = COLOUR_RGB ( '',0.7921568627450980005, 0.8196078431372548767, 0.9333333333333333481 ) ;
#95 = CARTESIAN_POINT ( 'NONE',  ( 0.2749999999999999112, 0.000000000000000000, -0.2249999999999998945 ) ) ;
#96 = DIRECTION ( 'NONE',  ( 0.000000000000000000, -1.000000000000000000, 0.000000000000000000 ) ) ;
#97 = CARTESIAN_POINT ( 'NONE',  ( 1.084202172485503818E-16, 0.6250000000000000000, -0.2249999999999997558 ) ) ;
#98 = VERTEX_POINT ( 'NONE', #747 ) ;
#99 = DIRECTION ( 'NONE',  ( 0.000000000000000000, 1.000000000000000000, 0.000000000000000000 ) ) ;
#100 = FACE_OUTER_BOUND ( 'NONE', #331, .T. ) ;
#101 = ORIENTED_EDGE ( 'NONE', *, *, #1204, .F. ) ;
#102 = CARTESIAN_POINT ( 'NONE',  ( -0.2749999999999999112, 0.6250000000000000000, -0.2499999999999998890 ) ) ;
#103 = CARTESIAN_POINT ( 'NONE',  ( 0.2749999999878127710, 0.6250000000000000000, 0.2250000000000000611 ) ) ;
#104 = EDGE_CURVE ( 'NONE', #830, #824, #870, .T. ) ;
#105 = EDGE_CURVE ( 'NONE', #376, #794, #793, .T. ) ;
#106 = VECTOR ( 'NONE', #535, 1000.000000000000000 ) ;
#107 = LINE ( 'NONE', #17, #48 ) ;
#108 = EDGE_CURVE ( 'NONE', #1118, #1115, #556, .T. ) ;
#109 = VECTOR ( 'NONE', #1053, 1000.000000000000000 ) ;
#110 = SHAPE_DEFINITION_REPRESENTATION ( #705, #576 ) ;
#111 = CIRCLE ( 'NONE', #482, 0.02500000000000001180 ) ;
#112 = LINE ( 'NONE', #797, #246 ) ;
#113 = AXIS2_PLACEMENT_3D ( 'NONE', #877, #882, #498 ) ;
#114 = AXIS2_PLACEMENT_3D ( 'NONE', #1234, #254, #49 ) ;
#115 = DIRECTION ( 'NONE',  ( 2.168404344971009115E-16, 0.000000000000000000, 1.000000000000000000 ) ) ;
#116 = CARTESIAN_POINT ( 'NONE',  ( 0.4749999999999997558, 0.02500000000000000139, 0.2250000000000000888 ) ) ;
#117 = CARTESIAN_POINT ( 'NONE',  ( -0.4999999999999997780, 0.6250000000000000000, -0.2250000000000000056 ) ) ;
#118 = ORIENTED_EDGE ( 'NONE', *, *, #512, .T. ) ;
#119 = ORIENTED_EDGE ( 'NONE', *, *, #1122, .F. ) ;
#120 = DIRECTION ( 'NONE',  ( 0.000000000000000000, 0.000000000000000000, 1.000000000000000000 ) ) ;
#121 = SPHERICAL_SURFACE ( 'NONE', #1025, 0.02500000000000000139 ) ;
#122 = CARTESIAN_POINT ( 'NONE',  ( -0.2749999999999998557, 0.008333333333333333218, 0.2250000000000000888 ) ) ;
#123 = DIRECTION ( 'NONE',  ( 0.000000000000000000, 0.000000000000000000, -1.000000000000000000 ) ) ;
#124 = EDGE_CURVE ( 'NONE', #743, #370, #361, .T. ) ;
#125 = ORIENTED_EDGE ( 'NONE', *, *, #18, .T. ) ;
#126 = ORIENTED_EDGE ( 'NONE', *, *, #435, .T. ) ;
#127 = DIRECTION ( 'NONE',  ( 0.000000000000000000, -0.000000000000000000, -1.000000000000000000 ) ) ;
#128 = ORIENTED_EDGE ( 'NONE', *, *, #614, .T. ) ;
#129 = ORIENTED_EDGE ( 'NONE', *, *, #435, .F. ) ;
#130 = EDGE_CURVE ( 'NONE', #990, #951, #455, .T. ) ;
#131 = ORIENTED_EDGE ( 'NONE', *, *, #552, .F. ) ;
#132 = VECTOR ( 'NONE', #50, 1000.000000000000000 ) ;
#133 = DIRECTION ( 'NONE',  ( 1.000000000000000000, 0.000000000000000000, -8.673617379884036705E-17 ) ) ;
#134 = CIRCLE ( 'NONE', #1215, 0.02500000000000001180 ) ;
#135 = VECTOR ( 'NONE', #1187, 1000.000000000000000 ) ;
#136 = DIRECTION ( 'NONE',  ( 0.000000000000000000, 0.000000000000000000, 1.000000000000000000 ) ) ;
#137 = DIRECTION ( 'NONE',  ( -0.000000000000000000, 1.000000000000000000, -0.000000000000000000 ) ) ;
#138 = VERTEX_POINT ( 'NONE', #823 ) ;
#139 = VERTEX_POINT ( 'NONE', #839 ) ;
#140 = DIRECTION ( 'NONE',  ( 0.000000000000000000, 0.000000000000000000, 1.000000000000000000 ) ) ;
#141 = APPLICATION_CONTEXT ( 'automotive_design' ) ;
#142 = PLANE ( 'NONE',  #977 ) ;
#143 = CARTESIAN_POINT ( 'NONE',  ( 500000.0000000000582, 0.6250000000000000000, -0.2416666667100346721 ) ) ;
#144 = ORIENTED_EDGE ( 'NONE', *, *, #511, .T. ) ;
#145 = VERTEX_POINT ( 'NONE', #630 ) ;
#146 = ADVANCED_FACE ( 'NONE', ( #255 ), #260, .T. ) ;
#147 = UNCERTAINTY_MEASURE_WITH_UNIT (LENGTH_MEASURE( 1.000000000000000082E-05 ), #852, 'distance_accuracy_value', 'NONE');
#148 = DIRECTION ( 'NONE',  ( -2.168404344971008868E-16, -0.000000000000000000, -1.000000000000000000 ) ) ;
#149 = EDGE_CURVE ( 'NONE', #587, #1038, #111, .T. ) ;
#150 = ORIENTED_EDGE ( 'NONE', *, *, #1078, .F. ) ;
#151 = ORIENTED_EDGE ( 'NONE', *, *, #1254, .F. ) ;
#152 = ORIENTED_EDGE ( 'NONE', *, *, #271, .F. ) ;
#153 = PRODUCT_DEFINITION_FORMATION_WITH_SPECIFIED_SOURCE ( 'ANY', '', #1116, .NOT_KNOWN. ) ;
#154 = AXIS2_PLACEMENT_3D ( 'NONE', #676, #759, #481 ) ;
#155 = AXIS2_PLACEMENT_3D ( 'NONE', #383, #1179, #981 ) ;
#156 = DIRECTION ( 'NONE',  ( 1.000000000000000000, 0.000000000000000000, 2.168404344971009115E-16 ) ) ;
#157 = DIRECTION ( 'NONE',  ( -1.000000000000000000, 0.000000000000000000, -4.818676322157800333E-16 ) ) ;
#158 = CIRCLE ( 'NONE', #224, 0.02500000000000001180 ) ;
#159 = VECTOR ( 'NONE', #1169, 1000.000000000000000 ) ;
#160 = EDGE_LOOP ( 'NONE', ( #221, #1010, #910, #1182 ) ) ;
#161 = ORIENTED_EDGE ( 'NONE', *, *, #1216, .F. ) ;
#162 = CARTESIAN_POINT ( 'NONE',  ( -1.084202172485503818E-16, 0.000000000000000000, -0.2249999999999997558 ) ) ;
#163 = PLANE ( 'NONE',  #677 ) ;
#164 = DIRECTION ( 'NONE',  ( -1.000000000000000000, -0.000000000000000000, 8.673617379884037937E-17 ) ) ;
#165 = ORIENTED_EDGE ( 'NONE', *, *, #1175, .F. ) ;
#166 = EDGE_CURVE ( 'NONE', #673, #794, #339, .T. ) ;
#167 = ORIENTED_EDGE ( 'NONE', *, *, #1216, .T. ) ;
#168 = DIRECTION ( 'NONE',  ( -1.000000000000000000, 0.000000000000000000, 0.000000000000000000 ) ) ;
#169 = CYLINDRICAL_SURFACE ( 'NONE', #631, 0.02499999999999998404 ) ;
#170 = ORIENTED_EDGE ( 'NONE', *, *, #104, .F. ) ;
#171 = APPLICATION_CONTEXT ( 'automotive_design' ) ;
#172 = FACE_OUTER_BOUND ( 'NONE', #960, .T. ) ;
#173 = DIRECTION ( 'NONE',  ( -2.168404344971009115E-16, 0.000000000000000000, 1.000000000000000000 ) ) ;
#174 = AXIS2_PLACEMENT_3D ( 'NONE', #1246, #649, #732 ) ;
#175 =( GEOMETRIC_REPRESENTATION_CONTEXT ( 3 ) GLOBAL_UNCERTAINTY_ASSIGNED_CONTEXT ( ( #891 ) ) GLOBAL_UNIT_ASSIGNED_CONTEXT ( ( #847, #464, #1086 ) ) REPRESENTATION_CONTEXT ( 'NONE', 'WORKASPACE' ) );
#176 = AXIS2_PLACEMENT_3D ( 'NONE', #205, #573, #594 ) ;
#177 = ORIENTED_EDGE ( 'NONE', *, *, #31, .F. ) ;
#178 = PLANE ( 'NONE',  #1003 ) ;
#179 = FILL_AREA_STYLE_COLOUR ( '', #89 ) ;
#180 = EDGE_CURVE ( 'NONE', #828, #829, #1235, .T. ) ;
#181 = SPHERICAL_SURFACE ( 'NONE', #1271, 0.02500000000000000139 ) ;
#182 = ORIENTED_EDGE ( 'NONE', *, *, #1026, .F. ) ;
#183 = ORIENTED_EDGE ( 'NONE', *, *, #1056, .T. ) ;
#184 = ORIENTED_EDGE ( 'NONE', *, *, #340, .T. ) ;
#185 = DIRECTION ( 'NONE',  ( 2.168404344971009361E-16, 0.000000000000000000, -1.000000000000000000 ) ) ;
#186 = EDGE_CURVE ( 'NONE', #794, #350, #1043, .T. ) ;
#187 = FACE_OUTER_BOUND ( 'NONE', #936, .T. ) ;
#188 = DIRECTION ( 'NONE',  ( 1.000000000000000000, -0.000000000000000000, -2.168404344971009115E-16 ) ) ;
#189 = DIRECTION ( 'NONE',  ( -0.000000000000000000, 1.000000000000000000, -0.000000000000000000 ) ) ;
#190 = ORIENTED_EDGE ( 'NONE', *, *, #1094, .F. ) ;
#191 = CARTESIAN_POINT ( 'NONE',  ( 500000.0000000000582, 0.02499999999999995628, -0.2416666667100346166 ) ) ;
#192 = DIRECTION ( 'NONE',  ( -2.168404344971009361E-16, 0.000000000000000000, 1.000000000000000000 ) ) ;
#193 = CARTESIAN_POINT ( 'NONE',  ( 0.4999999999999997780, 0.6500000000000000222, -0.2500000000000000000 ) ) ;
#194 = FACE_OUTER_BOUND ( 'NONE', #861, .T. ) ;
#195 = DIRECTION ( 'NONE',  ( 0.000000000000000000, 0.000000000000000000, 1.000000000000000000 ) ) ;
#196 = VECTOR ( 'NONE', #741, 1000.000000000000000 ) ;
#197 = AXIS2_PLACEMENT_3D ( 'NONE', #906, #21, #1091 ) ;
#198 = CIRCLE ( 'NONE', #430, 0.02500000000000001180 ) ;
#199 = CARTESIAN_POINT ( 'NONE',  ( -0.4749999999999997558, 0.02499999999999995628, -0.2250000000000000056 ) ) ;
#200 = CIRCLE ( 'NONE', #1232, 0.01666666666666664562 ) ;
#201 = LINE ( 'NONE', #884, #548 ) ;
#202 = DIRECTION ( 'NONE',  ( 0.000000000000000000, 0.000000000000000000, -1.000000000000000000 ) ) ;
#203 = EDGE_LOOP ( 'NONE', ( #446, #941, #262, #525 ) ) ;
#204 = EDGE_CURVE ( 'NONE', #497, #349, #851, .T. ) ;
#205 = CARTESIAN_POINT ( 'NONE',  ( -0.4749999999999997558, 0.6250000000000000000, 0.2250000000000000888 ) ) ;
#206 = EDGE_CURVE ( 'NONE', #350, #618, #1102, .T. ) ;
#207 = ORIENTED_EDGE ( 'NONE', *, *, #18, .F. ) ;
#208 = EDGE_CURVE ( 'NONE', #336, #911, #1050, .T. ) ;
#209 = CARTESIAN_POINT ( 'NONE',  ( 0.2749999999999999112, 0.6500000000000000222, -0.2499999999999998890 ) ) ;
#210 = EDGE_CURVE ( 'NONE', #453, #778, #242, .T. ) ;
#211 = ADVANCED_FACE ( 'NONE', ( #194 ), #169, .T. ) ;
#212 = CARTESIAN_POINT ( 'NONE',  ( 0.000000000000000000, 0.000000000000000000, 0.2250000000000000888 ) ) ;
#213 = SURFACE_SIDE_STYLE ('',( #310 ) ) ;
#214 = DIRECTION ( 'NONE',  ( 1.000000000000000000, -0.000000000000000000, 4.818676322157800333E-16 ) ) ;
#215 = DIRECTION ( 'NONE',  ( 1.000000000000000000, 0.000000000000000000, 0.000000000000000000 ) ) ;
#216 = CARTESIAN_POINT ( 'NONE',  ( 0.4749999999999997558, 0.6250000000000000000, -0.2500000000000000000 ) ) ;
#217 = DIRECTION ( 'NONE',  ( -1.000000000000000000, 0.000000000000000000, 0.000000000000000000 ) ) ;
#218 = DIRECTION ( 'NONE',  ( -1.000000000000000000, -0.000000000000000000, 8.673617379884037937E-17 ) ) ;
#219 = EDGE_LOOP ( 'NONE', ( #1173, #728, #856, #1037 ) ) ;
#220 = CLOSED_SHELL ( 'NONE', ( #223, #265, #617, #641, #294, #252, #902, #779, #387, #359 ) ) ;
#221 = ORIENTED_EDGE ( 'NONE', *, *, #1159, .T. ) ;
#222 = AXIS2_PLACEMENT_3D ( 'NONE', #540, #355, #750 ) ;
#223 = ADVANCED_FACE ( 'NONE', ( #763 ), #684, .T. ) ;
#224 = AXIS2_PLACEMENT_3D ( 'NONE', #648, #931, #1058 ) ;
#225 = LINE ( 'NONE', #436, #721 ) ;
#226 = FILL_AREA_STYLE_COLOUR ( '', #1167 ) ;
#227 = DIRECTION ( 'NONE',  ( -1.000000000000000000, -0.000000000000000000, 8.673617379884037937E-17 ) ) ;
#228 = CARTESIAN_POINT ( 'NONE',  ( -0.4999999999999997780, 0.6250000000000000000, -0.2500000000000000000 ) ) ;
#229 = ORIENTED_EDGE ( 'NONE', *, *, #485, .T. ) ;
#230 = EDGE_LOOP ( 'NONE', ( #1157, #627, #15 ) ) ;
#231 = ORIENTED_EDGE ( 'NONE', *, *, #855, .T. ) ;
#232 = LINE ( 'NONE', #621, #650 ) ;
#233 = FACE_OUTER_BOUND ( 'NONE', #261, .T. ) ;
#234 = ORIENTED_EDGE ( 'NONE', *, *, #1007, .F. ) ;
#235 = DIRECTION ( 'NONE',  ( -1.000000000000000000, -0.000000000000000000, 8.673617379884037937E-17 ) ) ;
#236 = LINE ( 'NONE', #191, #1022 ) ;
#237 = ORIENTED_EDGE ( 'NONE', *, *, #343, .F. ) ;
#238 = ADVANCED_FACE ( 'NONE', ( #1249 ), #669, .T. ) ;
#239 = VERTEX_POINT ( 'NONE', #1264 ) ;
#240 = CARTESIAN_POINT ( 'NONE',  ( -0.2749999999999998557, 0.6250000000000000000, 0.2250000000000000888 ) ) ;
#241 = DIRECTION ( 'NONE',  ( 0.000000000000000000, 1.000000000000000000, 0.000000000000000000 ) ) ;
#242 = LINE ( 'NONE', #1177, #306 ) ;
#243 = VECTOR ( 'NONE', #662, 1000.000000000000000 ) ;
#244 = ORIENTED_EDGE ( 'NONE', *, *, #394, .F. ) ;
#245 = ORIENTED_EDGE ( 'NONE', *, *, #940, .T. ) ;
#246 = VECTOR ( 'NONE', #185, 1000.000000000000000 ) ;
#247 = CIRCLE ( 'NONE', #1273, 0.01666666666666667337 ) ;
#248 = CYLINDRICAL_SURFACE ( 'NONE', #1217, 0.02500000000000001180 ) ;
#249 = DIRECTION ( 'NONE',  ( 0.000000000000000000, -0.000000000000000000, 1.000000000000000000 ) ) ;
#250 = ADVANCED_FACE ( 'NONE', ( #1066 ), #63, .T. ) ;
#251 = ORIENTED_EDGE ( 'NONE', *, *, #614, .F. ) ;
#252 = ADVANCED_FACE ( 'NONE', ( #74 ), #664, .T. ) ;
#253 = LINE ( 'NONE', #61, #602 ) ;
#254 = DIRECTION ( 'NONE',  ( -8.673617379884037937E-17, -4.517509052022934731E-17, -1.000000000000000000 ) ) ;
#255 = FACE_OUTER_BOUND ( 'NONE', #29, .T. ) ;
#256 = VERTEX_POINT ( 'NONE', #373 ) ;
#257 = LINE ( 'NONE', #640, #106 ) ;
#258 = PRODUCT_DEFINITION_CONTEXT ( 'detailed design', #141, 'design' ) ;
#259 = DIRECTION ( 'NONE',  ( 1.000000000000000000, 0.000000000000000000, 2.168404344971009115E-16 ) ) ;
#260 = CYLINDRICAL_SURFACE ( 'NONE', #174, 0.02500000000000001180 ) ;
#261 = EDGE_LOOP ( 'NONE', ( #119, #1135, #1186, #1276 ) ) ;
#262 = ORIENTED_EDGE ( 'NONE', *, *, #419, .T. ) ;
#263 = PRESENTATION_STYLE_ASSIGNMENT (( #441 ) ) ;
#264 = AXIS2_PLACEMENT_3D ( 'NONE', #28, #426, #1219 ) ;
#265 = ADVANCED_FACE ( 'NONE', ( #379 ), #1055, .F. ) ;
#266 = VECTOR ( 'NONE', #575, 1000.000000000000000 ) ;
#267 = CARTESIAN_POINT ( 'NONE',  ( 0.2749999999999999112, 0.6500000000000000222, -0.2499999999999998890 ) ) ;
#268 = DIRECTION ( 'NONE',  ( 0.000000000000000000, 0.000000000000000000, 1.000000000000000000 ) ) ;
#269 = AXIS2_PLACEMENT_3D ( 'NONE', #67, #458, #351 ) ;
#270 = AXIS2_PLACEMENT_3D ( 'NONE', #25, #337, #115 ) ;
#271 = EDGE_CURVE ( 'NONE', #673, #256, #564, .T. ) ;
#272 = ORIENTED_EDGE ( 'NONE', *, *, #124, .F. ) ;
#273 = DIRECTION ( 'NONE',  ( 1.000000000000000000, 0.000000000000000000, 0.000000000000000000 ) ) ;
#274 = CARTESIAN_POINT ( 'NONE',  ( -0.4749999999999997558, 0.02500000000000000139, -0.2250000000000000056 ) ) ;
#275 = DIRECTION ( 'NONE',  ( 1.000000000000000000, 0.000000000000000000, -8.673617379884036705E-17 ) ) ;
#276 = VERTEX_POINT ( 'NONE', #1077 ) ;
#277 = DIRECTION ( 'NONE',  ( 1.000000000000000000, 0.000000000000000000, 0.000000000000000000 ) ) ;
#278 = DIRECTION ( 'NONE',  ( -1.000000000000000000, -0.000000000000000000, 8.673617379884037937E-17 ) ) ;
#279 = ORIENTED_EDGE ( 'NONE', *, *, #1254, .T. ) ;
#280 = CARTESIAN_POINT ( 'NONE',  ( 0.4999999999999997780, 0.6250000000000000000, 0.2250000000000000888 ) ) ;
#281 = CARTESIAN_POINT ( 'NONE',  ( 0.000000000000000000, 0.6250000000000000000, 0.2250000000000000888 ) ) ;
#282 = AXIS2_PLACEMENT_3D ( 'NONE', #727, #23, #876 ) ;
#283 = LINE ( 'NONE', #879, #739 ) ;
#284 = AXIS2_PLACEMENT_3D ( 'NONE', #1255, #490, #288 ) ;
#285 = VERTEX_POINT ( 'NONE', #949 ) ;
#286 = LINE ( 'NONE', #616, #933 ) ;
#287 = ADVANCED_FACE ( 'NONE', ( #944 ), #1162, .T. ) ;
#288 = DIRECTION ( 'NONE',  ( 0.000000000000000000, -0.000000000000000000, 1.000000000000000000 ) ) ;
#289 = DIRECTION ( 'NONE',  ( 1.000000000000000000, 0.000000000000000000, 2.168404344971009115E-16 ) ) ;
#290 = CARTESIAN_POINT ( 'NONE',  ( -0.4749999999999997558, 0.02499999999999995628, 0.2500000000000001110 ) ) ;
#291 = EDGE_LOOP ( 'NONE', ( #184, #908, #1028, #809, #245, #440, #606, #1088 ) ) ;
#292 = ORIENTED_EDGE ( 'NONE', *, *, #149, .T. ) ;
#293 = FACE_OUTER_BOUND ( 'NONE', #945, .T. ) ;
#294 = ADVANCED_FACE ( 'NONE', ( #1170 ), #369, .F. ) ;
#295 = DIRECTION ( 'NONE',  ( 0.000000000000000000, 0.000000000000000000, 1.000000000000000000 ) ) ;
#296 = DIRECTION ( 'NONE',  ( -1.000000000000000000, 0.000000000000000000, 4.818676322157800333E-16 ) ) ;
#297 = MANIFOLD_SOLID_BREP ( 'Fillet1', #607 ) ;
#298 = CARTESIAN_POINT ( 'NONE',  ( -0.4749999999999997558, 0.02499999999999995628, 0.2250000000000000888 ) ) ;
#299 = ORIENTED_EDGE ( 'NONE', *, *, #16, .F. ) ;
#300 = DIRECTION ( 'NONE',  ( 0.000000000000000000, 0.000000000000000000, 1.000000000000000000 ) ) ;
#301 = CIRCLE ( 'NONE', #30, 0.02500000000000001180 ) ;
#302 = CARTESIAN_POINT ( 'NONE',  ( 0.4999999999999997780, 0.02499999999999995628, -0.2500000000000000000 ) ) ;
#303 =( NAMED_UNIT ( * ) SI_UNIT ( $, .STERADIAN. ) SOLID_ANGLE_UNIT ( ) );
#304 = EDGE_CURVE ( 'NONE', #634, #1069, #459, .T. ) ;
#305 = FACE_OUTER_BOUND ( 'NONE', #230, .T. ) ;
#306 = VECTOR ( 'NONE', #1059, 1000.000000000000000 ) ;
#307 = AXIS2_PLACEMENT_3D ( 'NONE', #1035, #156, #938 ) ;
#308 = DIRECTION ( 'NONE',  ( 0.000000000000000000, 0.000000000000000000, -1.000000000000000000 ) ) ;
#309 = LINE ( 'NONE', #212, #465 ) ;
#310 = SURFACE_STYLE_FILL_AREA ( #402 ) ;
#311 = CYLINDRICAL_SURFACE ( 'NONE', #955, 0.01666666666666664562 ) ;
#312 = PRODUCT_RELATED_PRODUCT_CATEGORY ( 'part', '', ( #1116 ) ) ;
#313 = CARTESIAN_POINT ( 'NONE',  ( 0.2750000001014996087, 0.02499999999999995628, -0.2416666666666665575 ) ) ;
#314 = LINE ( 'NONE', #889, #1047 ) ;
#315 = VERTEX_POINT ( 'NONE', #604 ) ;
#316 = DIRECTION ( 'NONE',  ( 1.000000000000000000, 0.000000000000000000, 0.000000000000000000 ) ) ;
#317 = EDGE_LOOP ( 'NONE', ( #1002, #381, #1015 ) ) ;
#318 = LINE ( 'NONE', #393, #1147 ) ;
#319 = CARTESIAN_POINT ( 'NONE',  ( 0.2749999999878127710, 0.6250000000000000000, 0.2416666666666666963 ) ) ;
#320 = DIRECTION ( 'NONE',  ( 0.000000000000000000, 0.000000000000000000, 1.000000000000000000 ) ) ;
#321 = CIRCLE ( 'NONE', #950, 0.02500000000000001180 ) ;
#322 = FACE_OUTER_BOUND ( 'NONE', #317, .T. ) ;
#323 = DIRECTION ( 'NONE',  ( -1.000000000000000000, -0.000000000000000000, 8.673617379884037937E-17 ) ) ;
#324 = ORIENTED_EDGE ( 'NONE', *, *, #357, .T. ) ;
#325 = AXIS2_PLACEMENT_3D ( 'NONE', #1085, #781, #857 ) ;
#326 = PRESENTATION_LAYER_ASSIGNMENT (  '', '', ( #818 ) ) ;
#327 =( NAMED_UNIT ( * ) SI_UNIT ( $, .STERADIAN. ) SOLID_ANGLE_UNIT ( ) );
#328 = CARTESIAN_POINT ( 'NONE',  ( 0.4749999999999997558, 0.6500000000000000222, -0.2250000000000000056 ) ) ;
#329 = FACE_OUTER_BOUND ( 'NONE', #429, .T. ) ;
#330 = MANIFOLD_SOLID_BREP ( 'Boss-Extrude2', #220 ) ;
#331 = EDGE_LOOP ( 'NONE', ( #557, #1181, #515, #1098 ) ) ;
#332 = VERTEX_POINT ( 'NONE', #598 ) ;
#333 = DIRECTION ( 'NONE',  ( 0.000000000000000000, -1.000000000000000000, -0.000000000000000000 ) ) ;
#334 = SPHERICAL_SURFACE ( 'NONE', #12, 0.02500000000000000139 ) ;
#335 = CARTESIAN_POINT ( 'NONE',  ( 0.4749999999999997558, 0.6250000000000000000, -0.2250000000000000056 ) ) ;
#336 = VERTEX_POINT ( 'NONE', #709 ) ;
#337 = DIRECTION ( 'NONE',  ( -1.000000000000000000, 0.000000000000000000, 2.168404344971009115E-16 ) ) ;
#338 = CARTESIAN_POINT ( 'NONE',  ( 500000.0000000000582, 0.6250000000000000000, 0.2249999999566320019 ) ) ;
#339 = LINE ( 'NONE', #1036, #132 ) ;
#340 = EDGE_CURVE ( 'NONE', #336, #821, #1105, .T. ) ;
#341 = ADVANCED_FACE ( 'NONE', ( #423 ), #396, .T. ) ;
#342 = ORIENTED_EDGE ( 'NONE', *, *, #1026, .T. ) ;
#343 = EDGE_CURVE ( 'NONE', #830, #453, #448, .T. ) ;
#344 = VECTOR ( 'NONE', #157, 1000.000000000000000 ) ;
#345 = AXIS2_PLACEMENT_3D ( 'NONE', #510, #805, #799 ) ;
#346 = VECTOR ( 'NONE', #762, 1000.000000000000000 ) ;
#347 = DIRECTION ( 'NONE',  ( -2.168404344971009115E-16, 0.000000000000000000, 1.000000000000000000 ) ) ;
#348 = DIRECTION ( 'NONE',  ( 0.000000000000000000, 0.000000000000000000, -1.000000000000000000 ) ) ;
#349 = VERTEX_POINT ( 'NONE', #1185 ) ;
#350 = VERTEX_POINT ( 'NONE', #697 ) ;
#351 = DIRECTION ( 'NONE',  ( 0.000000000000000000, -0.000000000000000000, 1.000000000000000000 ) ) ;
#352 = DIRECTION ( 'NONE',  ( -0.000000000000000000, -1.000000000000000000, -0.000000000000000000 ) ) ;
#353 = ORIENTED_EDGE ( 'NONE', *, *, #1158, .T. ) ;
#354 = ADVANCED_FACE ( 'NONE', ( #613 ), #121, .T. ) ;
#355 = DIRECTION ( 'NONE',  ( 1.000000000000000000, 0.000000000000000000, 2.168404344971009115E-16 ) ) ;
#356 = CARTESIAN_POINT ( 'NONE',  ( 0.4749999999999997558, 0.6500000000000000222, -0.2250000000000000056 ) ) ;
#357 = EDGE_CURVE ( 'NONE', #466, #722, #608, .T. ) ;
#358 = ORIENTED_EDGE ( 'NONE', *, *, #859, .T. ) ;
#359 = ADVANCED_FACE ( 'NONE', ( #26 ), #885, .T. ) ;
#360 = CARTESIAN_POINT ( 'NONE',  ( -0.4749999999999997558, 0.6250000000000000000, -0.2250000000000000056 ) ) ;
#361 = CIRCLE ( 'NONE', #698, 0.02500000000000001180 ) ;
#362 =( GEOMETRIC_REPRESENTATION_CONTEXT ( 3 ) GLOBAL_UNCERTAINTY_ASSIGNED_CONTEXT ( ( #920 ) ) GLOBAL_UNIT_ASSIGNED_CONTEXT ( ( #1112, #998, #303 ) ) REPRESENTATION_CONTEXT ( 'NONE', 'WORKASPACE' ) );
#363 = DIRECTION ( 'NONE',  ( 1.000000000000000000, 0.000000000000000000, 0.000000000000000000 ) ) ;
#364 = AXIS2_PLACEMENT_3D ( 'NONE', #298, #875, #403 ) ;
#365 = VECTOR ( 'NONE', #480, 1000.000000000000000 ) ;
#366 = EDGE_LOOP ( 'NONE', ( #972, #973, #543 ) ) ;
#367 = SURFACE_STYLE_FILL_AREA ( #1243 ) ;
#368 = SPHERICAL_SURFACE ( 'NONE', #1084, 0.02500000000000000139 ) ;
#369 = PLANE ( 'NONE',  #154 ) ;
#370 = VERTEX_POINT ( 'NONE', #6 ) ;
#371 = ORIENTED_EDGE ( 'NONE', *, *, #87, .T. ) ;
#372 = DIRECTION ( 'NONE',  ( -1.000000000000000000, -0.000000000000000000, -0.000000000000000000 ) ) ;
#373 = CARTESIAN_POINT ( 'NONE',  ( -0.2749999999999999112, 0.6500000000000000222, -0.2249999999999998945 ) ) ;
#374 = EDGE_CURVE ( 'NONE', #1070, #1069, #134, .T. ) ;
#375 = ORIENTED_EDGE ( 'NONE', *, *, #757, .F. ) ;
#376 = VERTEX_POINT ( 'NONE', #517 ) ;
#377 = VECTOR ( 'NONE', #937, 1000.000000000000000 ) ;
#378 = FACE_OUTER_BOUND ( 'NONE', #415, .T. ) ;
#379 = FACE_OUTER_BOUND ( 'NONE', #1172, .T. ) ;
#380 = AXIS2_PLACEMENT_3D ( 'NONE', #1144, #735, #268 ) ;
#381 = ORIENTED_EDGE ( 'NONE', *, *, #626, .T. ) ;
#382 = VECTOR ( 'NONE', #1272, 1000.000000000000000 ) ;
#383 = CARTESIAN_POINT ( 'NONE',  ( 500000.0000000000582, 0.02499999999999995975, -0.2416666667100346444 ) ) ;
#384 = AXIS2_PLACEMENT_3D ( 'NONE', #740, #746, #463 ) ;
#385 = EDGE_LOOP ( 'NONE', ( #1011, #392, #881, #128 ) ) ;
#386 = ORIENTED_EDGE ( 'NONE', *, *, #757, .T. ) ;
#387 = ADVANCED_FACE ( 'NONE', ( #714 ), #979, .F. ) ;
#388 = DIRECTION ( 'NONE',  ( -0.000000000000000000, -0.000000000000000000, -1.000000000000000000 ) ) ;
#389 = DIRECTION ( 'NONE',  ( -4.818676322157800333E-16, 0.000000000000000000, 1.000000000000000000 ) ) ;
#390 = DIRECTION ( 'NONE',  ( 0.000000000000000000, 0.000000000000000000, -1.000000000000000000 ) ) ;
#391 = FACE_OUTER_BOUND ( 'NONE', #1032, .T. ) ;
#392 = ORIENTED_EDGE ( 'NONE', *, *, #304, .T. ) ;
#393 = CARTESIAN_POINT ( 'NONE',  ( 0.2749999999878127710, 0.6416666666666667185, -0.2250000001517881709 ) ) ;
#394 = EDGE_CURVE ( 'NONE', #618, #1189, #1193, .T. ) ;
#395 = CARTESIAN_POINT ( 'NONE',  ( 0.4999999999999997780, 0.02499999999999995628, -0.2250000000000000056 ) ) ;
#396 = SPHERICAL_SURFACE ( 'NONE', #1236, 0.02500000000000000139 ) ;
#397 = DIRECTION ( 'NONE',  ( -1.000000000000000000, -0.000000000000000000, 8.673617379884037937E-17 ) ) ;
#398 = ORIENTED_EDGE ( 'NONE', *, *, #374, .T. ) ;
#399 = CARTESIAN_POINT ( 'NONE',  ( 0.000000000000000000, 0.000000000000000000, 0.000000000000000000 ) ) ;
#400 = CYLINDRICAL_SURFACE ( 'NONE', #796, 0.02500000000000001180 ) ;
#401 = CARTESIAN_POINT ( 'NONE',  ( 0.2749999999999999112, 0.6250000000000000000, -0.2499999999999998890 ) ) ;
#402 = FILL_AREA_STYLE ('',( #226 ) ) ;
#403 = DIRECTION ( 'NONE',  ( 0.000000000000000000, 0.000000000000000000, -1.000000000000000000 ) ) ;
#404 = AXIS2_PLACEMENT_3D ( 'NONE', #863, #188, #774 ) ;
#405 = ORIENTED_EDGE ( 'NONE', *, *, #1094, .T. ) ;
#406 = PRESENTATION_LAYER_ASSIGNMENT (  '', '', ( #34 ) ) ;
#407 = ORIENTED_EDGE ( 'NONE', *, *, #645, .F. ) ;
#408 = AXIS2_PLACEMENT_3D ( 'NONE', #710, #432, #437 ) ;
#409 = DIRECTION ( 'NONE',  ( -1.000000000000000000, -0.000000000000000000, 8.673617379884037937E-17 ) ) ;
#410 = DIRECTION ( 'NONE',  ( 0.000000000000000000, 0.000000000000000000, 1.000000000000000000 ) ) ;
#411 = DIRECTION ( 'NONE',  ( -1.000000000000000000, 0.000000000000000000, 0.000000000000000000 ) ) ;
#412 = ADVANCED_FACE ( 'NONE', ( #233 ), #622, .F. ) ;
#413 = CARTESIAN_POINT ( 'NONE',  ( 0.4749999999999997558, 0.6250000000000000000, -0.2250000000000000056 ) ) ;
#414 = PLANE ( 'NONE',  #657 ) ;
#415 = EDGE_LOOP ( 'NONE', ( #64, #519, #777, #471 ) ) ;
#416 = CARTESIAN_POINT ( 'NONE',  ( -0.4999999999999997780, 0.02499999999999995628, 0.2250000000000000888 ) ) ;
#417 = LINE ( 'NONE', #228, #999 ) ;
#418 = ADVANCED_FACE ( 'NONE', ( #479 ), #1183, .T. ) ;
#419 = EDGE_CURVE ( 'NONE', #887, #72, #954, .T. ) ;
#420 = ORIENTED_EDGE ( 'NONE', *, *, #468, .T. ) ;
#421 = EDGE_CURVE ( 'NONE', #98, #679, #600, .T. ) ;
#422 = DIRECTION ( 'NONE',  ( -2.168404344971008868E-16, -0.000000000000000000, -1.000000000000000000 ) ) ;
#423 = FACE_OUTER_BOUND ( 'NONE', #929, .T. ) ;
#424 = ORIENTED_EDGE ( 'NONE', *, *, #1113, .F. ) ;
#425 = DIRECTION ( 'NONE',  ( 0.000000000000000000, 0.000000000000000000, 1.000000000000000000 ) ) ;
#426 = DIRECTION ( 'NONE',  ( 1.000000000000000000, 0.000000000000000000, 2.168404344971009115E-16 ) ) ;
#427 = AXIS2_PLACEMENT_3D ( 'NONE', #91, #624, #868 ) ;
#428 = MECHANICAL_DESIGN_GEOMETRIC_PRESENTATION_REPRESENTATION (  '', ( #9 ), #175 ) ;
#429 = EDGE_LOOP ( 'NONE', ( #1052, #1149, #182 ) ) ;
#430 = AXIS2_PLACEMENT_3D ( 'NONE', #83, #878, #577 ) ;
#431 = ORIENTED_EDGE ( 'NONE', *, *, #1062, .F. ) ;
#432 = DIRECTION ( 'NONE',  ( 0.000000000000000000, 0.000000000000000000, -1.000000000000000000 ) ) ;
#433 = DIRECTION ( 'NONE',  ( 1.000000000000000000, -0.000000000000000000, -2.168404344971009115E-16 ) ) ;
#434 = ORIENTED_EDGE ( 'NONE', *, *, #1199, .T. ) ;
#435 = EDGE_CURVE ( 'NONE', #1189, #138, #1174, .T. ) ;
#436 = CARTESIAN_POINT ( 'NONE',  ( -0.2749999999999998002, 0.6500000000000000222, 0.2500000000000001110 ) ) ;
#437 = DIRECTION ( 'NONE',  ( -1.000000000000000000, 0.000000000000000000, 0.000000000000000000 ) ) ;
#438 = SPHERICAL_SURFACE ( 'NONE', #1266, 0.02500000000000000139 ) ;
#439 = EDGE_CURVE ( 'NONE', #350, #824, #1082, .T. ) ;
#440 = ORIENTED_EDGE ( 'NONE', *, *, #504, .T. ) ;
#441 = SURFACE_STYLE_USAGE ( .BOTH. , #761 ) ;
#442 = SPHERICAL_SURFACE ( 'NONE', #720, 0.02500000000000000139 ) ;
#443 = DIRECTION ( 'NONE',  ( 0.000000000000000000, 0.000000000000000000, 1.000000000000000000 ) ) ;
#444 = COLOUR_RGB ( '',0.7921568627450980005, 0.8196078431372548767, 0.9333333333333333481 ) ;
#445 = EDGE_CURVE ( 'NONE', #2, #1268, #719, .T. ) ;
#446 = ORIENTED_EDGE ( 'NONE', *, *, #1124, .F. ) ;
#447 = CIRCLE ( 'NONE', #427, 0.02500000000000001180 ) ;
#448 = CIRCLE ( 'NONE', #816, 0.02500000000000001180 ) ;
#449 = VECTOR ( 'NONE', #454, 1000.000000000000000 ) ;
#450 = DIRECTION ( 'NONE',  ( 1.000000000000000000, 0.000000000000000000, 2.168404344971009115E-16 ) ) ;
#451 = CARTESIAN_POINT ( 'NONE',  ( 500000.0000000000582, 0.6416666666666667185, 0.2249999999566320019 ) ) ;
#452 = EDGE_CURVE ( 'NONE', #821, #990, #318, .T. ) ;
#453 = VERTEX_POINT ( 'NONE', #508 ) ;
#454 = DIRECTION ( 'NONE',  ( -0.000000000000000000, 1.000000000000000000, -0.000000000000000000 ) ) ;
#455 = LINE ( 'NONE', #451, #1164 ) ;
#456 = ORIENTED_EDGE ( 'NONE', *, *, #452, .F. ) ;
#457 = DIRECTION ( 'NONE',  ( -0.000000000000000000, 0.000000000000000000, -1.000000000000000000 ) ) ;
#458 = DIRECTION ( 'NONE',  ( 0.000000000000000000, 1.000000000000000000, 0.000000000000000000 ) ) ;
#459 = LINE ( 'NONE', #989, #1000 ) ;
#460 = ORIENTED_EDGE ( 'NONE', *, *, #563, .F. ) ;
#461 = CARTESIAN_POINT ( 'NONE',  ( -0.4749999999999997558, 0.6250000000000000000, 0.2250000000000000888 ) ) ;
#462 = VECTOR ( 'NONE', #300, 1000.000000000000000 ) ;
#463 = DIRECTION ( 'NONE',  ( 0.000000000000000000, 0.000000000000000000, 1.000000000000000000 ) ) ;
#464 =( NAMED_UNIT ( * ) PLANE_ANGLE_UNIT ( ) SI_UNIT ( $, .RADIAN. ) );
#465 = VECTOR ( 'NONE', #962, 1000.000000000000000 ) ;
#466 = VERTEX_POINT ( 'NONE', #996 ) ;
#467 = PRODUCT_CONTEXT ( 'NONE', #171, 'mechanical' ) ;
#468 = EDGE_CURVE ( 'NONE', #350, #1189, #588, .T. ) ;
#469 = CARTESIAN_POINT ( 'NONE',  ( -0.2749999999999998557, 0.6250000000000000000, -0.2249999999999998945 ) ) ;
#470 = CARTESIAN_POINT ( 'NONE',  ( 0.2749999999999999112, 0.6500000000000000222, -0.2499999999999998890 ) ) ;
#471 = ORIENTED_EDGE ( 'NONE', *, *, #186, .F. ) ;
#472 = ORIENTED_EDGE ( 'NONE', *, *, #808, .F. ) ;
#473 = ORIENTED_EDGE ( 'NONE', *, *, #1159, .F. ) ;
#474 = ORIENTED_EDGE ( 'NONE', *, *, #869, .T. ) ;
#475 = CARTESIAN_POINT ( 'NONE',  ( 0.2749999999999999112, 0.6500000000000000222, -0.2499999999999998890 ) ) ;
#476 = PRESENTATION_STYLE_ASSIGNMENT (( #68 ) ) ;
#477 = CARTESIAN_POINT ( 'NONE',  ( -0.2749999999999999112, 0.6250000000000000000, -0.2499999999999998890 ) ) ;
#478 = DIRECTION ( 'NONE',  ( 1.000000000000000000, 0.000000000000000000, 0.000000000000000000 ) ) ;
#479 = FACE_OUTER_BOUND ( 'NONE', #729, .T. ) ;
#480 = DIRECTION ( 'NONE',  ( 0.000000000000000000, -1.000000000000000000, 4.517509052022934731E-17 ) ) ;
#481 = DIRECTION ( 'NONE',  ( 0.000000000000000000, -0.000000000000000000, 1.000000000000000000 ) ) ;
#482 = AXIS2_PLACEMENT_3D ( 'NONE', #533, #249, #643 ) ;
#483 = CARTESIAN_POINT ( 'NONE',  ( -0.2749999999999998002, 0.6500000000000000222, 0.2250000000000000888 ) ) ;
#484 = AXIS2_PLACEMENT_3D ( 'NONE', #97, #214, #491 ) ;
#485 = EDGE_CURVE ( 'NONE', #821, #1080, #597, .T. ) ;
#486 = AXIS2_PLACEMENT_3D ( 'NONE', #193, #1071, #584 ) ;
#487 = ORIENTED_EDGE ( 'NONE', *, *, #883, .F. ) ;
#488 = DIRECTION ( 'NONE',  ( 1.000000000000000000, 0.000000000000000000, -4.818676322157800333E-16 ) ) ;
#489 = ADVANCED_FACE ( 'NONE', ( #702 ), #400, .T. ) ;
#490 = DIRECTION ( 'NONE',  ( 0.000000000000000000, 1.000000000000000000, 0.000000000000000000 ) ) ;
#491 = DIRECTION ( 'NONE',  ( 4.818676322157807236E-16, 0.000000000000000000, -1.000000000000000000 ) ) ;
#492 = ORIENTED_EDGE ( 'NONE', *, *, #845, .F. ) ;
#493 = DIRECTION ( 'NONE',  ( 1.000000000000000000, 0.000000000000000000, 2.168404344971009115E-16 ) ) ;
#494 = LINE ( 'NONE', #786, #365 ) ;
#495 = CARTESIAN_POINT ( 'NONE',  ( 0.2749999999999998002, 0.02499999999999995628, 0.2250000000000000888 ) ) ;
#496 = ORIENTED_EDGE ( 'NONE', *, *, #1222, .T. ) ;
#497 = VERTEX_POINT ( 'NONE', #712 ) ;
#498 = DIRECTION ( 'NONE',  ( 0.000000000000000000, 0.000000000000000000, 1.000000000000000000 ) ) ;
#499 = ORIENTED_EDGE ( 'NONE', *, *, #1180, .T. ) ;
#500 = DIRECTION ( 'NONE',  ( 0.000000000000000000, 0.000000000000000000, -1.000000000000000000 ) ) ;
#501 =( NAMED_UNIT ( * ) PLANE_ANGLE_UNIT ( ) SI_UNIT ( $, .RADIAN. ) );
#502 = PRESENTATION_STYLE_ASSIGNMENT (( #994 ) ) ;
#503 = DIRECTION ( 'NONE',  ( -1.000000000000000000, 0.000000000000000000, 0.000000000000000000 ) ) ;
#504 = EDGE_CURVE ( 'NONE', #332, #276, #112, .T. ) ;
#505 = VECTOR ( 'NONE', #164, 1000.000000000000000 ) ;
#506 = CIRCLE ( 'NONE', #772, 0.01666666666666667337 ) ;
#507 = VECTOR ( 'NONE', #1042, 1000.000000000000000 ) ;
#508 = CARTESIAN_POINT ( 'NONE',  ( -0.4749999999999997558, 0.6500000000000000222, -0.2250000000000000056 ) ) ;
#509 = LINE ( 'NONE', #319, #590 ) ;
#510 = CARTESIAN_POINT ( 'NONE',  ( 500000.0000000000582, 0.6250000000000000000, -0.2250000000433680092 ) ) ;
#511 = EDGE_CURVE ( 'NONE', #1117, #596, #1200, .T. ) ;
#512 = EDGE_CURVE ( 'NONE', #285, #587, #791, .T. ) ;
#513 = CARTESIAN_POINT ( 'NONE',  ( 0.2749999999999999112, 0.02499999999999995628, -0.2499999999999998890 ) ) ;
#514 = VERTEX_POINT ( 'NONE', #313 ) ;
#515 = ORIENTED_EDGE ( 'NONE', *, *, #1222, .F. ) ;
#516 = DIRECTION ( 'NONE',  ( 0.000000000000000000, 0.000000000000000000, -1.000000000000000000 ) ) ;
#517 = CARTESIAN_POINT ( 'NONE',  ( -0.2749999999999999112, 0.000000000000000000, -0.2249999999999998945 ) ) ;
#518 = CARTESIAN_POINT ( 'NONE',  ( -0.4749999999999997558, 0.02500000000000000139, 0.2250000000000000888 ) ) ;
#519 = ORIENTED_EDGE ( 'NONE', *, *, #1056, .F. ) ;
#520 = EDGE_LOOP ( 'NONE', ( #487, #386, #1198, #207 ) ) ;
#521 = EDGE_LOOP ( 'NONE', ( #595, #1019, #1153, #375 ) ) ;
#522 = CYLINDRICAL_SURFACE ( 'NONE', #849, 0.02500000000000001180 ) ;
#523 = DIRECTION ( 'NONE',  ( 0.000000000000000000, -0.000000000000000000, -1.000000000000000000 ) ) ;
#524 = FACE_OUTER_BOUND ( 'NONE', #681, .T. ) ;
#525 = ORIENTED_EDGE ( 'NONE', *, *, #848, .T. ) ;
#526 = CIRCLE ( 'NONE', #282, 0.02500000000000001180 ) ;
#527 = EDGE_CURVE ( 'NONE', #1117, #634, #11, .T. ) ;
#528 = AXIS2_PLACEMENT_3D ( 'NONE', #1014, #523, #913 ) ;
#529 = ORIENTED_EDGE ( 'NONE', *, *, #1277, .T. ) ;
#530 = CIRCLE ( 'NONE', #853, 0.02500000000000001180 ) ;
#531 = DIRECTION ( 'NONE',  ( 0.000000000000000000, 0.000000000000000000, -1.000000000000000000 ) ) ;
#532 = CARTESIAN_POINT ( 'NONE',  ( -0.2749999999999999112, 0.02499999999999995628, -0.2499999999999998890 ) ) ;
#533 = CARTESIAN_POINT ( 'NONE',  ( 0.4749999999999997558, 0.02500000000000000139, -0.2250000000000000056 ) ) ;
#534 = ORIENTED_EDGE ( 'NONE', *, *, #1180, .F. ) ;
#535 = DIRECTION ( 'NONE',  ( 2.168404344971008868E-16, -0.000000000000000000, -1.000000000000000000 ) ) ;
#536 = CARTESIAN_POINT ( 'NONE',  ( 0.000000000000000000, 0.6500000000000000222, 0.000000000000000000 ) ) ;
#537 = DIRECTION ( 'NONE',  ( -1.000000000000000000, -0.000000000000000000, 8.673617379884037937E-17 ) ) ;
#538 = EDGE_LOOP ( 'NONE', ( #867, #1017, #460, #492 ) ) ;
#539 = CARTESIAN_POINT ( 'NONE',  ( -0.4999999999999997780, 0.02499999999999995628, -0.2250000000000000056 ) ) ;
#540 = CARTESIAN_POINT ( 'NONE',  ( 0.2749999999878127710, 0.02499999999999995628, -0.2249999999999999500 ) ) ;
#541 = CARTESIAN_POINT ( 'NONE',  ( -0.4749999999999997558, 0.6250000000000000000, -0.2250000000000000056 ) ) ;
#542 = ORIENTED_EDGE ( 'NONE', *, *, #1199, .F. ) ;
#543 = ORIENTED_EDGE ( 'NONE', *, *, #468, .F. ) ;
#544 = ORIENTED_EDGE ( 'NONE', *, *, #16, .T. ) ;
#545 = AXIS2_PLACEMENT_3D ( 'NONE', #578, #957, #1072 ) ;
#546 = VECTOR ( 'NONE', #678, 1000.000000000000000 ) ;
#547 = CARTESIAN_POINT ( 'NONE',  ( 0.2749999999878127710, 0.02499999999999995975, -0.2416666666666665853 ) ) ;
#548 = VECTOR ( 'NONE', #5, 1000.000000000000000 ) ;
#549 = CARTESIAN_POINT ( 'NONE',  ( -0.4749999999999997558, 0.000000000000000000, 0.2250000000000000888 ) ) ;
#550 = CARTESIAN_POINT ( 'NONE',  ( -0.4749999999999997558, 0.6500000000000000222, 0.2500000000000001110 ) ) ;
#551 = ADVANCED_FACE ( 'NONE', ( #293 ), #688, .F. ) ;
#552 = EDGE_CURVE ( 'NONE', #990, #98, #506, .T. ) ;
#553 = ORIENTED_EDGE ( 'NONE', *, *, #108, .F. ) ;
#554 = LINE ( 'NONE', #755, #243 ) ;
#555 = CARTESIAN_POINT ( 'NONE',  ( -0.4749999999999997558, 0.6250000000000000000, 0.2250000000000000888 ) ) ;
#556 = LINE ( 'NONE', #827, #196 ) ;
#557 = ORIENTED_EDGE ( 'NONE', *, *, #579, .F. ) ;
#558 =( NAMED_UNIT ( * ) SI_UNIT ( $, .STERADIAN. ) SOLID_ANGLE_UNIT ( ) );
#559 = PLANE ( 'NONE',  #114 ) ;
#560 = CARTESIAN_POINT ( 'NONE',  ( -0.2749999999999998557, 0.6250000000000000000, -0.2249999999999998945 ) ) ;
#561 = VERTEX_POINT ( 'NONE', #93 ) ;
#562 = ORIENTED_EDGE ( 'NONE', *, *, #563, .T. ) ;
#563 = EDGE_CURVE ( 'NONE', #561, #315, #674, .T. ) ;
#564 = CIRCLE ( 'NONE', #404, 0.02500000000000001180 ) ;
#565 = VECTOR ( 'NONE', #388, 1000.000000000000000 ) ;
#566 = FACE_OUTER_BOUND ( 'NONE', #800, .T. ) ;
#567 = CARTESIAN_POINT ( 'NONE',  ( -1.084202172485503818E-16, 0.6250000000000000000, -0.2249999999999997558 ) ) ;
#568 = ADVANCED_FACE ( 'NONE', ( #692 ), #1087, .T. ) ;
#569 = VECTOR ( 'NONE', #599, 1000.000000000000000 ) ;
#570 = ORIENTED_EDGE ( 'NONE', *, *, #1241, .T. ) ;
#571 = LINE ( 'NONE', #475, #159 ) ;
#572 = FILL_AREA_STYLE ('',( #179 ) ) ;
#573 = DIRECTION ( 'NONE',  ( -1.000000000000000000, 0.000000000000000000, 0.000000000000000000 ) ) ;
#574 = EDGE_LOOP ( 'NONE', ( #231, #1262, #45, #1120, #473, #984, #39, #686 ) ) ;
#575 = DIRECTION ( 'NONE',  ( -0.000000000000000000, 1.000000000000000000, -0.000000000000000000 ) ) ;
#576 = ADVANCED_BREP_SHAPE_REPRESENTATION ( 'C1005JB0G475K050BB', ( #297, #1152, #330, #651 ), #1020 ) ;
#577 = DIRECTION ( 'NONE',  ( 0.000000000000000000, 0.000000000000000000, 1.000000000000000000 ) ) ;
#578 = CARTESIAN_POINT ( 'NONE',  ( 0.4749999999999997558, 0.6250000000000000000, 0.000000000000000000 ) ) ;
#579 = EDGE_CURVE ( 'NONE', #1070, #887, #107, .T. ) ;
#580 = FACE_OUTER_BOUND ( 'NONE', #836, .T. ) ;
#581 = ORIENTED_EDGE ( 'NONE', *, *, #987, .F. ) ;
#582 = ORIENTED_EDGE ( 'NONE', *, *, #632, .T. ) ;
#583 = CARTESIAN_POINT ( 'NONE',  ( 0.4999999999999997780, 0.6500000000000000222, -0.2500000000000000000 ) ) ;
#584 = DIRECTION ( 'NONE',  ( 0.000000000000000000, 0.000000000000000000, -1.000000000000000000 ) ) ;
#585 = DIRECTION ( 'NONE',  ( 1.000000000000000000, 0.000000000000000000, 0.000000000000000000 ) ) ;
#586 = AXIS2_PLACEMENT_3D ( 'NONE', #1139, #433, #939 ) ;
#587 = VERTEX_POINT ( 'NONE', #1079 ) ;
#588 = CIRCLE ( 'NONE', #754, 0.02500000000000001180 ) ;
#589 = PLANE ( 'NONE',  #155 ) ;
#590 = VECTOR ( 'NONE', #825, 1000.000000000000000 ) ;
#591 = DIRECTION ( 'NONE',  ( -1.000000000000000000, -0.000000000000000000, 8.673617379884037937E-17 ) ) ;
#592 = CARTESIAN_POINT ( 'NONE',  ( 0.000000000000000000, 0.000000000000000000, 0.2250000000000000888 ) ) ;
#593 = DIRECTION ( 'NONE',  ( 0.000000000000000000, 1.000000000000000000, 0.000000000000000000 ) ) ;
#594 = DIRECTION ( 'NONE',  ( 0.000000000000000000, 0.000000000000000000, 1.000000000000000000 ) ) ;
#595 = ORIENTED_EDGE ( 'NONE', *, *, #504, .F. ) ;
#596 = VERTEX_POINT ( 'NONE', #1265 ) ;
#597 = LINE ( 'NONE', #967, #633 ) ;
#598 = CARTESIAN_POINT ( 'NONE',  ( 0.2750000001014996087, 0.008333333333333310666, 0.2250000000000000611 ) ) ;
#599 = DIRECTION ( 'NONE',  ( 1.000000000000000000, -0.000000000000000000, 4.818676322157800333E-16 ) ) ;
#600 = LINE ( 'NONE', #1278, #699 ) ;
#601 = ADVANCED_FACE ( 'NONE', ( #391 ), #768, .T. ) ;
#602 = VECTOR ( 'NONE', #646, 1000.000000000000000 ) ;
#603 = DIRECTION ( 'NONE',  ( -1.000000000000000000, 0.000000000000000000, -4.818676322157800333E-16 ) ) ;
#604 = CARTESIAN_POINT ( 'NONE',  ( -0.4749999999999997558, 0.6250000000000000000, 0.2500000000000001110 ) ) ;
#605 = CARTESIAN_POINT ( 'NONE',  ( 500000.0000000000582, 0.008333333333333310666, 0.2249999999566320019 ) ) ;
#606 = ORIENTED_EDGE ( 'NONE', *, *, #883, .T. ) ;
#607 = CLOSED_SHELL ( 'NONE', ( #51, #1146, #1137, #961, #958, #904, #568, #238, #682, #946, #723, #625, #742, #985, #1029, #354, #865, #1156 ) ) ;
#608 = CIRCLE ( 'NONE', #1128, 0.02500000000000001180 ) ;
#609 = VECTOR ( 'NONE', #615, 1000.000000000000000 ) ;
#610 = EDGE_LOOP ( 'NONE', ( #177, #71, #693, #474 ) ) ;
#611 = ORIENTED_EDGE ( 'NONE', *, *, #1041, .T. ) ;
#612 = PLANE ( 'NONE',  #270 ) ;
#613 = FACE_OUTER_BOUND ( 'NONE', #1060, .T. ) ;
#614 = EDGE_CURVE ( 'NONE', #959, #1117, #783, .T. ) ;
#615 = DIRECTION ( 'NONE',  ( -1.000000000000000000, -0.000000000000000000, -0.000000000000000000 ) ) ;
#616 = CARTESIAN_POINT ( 'NONE',  ( -0.2749999999999998557, 0.02499999999999995975, -0.2416666666666665297 ) ) ;
#617 = ADVANCED_FACE ( 'NONE', ( #580 ), #589, .F. ) ;
#618 = VERTEX_POINT ( 'NONE', #8 ) ;
#619 = ORIENTED_EDGE ( 'NONE', *, *, #108, .T. ) ;
#620 = EDGE_LOOP ( 'NONE', ( #456, #229, #1242, #899 ) ) ;
#621 = CARTESIAN_POINT ( 'NONE',  ( 0.2749999999999998002, 0.6500000000000000222, 0.2500000000000001110 ) ) ;
#622 = PLANE ( 'NONE',  #976 ) ;
#623 = LINE ( 'NONE', #122, #1129 ) ;
#624 = DIRECTION ( 'NONE',  ( 0.000000000000000000, -1.000000000000000000, -0.000000000000000000 ) ) ;
#625 = ADVANCED_FACE ( 'NONE', ( #1067 ), #970, .T. ) ;
#626 = EDGE_CURVE ( 'NONE', #653, #138, #756, .T. ) ;
#627 = ORIENTED_EDGE ( 'NONE', *, *, #1124, .T. ) ;
#628 = SURFACE_STYLE_USAGE ( .BOTH. , #1111 ) ;
#629 = FACE_OUTER_BOUND ( 'NONE', #652, .T. ) ;
#630 = CARTESIAN_POINT ( 'NONE',  ( -0.2749999999999998002, 0.000000000000000000, 0.2250000000000000888 ) ) ;
#631 = AXIS2_PLACEMENT_3D ( 'NONE', #567, #296, #1260 ) ;
#632 = EDGE_CURVE ( 'NONE', #370, #1070, #283, .T. ) ;
#633 = VECTOR ( 'NONE', #409, 1000.000000000000000 ) ;
#634 = VERTEX_POINT ( 'NONE', #1275 ) ;
#635 = AXIS2_PLACEMENT_3D ( 'NONE', #766, #1280, #1090 ) ;
#636 =( NAMED_UNIT ( * ) PLANE_ANGLE_UNIT ( ) SI_UNIT ( $, .RADIAN. ) );
#637 = CARTESIAN_POINT ( 'NONE',  ( 0.2749999999999998002, 0.000000000000000000, 0.2250000000000000888 ) ) ;
#638 = DIRECTION ( 'NONE',  ( 0.000000000000000000, -1.000000000000000000, 0.000000000000000000 ) ) ;
#639 = ORIENTED_EDGE ( 'NONE', *, *, #485, .F. ) ;
#640 = CARTESIAN_POINT ( 'NONE',  ( 0.2749999999999999112, 0.000000000000000000, -0.2499999999999998890 ) ) ;
#641 = ADVANCED_FACE ( 'NONE', ( #1 ), #311, .T. ) ;
#642 = CARTESIAN_POINT ( 'NONE',  ( 0.2749999999999999112, 0.02499999999999995628, -0.2249999999999998945 ) ) ;
#643 = DIRECTION ( 'NONE',  ( 1.000000000000000000, 0.000000000000000000, 0.000000000000000000 ) ) ;
#644 = ORIENTED_EDGE ( 'NONE', *, *, #982, .F. ) ;
#645 = EDGE_CURVE ( 'NONE', #778, #497, #86, .T. ) ;
#646 = DIRECTION ( 'NONE',  ( 0.000000000000000000, 0.000000000000000000, 1.000000000000000000 ) ) ;
#647 = ADVANCED_FACE ( 'NONE', ( #305 ), #181, .T. ) ;
#648 = CARTESIAN_POINT ( 'NONE',  ( 0.4749999999999997558, 0.02499999999999995628, -0.2250000000000000056 ) ) ;
#649 = DIRECTION ( 'NONE',  ( 0.000000000000000000, 0.000000000000000000, 1.000000000000000000 ) ) ;
#650 = VECTOR ( 'NONE', #333, 1000.000000000000000 ) ;
#651 = AXIS2_PLACEMENT_3D ( 'NONE', #399, #694, #802 ) ;
#652 = EDGE_LOOP ( 'NONE', ( #131, #1257, #499, #738 ) ) ;
#653 = VERTEX_POINT ( 'NONE', #290 ) ;
#654 = AXIS2_PLACEMENT_3D ( 'NONE', #19, #488, #896 ) ;
#655 = DIRECTION ( 'NONE',  ( 0.000000000000000000, -1.000000000000000000, 0.000000000000000000 ) ) ;
#656 = ORIENTED_EDGE ( 'NONE', *, *, #982, .T. ) ;
#657 = AXIS2_PLACEMENT_3D ( 'NONE', #1006, #516, #912 ) ;
#658 = PLANE ( 'NONE',  #269 ) ;
#659 = DIRECTION ( 'NONE',  ( 0.000000000000000000, 0.000000000000000000, 1.000000000000000000 ) ) ;
#660 = EDGE_CURVE ( 'NONE', #315, #778, #916, .T. ) ;
#661 = ORIENTED_EDGE ( 'NONE', *, *, #439, .T. ) ;
#662 = DIRECTION ( 'NONE',  ( 1.000000000000000000, -0.000000000000000000, 0.000000000000000000 ) ) ;
#663 = CARTESIAN_POINT ( 'NONE',  ( 0.4999999999999997780, 0.6250000000000000000, -0.2250000000000000056 ) ) ;
#664 = CYLINDRICAL_SURFACE ( 'NONE', #716, 0.01666666666666664562 ) ;
#665 = EDGE_CURVE ( 'NONE', #824, #673, #991, .T. ) ;
#666 = ORIENTED_EDGE ( 'NONE', *, *, #59, .F. ) ;
#667 = EDGE_CURVE ( 'NONE', #743, #466, #995, .T. ) ;
#668 = LINE ( 'NONE', #758, #449 ) ;
#669 = CYLINDRICAL_SURFACE ( 'NONE', #1212, 0.02500000000000001180 ) ;
#670 = ORIENTED_EDGE ( 'NONE', *, *, #90, .F. ) ;
#671 = VERTEX_POINT ( 'NONE', #894 ) ;
#672 = AXIS2_PLACEMENT_3D ( 'NONE', #240, #133, #531 ) ;
#673 = VERTEX_POINT ( 'NONE', #477 ) ;
#674 = CIRCLE ( 'NONE', #113, 0.02500000000000001180 ) ;
#675 = DIRECTION ( 'NONE',  ( 1.000000000000000000, 0.000000000000000000, -4.818676322157800333E-16 ) ) ;
#676 = CARTESIAN_POINT ( 'NONE',  ( 500000.0000000000582, 0.008333333333333333218, 0.2249999999566320019 ) ) ;
#677 = AXIS2_PLACEMENT_3D ( 'NONE', #267, #450, #347 ) ;
#678 = DIRECTION ( 'NONE',  ( -1.000000000000000000, 0.000000000000000000, 0.000000000000000000 ) ) ;
#679 = VERTEX_POINT ( 'NONE', #685 ) ;
#680 = EDGE_LOOP ( 'NONE', ( #1096, #581, #570, #542 ) ) ;
#681 = EDGE_LOOP ( 'NONE', ( #715, #1046, #165, #1238, #144, #666, #1269, #1136 ) ) ;
#682 = ADVANCED_FACE ( 'NONE', ( #927 ), #801, .T. ) ;
#683 = CARTESIAN_POINT ( 'NONE',  ( 0.2749999999999998002, 0.6500000000000000222, 0.2250000000000000888 ) ) ;
#684 = PLANE ( 'NONE',  #69 ) ;
#685 = CARTESIAN_POINT ( 'NONE',  ( -0.2749999999999998557, 0.6250000000000000000, 0.2416666666666667795 ) ) ;
#686 = ORIENTED_EDGE ( 'NONE', *, *, #90, .T. ) ;
#687 = DIRECTION ( 'NONE',  ( 0.000000000000000000, -0.000000000000000000, -1.000000000000000000 ) ) ;
#688 = PLANE ( 'NONE',  #1063 ) ;
#689 = EDGE_CURVE ( 'NONE', #349, #315, #1218, .T. ) ;
#690 = DIRECTION ( 'NONE',  ( 1.000000000000000000, 0.000000000000000000, -8.673617379884036705E-17 ) ) ;
#691 = CARTESIAN_POINT ( 'NONE',  ( 500000.0000000000582, 0.02499999999999995628, 0.2249999999566320019 ) ) ;
#692 = FACE_OUTER_BOUND ( 'NONE', #789, .T. ) ;
#693 = ORIENTED_EDGE ( 'NONE', *, *, #54, .F. ) ;
#694 = DIRECTION ( 'NONE',  ( 0.000000000000000000, 0.000000000000000000, 1.000000000000000000 ) ) ;
#695 = CARTESIAN_POINT ( 'NONE',  ( 0.2749999999999998002, 0.6250000000000000000, 0.2250000000000000888 ) ) ;
#696 = LINE ( 'NONE', #792, #872 ) ;
#697 = CARTESIAN_POINT ( 'NONE',  ( -0.4749999999999997558, 0.02499999999999995628, -0.2500000000000000000 ) ) ;
#698 = AXIS2_PLACEMENT_3D ( 'NONE', #1134, #137, #348 ) ;
#699 = VECTOR ( 'NONE', #591, 1000.000000000000000 ) ;
#700 = DIRECTION ( 'NONE',  ( -1.000000000000000000, 0.000000000000000000, 0.000000000000000000 ) ) ;
#701 = CIRCLE ( 'NONE', #222, 0.01666666666666662133 ) ;
#702 = FACE_OUTER_BOUND ( 'NONE', #769, .T. ) ;
#703 = DIRECTION ( 'NONE',  ( 1.000000000000000000, 0.000000000000000000, 4.818676322157800333E-16 ) ) ;
#704 = CARTESIAN_POINT ( 'NONE',  ( 500000.0000000000582, 0.02499999999999995628, -0.2250000000433680092 ) ) ;
#705 = PRODUCT_DEFINITION_SHAPE ( 'NONE', 'NONE',  #1142 ) ;
#706 = ADVANCED_FACE ( 'NONE', ( #731 ), #1209, .F. ) ;
#707 = DIRECTION ( 'NONE',  ( -1.000000000000000000, 0.000000000000000000, 4.818676322157800333E-16 ) ) ;
#708 = DIRECTION ( 'NONE',  ( -1.000000000000000000, 0.000000000000000000, 0.000000000000000000 ) ) ;
#709 = CARTESIAN_POINT ( 'NONE',  ( 0.2750000001014996087, 0.6250000000000000000, -0.2416666666666666130 ) ) ;
#710 = CARTESIAN_POINT ( 'NONE',  ( -0.4749999999999997558, 0.6250000000000000000, 0.000000000000000000 ) ) ;
#711 = EDGE_LOOP ( 'NONE', ( #915, #923, #237, #1057 ) ) ;
#712 = CARTESIAN_POINT ( 'NONE',  ( -0.2749999999999998002, 0.6500000000000000222, 0.2250000000000000888 ) ) ;
#713 = CARTESIAN_POINT ( 'NONE',  ( -0.2749999999999999112, 0.6500000000000000222, -0.2499999999999998890 ) ) ;
#714 = FACE_OUTER_BOUND ( 'NONE', #620, .T. ) ;
#715 = ORIENTED_EDGE ( 'NONE', *, *, #1241, .F. ) ;
#716 = AXIS2_PLACEMENT_3D ( 'NONE', #691, #278, #858 ) ;
#717 = CYLINDRICAL_SURFACE ( 'NONE', #1064, 0.01666666666666664562 ) ;
#718 = VERTEX_POINT ( 'NONE', #513 ) ;
#719 = CIRCLE ( 'NONE', #52, 0.01666666666666662133 ) ;
#720 = AXIS2_PLACEMENT_3D ( 'NONE', #948, #57, #168 ) ;
#721 = VECTOR ( 'NONE', #993, 1000.000000000000000 ) ;
#722 = VERTEX_POINT ( 'NONE', #637 ) ;
#723 = ADVANCED_FACE ( 'NONE', ( #322 ), #334, .T. ) ;
#724 = CARTESIAN_POINT ( 'NONE',  ( 0.4749999999999997558, 0.6250000000000000000, 0.2250000000000000888 ) ) ;
#725 = DIRECTION ( 'NONE',  ( 1.000000000000000000, -0.000000000000000000, -0.000000000000000000 ) ) ;
#726 = LINE ( 'NONE', #605, #775 ) ;
#727 = CARTESIAN_POINT ( 'NONE',  ( 0.4749999999999997558, 0.6250000000000000000, -0.2250000000000000056 ) ) ;
#728 = ORIENTED_EDGE ( 'NONE', *, *, #421, .T. ) ;
#729 = EDGE_LOOP ( 'NONE', ( #901, #405, #358, #434 ) ) ;
#730 = DIRECTION ( 'NONE',  ( 1.000000000000000000, 0.000000000000000000, 0.000000000000000000 ) ) ;
#731 = FACE_OUTER_BOUND ( 'NONE', #680, .T. ) ;
#732 = DIRECTION ( 'NONE',  ( -1.000000000000000000, 0.000000000000000000, 0.000000000000000000 ) ) ;
#733 = ORIENTED_EDGE ( 'NONE', *, *, #1158, .F. ) ;
#734 = CARTESIAN_POINT ( 'NONE',  ( -0.4749999999999997558, 0.6250000000000000000, -0.2500000000000000000 ) ) ;
#735 = DIRECTION ( 'NONE',  ( 1.000000000000000000, -0.000000000000000000, -2.168404344971009115E-16 ) ) ;
#736 = AXIS2_PLACEMENT_3D ( 'NONE', #281, #969, #84 ) ;
#737 = AXIS2_PLACEMENT_3D ( 'NONE', #695, #992, #986 ) ;
#738 = ORIENTED_EDGE ( 'NONE', *, *, #421, .F. ) ;
#739 = VECTOR ( 'NONE', #189, 1000.000000000000000 ) ;
#740 = CARTESIAN_POINT ( 'NONE',  ( 0.4749999999999997558, 0.6250000000000000000, 0.2250000000000000888 ) ) ;
#741 = DIRECTION ( 'NONE',  ( -1.000000000000000000, -0.000000000000000000, 4.818676322157800333E-16 ) ) ;
#742 = ADVANCED_FACE ( 'NONE', ( #1030 ), #1229, .T. ) ;
#743 = VERTEX_POINT ( 'NONE', #1023 ) ;
#744 = ADVANCED_FACE ( 'NONE', ( #1224 ), #248, .T. ) ;
#745 = DIRECTION ( 'NONE',  ( 0.000000000000000000, -1.000000000000000000, 0.000000000000000000 ) ) ;
#746 = DIRECTION ( 'NONE',  ( -1.000000000000000000, -0.000000000000000000, -0.000000000000000000 ) ) ;
#747 = CARTESIAN_POINT ( 'NONE',  ( 0.2750000001014996087, 0.6250000000000000000, 0.2416666666666667240 ) ) ;
#748 = EDGE_LOOP ( 'NONE', ( #895, #765, #1244, #639 ) ) ;
#749 = LINE ( 'NONE', #162, #109 ) ;
#750 = DIRECTION ( 'NONE',  ( 0.000000000000000000, 0.000000000000000000, -1.000000000000000000 ) ) ;
#751 = DIRECTION ( 'NONE',  ( 0.000000000000000000, -1.000000000000000000, 0.000000000000000000 ) ) ;
#752 = ORIENTED_EDGE ( 'NONE', *, *, #987, .T. ) ;
#753 = VECTOR ( 'NONE', #751, 1000.000000000000000 ) ;
#754 = AXIS2_PLACEMENT_3D ( 'NONE', #199, #99, #500 ) ;
#755 = CARTESIAN_POINT ( 'NONE',  ( -0.4999999999999997780, 0.02499999999999995628, 0.2500000000000001110 ) ) ;
#756 = CIRCLE ( 'NONE', #364, 0.02500000000000001180 ) ;
#757 = EDGE_CURVE ( 'NONE', #276, #2, #1008, .T. ) ;
#758 = CARTESIAN_POINT ( 'NONE',  ( -0.4999999999999997780, 0.6500000000000000222, 0.2250000000000000888 ) ) ;
#759 = DIRECTION ( 'NONE',  ( 0.000000000000000000, 1.000000000000000000, 0.000000000000000000 ) ) ;
#760 = ORIENTED_EDGE ( 'NONE', *, *, #689, .T. ) ;
#761 = SURFACE_SIDE_STYLE ('',( #367 ) ) ;
#762 = DIRECTION ( 'NONE',  ( 0.000000000000000000, 0.000000000000000000, 1.000000000000000000 ) ) ;
#763 = FACE_OUTER_BOUND ( 'NONE', #291, .T. ) ;
#764 = ADVANCED_FACE ( 'NONE', ( #36 ), #142, .T. ) ;
#765 = ORIENTED_EDGE ( 'NONE', *, *, #208, .T. ) ;
#766 = CARTESIAN_POINT ( 'NONE',  ( -0.4999999999999997780, 0.02499999999999995628, -0.2250000000000000056 ) ) ;
#767 = DIRECTION ( 'NONE',  ( -8.673617379884036705E-17, 0.000000000000000000, -1.000000000000000000 ) ) ;
#768 = CYLINDRICAL_SURFACE ( 'NONE', #1270, 0.02500000000000001180 ) ;
#769 = EDGE_LOOP ( 'NONE', ( #324, #752, #1253, #965 ) ) ;
#770 = ORIENTED_EDGE ( 'NONE', *, *, #124, .T. ) ;
#771 = AXIS2_PLACEMENT_3D ( 'NONE', #1073, #886, #195 ) ;
#772 = AXIS2_PLACEMENT_3D ( 'NONE', #103, #493, #975 ) ;
#773 = CARTESIAN_POINT ( 'NONE',  ( 0.4749999999999997558, 0.6500000000000000222, 0.2250000000000000888 ) ) ;
#774 = DIRECTION ( 'NONE',  ( 0.000000000000000000, 0.000000000000000000, 1.000000000000000000 ) ) ;
#775 = VECTOR ( 'NONE', #235, 1000.000000000000000 ) ;
#776 = DIRECTION ( 'NONE',  ( -0.000000000000000000, -0.000000000000000000, -1.000000000000000000 ) ) ;
#777 = ORIENTED_EDGE ( 'NONE', *, *, #206, .F. ) ;
#778 = VERTEX_POINT ( 'NONE', #1097 ) ;
#779 = ADVANCED_FACE ( 'NONE', ( #629 ), #717, .T. ) ;
#780 = DIRECTION ( 'NONE',  ( 1.000000000000000000, 0.000000000000000000, 0.000000000000000000 ) ) ;
#781 = DIRECTION ( 'NONE',  ( 0.000000000000000000, 0.000000000000000000, 1.000000000000000000 ) ) ;
#782 = CARTESIAN_POINT ( 'NONE',  ( -0.4749999999999997558, 0.6500000000000000222, 0.2250000000000000888 ) ) ;
#783 = LINE ( 'NONE', #1171, #546 ) ;
#784 = ORIENTED_EDGE ( 'NONE', *, *, #54, .T. ) ;
#785 = CARTESIAN_POINT ( 'NONE',  ( 0.4749999999999997558, 0.000000000000000000, 0.000000000000000000 ) ) ;
#786 = CARTESIAN_POINT ( 'NONE',  ( -0.2749999999999998557, 0.6250000000000000000, 0.2416666666666667518 ) ) ;
#787 = DIRECTION ( 'NONE',  ( 0.000000000000000000, -1.000000000000000000, 0.000000000000000000 ) ) ;
#788 = DIRECTION ( 'NONE',  ( 0.000000000000000000, 0.000000000000000000, 1.000000000000000000 ) ) ;
#789 = EDGE_LOOP ( 'NONE', ( #1004, #407, #1125, #903 ) ) ;
#790 = AXIS2_PLACEMENT_3D ( 'NONE', #360, #56, #140 ) ;
#791 = LINE ( 'NONE', #785, #565 ) ;
#792 = CARTESIAN_POINT ( 'NONE',  ( 0.4999999999999997780, 0.6500000000000000222, -0.2250000000000000056 ) ) ;
#793 = CIRCLE ( 'NONE', #586, 0.02500000000000001180 ) ;
#794 = VERTEX_POINT ( 'NONE', #532 ) ;
#795 = EDGE_CURVE ( 'NONE', #671, #2, #623, .T. ) ;
#796 = AXIS2_PLACEMENT_3D ( 'NONE', #871, #1089, #888 ) ;
#797 = CARTESIAN_POINT ( 'NONE',  ( 0.2749999999878127710, 0.008333333333333333218, 0.2249999998482118124 ) ) ;
#798 = LINE ( 'NONE', #804, #38 ) ;
#799 = DIRECTION ( 'NONE',  ( 0.000000000000000000, 0.000000000000000000, 1.000000000000000000 ) ) ;
#800 = EDGE_LOOP ( 'NONE', ( #562, #1221, #807 ) ) ;
#801 = CYLINDRICAL_SURFACE ( 'NONE', #1194, 0.02500000000000001180 ) ;
#802 = DIRECTION ( 'NONE',  ( 1.000000000000000000, 0.000000000000000000, 0.000000000000000000 ) ) ;
#803 = CARTESIAN_POINT ( 'NONE',  ( -0.4999999999999997780, 0.02499999999999995628, -0.2500000000000000000 ) ) ;
#804 = CARTESIAN_POINT ( 'NONE',  ( -0.4999999999999997780, 0.6500000000000000222, -0.2250000000000000056 ) ) ;
#805 = DIRECTION ( 'NONE',  ( -1.000000000000000000, -0.000000000000000000, 8.673617379884037937E-17 ) ) ;
#806 = DIRECTION ( 'NONE',  ( 0.000000000000000000, 0.000000000000000000, 1.000000000000000000 ) ) ;
#807 = ORIENTED_EDGE ( 'NONE', *, *, #1267, .F. ) ;
#808 = EDGE_CURVE ( 'NONE', #918, #653, #530, .T. ) ;
#809 = ORIENTED_EDGE ( 'NONE', *, *, #1141, .T. ) ;
#810 = EDGE_CURVE ( 'NONE', #332, #671, #726, .T. ) ;
#811 = LINE ( 'NONE', #713, #930 ) ;
#812 = CARTESIAN_POINT ( 'NONE',  ( -0.4749999999999997558, 0.6250000000000000000, -0.2250000000000000056 ) ) ;
#813 = CIRCLE ( 'NONE', #892, 0.02500000000000001180 ) ;
#814 = DIRECTION ( 'NONE',  ( 0.000000000000000000, 0.000000000000000000, -1.000000000000000000 ) ) ;
#815 = DIRECTION ( 'NONE',  ( 0.000000000000000000, 1.000000000000000000, -4.517509052022934731E-17 ) ) ;
#816 = AXIS2_PLACEMENT_3D ( 'NONE', #812, #202, #1095 ) ;
#817 = VECTOR ( 'NONE', #227, 1000.000000000000000 ) ;
#818 = STYLED_ITEM ( 'NONE', ( #1213 ), #1152 ) ;
#819 = ORIENTED_EDGE ( 'NONE', *, *, #4, .T. ) ;
#820 = DIRECTION ( 'NONE',  ( 1.000000000000000000, 0.000000000000000000, -8.673617379884036705E-17 ) ) ;
#821 = VERTEX_POINT ( 'NONE', #1114 ) ;
#822 = DIRECTION ( 'NONE',  ( 0.000000000000000000, 1.000000000000000000, 0.000000000000000000 ) ) ;
#823 = CARTESIAN_POINT ( 'NONE',  ( -0.4999999999999997780, 0.02499999999999995628, 0.2250000000000000888 ) ) ;
#824 = VERTEX_POINT ( 'NONE', #734 ) ;
#825 = DIRECTION ( 'NONE',  ( -9.795786256852397724E-33, -1.000000000000000000, 4.517509052022935347E-17 ) ) ;
#826 = DIRECTION ( 'NONE',  ( 0.000000000000000000, 0.000000000000000000, -1.000000000000000000 ) ) ;
#827 = CARTESIAN_POINT ( 'NONE',  ( 0.2749999999999999112, 0.6250000000000000000, -0.2499999999999998890 ) ) ;
#828 = VERTEX_POINT ( 'NONE', #1001 ) ;
#829 = VERTEX_POINT ( 'NONE', #1203 ) ;
#830 = VERTEX_POINT ( 'NONE', #117 ) ;
#831 = VECTOR ( 'NONE', #655, 1000.000000000000000 ) ;
#832 = LINE ( 'NONE', #547, #377 ) ;
#833 = FACE_OUTER_BOUND ( 'NONE', #160, .T. ) ;
#834 = DIRECTION ( 'NONE',  ( -1.000000000000000000, -0.000000000000000000, 8.673617379884037937E-17 ) ) ;
#835 = ADVANCED_FACE ( 'NONE', ( #1016 ), #442, .T. ) ;
#836 = EDGE_LOOP ( 'NONE', ( #101, #125, #544, #1034 ) ) ;
#837 = AXIS2_PLACEMENT_3D ( 'NONE', #555, #943, #363 ) ;
#838 = LINE ( 'NONE', #62, #1237 ) ;
#839 = CARTESIAN_POINT ( 'NONE',  ( -0.2749999999999998002, 0.02499999999999995628, 0.2500000000000001110 ) ) ;
#840 = ADVANCED_FACE ( 'NONE', ( #524 ), #163, .F. ) ;
#841 = ORIENTED_EDGE ( 'NONE', *, *, #845, .T. ) ;
#842 = FACE_OUTER_BOUND ( 'NONE', #366, .T. ) ;
#843 = DIRECTION ( 'NONE',  ( 0.000000000000000000, 0.000000000000000000, 1.000000000000000000 ) ) ;
#844 = ORIENTED_EDGE ( 'NONE', *, *, #104, .T. ) ;
#845 = EDGE_CURVE ( 'NONE', #138, #561, #668, .T. ) ;
#846 = LINE ( 'NONE', #1245, #507 ) ;
#847 =( LENGTH_UNIT ( ) NAMED_UNIT ( * ) SI_UNIT ( .MILLI., .METRE. ) );
#848 = EDGE_CURVE ( 'NONE', #72, #959, #1151, .T. ) ;
#849 = AXIS2_PLACEMENT_3D ( 'NONE', #905, #897, #20 ) ;
#850 = ORIENTED_EDGE ( 'NONE', *, *, #859, .F. ) ;
#851 = CIRCLE ( 'NONE', #380, 0.02500000000000001180 ) ;
#852 =( LENGTH_UNIT ( ) NAMED_UNIT ( * ) SI_UNIT ( .MILLI., .METRE. ) );
#853 = AXIS2_PLACEMENT_3D ( 'NONE', #518, #411, #425 ) ;
#854 = PLANE ( 'NONE',  #284 ) ;
#855 = EDGE_CURVE ( 'NONE', #145, #376, #838, .T. ) ;
#856 = ORIENTED_EDGE ( 'NONE', *, *, #1078, .T. ) ;
#857 = DIRECTION ( 'NONE',  ( 1.000000000000000000, 0.000000000000000000, 0.000000000000000000 ) ) ;
#858 = DIRECTION ( 'NONE',  ( 0.000000000000000000, 0.000000000000000000, 1.000000000000000000 ) ) ;
#859 = EDGE_CURVE ( 'NONE', #239, #587, #158, .T. ) ;
#860 = ORIENTED_EDGE ( 'NONE', *, *, #1113, .T. ) ;
#861 = EDGE_LOOP ( 'NONE', ( #1211, #656, #342, #619 ) ) ;
#862 = CARTESIAN_POINT ( 'NONE',  ( 0.4749999999999997558, 0.02500000000000000139, 0.2250000000000000888 ) ) ;
#863 = CARTESIAN_POINT ( 'NONE',  ( -0.2749999999999999112, 0.6250000000000000000, -0.2249999999999998945 ) ) ;
#864 = DIRECTION ( 'NONE',  ( 0.000000000000000000, -1.000000000000000000, 0.000000000000000000 ) ) ;
#865 = ADVANCED_FACE ( 'NONE', ( #842 ), #368, .T. ) ;
#866 =( GEOMETRIC_REPRESENTATION_CONTEXT ( 3 ) GLOBAL_UNCERTAINTY_ASSIGNED_CONTEXT ( ( #1239 ) ) GLOBAL_UNIT_ASSIGNED_CONTEXT ( ( #947, #66, #46 ) ) REPRESENTATION_CONTEXT ( 'NONE', 'WORKASPACE' ) );
#867 = ORIENTED_EDGE ( 'NONE', *, *, #626, .F. ) ;
#868 = DIRECTION ( 'NONE',  ( 0.000000000000000000, 0.000000000000000000, -1.000000000000000000 ) ) ;
#869 = EDGE_CURVE ( 'NONE', #239, #1118, #846, .T. ) ;
#870 = CIRCLE ( 'NONE', #1126, 0.02500000000000001180 ) ;
#871 = CARTESIAN_POINT ( 'NONE',  ( 0.4999999999999997780, 0.02499999999999995628, 0.2250000000000000888 ) ) ;
#872 = VECTOR ( 'NONE', #873, 1000.000000000000000 ) ;
#873 = DIRECTION ( 'NONE',  ( 1.000000000000000000, 0.000000000000000000, -4.818676322157800333E-16 ) ) ;
#874 = AXIS2_PLACEMENT_3D ( 'NONE', #724, #120, #708 ) ;
#875 = DIRECTION ( 'NONE',  ( 0.000000000000000000, -1.000000000000000000, 0.000000000000000000 ) ) ;
#876 = DIRECTION ( 'NONE',  ( 0.000000000000000000, 0.000000000000000000, 1.000000000000000000 ) ) ;
#877 = CARTESIAN_POINT ( 'NONE',  ( -0.4749999999999997558, 0.6250000000000000000, 0.2250000000000000888 ) ) ;
#878 = DIRECTION ( 'NONE',  ( -1.000000000000000000, -0.000000000000000000, -0.000000000000000000 ) ) ;
#879 = CARTESIAN_POINT ( 'NONE',  ( 0.4999999999999997780, 0.6500000000000000222, 0.2250000000000000888 ) ) ;
#880 = ORIENTED_EDGE ( 'NONE', *, *, #1101, .F. ) ;
#881 = ORIENTED_EDGE ( 'NONE', *, *, #925, .T. ) ;
#882 = DIRECTION ( 'NONE',  ( 0.000000000000000000, 1.000000000000000000, -0.000000000000000000 ) ) ;
#883 = EDGE_CURVE ( 'NONE', #276, #514, #701, .T. ) ;
#884 = CARTESIAN_POINT ( 'NONE',  ( -0.4749999999999997558, 0.000000000000000000, 0.000000000000000000 ) ) ;
#885 = CYLINDRICAL_SURFACE ( 'NONE', #345, 0.01666666666666667337 ) ;
#886 = DIRECTION ( 'NONE',  ( -1.000000000000000000, 0.000000000000000000, 0.000000000000000000 ) ) ;
#887 = VERTEX_POINT ( 'NONE', #663 ) ;
#888 = DIRECTION ( 'NONE',  ( 0.000000000000000000, 0.000000000000000000, -1.000000000000000000 ) ) ;
#889 = CARTESIAN_POINT ( 'NONE',  ( 0.4749999999999997558, 0.6500000000000000222, 0.2500000000000001110 ) ) ;
#890 = CARTESIAN_POINT ( 'NONE',  ( -0.4749999999999997558, 0.6250000000000000000, -0.2250000000000000056 ) ) ;
#891 = UNCERTAINTY_MEASURE_WITH_UNIT (LENGTH_MEASURE( 1.000000000000000082E-05 ), #847, 'distance_accuracy_value', 'NONE');
#892 = AXIS2_PLACEMENT_3D ( 'NONE', #1225, #1127, #932 ) ;
#893 = MECHANICAL_DESIGN_GEOMETRIC_PRESENTATION_REPRESENTATION (  '', ( #34 ), #362 ) ;
#894 = CARTESIAN_POINT ( 'NONE',  ( -0.2749999999999998557, 0.008333333333333310666, 0.2250000000000000888 ) ) ;
#895 = ORIENTED_EDGE ( 'NONE', *, *, #340, .F. ) ;
#896 = DIRECTION ( 'NONE',  ( 0.000000000000000000, 0.000000000000000000, 1.000000000000000000 ) ) ;
#897 = DIRECTION ( 'NONE',  ( 0.000000000000000000, -1.000000000000000000, 0.000000000000000000 ) ) ;
#898 = DIRECTION ( 'NONE',  ( 0.000000000000000000, -1.000000000000000000, 0.000000000000000000 ) ) ;
#899 = ORIENTED_EDGE ( 'NONE', *, *, #130, .F. ) ;
#900 = EDGE_CURVE ( 'NONE', #1074, #718, #1168, .T. ) ;
#901 = ORIENTED_EDGE ( 'NONE', *, *, #900, .T. ) ;
#902 = ADVANCED_FACE ( 'NONE', ( #1054 ), #559, .F. ) ;
#903 = ORIENTED_EDGE ( 'NONE', *, *, #689, .F. ) ;
#904 = ADVANCED_FACE ( 'NONE', ( #172 ), #658, .F. ) ;
#905 = CARTESIAN_POINT ( 'NONE',  ( -0.4749999999999997558, 0.6500000000000000222, -0.2250000000000000056 ) ) ;
#906 = CARTESIAN_POINT ( 'NONE',  ( 0.2749999999878127710, 0.6250000000000000000, -0.2249999999999999500 ) ) ;
#907 = CARTESIAN_POINT ( 'NONE',  ( 500000.0000000000582, 0.008333333333333333218, -0.2250000000433680092 ) ) ;
#908 = ORIENTED_EDGE ( 'NONE', *, *, #452, .T. ) ;
#909 = ORIENTED_EDGE ( 'NONE', *, *, #855, .F. ) ;
#910 = ORIENTED_EDGE ( 'NONE', *, *, #210, .T. ) ;
#911 = VERTEX_POINT ( 'NONE', #1049 ) ;
#912 = DIRECTION ( 'NONE',  ( -1.000000000000000000, 0.000000000000000000, -0.000000000000000000 ) ) ;
#913 = DIRECTION ( 'NONE',  ( -1.000000000000000000, 0.000000000000000000, 0.000000000000000000 ) ) ;
#914 = DIRECTION ( 'NONE',  ( 0.000000000000000000, 0.000000000000000000, 1.000000000000000000 ) ) ;
#915 = ORIENTED_EDGE ( 'NONE', *, *, #1267, .T. ) ;
#916 = CIRCLE ( 'NONE', #176, 0.02500000000000001180 ) ;
#917 =( GEOMETRIC_REPRESENTATION_CONTEXT ( 3 ) GLOBAL_UNCERTAINTY_ASSIGNED_CONTEXT ( ( #1104 ) ) GLOBAL_UNIT_ASSIGNED_CONTEXT ( ( #13, #501, #327 ) ) REPRESENTATION_CONTEXT ( 'NONE', 'WORKASPACE' ) );
#918 = VERTEX_POINT ( 'NONE', #549 ) ;
#919 = DIRECTION ( 'NONE',  ( -0.000000000000000000, -0.000000000000000000, -1.000000000000000000 ) ) ;
#920 = UNCERTAINTY_MEASURE_WITH_UNIT (LENGTH_MEASURE( 1.000000000000000082E-05 ), #1112, 'distance_accuracy_value', 'NONE');
#921 = CARTESIAN_POINT ( 'NONE',  ( -0.4749999999999997558, 0.02500000000000000139, 0.2250000000000000888 ) ) ;
#922 = DIRECTION ( 'NONE',  ( -1.000000000000000000, 0.000000000000000000, 0.000000000000000000 ) ) ;
#923 = ORIENTED_EDGE ( 'NONE', *, *, #210, .F. ) ;
#924 = ORIENTED_EDGE ( 'NONE', *, *, #149, .F. ) ;
#925 = EDGE_CURVE ( 'NONE', #1069, #959, #935, .T. ) ;
#926 = CARTESIAN_POINT ( 'NONE',  ( -0.2749999999999998557, 0.02499999999999995628, -0.2416666666666665020 ) ) ;
#927 = FACE_OUTER_BOUND ( 'NONE', #1044, .T. ) ;
#928 = DIRECTION ( 'NONE',  ( 0.000000000000000000, 0.000000000000000000, 1.000000000000000000 ) ) ;
#929 = EDGE_LOOP ( 'NONE', ( #234, #371, #272 ) ) ;
#930 = VECTOR ( 'NONE', #422, 1000.000000000000000 ) ;
#931 = DIRECTION ( 'NONE',  ( -1.000000000000000000, 0.000000000000000000, 0.000000000000000000 ) ) ;
#932 = DIRECTION ( 'NONE',  ( 0.000000000000000000, 0.000000000000000000, 1.000000000000000000 ) ) ;
#933 = VECTOR ( 'NONE', #815, 1000.000000000000000 ) ;
#934 = AXIS2_PLACEMENT_3D ( 'NONE', #1214, #96, #127 ) ;
#935 = CIRCLE ( 'NONE', #384, 0.02500000000000001180 ) ;
#936 = EDGE_LOOP ( 'NONE', ( #1027, #129, #244, #424 ) ) ;
#937 = DIRECTION ( 'NONE',  ( 9.795786256852397724E-33, 1.000000000000000000, -4.517509052022935347E-17 ) ) ;
#938 = DIRECTION ( 'NONE',  ( 0.000000000000000000, 0.000000000000000000, -1.000000000000000000 ) ) ;
#939 = DIRECTION ( 'NONE',  ( 0.000000000000000000, 0.000000000000000000, 1.000000000000000000 ) ) ;
#940 = EDGE_CURVE ( 'NONE', #828, #332, #1252, .T. ) ;
#941 = ORIENTED_EDGE ( 'NONE', *, *, #579, .T. ) ;
#942 = CARTESIAN_POINT ( 'NONE',  ( -0.4999999999999997780, 0.6500000000000000222, -0.2250000000000000056 ) ) ;
#943 = DIRECTION ( 'NONE',  ( 0.000000000000000000, 1.000000000000000000, 0.000000000000000000 ) ) ;
#944 = FACE_OUTER_BOUND ( 'NONE', #385, .T. ) ;
#945 = EDGE_LOOP ( 'NONE', ( #880, #553, #7, #190 ) ) ;
#946 = ADVANCED_FACE ( 'NONE', ( #566 ), #1133, .T. ) ;
#947 =( LENGTH_UNIT ( ) NAMED_UNIT ( * ) SI_UNIT ( .MILLI., .METRE. ) );
#948 = CARTESIAN_POINT ( 'NONE',  ( 0.4749999999999997558, 0.02500000000000000139, -0.2250000000000000056 ) ) ;
#949 = CARTESIAN_POINT ( 'NONE',  ( 0.4749999999999997558, 0.000000000000000000, 0.2250000000000000888 ) ) ;
#950 = AXIS2_PLACEMENT_3D ( 'NONE', #1103, #919, #730 ) ;
#951 = VERTEX_POINT ( 'NONE', #1248 ) ;
#952 = AXIS2_PLACEMENT_3D ( 'NONE', #560, #275, #767 ) ;
#953 = ORIENTED_EDGE ( 'NONE', *, *, #795, .F. ) ;
#954 = CIRCLE ( 'NONE', #1251, 0.02500000000000001180 ) ;
#955 = AXIS2_PLACEMENT_3D ( 'NONE', #704, #397, #788 ) ;
#956 = DIRECTION ( 'NONE',  ( -1.000000000000000000, 0.000000000000000000, -0.000000000000000000 ) ) ;
#957 = DIRECTION ( 'NONE',  ( 0.000000000000000000, 0.000000000000000000, -1.000000000000000000 ) ) ;
#958 = ADVANCED_FACE ( 'NONE', ( #833 ), #854, .T. ) ;
#959 = VERTEX_POINT ( 'NONE', #773 ) ;
#960 = EDGE_LOOP ( 'NONE', ( #860, #183, #909, #611 ) ) ;
#961 = ADVANCED_FACE ( 'NONE', ( #1274 ), #178, .F. ) ;
#962 = DIRECTION ( 'NONE',  ( 1.000000000000000000, -0.000000000000000000, -0.000000000000000000 ) ) ;
#963 = SURFACE_STYLE_FILL_AREA ( #572 ) ;
#964 = CARTESIAN_POINT ( 'NONE',  ( 0.4749999999999997558, 0.6250000000000000000, 0.2250000000000000888 ) ) ;
#965 = ORIENTED_EDGE ( 'NONE', *, *, #667, .T. ) ;
#966 = PLANE ( 'NONE',  #47 ) ;
#967 = CARTESIAN_POINT ( 'NONE',  ( 500000.0000000000582, 0.6416666666666667185, -0.2250000000433680092 ) ) ;
#968 = CARTESIAN_POINT ( 'NONE',  ( -0.4999999999999997780, 0.6500000000000000222, -0.2500000000000000000 ) ) ;
#969 = DIRECTION ( 'NONE',  ( 1.000000000000000000, 0.000000000000000000, 0.000000000000000000 ) ) ;
#970 = CYLINDRICAL_SURFACE ( 'NONE', #484, 0.02499999999999998404 ) ;
#971 = VECTOR ( 'NONE', #745, 1000.000000000000000 ) ;
#972 = ORIENTED_EDGE ( 'NONE', *, *, #206, .T. ) ;
#973 = ORIENTED_EDGE ( 'NONE', *, *, #394, .T. ) ;
#974 = CLOSED_SHELL ( 'NONE', ( #1068, #412, #840, #551, #764, #706, #287, #601, #489, #647, #341, #211, #250, #146, #418, #65, #835, #744 ) ) ;
#975 = DIRECTION ( 'NONE',  ( 0.000000000000000000, 0.000000000000000000, -1.000000000000000000 ) ) ;
#976 = AXIS2_PLACEMENT_3D ( 'NONE', #1093, #308, #780 ) ;
#977 = AXIS2_PLACEMENT_3D ( 'NONE', #536, #22, #914 ) ;
#978 = LINE ( 'NONE', #592, #35 ) ;
#979 = PLANE ( 'NONE',  #934 ) ;
#980 = MECHANICAL_DESIGN_GEOMETRIC_PRESENTATION_REPRESENTATION (  '', ( #818 ), #917 ) ;
#981 = DIRECTION ( 'NONE',  ( 1.000000000000000000, 0.000000000000000000, -8.673617379884037937E-17 ) ) ;
#982 = EDGE_CURVE ( 'NONE', #596, #72, #696, .T. ) ;
#983 = EDGE_LOOP ( 'NONE', ( #844, #1051, #420, #151 ) ) ;
#984 = ORIENTED_EDGE ( 'NONE', *, *, #204, .T. ) ;
#985 = ADVANCED_FACE ( 'NONE', ( #187 ), #1263, .T. ) ;
#986 = DIRECTION ( 'NONE',  ( 0.000000000000000000, 0.000000000000000000, 1.000000000000000000 ) ) ;
#987 = EDGE_CURVE ( 'NONE', #722, #285, #309, .T. ) ;
#988 = DIRECTION ( 'NONE',  ( 1.000000000000000000, -0.000000000000000000, 4.818676322157800333E-16 ) ) ;
#989 = CARTESIAN_POINT ( 'NONE',  ( 0.4999999999999997780, 0.6250000000000000000, 0.2500000000000001110 ) ) ;
#990 = VERTEX_POINT ( 'NONE', #1176 ) ;
#991 = LINE ( 'NONE', #102, #569 ) ;
#992 = DIRECTION ( 'NONE',  ( 1.000000000000000000, 0.000000000000000000, 2.168404344971009115E-16 ) ) ;
#993 = DIRECTION ( 'NONE',  ( -0.000000000000000000, -1.000000000000000000, -0.000000000000000000 ) ) ;
#994 = SURFACE_STYLE_USAGE ( .BOTH. , #213 ) ;
#995 = LINE ( 'NONE', #79, #53 ) ;
#996 = CARTESIAN_POINT ( 'NONE',  ( 0.2749999999999998002, 0.02499999999999995628, 0.2500000000000001110 ) ) ;
#997 = FACE_OUTER_BOUND ( 'NONE', #574, .T. ) ;
#998 =( NAMED_UNIT ( * ) PLANE_ANGLE_UNIT ( ) SI_UNIT ( $, .RADIAN. ) );
#999 = VECTOR ( 'NONE', #687, 1000.000000000000000 ) ;
#1000 = VECTOR ( 'NONE', #725, 1000.000000000000000 ) ;
#1001 = CARTESIAN_POINT ( 'NONE',  ( 0.2750000001014996087, 0.02499999999999995628, 0.2416666666666667240 ) ) ;
#1002 = ORIENTED_EDGE ( 'NONE', *, *, #808, .T. ) ;
#1003 = AXIS2_PLACEMENT_3D ( 'NONE', #968, #389, #703 ) ;
#1004 = ORIENTED_EDGE ( 'NONE', *, *, #204, .F. ) ;
#1005 = ORIENTED_EDGE ( 'NONE', *, *, #1155, .F. ) ;
#1006 = CARTESIAN_POINT ( 'NONE',  ( -0.4999999999999997780, 0.6500000000000000222, 0.2500000000000001110 ) ) ;
#1007 = EDGE_CURVE ( 'NONE', #285, #743, #1106, .T. ) ;
#1008 = LINE ( 'NONE', #907, #817 ) ;
#1009 = CARTESIAN_POINT ( 'NONE',  ( -0.4999999999999997780, 0.6500000000000000222, -0.2500000000000000000 ) ) ;
#1010 = ORIENTED_EDGE ( 'NONE', *, *, #1155, .T. ) ;
#1011 = ORIENTED_EDGE ( 'NONE', *, *, #527, .T. ) ;
#1012 = EDGE_LOOP ( 'NONE', ( #850, #784, #924 ) ) ;
#1013 = FILL_AREA_STYLE ('',( #33 ) ) ;
#1014 = CARTESIAN_POINT ( 'NONE',  ( -0.4749999999999997558, 0.02500000000000000139, -0.2250000000000000056 ) ) ;
#1015 = ORIENTED_EDGE ( 'NONE', *, *, #1178, .F. ) ;
#1016 = FACE_OUTER_BOUND ( 'NONE', #1012, .T. ) ;
#1017 = ORIENTED_EDGE ( 'NONE', *, *, #88, .F. ) ;
#1018 = ORIENTED_EDGE ( 'NONE', *, *, #166, .T. ) ;
#1019 = ORIENTED_EDGE ( 'NONE', *, *, #810, .T. ) ;
#1020 =( GEOMETRIC_REPRESENTATION_CONTEXT ( 3 ) GLOBAL_UNCERTAINTY_ASSIGNED_CONTEXT ( ( #147 ) ) GLOBAL_UNIT_ASSIGNED_CONTEXT ( ( #852, #636, #558 ) ) REPRESENTATION_CONTEXT ( 'NONE', 'WORKASPACE' ) );
#1021 = SURFACE_STYLE_FILL_AREA ( #1013 ) ;
#1022 = VECTOR ( 'NONE', #323, 1000.000000000000000 ) ;
#1023 = CARTESIAN_POINT ( 'NONE',  ( 0.4749999999999997558, 0.02499999999999995628, 0.2500000000000001110 ) ) ;
#1024 = CARTESIAN_POINT ( 'NONE',  ( -0.2749999999999998557, 0.6416666666666667185, -0.2249999999999998945 ) ) ;
#1025 = AXIS2_PLACEMENT_3D ( 'NONE', #890, #593, #585 ) ;
#1026 = EDGE_CURVE ( 'NONE', #72, #1118, #198, .T. ) ;
#1027 = ORIENTED_EDGE ( 'NONE', *, *, #1178, .T. ) ;
#1028 = ORIENTED_EDGE ( 'NONE', *, *, #552, .T. ) ;
#1029 = ADVANCED_FACE ( 'NONE', ( #378 ), #1195, .T. ) ;
#1030 = FACE_OUTER_BOUND ( 'NONE', #711, .T. ) ;
#1031 = CARTESIAN_POINT ( 'NONE',  ( -0.4749999999999997558, 0.02499999999999995628, -0.2250000000000000056 ) ) ;
#1032 = EDGE_LOOP ( 'NONE', ( #770, #582, #398, #1258 ) ) ;
#1033 = CARTESIAN_POINT ( 'NONE',  ( 0.4999999999999997780, 0.6500000000000000222, -0.2250000000000000056 ) ) ;
#1034 = ORIENTED_EDGE ( 'NONE', *, *, #208, .F. ) ;
#1035 = CARTESIAN_POINT ( 'NONE',  ( 0.2749999999878127710, 0.02499999999999995628, 0.2250000000000000611 ) ) ;
#1036 = CARTESIAN_POINT ( 'NONE',  ( -0.2749999999999999112, 0.6500000000000000222, -0.2499999999999998890 ) ) ;
#1037 = ORIENTED_EDGE ( 'NONE', *, *, #180, .F. ) ;
#1038 = VERTEX_POINT ( 'NONE', #395 ) ;
#1039 = CIRCLE ( 'NONE', #672, 0.01666666666666667337 ) ;
#1040 = LINE ( 'NONE', #1033, #831 ) ;
#1041 = EDGE_CURVE ( 'NONE', #145, #918, #978, .T. ) ;
#1042 = DIRECTION ( 'NONE',  ( -0.000000000000000000, 1.000000000000000000, -0.000000000000000000 ) ) ;
#1043 = LINE ( 'NONE', #37, #344 ) ;
#1044 = EDGE_LOOP ( 'NONE', ( #670, #1131, #472, #1196 ) ) ;
#1045 = AXIS2_PLACEMENT_3D ( 'NONE', #862, #372, #295 ) ;
#1046 = ORIENTED_EDGE ( 'NONE', *, *, #357, .F. ) ;
#1047 = VECTOR ( 'NONE', #1207, 1000.000000000000000 ) ;
#1048 = APPLICATION_PROTOCOL_DEFINITION ( 'draft international standard', 'automotive_design', 1998, #171 ) ;
#1049 = CARTESIAN_POINT ( 'NONE',  ( -0.2749999999999998557, 0.6250000000000000000, -0.2416666666666665575 ) ) ;
#1050 = LINE ( 'NONE', #143, #505 ) ;
#1051 = ORIENTED_EDGE ( 'NONE', *, *, #439, .F. ) ;
#1052 = ORIENTED_EDGE ( 'NONE', *, *, #419, .F. ) ;
#1053 = DIRECTION ( 'NONE',  ( -1.000000000000000000, -0.000000000000000000, 4.818676322157800333E-16 ) ) ;
#1054 = FACE_OUTER_BOUND ( 'NONE', #219, .T. ) ;
#1055 = PLANE ( 'NONE',  #952 ) ;
#1056 = EDGE_CURVE ( 'NONE', #618, #376, #73, .T. ) ;
#1057 = ORIENTED_EDGE ( 'NONE', *, *, #4, .F. ) ;
#1058 = DIRECTION ( 'NONE',  ( 0.000000000000000000, 0.000000000000000000, 1.000000000000000000 ) ) ;
#1059 = DIRECTION ( 'NONE',  ( -0.000000000000000000, 0.000000000000000000, 1.000000000000000000 ) ) ;
#1060 = EDGE_LOOP ( 'NONE', ( #85, #167, #170 ) ) ;
#1061 = AXIS2_PLACEMENT_3D ( 'NONE', #1031, #58, #659 ) ;
#1062 = EDGE_CURVE ( 'NONE', #911, #1080, #247, .T. ) ;
#1063 = AXIS2_PLACEMENT_3D ( 'NONE', #583, #1075, #707 ) ;
#1064 = AXIS2_PLACEMENT_3D ( 'NONE', #338, #218, #136 ) ;
#1065 = LINE ( 'NONE', #302, #1109 ) ;
#1066 = FACE_OUTER_BOUND ( 'NONE', #203, .T. ) ;
#1067 = FACE_OUTER_BOUND ( 'NONE', #55, .T. ) ;
#1068 = ADVANCED_FACE ( 'NONE', ( #100 ), #1076, .F. ) ;
#1069 = VERTEX_POINT ( 'NONE', #1161 ) ;
#1070 = VERTEX_POINT ( 'NONE', #280 ) ;
#1071 = DIRECTION ( 'NONE',  ( -1.000000000000000000, 0.000000000000000000, 0.000000000000000000 ) ) ;
#1072 = DIRECTION ( 'NONE',  ( 1.000000000000000000, 0.000000000000000000, 0.000000000000000000 ) ) ;
#1073 = CARTESIAN_POINT ( 'NONE',  ( 0.000000000000000000, 0.6250000000000000000, 0.2250000000000000888 ) ) ;
#1074 = VERTEX_POINT ( 'NONE', #95 ) ;
#1075 = DIRECTION ( 'NONE',  ( 4.818676322157800333E-16, 0.000000000000000000, 1.000000000000000000 ) ) ;
#1076 = PLANE ( 'NONE',  #486 ) ;
#1077 = CARTESIAN_POINT ( 'NONE',  ( 0.2750000001014996087, 0.008333333333333333218, -0.2249999999999999500 ) ) ;
#1078 = EDGE_CURVE ( 'NONE', #679, #829, #494, .T. ) ;
#1079 = CARTESIAN_POINT ( 'NONE',  ( 0.4749999999999997558, 0.000000000000000000, -0.2250000000000000056 ) ) ;
#1080 = VERTEX_POINT ( 'NONE', #1184 ) ;
#1081 = CIRCLE ( 'NONE', #264, 0.02500000000000001180 ) ;
#1082 = LINE ( 'NONE', #1205, #266 ) ;
#1083 = PRESENTATION_LAYER_ASSIGNMENT (  '', '', ( #9 ) ) ;
#1084 = AXIS2_PLACEMENT_3D ( 'NONE', #274, #1138, #277 ) ;
#1085 = CARTESIAN_POINT ( 'NONE',  ( -0.4749999999999997558, 0.02499999999999995628, -0.2500000000000000000 ) ) ;
#1086 =( NAMED_UNIT ( * ) SI_UNIT ( $, .STERADIAN. ) SOLID_ANGLE_UNIT ( ) );
#1087 = CYLINDRICAL_SURFACE ( 'NONE', #771, 0.02500000000000001180 ) ;
#1088 = ORIENTED_EDGE ( 'NONE', *, *, #1204, .T. ) ;
#1089 = DIRECTION ( 'NONE',  ( -1.000000000000000000, 0.000000000000000000, 0.000000000000000000 ) ) ;
#1090 = DIRECTION ( 'NONE',  ( 0.000000000000000000, 0.000000000000000000, 1.000000000000000000 ) ) ;
#1091 = DIRECTION ( 'NONE',  ( 0.000000000000000000, 0.000000000000000000, -1.000000000000000000 ) ) ;
#1092 = DIRECTION ( 'NONE',  ( 0.000000000000000000, 0.000000000000000000, -1.000000000000000000 ) ) ;
#1093 = CARTESIAN_POINT ( 'NONE',  ( 0.4999999999999997780, 0.6500000000000000222, 0.2500000000000001110 ) ) ;
#1094 = EDGE_CURVE ( 'NONE', #718, #239, #1065, .T. ) ;
#1095 = DIRECTION ( 'NONE',  ( -1.000000000000000000, 0.000000000000000000, 0.000000000000000000 ) ) ;
#1096 = ORIENTED_EDGE ( 'NONE', *, *, #512, .F. ) ;
#1097 = CARTESIAN_POINT ( 'NONE',  ( -0.4749999999999997558, 0.6500000000000000222, 0.2250000000000000888 ) ) ;
#1098 = ORIENTED_EDGE ( 'NONE', *, *, #1279, .F. ) ;
#1099 = STYLED_ITEM ( 'NONE', ( #263 ), #576 ) ;
#1100 = ORIENTED_EDGE ( 'NONE', *, *, #665, .F. ) ;
#1101 = EDGE_CURVE ( 'NONE', #1115, #718, #571, .T. ) ;
#1102 = CIRCLE ( 'NONE', #1061, 0.02500000000000001180 ) ;
#1103 = CARTESIAN_POINT ( 'NONE',  ( -0.4749999999999997558, 0.02499999999999995628, 0.2250000000000000888 ) ) ;
#1104 = UNCERTAINTY_MEASURE_WITH_UNIT (LENGTH_MEASURE( 1.000000000000000082E-05 ), #13, 'distance_accuracy_value', 'NONE');
#1105 = CIRCLE ( 'NONE', #197, 0.01666666666666667337 ) ;
#1106 = CIRCLE ( 'NONE', #1045, 0.02500000000000001180 ) ;
#1107 = DIRECTION ( 'NONE',  ( 1.000000000000000000, -0.000000000000000000, 0.000000000000000000 ) ) ;
#1108 = EDGE_LOOP ( 'NONE', ( #819, #279, #126, #841 ) ) ;
#1109 = VECTOR ( 'NONE', #675, 1000.000000000000000 ) ;
#1110 = ORIENTED_EDGE ( 'NONE', *, *, #940, .F. ) ;
#1111 = SURFACE_SIDE_STYLE ('',( #1021 ) ) ;
#1112 =( LENGTH_UNIT ( ) NAMED_UNIT ( * ) SI_UNIT ( .MILLI., .METRE. ) );
#1113 = EDGE_CURVE ( 'NONE', #918, #618, #201, .T. ) ;
#1114 = CARTESIAN_POINT ( 'NONE',  ( 0.2750000001014996087, 0.6416666666666667185, -0.2249999999999999500 ) ) ;
#1115 = VERTEX_POINT ( 'NONE', #401 ) ;
#1116 = PRODUCT ( 'C1005JB0G475K050BB', 'C1005JB0G475K050BB', '', ( #467 ) ) ;
#1117 = VERTEX_POINT ( 'NONE', #683 ) ;
#1118 = VERTEX_POINT ( 'NONE', #216 ) ;
#1119 = DIRECTION ( 'NONE',  ( 0.000000000000000000, 0.000000000000000000, -1.000000000000000000 ) ) ;
#1120 = ORIENTED_EDGE ( 'NONE', *, *, #271, .T. ) ;
#1121 = DIRECTION ( 'NONE',  ( -1.000000000000000000, 0.000000000000000000, 0.000000000000000000 ) ) ;
#1122 = EDGE_CURVE ( 'NONE', #1069, #743, #314, .T. ) ;
#1123 = ORIENTED_EDGE ( 'NONE', *, *, #87, .F. ) ;
#1124 = EDGE_CURVE ( 'NONE', #1070, #959, #1220, .T. ) ;
#1125 = ORIENTED_EDGE ( 'NONE', *, *, #660, .F. ) ;
#1126 = AXIS2_PLACEMENT_3D ( 'NONE', #541, #352, #843 ) ;
#1127 = DIRECTION ( 'NONE',  ( 1.000000000000000000, -0.000000000000000000, -2.168404344971009115E-16 ) ) ;
#1128 = AXIS2_PLACEMENT_3D ( 'NONE', #495, #14, #410 ) ;
#1129 = VECTOR ( 'NONE', #826, 1000.000000000000000 ) ;
#1130 = EDGE_CURVE ( 'NONE', #349, #139, #225, .T. ) ;
#1131 = ORIENTED_EDGE ( 'NONE', *, *, #1277, .F. ) ;
#1132 = FILL_AREA_STYLE_COLOUR ( '', #444 ) ;
#1133 = SPHERICAL_SURFACE ( 'NONE', #837, 0.02500000000000000139 ) ;
#1134 = CARTESIAN_POINT ( 'NONE',  ( 0.4749999999999997558, 0.02499999999999995628, 0.2250000000000000888 ) ) ;
#1135 = ORIENTED_EDGE ( 'NONE', *, *, #304, .F. ) ;
#1136 = ORIENTED_EDGE ( 'NONE', *, *, #900, .F. ) ;
#1137 = ADVANCED_FACE ( 'NONE', ( #997 ), #612, .F. ) ;
#1138 = DIRECTION ( 'NONE',  ( 0.000000000000000000, 1.000000000000000000, 0.000000000000000000 ) ) ;
#1139 = CARTESIAN_POINT ( 'NONE',  ( -0.2749999999999999112, 0.02499999999999995628, -0.2249999999999998945 ) ) ;
#1140 = EDGE_LOOP ( 'NONE', ( #1018, #1227, #661, #1247 ) ) ;
#1141 = EDGE_CURVE ( 'NONE', #98, #828, #509, .T. ) ;
#1142 = PRODUCT_DEFINITION ( 'UNKNOWN', '', #153, #258 ) ;
#1143 = DIRECTION ( 'NONE',  ( 0.000000000000000000, 0.000000000000000000, 1.000000000000000000 ) ) ;
#1144 = CARTESIAN_POINT ( 'NONE',  ( -0.2749999999999998002, 0.6250000000000000000, 0.2250000000000000888 ) ) ;
#1145 = VECTOR ( 'NONE', #537, 1000.000000000000000 ) ;
#1146 = ADVANCED_FACE ( 'NONE', ( #1228 ), #414, .F. ) ;
#1147 = VECTOR ( 'NONE', #192, 1000.000000000000000 ) ;
#1148 = AXIS2_PLACEMENT_3D ( 'NONE', #41, #822, #806 ) ;
#1149 = ORIENTED_EDGE ( 'NONE', *, *, #31, .T. ) ;
#1150 = LINE ( 'NONE', #942, #971 ) ;
#1151 = LINE ( 'NONE', #1154, #346 ) ;
#1152 = MANIFOLD_SOLID_BREP ( 'Mirror2', #974 ) ;
#1153 = ORIENTED_EDGE ( 'NONE', *, *, #795, .T. ) ;
#1154 = CARTESIAN_POINT ( 'NONE',  ( 0.4749999999999997558, 0.6500000000000000222, 0.2500000000000001110 ) ) ;
#1155 = EDGE_CURVE ( 'NONE', #256, #453, #798, .T. ) ;
#1156 = ADVANCED_FACE ( 'NONE', ( #1201 ), #522, .T. ) ;
#1157 = ORIENTED_EDGE ( 'NONE', *, *, #374, .F. ) ;
#1158 = EDGE_CURVE ( 'NONE', #829, #671, #200, .T. ) ;
#1159 = EDGE_CURVE ( 'NONE', #497, #256, #811, .T. ) ;
#1160 = PRESENTATION_LAYER_ASSIGNMENT (  '', '', ( #1099 ) ) ;
#1161 = CARTESIAN_POINT ( 'NONE',  ( 0.4749999999999997558, 0.6250000000000000000, 0.2500000000000001110 ) ) ;
#1162 = CYLINDRICAL_SURFACE ( 'NONE', #736, 0.02500000000000001180 ) ;
#1163 = CARTESIAN_POINT ( 'NONE',  ( 0.4749999999999997558, 0.6500000000000000222, 0.2250000000000000888 ) ) ;
#1164 = VECTOR ( 'NONE', #834, 1000.000000000000000 ) ;
#1165 = CARTESIAN_POINT ( 'NONE',  ( -0.2749999999999998557, 0.008333333333333333218, -0.2249999999999998945 ) ) ;
#1166 = AXIS2_PLACEMENT_3D ( 'NONE', #44, #443, #1121 ) ;
#1167 = COLOUR_RGB ( '',0.4862745098039215619, 0.2352941176470588203, 0.01568627450980392135 ) ;
#1168 = CIRCLE ( 'NONE', #92, 0.02500000000000001180 ) ;
#1169 = DIRECTION ( 'NONE',  ( 0.000000000000000000, -1.000000000000000000, -0.000000000000000000 ) ) ;
#1170 = FACE_OUTER_BOUND ( 'NONE', #521, .T. ) ;
#1171 = CARTESIAN_POINT ( 'NONE',  ( 0.2749999999999998002, 0.6500000000000000222, 0.2250000000000000888 ) ) ;
#1172 = EDGE_LOOP ( 'NONE', ( #431, #299, #75, #953, #733, #150, #534, #1191 ) ) ;
#1173 = ORIENTED_EDGE ( 'NONE', *, *, #1141, .F. ) ;
#1174 = LINE ( 'NONE', #803, #462 ) ;
#1175 = EDGE_CURVE ( 'NONE', #634, #466, #232, .T. ) ;
#1176 = CARTESIAN_POINT ( 'NONE',  ( 0.2750000001014996087, 0.6416666666666667185, 0.2250000000000000611 ) ) ;
#1177 = CARTESIAN_POINT ( 'NONE',  ( -0.4749999999999997558, 0.6500000000000000222, 0.2500000000000001110 ) ) ;
#1178 = EDGE_CURVE ( 'NONE', #918, #138, #321, .T. ) ;
#1179 = DIRECTION ( 'NONE',  ( 8.673617379884037937E-17, 4.517509052022934731E-17, 1.000000000000000000 ) ) ;
#1180 = EDGE_CURVE ( 'NONE', #951, #679, #1039, .T. ) ;
#1181 = ORIENTED_EDGE ( 'NONE', *, *, #632, .F. ) ;
#1182 = ORIENTED_EDGE ( 'NONE', *, *, #645, .T. ) ;
#1183 = CYLINDRICAL_SURFACE ( 'NONE', #654, 0.02500000000000001180 ) ;
#1184 = CARTESIAN_POINT ( 'NONE',  ( -0.2749999999999998557, 0.6416666666666667185, -0.2249999999999998945 ) ) ;
#1185 = CARTESIAN_POINT ( 'NONE',  ( -0.2749999999999998002, 0.6250000000000000000, 0.2500000000000001110 ) ) ;
#1186 = ORIENTED_EDGE ( 'NONE', *, *, #1175, .T. ) ;
#1187 = DIRECTION ( 'NONE',  ( 1.000000000000000000, -0.000000000000000000, 0.000000000000000000 ) ) ;
#1188 = MECHANICAL_DESIGN_GEOMETRIC_PRESENTATION_REPRESENTATION (  '', ( #1099 ), #866 ) ;
#1189 = VERTEX_POINT ( 'NONE', #539 ) ;
#1190 = APPLICATION_PROTOCOL_DEFINITION ( 'draft international standard', 'automotive_design', 1998, #141 ) ;
#1191 = ORIENTED_EDGE ( 'NONE', *, *, #78, .F. ) ;
#1192 = DIRECTION ( 'NONE',  ( 0.000000000000000000, 0.000000000000000000, -1.000000000000000000 ) ) ;
#1193 = CIRCLE ( 'NONE', #528, 0.02500000000000001180 ) ;
#1194 = AXIS2_PLACEMENT_3D ( 'NONE', #416, #1107, #814 ) ;
#1195 = CYLINDRICAL_SURFACE ( 'NONE', #635, 0.02500000000000001180 ) ;
#1196 = ORIENTED_EDGE ( 'NONE', *, *, #1041, .F. ) ;
#1197 = DIRECTION ( 'NONE',  ( 0.000000000000000000, -1.000000000000000000, 0.000000000000000000 ) ) ;
#1198 = ORIENTED_EDGE ( 'NONE', *, *, #445, .T. ) ;
#1199 = EDGE_CURVE ( 'NONE', #587, #1074, #749, .T. ) ;
#1200 = LINE ( 'NONE', #209, #382 ) ;
#1201 = FACE_OUTER_BOUND ( 'NONE', #983, .T. ) ;
#1202 = CARTESIAN_POINT ( 'NONE',  ( 0.4749999999999997558, 0.6250000000000000000, 0.2250000000000000888 ) ) ;
#1203 = CARTESIAN_POINT ( 'NONE',  ( -0.2749999999999998557, 0.02499999999999995628, 0.2416666666666667795 ) ) ;
#1204 = EDGE_CURVE ( 'NONE', #514, #336, #832, .T. ) ;
#1205 = CARTESIAN_POINT ( 'NONE',  ( -0.4749999999999997558, 0.6500000000000000222, -0.2500000000000000000 ) ) ;
#1206 = EDGE_LOOP ( 'NONE', ( #1231, #251, #43, #644 ) ) ;
#1207 = DIRECTION ( 'NONE',  ( 0.000000000000000000, -1.000000000000000000, 0.000000000000000000 ) ) ;
#1208 = DIRECTION ( 'NONE',  ( -0.000000000000000000, -1.000000000000000000, -0.000000000000000000 ) ) ;
#1209 = PLANE ( 'NONE',  #1148 ) ;
#1210 = FACE_OUTER_BOUND ( 'NONE', #1108, .T. ) ;
#1211 = ORIENTED_EDGE ( 'NONE', *, *, #59, .T. ) ;
#1212 = AXIS2_PLACEMENT_3D ( 'NONE', #782, #1256, #390 ) ;
#1213 = PRESENTATION_STYLE_ASSIGNMENT (( #628 ) ) ;
#1214 = CARTESIAN_POINT ( 'NONE',  ( 500000.0000000000582, 0.6416666666666667185, -0.2250000000433680092 ) ) ;
#1215 = AXIS2_PLACEMENT_3D ( 'NONE', #1202, #1208, #320 ) ;
#1216 = EDGE_CURVE ( 'NONE', #453, #824, #82, .T. ) ;
#1217 = AXIS2_PLACEMENT_3D ( 'NONE', #328, #898, #1119 ) ;
#1218 = LINE ( 'NONE', #27, #609 ) ;
#1219 = DIRECTION ( 'NONE',  ( 0.000000000000000000, 0.000000000000000000, 1.000000000000000000 ) ) ;
#1220 = CIRCLE ( 'NONE', #874, 0.02500000000000001180 ) ;
#1221 = ORIENTED_EDGE ( 'NONE', *, *, #660, .T. ) ;
#1222 = EDGE_CURVE ( 'NONE', #1038, #370, #253, .T. ) ;
#1223 = DIRECTION ( 'NONE',  ( 0.000000000000000000, 0.000000000000000000, -1.000000000000000000 ) ) ;
#1224 = FACE_OUTER_BOUND ( 'NONE', #610, .T. ) ;
#1225 = CARTESIAN_POINT ( 'NONE',  ( -0.2749999999999998002, 0.02499999999999995628, 0.2250000000000000888 ) ) ;
#1226 = ORIENTED_EDGE ( 'NONE', *, *, #1130, .F. ) ;
#1227 = ORIENTED_EDGE ( 'NONE', *, *, #186, .T. ) ;
#1228 = FACE_OUTER_BOUND ( 'NONE', #60, .T. ) ;
#1229 = CYLINDRICAL_SURFACE ( 'NONE', #408, 0.02500000000000001180 ) ;
#1230 = LINE ( 'NONE', #550, #753 ) ;
#1231 = ORIENTED_EDGE ( 'NONE', *, *, #511, .F. ) ;
#1232 = AXIS2_PLACEMENT_3D ( 'NONE', #40, #820, #1223 ) ;
#1233 = CIRCLE ( 'NONE', #1166, 0.02500000000000001180 ) ;
#1234 = CARTESIAN_POINT ( 'NONE',  ( 500000.0000000000582, 0.6250000000000000000, 0.2416666666232986371 ) ) ;
#1235 = LINE ( 'NONE', #1240, #1145 ) ;
#1236 = AXIS2_PLACEMENT_3D ( 'NONE', #116, #787, #217 ) ;
#1237 = VECTOR ( 'NONE', #148, 1000.000000000000000 ) ;
#1238 = ORIENTED_EDGE ( 'NONE', *, *, #527, .F. ) ;
#1239 = UNCERTAINTY_MEASURE_WITH_UNIT (LENGTH_MEASURE( 1.000000000000000082E-05 ), #947, 'distance_accuracy_value', 'NONE');
#1240 = CARTESIAN_POINT ( 'NONE',  ( 500000.0000000000582, 0.02499999999999995628, 0.2416666666232986649 ) ) ;
#1241 = EDGE_CURVE ( 'NONE', #722, #1074, #257, .T. ) ;
#1242 = ORIENTED_EDGE ( 'NONE', *, *, #78, .T. ) ;
#1243 = FILL_AREA_STYLE ('',( #1132 ) ) ;
#1244 = ORIENTED_EDGE ( 'NONE', *, *, #1062, .T. ) ;
#1245 = CARTESIAN_POINT ( 'NONE',  ( 0.4749999999999997558, 0.6500000000000000222, -0.2500000000000000000 ) ) ;
#1246 = CARTESIAN_POINT ( 'NONE',  ( 0.4749999999999997558, 0.02499999999999995628, -0.2500000000000000000 ) ) ;
#1247 = ORIENTED_EDGE ( 'NONE', *, *, #665, .T. ) ;
#1248 = CARTESIAN_POINT ( 'NONE',  ( -0.2749999999999998557, 0.6416666666666667185, 0.2250000000000000888 ) ) ;
#1249 = FACE_OUTER_BOUND ( 'NONE', #538, .T. ) ;
#1250 = VECTOR ( 'NONE', #928, 1000.000000000000000 ) ;
#1251 = AXIS2_PLACEMENT_3D ( 'NONE', #413, #10, #215 ) ;
#1252 = CIRCLE ( 'NONE', #307, 0.01666666666666664562 ) ;
#1253 = ORIENTED_EDGE ( 'NONE', *, *, #1007, .T. ) ;
#1254 = EDGE_CURVE ( 'NONE', #830, #1189, #1150, .T. ) ;
#1255 = CARTESIAN_POINT ( 'NONE',  ( 0.000000000000000000, 0.6500000000000000222, 0.000000000000000000 ) ) ;
#1256 = DIRECTION ( 'NONE',  ( 0.000000000000000000, -1.000000000000000000, 0.000000000000000000 ) ) ;
#1257 = ORIENTED_EDGE ( 'NONE', *, *, #130, .T. ) ;
#1258 = ORIENTED_EDGE ( 'NONE', *, *, #1122, .T. ) ;
#1259 = CARTESIAN_POINT ( 'NONE',  ( 1.084202172485503818E-16, 0.000000000000000000, -0.2249999999999997558 ) ) ;
#1260 = DIRECTION ( 'NONE',  ( -4.818676322157807236E-16, 0.000000000000000000, -1.000000000000000000 ) ) ;
#1261 = EDGE_LOOP ( 'NONE', ( #1110, #24, #353, #32 ) ) ;
#1262 = ORIENTED_EDGE ( 'NONE', *, *, #105, .T. ) ;
#1263 = CYLINDRICAL_SURFACE ( 'NONE', #325, 0.02500000000000001180 ) ;
#1264 = CARTESIAN_POINT ( 'NONE',  ( 0.4749999999999997558, 0.02499999999999995628, -0.2500000000000000000 ) ) ;
#1265 = CARTESIAN_POINT ( 'NONE',  ( 0.2749999999999999112, 0.6500000000000000222, -0.2249999999999998945 ) ) ;
#1266 = AXIS2_PLACEMENT_3D ( 'NONE', #335, #638, #922 ) ;
#1267 = EDGE_CURVE ( 'NONE', #561, #778, #301, .T. ) ;
#1268 = VERTEX_POINT ( 'NONE', #926 ) ;
#1269 = ORIENTED_EDGE ( 'NONE', *, *, #1101, .T. ) ;
#1270 = AXIS2_PLACEMENT_3D ( 'NONE', #1163, #1197, #1092 ) ;
#1271 = AXIS2_PLACEMENT_3D ( 'NONE', #964, #864, #700 ) ;
#1272 = DIRECTION ( 'NONE',  ( 2.168404344971008868E-16, -0.000000000000000000, -1.000000000000000000 ) ) ;
#1273 = AXIS2_PLACEMENT_3D ( 'NONE', #469, #690, #76 ) ;
#1274 = FACE_OUTER_BOUND ( 'NONE', #1140, .T. ) ;
#1275 = CARTESIAN_POINT ( 'NONE',  ( 0.2749999999999998002, 0.6250000000000000000, 0.2500000000000001110 ) ) ;
#1276 = ORIENTED_EDGE ( 'NONE', *, *, #667, .F. ) ;
#1277 = EDGE_CURVE ( 'NONE', #653, #139, #554, .T. ) ;
#1278 = CARTESIAN_POINT ( 'NONE',  ( 500000.0000000000582, 0.6250000000000000000, 0.2416666666232986649 ) ) ;
#1279 = EDGE_CURVE ( 'NONE', #887, #1038, #1040, .T. ) ;
#1280 = DIRECTION ( 'NONE',  ( -1.000000000000000000, 0.000000000000000000, -4.818676322157800333E-16 ) ) ;
ENDSEC;
END-ISO-10303-21;
