G04 #@! TF.FileFunction,Copper,L2,Bot,Signal*
%FSLAX46Y46*%
G04 Gerber Fmt 4.6, Leading zero omitted, Abs format (unit mm)*
G04 Created by KiCad (PCBNEW 4.0.7) date 08/23/26 23:48:12*
%MOMM*%
%LPD*%
G01*
G04 APERTURE LIST*
%ADD10C,0.100000*%
%ADD11C,1.600000*%
%ADD12R,1.800000X1.800000*%
%ADD13C,1.800000*%
%ADD14O,1.600000X1.600000*%
%ADD15R,1.600000X1.600000*%
%ADD16C,0.250000*%
%ADD17C,0.254000*%
G04 APERTURE END LIST*
D10*
D11*
X165608000Y-81788000D03*
X168108000Y-81788000D03*
D12*
X135128000Y-111252000D03*
D13*
X137668000Y-111252000D03*
D12*
X167132000Y-107442000D03*
D13*
X169672000Y-107442000D03*
D11*
X164084000Y-91694000D03*
D14*
X171704000Y-91694000D03*
D11*
X159258000Y-101346000D03*
D14*
X166878000Y-101346000D03*
D11*
X170180000Y-97536000D03*
D14*
X177800000Y-97536000D03*
D11*
X122682000Y-103378000D03*
D14*
X130302000Y-103378000D03*
D11*
X148082000Y-106172000D03*
D14*
X155702000Y-106172000D03*
D11*
X164592000Y-127508000D03*
D14*
X172212000Y-127508000D03*
D11*
X139700000Y-82550000D03*
D14*
X147320000Y-82550000D03*
D15*
X146558000Y-100076000D03*
D14*
X154178000Y-92456000D03*
X149098000Y-100076000D03*
X151638000Y-92456000D03*
X151638000Y-100076000D03*
X149098000Y-92456000D03*
X154178000Y-100076000D03*
X146558000Y-92456000D03*
D15*
X153924000Y-113792000D03*
D14*
X146304000Y-121412000D03*
X151384000Y-113792000D03*
X148844000Y-121412000D03*
X148844000Y-113792000D03*
X151384000Y-121412000D03*
X146304000Y-113792000D03*
X153924000Y-121412000D03*
D16*
X164084000Y-91694000D02*
X164084000Y-83312000D01*
X164084000Y-83312000D02*
X165608000Y-81788000D01*
X155702000Y-106172000D02*
X165862000Y-106172000D01*
X165862000Y-106172000D02*
X167132000Y-107442000D01*
X155702000Y-106172000D02*
X155702000Y-101600000D01*
X155702000Y-101600000D02*
X154178000Y-100076000D01*
X177800000Y-97536000D02*
X177038000Y-97536000D01*
X177038000Y-97536000D02*
X167132000Y-107442000D01*
X168108000Y-81788000D02*
X173990000Y-81788000D01*
X173990000Y-81788000D02*
X177800000Y-85598000D01*
X177800000Y-85598000D02*
X177800000Y-97536000D01*
X139700000Y-82550000D02*
X139700000Y-109220000D01*
X139700000Y-109220000D02*
X137668000Y-111252000D01*
X172212000Y-127508000D02*
X172212000Y-109982000D01*
X172212000Y-109982000D02*
X169672000Y-107442000D01*
X159258000Y-101346000D02*
X162052000Y-101346000D01*
X162052000Y-101346000D02*
X171704000Y-91694000D01*
X166878000Y-101346000D02*
X166878000Y-100838000D01*
X166878000Y-100838000D02*
X170180000Y-97536000D01*
X148844000Y-113792000D02*
X148844000Y-106934000D01*
X148844000Y-106934000D02*
X148082000Y-106172000D01*
X149098000Y-100076000D02*
X149098000Y-105156000D01*
X149098000Y-105156000D02*
X148082000Y-106172000D01*
X148844000Y-121412000D02*
X148844000Y-123698000D01*
X148844000Y-123698000D02*
X152654000Y-127508000D01*
X152654000Y-127508000D02*
X164592000Y-127508000D01*
X147320000Y-82550000D02*
X147320000Y-88138000D01*
X147320000Y-88138000D02*
X151638000Y-92456000D01*
D17*
G36*
X186005000Y-137745000D02*
X118795000Y-137745000D01*
X118795000Y-121383887D01*
X144869000Y-121383887D01*
X144869000Y-121440113D01*
X144978233Y-121989264D01*
X145289302Y-122454811D01*
X145754849Y-122765880D01*
X146304000Y-122875113D01*
X146853151Y-122765880D01*
X147318698Y-122454811D01*
X147574000Y-122072725D01*
X147829302Y-122454811D01*
X148084000Y-122624995D01*
X148084000Y-123698000D01*
X148141852Y-123988839D01*
X148306599Y-124235401D01*
X152116599Y-128045401D01*
X152363161Y-128210148D01*
X152654000Y-128268000D01*
X163353354Y-128268000D01*
X163374757Y-128319800D01*
X163778077Y-128723824D01*
X164305309Y-128942750D01*
X164876187Y-128943248D01*
X165403800Y-128725243D01*
X165807824Y-128321923D01*
X166026750Y-127794691D01*
X166027248Y-127223813D01*
X165809243Y-126696200D01*
X165405923Y-126292176D01*
X164878691Y-126073250D01*
X164307813Y-126072752D01*
X163780200Y-126290757D01*
X163376176Y-126694077D01*
X163353785Y-126748000D01*
X152968802Y-126748000D01*
X149604000Y-123383198D01*
X149604000Y-122624995D01*
X149858698Y-122454811D01*
X150114000Y-122072725D01*
X150369302Y-122454811D01*
X150834849Y-122765880D01*
X151384000Y-122875113D01*
X151933151Y-122765880D01*
X152398698Y-122454811D01*
X152654000Y-122072725D01*
X152909302Y-122454811D01*
X153374849Y-122765880D01*
X153924000Y-122875113D01*
X154473151Y-122765880D01*
X154938698Y-122454811D01*
X155249767Y-121989264D01*
X155359000Y-121440113D01*
X155359000Y-121383887D01*
X155249767Y-120834736D01*
X154938698Y-120369189D01*
X154473151Y-120058120D01*
X153924000Y-119948887D01*
X153374849Y-120058120D01*
X152909302Y-120369189D01*
X152654000Y-120751275D01*
X152398698Y-120369189D01*
X151933151Y-120058120D01*
X151384000Y-119948887D01*
X150834849Y-120058120D01*
X150369302Y-120369189D01*
X150114000Y-120751275D01*
X149858698Y-120369189D01*
X149393151Y-120058120D01*
X148844000Y-119948887D01*
X148294849Y-120058120D01*
X147829302Y-120369189D01*
X147574000Y-120751275D01*
X147318698Y-120369189D01*
X146853151Y-120058120D01*
X146304000Y-119948887D01*
X145754849Y-120058120D01*
X145289302Y-120369189D01*
X144978233Y-120834736D01*
X144869000Y-121383887D01*
X118795000Y-121383887D01*
X118795000Y-114141041D01*
X144912086Y-114141041D01*
X145151611Y-114647134D01*
X145566577Y-115023041D01*
X145954961Y-115183904D01*
X146177000Y-115061915D01*
X146177000Y-113919000D01*
X145033371Y-113919000D01*
X144912086Y-114141041D01*
X118795000Y-114141041D01*
X118795000Y-113442959D01*
X144912086Y-113442959D01*
X145033371Y-113665000D01*
X146177000Y-113665000D01*
X146177000Y-112522085D01*
X145954961Y-112400096D01*
X145566577Y-112560959D01*
X145151611Y-112936866D01*
X144912086Y-113442959D01*
X118795000Y-113442959D01*
X118795000Y-111537750D01*
X133593000Y-111537750D01*
X133593000Y-112278310D01*
X133689673Y-112511699D01*
X133868302Y-112690327D01*
X134101691Y-112787000D01*
X134842250Y-112787000D01*
X135001000Y-112628250D01*
X135001000Y-111379000D01*
X133751750Y-111379000D01*
X133593000Y-111537750D01*
X118795000Y-111537750D01*
X118795000Y-110225690D01*
X133593000Y-110225690D01*
X133593000Y-110966250D01*
X133751750Y-111125000D01*
X135001000Y-111125000D01*
X135001000Y-109875750D01*
X135255000Y-109875750D01*
X135255000Y-111125000D01*
X135275000Y-111125000D01*
X135275000Y-111379000D01*
X135255000Y-111379000D01*
X135255000Y-112628250D01*
X135413750Y-112787000D01*
X136154309Y-112787000D01*
X136387698Y-112690327D01*
X136566327Y-112511699D01*
X136622119Y-112377006D01*
X136797357Y-112552551D01*
X137361330Y-112786733D01*
X137971991Y-112787265D01*
X138536371Y-112554068D01*
X138968551Y-112122643D01*
X139202733Y-111558670D01*
X139203265Y-110948009D01*
X139157515Y-110837287D01*
X140237401Y-109757401D01*
X140402148Y-109510839D01*
X140460000Y-109220000D01*
X140460000Y-99276000D01*
X145110560Y-99276000D01*
X145110560Y-100876000D01*
X145154838Y-101111317D01*
X145293910Y-101327441D01*
X145506110Y-101472431D01*
X145758000Y-101523440D01*
X147358000Y-101523440D01*
X147593317Y-101479162D01*
X147809441Y-101340090D01*
X147954431Y-101127890D01*
X147985815Y-100972911D01*
X148083302Y-101118811D01*
X148338000Y-101288995D01*
X148338000Y-104737223D01*
X147797813Y-104736752D01*
X147270200Y-104954757D01*
X146866176Y-105358077D01*
X146647250Y-105885309D01*
X146646752Y-106456187D01*
X146864757Y-106983800D01*
X147268077Y-107387824D01*
X147795309Y-107606750D01*
X148084000Y-107607002D01*
X148084000Y-112579005D01*
X147829302Y-112749189D01*
X147559014Y-113153703D01*
X147456389Y-112936866D01*
X147041423Y-112560959D01*
X146653039Y-112400096D01*
X146431000Y-112522085D01*
X146431000Y-113665000D01*
X146451000Y-113665000D01*
X146451000Y-113919000D01*
X146431000Y-113919000D01*
X146431000Y-115061915D01*
X146653039Y-115183904D01*
X147041423Y-115023041D01*
X147456389Y-114647134D01*
X147559014Y-114430297D01*
X147829302Y-114834811D01*
X148294849Y-115145880D01*
X148844000Y-115255113D01*
X149393151Y-115145880D01*
X149858698Y-114834811D01*
X150114000Y-114452725D01*
X150369302Y-114834811D01*
X150834849Y-115145880D01*
X151384000Y-115255113D01*
X151933151Y-115145880D01*
X152398698Y-114834811D01*
X152495101Y-114690535D01*
X152520838Y-114827317D01*
X152659910Y-115043441D01*
X152872110Y-115188431D01*
X153124000Y-115239440D01*
X154724000Y-115239440D01*
X154959317Y-115195162D01*
X155175441Y-115056090D01*
X155320431Y-114843890D01*
X155371440Y-114592000D01*
X155371440Y-112992000D01*
X155327162Y-112756683D01*
X155188090Y-112540559D01*
X154975890Y-112395569D01*
X154724000Y-112344560D01*
X153124000Y-112344560D01*
X152888683Y-112388838D01*
X152672559Y-112527910D01*
X152527569Y-112740110D01*
X152496185Y-112895089D01*
X152398698Y-112749189D01*
X151933151Y-112438120D01*
X151384000Y-112328887D01*
X150834849Y-112438120D01*
X150369302Y-112749189D01*
X150114000Y-113131275D01*
X149858698Y-112749189D01*
X149604000Y-112579005D01*
X149604000Y-107727750D01*
X165597000Y-107727750D01*
X165597000Y-108468310D01*
X165693673Y-108701699D01*
X165872302Y-108880327D01*
X166105691Y-108977000D01*
X166846250Y-108977000D01*
X167005000Y-108818250D01*
X167005000Y-107569000D01*
X165755750Y-107569000D01*
X165597000Y-107727750D01*
X149604000Y-107727750D01*
X149604000Y-106934000D01*
X149546148Y-106643161D01*
X149480776Y-106545325D01*
X149490860Y-106521039D01*
X154310096Y-106521039D01*
X154470959Y-106909423D01*
X154846866Y-107324389D01*
X155352959Y-107563914D01*
X155575000Y-107442629D01*
X155575000Y-106299000D01*
X155829000Y-106299000D01*
X155829000Y-107442629D01*
X156051041Y-107563914D01*
X156557134Y-107324389D01*
X156933041Y-106909423D01*
X157093904Y-106521039D01*
X157036025Y-106415690D01*
X165597000Y-106415690D01*
X165597000Y-107156250D01*
X165755750Y-107315000D01*
X167005000Y-107315000D01*
X167005000Y-106065750D01*
X167259000Y-106065750D01*
X167259000Y-107315000D01*
X167279000Y-107315000D01*
X167279000Y-107569000D01*
X167259000Y-107569000D01*
X167259000Y-108818250D01*
X167417750Y-108977000D01*
X168158309Y-108977000D01*
X168391698Y-108880327D01*
X168570327Y-108701699D01*
X168626119Y-108567006D01*
X168801357Y-108742551D01*
X169365330Y-108976733D01*
X169975991Y-108977265D01*
X170086713Y-108931515D01*
X171452000Y-110296802D01*
X171452000Y-126304333D01*
X171169189Y-126493302D01*
X170858120Y-126958849D01*
X170748887Y-127508000D01*
X170858120Y-128057151D01*
X171169189Y-128522698D01*
X171634736Y-128833767D01*
X172183887Y-128943000D01*
X172240113Y-128943000D01*
X172789264Y-128833767D01*
X173254811Y-128522698D01*
X173565880Y-128057151D01*
X173675113Y-127508000D01*
X173565880Y-126958849D01*
X173254811Y-126493302D01*
X172972000Y-126304333D01*
X172972000Y-109982000D01*
X172914148Y-109691161D01*
X172914148Y-109691160D01*
X172749401Y-109444599D01*
X171161766Y-107856964D01*
X171206733Y-107748670D01*
X171207265Y-107138009D01*
X170974068Y-106573629D01*
X170542643Y-106141449D01*
X169978670Y-105907267D01*
X169368009Y-105906735D01*
X168803629Y-106139932D01*
X168626159Y-106317092D01*
X168570327Y-106182301D01*
X168391698Y-106003673D01*
X168158309Y-105907000D01*
X167417750Y-105907000D01*
X167259000Y-106065750D01*
X167005000Y-106065750D01*
X166846250Y-105907000D01*
X166105691Y-105907000D01*
X165872302Y-106003673D01*
X165693673Y-106182301D01*
X165597000Y-106415690D01*
X157036025Y-106415690D01*
X156971915Y-106299000D01*
X155829000Y-106299000D01*
X155575000Y-106299000D01*
X154432085Y-106299000D01*
X154310096Y-106521039D01*
X149490860Y-106521039D01*
X149516750Y-106458691D01*
X149517248Y-105887813D01*
X149494951Y-105833851D01*
X149505841Y-105822961D01*
X154310096Y-105822961D01*
X154432085Y-106045000D01*
X155575000Y-106045000D01*
X155575000Y-104901371D01*
X155829000Y-104901371D01*
X155829000Y-106045000D01*
X156971915Y-106045000D01*
X157093904Y-105822961D01*
X156933041Y-105434577D01*
X156557134Y-105019611D01*
X156051041Y-104780086D01*
X155829000Y-104901371D01*
X155575000Y-104901371D01*
X155352959Y-104780086D01*
X154846866Y-105019611D01*
X154470959Y-105434577D01*
X154310096Y-105822961D01*
X149505841Y-105822961D01*
X149635401Y-105693401D01*
X149800148Y-105446839D01*
X149858000Y-105156000D01*
X149858000Y-101630187D01*
X157822752Y-101630187D01*
X158040757Y-102157800D01*
X158444077Y-102561824D01*
X158971309Y-102780750D01*
X159542187Y-102781248D01*
X160069800Y-102563243D01*
X160473824Y-102159923D01*
X160496215Y-102106000D01*
X162052000Y-102106000D01*
X162342839Y-102048148D01*
X162589401Y-101883401D01*
X163126802Y-101346000D01*
X165414887Y-101346000D01*
X165524120Y-101895151D01*
X165835189Y-102360698D01*
X166300736Y-102671767D01*
X166849887Y-102781000D01*
X166906113Y-102781000D01*
X167455264Y-102671767D01*
X167920811Y-102360698D01*
X168231880Y-101895151D01*
X168341113Y-101346000D01*
X168231880Y-100796849D01*
X168136580Y-100654222D01*
X169841546Y-98949256D01*
X169893309Y-98970750D01*
X170464187Y-98971248D01*
X170991800Y-98753243D01*
X171395824Y-98349923D01*
X171588860Y-97885039D01*
X176408096Y-97885039D01*
X176568959Y-98273423D01*
X176944866Y-98688389D01*
X177450959Y-98927914D01*
X177673000Y-98806629D01*
X177673000Y-97663000D01*
X177927000Y-97663000D01*
X177927000Y-98806629D01*
X178149041Y-98927914D01*
X178655134Y-98688389D01*
X179031041Y-98273423D01*
X179191904Y-97885039D01*
X179069915Y-97663000D01*
X177927000Y-97663000D01*
X177673000Y-97663000D01*
X176530085Y-97663000D01*
X176408096Y-97885039D01*
X171588860Y-97885039D01*
X171614750Y-97822691D01*
X171615248Y-97251813D01*
X171588452Y-97186961D01*
X176408096Y-97186961D01*
X176530085Y-97409000D01*
X177673000Y-97409000D01*
X177673000Y-96265371D01*
X177927000Y-96265371D01*
X177927000Y-97409000D01*
X179069915Y-97409000D01*
X179191904Y-97186961D01*
X179031041Y-96798577D01*
X178655134Y-96383611D01*
X178149041Y-96144086D01*
X177927000Y-96265371D01*
X177673000Y-96265371D01*
X177450959Y-96144086D01*
X176944866Y-96383611D01*
X176568959Y-96798577D01*
X176408096Y-97186961D01*
X171588452Y-97186961D01*
X171397243Y-96724200D01*
X170993923Y-96320176D01*
X170466691Y-96101250D01*
X169895813Y-96100752D01*
X169368200Y-96318757D01*
X168964176Y-96722077D01*
X168745250Y-97249309D01*
X168744752Y-97820187D01*
X168767049Y-97874149D01*
X166700479Y-99940719D01*
X166300736Y-100020233D01*
X165835189Y-100331302D01*
X165524120Y-100796849D01*
X165414887Y-101346000D01*
X163126802Y-101346000D01*
X171398898Y-93073904D01*
X171675887Y-93129000D01*
X171732113Y-93129000D01*
X172281264Y-93019767D01*
X172746811Y-92708698D01*
X173057880Y-92243151D01*
X173167113Y-91694000D01*
X173057880Y-91144849D01*
X172746811Y-90679302D01*
X172281264Y-90368233D01*
X171732113Y-90259000D01*
X171675887Y-90259000D01*
X171126736Y-90368233D01*
X170661189Y-90679302D01*
X170350120Y-91144849D01*
X170240887Y-91694000D01*
X170305312Y-92017886D01*
X161737198Y-100586000D01*
X160496646Y-100586000D01*
X160475243Y-100534200D01*
X160071923Y-100130176D01*
X159544691Y-99911250D01*
X158973813Y-99910752D01*
X158446200Y-100128757D01*
X158042176Y-100532077D01*
X157823250Y-101059309D01*
X157822752Y-101630187D01*
X149858000Y-101630187D01*
X149858000Y-101288995D01*
X150112698Y-101118811D01*
X150368000Y-100736725D01*
X150623302Y-101118811D01*
X151088849Y-101429880D01*
X151638000Y-101539113D01*
X152187151Y-101429880D01*
X152652698Y-101118811D01*
X152922986Y-100714297D01*
X153025611Y-100931134D01*
X153440577Y-101307041D01*
X153828961Y-101467904D01*
X154051000Y-101345915D01*
X154051000Y-100203000D01*
X154305000Y-100203000D01*
X154305000Y-101345915D01*
X154527039Y-101467904D01*
X154915423Y-101307041D01*
X155330389Y-100931134D01*
X155569914Y-100425041D01*
X155448629Y-100203000D01*
X154305000Y-100203000D01*
X154051000Y-100203000D01*
X154031000Y-100203000D01*
X154031000Y-99949000D01*
X154051000Y-99949000D01*
X154051000Y-98806085D01*
X154305000Y-98806085D01*
X154305000Y-99949000D01*
X155448629Y-99949000D01*
X155569914Y-99726959D01*
X155330389Y-99220866D01*
X154915423Y-98844959D01*
X154527039Y-98684096D01*
X154305000Y-98806085D01*
X154051000Y-98806085D01*
X153828961Y-98684096D01*
X153440577Y-98844959D01*
X153025611Y-99220866D01*
X152922986Y-99437703D01*
X152652698Y-99033189D01*
X152187151Y-98722120D01*
X151638000Y-98612887D01*
X151088849Y-98722120D01*
X150623302Y-99033189D01*
X150368000Y-99415275D01*
X150112698Y-99033189D01*
X149647151Y-98722120D01*
X149098000Y-98612887D01*
X148548849Y-98722120D01*
X148083302Y-99033189D01*
X147986899Y-99177465D01*
X147961162Y-99040683D01*
X147822090Y-98824559D01*
X147609890Y-98679569D01*
X147358000Y-98628560D01*
X145758000Y-98628560D01*
X145522683Y-98672838D01*
X145306559Y-98811910D01*
X145161569Y-99024110D01*
X145110560Y-99276000D01*
X140460000Y-99276000D01*
X140460000Y-92427887D01*
X145123000Y-92427887D01*
X145123000Y-92484113D01*
X145232233Y-93033264D01*
X145543302Y-93498811D01*
X146008849Y-93809880D01*
X146558000Y-93919113D01*
X147107151Y-93809880D01*
X147572698Y-93498811D01*
X147828000Y-93116725D01*
X148083302Y-93498811D01*
X148548849Y-93809880D01*
X149098000Y-93919113D01*
X149647151Y-93809880D01*
X150112698Y-93498811D01*
X150368000Y-93116725D01*
X150623302Y-93498811D01*
X151088849Y-93809880D01*
X151638000Y-93919113D01*
X152187151Y-93809880D01*
X152652698Y-93498811D01*
X152908000Y-93116725D01*
X153163302Y-93498811D01*
X153628849Y-93809880D01*
X154178000Y-93919113D01*
X154727151Y-93809880D01*
X155192698Y-93498811D01*
X155503767Y-93033264D01*
X155613000Y-92484113D01*
X155613000Y-92427887D01*
X155523550Y-91978187D01*
X162648752Y-91978187D01*
X162866757Y-92505800D01*
X163270077Y-92909824D01*
X163797309Y-93128750D01*
X164368187Y-93129248D01*
X164895800Y-92911243D01*
X165299824Y-92507923D01*
X165518750Y-91980691D01*
X165519248Y-91409813D01*
X165301243Y-90882200D01*
X164897923Y-90478176D01*
X164844000Y-90455785D01*
X164844000Y-83626802D01*
X165269546Y-83201256D01*
X165321309Y-83222750D01*
X165892187Y-83223248D01*
X166419800Y-83005243D01*
X166629663Y-82795745D01*
X167279861Y-82795745D01*
X167353995Y-83041864D01*
X167891223Y-83234965D01*
X168461454Y-83207778D01*
X168862005Y-83041864D01*
X168936139Y-82795745D01*
X168108000Y-81967605D01*
X167279861Y-82795745D01*
X166629663Y-82795745D01*
X166823824Y-82601923D01*
X166851423Y-82535456D01*
X166854136Y-82542005D01*
X167100255Y-82616139D01*
X167928395Y-81788000D01*
X168287605Y-81788000D01*
X169115745Y-82616139D01*
X169361864Y-82542005D01*
X169554965Y-82004777D01*
X169527778Y-81434546D01*
X169361864Y-81033995D01*
X169115745Y-80959861D01*
X168287605Y-81788000D01*
X167928395Y-81788000D01*
X167100255Y-80959861D01*
X166854136Y-81033995D01*
X166851804Y-81040483D01*
X166825243Y-80976200D01*
X166629640Y-80780255D01*
X167279861Y-80780255D01*
X168108000Y-81608395D01*
X168936139Y-80780255D01*
X168862005Y-80534136D01*
X168324777Y-80341035D01*
X167754546Y-80368222D01*
X167353995Y-80534136D01*
X167279861Y-80780255D01*
X166629640Y-80780255D01*
X166421923Y-80572176D01*
X165894691Y-80353250D01*
X165323813Y-80352752D01*
X164796200Y-80570757D01*
X164392176Y-80974077D01*
X164173250Y-81501309D01*
X164172752Y-82072187D01*
X164195049Y-82126149D01*
X163546599Y-82774599D01*
X163381852Y-83021161D01*
X163324000Y-83312000D01*
X163324000Y-90455354D01*
X163272200Y-90476757D01*
X162868176Y-90880077D01*
X162649250Y-91407309D01*
X162648752Y-91978187D01*
X155523550Y-91978187D01*
X155503767Y-91878736D01*
X155192698Y-91413189D01*
X154727151Y-91102120D01*
X154178000Y-90992887D01*
X153628849Y-91102120D01*
X153163302Y-91413189D01*
X152908000Y-91795275D01*
X152652698Y-91413189D01*
X152187151Y-91102120D01*
X151638000Y-90992887D01*
X151314114Y-91057312D01*
X148080000Y-87823198D01*
X148080000Y-83753667D01*
X148362811Y-83564698D01*
X148673880Y-83099151D01*
X148783113Y-82550000D01*
X148673880Y-82000849D01*
X148362811Y-81535302D01*
X147897264Y-81224233D01*
X147348113Y-81115000D01*
X147291887Y-81115000D01*
X146742736Y-81224233D01*
X146277189Y-81535302D01*
X145966120Y-82000849D01*
X145856887Y-82550000D01*
X145966120Y-83099151D01*
X146277189Y-83564698D01*
X146560000Y-83753667D01*
X146560000Y-88138000D01*
X146617852Y-88428839D01*
X146782599Y-88675401D01*
X149100603Y-90993405D01*
X149098000Y-90992887D01*
X148548849Y-91102120D01*
X148083302Y-91413189D01*
X147828000Y-91795275D01*
X147572698Y-91413189D01*
X147107151Y-91102120D01*
X146558000Y-90992887D01*
X146008849Y-91102120D01*
X145543302Y-91413189D01*
X145232233Y-91878736D01*
X145123000Y-92427887D01*
X140460000Y-92427887D01*
X140460000Y-83788646D01*
X140511800Y-83767243D01*
X140915824Y-83363923D01*
X141134750Y-82836691D01*
X141135248Y-82265813D01*
X140917243Y-81738200D01*
X140513923Y-81334176D01*
X139986691Y-81115250D01*
X139415813Y-81114752D01*
X138888200Y-81332757D01*
X138484176Y-81736077D01*
X138265250Y-82263309D01*
X138264752Y-82834187D01*
X138482757Y-83361800D01*
X138886077Y-83765824D01*
X138940000Y-83788215D01*
X138940000Y-108905198D01*
X138082964Y-109762234D01*
X137974670Y-109717267D01*
X137364009Y-109716735D01*
X136799629Y-109949932D01*
X136622159Y-110127092D01*
X136566327Y-109992301D01*
X136387698Y-109813673D01*
X136154309Y-109717000D01*
X135413750Y-109717000D01*
X135255000Y-109875750D01*
X135001000Y-109875750D01*
X134842250Y-109717000D01*
X134101691Y-109717000D01*
X133868302Y-109813673D01*
X133689673Y-109992301D01*
X133593000Y-110225690D01*
X118795000Y-110225690D01*
X118795000Y-103662187D01*
X121246752Y-103662187D01*
X121464757Y-104189800D01*
X121868077Y-104593824D01*
X122395309Y-104812750D01*
X122966187Y-104813248D01*
X123493800Y-104595243D01*
X123897824Y-104191923D01*
X124116750Y-103664691D01*
X124117000Y-103378000D01*
X128838887Y-103378000D01*
X128948120Y-103927151D01*
X129259189Y-104392698D01*
X129724736Y-104703767D01*
X130273887Y-104813000D01*
X130330113Y-104813000D01*
X130879264Y-104703767D01*
X131344811Y-104392698D01*
X131655880Y-103927151D01*
X131765113Y-103378000D01*
X131655880Y-102828849D01*
X131344811Y-102363302D01*
X130879264Y-102052233D01*
X130330113Y-101943000D01*
X130273887Y-101943000D01*
X129724736Y-102052233D01*
X129259189Y-102363302D01*
X128948120Y-102828849D01*
X128838887Y-103378000D01*
X124117000Y-103378000D01*
X124117248Y-103093813D01*
X123899243Y-102566200D01*
X123495923Y-102162176D01*
X122968691Y-101943250D01*
X122397813Y-101942752D01*
X121870200Y-102160757D01*
X121466176Y-102564077D01*
X121247250Y-103091309D01*
X121246752Y-103662187D01*
X118795000Y-103662187D01*
X118795000Y-74345000D01*
X186005000Y-74345000D01*
X186005000Y-137745000D01*
X186005000Y-137745000D01*
G37*
X186005000Y-137745000D02*
X118795000Y-137745000D01*
X118795000Y-121383887D01*
X144869000Y-121383887D01*
X144869000Y-121440113D01*
X144978233Y-121989264D01*
X145289302Y-122454811D01*
X145754849Y-122765880D01*
X146304000Y-122875113D01*
X146853151Y-122765880D01*
X147318698Y-122454811D01*
X147574000Y-122072725D01*
X147829302Y-122454811D01*
X148084000Y-122624995D01*
X148084000Y-123698000D01*
X148141852Y-123988839D01*
X148306599Y-124235401D01*
X152116599Y-128045401D01*
X152363161Y-128210148D01*
X152654000Y-128268000D01*
X163353354Y-128268000D01*
X163374757Y-128319800D01*
X163778077Y-128723824D01*
X164305309Y-128942750D01*
X164876187Y-128943248D01*
X165403800Y-128725243D01*
X165807824Y-128321923D01*
X166026750Y-127794691D01*
X166027248Y-127223813D01*
X165809243Y-126696200D01*
X165405923Y-126292176D01*
X164878691Y-126073250D01*
X164307813Y-126072752D01*
X163780200Y-126290757D01*
X163376176Y-126694077D01*
X163353785Y-126748000D01*
X152968802Y-126748000D01*
X149604000Y-123383198D01*
X149604000Y-122624995D01*
X149858698Y-122454811D01*
X150114000Y-122072725D01*
X150369302Y-122454811D01*
X150834849Y-122765880D01*
X151384000Y-122875113D01*
X151933151Y-122765880D01*
X152398698Y-122454811D01*
X152654000Y-122072725D01*
X152909302Y-122454811D01*
X153374849Y-122765880D01*
X153924000Y-122875113D01*
X154473151Y-122765880D01*
X154938698Y-122454811D01*
X155249767Y-121989264D01*
X155359000Y-121440113D01*
X155359000Y-121383887D01*
X155249767Y-120834736D01*
X154938698Y-120369189D01*
X154473151Y-120058120D01*
X153924000Y-119948887D01*
X153374849Y-120058120D01*
X152909302Y-120369189D01*
X152654000Y-120751275D01*
X152398698Y-120369189D01*
X151933151Y-120058120D01*
X151384000Y-119948887D01*
X150834849Y-120058120D01*
X150369302Y-120369189D01*
X150114000Y-120751275D01*
X149858698Y-120369189D01*
X149393151Y-120058120D01*
X148844000Y-119948887D01*
X148294849Y-120058120D01*
X147829302Y-120369189D01*
X147574000Y-120751275D01*
X147318698Y-120369189D01*
X146853151Y-120058120D01*
X146304000Y-119948887D01*
X145754849Y-120058120D01*
X145289302Y-120369189D01*
X144978233Y-120834736D01*
X144869000Y-121383887D01*
X118795000Y-121383887D01*
X118795000Y-114141041D01*
X144912086Y-114141041D01*
X145151611Y-114647134D01*
X145566577Y-115023041D01*
X145954961Y-115183904D01*
X146177000Y-115061915D01*
X146177000Y-113919000D01*
X145033371Y-113919000D01*
X144912086Y-114141041D01*
X118795000Y-114141041D01*
X118795000Y-113442959D01*
X144912086Y-113442959D01*
X145033371Y-113665000D01*
X146177000Y-113665000D01*
X146177000Y-112522085D01*
X145954961Y-112400096D01*
X145566577Y-112560959D01*
X145151611Y-112936866D01*
X144912086Y-113442959D01*
X118795000Y-113442959D01*
X118795000Y-111537750D01*
X133593000Y-111537750D01*
X133593000Y-112278310D01*
X133689673Y-112511699D01*
X133868302Y-112690327D01*
X134101691Y-112787000D01*
X134842250Y-112787000D01*
X135001000Y-112628250D01*
X135001000Y-111379000D01*
X133751750Y-111379000D01*
X133593000Y-111537750D01*
X118795000Y-111537750D01*
X118795000Y-110225690D01*
X133593000Y-110225690D01*
X133593000Y-110966250D01*
X133751750Y-111125000D01*
X135001000Y-111125000D01*
X135001000Y-109875750D01*
X135255000Y-109875750D01*
X135255000Y-111125000D01*
X135275000Y-111125000D01*
X135275000Y-111379000D01*
X135255000Y-111379000D01*
X135255000Y-112628250D01*
X135413750Y-112787000D01*
X136154309Y-112787000D01*
X136387698Y-112690327D01*
X136566327Y-112511699D01*
X136622119Y-112377006D01*
X136797357Y-112552551D01*
X137361330Y-112786733D01*
X137971991Y-112787265D01*
X138536371Y-112554068D01*
X138968551Y-112122643D01*
X139202733Y-111558670D01*
X139203265Y-110948009D01*
X139157515Y-110837287D01*
X140237401Y-109757401D01*
X140402148Y-109510839D01*
X140460000Y-109220000D01*
X140460000Y-99276000D01*
X145110560Y-99276000D01*
X145110560Y-100876000D01*
X145154838Y-101111317D01*
X145293910Y-101327441D01*
X145506110Y-101472431D01*
X145758000Y-101523440D01*
X147358000Y-101523440D01*
X147593317Y-101479162D01*
X147809441Y-101340090D01*
X147954431Y-101127890D01*
X147985815Y-100972911D01*
X148083302Y-101118811D01*
X148338000Y-101288995D01*
X148338000Y-104737223D01*
X147797813Y-104736752D01*
X147270200Y-104954757D01*
X146866176Y-105358077D01*
X146647250Y-105885309D01*
X146646752Y-106456187D01*
X146864757Y-106983800D01*
X147268077Y-107387824D01*
X147795309Y-107606750D01*
X148084000Y-107607002D01*
X148084000Y-112579005D01*
X147829302Y-112749189D01*
X147559014Y-113153703D01*
X147456389Y-112936866D01*
X147041423Y-112560959D01*
X146653039Y-112400096D01*
X146431000Y-112522085D01*
X146431000Y-113665000D01*
X146451000Y-113665000D01*
X146451000Y-113919000D01*
X146431000Y-113919000D01*
X146431000Y-115061915D01*
X146653039Y-115183904D01*
X147041423Y-115023041D01*
X147456389Y-114647134D01*
X147559014Y-114430297D01*
X147829302Y-114834811D01*
X148294849Y-115145880D01*
X148844000Y-115255113D01*
X149393151Y-115145880D01*
X149858698Y-114834811D01*
X150114000Y-114452725D01*
X150369302Y-114834811D01*
X150834849Y-115145880D01*
X151384000Y-115255113D01*
X151933151Y-115145880D01*
X152398698Y-114834811D01*
X152495101Y-114690535D01*
X152520838Y-114827317D01*
X152659910Y-115043441D01*
X152872110Y-115188431D01*
X153124000Y-115239440D01*
X154724000Y-115239440D01*
X154959317Y-115195162D01*
X155175441Y-115056090D01*
X155320431Y-114843890D01*
X155371440Y-114592000D01*
X155371440Y-112992000D01*
X155327162Y-112756683D01*
X155188090Y-112540559D01*
X154975890Y-112395569D01*
X154724000Y-112344560D01*
X153124000Y-112344560D01*
X152888683Y-112388838D01*
X152672559Y-112527910D01*
X152527569Y-112740110D01*
X152496185Y-112895089D01*
X152398698Y-112749189D01*
X151933151Y-112438120D01*
X151384000Y-112328887D01*
X150834849Y-112438120D01*
X150369302Y-112749189D01*
X150114000Y-113131275D01*
X149858698Y-112749189D01*
X149604000Y-112579005D01*
X149604000Y-107727750D01*
X165597000Y-107727750D01*
X165597000Y-108468310D01*
X165693673Y-108701699D01*
X165872302Y-108880327D01*
X166105691Y-108977000D01*
X166846250Y-108977000D01*
X167005000Y-108818250D01*
X167005000Y-107569000D01*
X165755750Y-107569000D01*
X165597000Y-107727750D01*
X149604000Y-107727750D01*
X149604000Y-106934000D01*
X149546148Y-106643161D01*
X149480776Y-106545325D01*
X149490860Y-106521039D01*
X154310096Y-106521039D01*
X154470959Y-106909423D01*
X154846866Y-107324389D01*
X155352959Y-107563914D01*
X155575000Y-107442629D01*
X155575000Y-106299000D01*
X155829000Y-106299000D01*
X155829000Y-107442629D01*
X156051041Y-107563914D01*
X156557134Y-107324389D01*
X156933041Y-106909423D01*
X157093904Y-106521039D01*
X157036025Y-106415690D01*
X165597000Y-106415690D01*
X165597000Y-107156250D01*
X165755750Y-107315000D01*
X167005000Y-107315000D01*
X167005000Y-106065750D01*
X167259000Y-106065750D01*
X167259000Y-107315000D01*
X167279000Y-107315000D01*
X167279000Y-107569000D01*
X167259000Y-107569000D01*
X167259000Y-108818250D01*
X167417750Y-108977000D01*
X168158309Y-108977000D01*
X168391698Y-108880327D01*
X168570327Y-108701699D01*
X168626119Y-108567006D01*
X168801357Y-108742551D01*
X169365330Y-108976733D01*
X169975991Y-108977265D01*
X170086713Y-108931515D01*
X171452000Y-110296802D01*
X171452000Y-126304333D01*
X171169189Y-126493302D01*
X170858120Y-126958849D01*
X170748887Y-127508000D01*
X170858120Y-128057151D01*
X171169189Y-128522698D01*
X171634736Y-128833767D01*
X172183887Y-128943000D01*
X172240113Y-128943000D01*
X172789264Y-128833767D01*
X173254811Y-128522698D01*
X173565880Y-128057151D01*
X173675113Y-127508000D01*
X173565880Y-126958849D01*
X173254811Y-126493302D01*
X172972000Y-126304333D01*
X172972000Y-109982000D01*
X172914148Y-109691161D01*
X172914148Y-109691160D01*
X172749401Y-109444599D01*
X171161766Y-107856964D01*
X171206733Y-107748670D01*
X171207265Y-107138009D01*
X170974068Y-106573629D01*
X170542643Y-106141449D01*
X169978670Y-105907267D01*
X169368009Y-105906735D01*
X168803629Y-106139932D01*
X168626159Y-106317092D01*
X168570327Y-106182301D01*
X168391698Y-106003673D01*
X168158309Y-105907000D01*
X167417750Y-105907000D01*
X167259000Y-106065750D01*
X167005000Y-106065750D01*
X166846250Y-105907000D01*
X166105691Y-105907000D01*
X165872302Y-106003673D01*
X165693673Y-106182301D01*
X165597000Y-106415690D01*
X157036025Y-106415690D01*
X156971915Y-106299000D01*
X155829000Y-106299000D01*
X155575000Y-106299000D01*
X154432085Y-106299000D01*
X154310096Y-106521039D01*
X149490860Y-106521039D01*
X149516750Y-106458691D01*
X149517248Y-105887813D01*
X149494951Y-105833851D01*
X149505841Y-105822961D01*
X154310096Y-105822961D01*
X154432085Y-106045000D01*
X155575000Y-106045000D01*
X155575000Y-104901371D01*
X155829000Y-104901371D01*
X155829000Y-106045000D01*
X156971915Y-106045000D01*
X157093904Y-105822961D01*
X156933041Y-105434577D01*
X156557134Y-105019611D01*
X156051041Y-104780086D01*
X155829000Y-104901371D01*
X155575000Y-104901371D01*
X155352959Y-104780086D01*
X154846866Y-105019611D01*
X154470959Y-105434577D01*
X154310096Y-105822961D01*
X149505841Y-105822961D01*
X149635401Y-105693401D01*
X149800148Y-105446839D01*
X149858000Y-105156000D01*
X149858000Y-101630187D01*
X157822752Y-101630187D01*
X158040757Y-102157800D01*
X158444077Y-102561824D01*
X158971309Y-102780750D01*
X159542187Y-102781248D01*
X160069800Y-102563243D01*
X160473824Y-102159923D01*
X160496215Y-102106000D01*
X162052000Y-102106000D01*
X162342839Y-102048148D01*
X162589401Y-101883401D01*
X163126802Y-101346000D01*
X165414887Y-101346000D01*
X165524120Y-101895151D01*
X165835189Y-102360698D01*
X166300736Y-102671767D01*
X166849887Y-102781000D01*
X166906113Y-102781000D01*
X167455264Y-102671767D01*
X167920811Y-102360698D01*
X168231880Y-101895151D01*
X168341113Y-101346000D01*
X168231880Y-100796849D01*
X168136580Y-100654222D01*
X169841546Y-98949256D01*
X169893309Y-98970750D01*
X170464187Y-98971248D01*
X170991800Y-98753243D01*
X171395824Y-98349923D01*
X171588860Y-97885039D01*
X176408096Y-97885039D01*
X176568959Y-98273423D01*
X176944866Y-98688389D01*
X177450959Y-98927914D01*
X177673000Y-98806629D01*
X177673000Y-97663000D01*
X177927000Y-97663000D01*
X177927000Y-98806629D01*
X178149041Y-98927914D01*
X178655134Y-98688389D01*
X179031041Y-98273423D01*
X179191904Y-97885039D01*
X179069915Y-97663000D01*
X177927000Y-97663000D01*
X177673000Y-97663000D01*
X176530085Y-97663000D01*
X176408096Y-97885039D01*
X171588860Y-97885039D01*
X171614750Y-97822691D01*
X171615248Y-97251813D01*
X171588452Y-97186961D01*
X176408096Y-97186961D01*
X176530085Y-97409000D01*
X177673000Y-97409000D01*
X177673000Y-96265371D01*
X177927000Y-96265371D01*
X177927000Y-97409000D01*
X179069915Y-97409000D01*
X179191904Y-97186961D01*
X179031041Y-96798577D01*
X178655134Y-96383611D01*
X178149041Y-96144086D01*
X177927000Y-96265371D01*
X177673000Y-96265371D01*
X177450959Y-96144086D01*
X176944866Y-96383611D01*
X176568959Y-96798577D01*
X176408096Y-97186961D01*
X171588452Y-97186961D01*
X171397243Y-96724200D01*
X170993923Y-96320176D01*
X170466691Y-96101250D01*
X169895813Y-96100752D01*
X169368200Y-96318757D01*
X168964176Y-96722077D01*
X168745250Y-97249309D01*
X168744752Y-97820187D01*
X168767049Y-97874149D01*
X166700479Y-99940719D01*
X166300736Y-100020233D01*
X165835189Y-100331302D01*
X165524120Y-100796849D01*
X165414887Y-101346000D01*
X163126802Y-101346000D01*
X171398898Y-93073904D01*
X171675887Y-93129000D01*
X171732113Y-93129000D01*
X172281264Y-93019767D01*
X172746811Y-92708698D01*
X173057880Y-92243151D01*
X173167113Y-91694000D01*
X173057880Y-91144849D01*
X172746811Y-90679302D01*
X172281264Y-90368233D01*
X171732113Y-90259000D01*
X171675887Y-90259000D01*
X171126736Y-90368233D01*
X170661189Y-90679302D01*
X170350120Y-91144849D01*
X170240887Y-91694000D01*
X170305312Y-92017886D01*
X161737198Y-100586000D01*
X160496646Y-100586000D01*
X160475243Y-100534200D01*
X160071923Y-100130176D01*
X159544691Y-99911250D01*
X158973813Y-99910752D01*
X158446200Y-100128757D01*
X158042176Y-100532077D01*
X157823250Y-101059309D01*
X157822752Y-101630187D01*
X149858000Y-101630187D01*
X149858000Y-101288995D01*
X150112698Y-101118811D01*
X150368000Y-100736725D01*
X150623302Y-101118811D01*
X151088849Y-101429880D01*
X151638000Y-101539113D01*
X152187151Y-101429880D01*
X152652698Y-101118811D01*
X152922986Y-100714297D01*
X153025611Y-100931134D01*
X153440577Y-101307041D01*
X153828961Y-101467904D01*
X154051000Y-101345915D01*
X154051000Y-100203000D01*
X154305000Y-100203000D01*
X154305000Y-101345915D01*
X154527039Y-101467904D01*
X154915423Y-101307041D01*
X155330389Y-100931134D01*
X155569914Y-100425041D01*
X155448629Y-100203000D01*
X154305000Y-100203000D01*
X154051000Y-100203000D01*
X154031000Y-100203000D01*
X154031000Y-99949000D01*
X154051000Y-99949000D01*
X154051000Y-98806085D01*
X154305000Y-98806085D01*
X154305000Y-99949000D01*
X155448629Y-99949000D01*
X155569914Y-99726959D01*
X155330389Y-99220866D01*
X154915423Y-98844959D01*
X154527039Y-98684096D01*
X154305000Y-98806085D01*
X154051000Y-98806085D01*
X153828961Y-98684096D01*
X153440577Y-98844959D01*
X153025611Y-99220866D01*
X152922986Y-99437703D01*
X152652698Y-99033189D01*
X152187151Y-98722120D01*
X151638000Y-98612887D01*
X151088849Y-98722120D01*
X150623302Y-99033189D01*
X150368000Y-99415275D01*
X150112698Y-99033189D01*
X149647151Y-98722120D01*
X149098000Y-98612887D01*
X148548849Y-98722120D01*
X148083302Y-99033189D01*
X147986899Y-99177465D01*
X147961162Y-99040683D01*
X147822090Y-98824559D01*
X147609890Y-98679569D01*
X147358000Y-98628560D01*
X145758000Y-98628560D01*
X145522683Y-98672838D01*
X145306559Y-98811910D01*
X145161569Y-99024110D01*
X145110560Y-99276000D01*
X140460000Y-99276000D01*
X140460000Y-92427887D01*
X145123000Y-92427887D01*
X145123000Y-92484113D01*
X145232233Y-93033264D01*
X145543302Y-93498811D01*
X146008849Y-93809880D01*
X146558000Y-93919113D01*
X147107151Y-93809880D01*
X147572698Y-93498811D01*
X147828000Y-93116725D01*
X148083302Y-93498811D01*
X148548849Y-93809880D01*
X149098000Y-93919113D01*
X149647151Y-93809880D01*
X150112698Y-93498811D01*
X150368000Y-93116725D01*
X150623302Y-93498811D01*
X151088849Y-93809880D01*
X151638000Y-93919113D01*
X152187151Y-93809880D01*
X152652698Y-93498811D01*
X152908000Y-93116725D01*
X153163302Y-93498811D01*
X153628849Y-93809880D01*
X154178000Y-93919113D01*
X154727151Y-93809880D01*
X155192698Y-93498811D01*
X155503767Y-93033264D01*
X155613000Y-92484113D01*
X155613000Y-92427887D01*
X155523550Y-91978187D01*
X162648752Y-91978187D01*
X162866757Y-92505800D01*
X163270077Y-92909824D01*
X163797309Y-93128750D01*
X164368187Y-93129248D01*
X164895800Y-92911243D01*
X165299824Y-92507923D01*
X165518750Y-91980691D01*
X165519248Y-91409813D01*
X165301243Y-90882200D01*
X164897923Y-90478176D01*
X164844000Y-90455785D01*
X164844000Y-83626802D01*
X165269546Y-83201256D01*
X165321309Y-83222750D01*
X165892187Y-83223248D01*
X166419800Y-83005243D01*
X166629663Y-82795745D01*
X167279861Y-82795745D01*
X167353995Y-83041864D01*
X167891223Y-83234965D01*
X168461454Y-83207778D01*
X168862005Y-83041864D01*
X168936139Y-82795745D01*
X168108000Y-81967605D01*
X167279861Y-82795745D01*
X166629663Y-82795745D01*
X166823824Y-82601923D01*
X166851423Y-82535456D01*
X166854136Y-82542005D01*
X167100255Y-82616139D01*
X167928395Y-81788000D01*
X168287605Y-81788000D01*
X169115745Y-82616139D01*
X169361864Y-82542005D01*
X169554965Y-82004777D01*
X169527778Y-81434546D01*
X169361864Y-81033995D01*
X169115745Y-80959861D01*
X168287605Y-81788000D01*
X167928395Y-81788000D01*
X167100255Y-80959861D01*
X166854136Y-81033995D01*
X166851804Y-81040483D01*
X166825243Y-80976200D01*
X166629640Y-80780255D01*
X167279861Y-80780255D01*
X168108000Y-81608395D01*
X168936139Y-80780255D01*
X168862005Y-80534136D01*
X168324777Y-80341035D01*
X167754546Y-80368222D01*
X167353995Y-80534136D01*
X167279861Y-80780255D01*
X166629640Y-80780255D01*
X166421923Y-80572176D01*
X165894691Y-80353250D01*
X165323813Y-80352752D01*
X164796200Y-80570757D01*
X164392176Y-80974077D01*
X164173250Y-81501309D01*
X164172752Y-82072187D01*
X164195049Y-82126149D01*
X163546599Y-82774599D01*
X163381852Y-83021161D01*
X163324000Y-83312000D01*
X163324000Y-90455354D01*
X163272200Y-90476757D01*
X162868176Y-90880077D01*
X162649250Y-91407309D01*
X162648752Y-91978187D01*
X155523550Y-91978187D01*
X155503767Y-91878736D01*
X155192698Y-91413189D01*
X154727151Y-91102120D01*
X154178000Y-90992887D01*
X153628849Y-91102120D01*
X153163302Y-91413189D01*
X152908000Y-91795275D01*
X152652698Y-91413189D01*
X152187151Y-91102120D01*
X151638000Y-90992887D01*
X151314114Y-91057312D01*
X148080000Y-87823198D01*
X148080000Y-83753667D01*
X148362811Y-83564698D01*
X148673880Y-83099151D01*
X148783113Y-82550000D01*
X148673880Y-82000849D01*
X148362811Y-81535302D01*
X147897264Y-81224233D01*
X147348113Y-81115000D01*
X147291887Y-81115000D01*
X146742736Y-81224233D01*
X146277189Y-81535302D01*
X145966120Y-82000849D01*
X145856887Y-82550000D01*
X145966120Y-83099151D01*
X146277189Y-83564698D01*
X146560000Y-83753667D01*
X146560000Y-88138000D01*
X146617852Y-88428839D01*
X146782599Y-88675401D01*
X149100603Y-90993405D01*
X149098000Y-90992887D01*
X148548849Y-91102120D01*
X148083302Y-91413189D01*
X147828000Y-91795275D01*
X147572698Y-91413189D01*
X147107151Y-91102120D01*
X146558000Y-90992887D01*
X146008849Y-91102120D01*
X145543302Y-91413189D01*
X145232233Y-91878736D01*
X145123000Y-92427887D01*
X140460000Y-92427887D01*
X140460000Y-83788646D01*
X140511800Y-83767243D01*
X140915824Y-83363923D01*
X141134750Y-82836691D01*
X141135248Y-82265813D01*
X140917243Y-81738200D01*
X140513923Y-81334176D01*
X139986691Y-81115250D01*
X139415813Y-81114752D01*
X138888200Y-81332757D01*
X138484176Y-81736077D01*
X138265250Y-82263309D01*
X138264752Y-82834187D01*
X138482757Y-83361800D01*
X138886077Y-83765824D01*
X138940000Y-83788215D01*
X138940000Y-108905198D01*
X138082964Y-109762234D01*
X137974670Y-109717267D01*
X137364009Y-109716735D01*
X136799629Y-109949932D01*
X136622159Y-110127092D01*
X136566327Y-109992301D01*
X136387698Y-109813673D01*
X136154309Y-109717000D01*
X135413750Y-109717000D01*
X135255000Y-109875750D01*
X135001000Y-109875750D01*
X134842250Y-109717000D01*
X134101691Y-109717000D01*
X133868302Y-109813673D01*
X133689673Y-109992301D01*
X133593000Y-110225690D01*
X118795000Y-110225690D01*
X118795000Y-103662187D01*
X121246752Y-103662187D01*
X121464757Y-104189800D01*
X121868077Y-104593824D01*
X122395309Y-104812750D01*
X122966187Y-104813248D01*
X123493800Y-104595243D01*
X123897824Y-104191923D01*
X124116750Y-103664691D01*
X124117000Y-103378000D01*
X128838887Y-103378000D01*
X128948120Y-103927151D01*
X129259189Y-104392698D01*
X129724736Y-104703767D01*
X130273887Y-104813000D01*
X130330113Y-104813000D01*
X130879264Y-104703767D01*
X131344811Y-104392698D01*
X131655880Y-103927151D01*
X131765113Y-103378000D01*
X131655880Y-102828849D01*
X131344811Y-102363302D01*
X130879264Y-102052233D01*
X130330113Y-101943000D01*
X130273887Y-101943000D01*
X129724736Y-102052233D01*
X129259189Y-102363302D01*
X128948120Y-102828849D01*
X128838887Y-103378000D01*
X124117000Y-103378000D01*
X124117248Y-103093813D01*
X123899243Y-102566200D01*
X123495923Y-102162176D01*
X122968691Y-101943250D01*
X122397813Y-101942752D01*
X121870200Y-102160757D01*
X121466176Y-102564077D01*
X121247250Y-103091309D01*
X121246752Y-103662187D01*
X118795000Y-103662187D01*
X118795000Y-74345000D01*
X186005000Y-74345000D01*
X186005000Y-137745000D01*
M02*
