M48
;DRILL file {KiCad 4.0.7} date 08/23/26 23:48:43
;FORMAT={-:-/ absolute / metric / decimal}
FMAT,2
METRIC,TZ
T1C0.800
T2C0.900
%
G90
G05
M71
T1
X122.682Y-103.378
X130.302Y-103.378
X139.7Y-82.55
X146.304Y-113.792
X146.304Y-121.412
X146.558Y-92.456
X146.558Y-100.076
X147.32Y-82.55
X148.082Y-106.172
X148.844Y-113.792
X148.844Y-121.412
X149.098Y-92.456
X149.098Y-100.076
X151.384Y-113.792
X151.384Y-121.412
X151.638Y-92.456
X151.638Y-100.076
X153.924Y-113.792
X153.924Y-121.412
X154.178Y-92.456
X154.178Y-100.076
X155.702Y-106.172
X159.258Y-101.346
X164.084Y-91.694
X164.592Y-127.508
X165.608Y-81.788
X166.878Y-101.346
X168.108Y-81.788
X170.18Y-97.536
X171.704Y-91.694
X172.212Y-127.508
X177.8Y-97.536
T2
X135.128Y-111.252
X137.668Y-111.252
X167.132Y-107.442
X169.672Y-107.442
T0
M30
