G04 #@! TF.FileFunction,Copper,L1,Top,Signal*
%FSLAX46Y46*%
G04 Gerber Fmt 4.6, Leading zero omitted, Abs format (unit mm)*
G04 Created by KiCad (PCBNEW 4.0.7) date 08/23/26 23:48:12*
%MOMM*%
%LPD*%
G01*
G04 APERTURE LIST*
%ADD10C,0.100000*%
%ADD11C,1.600000*%
%ADD12R,1.800000X1.800000*%
%ADD13C,1.800000*%
%ADD14O,1.600000X1.600000*%
%ADD15R,1.600000X1.600000*%
%ADD16C,0.250000*%
G04 APERTURE END LIST*
D10*
D11*
X165608000Y-81788000D03*
X168108000Y-81788000D03*
D12*
X135128000Y-111252000D03*
D13*
X137668000Y-111252000D03*
D12*
X167132000Y-107442000D03*
D13*
X169672000Y-107442000D03*
D11*
X164084000Y-91694000D03*
D14*
X171704000Y-91694000D03*
D11*
X159258000Y-101346000D03*
D14*
X166878000Y-101346000D03*
D11*
X170180000Y-97536000D03*
D14*
X177800000Y-97536000D03*
D11*
X122682000Y-103378000D03*
D14*
X130302000Y-103378000D03*
D11*
X148082000Y-106172000D03*
D14*
X155702000Y-106172000D03*
D11*
X164592000Y-127508000D03*
D14*
X172212000Y-127508000D03*
D11*
X139700000Y-82550000D03*
D14*
X147320000Y-82550000D03*
D15*
X146558000Y-100076000D03*
D14*
X154178000Y-92456000D03*
X149098000Y-100076000D03*
X151638000Y-92456000D03*
X151638000Y-100076000D03*
X149098000Y-92456000D03*
X154178000Y-100076000D03*
X146558000Y-92456000D03*
D15*
X153924000Y-113792000D03*
D14*
X146304000Y-121412000D03*
X151384000Y-113792000D03*
X148844000Y-121412000D03*
X148844000Y-113792000D03*
X151384000Y-121412000D03*
X146304000Y-113792000D03*
X153924000Y-121412000D03*
D16*
X149098000Y-92456000D02*
X149098000Y-88646000D01*
X149098000Y-88646000D02*
X150114000Y-87630000D01*
X150114000Y-87630000D02*
X160020000Y-87630000D01*
X160020000Y-87630000D02*
X164084000Y-91694000D01*
X135128000Y-111252000D02*
X135128000Y-113538000D01*
X135128000Y-113538000D02*
X135382000Y-113792000D01*
X135382000Y-113792000D02*
X146304000Y-113792000D01*
X146304000Y-113792000D02*
X146304000Y-113284000D01*
X146304000Y-113284000D02*
X153416000Y-106172000D01*
X153416000Y-106172000D02*
X155702000Y-106172000D01*
X151384000Y-113792000D02*
X151638000Y-113792000D01*
X151638000Y-113792000D02*
X159258000Y-106172000D01*
X159258000Y-106172000D02*
X159258000Y-101346000D01*
X151638000Y-100076000D02*
X151638000Y-97028000D01*
X151638000Y-97028000D02*
X166370000Y-97028000D01*
X166370000Y-97028000D02*
X166878000Y-97536000D01*
X166878000Y-97536000D02*
X166878000Y-101346000D01*
X122682000Y-103378000D02*
X122682000Y-108966000D01*
X122682000Y-108966000D02*
X139954000Y-126238000D01*
X139954000Y-126238000D02*
X146558000Y-126238000D01*
X146558000Y-126238000D02*
X151384000Y-121412000D01*
X130302000Y-103378000D02*
X145288000Y-103378000D01*
X145288000Y-103378000D02*
X148082000Y-106172000D01*
M02*
