%TF.GenerationSoftware,KiCad,Pcbnew,(6.0.11)*%
%TF.CreationDate,2026-08-11T11:19:42+05:30*%
%TF.ProjectId,Tiny_ml_hand_classifier,54696e79-5f6d-46c5-9f68-616e645f636c,rev?*%
%TF.SameCoordinates,Original*%
%TF.FileFunction,Legend,Top*%
%TF.FilePolarity,Positive*%
%FSLAX46Y46*%
G04 Gerber Fmt 4.6, Leading zero omitted, Abs format (unit mm)*
G04 Created by KiCad (PCBNEW (6.0.11)) date 2026-08-11 11:19:42*
%MOMM*%
%LPD*%
G01*
G04 APERTURE LIST*
%ADD10C,0.150000*%
%ADD11C,0.120000*%
%ADD12C,0.100000*%
G04 APERTURE END LIST*
D10*
%TO.C,SW2*%
X148486666Y-101874761D02*
X148629523Y-101922380D01*
X148867619Y-101922380D01*
X148962857Y-101874761D01*
X149010476Y-101827142D01*
X149058095Y-101731904D01*
X149058095Y-101636666D01*
X149010476Y-101541428D01*
X148962857Y-101493809D01*
X148867619Y-101446190D01*
X148677142Y-101398571D01*
X148581904Y-101350952D01*
X148534285Y-101303333D01*
X148486666Y-101208095D01*
X148486666Y-101112857D01*
X148534285Y-101017619D01*
X148581904Y-100970000D01*
X148677142Y-100922380D01*
X148915238Y-100922380D01*
X149058095Y-100970000D01*
X149391428Y-100922380D02*
X149629523Y-101922380D01*
X149820000Y-101208095D01*
X150010476Y-101922380D01*
X150248571Y-100922380D01*
X150581904Y-101017619D02*
X150629523Y-100970000D01*
X150724761Y-100922380D01*
X150962857Y-100922380D01*
X151058095Y-100970000D01*
X151105714Y-101017619D01*
X151153333Y-101112857D01*
X151153333Y-101208095D01*
X151105714Y-101350952D01*
X150534285Y-101922380D01*
X151153333Y-101922380D01*
%TO.C,SW1*%
X148526666Y-88643633D02*
X148669523Y-88691252D01*
X148907619Y-88691252D01*
X149002857Y-88643633D01*
X149050476Y-88596014D01*
X149098095Y-88500776D01*
X149098095Y-88405538D01*
X149050476Y-88310300D01*
X149002857Y-88262681D01*
X148907619Y-88215062D01*
X148717142Y-88167443D01*
X148621904Y-88119824D01*
X148574285Y-88072205D01*
X148526666Y-87976967D01*
X148526666Y-87881729D01*
X148574285Y-87786491D01*
X148621904Y-87738872D01*
X148717142Y-87691252D01*
X148955238Y-87691252D01*
X149098095Y-87738872D01*
X149431428Y-87691252D02*
X149669523Y-88691252D01*
X149860000Y-87976967D01*
X150050476Y-88691252D01*
X150288571Y-87691252D01*
X151193333Y-88691252D02*
X150621904Y-88691252D01*
X150907619Y-88691252D02*
X150907619Y-87691252D01*
X150812380Y-87834110D01*
X150717142Y-87929348D01*
X150621904Y-87976967D01*
%TO.C,C4*%
X94813333Y-98207142D02*
X94765714Y-98254761D01*
X94622857Y-98302380D01*
X94527619Y-98302380D01*
X94384761Y-98254761D01*
X94289523Y-98159523D01*
X94241904Y-98064285D01*
X94194285Y-97873809D01*
X94194285Y-97730952D01*
X94241904Y-97540476D01*
X94289523Y-97445238D01*
X94384761Y-97350000D01*
X94527619Y-97302380D01*
X94622857Y-97302380D01*
X94765714Y-97350000D01*
X94813333Y-97397619D01*
X95670476Y-97635714D02*
X95670476Y-98302380D01*
X95432380Y-97254761D02*
X95194285Y-97969047D01*
X95813333Y-97969047D01*
%TO.C,C2*%
X84653333Y-98207142D02*
X84605714Y-98254761D01*
X84462857Y-98302380D01*
X84367619Y-98302380D01*
X84224761Y-98254761D01*
X84129523Y-98159523D01*
X84081904Y-98064285D01*
X84034285Y-97873809D01*
X84034285Y-97730952D01*
X84081904Y-97540476D01*
X84129523Y-97445238D01*
X84224761Y-97350000D01*
X84367619Y-97302380D01*
X84462857Y-97302380D01*
X84605714Y-97350000D01*
X84653333Y-97397619D01*
X85034285Y-97397619D02*
X85081904Y-97350000D01*
X85177142Y-97302380D01*
X85415238Y-97302380D01*
X85510476Y-97350000D01*
X85558095Y-97397619D01*
X85605714Y-97492857D01*
X85605714Y-97588095D01*
X85558095Y-97730952D01*
X84986666Y-98302380D01*
X85605714Y-98302380D01*
%TO.C,C1*%
X94813333Y-85507142D02*
X94765714Y-85554761D01*
X94622857Y-85602380D01*
X94527619Y-85602380D01*
X94384761Y-85554761D01*
X94289523Y-85459523D01*
X94241904Y-85364285D01*
X94194285Y-85173809D01*
X94194285Y-85030952D01*
X94241904Y-84840476D01*
X94289523Y-84745238D01*
X94384761Y-84650000D01*
X94527619Y-84602380D01*
X94622857Y-84602380D01*
X94765714Y-84650000D01*
X94813333Y-84697619D01*
X95765714Y-85602380D02*
X95194285Y-85602380D01*
X95480000Y-85602380D02*
X95480000Y-84602380D01*
X95384761Y-84745238D01*
X95289523Y-84840476D01*
X95194285Y-84888095D01*
%TO.C,C3*%
X138243333Y-94627142D02*
X138195714Y-94674761D01*
X138052857Y-94722380D01*
X137957619Y-94722380D01*
X137814761Y-94674761D01*
X137719523Y-94579523D01*
X137671904Y-94484285D01*
X137624285Y-94293809D01*
X137624285Y-94150952D01*
X137671904Y-93960476D01*
X137719523Y-93865238D01*
X137814761Y-93770000D01*
X137957619Y-93722380D01*
X138052857Y-93722380D01*
X138195714Y-93770000D01*
X138243333Y-93817619D01*
X138576666Y-93722380D02*
X139195714Y-93722380D01*
X138862380Y-94103333D01*
X139005238Y-94103333D01*
X139100476Y-94150952D01*
X139148095Y-94198571D01*
X139195714Y-94293809D01*
X139195714Y-94531904D01*
X139148095Y-94627142D01*
X139100476Y-94674761D01*
X139005238Y-94722380D01*
X138719523Y-94722380D01*
X138624285Y-94674761D01*
X138576666Y-94627142D01*
%TO.C,J3*%
X80311666Y-108247380D02*
X80311666Y-108961666D01*
X80264047Y-109104523D01*
X80168809Y-109199761D01*
X80025952Y-109247380D01*
X79930714Y-109247380D01*
X80692619Y-108247380D02*
X81311666Y-108247380D01*
X80978333Y-108628333D01*
X81121190Y-108628333D01*
X81216428Y-108675952D01*
X81264047Y-108723571D01*
X81311666Y-108818809D01*
X81311666Y-109056904D01*
X81264047Y-109152142D01*
X81216428Y-109199761D01*
X81121190Y-109247380D01*
X80835476Y-109247380D01*
X80740238Y-109199761D01*
X80692619Y-109152142D01*
%TO.C,J2*%
X144446666Y-70817380D02*
X144446666Y-71531666D01*
X144399047Y-71674523D01*
X144303809Y-71769761D01*
X144160952Y-71817380D01*
X144065714Y-71817380D01*
X144875238Y-70912619D02*
X144922857Y-70865000D01*
X145018095Y-70817380D01*
X145256190Y-70817380D01*
X145351428Y-70865000D01*
X145399047Y-70912619D01*
X145446666Y-71007857D01*
X145446666Y-71103095D01*
X145399047Y-71245952D01*
X144827619Y-71817380D01*
X145446666Y-71817380D01*
%TO.C,D1*%
X114831904Y-116872380D02*
X114831904Y-115872380D01*
X115070000Y-115872380D01*
X115212857Y-115920000D01*
X115308095Y-116015238D01*
X115355714Y-116110476D01*
X115403333Y-116300952D01*
X115403333Y-116443809D01*
X115355714Y-116634285D01*
X115308095Y-116729523D01*
X115212857Y-116824761D01*
X115070000Y-116872380D01*
X114831904Y-116872380D01*
X116355714Y-116872380D02*
X115784285Y-116872380D01*
X116070000Y-116872380D02*
X116070000Y-115872380D01*
X115974761Y-116015238D01*
X115879523Y-116110476D01*
X115784285Y-116158095D01*
%TO.C,U1*%
X83058095Y-83852380D02*
X83058095Y-84661904D01*
X83105714Y-84757142D01*
X83153333Y-84804761D01*
X83248571Y-84852380D01*
X83439047Y-84852380D01*
X83534285Y-84804761D01*
X83581904Y-84757142D01*
X83629523Y-84661904D01*
X83629523Y-83852380D01*
X84629523Y-84852380D02*
X84058095Y-84852380D01*
X84343809Y-84852380D02*
X84343809Y-83852380D01*
X84248571Y-83995238D01*
X84153333Y-84090476D01*
X84058095Y-84138095D01*
%TO.C,R5*%
X105243333Y-117462380D02*
X104910000Y-116986190D01*
X104671904Y-117462380D02*
X104671904Y-116462380D01*
X105052857Y-116462380D01*
X105148095Y-116510000D01*
X105195714Y-116557619D01*
X105243333Y-116652857D01*
X105243333Y-116795714D01*
X105195714Y-116890952D01*
X105148095Y-116938571D01*
X105052857Y-116986190D01*
X104671904Y-116986190D01*
X106148095Y-116462380D02*
X105671904Y-116462380D01*
X105624285Y-116938571D01*
X105671904Y-116890952D01*
X105767142Y-116843333D01*
X106005238Y-116843333D01*
X106100476Y-116890952D01*
X106148095Y-116938571D01*
X106195714Y-117033809D01*
X106195714Y-117271904D01*
X106148095Y-117367142D01*
X106100476Y-117414761D01*
X106005238Y-117462380D01*
X105767142Y-117462380D01*
X105671904Y-117414761D01*
X105624285Y-117367142D01*
%TO.C,R4*%
X92543333Y-117462380D02*
X92210000Y-116986190D01*
X91971904Y-117462380D02*
X91971904Y-116462380D01*
X92352857Y-116462380D01*
X92448095Y-116510000D01*
X92495714Y-116557619D01*
X92543333Y-116652857D01*
X92543333Y-116795714D01*
X92495714Y-116890952D01*
X92448095Y-116938571D01*
X92352857Y-116986190D01*
X91971904Y-116986190D01*
X93400476Y-116795714D02*
X93400476Y-117462380D01*
X93162380Y-116414761D02*
X92924285Y-117129047D01*
X93543333Y-117129047D01*
%TO.C,R3*%
X92543333Y-109842380D02*
X92210000Y-109366190D01*
X91971904Y-109842380D02*
X91971904Y-108842380D01*
X92352857Y-108842380D01*
X92448095Y-108890000D01*
X92495714Y-108937619D01*
X92543333Y-109032857D01*
X92543333Y-109175714D01*
X92495714Y-109270952D01*
X92448095Y-109318571D01*
X92352857Y-109366190D01*
X91971904Y-109366190D01*
X92876666Y-108842380D02*
X93495714Y-108842380D01*
X93162380Y-109223333D01*
X93305238Y-109223333D01*
X93400476Y-109270952D01*
X93448095Y-109318571D01*
X93495714Y-109413809D01*
X93495714Y-109651904D01*
X93448095Y-109747142D01*
X93400476Y-109794761D01*
X93305238Y-109842380D01*
X93019523Y-109842380D01*
X92924285Y-109794761D01*
X92876666Y-109747142D01*
%TO.C,R2*%
X138263333Y-102222380D02*
X137930000Y-101746190D01*
X137691904Y-102222380D02*
X137691904Y-101222380D01*
X138072857Y-101222380D01*
X138168095Y-101270000D01*
X138215714Y-101317619D01*
X138263333Y-101412857D01*
X138263333Y-101555714D01*
X138215714Y-101650952D01*
X138168095Y-101698571D01*
X138072857Y-101746190D01*
X137691904Y-101746190D01*
X138644285Y-101317619D02*
X138691904Y-101270000D01*
X138787142Y-101222380D01*
X139025238Y-101222380D01*
X139120476Y-101270000D01*
X139168095Y-101317619D01*
X139215714Y-101412857D01*
X139215714Y-101508095D01*
X139168095Y-101650952D01*
X138596666Y-102222380D01*
X139215714Y-102222380D01*
%TO.C,R1*%
X138263333Y-86982380D02*
X137930000Y-86506190D01*
X137691904Y-86982380D02*
X137691904Y-85982380D01*
X138072857Y-85982380D01*
X138168095Y-86030000D01*
X138215714Y-86077619D01*
X138263333Y-86172857D01*
X138263333Y-86315714D01*
X138215714Y-86410952D01*
X138168095Y-86458571D01*
X138072857Y-86506190D01*
X137691904Y-86506190D01*
X139215714Y-86982380D02*
X138644285Y-86982380D01*
X138930000Y-86982380D02*
X138930000Y-85982380D01*
X138834761Y-86125238D01*
X138739523Y-86220476D01*
X138644285Y-86268095D01*
%TO.C,J1*%
X83486666Y-69457380D02*
X83486666Y-70171666D01*
X83439047Y-70314523D01*
X83343809Y-70409761D01*
X83200952Y-70457380D01*
X83105714Y-70457380D01*
X84486666Y-70457380D02*
X83915238Y-70457380D01*
X84200952Y-70457380D02*
X84200952Y-69457380D01*
X84105714Y-69600238D01*
X84010476Y-69695476D01*
X83915238Y-69743095D01*
%TO.C,U2*%
X128238095Y-112452380D02*
X128238095Y-113261904D01*
X128285714Y-113357142D01*
X128333333Y-113404761D01*
X128428571Y-113452380D01*
X128619047Y-113452380D01*
X128714285Y-113404761D01*
X128761904Y-113357142D01*
X128809523Y-113261904D01*
X128809523Y-112452380D01*
X129238095Y-112547619D02*
X129285714Y-112500000D01*
X129380952Y-112452380D01*
X129619047Y-112452380D01*
X129714285Y-112500000D01*
X129761904Y-112547619D01*
X129809523Y-112642857D01*
X129809523Y-112738095D01*
X129761904Y-112880952D01*
X129190476Y-113452380D01*
X129809523Y-113452380D01*
D11*
%TO.C,SW2*%
X153320000Y-106470000D02*
X153320000Y-104970000D01*
X152070000Y-102470000D02*
X147570000Y-102470000D01*
X146320000Y-104970000D02*
X146320000Y-106470000D01*
X147570000Y-108970000D02*
X152070000Y-108970000D01*
%TO.C,SW1*%
X153360000Y-93238872D02*
X153360000Y-91738872D01*
X152110000Y-89238872D02*
X147610000Y-89238872D01*
X146360000Y-91738872D02*
X146360000Y-93238872D01*
X147610000Y-95738872D02*
X152110000Y-95738872D01*
%TO.C,C4*%
X96981000Y-102640000D02*
X96981000Y-103253000D01*
X96301000Y-102640000D02*
X96301000Y-103824000D01*
X95180000Y-102640000D02*
X95180000Y-104173000D01*
X96221000Y-99332000D02*
X96221000Y-100560000D01*
X96101000Y-99271000D02*
X96101000Y-100560000D01*
X96141000Y-99290000D02*
X96141000Y-100560000D01*
X96661000Y-99629000D02*
X96661000Y-100560000D01*
X96941000Y-102640000D02*
X96941000Y-103299000D01*
X96621000Y-102640000D02*
X96621000Y-103604000D01*
X95140000Y-99024000D02*
X95140000Y-100560000D01*
X96541000Y-99535000D02*
X96541000Y-100560000D01*
X95020000Y-102640000D02*
X95020000Y-104180000D01*
X95701000Y-102640000D02*
X95701000Y-104080000D01*
X95861000Y-99172000D02*
X95861000Y-100560000D01*
X95901000Y-99186000D02*
X95901000Y-100560000D01*
X96741000Y-99699000D02*
X96741000Y-100560000D01*
X95580000Y-99089000D02*
X95580000Y-100560000D01*
X95220000Y-102640000D02*
X95220000Y-104169000D01*
X95821000Y-102640000D02*
X95821000Y-104042000D01*
X95540000Y-102640000D02*
X95540000Y-104120000D01*
X96261000Y-102640000D02*
X96261000Y-103847000D01*
X96381000Y-102640000D02*
X96381000Y-103775000D01*
X95100000Y-102640000D02*
X95100000Y-104178000D01*
X95500000Y-99072000D02*
X95500000Y-100560000D01*
X96421000Y-99451000D02*
X96421000Y-100560000D01*
X96821000Y-99774000D02*
X96821000Y-100560000D01*
X96981000Y-99947000D02*
X96981000Y-100560000D01*
X96021000Y-102640000D02*
X96021000Y-103965000D01*
X94980000Y-99020000D02*
X94980000Y-100560000D01*
X95300000Y-99039000D02*
X95300000Y-100560000D01*
X96021000Y-99235000D02*
X96021000Y-100560000D01*
X95460000Y-99064000D02*
X95460000Y-100560000D01*
X97461000Y-100795000D02*
X97461000Y-102405000D01*
X97261000Y-100349000D02*
X97261000Y-102851000D01*
X97101000Y-100100000D02*
X97101000Y-103100000D01*
X95340000Y-102640000D02*
X95340000Y-104156000D01*
X96061000Y-102640000D02*
X96061000Y-103948000D01*
X97501000Y-100923000D02*
X97501000Y-102277000D01*
X96541000Y-102640000D02*
X96541000Y-103665000D01*
X96501000Y-102640000D02*
X96501000Y-103695000D01*
X95741000Y-99132000D02*
X95741000Y-100560000D01*
X95981000Y-102640000D02*
X95981000Y-103982000D01*
X95861000Y-102640000D02*
X95861000Y-104028000D01*
X96061000Y-99252000D02*
X96061000Y-100560000D01*
X96221000Y-102640000D02*
X96221000Y-103868000D01*
X96861000Y-99815000D02*
X96861000Y-100560000D01*
X96501000Y-99505000D02*
X96501000Y-100560000D01*
X95300000Y-102640000D02*
X95300000Y-104161000D01*
X95901000Y-102640000D02*
X95901000Y-104014000D01*
X95941000Y-102640000D02*
X95941000Y-103998000D01*
X95140000Y-102640000D02*
X95140000Y-104176000D01*
X95981000Y-99218000D02*
X95981000Y-100560000D01*
X95660000Y-99109000D02*
X95660000Y-100560000D01*
X97381000Y-100589000D02*
X97381000Y-102611000D01*
X97061000Y-100046000D02*
X97061000Y-103154000D01*
X97421000Y-100685000D02*
X97421000Y-102515000D01*
X92175225Y-100125000D02*
X92675225Y-100125000D01*
X94980000Y-102640000D02*
X94980000Y-104180000D01*
X95781000Y-99145000D02*
X95781000Y-100560000D01*
X96461000Y-99478000D02*
X96461000Y-100560000D01*
X96181000Y-102640000D02*
X96181000Y-103890000D01*
X96341000Y-99400000D02*
X96341000Y-100560000D01*
X96781000Y-99736000D02*
X96781000Y-100560000D01*
X96901000Y-102640000D02*
X96901000Y-103343000D01*
X97341000Y-100502000D02*
X97341000Y-102698000D01*
X95100000Y-99022000D02*
X95100000Y-100560000D01*
X95260000Y-99035000D02*
X95260000Y-100560000D01*
X95060000Y-99021000D02*
X95060000Y-100560000D01*
X95180000Y-99027000D02*
X95180000Y-100560000D01*
X96781000Y-102640000D02*
X96781000Y-103464000D01*
X96101000Y-102640000D02*
X96101000Y-103929000D01*
X97541000Y-101082000D02*
X97541000Y-102118000D01*
X97581000Y-101316000D02*
X97581000Y-101884000D01*
X95580000Y-102640000D02*
X95580000Y-104111000D01*
X96701000Y-102640000D02*
X96701000Y-103537000D01*
X96141000Y-102640000D02*
X96141000Y-103910000D01*
X95380000Y-102640000D02*
X95380000Y-104150000D01*
X97221000Y-100281000D02*
X97221000Y-102919000D01*
X97181000Y-100217000D02*
X97181000Y-102983000D01*
X95941000Y-99202000D02*
X95941000Y-100560000D01*
X96261000Y-99353000D02*
X96261000Y-100560000D01*
X97301000Y-100422000D02*
X97301000Y-102778000D01*
X96341000Y-102640000D02*
X96341000Y-103800000D01*
X96901000Y-99857000D02*
X96901000Y-100560000D01*
X96581000Y-99565000D02*
X96581000Y-100560000D01*
X97021000Y-99995000D02*
X97021000Y-103205000D01*
X96461000Y-102640000D02*
X96461000Y-103722000D01*
X95741000Y-102640000D02*
X95741000Y-104068000D01*
X95500000Y-102640000D02*
X95500000Y-104128000D01*
X95821000Y-99158000D02*
X95821000Y-100560000D01*
X95340000Y-99044000D02*
X95340000Y-100560000D01*
X95420000Y-102640000D02*
X95420000Y-104143000D01*
X97141000Y-100157000D02*
X97141000Y-103043000D01*
X96821000Y-102640000D02*
X96821000Y-103426000D01*
X95781000Y-102640000D02*
X95781000Y-104055000D01*
X95260000Y-102640000D02*
X95260000Y-104165000D01*
X95060000Y-102640000D02*
X95060000Y-104179000D01*
X95660000Y-102640000D02*
X95660000Y-104091000D01*
X96861000Y-102640000D02*
X96861000Y-103385000D01*
X95701000Y-99120000D02*
X95701000Y-100560000D01*
X96621000Y-99596000D02*
X96621000Y-100560000D01*
X96421000Y-102640000D02*
X96421000Y-103749000D01*
X96381000Y-99425000D02*
X96381000Y-100560000D01*
X96181000Y-99310000D02*
X96181000Y-100560000D01*
X95220000Y-99031000D02*
X95220000Y-100560000D01*
X96701000Y-99663000D02*
X96701000Y-100560000D01*
X95420000Y-99057000D02*
X95420000Y-100560000D01*
X95620000Y-102640000D02*
X95620000Y-104101000D01*
X96301000Y-99376000D02*
X96301000Y-100560000D01*
X92425225Y-99875000D02*
X92425225Y-100375000D01*
X95380000Y-99050000D02*
X95380000Y-100560000D01*
X96661000Y-102640000D02*
X96661000Y-103571000D01*
X95460000Y-102640000D02*
X95460000Y-104136000D01*
X95540000Y-99080000D02*
X95540000Y-100560000D01*
X96581000Y-102640000D02*
X96581000Y-103635000D01*
X96741000Y-102640000D02*
X96741000Y-103501000D01*
X95020000Y-99020000D02*
X95020000Y-100560000D01*
X95620000Y-99099000D02*
X95620000Y-100560000D01*
X96941000Y-99901000D02*
X96941000Y-100560000D01*
X97600000Y-101600000D02*
G75*
G03*
X97600000Y-101600000I-2620000J0D01*
G01*
%TO.C,C2*%
X86821000Y-102640000D02*
X86821000Y-103253000D01*
X86141000Y-102640000D02*
X86141000Y-103824000D01*
X85020000Y-102640000D02*
X85020000Y-104173000D01*
X86061000Y-99332000D02*
X86061000Y-100560000D01*
X85941000Y-99271000D02*
X85941000Y-100560000D01*
X85981000Y-99290000D02*
X85981000Y-100560000D01*
X86501000Y-99629000D02*
X86501000Y-100560000D01*
X86781000Y-102640000D02*
X86781000Y-103299000D01*
X86461000Y-102640000D02*
X86461000Y-103604000D01*
X84980000Y-99024000D02*
X84980000Y-100560000D01*
X86381000Y-99535000D02*
X86381000Y-100560000D01*
X84860000Y-102640000D02*
X84860000Y-104180000D01*
X85541000Y-102640000D02*
X85541000Y-104080000D01*
X85701000Y-99172000D02*
X85701000Y-100560000D01*
X85741000Y-99186000D02*
X85741000Y-100560000D01*
X86581000Y-99699000D02*
X86581000Y-100560000D01*
X85420000Y-99089000D02*
X85420000Y-100560000D01*
X85060000Y-102640000D02*
X85060000Y-104169000D01*
X85661000Y-102640000D02*
X85661000Y-104042000D01*
X85380000Y-102640000D02*
X85380000Y-104120000D01*
X86101000Y-102640000D02*
X86101000Y-103847000D01*
X86221000Y-102640000D02*
X86221000Y-103775000D01*
X84940000Y-102640000D02*
X84940000Y-104178000D01*
X85340000Y-99072000D02*
X85340000Y-100560000D01*
X86261000Y-99451000D02*
X86261000Y-100560000D01*
X86661000Y-99774000D02*
X86661000Y-100560000D01*
X86821000Y-99947000D02*
X86821000Y-100560000D01*
X85861000Y-102640000D02*
X85861000Y-103965000D01*
X84820000Y-99020000D02*
X84820000Y-100560000D01*
X85140000Y-99039000D02*
X85140000Y-100560000D01*
X85861000Y-99235000D02*
X85861000Y-100560000D01*
X85300000Y-99064000D02*
X85300000Y-100560000D01*
X87301000Y-100795000D02*
X87301000Y-102405000D01*
X87101000Y-100349000D02*
X87101000Y-102851000D01*
X86941000Y-100100000D02*
X86941000Y-103100000D01*
X85180000Y-102640000D02*
X85180000Y-104156000D01*
X85901000Y-102640000D02*
X85901000Y-103948000D01*
X87341000Y-100923000D02*
X87341000Y-102277000D01*
X86381000Y-102640000D02*
X86381000Y-103665000D01*
X86341000Y-102640000D02*
X86341000Y-103695000D01*
X85581000Y-99132000D02*
X85581000Y-100560000D01*
X85821000Y-102640000D02*
X85821000Y-103982000D01*
X85701000Y-102640000D02*
X85701000Y-104028000D01*
X85901000Y-99252000D02*
X85901000Y-100560000D01*
X86061000Y-102640000D02*
X86061000Y-103868000D01*
X86701000Y-99815000D02*
X86701000Y-100560000D01*
X86341000Y-99505000D02*
X86341000Y-100560000D01*
X85140000Y-102640000D02*
X85140000Y-104161000D01*
X85741000Y-102640000D02*
X85741000Y-104014000D01*
X85781000Y-102640000D02*
X85781000Y-103998000D01*
X84980000Y-102640000D02*
X84980000Y-104176000D01*
X85821000Y-99218000D02*
X85821000Y-100560000D01*
X85500000Y-99109000D02*
X85500000Y-100560000D01*
X87221000Y-100589000D02*
X87221000Y-102611000D01*
X86901000Y-100046000D02*
X86901000Y-103154000D01*
X87261000Y-100685000D02*
X87261000Y-102515000D01*
X82015225Y-100125000D02*
X82515225Y-100125000D01*
X84820000Y-102640000D02*
X84820000Y-104180000D01*
X85621000Y-99145000D02*
X85621000Y-100560000D01*
X86301000Y-99478000D02*
X86301000Y-100560000D01*
X86021000Y-102640000D02*
X86021000Y-103890000D01*
X86181000Y-99400000D02*
X86181000Y-100560000D01*
X86621000Y-99736000D02*
X86621000Y-100560000D01*
X86741000Y-102640000D02*
X86741000Y-103343000D01*
X87181000Y-100502000D02*
X87181000Y-102698000D01*
X84940000Y-99022000D02*
X84940000Y-100560000D01*
X85100000Y-99035000D02*
X85100000Y-100560000D01*
X84900000Y-99021000D02*
X84900000Y-100560000D01*
X85020000Y-99027000D02*
X85020000Y-100560000D01*
X86621000Y-102640000D02*
X86621000Y-103464000D01*
X85941000Y-102640000D02*
X85941000Y-103929000D01*
X87381000Y-101082000D02*
X87381000Y-102118000D01*
X87421000Y-101316000D02*
X87421000Y-101884000D01*
X85420000Y-102640000D02*
X85420000Y-104111000D01*
X86541000Y-102640000D02*
X86541000Y-103537000D01*
X85981000Y-102640000D02*
X85981000Y-103910000D01*
X85220000Y-102640000D02*
X85220000Y-104150000D01*
X87061000Y-100281000D02*
X87061000Y-102919000D01*
X87021000Y-100217000D02*
X87021000Y-102983000D01*
X85781000Y-99202000D02*
X85781000Y-100560000D01*
X86101000Y-99353000D02*
X86101000Y-100560000D01*
X87141000Y-100422000D02*
X87141000Y-102778000D01*
X86181000Y-102640000D02*
X86181000Y-103800000D01*
X86741000Y-99857000D02*
X86741000Y-100560000D01*
X86421000Y-99565000D02*
X86421000Y-100560000D01*
X86861000Y-99995000D02*
X86861000Y-103205000D01*
X86301000Y-102640000D02*
X86301000Y-103722000D01*
X85581000Y-102640000D02*
X85581000Y-104068000D01*
X85340000Y-102640000D02*
X85340000Y-104128000D01*
X85661000Y-99158000D02*
X85661000Y-100560000D01*
X85180000Y-99044000D02*
X85180000Y-100560000D01*
X85260000Y-102640000D02*
X85260000Y-104143000D01*
X86981000Y-100157000D02*
X86981000Y-103043000D01*
X86661000Y-102640000D02*
X86661000Y-103426000D01*
X85621000Y-102640000D02*
X85621000Y-104055000D01*
X85100000Y-102640000D02*
X85100000Y-104165000D01*
X84900000Y-102640000D02*
X84900000Y-104179000D01*
X85500000Y-102640000D02*
X85500000Y-104091000D01*
X86701000Y-102640000D02*
X86701000Y-103385000D01*
X85541000Y-99120000D02*
X85541000Y-100560000D01*
X86461000Y-99596000D02*
X86461000Y-100560000D01*
X86261000Y-102640000D02*
X86261000Y-103749000D01*
X86221000Y-99425000D02*
X86221000Y-100560000D01*
X86021000Y-99310000D02*
X86021000Y-100560000D01*
X85060000Y-99031000D02*
X85060000Y-100560000D01*
X86541000Y-99663000D02*
X86541000Y-100560000D01*
X85260000Y-99057000D02*
X85260000Y-100560000D01*
X85460000Y-102640000D02*
X85460000Y-104101000D01*
X86141000Y-99376000D02*
X86141000Y-100560000D01*
X82265225Y-99875000D02*
X82265225Y-100375000D01*
X85220000Y-99050000D02*
X85220000Y-100560000D01*
X86501000Y-102640000D02*
X86501000Y-103571000D01*
X85300000Y-102640000D02*
X85300000Y-104136000D01*
X85380000Y-99080000D02*
X85380000Y-100560000D01*
X86421000Y-102640000D02*
X86421000Y-103635000D01*
X86581000Y-102640000D02*
X86581000Y-103501000D01*
X84860000Y-99020000D02*
X84860000Y-100560000D01*
X85460000Y-99099000D02*
X85460000Y-100560000D01*
X86781000Y-99901000D02*
X86781000Y-100560000D01*
X87440000Y-101600000D02*
G75*
G03*
X87440000Y-101600000I-2620000J0D01*
G01*
%TO.C,C1*%
X96981000Y-89940000D02*
X96981000Y-90553000D01*
X96301000Y-89940000D02*
X96301000Y-91124000D01*
X95180000Y-89940000D02*
X95180000Y-91473000D01*
X96221000Y-86632000D02*
X96221000Y-87860000D01*
X96101000Y-86571000D02*
X96101000Y-87860000D01*
X96141000Y-86590000D02*
X96141000Y-87860000D01*
X96661000Y-86929000D02*
X96661000Y-87860000D01*
X96941000Y-89940000D02*
X96941000Y-90599000D01*
X96621000Y-89940000D02*
X96621000Y-90904000D01*
X95140000Y-86324000D02*
X95140000Y-87860000D01*
X96541000Y-86835000D02*
X96541000Y-87860000D01*
X95020000Y-89940000D02*
X95020000Y-91480000D01*
X95701000Y-89940000D02*
X95701000Y-91380000D01*
X95861000Y-86472000D02*
X95861000Y-87860000D01*
X95901000Y-86486000D02*
X95901000Y-87860000D01*
X96741000Y-86999000D02*
X96741000Y-87860000D01*
X95580000Y-86389000D02*
X95580000Y-87860000D01*
X95220000Y-89940000D02*
X95220000Y-91469000D01*
X95821000Y-89940000D02*
X95821000Y-91342000D01*
X95540000Y-89940000D02*
X95540000Y-91420000D01*
X96261000Y-89940000D02*
X96261000Y-91147000D01*
X96381000Y-89940000D02*
X96381000Y-91075000D01*
X95100000Y-89940000D02*
X95100000Y-91478000D01*
X95500000Y-86372000D02*
X95500000Y-87860000D01*
X96421000Y-86751000D02*
X96421000Y-87860000D01*
X96821000Y-87074000D02*
X96821000Y-87860000D01*
X96981000Y-87247000D02*
X96981000Y-87860000D01*
X96021000Y-89940000D02*
X96021000Y-91265000D01*
X94980000Y-86320000D02*
X94980000Y-87860000D01*
X95300000Y-86339000D02*
X95300000Y-87860000D01*
X96021000Y-86535000D02*
X96021000Y-87860000D01*
X95460000Y-86364000D02*
X95460000Y-87860000D01*
X97461000Y-88095000D02*
X97461000Y-89705000D01*
X97261000Y-87649000D02*
X97261000Y-90151000D01*
X97101000Y-87400000D02*
X97101000Y-90400000D01*
X95340000Y-89940000D02*
X95340000Y-91456000D01*
X96061000Y-89940000D02*
X96061000Y-91248000D01*
X97501000Y-88223000D02*
X97501000Y-89577000D01*
X96541000Y-89940000D02*
X96541000Y-90965000D01*
X96501000Y-89940000D02*
X96501000Y-90995000D01*
X95741000Y-86432000D02*
X95741000Y-87860000D01*
X95981000Y-89940000D02*
X95981000Y-91282000D01*
X95861000Y-89940000D02*
X95861000Y-91328000D01*
X96061000Y-86552000D02*
X96061000Y-87860000D01*
X96221000Y-89940000D02*
X96221000Y-91168000D01*
X96861000Y-87115000D02*
X96861000Y-87860000D01*
X96501000Y-86805000D02*
X96501000Y-87860000D01*
X95300000Y-89940000D02*
X95300000Y-91461000D01*
X95901000Y-89940000D02*
X95901000Y-91314000D01*
X95941000Y-89940000D02*
X95941000Y-91298000D01*
X95140000Y-89940000D02*
X95140000Y-91476000D01*
X95981000Y-86518000D02*
X95981000Y-87860000D01*
X95660000Y-86409000D02*
X95660000Y-87860000D01*
X97381000Y-87889000D02*
X97381000Y-89911000D01*
X97061000Y-87346000D02*
X97061000Y-90454000D01*
X97421000Y-87985000D02*
X97421000Y-89815000D01*
X92175225Y-87425000D02*
X92675225Y-87425000D01*
X94980000Y-89940000D02*
X94980000Y-91480000D01*
X95781000Y-86445000D02*
X95781000Y-87860000D01*
X96461000Y-86778000D02*
X96461000Y-87860000D01*
X96181000Y-89940000D02*
X96181000Y-91190000D01*
X96341000Y-86700000D02*
X96341000Y-87860000D01*
X96781000Y-87036000D02*
X96781000Y-87860000D01*
X96901000Y-89940000D02*
X96901000Y-90643000D01*
X97341000Y-87802000D02*
X97341000Y-89998000D01*
X95100000Y-86322000D02*
X95100000Y-87860000D01*
X95260000Y-86335000D02*
X95260000Y-87860000D01*
X95060000Y-86321000D02*
X95060000Y-87860000D01*
X95180000Y-86327000D02*
X95180000Y-87860000D01*
X96781000Y-89940000D02*
X96781000Y-90764000D01*
X96101000Y-89940000D02*
X96101000Y-91229000D01*
X97541000Y-88382000D02*
X97541000Y-89418000D01*
X97581000Y-88616000D02*
X97581000Y-89184000D01*
X95580000Y-89940000D02*
X95580000Y-91411000D01*
X96701000Y-89940000D02*
X96701000Y-90837000D01*
X96141000Y-89940000D02*
X96141000Y-91210000D01*
X95380000Y-89940000D02*
X95380000Y-91450000D01*
X97221000Y-87581000D02*
X97221000Y-90219000D01*
X97181000Y-87517000D02*
X97181000Y-90283000D01*
X95941000Y-86502000D02*
X95941000Y-87860000D01*
X96261000Y-86653000D02*
X96261000Y-87860000D01*
X97301000Y-87722000D02*
X97301000Y-90078000D01*
X96341000Y-89940000D02*
X96341000Y-91100000D01*
X96901000Y-87157000D02*
X96901000Y-87860000D01*
X96581000Y-86865000D02*
X96581000Y-87860000D01*
X97021000Y-87295000D02*
X97021000Y-90505000D01*
X96461000Y-89940000D02*
X96461000Y-91022000D01*
X95741000Y-89940000D02*
X95741000Y-91368000D01*
X95500000Y-89940000D02*
X95500000Y-91428000D01*
X95821000Y-86458000D02*
X95821000Y-87860000D01*
X95340000Y-86344000D02*
X95340000Y-87860000D01*
X95420000Y-89940000D02*
X95420000Y-91443000D01*
X97141000Y-87457000D02*
X97141000Y-90343000D01*
X96821000Y-89940000D02*
X96821000Y-90726000D01*
X95781000Y-89940000D02*
X95781000Y-91355000D01*
X95260000Y-89940000D02*
X95260000Y-91465000D01*
X95060000Y-89940000D02*
X95060000Y-91479000D01*
X95660000Y-89940000D02*
X95660000Y-91391000D01*
X96861000Y-89940000D02*
X96861000Y-90685000D01*
X95701000Y-86420000D02*
X95701000Y-87860000D01*
X96621000Y-86896000D02*
X96621000Y-87860000D01*
X96421000Y-89940000D02*
X96421000Y-91049000D01*
X96381000Y-86725000D02*
X96381000Y-87860000D01*
X96181000Y-86610000D02*
X96181000Y-87860000D01*
X95220000Y-86331000D02*
X95220000Y-87860000D01*
X96701000Y-86963000D02*
X96701000Y-87860000D01*
X95420000Y-86357000D02*
X95420000Y-87860000D01*
X95620000Y-89940000D02*
X95620000Y-91401000D01*
X96301000Y-86676000D02*
X96301000Y-87860000D01*
X92425225Y-87175000D02*
X92425225Y-87675000D01*
X95380000Y-86350000D02*
X95380000Y-87860000D01*
X96661000Y-89940000D02*
X96661000Y-90871000D01*
X95460000Y-89940000D02*
X95460000Y-91436000D01*
X95540000Y-86380000D02*
X95540000Y-87860000D01*
X96581000Y-89940000D02*
X96581000Y-90935000D01*
X96741000Y-89940000D02*
X96741000Y-90801000D01*
X95020000Y-86320000D02*
X95020000Y-87860000D01*
X95620000Y-86399000D02*
X95620000Y-87860000D01*
X96941000Y-87201000D02*
X96941000Y-87860000D01*
X97600000Y-88900000D02*
G75*
G03*
X97600000Y-88900000I-2620000J0D01*
G01*
%TO.C,C3*%
X136790000Y-95400000D02*
X140030000Y-95400000D01*
X140030000Y-95400000D02*
X140030000Y-95465000D01*
X140030000Y-97575000D02*
X140030000Y-97640000D01*
X136790000Y-97575000D02*
X136790000Y-97640000D01*
X136790000Y-97640000D02*
X140030000Y-97640000D01*
X136790000Y-95400000D02*
X136790000Y-95465000D01*
%TO.C,J3*%
X81975000Y-112395000D02*
X81975000Y-120075000D01*
X79315000Y-111125000D02*
X79315000Y-109795000D01*
X79315000Y-120075000D02*
X81975000Y-120075000D01*
X79315000Y-112395000D02*
X81975000Y-112395000D01*
X79315000Y-109795000D02*
X80645000Y-109795000D01*
X79315000Y-112395000D02*
X79315000Y-120075000D01*
%TO.C,J2*%
X146110000Y-74965000D02*
X146110000Y-82645000D01*
X143450000Y-73695000D02*
X143450000Y-72365000D01*
X143450000Y-82645000D02*
X146110000Y-82645000D01*
X143450000Y-74965000D02*
X146110000Y-74965000D01*
X143450000Y-72365000D02*
X144780000Y-72365000D01*
X143450000Y-74965000D02*
X143450000Y-82645000D01*
%TO.C,D1*%
X114010000Y-118144000D02*
X114010000Y-118300000D01*
X114010000Y-120460000D02*
X114010000Y-120616000D01*
X116611130Y-118300163D02*
G75*
G03*
X114529039Y-118300000I-1041130J-1079837D01*
G01*
X114010000Y-120615516D02*
G75*
G03*
X117242335Y-120458608I1560000J1235516D01*
G01*
X114529039Y-120460000D02*
G75*
G03*
X116611130Y-120459837I1040961J1080000D01*
G01*
X117242335Y-118301392D02*
G75*
G03*
X114010000Y-118144484I-1672335J-1078608D01*
G01*
%TO.C,U1*%
X79720000Y-85490000D02*
X85730000Y-85490000D01*
X81970000Y-92310000D02*
X85730000Y-92310000D01*
X85730000Y-92310000D02*
X85730000Y-91050000D01*
X85730000Y-85490000D02*
X85730000Y-86750000D01*
%TO.C,R5*%
X105510000Y-119380000D02*
X105580000Y-119380000D01*
X105510000Y-119380000D02*
G75*
G03*
X105510000Y-119380000I-1370000J0D01*
G01*
%TO.C,R4*%
X92810000Y-119380000D02*
X92880000Y-119380000D01*
X92810000Y-119380000D02*
G75*
G03*
X92810000Y-119380000I-1370000J0D01*
G01*
%TO.C,R3*%
X92810000Y-111760000D02*
X92880000Y-111760000D01*
X92810000Y-111760000D02*
G75*
G03*
X92810000Y-111760000I-1370000J0D01*
G01*
%TO.C,R2*%
X138530000Y-104140000D02*
X138600000Y-104140000D01*
X138530000Y-104140000D02*
G75*
G03*
X138530000Y-104140000I-1370000J0D01*
G01*
%TO.C,R1*%
X138530000Y-88900000D02*
X138600000Y-88900000D01*
X138530000Y-88900000D02*
G75*
G03*
X138530000Y-88900000I-1370000J0D01*
G01*
%TO.C,J1*%
X78740000Y-71275000D02*
X78740000Y-78895000D01*
X88900000Y-78895000D02*
X88900000Y-71275000D01*
X88900000Y-77625000D02*
X78740000Y-77625000D01*
X78740000Y-78895000D02*
X88900000Y-78895000D01*
X88900000Y-71275000D02*
X78740000Y-71275000D01*
D12*
%TO.C,U2*%
X132080000Y-71120000D02*
X132080000Y-111760000D01*
X104140000Y-71120000D02*
X132080000Y-71120000D01*
X104140000Y-111760000D02*
X104140000Y-71120000D01*
X104140000Y-111760000D02*
X104140000Y-71120000D01*
X104140000Y-71120000D02*
X132080000Y-71120000D01*
X132080000Y-111760000D02*
X104140000Y-111760000D01*
X132080000Y-111760000D02*
X104140000Y-111760000D01*
X132080000Y-71120000D02*
X132080000Y-111760000D01*
%TD*%
M02*
