%TF.GenerationSoftware,KiCad,Pcbnew,(6.0.11)*%
%TF.CreationDate,2026-08-11T11:19:42+05:30*%
%TF.ProjectId,Tiny_ml_hand_classifier,54696e79-5f6d-46c5-9f68-616e645f636c,rev?*%
%TF.SameCoordinates,Original*%
%TF.FileFunction,Soldermask,Top*%
%TF.FilePolarity,Negative*%
%FSLAX46Y46*%
G04 Gerber Fmt 4.6, Leading zero omitted, Abs format (unit mm)*
G04 Created by KiCad (PCBNEW (6.0.11)) date 2026-08-11 11:19:42*
%MOMM*%
%LPD*%
G01*
G04 APERTURE LIST*
%ADD10C,2.000000*%
%ADD11R,1.600000X1.600000*%
%ADD12C,1.600000*%
%ADD13R,1.700000X1.700000*%
%ADD14O,1.700000X1.700000*%
%ADD15R,1.800000X1.800000*%
%ADD16C,1.800000*%
%ADD17R,2.000000X1.500000*%
%ADD18R,2.000000X3.800000*%
%ADD19O,1.600000X1.600000*%
%ADD20R,3.000000X3.000000*%
%ADD21C,3.000000*%
%ADD22C,1.524000*%
G04 APERTURE END LIST*
D10*
%TO.C,SW2*%
X153070000Y-103470000D03*
X146570000Y-103470000D03*
X153070000Y-107970000D03*
X146570000Y-107970000D03*
%TD*%
%TO.C,SW1*%
X153110000Y-90238872D03*
X146610000Y-90238872D03*
X153110000Y-94738872D03*
X146610000Y-94738872D03*
%TD*%
D11*
%TO.C,C4*%
X93980000Y-101600000D03*
D12*
X95980000Y-101600000D03*
%TD*%
D11*
%TO.C,C2*%
X83820000Y-101600000D03*
D12*
X85820000Y-101600000D03*
%TD*%
D11*
%TO.C,C1*%
X93980000Y-88900000D03*
D12*
X95980000Y-88900000D03*
%TD*%
%TO.C,C3*%
X137160000Y-96520000D03*
X139660000Y-96520000D03*
%TD*%
D13*
%TO.C,J3*%
X80645000Y-111125000D03*
D14*
X80645000Y-113665000D03*
X80645000Y-116205000D03*
X80645000Y-118745000D03*
%TD*%
D13*
%TO.C,J2*%
X144780000Y-73695000D03*
D14*
X144780000Y-76235000D03*
X144780000Y-78775000D03*
X144780000Y-81315000D03*
%TD*%
D15*
%TO.C,D1*%
X114300000Y-119380000D03*
D16*
X116840000Y-119380000D03*
%TD*%
D17*
%TO.C,U1*%
X80670000Y-86600000D03*
D18*
X86970000Y-88900000D03*
D17*
X80670000Y-88900000D03*
X80670000Y-91200000D03*
%TD*%
D12*
%TO.C,R5*%
X104140000Y-119380000D03*
D19*
X106680000Y-119380000D03*
%TD*%
D12*
%TO.C,R4*%
X91440000Y-119380000D03*
D19*
X93980000Y-119380000D03*
%TD*%
D12*
%TO.C,R3*%
X91440000Y-111760000D03*
D19*
X93980000Y-111760000D03*
%TD*%
D12*
%TO.C,R2*%
X137160000Y-104140000D03*
D19*
X139700000Y-104140000D03*
%TD*%
D12*
%TO.C,R1*%
X137160000Y-88900000D03*
D19*
X139700000Y-88900000D03*
%TD*%
D20*
%TO.C,J1*%
X81280000Y-75085000D03*
D21*
X86360000Y-75085000D03*
%TD*%
D22*
%TO.C,U2*%
X106680000Y-81280000D03*
X106680000Y-83820000D03*
X106680000Y-86360000D03*
X106680000Y-88900000D03*
X106680000Y-91440000D03*
X106680000Y-93980000D03*
X106680000Y-96520000D03*
X106680000Y-99060000D03*
X129540000Y-99060000D03*
X129540000Y-96520000D03*
X129540000Y-93980000D03*
X129540000Y-91440000D03*
X129540000Y-88900000D03*
X129540000Y-86360000D03*
X129540000Y-83820000D03*
X129540000Y-81280000D03*
%TD*%
M02*
