%TF.GenerationSoftware,KiCad,Pcbnew,(6.0.11)*%
%TF.CreationDate,2026-08-11T11:19:42+05:30*%
%TF.ProjectId,Tiny_ml_hand_classifier,54696e79-5f6d-46c5-9f68-616e645f636c,rev?*%
%TF.SameCoordinates,Original*%
%TF.FileFunction,Copper,L2,Bot*%
%TF.FilePolarity,Positive*%
%FSLAX46Y46*%
G04 Gerber Fmt 4.6, Leading zero omitted, Abs format (unit mm)*
G04 Created by KiCad (PCBNEW (6.0.11)) date 2026-08-11 11:19:42*
%MOMM*%
%LPD*%
G01*
G04 APERTURE LIST*
%TA.AperFunction,ComponentPad*%
%ADD10C,2.000000*%
%TD*%
%TA.AperFunction,ComponentPad*%
%ADD11R,1.600000X1.600000*%
%TD*%
%TA.AperFunction,ComponentPad*%
%ADD12C,1.600000*%
%TD*%
%TA.AperFunction,ComponentPad*%
%ADD13R,1.700000X1.700000*%
%TD*%
%TA.AperFunction,ComponentPad*%
%ADD14O,1.700000X1.700000*%
%TD*%
%TA.AperFunction,ComponentPad*%
%ADD15R,1.800000X1.800000*%
%TD*%
%TA.AperFunction,ComponentPad*%
%ADD16C,1.800000*%
%TD*%
%TA.AperFunction,ComponentPad*%
%ADD17O,1.600000X1.600000*%
%TD*%
%TA.AperFunction,ComponentPad*%
%ADD18R,3.000000X3.000000*%
%TD*%
%TA.AperFunction,ComponentPad*%
%ADD19C,3.000000*%
%TD*%
%TA.AperFunction,ComponentPad*%
%ADD20C,1.524000*%
%TD*%
%TA.AperFunction,ViaPad*%
%ADD21C,0.800000*%
%TD*%
%TA.AperFunction,Conductor*%
%ADD22C,0.400000*%
%TD*%
G04 APERTURE END LIST*
D10*
%TO.P,SW2,1,PIN_A*%
%TO.N,Net-(R2-Pad1)*%
X153070000Y-103470000D03*
X146570000Y-103470000D03*
%TO.P,SW2,2,PIN_B*%
%TO.N,GND*%
X153070000Y-107970000D03*
X146570000Y-107970000D03*
%TD*%
%TO.P,SW1,1,PIN_A*%
%TO.N,Net-(R1-Pad2)*%
X153110000Y-90238872D03*
X146610000Y-90238872D03*
%TO.P,SW1,2,PIN_B*%
%TO.N,GND*%
X153110000Y-94738872D03*
X146610000Y-94738872D03*
%TD*%
D11*
%TO.P,C4,1*%
%TO.N,VCC*%
X93980000Y-101600000D03*
D12*
%TO.P,C4,2*%
%TO.N,GND*%
X95980000Y-101600000D03*
%TD*%
D11*
%TO.P,C2,1*%
%TO.N,VCC*%
X83820000Y-101600000D03*
D12*
%TO.P,C2,2*%
%TO.N,GND*%
X85820000Y-101600000D03*
%TD*%
D11*
%TO.P,C1,1*%
%TO.N,VCC*%
X93980000Y-88900000D03*
D12*
%TO.P,C1,2*%
%TO.N,GND*%
X95980000Y-88900000D03*
%TD*%
%TO.P,C3,1*%
%TO.N,VCC*%
X137160000Y-96520000D03*
%TO.P,C3,2*%
%TO.N,GND*%
X139660000Y-96520000D03*
%TD*%
D13*
%TO.P,J3,1,PIN_A*%
%TO.N,GND*%
X80645000Y-111125000D03*
D14*
%TO.P,J3,2,PIN_B*%
%TO.N,VCC*%
X80645000Y-113665000D03*
%TO.P,J3,3,PIN_C*%
%TO.N,Net-(R3-Pad2)*%
X80645000Y-116205000D03*
%TO.P,J3,4,PIN_D*%
%TO.N,Net-(J3-Pad4)*%
X80645000Y-118745000D03*
%TD*%
D13*
%TO.P,J2,1,PIN_A*%
%TO.N,GND*%
X144780000Y-73695000D03*
D14*
%TO.P,J2,2,PIN_B*%
%TO.N,unconnected-(J2-Pad2)*%
X144780000Y-76235000D03*
%TO.P,J2,3,PIN_C*%
%TO.N,Net-(U2-Pad15)*%
X144780000Y-78775000D03*
%TO.P,J2,4,PIN_D*%
%TO.N,Net-(U2-Pad14)*%
X144780000Y-81315000D03*
%TD*%
D15*
%TO.P,D1,1,A*%
%TO.N,Net-(D1-Pad1)*%
X114300000Y-119380000D03*
D16*
%TO.P,D1,2,K*%
%TO.N,GND*%
X116840000Y-119380000D03*
%TD*%
D12*
%TO.P,R5,1*%
%TO.N,Net-(D1-Pad1)*%
X104140000Y-119380000D03*
D17*
%TO.P,R5,2*%
%TO.N,Net-(R5-Pad2)*%
X106680000Y-119380000D03*
%TD*%
D12*
%TO.P,R4,1*%
%TO.N,VCC*%
X91440000Y-119380000D03*
D17*
%TO.P,R4,2*%
%TO.N,Net-(U2-Pad6)*%
X93980000Y-119380000D03*
%TD*%
D12*
%TO.P,R3,1*%
%TO.N,VCC*%
X91440000Y-111760000D03*
D17*
%TO.P,R3,2*%
%TO.N,Net-(R3-Pad2)*%
X93980000Y-111760000D03*
%TD*%
D12*
%TO.P,R2,1*%
%TO.N,Net-(R2-Pad1)*%
X137160000Y-104140000D03*
D17*
%TO.P,R2,2*%
%TO.N,VCC*%
X139700000Y-104140000D03*
%TD*%
D12*
%TO.P,R1,1*%
%TO.N,VCC*%
X137160000Y-88900000D03*
D17*
%TO.P,R1,2*%
%TO.N,Net-(R1-Pad2)*%
X139700000Y-88900000D03*
%TD*%
D18*
%TO.P,J1,1,VIN*%
%TO.N,VCC*%
X81280000Y-75085000D03*
D19*
%TO.P,J1,2,GND*%
%TO.N,GND*%
X86360000Y-75085000D03*
%TD*%
D20*
%TO.P,U2,1,5V*%
%TO.N,unconnected-(U2-Pad1)*%
X106680000Y-81280000D03*
%TO.P,U2,2,GND*%
%TO.N,GND*%
X106680000Y-83820000D03*
%TO.P,U2,3,GPIO12*%
%TO.N,unconnected-(U2-Pad3)*%
X106680000Y-86360000D03*
%TO.P,U2,4,GPIO13*%
%TO.N,Net-(J3-Pad4)*%
X106680000Y-88900000D03*
%TO.P,U2,5,GPIO15*%
%TO.N,Net-(R3-Pad2)*%
X106680000Y-91440000D03*
%TO.P,U2,6,GPIO14*%
%TO.N,Net-(U2-Pad6)*%
X106680000Y-93980000D03*
%TO.P,U2,7,GPIO2*%
%TO.N,unconnected-(U2-Pad7)*%
X106680000Y-96520000D03*
%TO.P,U2,8,GPIO4*%
%TO.N,Net-(R5-Pad2)*%
X106680000Y-99060000D03*
%TO.P,U2,9,3V3*%
%TO.N,VCC*%
X129540000Y-99060000D03*
%TO.P,U2,10,EN*%
%TO.N,Net-(R1-Pad2)*%
X129540000Y-96520000D03*
%TO.P,U2,11,GPIO0*%
%TO.N,Net-(R2-Pad1)*%
X129540000Y-93980000D03*
%TO.P,U2,12,GPIO16*%
%TO.N,unconnected-(U2-Pad12)*%
X129540000Y-91440000D03*
%TO.P,U2,13,VCC*%
%TO.N,VCC*%
X129540000Y-88900000D03*
%TO.P,U2,14,U0RXD*%
%TO.N,Net-(U2-Pad14)*%
X129540000Y-86360000D03*
%TO.P,U2,15,U0TXD*%
%TO.N,Net-(U2-Pad15)*%
X129540000Y-83820000D03*
%TO.P,U2,16,GND*%
%TO.N,GND*%
X129540000Y-81280000D03*
%TD*%
D21*
%TO.N,Net-(R3-Pad2)*%
X92439500Y-113750000D03*
X87250000Y-114750000D03*
%TO.N,Net-(R1-Pad2)*%
X133000000Y-94750000D03*
X138159500Y-92000000D03*
X129540000Y-96520000D03*
%TO.N,Net-(J3-Pad4)*%
X106680000Y-88900000D03*
X99750000Y-105250000D03*
X86720027Y-115597427D03*
%TO.N,Net-(R3-Pad2)*%
X106680000Y-91440000D03*
X87250000Y-114750000D03*
%TD*%
D22*
%TO.N,Net-(R3-Pad2)*%
X92439500Y-113750000D02*
X91439500Y-114750000D01*
X91439500Y-114750000D02*
X87250000Y-114750000D01*
%TO.N,Net-(R1-Pad2)*%
X138159500Y-92000000D02*
X135750000Y-92000000D01*
X135750000Y-92000000D02*
X133000000Y-94750000D01*
X151771128Y-88900000D02*
X153110000Y-90238872D01*
X139700000Y-88900000D02*
X151771128Y-88900000D01*
%TO.N,Net-(R2-Pad1)*%
X137160000Y-101600000D02*
X129540000Y-93980000D01*
X137160000Y-104140000D02*
X137160000Y-101600000D01*
X144700000Y-105340000D02*
X146570000Y-103470000D01*
X138360000Y-105340000D02*
X144700000Y-105340000D01*
X137160000Y-104140000D02*
X138360000Y-105340000D01*
%TO.N,Net-(J3-Pad4)*%
X91839630Y-115597427D02*
X99750000Y-107687057D01*
X99750000Y-107687057D02*
X99750000Y-105250000D01*
X86720027Y-115597427D02*
X91839630Y-115597427D01*
%TO.N,Net-(R3-Pad2)*%
X105518000Y-95984943D02*
X105518000Y-92602000D01*
X105518000Y-92602000D02*
X106680000Y-91440000D01*
X87250000Y-114252943D02*
X105518000Y-95984943D01*
X87250000Y-114750000D02*
X87250000Y-114252943D01*
%TD*%
%TA.AperFunction,Conductor*%
%TO.N,GND*%
G36*
X157433621Y-67528502D02*
G01*
X157480114Y-67582158D01*
X157491500Y-67634500D01*
X157491500Y-125365500D01*
X157471498Y-125433621D01*
X157417842Y-125480114D01*
X157365500Y-125491500D01*
X75634500Y-125491500D01*
X75566379Y-125471498D01*
X75519886Y-125417842D01*
X75508500Y-125365500D01*
X75508500Y-118711695D01*
X79282251Y-118711695D01*
X79282548Y-118716848D01*
X79282548Y-118716851D01*
X79288011Y-118811590D01*
X79295110Y-118934715D01*
X79296247Y-118939761D01*
X79296248Y-118939767D01*
X79311621Y-119007979D01*
X79344222Y-119152639D01*
X79428266Y-119359616D01*
X79544987Y-119550088D01*
X79691250Y-119718938D01*
X79863126Y-119861632D01*
X80056000Y-119974338D01*
X80264692Y-120054030D01*
X80269760Y-120055061D01*
X80269763Y-120055062D01*
X80377017Y-120076883D01*
X80483597Y-120098567D01*
X80488772Y-120098757D01*
X80488774Y-120098757D01*
X80701673Y-120106564D01*
X80701677Y-120106564D01*
X80706837Y-120106753D01*
X80711957Y-120106097D01*
X80711959Y-120106097D01*
X80923288Y-120079025D01*
X80923289Y-120079025D01*
X80928416Y-120078368D01*
X80933366Y-120076883D01*
X81137429Y-120015661D01*
X81137434Y-120015659D01*
X81142384Y-120014174D01*
X81342994Y-119915896D01*
X81524860Y-119786173D01*
X81683096Y-119628489D01*
X81742594Y-119545689D01*
X81810435Y-119451277D01*
X81813453Y-119447077D01*
X81843899Y-119385475D01*
X81846605Y-119380000D01*
X90126502Y-119380000D01*
X90146457Y-119608087D01*
X90147881Y-119613400D01*
X90147881Y-119613402D01*
X90194979Y-119789171D01*
X90205716Y-119829243D01*
X90208039Y-119834224D01*
X90208039Y-119834225D01*
X90300151Y-120031762D01*
X90300154Y-120031767D01*
X90302477Y-120036749D01*
X90433802Y-120224300D01*
X90595700Y-120386198D01*
X90600208Y-120389355D01*
X90600211Y-120389357D01*
X90601581Y-120390316D01*
X90783251Y-120517523D01*
X90788233Y-120519846D01*
X90788238Y-120519849D01*
X90939878Y-120590559D01*
X90990757Y-120614284D01*
X90996065Y-120615706D01*
X90996067Y-120615707D01*
X91206598Y-120672119D01*
X91206600Y-120672119D01*
X91211913Y-120673543D01*
X91440000Y-120693498D01*
X91668087Y-120673543D01*
X91673400Y-120672119D01*
X91673402Y-120672119D01*
X91883933Y-120615707D01*
X91883935Y-120615706D01*
X91889243Y-120614284D01*
X91940122Y-120590559D01*
X92091762Y-120519849D01*
X92091767Y-120519846D01*
X92096749Y-120517523D01*
X92278419Y-120390316D01*
X92279789Y-120389357D01*
X92279792Y-120389355D01*
X92284300Y-120386198D01*
X92446198Y-120224300D01*
X92577523Y-120036749D01*
X92579846Y-120031767D01*
X92579849Y-120031762D01*
X92595805Y-119997543D01*
X92642722Y-119944258D01*
X92710999Y-119924797D01*
X92778959Y-119945339D01*
X92824195Y-119997543D01*
X92840151Y-120031762D01*
X92840154Y-120031767D01*
X92842477Y-120036749D01*
X92973802Y-120224300D01*
X93135700Y-120386198D01*
X93140208Y-120389355D01*
X93140211Y-120389357D01*
X93141581Y-120390316D01*
X93323251Y-120517523D01*
X93328233Y-120519846D01*
X93328238Y-120519849D01*
X93479878Y-120590559D01*
X93530757Y-120614284D01*
X93536065Y-120615706D01*
X93536067Y-120615707D01*
X93746598Y-120672119D01*
X93746600Y-120672119D01*
X93751913Y-120673543D01*
X93980000Y-120693498D01*
X94208087Y-120673543D01*
X94213400Y-120672119D01*
X94213402Y-120672119D01*
X94423933Y-120615707D01*
X94423935Y-120615706D01*
X94429243Y-120614284D01*
X94480122Y-120590559D01*
X94631762Y-120519849D01*
X94631767Y-120519846D01*
X94636749Y-120517523D01*
X94818419Y-120390316D01*
X94819789Y-120389357D01*
X94819792Y-120389355D01*
X94824300Y-120386198D01*
X94986198Y-120224300D01*
X95117523Y-120036749D01*
X95119846Y-120031767D01*
X95119849Y-120031762D01*
X95211961Y-119834225D01*
X95211961Y-119834224D01*
X95214284Y-119829243D01*
X95225022Y-119789171D01*
X95272119Y-119613402D01*
X95272119Y-119613400D01*
X95273543Y-119608087D01*
X95293498Y-119380000D01*
X102826502Y-119380000D01*
X102846457Y-119608087D01*
X102847881Y-119613400D01*
X102847881Y-119613402D01*
X102894979Y-119789171D01*
X102905716Y-119829243D01*
X102908039Y-119834224D01*
X102908039Y-119834225D01*
X103000151Y-120031762D01*
X103000154Y-120031767D01*
X103002477Y-120036749D01*
X103133802Y-120224300D01*
X103295700Y-120386198D01*
X103300208Y-120389355D01*
X103300211Y-120389357D01*
X103301581Y-120390316D01*
X103483251Y-120517523D01*
X103488233Y-120519846D01*
X103488238Y-120519849D01*
X103639878Y-120590559D01*
X103690757Y-120614284D01*
X103696065Y-120615706D01*
X103696067Y-120615707D01*
X103906598Y-120672119D01*
X103906600Y-120672119D01*
X103911913Y-120673543D01*
X104140000Y-120693498D01*
X104368087Y-120673543D01*
X104373400Y-120672119D01*
X104373402Y-120672119D01*
X104583933Y-120615707D01*
X104583935Y-120615706D01*
X104589243Y-120614284D01*
X104640122Y-120590559D01*
X104791762Y-120519849D01*
X104791767Y-120519846D01*
X104796749Y-120517523D01*
X104978419Y-120390316D01*
X104979789Y-120389357D01*
X104979792Y-120389355D01*
X104984300Y-120386198D01*
X105146198Y-120224300D01*
X105277523Y-120036749D01*
X105279846Y-120031767D01*
X105279849Y-120031762D01*
X105295805Y-119997543D01*
X105342722Y-119944258D01*
X105410999Y-119924797D01*
X105478959Y-119945339D01*
X105524195Y-119997543D01*
X105540151Y-120031762D01*
X105540154Y-120031767D01*
X105542477Y-120036749D01*
X105673802Y-120224300D01*
X105835700Y-120386198D01*
X105840208Y-120389355D01*
X105840211Y-120389357D01*
X105841581Y-120390316D01*
X106023251Y-120517523D01*
X106028233Y-120519846D01*
X106028238Y-120519849D01*
X106179878Y-120590559D01*
X106230757Y-120614284D01*
X106236065Y-120615706D01*
X106236067Y-120615707D01*
X106446598Y-120672119D01*
X106446600Y-120672119D01*
X106451913Y-120673543D01*
X106680000Y-120693498D01*
X106908087Y-120673543D01*
X106913400Y-120672119D01*
X106913402Y-120672119D01*
X107123933Y-120615707D01*
X107123935Y-120615706D01*
X107129243Y-120614284D01*
X107180122Y-120590559D01*
X107331762Y-120519849D01*
X107331767Y-120519846D01*
X107336749Y-120517523D01*
X107518419Y-120390316D01*
X107519789Y-120389357D01*
X107519792Y-120389355D01*
X107524300Y-120386198D01*
X107582364Y-120328134D01*
X112891500Y-120328134D01*
X112898255Y-120390316D01*
X112949385Y-120526705D01*
X113036739Y-120643261D01*
X113153295Y-120730615D01*
X113289684Y-120781745D01*
X113351866Y-120788500D01*
X115248134Y-120788500D01*
X115310316Y-120781745D01*
X115446705Y-120730615D01*
X115563261Y-120643261D01*
X115639597Y-120541406D01*
X116043423Y-120541406D01*
X116048704Y-120548461D01*
X116225080Y-120651527D01*
X116234363Y-120655974D01*
X116441003Y-120734883D01*
X116450901Y-120737759D01*
X116667653Y-120781857D01*
X116677883Y-120783076D01*
X116898914Y-120791182D01*
X116909223Y-120790714D01*
X117128623Y-120762608D01*
X117138688Y-120760468D01*
X117350557Y-120696905D01*
X117360152Y-120693144D01*
X117558778Y-120595838D01*
X117567636Y-120590559D01*
X117625097Y-120549572D01*
X117633497Y-120538874D01*
X117626510Y-120525721D01*
X116852811Y-119752021D01*
X116838868Y-119744408D01*
X116837034Y-119744539D01*
X116830420Y-119748790D01*
X116050180Y-120529031D01*
X116043423Y-120541406D01*
X115639597Y-120541406D01*
X115650615Y-120526705D01*
X115701745Y-120390316D01*
X115708500Y-120328134D01*
X115708500Y-120204480D01*
X115728502Y-120136359D01*
X115745405Y-120115384D01*
X116467979Y-119392811D01*
X116474356Y-119381132D01*
X117204408Y-119381132D01*
X117204539Y-119382966D01*
X117208790Y-119389580D01*
X117986307Y-120167096D01*
X117998313Y-120173652D01*
X118010052Y-120164684D01*
X118048010Y-120111859D01*
X118053321Y-120103020D01*
X118151318Y-119904737D01*
X118155117Y-119895142D01*
X118219415Y-119683517D01*
X118221594Y-119673436D01*
X118250702Y-119452338D01*
X118251221Y-119445663D01*
X118252744Y-119383364D01*
X118252550Y-119376646D01*
X118234279Y-119154400D01*
X118232596Y-119144238D01*
X118178710Y-118929708D01*
X118175389Y-118919953D01*
X118087193Y-118717118D01*
X118082315Y-118708020D01*
X118009224Y-118595038D01*
X117998538Y-118585835D01*
X117988973Y-118590238D01*
X117212021Y-119367189D01*
X117204408Y-119381132D01*
X116474356Y-119381132D01*
X116475592Y-119378868D01*
X116475461Y-119377034D01*
X116471210Y-119370420D01*
X115745405Y-118644616D01*
X115711380Y-118582303D01*
X115708500Y-118555520D01*
X115708500Y-118431866D01*
X115701745Y-118369684D01*
X115650615Y-118233295D01*
X115641184Y-118220711D01*
X116045508Y-118220711D01*
X116052251Y-118233040D01*
X116827189Y-119007979D01*
X116841132Y-119015592D01*
X116842966Y-119015461D01*
X116849580Y-119011210D01*
X117628994Y-118231795D01*
X117636011Y-118218944D01*
X117628237Y-118208274D01*
X117625902Y-118206430D01*
X117617320Y-118200729D01*
X117423678Y-118093833D01*
X117414272Y-118089606D01*
X117205772Y-118015772D01*
X117195809Y-118013140D01*
X116978047Y-117974350D01*
X116967796Y-117973381D01*
X116746616Y-117970679D01*
X116736332Y-117971399D01*
X116517693Y-118004855D01*
X116507666Y-118007244D01*
X116297426Y-118075961D01*
X116287916Y-118079958D01*
X116091725Y-118182089D01*
X116083007Y-118187578D01*
X116053961Y-118209386D01*
X116045508Y-118220711D01*
X115641184Y-118220711D01*
X115563261Y-118116739D01*
X115446705Y-118029385D01*
X115310316Y-117978255D01*
X115248134Y-117971500D01*
X113351866Y-117971500D01*
X113289684Y-117978255D01*
X113153295Y-118029385D01*
X113036739Y-118116739D01*
X112949385Y-118233295D01*
X112898255Y-118369684D01*
X112891500Y-118431866D01*
X112891500Y-120328134D01*
X107582364Y-120328134D01*
X107686198Y-120224300D01*
X107817523Y-120036749D01*
X107819846Y-120031767D01*
X107819849Y-120031762D01*
X107911961Y-119834225D01*
X107911961Y-119834224D01*
X107914284Y-119829243D01*
X107925022Y-119789171D01*
X107972119Y-119613402D01*
X107972119Y-119613400D01*
X107973543Y-119608087D01*
X107993498Y-119380000D01*
X107973543Y-119151913D01*
X107972119Y-119146598D01*
X107915707Y-118936067D01*
X107915706Y-118936065D01*
X107914284Y-118930757D01*
X107826101Y-118741646D01*
X107819849Y-118728238D01*
X107819846Y-118728233D01*
X107817523Y-118723251D01*
X107686198Y-118535700D01*
X107524300Y-118373802D01*
X107519792Y-118370645D01*
X107519789Y-118370643D01*
X107427043Y-118305702D01*
X107336749Y-118242477D01*
X107331767Y-118240154D01*
X107331762Y-118240151D01*
X107134225Y-118148039D01*
X107134224Y-118148039D01*
X107129243Y-118145716D01*
X107123935Y-118144294D01*
X107123933Y-118144293D01*
X106913402Y-118087881D01*
X106913400Y-118087881D01*
X106908087Y-118086457D01*
X106680000Y-118066502D01*
X106451913Y-118086457D01*
X106446600Y-118087881D01*
X106446598Y-118087881D01*
X106236067Y-118144293D01*
X106236065Y-118144294D01*
X106230757Y-118145716D01*
X106225776Y-118148039D01*
X106225775Y-118148039D01*
X106028238Y-118240151D01*
X106028233Y-118240154D01*
X106023251Y-118242477D01*
X105932957Y-118305702D01*
X105840211Y-118370643D01*
X105840208Y-118370645D01*
X105835700Y-118373802D01*
X105673802Y-118535700D01*
X105542477Y-118723251D01*
X105540154Y-118728233D01*
X105540151Y-118728238D01*
X105524195Y-118762457D01*
X105477278Y-118815742D01*
X105409001Y-118835203D01*
X105341041Y-118814661D01*
X105295805Y-118762457D01*
X105279849Y-118728238D01*
X105279846Y-118728233D01*
X105277523Y-118723251D01*
X105146198Y-118535700D01*
X104984300Y-118373802D01*
X104979792Y-118370645D01*
X104979789Y-118370643D01*
X104887043Y-118305702D01*
X104796749Y-118242477D01*
X104791767Y-118240154D01*
X104791762Y-118240151D01*
X104594225Y-118148039D01*
X104594224Y-118148039D01*
X104589243Y-118145716D01*
X104583935Y-118144294D01*
X104583933Y-118144293D01*
X104373402Y-118087881D01*
X104373400Y-118087881D01*
X104368087Y-118086457D01*
X104140000Y-118066502D01*
X103911913Y-118086457D01*
X103906600Y-118087881D01*
X103906598Y-118087881D01*
X103696067Y-118144293D01*
X103696065Y-118144294D01*
X103690757Y-118145716D01*
X103685776Y-118148039D01*
X103685775Y-118148039D01*
X103488238Y-118240151D01*
X103488233Y-118240154D01*
X103483251Y-118242477D01*
X103392957Y-118305702D01*
X103300211Y-118370643D01*
X103300208Y-118370645D01*
X103295700Y-118373802D01*
X103133802Y-118535700D01*
X103002477Y-118723251D01*
X103000154Y-118728233D01*
X103000151Y-118728238D01*
X102993899Y-118741646D01*
X102905716Y-118930757D01*
X102904294Y-118936065D01*
X102904293Y-118936067D01*
X102847881Y-119146598D01*
X102846457Y-119151913D01*
X102826502Y-119380000D01*
X95293498Y-119380000D01*
X95273543Y-119151913D01*
X95272119Y-119146598D01*
X95215707Y-118936067D01*
X95215706Y-118936065D01*
X95214284Y-118930757D01*
X95126101Y-118741646D01*
X95119849Y-118728238D01*
X95119846Y-118728233D01*
X95117523Y-118723251D01*
X94986198Y-118535700D01*
X94824300Y-118373802D01*
X94819792Y-118370645D01*
X94819789Y-118370643D01*
X94727043Y-118305702D01*
X94636749Y-118242477D01*
X94631767Y-118240154D01*
X94631762Y-118240151D01*
X94434225Y-118148039D01*
X94434224Y-118148039D01*
X94429243Y-118145716D01*
X94423935Y-118144294D01*
X94423933Y-118144293D01*
X94213402Y-118087881D01*
X94213400Y-118087881D01*
X94208087Y-118086457D01*
X93980000Y-118066502D01*
X93751913Y-118086457D01*
X93746600Y-118087881D01*
X93746598Y-118087881D01*
X93536067Y-118144293D01*
X93536065Y-118144294D01*
X93530757Y-118145716D01*
X93525776Y-118148039D01*
X93525775Y-118148039D01*
X93328238Y-118240151D01*
X93328233Y-118240154D01*
X93323251Y-118242477D01*
X93232957Y-118305702D01*
X93140211Y-118370643D01*
X93140208Y-118370645D01*
X93135700Y-118373802D01*
X92973802Y-118535700D01*
X92842477Y-118723251D01*
X92840154Y-118728233D01*
X92840151Y-118728238D01*
X92824195Y-118762457D01*
X92777278Y-118815742D01*
X92709001Y-118835203D01*
X92641041Y-118814661D01*
X92595805Y-118762457D01*
X92579849Y-118728238D01*
X92579846Y-118728233D01*
X92577523Y-118723251D01*
X92446198Y-118535700D01*
X92284300Y-118373802D01*
X92279792Y-118370645D01*
X92279789Y-118370643D01*
X92187043Y-118305702D01*
X92096749Y-118242477D01*
X92091767Y-118240154D01*
X92091762Y-118240151D01*
X91894225Y-118148039D01*
X91894224Y-118148039D01*
X91889243Y-118145716D01*
X91883935Y-118144294D01*
X91883933Y-118144293D01*
X91673402Y-118087881D01*
X91673400Y-118087881D01*
X91668087Y-118086457D01*
X91440000Y-118066502D01*
X91211913Y-118086457D01*
X91206600Y-118087881D01*
X91206598Y-118087881D01*
X90996067Y-118144293D01*
X90996065Y-118144294D01*
X90990757Y-118145716D01*
X90985776Y-118148039D01*
X90985775Y-118148039D01*
X90788238Y-118240151D01*
X90788233Y-118240154D01*
X90783251Y-118242477D01*
X90692957Y-118305702D01*
X90600211Y-118370643D01*
X90600208Y-118370645D01*
X90595700Y-118373802D01*
X90433802Y-118535700D01*
X90302477Y-118723251D01*
X90300154Y-118728233D01*
X90300151Y-118728238D01*
X90293899Y-118741646D01*
X90205716Y-118930757D01*
X90204294Y-118936065D01*
X90204293Y-118936067D01*
X90147881Y-119146598D01*
X90146457Y-119151913D01*
X90126502Y-119380000D01*
X81846605Y-119380000D01*
X81910136Y-119251453D01*
X81910137Y-119251451D01*
X81912430Y-119246811D01*
X81977370Y-119033069D01*
X82006529Y-118811590D01*
X82006611Y-118808240D01*
X82008074Y-118748365D01*
X82008074Y-118748361D01*
X82008156Y-118745000D01*
X81989852Y-118522361D01*
X81935431Y-118305702D01*
X81846354Y-118100840D01*
X81785804Y-118007244D01*
X81727822Y-117917617D01*
X81727820Y-117917614D01*
X81725014Y-117913277D01*
X81574670Y-117748051D01*
X81570619Y-117744852D01*
X81570615Y-117744848D01*
X81403414Y-117612800D01*
X81403410Y-117612798D01*
X81399359Y-117609598D01*
X81358053Y-117586796D01*
X81308084Y-117536364D01*
X81293312Y-117466921D01*
X81318428Y-117400516D01*
X81345780Y-117373909D01*
X81389603Y-117342650D01*
X81524860Y-117246173D01*
X81683096Y-117088489D01*
X81742594Y-117005689D01*
X81810435Y-116911277D01*
X81813453Y-116907077D01*
X81912430Y-116706811D01*
X81944900Y-116599940D01*
X81975865Y-116498023D01*
X81975865Y-116498021D01*
X81977370Y-116493069D01*
X82006529Y-116271590D01*
X82008156Y-116205000D01*
X81989852Y-115982361D01*
X81935431Y-115765702D01*
X81862263Y-115597427D01*
X85806523Y-115597427D01*
X85807213Y-115603992D01*
X85824737Y-115770720D01*
X85826485Y-115787355D01*
X85885500Y-115968983D01*
X85888803Y-115974705D01*
X85888804Y-115974706D01*
X85922713Y-116033437D01*
X85980987Y-116134371D01*
X85985405Y-116139278D01*
X85985406Y-116139279D01*
X86088394Y-116253659D01*
X86108774Y-116276293D01*
X86263275Y-116388545D01*
X86269303Y-116391229D01*
X86269305Y-116391230D01*
X86288480Y-116399767D01*
X86437739Y-116466221D01*
X86531140Y-116486074D01*
X86618083Y-116504555D01*
X86618088Y-116504555D01*
X86624540Y-116505927D01*
X86815514Y-116505927D01*
X86821966Y-116504555D01*
X86821971Y-116504555D01*
X86908914Y-116486074D01*
X87002315Y-116466221D01*
X87151574Y-116399767D01*
X87170749Y-116391230D01*
X87170751Y-116391229D01*
X87176779Y-116388545D01*
X87257371Y-116329991D01*
X87324238Y-116306133D01*
X87331432Y-116305927D01*
X91810718Y-116305927D01*
X91819288Y-116306219D01*
X91869406Y-116309636D01*
X91869410Y-116309636D01*
X91876982Y-116310152D01*
X91884459Y-116308847D01*
X91884460Y-116308847D01*
X91910938Y-116304226D01*
X91939933Y-116299165D01*
X91946451Y-116298204D01*
X92009872Y-116290529D01*
X92016973Y-116287846D01*
X92019582Y-116287205D01*
X92035892Y-116282742D01*
X92038428Y-116281977D01*
X92045914Y-116280670D01*
X92104430Y-116254983D01*
X92110534Y-116252492D01*
X92163178Y-116232600D01*
X92163179Y-116232599D01*
X92170286Y-116229914D01*
X92176549Y-116225610D01*
X92178915Y-116224373D01*
X92193727Y-116216128D01*
X92195981Y-116214795D01*
X92202935Y-116211742D01*
X92253632Y-116172840D01*
X92258962Y-116168968D01*
X92305350Y-116137088D01*
X92305355Y-116137083D01*
X92311611Y-116132784D01*
X92353066Y-116086256D01*
X92358046Y-116080981D01*
X99236357Y-109202670D01*
X145702160Y-109202670D01*
X145707887Y-109210320D01*
X145879042Y-109315205D01*
X145887837Y-109319687D01*
X146097988Y-109406734D01*
X146107373Y-109409783D01*
X146328554Y-109462885D01*
X146338301Y-109464428D01*
X146565070Y-109482275D01*
X146574930Y-109482275D01*
X146801699Y-109464428D01*
X146811446Y-109462885D01*
X147032627Y-109409783D01*
X147042012Y-109406734D01*
X147252163Y-109319687D01*
X147260958Y-109315205D01*
X147428445Y-109212568D01*
X147437400Y-109202670D01*
X152202160Y-109202670D01*
X152207887Y-109210320D01*
X152379042Y-109315205D01*
X152387837Y-109319687D01*
X152597988Y-109406734D01*
X152607373Y-109409783D01*
X152828554Y-109462885D01*
X152838301Y-109464428D01*
X153065070Y-109482275D01*
X153074930Y-109482275D01*
X153301699Y-109464428D01*
X153311446Y-109462885D01*
X153532627Y-109409783D01*
X153542012Y-109406734D01*
X153752163Y-109319687D01*
X153760958Y-109315205D01*
X153928445Y-109212568D01*
X153937907Y-109202110D01*
X153934124Y-109193334D01*
X153082812Y-108342022D01*
X153068868Y-108334408D01*
X153067035Y-108334539D01*
X153060420Y-108338790D01*
X152208920Y-109190290D01*
X152202160Y-109202670D01*
X147437400Y-109202670D01*
X147437907Y-109202110D01*
X147434124Y-109193334D01*
X146582812Y-108342022D01*
X146568868Y-108334408D01*
X146567035Y-108334539D01*
X146560420Y-108338790D01*
X145708920Y-109190290D01*
X145702160Y-109202670D01*
X99236357Y-109202670D01*
X100230520Y-108208507D01*
X100236785Y-108202653D01*
X100274660Y-108169612D01*
X100280385Y-108164618D01*
X100317114Y-108112357D01*
X100321046Y-108107062D01*
X100355791Y-108062751D01*
X100360477Y-108056775D01*
X100363602Y-108049853D01*
X100364964Y-108047605D01*
X100373368Y-108032872D01*
X100374622Y-108030533D01*
X100378990Y-108024318D01*
X100381749Y-108017242D01*
X100381751Y-108017238D01*
X100398246Y-107974930D01*
X145057725Y-107974930D01*
X145075572Y-108201699D01*
X145077115Y-108211446D01*
X145130217Y-108432627D01*
X145133266Y-108442012D01*
X145220313Y-108652163D01*
X145224795Y-108660958D01*
X145327432Y-108828445D01*
X145337890Y-108837907D01*
X145346666Y-108834124D01*
X146197978Y-107982812D01*
X146204356Y-107971132D01*
X146934408Y-107971132D01*
X146934539Y-107972965D01*
X146938790Y-107979580D01*
X147790290Y-108831080D01*
X147802670Y-108837840D01*
X147810320Y-108832113D01*
X147915205Y-108660958D01*
X147919687Y-108652163D01*
X148006734Y-108442012D01*
X148009783Y-108432627D01*
X148062885Y-108211446D01*
X148064428Y-108201699D01*
X148082275Y-107974930D01*
X151557725Y-107974930D01*
X151575572Y-108201699D01*
X151577115Y-108211446D01*
X151630217Y-108432627D01*
X151633266Y-108442012D01*
X151720313Y-108652163D01*
X151724795Y-108660958D01*
X151827432Y-108828445D01*
X151837890Y-108837907D01*
X151846666Y-108834124D01*
X152697978Y-107982812D01*
X152704356Y-107971132D01*
X153434408Y-107971132D01*
X153434539Y-107972965D01*
X153438790Y-107979580D01*
X154290290Y-108831080D01*
X154302670Y-108837840D01*
X154310320Y-108832113D01*
X154415205Y-108660958D01*
X154419687Y-108652163D01*
X154506734Y-108442012D01*
X154509783Y-108432627D01*
X154562885Y-108211446D01*
X154564428Y-108201699D01*
X154582275Y-107974930D01*
X154582275Y-107965070D01*
X154564428Y-107738301D01*
X154562885Y-107728554D01*
X154509783Y-107507373D01*
X154506734Y-107497988D01*
X154419687Y-107287837D01*
X154415205Y-107279042D01*
X154312568Y-107111555D01*
X154302110Y-107102093D01*
X154293334Y-107105876D01*
X153442022Y-107957188D01*
X153434408Y-107971132D01*
X152704356Y-107971132D01*
X152705592Y-107968868D01*
X152705461Y-107967035D01*
X152701210Y-107960420D01*
X151849710Y-107108920D01*
X151837330Y-107102160D01*
X151829680Y-107107887D01*
X151724795Y-107279042D01*
X151720313Y-107287837D01*
X151633266Y-107497988D01*
X151630217Y-107507373D01*
X151577115Y-107728554D01*
X151575572Y-107738301D01*
X151557725Y-107965070D01*
X151557725Y-107974930D01*
X148082275Y-107974930D01*
X148082275Y-107965070D01*
X148064428Y-107738301D01*
X148062885Y-107728554D01*
X148009783Y-107507373D01*
X148006734Y-107497988D01*
X147919687Y-107287837D01*
X147915205Y-107279042D01*
X147812568Y-107111555D01*
X147802110Y-107102093D01*
X147793334Y-107105876D01*
X146942022Y-107957188D01*
X146934408Y-107971132D01*
X146204356Y-107971132D01*
X146205592Y-107968868D01*
X146205461Y-107967035D01*
X146201210Y-107960420D01*
X145349710Y-107108920D01*
X145337330Y-107102160D01*
X145329680Y-107107887D01*
X145224795Y-107279042D01*
X145220313Y-107287837D01*
X145133266Y-107497988D01*
X145130217Y-107507373D01*
X145077115Y-107728554D01*
X145075572Y-107738301D01*
X145057725Y-107965070D01*
X145057725Y-107974930D01*
X100398246Y-107974930D01*
X100402202Y-107964783D01*
X100404758Y-107958703D01*
X100427918Y-107907408D01*
X100431045Y-107900483D01*
X100432429Y-107893012D01*
X100433230Y-107890458D01*
X100437867Y-107874179D01*
X100438523Y-107871624D01*
X100441282Y-107864548D01*
X100449621Y-107801206D01*
X100450653Y-107794690D01*
X100460912Y-107739337D01*
X100462296Y-107731870D01*
X100458709Y-107669659D01*
X100458500Y-107662406D01*
X100458500Y-106737890D01*
X145702093Y-106737890D01*
X145705876Y-106746666D01*
X146557188Y-107597978D01*
X146571132Y-107605592D01*
X146572965Y-107605461D01*
X146579580Y-107601210D01*
X147431080Y-106749710D01*
X147437534Y-106737890D01*
X152202093Y-106737890D01*
X152205876Y-106746666D01*
X153057188Y-107597978D01*
X153071132Y-107605592D01*
X153072965Y-107605461D01*
X153079580Y-107601210D01*
X153931080Y-106749710D01*
X153937840Y-106737330D01*
X153932113Y-106729680D01*
X153760958Y-106624795D01*
X153752163Y-106620313D01*
X153542012Y-106533266D01*
X153532627Y-106530217D01*
X153311446Y-106477115D01*
X153301699Y-106475572D01*
X153074930Y-106457725D01*
X153065070Y-106457725D01*
X152838301Y-106475572D01*
X152828554Y-106477115D01*
X152607373Y-106530217D01*
X152597988Y-106533266D01*
X152387837Y-106620313D01*
X152379042Y-106624795D01*
X152211555Y-106727432D01*
X152202093Y-106737890D01*
X147437534Y-106737890D01*
X147437840Y-106737330D01*
X147432113Y-106729680D01*
X147260958Y-106624795D01*
X147252163Y-106620313D01*
X147042012Y-106533266D01*
X147032627Y-106530217D01*
X146811446Y-106477115D01*
X146801699Y-106475572D01*
X146574930Y-106457725D01*
X146565070Y-106457725D01*
X146338301Y-106475572D01*
X146328554Y-106477115D01*
X146107373Y-106530217D01*
X146097988Y-106533266D01*
X145887837Y-106620313D01*
X145879042Y-106624795D01*
X145711555Y-106727432D01*
X145702093Y-106737890D01*
X100458500Y-106737890D01*
X100458500Y-105868744D01*
X100478502Y-105800623D01*
X100482564Y-105794683D01*
X100484621Y-105791852D01*
X100489040Y-105786944D01*
X100584527Y-105621556D01*
X100643542Y-105439928D01*
X100650442Y-105374284D01*
X100662814Y-105256565D01*
X100663504Y-105250000D01*
X100643542Y-105060072D01*
X100584527Y-104878444D01*
X100489040Y-104713056D01*
X100472041Y-104694176D01*
X100365675Y-104576045D01*
X100365674Y-104576044D01*
X100361253Y-104571134D01*
X100206752Y-104458882D01*
X100200724Y-104456198D01*
X100200722Y-104456197D01*
X100038319Y-104383891D01*
X100038318Y-104383891D01*
X100032288Y-104381206D01*
X99929775Y-104359416D01*
X99851944Y-104342872D01*
X99851939Y-104342872D01*
X99845487Y-104341500D01*
X99654513Y-104341500D01*
X99648061Y-104342872D01*
X99648056Y-104342872D01*
X99570225Y-104359416D01*
X99467712Y-104381206D01*
X99461682Y-104383891D01*
X99461681Y-104383891D01*
X99299278Y-104456197D01*
X99299276Y-104456198D01*
X99293248Y-104458882D01*
X99138747Y-104571134D01*
X99134326Y-104576044D01*
X99134325Y-104576045D01*
X99027960Y-104694176D01*
X99010960Y-104713056D01*
X98915473Y-104878444D01*
X98856458Y-105060072D01*
X98836496Y-105250000D01*
X98837186Y-105256565D01*
X98849559Y-105374284D01*
X98856458Y-105439928D01*
X98915473Y-105621556D01*
X99010960Y-105786944D01*
X99015379Y-105791852D01*
X99017436Y-105794683D01*
X99041295Y-105861551D01*
X99041500Y-105868744D01*
X99041500Y-107341396D01*
X99021498Y-107409517D01*
X99004595Y-107430491D01*
X95311727Y-111123359D01*
X95249415Y-111157385D01*
X95178600Y-111152320D01*
X95121764Y-111109773D01*
X95117670Y-111103566D01*
X95117523Y-111103251D01*
X94986198Y-110915700D01*
X94824300Y-110753802D01*
X94819792Y-110750645D01*
X94819789Y-110750643D01*
X94741611Y-110695902D01*
X94636749Y-110622477D01*
X94631767Y-110620154D01*
X94631762Y-110620151D01*
X94434225Y-110528039D01*
X94434224Y-110528039D01*
X94429243Y-110525716D01*
X94423935Y-110524294D01*
X94423933Y-110524293D01*
X94213402Y-110467881D01*
X94213400Y-110467881D01*
X94208087Y-110466457D01*
X93980000Y-110446502D01*
X93751913Y-110466457D01*
X93746600Y-110467881D01*
X93746598Y-110467881D01*
X93536067Y-110524293D01*
X93536065Y-110524294D01*
X93530757Y-110525716D01*
X93525776Y-110528039D01*
X93525775Y-110528039D01*
X93328238Y-110620151D01*
X93328233Y-110620154D01*
X93323251Y-110622477D01*
X93218389Y-110695902D01*
X93140211Y-110750643D01*
X93140208Y-110750645D01*
X93135700Y-110753802D01*
X92973802Y-110915700D01*
X92842477Y-111103251D01*
X92840154Y-111108233D01*
X92840151Y-111108238D01*
X92824195Y-111142457D01*
X92777278Y-111195742D01*
X92709001Y-111215203D01*
X92641041Y-111194661D01*
X92595805Y-111142457D01*
X92579849Y-111108238D01*
X92579846Y-111108233D01*
X92577523Y-111103251D01*
X92446198Y-110915700D01*
X92284300Y-110753802D01*
X92279792Y-110750645D01*
X92279789Y-110750643D01*
X92096749Y-110622477D01*
X92097665Y-110621169D01*
X92053743Y-110575105D01*
X92040306Y-110505391D01*
X92066693Y-110439480D01*
X92076641Y-110428273D01*
X105376197Y-97128717D01*
X105438509Y-97094691D01*
X105509324Y-97099756D01*
X105566160Y-97142303D01*
X105573609Y-97153594D01*
X105575512Y-97157676D01*
X105703023Y-97339781D01*
X105860219Y-97496977D01*
X105864727Y-97500134D01*
X105864730Y-97500136D01*
X105896385Y-97522301D01*
X106042323Y-97624488D01*
X106047305Y-97626811D01*
X106047310Y-97626814D01*
X106152373Y-97675805D01*
X106205658Y-97722722D01*
X106225119Y-97790999D01*
X106204577Y-97858959D01*
X106152373Y-97904195D01*
X106047311Y-97953186D01*
X106047306Y-97953189D01*
X106042324Y-97955512D01*
X106037817Y-97958668D01*
X106037815Y-97958669D01*
X105864730Y-98079864D01*
X105864727Y-98079866D01*
X105860219Y-98083023D01*
X105703023Y-98240219D01*
X105575512Y-98422324D01*
X105573189Y-98427306D01*
X105573186Y-98427311D01*
X105483883Y-98618822D01*
X105481560Y-98623804D01*
X105424022Y-98838537D01*
X105404647Y-99060000D01*
X105424022Y-99281463D01*
X105481560Y-99496196D01*
X105483882Y-99501177D01*
X105483883Y-99501178D01*
X105573186Y-99692689D01*
X105573189Y-99692694D01*
X105575512Y-99697676D01*
X105703023Y-99879781D01*
X105860219Y-100036977D01*
X105864727Y-100040134D01*
X105864730Y-100040136D01*
X105940495Y-100093187D01*
X106042323Y-100164488D01*
X106047305Y-100166811D01*
X106047310Y-100166814D01*
X106238822Y-100256117D01*
X106243804Y-100258440D01*
X106249112Y-100259862D01*
X106249114Y-100259863D01*
X106314949Y-100277503D01*
X106458537Y-100315978D01*
X106680000Y-100335353D01*
X106901463Y-100315978D01*
X107045051Y-100277503D01*
X107110886Y-100259863D01*
X107110888Y-100259862D01*
X107116196Y-100258440D01*
X107121178Y-100256117D01*
X107312690Y-100166814D01*
X107312695Y-100166811D01*
X107317677Y-100164488D01*
X107419505Y-100093187D01*
X107495270Y-100040136D01*
X107495273Y-100040134D01*
X107499781Y-100036977D01*
X107656977Y-99879781D01*
X107784488Y-99697676D01*
X107786811Y-99692694D01*
X107786814Y-99692689D01*
X107876117Y-99501178D01*
X107876118Y-99501177D01*
X107878440Y-99496196D01*
X107935978Y-99281463D01*
X107955353Y-99060000D01*
X128264647Y-99060000D01*
X128284022Y-99281463D01*
X128341560Y-99496196D01*
X128343882Y-99501177D01*
X128343883Y-99501178D01*
X128433186Y-99692689D01*
X128433189Y-99692694D01*
X128435512Y-99697676D01*
X128563023Y-99879781D01*
X128720219Y-100036977D01*
X128724727Y-100040134D01*
X128724730Y-100040136D01*
X128800495Y-100093187D01*
X128902323Y-100164488D01*
X128907305Y-100166811D01*
X128907310Y-100166814D01*
X129098822Y-100256117D01*
X129103804Y-100258440D01*
X129109112Y-100259862D01*
X129109114Y-100259863D01*
X129174949Y-100277503D01*
X129318537Y-100315978D01*
X129540000Y-100335353D01*
X129761463Y-100315978D01*
X129905051Y-100277503D01*
X129970886Y-100259863D01*
X129970888Y-100259862D01*
X129976196Y-100258440D01*
X129981178Y-100256117D01*
X130172690Y-100166814D01*
X130172695Y-100166811D01*
X130177677Y-100164488D01*
X130279505Y-100093187D01*
X130355270Y-100040136D01*
X130355273Y-100040134D01*
X130359781Y-100036977D01*
X130516977Y-99879781D01*
X130644488Y-99697676D01*
X130646811Y-99692694D01*
X130646814Y-99692689D01*
X130736117Y-99501178D01*
X130736118Y-99501177D01*
X130738440Y-99496196D01*
X130795978Y-99281463D01*
X130815353Y-99060000D01*
X130795978Y-98838537D01*
X130738440Y-98623804D01*
X130736117Y-98618822D01*
X130646814Y-98427311D01*
X130646811Y-98427306D01*
X130644488Y-98422324D01*
X130516977Y-98240219D01*
X130359781Y-98083023D01*
X130355273Y-98079866D01*
X130355270Y-98079864D01*
X130279505Y-98026813D01*
X130177677Y-97955512D01*
X130172695Y-97953189D01*
X130172690Y-97953186D01*
X130067627Y-97904195D01*
X130014342Y-97857278D01*
X129994881Y-97789001D01*
X130015423Y-97721041D01*
X130067627Y-97675805D01*
X130172690Y-97626814D01*
X130172695Y-97626811D01*
X130177677Y-97624488D01*
X130323615Y-97522301D01*
X130355270Y-97500136D01*
X130355273Y-97500134D01*
X130359781Y-97496977D01*
X130516977Y-97339781D01*
X130590292Y-97235077D01*
X130641331Y-97162185D01*
X130641332Y-97162183D01*
X130644488Y-97157676D01*
X130646811Y-97152694D01*
X130646814Y-97152689D01*
X130736117Y-96961178D01*
X130736118Y-96961177D01*
X130738440Y-96956196D01*
X130795978Y-96741463D01*
X130812935Y-96547634D01*
X130838798Y-96481517D01*
X130896302Y-96439877D01*
X130967189Y-96435936D01*
X131027551Y-96469521D01*
X133834013Y-99275984D01*
X136414595Y-101856566D01*
X136448621Y-101918878D01*
X136451500Y-101945661D01*
X136451500Y-102973122D01*
X136431498Y-103041243D01*
X136397771Y-103076335D01*
X136320211Y-103130643D01*
X136320208Y-103130645D01*
X136315700Y-103133802D01*
X136153802Y-103295700D01*
X136022477Y-103483251D01*
X136020154Y-103488233D01*
X136020151Y-103488238D01*
X136004195Y-103522457D01*
X135925716Y-103690757D01*
X135866457Y-103911913D01*
X135846502Y-104140000D01*
X135866457Y-104368087D01*
X135867880Y-104373399D01*
X135867881Y-104373402D01*
X135922180Y-104576045D01*
X135925716Y-104589243D01*
X135928039Y-104594224D01*
X135928039Y-104594225D01*
X136020151Y-104791762D01*
X136020154Y-104791767D01*
X136022477Y-104796749D01*
X136095902Y-104901611D01*
X136140217Y-104964898D01*
X136153802Y-104984300D01*
X136315700Y-105146198D01*
X136320208Y-105149355D01*
X136320211Y-105149357D01*
X136398389Y-105204098D01*
X136503251Y-105277523D01*
X136508233Y-105279846D01*
X136508238Y-105279849D01*
X136705775Y-105371961D01*
X136710757Y-105374284D01*
X136716065Y-105375706D01*
X136716067Y-105375707D01*
X136926598Y-105432119D01*
X136926600Y-105432119D01*
X136931913Y-105433543D01*
X137160000Y-105453498D01*
X137387935Y-105433556D01*
X137457539Y-105447545D01*
X137488011Y-105469982D01*
X137838557Y-105820528D01*
X137844411Y-105826793D01*
X137874733Y-105861551D01*
X137882439Y-105870385D01*
X137934729Y-105907136D01*
X137939971Y-105911028D01*
X137990282Y-105950476D01*
X137997201Y-105953600D01*
X137999493Y-105954988D01*
X138014165Y-105963357D01*
X138016525Y-105964622D01*
X138022739Y-105968990D01*
X138029818Y-105971750D01*
X138029820Y-105971751D01*
X138082275Y-105992202D01*
X138088344Y-105994753D01*
X138146573Y-106021045D01*
X138154046Y-106022430D01*
X138156612Y-106023234D01*
X138172835Y-106027855D01*
X138175427Y-106028520D01*
X138182509Y-106031282D01*
X138190044Y-106032274D01*
X138245861Y-106039622D01*
X138252377Y-106040654D01*
X138290770Y-106047770D01*
X138315186Y-106052295D01*
X138322766Y-106051858D01*
X138322767Y-106051858D01*
X138377380Y-106048709D01*
X138384633Y-106048500D01*
X144671088Y-106048500D01*
X144679658Y-106048792D01*
X144729776Y-106052209D01*
X144729780Y-106052209D01*
X144737352Y-106052725D01*
X144744829Y-106051420D01*
X144744830Y-106051420D01*
X144771308Y-106046799D01*
X144800303Y-106041738D01*
X144806821Y-106040777D01*
X144870242Y-106033102D01*
X144877343Y-106030419D01*
X144879952Y-106029778D01*
X144896262Y-106025315D01*
X144898798Y-106024550D01*
X144906284Y-106023243D01*
X144964800Y-105997556D01*
X144970904Y-105995065D01*
X145023548Y-105975173D01*
X145023549Y-105975172D01*
X145030656Y-105972487D01*
X145036919Y-105968183D01*
X145039285Y-105966946D01*
X145054097Y-105958701D01*
X145056351Y-105957368D01*
X145063305Y-105954315D01*
X145114002Y-105915413D01*
X145119332Y-105911541D01*
X145165720Y-105879661D01*
X145165725Y-105879656D01*
X145171981Y-105875357D01*
X145213427Y-105828839D01*
X145218408Y-105823562D01*
X146077073Y-104964898D01*
X146139385Y-104930873D01*
X146195582Y-104931475D01*
X146328476Y-104963380D01*
X146328482Y-104963381D01*
X146333289Y-104964535D01*
X146570000Y-104983165D01*
X146806711Y-104964535D01*
X146811518Y-104963381D01*
X146811524Y-104963380D01*
X146957391Y-104928360D01*
X147037594Y-104909105D01*
X147042167Y-104907211D01*
X147252389Y-104820135D01*
X147252393Y-104820133D01*
X147256963Y-104818240D01*
X147300171Y-104791762D01*
X147455202Y-104696759D01*
X147455208Y-104696755D01*
X147459416Y-104694176D01*
X147639969Y-104539969D01*
X147794176Y-104359416D01*
X147796755Y-104355208D01*
X147796759Y-104355202D01*
X147915654Y-104161183D01*
X147918240Y-104156963D01*
X147922999Y-104145475D01*
X148007211Y-103942167D01*
X148007212Y-103942165D01*
X148009105Y-103937594D01*
X148031474Y-103844419D01*
X148063380Y-103711524D01*
X148063381Y-103711518D01*
X148064535Y-103706711D01*
X148083165Y-103470000D01*
X151556835Y-103470000D01*
X151575465Y-103706711D01*
X151576619Y-103711518D01*
X151576620Y-103711524D01*
X151608526Y-103844419D01*
X151630895Y-103937594D01*
X151632788Y-103942165D01*
X151632789Y-103942167D01*
X151717002Y-104145475D01*
X151721760Y-104156963D01*
X151724346Y-104161183D01*
X151843241Y-104355202D01*
X151843245Y-104355208D01*
X151845824Y-104359416D01*
X152000031Y-104539969D01*
X152180584Y-104694176D01*
X152184792Y-104696755D01*
X152184798Y-104696759D01*
X152339829Y-104791762D01*
X152383037Y-104818240D01*
X152387607Y-104820133D01*
X152387611Y-104820135D01*
X152597833Y-104907211D01*
X152602406Y-104909105D01*
X152682609Y-104928360D01*
X152828476Y-104963380D01*
X152828482Y-104963381D01*
X152833289Y-104964535D01*
X153070000Y-104983165D01*
X153306711Y-104964535D01*
X153311518Y-104963381D01*
X153311524Y-104963380D01*
X153457391Y-104928360D01*
X153537594Y-104909105D01*
X153542167Y-104907211D01*
X153752389Y-104820135D01*
X153752393Y-104820133D01*
X153756963Y-104818240D01*
X153800171Y-104791762D01*
X153955202Y-104696759D01*
X153955208Y-104696755D01*
X153959416Y-104694176D01*
X154139969Y-104539969D01*
X154294176Y-104359416D01*
X154296755Y-104355208D01*
X154296759Y-104355202D01*
X154415654Y-104161183D01*
X154418240Y-104156963D01*
X154422999Y-104145475D01*
X154507211Y-103942167D01*
X154507212Y-103942165D01*
X154509105Y-103937594D01*
X154531474Y-103844419D01*
X154563380Y-103711524D01*
X154563381Y-103711518D01*
X154564535Y-103706711D01*
X154583165Y-103470000D01*
X154564535Y-103233289D01*
X154540651Y-103133802D01*
X154510260Y-103007218D01*
X154509105Y-103002406D01*
X154470208Y-102908500D01*
X154420135Y-102787611D01*
X154420133Y-102787607D01*
X154418240Y-102783037D01*
X154388148Y-102733931D01*
X154296759Y-102584798D01*
X154296755Y-102584792D01*
X154294176Y-102580584D01*
X154139969Y-102400031D01*
X153959416Y-102245824D01*
X153955208Y-102243245D01*
X153955202Y-102243241D01*
X153761183Y-102124346D01*
X153756963Y-102121760D01*
X153752393Y-102119867D01*
X153752389Y-102119865D01*
X153542167Y-102032789D01*
X153542165Y-102032788D01*
X153537594Y-102030895D01*
X153457391Y-102011640D01*
X153311524Y-101976620D01*
X153311518Y-101976619D01*
X153306711Y-101975465D01*
X153070000Y-101956835D01*
X152833289Y-101975465D01*
X152828482Y-101976619D01*
X152828476Y-101976620D01*
X152682609Y-102011640D01*
X152602406Y-102030895D01*
X152597835Y-102032788D01*
X152597833Y-102032789D01*
X152387611Y-102119865D01*
X152387607Y-102119867D01*
X152383037Y-102121760D01*
X152378817Y-102124346D01*
X152184798Y-102243241D01*
X152184792Y-102243245D01*
X152180584Y-102245824D01*
X152000031Y-102400031D01*
X151845824Y-102580584D01*
X151843245Y-102584792D01*
X151843241Y-102584798D01*
X151751852Y-102733931D01*
X151721760Y-102783037D01*
X151719867Y-102787607D01*
X151719865Y-102787611D01*
X151669792Y-102908500D01*
X151630895Y-103002406D01*
X151629740Y-103007218D01*
X151599350Y-103133802D01*
X151575465Y-103233289D01*
X151556835Y-103470000D01*
X148083165Y-103470000D01*
X148064535Y-103233289D01*
X148040651Y-103133802D01*
X148010260Y-103007218D01*
X148009105Y-103002406D01*
X147970208Y-102908500D01*
X147920135Y-102787611D01*
X147920133Y-102787607D01*
X147918240Y-102783037D01*
X147888148Y-102733931D01*
X147796759Y-102584798D01*
X147796755Y-102584792D01*
X147794176Y-102580584D01*
X147639969Y-102400031D01*
X147459416Y-102245824D01*
X147455208Y-102243245D01*
X147455202Y-102243241D01*
X147261183Y-102124346D01*
X147256963Y-102121760D01*
X147252393Y-102119867D01*
X147252389Y-102119865D01*
X147042167Y-102032789D01*
X147042165Y-102032788D01*
X147037594Y-102030895D01*
X146957391Y-102011640D01*
X146811524Y-101976620D01*
X146811518Y-101976619D01*
X146806711Y-101975465D01*
X146570000Y-101956835D01*
X146333289Y-101975465D01*
X146328482Y-101976619D01*
X146328476Y-101976620D01*
X146182609Y-102011640D01*
X146102406Y-102030895D01*
X146097835Y-102032788D01*
X146097833Y-102032789D01*
X145887611Y-102119865D01*
X145887607Y-102119867D01*
X145883037Y-102121760D01*
X145878817Y-102124346D01*
X145684798Y-102243241D01*
X145684792Y-102243245D01*
X145680584Y-102245824D01*
X145500031Y-102400031D01*
X145345824Y-102580584D01*
X145343245Y-102584792D01*
X145343241Y-102584798D01*
X145251852Y-102733931D01*
X145221760Y-102783037D01*
X145219867Y-102787607D01*
X145219865Y-102787611D01*
X145169792Y-102908500D01*
X145130895Y-103002406D01*
X145129740Y-103007218D01*
X145099350Y-103133802D01*
X145075465Y-103233289D01*
X145056835Y-103470000D01*
X145075465Y-103706711D01*
X145103636Y-103824050D01*
X145108526Y-103844419D01*
X145104979Y-103915327D01*
X145075102Y-103962928D01*
X144443435Y-104594595D01*
X144381123Y-104628621D01*
X144354340Y-104631500D01*
X141087168Y-104631500D01*
X141019047Y-104611498D01*
X140972554Y-104557842D01*
X140962450Y-104487568D01*
X140965461Y-104472888D01*
X140969214Y-104458882D01*
X140993543Y-104368087D01*
X141013498Y-104140000D01*
X140993543Y-103911913D01*
X140934284Y-103690757D01*
X140855805Y-103522457D01*
X140839849Y-103488238D01*
X140839846Y-103488233D01*
X140837523Y-103483251D01*
X140706198Y-103295700D01*
X140544300Y-103133802D01*
X140539792Y-103130645D01*
X140539789Y-103130643D01*
X140412112Y-103041243D01*
X140356749Y-103002477D01*
X140351767Y-103000154D01*
X140351762Y-103000151D01*
X140154225Y-102908039D01*
X140154224Y-102908039D01*
X140149243Y-102905716D01*
X140143935Y-102904294D01*
X140143933Y-102904293D01*
X139933402Y-102847881D01*
X139933400Y-102847881D01*
X139928087Y-102846457D01*
X139700000Y-102826502D01*
X139471913Y-102846457D01*
X139466600Y-102847881D01*
X139466598Y-102847881D01*
X139256067Y-102904293D01*
X139256065Y-102904294D01*
X139250757Y-102905716D01*
X139245776Y-102908039D01*
X139245775Y-102908039D01*
X139048238Y-103000151D01*
X139048233Y-103000154D01*
X139043251Y-103002477D01*
X138987888Y-103041243D01*
X138860211Y-103130643D01*
X138860208Y-103130645D01*
X138855700Y-103133802D01*
X138693802Y-103295700D01*
X138562477Y-103483251D01*
X138560154Y-103488233D01*
X138560151Y-103488238D01*
X138544195Y-103522457D01*
X138497278Y-103575742D01*
X138429001Y-103595203D01*
X138361041Y-103574661D01*
X138315805Y-103522457D01*
X138299849Y-103488238D01*
X138299846Y-103488233D01*
X138297523Y-103483251D01*
X138166198Y-103295700D01*
X138004300Y-103133802D01*
X137999792Y-103130645D01*
X137999789Y-103130643D01*
X137922229Y-103076335D01*
X137877901Y-103020878D01*
X137868500Y-102973122D01*
X137868500Y-101628912D01*
X137868792Y-101620342D01*
X137872209Y-101570224D01*
X137872209Y-101570220D01*
X137872725Y-101562648D01*
X137861739Y-101499703D01*
X137860777Y-101493182D01*
X137854015Y-101437304D01*
X137853102Y-101429758D01*
X137850416Y-101422650D01*
X137849779Y-101420056D01*
X137845318Y-101403750D01*
X137844548Y-101401199D01*
X137843242Y-101393716D01*
X137840190Y-101386763D01*
X137817561Y-101335212D01*
X137815069Y-101329105D01*
X137795173Y-101276452D01*
X137795173Y-101276451D01*
X137792487Y-101269344D01*
X137788184Y-101263083D01*
X137786947Y-101260717D01*
X137778720Y-101245937D01*
X137777369Y-101243652D01*
X137774315Y-101236695D01*
X137769695Y-101230675D01*
X137769692Y-101230669D01*
X137735421Y-101186009D01*
X137731541Y-101180668D01*
X137699661Y-101134280D01*
X137699656Y-101134275D01*
X137695357Y-101128019D01*
X137648829Y-101086564D01*
X137643554Y-101081584D01*
X133081970Y-96520000D01*
X135846502Y-96520000D01*
X135866457Y-96748087D01*
X135867881Y-96753400D01*
X135867881Y-96753402D01*
X135905025Y-96892022D01*
X135925716Y-96969243D01*
X135928039Y-96974224D01*
X135928039Y-96974225D01*
X136020151Y-97171762D01*
X136020154Y-97171767D01*
X136022477Y-97176749D01*
X136025634Y-97181257D01*
X136136634Y-97339781D01*
X136153802Y-97364300D01*
X136315700Y-97526198D01*
X136320208Y-97529355D01*
X136320211Y-97529357D01*
X136398389Y-97584098D01*
X136503251Y-97657523D01*
X136508233Y-97659846D01*
X136508238Y-97659849D01*
X136704765Y-97751490D01*
X136710757Y-97754284D01*
X136716065Y-97755706D01*
X136716067Y-97755707D01*
X136926598Y-97812119D01*
X136926600Y-97812119D01*
X136931913Y-97813543D01*
X137160000Y-97833498D01*
X137388087Y-97813543D01*
X137393400Y-97812119D01*
X137393402Y-97812119D01*
X137603933Y-97755707D01*
X137603935Y-97755706D01*
X137609243Y-97754284D01*
X137615235Y-97751490D01*
X137811762Y-97659849D01*
X137811767Y-97659846D01*
X137816749Y-97657523D01*
X137890243Y-97606062D01*
X138938493Y-97606062D01*
X138947789Y-97618077D01*
X138998994Y-97653931D01*
X139008489Y-97659414D01*
X139205947Y-97751490D01*
X139216239Y-97755236D01*
X139426688Y-97811625D01*
X139437481Y-97813528D01*
X139654525Y-97832517D01*
X139665475Y-97832517D01*
X139882519Y-97813528D01*
X139893312Y-97811625D01*
X140103761Y-97755236D01*
X140114053Y-97751490D01*
X140311511Y-97659414D01*
X140321006Y-97653931D01*
X140373048Y-97617491D01*
X140381424Y-97607012D01*
X140374356Y-97593566D01*
X139672812Y-96892022D01*
X139658868Y-96884408D01*
X139657035Y-96884539D01*
X139650420Y-96888790D01*
X138944923Y-97594287D01*
X138938493Y-97606062D01*
X137890243Y-97606062D01*
X137921611Y-97584098D01*
X137999789Y-97529357D01*
X137999792Y-97529355D01*
X138004300Y-97526198D01*
X138166198Y-97364300D01*
X138183367Y-97339781D01*
X138294369Y-97181253D01*
X138297523Y-97176749D01*
X138299847Y-97171765D01*
X138301171Y-97169472D01*
X138352553Y-97120479D01*
X138422267Y-97107043D01*
X138488178Y-97133429D01*
X138519409Y-97169472D01*
X138526066Y-97181002D01*
X138562509Y-97233048D01*
X138572988Y-97241424D01*
X138586434Y-97234356D01*
X139287978Y-96532812D01*
X139294356Y-96521132D01*
X140024408Y-96521132D01*
X140024539Y-96522965D01*
X140028790Y-96529580D01*
X140734287Y-97235077D01*
X140746062Y-97241507D01*
X140758077Y-97232211D01*
X140793931Y-97181006D01*
X140799414Y-97171511D01*
X140891490Y-96974053D01*
X140895236Y-96963761D01*
X140951625Y-96753312D01*
X140953528Y-96742519D01*
X140972517Y-96525475D01*
X140972517Y-96514525D01*
X140953528Y-96297481D01*
X140951625Y-96286688D01*
X140895236Y-96076239D01*
X140891490Y-96065947D01*
X140847468Y-95971542D01*
X145742160Y-95971542D01*
X145747887Y-95979192D01*
X145919042Y-96084077D01*
X145927837Y-96088559D01*
X146137988Y-96175606D01*
X146147373Y-96178655D01*
X146368554Y-96231757D01*
X146378301Y-96233300D01*
X146605070Y-96251147D01*
X146614930Y-96251147D01*
X146841699Y-96233300D01*
X146851446Y-96231757D01*
X147072627Y-96178655D01*
X147082012Y-96175606D01*
X147292163Y-96088559D01*
X147300958Y-96084077D01*
X147468445Y-95981440D01*
X147477400Y-95971542D01*
X152242160Y-95971542D01*
X152247887Y-95979192D01*
X152419042Y-96084077D01*
X152427837Y-96088559D01*
X152637988Y-96175606D01*
X152647373Y-96178655D01*
X152868554Y-96231757D01*
X152878301Y-96233300D01*
X153105070Y-96251147D01*
X153114930Y-96251147D01*
X153341699Y-96233300D01*
X153351446Y-96231757D01*
X153572627Y-96178655D01*
X153582012Y-96175606D01*
X153792163Y-96088559D01*
X153800958Y-96084077D01*
X153968445Y-95981440D01*
X153977907Y-95970982D01*
X153974124Y-95962206D01*
X153122812Y-95110894D01*
X153108868Y-95103280D01*
X153107035Y-95103411D01*
X153100420Y-95107662D01*
X152248920Y-95959162D01*
X152242160Y-95971542D01*
X147477400Y-95971542D01*
X147477907Y-95970982D01*
X147474124Y-95962206D01*
X146622812Y-95110894D01*
X146608868Y-95103280D01*
X146607035Y-95103411D01*
X146600420Y-95107662D01*
X145748920Y-95959162D01*
X145742160Y-95971542D01*
X140847468Y-95971542D01*
X140799414Y-95868489D01*
X140793931Y-95858994D01*
X140757491Y-95806952D01*
X140747012Y-95798576D01*
X140733566Y-95805644D01*
X140032022Y-96507188D01*
X140024408Y-96521132D01*
X139294356Y-96521132D01*
X139295592Y-96518868D01*
X139295461Y-96517035D01*
X139291210Y-96510420D01*
X138585713Y-95804923D01*
X138573938Y-95798493D01*
X138561923Y-95807789D01*
X138526066Y-95858998D01*
X138519409Y-95870528D01*
X138468027Y-95919521D01*
X138398313Y-95932958D01*
X138332402Y-95906571D01*
X138301171Y-95870528D01*
X138299847Y-95868235D01*
X138297523Y-95863251D01*
X138203084Y-95728378D01*
X138169357Y-95680211D01*
X138169355Y-95680208D01*
X138166198Y-95675700D01*
X138004300Y-95513802D01*
X137999792Y-95510645D01*
X137999789Y-95510643D01*
X137888886Y-95432988D01*
X138938576Y-95432988D01*
X138945644Y-95446434D01*
X139647188Y-96147978D01*
X139661132Y-96155592D01*
X139662965Y-96155461D01*
X139669580Y-96151210D01*
X140375077Y-95445713D01*
X140381507Y-95433938D01*
X140372211Y-95421923D01*
X140321006Y-95386069D01*
X140311511Y-95380586D01*
X140114053Y-95288510D01*
X140103761Y-95284764D01*
X139893312Y-95228375D01*
X139882519Y-95226472D01*
X139665475Y-95207483D01*
X139654525Y-95207483D01*
X139437481Y-95226472D01*
X139426688Y-95228375D01*
X139216239Y-95284764D01*
X139205947Y-95288510D01*
X139008489Y-95380586D01*
X138998994Y-95386069D01*
X138946952Y-95422509D01*
X138938576Y-95432988D01*
X137888886Y-95432988D01*
X137816749Y-95382477D01*
X137811767Y-95380154D01*
X137811762Y-95380151D01*
X137614225Y-95288039D01*
X137614224Y-95288039D01*
X137609243Y-95285716D01*
X137603935Y-95284294D01*
X137603933Y-95284293D01*
X137393402Y-95227881D01*
X137393400Y-95227881D01*
X137388087Y-95226457D01*
X137160000Y-95206502D01*
X136931913Y-95226457D01*
X136926600Y-95227881D01*
X136926598Y-95227881D01*
X136716067Y-95284293D01*
X136716065Y-95284294D01*
X136710757Y-95285716D01*
X136705776Y-95288039D01*
X136705775Y-95288039D01*
X136508238Y-95380151D01*
X136508233Y-95380154D01*
X136503251Y-95382477D01*
X136431114Y-95432988D01*
X136320211Y-95510643D01*
X136320208Y-95510645D01*
X136315700Y-95513802D01*
X136153802Y-95675700D01*
X136150645Y-95680208D01*
X136150643Y-95680211D01*
X136116916Y-95728378D01*
X136022477Y-95863251D01*
X136020154Y-95868233D01*
X136020151Y-95868238D01*
X135971980Y-95971542D01*
X135925716Y-96070757D01*
X135924294Y-96076065D01*
X135924293Y-96076067D01*
X135886859Y-96215771D01*
X135866457Y-96291913D01*
X135846502Y-96520000D01*
X133081970Y-96520000D01*
X131311970Y-94750000D01*
X132086496Y-94750000D01*
X132106458Y-94939928D01*
X132165473Y-95121556D01*
X132260960Y-95286944D01*
X132265378Y-95291851D01*
X132265379Y-95291852D01*
X132383023Y-95422509D01*
X132388747Y-95428866D01*
X132543248Y-95541118D01*
X132549276Y-95543802D01*
X132549278Y-95543803D01*
X132711681Y-95616109D01*
X132717712Y-95618794D01*
X132811112Y-95638647D01*
X132898056Y-95657128D01*
X132898061Y-95657128D01*
X132904513Y-95658500D01*
X133095487Y-95658500D01*
X133101939Y-95657128D01*
X133101944Y-95657128D01*
X133188888Y-95638647D01*
X133282288Y-95618794D01*
X133288319Y-95616109D01*
X133450722Y-95543803D01*
X133450724Y-95543802D01*
X133456752Y-95541118D01*
X133611253Y-95428866D01*
X133616977Y-95422509D01*
X133734621Y-95291852D01*
X133734622Y-95291851D01*
X133739040Y-95286944D01*
X133834527Y-95121556D01*
X133859766Y-95043880D01*
X133891502Y-94946207D01*
X133891502Y-94946205D01*
X133893542Y-94939928D01*
X133898450Y-94893230D01*
X133925463Y-94827573D01*
X133934665Y-94817305D01*
X134008168Y-94743802D01*
X145097725Y-94743802D01*
X145115572Y-94970571D01*
X145117115Y-94980318D01*
X145170217Y-95201499D01*
X145173266Y-95210884D01*
X145260313Y-95421035D01*
X145264795Y-95429830D01*
X145367432Y-95597317D01*
X145377890Y-95606779D01*
X145386666Y-95602996D01*
X146237978Y-94751684D01*
X146244356Y-94740004D01*
X146974408Y-94740004D01*
X146974539Y-94741837D01*
X146978790Y-94748452D01*
X147830290Y-95599952D01*
X147842670Y-95606712D01*
X147850320Y-95600985D01*
X147955205Y-95429830D01*
X147959687Y-95421035D01*
X148046734Y-95210884D01*
X148049783Y-95201499D01*
X148102885Y-94980318D01*
X148104428Y-94970571D01*
X148122275Y-94743802D01*
X151597725Y-94743802D01*
X151615572Y-94970571D01*
X151617115Y-94980318D01*
X151670217Y-95201499D01*
X151673266Y-95210884D01*
X151760313Y-95421035D01*
X151764795Y-95429830D01*
X151867432Y-95597317D01*
X151877890Y-95606779D01*
X151886666Y-95602996D01*
X152737978Y-94751684D01*
X152744356Y-94740004D01*
X153474408Y-94740004D01*
X153474539Y-94741837D01*
X153478790Y-94748452D01*
X154330290Y-95599952D01*
X154342670Y-95606712D01*
X154350320Y-95600985D01*
X154455205Y-95429830D01*
X154459687Y-95421035D01*
X154546734Y-95210884D01*
X154549783Y-95201499D01*
X154602885Y-94980318D01*
X154604428Y-94970571D01*
X154622275Y-94743802D01*
X154622275Y-94733942D01*
X154604428Y-94507173D01*
X154602885Y-94497426D01*
X154549783Y-94276245D01*
X154546734Y-94266860D01*
X154459687Y-94056709D01*
X154455205Y-94047914D01*
X154352568Y-93880427D01*
X154342110Y-93870965D01*
X154333334Y-93874748D01*
X153482022Y-94726060D01*
X153474408Y-94740004D01*
X152744356Y-94740004D01*
X152745592Y-94737740D01*
X152745461Y-94735907D01*
X152741210Y-94729292D01*
X151889710Y-93877792D01*
X151877330Y-93871032D01*
X151869680Y-93876759D01*
X151764795Y-94047914D01*
X151760313Y-94056709D01*
X151673266Y-94266860D01*
X151670217Y-94276245D01*
X151617115Y-94497426D01*
X151615572Y-94507173D01*
X151597725Y-94733942D01*
X151597725Y-94743802D01*
X148122275Y-94743802D01*
X148122275Y-94733942D01*
X148104428Y-94507173D01*
X148102885Y-94497426D01*
X148049783Y-94276245D01*
X148046734Y-94266860D01*
X147959687Y-94056709D01*
X147955205Y-94047914D01*
X147852568Y-93880427D01*
X147842110Y-93870965D01*
X147833334Y-93874748D01*
X146982022Y-94726060D01*
X146974408Y-94740004D01*
X146244356Y-94740004D01*
X146245592Y-94737740D01*
X146245461Y-94735907D01*
X146241210Y-94729292D01*
X145389710Y-93877792D01*
X145377330Y-93871032D01*
X145369680Y-93876759D01*
X145264795Y-94047914D01*
X145260313Y-94056709D01*
X145173266Y-94266860D01*
X145170217Y-94276245D01*
X145117115Y-94497426D01*
X145115572Y-94507173D01*
X145097725Y-94733942D01*
X145097725Y-94743802D01*
X134008168Y-94743802D01*
X135245209Y-93506762D01*
X145742093Y-93506762D01*
X145745876Y-93515538D01*
X146597188Y-94366850D01*
X146611132Y-94374464D01*
X146612965Y-94374333D01*
X146619580Y-94370082D01*
X147471080Y-93518582D01*
X147477534Y-93506762D01*
X152242093Y-93506762D01*
X152245876Y-93515538D01*
X153097188Y-94366850D01*
X153111132Y-94374464D01*
X153112965Y-94374333D01*
X153119580Y-94370082D01*
X153971080Y-93518582D01*
X153977840Y-93506202D01*
X153972113Y-93498552D01*
X153800958Y-93393667D01*
X153792163Y-93389185D01*
X153582012Y-93302138D01*
X153572627Y-93299089D01*
X153351446Y-93245987D01*
X153341699Y-93244444D01*
X153114930Y-93226597D01*
X153105070Y-93226597D01*
X152878301Y-93244444D01*
X152868554Y-93245987D01*
X152647373Y-93299089D01*
X152637988Y-93302138D01*
X152427837Y-93389185D01*
X152419042Y-93393667D01*
X152251555Y-93496304D01*
X152242093Y-93506762D01*
X147477534Y-93506762D01*
X147477840Y-93506202D01*
X147472113Y-93498552D01*
X147300958Y-93393667D01*
X147292163Y-93389185D01*
X147082012Y-93302138D01*
X147072627Y-93299089D01*
X146851446Y-93245987D01*
X146841699Y-93244444D01*
X146614930Y-93226597D01*
X146605070Y-93226597D01*
X146378301Y-93244444D01*
X146368554Y-93245987D01*
X146147373Y-93299089D01*
X146137988Y-93302138D01*
X145927837Y-93389185D01*
X145919042Y-93393667D01*
X145751555Y-93496304D01*
X145742093Y-93506762D01*
X135245209Y-93506762D01*
X136006566Y-92745405D01*
X136068878Y-92711379D01*
X136095661Y-92708500D01*
X137548095Y-92708500D01*
X137616216Y-92728502D01*
X137622156Y-92732564D01*
X137689593Y-92781560D01*
X137702748Y-92791118D01*
X137708776Y-92793802D01*
X137708778Y-92793803D01*
X137871181Y-92866109D01*
X137877212Y-92868794D01*
X137970612Y-92888647D01*
X138057556Y-92907128D01*
X138057561Y-92907128D01*
X138064013Y-92908500D01*
X138254987Y-92908500D01*
X138261439Y-92907128D01*
X138261444Y-92907128D01*
X138348387Y-92888647D01*
X138441788Y-92868794D01*
X138447819Y-92866109D01*
X138610222Y-92793803D01*
X138610224Y-92793802D01*
X138616252Y-92791118D01*
X138629408Y-92781560D01*
X138756667Y-92689100D01*
X138770753Y-92678866D01*
X138824304Y-92619392D01*
X138894121Y-92541852D01*
X138894122Y-92541851D01*
X138898540Y-92536944D01*
X138984202Y-92388573D01*
X138990723Y-92377279D01*
X138990724Y-92377278D01*
X138994027Y-92371556D01*
X139053042Y-92189928D01*
X139054148Y-92179411D01*
X139072314Y-92006565D01*
X139073004Y-92000000D01*
X139072314Y-91993435D01*
X139053732Y-91816635D01*
X139053732Y-91816633D01*
X139053042Y-91810072D01*
X138994027Y-91628444D01*
X138898540Y-91463056D01*
X138833038Y-91390308D01*
X138775175Y-91326045D01*
X138775174Y-91326044D01*
X138770753Y-91321134D01*
X138629541Y-91218537D01*
X138621594Y-91212763D01*
X138621593Y-91212762D01*
X138616252Y-91208882D01*
X138610224Y-91206198D01*
X138610222Y-91206197D01*
X138447819Y-91133891D01*
X138447818Y-91133891D01*
X138441788Y-91131206D01*
X138348388Y-91111353D01*
X138261444Y-91092872D01*
X138261439Y-91092872D01*
X138254987Y-91091500D01*
X138064013Y-91091500D01*
X138057561Y-91092872D01*
X138057556Y-91092872D01*
X137970612Y-91111353D01*
X137877212Y-91131206D01*
X137871182Y-91133891D01*
X137871181Y-91133891D01*
X137708778Y-91206197D01*
X137708776Y-91206198D01*
X137702748Y-91208882D01*
X137697407Y-91212762D01*
X137697406Y-91212763D01*
X137622156Y-91267436D01*
X137555289Y-91291294D01*
X137548095Y-91291500D01*
X135778912Y-91291500D01*
X135770342Y-91291208D01*
X135720224Y-91287791D01*
X135720220Y-91287791D01*
X135712648Y-91287275D01*
X135705171Y-91288580D01*
X135705170Y-91288580D01*
X135690113Y-91291208D01*
X135649703Y-91298261D01*
X135643186Y-91299222D01*
X135579758Y-91306898D01*
X135572650Y-91309584D01*
X135570056Y-91310221D01*
X135553750Y-91314682D01*
X135551199Y-91315452D01*
X135543716Y-91316758D01*
X135536764Y-91319810D01*
X135536763Y-91319810D01*
X135485212Y-91342439D01*
X135479105Y-91344931D01*
X135426452Y-91364827D01*
X135419344Y-91367513D01*
X135413083Y-91371816D01*
X135410717Y-91373053D01*
X135395937Y-91381280D01*
X135393652Y-91382631D01*
X135386695Y-91385685D01*
X135380675Y-91390305D01*
X135380669Y-91390308D01*
X135349542Y-91414194D01*
X135335998Y-91424587D01*
X135330668Y-91428459D01*
X135284280Y-91460339D01*
X135284275Y-91460344D01*
X135278019Y-91464643D01*
X135272968Y-91470313D01*
X135272966Y-91470314D01*
X135236565Y-91511170D01*
X135231584Y-91516446D01*
X132933467Y-93814563D01*
X132870569Y-93848715D01*
X132717712Y-93881206D01*
X132711682Y-93883891D01*
X132711681Y-93883891D01*
X132549278Y-93956197D01*
X132549276Y-93956198D01*
X132543248Y-93958882D01*
X132388747Y-94071134D01*
X132384326Y-94076044D01*
X132384325Y-94076045D01*
X132266615Y-94206776D01*
X132260960Y-94213056D01*
X132165473Y-94378444D01*
X132106458Y-94560072D01*
X132105768Y-94566633D01*
X132105768Y-94566635D01*
X132099930Y-94622185D01*
X132086496Y-94750000D01*
X131311970Y-94750000D01*
X130834906Y-94272936D01*
X130800880Y-94210624D01*
X130798480Y-94172859D01*
X130807720Y-94067251D01*
X130815353Y-93980000D01*
X130795978Y-93758537D01*
X130738440Y-93543804D01*
X130717339Y-93498552D01*
X130646814Y-93347311D01*
X130646811Y-93347306D01*
X130644488Y-93342324D01*
X130614215Y-93299089D01*
X130520136Y-93164730D01*
X130520134Y-93164727D01*
X130516977Y-93160219D01*
X130359781Y-93003023D01*
X130355273Y-92999866D01*
X130355270Y-92999864D01*
X130279505Y-92946813D01*
X130177677Y-92875512D01*
X130172695Y-92873189D01*
X130172690Y-92873186D01*
X130067627Y-92824195D01*
X130014342Y-92777278D01*
X129994881Y-92709001D01*
X130015423Y-92641041D01*
X130067627Y-92595805D01*
X130172690Y-92546814D01*
X130172695Y-92546811D01*
X130177677Y-92544488D01*
X130338266Y-92432042D01*
X130355270Y-92420136D01*
X130355273Y-92420134D01*
X130359781Y-92416977D01*
X130516977Y-92259781D01*
X130565889Y-92189928D01*
X130641331Y-92082185D01*
X130641332Y-92082183D01*
X130644488Y-92077676D01*
X130646811Y-92072694D01*
X130646814Y-92072689D01*
X130736117Y-91881178D01*
X130736118Y-91881177D01*
X130738440Y-91876196D01*
X130795978Y-91661463D01*
X130815353Y-91440000D01*
X130795978Y-91218537D01*
X130738440Y-91003804D01*
X130704050Y-90930055D01*
X130646814Y-90807311D01*
X130646811Y-90807306D01*
X130644488Y-90802324D01*
X130577368Y-90706466D01*
X130520136Y-90624730D01*
X130520134Y-90624727D01*
X130516977Y-90620219D01*
X130359781Y-90463023D01*
X130355273Y-90459866D01*
X130355270Y-90459864D01*
X130279505Y-90406813D01*
X130177677Y-90335512D01*
X130172695Y-90333189D01*
X130172690Y-90333186D01*
X130067627Y-90284195D01*
X130014342Y-90237278D01*
X129994881Y-90169001D01*
X130015423Y-90101041D01*
X130067627Y-90055805D01*
X130076062Y-90051872D01*
X130106833Y-90037523D01*
X130172690Y-90006814D01*
X130172695Y-90006811D01*
X130177677Y-90004488D01*
X130323615Y-89902301D01*
X130355270Y-89880136D01*
X130355273Y-89880134D01*
X130359781Y-89876977D01*
X130516977Y-89719781D01*
X130529097Y-89702473D01*
X130641331Y-89542185D01*
X130641332Y-89542183D01*
X130644488Y-89537676D01*
X130646811Y-89532694D01*
X130646814Y-89532689D01*
X130736117Y-89341178D01*
X130736118Y-89341177D01*
X130738440Y-89336196D01*
X130795978Y-89121463D01*
X130815353Y-88900000D01*
X135846502Y-88900000D01*
X135866457Y-89128087D01*
X135925716Y-89349243D01*
X135928039Y-89354224D01*
X135928039Y-89354225D01*
X136020151Y-89551762D01*
X136020154Y-89551767D01*
X136022477Y-89556749D01*
X136025634Y-89561257D01*
X136136634Y-89719781D01*
X136153802Y-89744300D01*
X136315700Y-89906198D01*
X136320208Y-89909355D01*
X136320211Y-89909357D01*
X136361542Y-89938297D01*
X136503251Y-90037523D01*
X136508233Y-90039846D01*
X136508238Y-90039849D01*
X136704765Y-90131490D01*
X136710757Y-90134284D01*
X136716065Y-90135706D01*
X136716067Y-90135707D01*
X136926598Y-90192119D01*
X136926600Y-90192119D01*
X136931913Y-90193543D01*
X137160000Y-90213498D01*
X137388087Y-90193543D01*
X137393400Y-90192119D01*
X137393402Y-90192119D01*
X137603933Y-90135707D01*
X137603935Y-90135706D01*
X137609243Y-90134284D01*
X137615235Y-90131490D01*
X137811762Y-90039849D01*
X137811767Y-90039846D01*
X137816749Y-90037523D01*
X137958458Y-89938297D01*
X137999789Y-89909357D01*
X137999792Y-89909355D01*
X138004300Y-89906198D01*
X138166198Y-89744300D01*
X138183367Y-89719781D01*
X138294366Y-89561257D01*
X138297523Y-89556749D01*
X138299846Y-89551767D01*
X138299849Y-89551762D01*
X138315805Y-89517543D01*
X138362722Y-89464258D01*
X138430999Y-89444797D01*
X138498959Y-89465339D01*
X138544195Y-89517543D01*
X138560151Y-89551762D01*
X138560154Y-89551767D01*
X138562477Y-89556749D01*
X138565634Y-89561257D01*
X138676634Y-89719781D01*
X138693802Y-89744300D01*
X138855700Y-89906198D01*
X138860208Y-89909355D01*
X138860211Y-89909357D01*
X138901542Y-89938297D01*
X139043251Y-90037523D01*
X139048233Y-90039846D01*
X139048238Y-90039849D01*
X139244765Y-90131490D01*
X139250757Y-90134284D01*
X139256065Y-90135706D01*
X139256067Y-90135707D01*
X139466598Y-90192119D01*
X139466600Y-90192119D01*
X139471913Y-90193543D01*
X139700000Y-90213498D01*
X139928087Y-90193543D01*
X139933400Y-90192119D01*
X139933402Y-90192119D01*
X140143933Y-90135707D01*
X140143935Y-90135706D01*
X140149243Y-90134284D01*
X140155235Y-90131490D01*
X140351762Y-90039849D01*
X140351767Y-90039846D01*
X140356749Y-90037523D01*
X140498458Y-89938297D01*
X140539789Y-89909357D01*
X140539792Y-89909355D01*
X140544300Y-89906198D01*
X140706198Y-89744300D01*
X140720638Y-89723678D01*
X140763665Y-89662229D01*
X140819122Y-89617901D01*
X140866878Y-89608500D01*
X145050769Y-89608500D01*
X145118890Y-89628502D01*
X145165383Y-89682158D01*
X145175487Y-89752432D01*
X145171371Y-89770128D01*
X145170895Y-89771278D01*
X145169741Y-89776085D01*
X145169739Y-89776091D01*
X145116620Y-89997348D01*
X145115465Y-90002161D01*
X145096835Y-90238872D01*
X145115465Y-90475583D01*
X145170895Y-90706466D01*
X145172788Y-90711037D01*
X145172789Y-90711039D01*
X145208733Y-90797815D01*
X145261760Y-90925835D01*
X145264346Y-90930055D01*
X145383241Y-91124074D01*
X145383245Y-91124080D01*
X145385824Y-91128288D01*
X145462904Y-91218537D01*
X145531477Y-91298825D01*
X145540031Y-91308841D01*
X145720584Y-91463048D01*
X145724792Y-91465627D01*
X145724798Y-91465631D01*
X145803527Y-91513876D01*
X145923037Y-91587112D01*
X145927607Y-91589005D01*
X145927611Y-91589007D01*
X146102537Y-91661463D01*
X146142406Y-91677977D01*
X146222609Y-91697232D01*
X146368476Y-91732252D01*
X146368482Y-91732253D01*
X146373289Y-91733407D01*
X146610000Y-91752037D01*
X146846711Y-91733407D01*
X146851518Y-91732253D01*
X146851524Y-91732252D01*
X146997391Y-91697232D01*
X147077594Y-91677977D01*
X147117463Y-91661463D01*
X147292389Y-91589007D01*
X147292393Y-91589005D01*
X147296963Y-91587112D01*
X147416473Y-91513876D01*
X147495202Y-91465631D01*
X147495208Y-91465627D01*
X147499416Y-91463048D01*
X147679969Y-91308841D01*
X147688524Y-91298825D01*
X147757096Y-91218537D01*
X147834176Y-91128288D01*
X147836755Y-91124080D01*
X147836759Y-91124074D01*
X147955654Y-90930055D01*
X147958240Y-90925835D01*
X148011268Y-90797815D01*
X148047211Y-90711039D01*
X148047212Y-90711037D01*
X148049105Y-90706466D01*
X148104535Y-90475583D01*
X148123165Y-90238872D01*
X148104535Y-90002161D01*
X148103380Y-89997348D01*
X148050261Y-89776091D01*
X148050259Y-89776085D01*
X148049105Y-89771278D01*
X148049336Y-89771223D01*
X148047369Y-89702473D01*
X148084030Y-89641674D01*
X148147741Y-89610346D01*
X148169231Y-89608500D01*
X151425468Y-89608500D01*
X151493589Y-89628502D01*
X151514563Y-89645405D01*
X151615102Y-89745944D01*
X151649128Y-89808256D01*
X151648526Y-89864451D01*
X151639439Y-89902301D01*
X151627054Y-89953891D01*
X151615465Y-90002161D01*
X151596835Y-90238872D01*
X151615465Y-90475583D01*
X151670895Y-90706466D01*
X151672788Y-90711037D01*
X151672789Y-90711039D01*
X151708733Y-90797815D01*
X151761760Y-90925835D01*
X151764346Y-90930055D01*
X151883241Y-91124074D01*
X151883245Y-91124080D01*
X151885824Y-91128288D01*
X151962904Y-91218537D01*
X152031477Y-91298825D01*
X152040031Y-91308841D01*
X152220584Y-91463048D01*
X152224792Y-91465627D01*
X152224798Y-91465631D01*
X152303527Y-91513876D01*
X152423037Y-91587112D01*
X152427607Y-91589005D01*
X152427611Y-91589007D01*
X152602537Y-91661463D01*
X152642406Y-91677977D01*
X152722609Y-91697232D01*
X152868476Y-91732252D01*
X152868482Y-91732253D01*
X152873289Y-91733407D01*
X153110000Y-91752037D01*
X153346711Y-91733407D01*
X153351518Y-91732253D01*
X153351524Y-91732252D01*
X153497391Y-91697232D01*
X153577594Y-91677977D01*
X153617463Y-91661463D01*
X153792389Y-91589007D01*
X153792393Y-91589005D01*
X153796963Y-91587112D01*
X153916473Y-91513876D01*
X153995202Y-91465631D01*
X153995208Y-91465627D01*
X153999416Y-91463048D01*
X154179969Y-91308841D01*
X154188524Y-91298825D01*
X154257096Y-91218537D01*
X154334176Y-91128288D01*
X154336755Y-91124080D01*
X154336759Y-91124074D01*
X154455654Y-90930055D01*
X154458240Y-90925835D01*
X154511268Y-90797815D01*
X154547211Y-90711039D01*
X154547212Y-90711037D01*
X154549105Y-90706466D01*
X154604535Y-90475583D01*
X154623165Y-90238872D01*
X154604535Y-90002161D01*
X154600899Y-89987012D01*
X154568360Y-89851481D01*
X154549105Y-89771278D01*
X154539519Y-89748134D01*
X154460135Y-89556483D01*
X154460133Y-89556479D01*
X154458240Y-89551909D01*
X154446462Y-89532689D01*
X154336759Y-89353670D01*
X154336755Y-89353664D01*
X154334176Y-89349456D01*
X154179969Y-89168903D01*
X153999416Y-89014696D01*
X153995208Y-89012117D01*
X153995202Y-89012113D01*
X153801183Y-88893218D01*
X153796963Y-88890632D01*
X153792393Y-88888739D01*
X153792389Y-88888737D01*
X153582167Y-88801661D01*
X153582165Y-88801660D01*
X153577594Y-88799767D01*
X153469646Y-88773851D01*
X153351524Y-88745492D01*
X153351518Y-88745491D01*
X153346711Y-88744337D01*
X153110000Y-88725707D01*
X152873289Y-88744337D01*
X152868482Y-88745491D01*
X152868476Y-88745492D01*
X152797352Y-88762568D01*
X152735580Y-88777398D01*
X152664673Y-88773851D01*
X152617072Y-88743974D01*
X152292578Y-88419480D01*
X152286724Y-88413215D01*
X152286329Y-88412762D01*
X152248689Y-88369615D01*
X152196408Y-88332871D01*
X152191114Y-88328939D01*
X152146821Y-88294209D01*
X152140846Y-88289524D01*
X152133930Y-88286401D01*
X152131644Y-88285017D01*
X152116963Y-88276643D01*
X152114603Y-88275378D01*
X152108389Y-88271010D01*
X152101310Y-88268250D01*
X152101308Y-88268249D01*
X152048853Y-88247798D01*
X152042784Y-88245247D01*
X151984555Y-88218955D01*
X151977088Y-88217571D01*
X151974533Y-88216770D01*
X151958280Y-88212141D01*
X151955700Y-88211478D01*
X151948619Y-88208718D01*
X151941088Y-88207727D01*
X151941086Y-88207726D01*
X151911467Y-88203827D01*
X151885267Y-88200378D01*
X151878769Y-88199348D01*
X151815942Y-88187704D01*
X151808362Y-88188141D01*
X151808361Y-88188141D01*
X151753736Y-88191291D01*
X151746482Y-88191500D01*
X140866878Y-88191500D01*
X140798757Y-88171498D01*
X140763665Y-88137771D01*
X140709357Y-88060211D01*
X140709355Y-88060208D01*
X140706198Y-88055700D01*
X140544300Y-87893802D01*
X140539792Y-87890645D01*
X140539789Y-87890643D01*
X140430243Y-87813938D01*
X140356749Y-87762477D01*
X140351767Y-87760154D01*
X140351762Y-87760151D01*
X140154225Y-87668039D01*
X140154224Y-87668039D01*
X140149243Y-87665716D01*
X140143935Y-87664294D01*
X140143933Y-87664293D01*
X139933402Y-87607881D01*
X139933400Y-87607881D01*
X139928087Y-87606457D01*
X139700000Y-87586502D01*
X139471913Y-87606457D01*
X139466600Y-87607881D01*
X139466598Y-87607881D01*
X139256067Y-87664293D01*
X139256065Y-87664294D01*
X139250757Y-87665716D01*
X139245776Y-87668039D01*
X139245775Y-87668039D01*
X139048238Y-87760151D01*
X139048233Y-87760154D01*
X139043251Y-87762477D01*
X138969757Y-87813938D01*
X138860211Y-87890643D01*
X138860208Y-87890645D01*
X138855700Y-87893802D01*
X138693802Y-88055700D01*
X138690645Y-88060208D01*
X138690643Y-88060211D01*
X138673475Y-88084730D01*
X138562477Y-88243251D01*
X138560154Y-88248233D01*
X138560151Y-88248238D01*
X138544195Y-88282457D01*
X138497278Y-88335742D01*
X138429001Y-88355203D01*
X138361041Y-88334661D01*
X138315805Y-88282457D01*
X138299849Y-88248238D01*
X138299846Y-88248233D01*
X138297523Y-88243251D01*
X138186525Y-88084730D01*
X138169357Y-88060211D01*
X138169355Y-88060208D01*
X138166198Y-88055700D01*
X138004300Y-87893802D01*
X137999792Y-87890645D01*
X137999789Y-87890643D01*
X137890243Y-87813938D01*
X137816749Y-87762477D01*
X137811767Y-87760154D01*
X137811762Y-87760151D01*
X137614225Y-87668039D01*
X137614224Y-87668039D01*
X137609243Y-87665716D01*
X137603935Y-87664294D01*
X137603933Y-87664293D01*
X137393402Y-87607881D01*
X137393400Y-87607881D01*
X137388087Y-87606457D01*
X137160000Y-87586502D01*
X136931913Y-87606457D01*
X136926600Y-87607881D01*
X136926598Y-87607881D01*
X136716067Y-87664293D01*
X136716065Y-87664294D01*
X136710757Y-87665716D01*
X136705776Y-87668039D01*
X136705775Y-87668039D01*
X136508238Y-87760151D01*
X136508233Y-87760154D01*
X136503251Y-87762477D01*
X136429757Y-87813938D01*
X136320211Y-87890643D01*
X136320208Y-87890645D01*
X136315700Y-87893802D01*
X136153802Y-88055700D01*
X136150645Y-88060208D01*
X136150643Y-88060211D01*
X136133475Y-88084730D01*
X136022477Y-88243251D01*
X136020154Y-88248233D01*
X136020151Y-88248238D01*
X135928039Y-88445775D01*
X135925716Y-88450757D01*
X135866457Y-88671913D01*
X135846502Y-88900000D01*
X130815353Y-88900000D01*
X130795978Y-88678537D01*
X130738440Y-88463804D01*
X130736117Y-88458822D01*
X130646814Y-88267311D01*
X130646811Y-88267306D01*
X130644488Y-88262324D01*
X130633479Y-88246601D01*
X130520136Y-88084730D01*
X130520134Y-88084727D01*
X130516977Y-88080219D01*
X130359781Y-87923023D01*
X130355273Y-87919866D01*
X130355270Y-87919864D01*
X130220808Y-87825713D01*
X130177677Y-87795512D01*
X130172695Y-87793189D01*
X130172690Y-87793186D01*
X130067627Y-87744195D01*
X130014342Y-87697278D01*
X129994881Y-87629001D01*
X130015423Y-87561041D01*
X130067627Y-87515805D01*
X130172690Y-87466814D01*
X130172695Y-87466811D01*
X130177677Y-87464488D01*
X130279505Y-87393187D01*
X130355270Y-87340136D01*
X130355273Y-87340134D01*
X130359781Y-87336977D01*
X130516977Y-87179781D01*
X130644488Y-86997676D01*
X130646811Y-86992694D01*
X130646814Y-86992689D01*
X130736117Y-86801178D01*
X130736118Y-86801177D01*
X130738440Y-86796196D01*
X130795978Y-86581463D01*
X130815353Y-86360000D01*
X130795978Y-86138537D01*
X130738440Y-85923804D01*
X130736117Y-85918822D01*
X130646814Y-85727311D01*
X130646811Y-85727306D01*
X130644488Y-85722324D01*
X130516977Y-85540219D01*
X130359781Y-85383023D01*
X130355273Y-85379866D01*
X130355270Y-85379864D01*
X130279505Y-85326813D01*
X130177677Y-85255512D01*
X130172695Y-85253189D01*
X130172690Y-85253186D01*
X130067627Y-85204195D01*
X130014342Y-85157278D01*
X129994881Y-85089001D01*
X130015423Y-85021041D01*
X130067627Y-84975805D01*
X130172690Y-84926814D01*
X130172695Y-84926811D01*
X130177677Y-84924488D01*
X130279505Y-84853187D01*
X130355270Y-84800136D01*
X130355273Y-84800134D01*
X130359781Y-84796977D01*
X130516977Y-84639781D01*
X130604894Y-84514223D01*
X130641331Y-84462185D01*
X130641332Y-84462183D01*
X130644488Y-84457676D01*
X130646811Y-84452694D01*
X130646814Y-84452689D01*
X130736117Y-84261178D01*
X130736118Y-84261177D01*
X130738440Y-84256196D01*
X130795978Y-84041463D01*
X130815353Y-83820000D01*
X130795978Y-83598537D01*
X130738440Y-83383804D01*
X130736117Y-83378822D01*
X130646814Y-83187311D01*
X130646811Y-83187306D01*
X130644488Y-83182324D01*
X130641331Y-83177815D01*
X130520136Y-83004730D01*
X130520134Y-83004727D01*
X130516977Y-83000219D01*
X130359781Y-82843023D01*
X130355273Y-82839866D01*
X130355270Y-82839864D01*
X130279505Y-82786813D01*
X130177677Y-82715512D01*
X130172695Y-82713189D01*
X130172690Y-82713186D01*
X130067035Y-82663919D01*
X130013750Y-82617002D01*
X129994289Y-82548725D01*
X130014831Y-82480765D01*
X130067035Y-82435529D01*
X130172445Y-82386376D01*
X130181931Y-82380898D01*
X130225764Y-82350207D01*
X130234139Y-82339729D01*
X130227071Y-82326281D01*
X129552812Y-81652022D01*
X129538868Y-81644408D01*
X129537035Y-81644539D01*
X129530420Y-81648790D01*
X128852207Y-82327003D01*
X128845777Y-82338777D01*
X128855074Y-82350793D01*
X128898069Y-82380898D01*
X128907555Y-82386376D01*
X129012965Y-82435529D01*
X129066250Y-82482446D01*
X129085711Y-82550723D01*
X129065169Y-82618683D01*
X129012965Y-82663919D01*
X128907311Y-82713186D01*
X128907306Y-82713189D01*
X128902324Y-82715512D01*
X128897817Y-82718668D01*
X128897815Y-82718669D01*
X128724730Y-82839864D01*
X128724727Y-82839866D01*
X128720219Y-82843023D01*
X128563023Y-83000219D01*
X128559866Y-83004727D01*
X128559864Y-83004730D01*
X128438669Y-83177815D01*
X128435512Y-83182324D01*
X128433189Y-83187306D01*
X128433186Y-83187311D01*
X128343883Y-83378822D01*
X128341560Y-83383804D01*
X128284022Y-83598537D01*
X128264647Y-83820000D01*
X128284022Y-84041463D01*
X128341560Y-84256196D01*
X128343882Y-84261177D01*
X128343883Y-84261178D01*
X128433186Y-84452689D01*
X128433189Y-84452694D01*
X128435512Y-84457676D01*
X128438668Y-84462183D01*
X128438669Y-84462185D01*
X128475107Y-84514223D01*
X128563023Y-84639781D01*
X128720219Y-84796977D01*
X128724727Y-84800134D01*
X128724730Y-84800136D01*
X128800495Y-84853187D01*
X128902323Y-84924488D01*
X128907305Y-84926811D01*
X128907310Y-84926814D01*
X129012373Y-84975805D01*
X129065658Y-85022722D01*
X129085119Y-85090999D01*
X129064577Y-85158959D01*
X129012373Y-85204195D01*
X128907311Y-85253186D01*
X128907306Y-85253189D01*
X128902324Y-85255512D01*
X128897817Y-85258668D01*
X128897815Y-85258669D01*
X128724730Y-85379864D01*
X128724727Y-85379866D01*
X128720219Y-85383023D01*
X128563023Y-85540219D01*
X128435512Y-85722324D01*
X128433189Y-85727306D01*
X128433186Y-85727311D01*
X128343883Y-85918822D01*
X128341560Y-85923804D01*
X128284022Y-86138537D01*
X128264647Y-86360000D01*
X128284022Y-86581463D01*
X128341560Y-86796196D01*
X128343882Y-86801177D01*
X128343883Y-86801178D01*
X128433186Y-86992689D01*
X128433189Y-86992694D01*
X128435512Y-86997676D01*
X128563023Y-87179781D01*
X128720219Y-87336977D01*
X128724727Y-87340134D01*
X128724730Y-87340136D01*
X128800495Y-87393187D01*
X128902323Y-87464488D01*
X128907305Y-87466811D01*
X128907310Y-87466814D01*
X129012373Y-87515805D01*
X129065658Y-87562722D01*
X129085119Y-87630999D01*
X129064577Y-87698959D01*
X129012373Y-87744195D01*
X128907311Y-87793186D01*
X128907306Y-87793189D01*
X128902324Y-87795512D01*
X128897817Y-87798668D01*
X128897815Y-87798669D01*
X128724730Y-87919864D01*
X128724727Y-87919866D01*
X128720219Y-87923023D01*
X128563023Y-88080219D01*
X128559866Y-88084727D01*
X128559864Y-88084730D01*
X128446521Y-88246601D01*
X128435512Y-88262324D01*
X128433189Y-88267306D01*
X128433186Y-88267311D01*
X128343883Y-88458822D01*
X128341560Y-88463804D01*
X128284022Y-88678537D01*
X128264647Y-88900000D01*
X128284022Y-89121463D01*
X128341560Y-89336196D01*
X128343882Y-89341177D01*
X128343883Y-89341178D01*
X128433186Y-89532689D01*
X128433189Y-89532694D01*
X128435512Y-89537676D01*
X128438668Y-89542183D01*
X128438669Y-89542185D01*
X128550904Y-89702473D01*
X128563023Y-89719781D01*
X128720219Y-89876977D01*
X128724727Y-89880134D01*
X128724730Y-89880136D01*
X128756385Y-89902301D01*
X128902323Y-90004488D01*
X128907305Y-90006811D01*
X128907310Y-90006814D01*
X128973167Y-90037523D01*
X129003939Y-90051872D01*
X129012373Y-90055805D01*
X129065658Y-90102722D01*
X129085119Y-90170999D01*
X129064577Y-90238959D01*
X129012373Y-90284195D01*
X128907311Y-90333186D01*
X128907306Y-90333189D01*
X128902324Y-90335512D01*
X128897817Y-90338668D01*
X128897815Y-90338669D01*
X128724730Y-90459864D01*
X128724727Y-90459866D01*
X128720219Y-90463023D01*
X128563023Y-90620219D01*
X128559866Y-90624727D01*
X128559864Y-90624730D01*
X128502632Y-90706466D01*
X128435512Y-90802324D01*
X128433189Y-90807306D01*
X128433186Y-90807311D01*
X128375950Y-90930055D01*
X128341560Y-91003804D01*
X128284022Y-91218537D01*
X128264647Y-91440000D01*
X128284022Y-91661463D01*
X128341560Y-91876196D01*
X128343882Y-91881177D01*
X128343883Y-91881178D01*
X128433186Y-92072689D01*
X128433189Y-92072694D01*
X128435512Y-92077676D01*
X128438668Y-92082183D01*
X128438669Y-92082185D01*
X128514112Y-92189928D01*
X128563023Y-92259781D01*
X128720219Y-92416977D01*
X128724727Y-92420134D01*
X128724730Y-92420136D01*
X128741734Y-92432042D01*
X128902323Y-92544488D01*
X128907305Y-92546811D01*
X128907310Y-92546814D01*
X129012373Y-92595805D01*
X129065658Y-92642722D01*
X129085119Y-92710999D01*
X129064577Y-92778959D01*
X129012373Y-92824195D01*
X128907311Y-92873186D01*
X128907306Y-92873189D01*
X128902324Y-92875512D01*
X128897817Y-92878668D01*
X128897815Y-92878669D01*
X128724730Y-92999864D01*
X128724727Y-92999866D01*
X128720219Y-93003023D01*
X128563023Y-93160219D01*
X128559866Y-93164727D01*
X128559864Y-93164730D01*
X128465785Y-93299089D01*
X128435512Y-93342324D01*
X128433189Y-93347306D01*
X128433186Y-93347311D01*
X128362661Y-93498552D01*
X128341560Y-93543804D01*
X128284022Y-93758537D01*
X128264647Y-93980000D01*
X128284022Y-94201463D01*
X128341560Y-94416196D01*
X128343882Y-94421177D01*
X128343883Y-94421178D01*
X128433186Y-94612689D01*
X128433189Y-94612694D01*
X128435512Y-94617676D01*
X128438668Y-94622183D01*
X128438669Y-94622185D01*
X128521167Y-94740004D01*
X128563023Y-94799781D01*
X128720219Y-94956977D01*
X128724727Y-94960134D01*
X128724730Y-94960136D01*
X128739633Y-94970571D01*
X128902323Y-95084488D01*
X128907305Y-95086811D01*
X128907310Y-95086814D01*
X129012373Y-95135805D01*
X129065658Y-95182722D01*
X129085119Y-95250999D01*
X129064577Y-95318959D01*
X129012373Y-95364195D01*
X128907311Y-95413186D01*
X128907306Y-95413189D01*
X128902324Y-95415512D01*
X128897817Y-95418668D01*
X128897815Y-95418669D01*
X128724730Y-95539864D01*
X128724727Y-95539866D01*
X128720219Y-95543023D01*
X128563023Y-95700219D01*
X128559866Y-95704727D01*
X128559864Y-95704730D01*
X128438669Y-95877815D01*
X128435512Y-95882324D01*
X128433189Y-95887306D01*
X128433186Y-95887311D01*
X128343883Y-96078822D01*
X128341560Y-96083804D01*
X128284022Y-96298537D01*
X128264647Y-96520000D01*
X128284022Y-96741463D01*
X128341560Y-96956196D01*
X128343882Y-96961177D01*
X128343883Y-96961178D01*
X128433186Y-97152689D01*
X128433189Y-97152694D01*
X128435512Y-97157676D01*
X128438668Y-97162183D01*
X128438669Y-97162185D01*
X128489709Y-97235077D01*
X128563023Y-97339781D01*
X128720219Y-97496977D01*
X128724727Y-97500134D01*
X128724730Y-97500136D01*
X128756385Y-97522301D01*
X128902323Y-97624488D01*
X128907305Y-97626811D01*
X128907310Y-97626814D01*
X129012373Y-97675805D01*
X129065658Y-97722722D01*
X129085119Y-97790999D01*
X129064577Y-97858959D01*
X129012373Y-97904195D01*
X128907311Y-97953186D01*
X128907306Y-97953189D01*
X128902324Y-97955512D01*
X128897817Y-97958668D01*
X128897815Y-97958669D01*
X128724730Y-98079864D01*
X128724727Y-98079866D01*
X128720219Y-98083023D01*
X128563023Y-98240219D01*
X128435512Y-98422324D01*
X128433189Y-98427306D01*
X128433186Y-98427311D01*
X128343883Y-98618822D01*
X128341560Y-98623804D01*
X128284022Y-98838537D01*
X128264647Y-99060000D01*
X107955353Y-99060000D01*
X107935978Y-98838537D01*
X107878440Y-98623804D01*
X107876117Y-98618822D01*
X107786814Y-98427311D01*
X107786811Y-98427306D01*
X107784488Y-98422324D01*
X107656977Y-98240219D01*
X107499781Y-98083023D01*
X107495273Y-98079866D01*
X107495270Y-98079864D01*
X107419505Y-98026813D01*
X107317677Y-97955512D01*
X107312695Y-97953189D01*
X107312690Y-97953186D01*
X107207627Y-97904195D01*
X107154342Y-97857278D01*
X107134881Y-97789001D01*
X107155423Y-97721041D01*
X107207627Y-97675805D01*
X107312690Y-97626814D01*
X107312695Y-97626811D01*
X107317677Y-97624488D01*
X107463615Y-97522301D01*
X107495270Y-97500136D01*
X107495273Y-97500134D01*
X107499781Y-97496977D01*
X107656977Y-97339781D01*
X107730292Y-97235077D01*
X107781331Y-97162185D01*
X107781332Y-97162183D01*
X107784488Y-97157676D01*
X107786811Y-97152694D01*
X107786814Y-97152689D01*
X107876117Y-96961178D01*
X107876118Y-96961177D01*
X107878440Y-96956196D01*
X107935978Y-96741463D01*
X107955353Y-96520000D01*
X107935978Y-96298537D01*
X107878440Y-96083804D01*
X107876117Y-96078822D01*
X107786814Y-95887311D01*
X107786811Y-95887306D01*
X107784488Y-95882324D01*
X107781331Y-95877815D01*
X107660136Y-95704730D01*
X107660134Y-95704727D01*
X107656977Y-95700219D01*
X107499781Y-95543023D01*
X107495273Y-95539866D01*
X107495270Y-95539864D01*
X107360808Y-95445713D01*
X107317677Y-95415512D01*
X107312695Y-95413189D01*
X107312690Y-95413186D01*
X107207627Y-95364195D01*
X107154342Y-95317278D01*
X107134881Y-95249001D01*
X107155423Y-95181041D01*
X107207627Y-95135805D01*
X107312690Y-95086814D01*
X107312695Y-95086811D01*
X107317677Y-95084488D01*
X107480367Y-94970571D01*
X107495270Y-94960136D01*
X107495273Y-94960134D01*
X107499781Y-94956977D01*
X107656977Y-94799781D01*
X107698834Y-94740004D01*
X107781331Y-94622185D01*
X107781332Y-94622183D01*
X107784488Y-94617676D01*
X107786811Y-94612694D01*
X107786814Y-94612689D01*
X107876117Y-94421178D01*
X107876118Y-94421177D01*
X107878440Y-94416196D01*
X107935978Y-94201463D01*
X107955353Y-93980000D01*
X107935978Y-93758537D01*
X107878440Y-93543804D01*
X107857339Y-93498552D01*
X107786814Y-93347311D01*
X107786811Y-93347306D01*
X107784488Y-93342324D01*
X107754215Y-93299089D01*
X107660136Y-93164730D01*
X107660134Y-93164727D01*
X107656977Y-93160219D01*
X107499781Y-93003023D01*
X107495273Y-92999866D01*
X107495270Y-92999864D01*
X107419505Y-92946813D01*
X107317677Y-92875512D01*
X107312695Y-92873189D01*
X107312690Y-92873186D01*
X107207627Y-92824195D01*
X107154342Y-92777278D01*
X107134881Y-92709001D01*
X107155423Y-92641041D01*
X107207627Y-92595805D01*
X107312690Y-92546814D01*
X107312695Y-92546811D01*
X107317677Y-92544488D01*
X107478266Y-92432042D01*
X107495270Y-92420136D01*
X107495273Y-92420134D01*
X107499781Y-92416977D01*
X107656977Y-92259781D01*
X107705889Y-92189928D01*
X107781331Y-92082185D01*
X107781332Y-92082183D01*
X107784488Y-92077676D01*
X107786811Y-92072694D01*
X107786814Y-92072689D01*
X107876117Y-91881178D01*
X107876118Y-91881177D01*
X107878440Y-91876196D01*
X107935978Y-91661463D01*
X107955353Y-91440000D01*
X107935978Y-91218537D01*
X107878440Y-91003804D01*
X107844050Y-90930055D01*
X107786814Y-90807311D01*
X107786811Y-90807306D01*
X107784488Y-90802324D01*
X107717368Y-90706466D01*
X107660136Y-90624730D01*
X107660134Y-90624727D01*
X107656977Y-90620219D01*
X107499781Y-90463023D01*
X107495273Y-90459866D01*
X107495270Y-90459864D01*
X107419505Y-90406813D01*
X107317677Y-90335512D01*
X107312695Y-90333189D01*
X107312690Y-90333186D01*
X107207627Y-90284195D01*
X107154342Y-90237278D01*
X107134881Y-90169001D01*
X107155423Y-90101041D01*
X107207627Y-90055805D01*
X107216062Y-90051872D01*
X107246833Y-90037523D01*
X107312690Y-90006814D01*
X107312695Y-90006811D01*
X107317677Y-90004488D01*
X107463615Y-89902301D01*
X107495270Y-89880136D01*
X107495273Y-89880134D01*
X107499781Y-89876977D01*
X107656977Y-89719781D01*
X107669097Y-89702473D01*
X107781331Y-89542185D01*
X107781332Y-89542183D01*
X107784488Y-89537676D01*
X107786811Y-89532694D01*
X107786814Y-89532689D01*
X107876117Y-89341178D01*
X107876118Y-89341177D01*
X107878440Y-89336196D01*
X107935978Y-89121463D01*
X107955353Y-88900000D01*
X107935978Y-88678537D01*
X107878440Y-88463804D01*
X107876117Y-88458822D01*
X107786814Y-88267311D01*
X107786811Y-88267306D01*
X107784488Y-88262324D01*
X107773479Y-88246601D01*
X107660136Y-88084730D01*
X107660134Y-88084727D01*
X107656977Y-88080219D01*
X107499781Y-87923023D01*
X107495273Y-87919866D01*
X107495270Y-87919864D01*
X107360808Y-87825713D01*
X107317677Y-87795512D01*
X107312695Y-87793189D01*
X107312690Y-87793186D01*
X107207627Y-87744195D01*
X107154342Y-87697278D01*
X107134881Y-87629001D01*
X107155423Y-87561041D01*
X107207627Y-87515805D01*
X107312690Y-87466814D01*
X107312695Y-87466811D01*
X107317677Y-87464488D01*
X107419505Y-87393187D01*
X107495270Y-87340136D01*
X107495273Y-87340134D01*
X107499781Y-87336977D01*
X107656977Y-87179781D01*
X107784488Y-86997676D01*
X107786811Y-86992694D01*
X107786814Y-86992689D01*
X107876117Y-86801178D01*
X107876118Y-86801177D01*
X107878440Y-86796196D01*
X107935978Y-86581463D01*
X107955353Y-86360000D01*
X107935978Y-86138537D01*
X107878440Y-85923804D01*
X107876117Y-85918822D01*
X107786814Y-85727311D01*
X107786811Y-85727306D01*
X107784488Y-85722324D01*
X107656977Y-85540219D01*
X107499781Y-85383023D01*
X107495273Y-85379866D01*
X107495270Y-85379864D01*
X107419505Y-85326813D01*
X107317677Y-85255512D01*
X107312695Y-85253189D01*
X107312690Y-85253186D01*
X107207035Y-85203919D01*
X107153750Y-85157002D01*
X107134289Y-85088725D01*
X107154831Y-85020765D01*
X107207035Y-84975529D01*
X107312445Y-84926376D01*
X107321931Y-84920898D01*
X107365764Y-84890207D01*
X107374139Y-84879729D01*
X107367071Y-84866281D01*
X106692812Y-84192022D01*
X106678868Y-84184408D01*
X106677035Y-84184539D01*
X106670420Y-84188790D01*
X105992207Y-84867003D01*
X105985777Y-84878777D01*
X105995074Y-84890793D01*
X106038069Y-84920898D01*
X106047555Y-84926376D01*
X106152965Y-84975529D01*
X106206250Y-85022446D01*
X106225711Y-85090723D01*
X106205169Y-85158683D01*
X106152965Y-85203919D01*
X106047311Y-85253186D01*
X106047306Y-85253189D01*
X106042324Y-85255512D01*
X106037817Y-85258668D01*
X106037815Y-85258669D01*
X105864730Y-85379864D01*
X105864727Y-85379866D01*
X105860219Y-85383023D01*
X105703023Y-85540219D01*
X105575512Y-85722324D01*
X105573189Y-85727306D01*
X105573186Y-85727311D01*
X105483883Y-85918822D01*
X105481560Y-85923804D01*
X105424022Y-86138537D01*
X105404647Y-86360000D01*
X105424022Y-86581463D01*
X105481560Y-86796196D01*
X105483882Y-86801177D01*
X105483883Y-86801178D01*
X105573186Y-86992689D01*
X105573189Y-86992694D01*
X105575512Y-86997676D01*
X105703023Y-87179781D01*
X105860219Y-87336977D01*
X105864727Y-87340134D01*
X105864730Y-87340136D01*
X105940495Y-87393187D01*
X106042323Y-87464488D01*
X106047305Y-87466811D01*
X106047310Y-87466814D01*
X106152373Y-87515805D01*
X106205658Y-87562722D01*
X106225119Y-87630999D01*
X106204577Y-87698959D01*
X106152373Y-87744195D01*
X106047311Y-87793186D01*
X106047306Y-87793189D01*
X106042324Y-87795512D01*
X106037817Y-87798668D01*
X106037815Y-87798669D01*
X105864730Y-87919864D01*
X105864727Y-87919866D01*
X105860219Y-87923023D01*
X105703023Y-88080219D01*
X105699866Y-88084727D01*
X105699864Y-88084730D01*
X105586521Y-88246601D01*
X105575512Y-88262324D01*
X105573189Y-88267306D01*
X105573186Y-88267311D01*
X105483883Y-88458822D01*
X105481560Y-88463804D01*
X105424022Y-88678537D01*
X105404647Y-88900000D01*
X105424022Y-89121463D01*
X105481560Y-89336196D01*
X105483882Y-89341177D01*
X105483883Y-89341178D01*
X105573186Y-89532689D01*
X105573189Y-89532694D01*
X105575512Y-89537676D01*
X105578668Y-89542183D01*
X105578669Y-89542185D01*
X105690904Y-89702473D01*
X105703023Y-89719781D01*
X105860219Y-89876977D01*
X105864727Y-89880134D01*
X105864730Y-89880136D01*
X105896385Y-89902301D01*
X106042323Y-90004488D01*
X106047305Y-90006811D01*
X106047310Y-90006814D01*
X106113167Y-90037523D01*
X106143939Y-90051872D01*
X106152373Y-90055805D01*
X106205658Y-90102722D01*
X106225119Y-90170999D01*
X106204577Y-90238959D01*
X106152373Y-90284195D01*
X106047311Y-90333186D01*
X106047306Y-90333189D01*
X106042324Y-90335512D01*
X106037817Y-90338668D01*
X106037815Y-90338669D01*
X105864730Y-90459864D01*
X105864727Y-90459866D01*
X105860219Y-90463023D01*
X105703023Y-90620219D01*
X105699866Y-90624727D01*
X105699864Y-90624730D01*
X105642632Y-90706466D01*
X105575512Y-90802324D01*
X105573189Y-90807306D01*
X105573186Y-90807311D01*
X105515950Y-90930055D01*
X105481560Y-91003804D01*
X105424022Y-91218537D01*
X105404647Y-91440000D01*
X105421134Y-91628444D01*
X105421520Y-91632859D01*
X105407531Y-91702464D01*
X105385094Y-91732936D01*
X105037480Y-92080550D01*
X105031215Y-92086404D01*
X104987615Y-92124439D01*
X104983248Y-92130653D01*
X104950872Y-92176719D01*
X104946939Y-92182014D01*
X104907524Y-92232282D01*
X104904401Y-92239198D01*
X104903017Y-92241484D01*
X104894643Y-92256165D01*
X104893378Y-92258525D01*
X104889010Y-92264739D01*
X104886250Y-92271818D01*
X104886249Y-92271820D01*
X104865798Y-92324275D01*
X104863247Y-92330344D01*
X104836955Y-92388573D01*
X104835571Y-92396040D01*
X104834770Y-92398595D01*
X104830141Y-92414848D01*
X104829478Y-92417428D01*
X104826718Y-92424509D01*
X104825727Y-92432040D01*
X104825726Y-92432042D01*
X104818379Y-92487852D01*
X104817348Y-92494359D01*
X104805704Y-92557186D01*
X104806141Y-92564766D01*
X104806141Y-92564767D01*
X104809291Y-92619392D01*
X104809500Y-92626646D01*
X104809500Y-95639283D01*
X104789498Y-95707404D01*
X104772595Y-95728378D01*
X86769480Y-113731493D01*
X86763215Y-113737347D01*
X86719615Y-113775382D01*
X86715248Y-113781596D01*
X86682872Y-113827662D01*
X86678939Y-113832957D01*
X86639524Y-113883225D01*
X86636401Y-113890141D01*
X86635017Y-113892427D01*
X86626643Y-113907108D01*
X86625378Y-113909468D01*
X86621010Y-113915682D01*
X86618250Y-113922761D01*
X86618249Y-113922763D01*
X86597798Y-113975218D01*
X86595247Y-113981287D01*
X86568955Y-114039516D01*
X86567571Y-114046983D01*
X86566770Y-114049538D01*
X86562141Y-114065791D01*
X86561478Y-114068371D01*
X86558718Y-114075452D01*
X86557727Y-114082983D01*
X86557726Y-114082985D01*
X86550785Y-114135708D01*
X86519501Y-114203570D01*
X86510960Y-114213056D01*
X86415473Y-114378444D01*
X86356458Y-114560072D01*
X86355768Y-114566633D01*
X86355768Y-114566635D01*
X86341486Y-114702524D01*
X86314473Y-114768181D01*
X86274341Y-114799130D01*
X86275028Y-114800320D01*
X86269305Y-114803624D01*
X86263275Y-114806309D01*
X86108774Y-114918561D01*
X86104353Y-114923471D01*
X86104352Y-114923472D01*
X85994904Y-115045027D01*
X85980987Y-115060483D01*
X85885500Y-115225871D01*
X85826485Y-115407499D01*
X85806523Y-115597427D01*
X81862263Y-115597427D01*
X81846354Y-115560840D01*
X81725014Y-115373277D01*
X81574670Y-115208051D01*
X81570619Y-115204852D01*
X81570615Y-115204848D01*
X81403414Y-115072800D01*
X81403410Y-115072798D01*
X81399359Y-115069598D01*
X81358053Y-115046796D01*
X81308084Y-114996364D01*
X81293312Y-114926921D01*
X81318428Y-114860516D01*
X81345780Y-114833909D01*
X81394538Y-114799130D01*
X81524860Y-114706173D01*
X81683096Y-114548489D01*
X81742594Y-114465689D01*
X81810435Y-114371277D01*
X81813453Y-114367077D01*
X81886747Y-114218778D01*
X81910136Y-114171453D01*
X81910137Y-114171451D01*
X81912430Y-114166811D01*
X81961715Y-114004595D01*
X81975865Y-113958023D01*
X81975865Y-113958021D01*
X81977370Y-113953069D01*
X82006529Y-113731590D01*
X82008156Y-113665000D01*
X81989852Y-113442361D01*
X81935431Y-113225702D01*
X81846354Y-113020840D01*
X81797223Y-112944895D01*
X81727822Y-112837617D01*
X81727820Y-112837614D01*
X81725014Y-112833277D01*
X81721540Y-112829459D01*
X81721533Y-112829450D01*
X81577435Y-112671088D01*
X81546383Y-112607242D01*
X81554779Y-112536744D01*
X81599956Y-112481976D01*
X81626400Y-112468307D01*
X81733052Y-112428325D01*
X81748649Y-112419786D01*
X81850724Y-112343285D01*
X81863285Y-112330724D01*
X81939786Y-112228649D01*
X81948324Y-112213054D01*
X81993478Y-112092606D01*
X81997105Y-112077351D01*
X82002631Y-112026486D01*
X82003000Y-112019672D01*
X82003000Y-111397115D01*
X81998525Y-111381876D01*
X81997135Y-111380671D01*
X81989452Y-111379000D01*
X79305116Y-111379000D01*
X79289877Y-111383475D01*
X79288672Y-111384865D01*
X79287001Y-111392548D01*
X79287001Y-112019669D01*
X79287371Y-112026490D01*
X79292895Y-112077352D01*
X79296521Y-112092604D01*
X79341676Y-112213054D01*
X79350214Y-112228649D01*
X79426715Y-112330724D01*
X79439276Y-112343285D01*
X79541351Y-112419786D01*
X79556946Y-112428324D01*
X79665827Y-112469142D01*
X79722591Y-112511784D01*
X79747291Y-112578345D01*
X79732083Y-112647694D01*
X79712691Y-112674175D01*
X79628476Y-112762301D01*
X79585629Y-112807138D01*
X79582715Y-112811410D01*
X79582714Y-112811411D01*
X79523080Y-112898831D01*
X79459743Y-112991680D01*
X79444003Y-113025590D01*
X79374148Y-113176080D01*
X79365688Y-113194305D01*
X79305989Y-113409570D01*
X79282251Y-113631695D01*
X79282548Y-113636848D01*
X79282548Y-113636851D01*
X79288005Y-113731493D01*
X79295110Y-113854715D01*
X79296247Y-113859761D01*
X79296248Y-113859767D01*
X79310445Y-113922763D01*
X79344222Y-114072639D01*
X79428266Y-114279616D01*
X79544987Y-114470088D01*
X79691250Y-114638938D01*
X79863126Y-114781632D01*
X79933595Y-114822811D01*
X79936445Y-114824476D01*
X79985169Y-114876114D01*
X79998240Y-114945897D01*
X79971509Y-115011669D01*
X79931055Y-115045027D01*
X79918607Y-115051507D01*
X79914474Y-115054610D01*
X79914471Y-115054612D01*
X79890247Y-115072800D01*
X79739965Y-115185635D01*
X79585629Y-115347138D01*
X79582715Y-115351410D01*
X79582714Y-115351411D01*
X79497556Y-115476249D01*
X79459743Y-115531680D01*
X79365688Y-115734305D01*
X79305989Y-115949570D01*
X79282251Y-116171695D01*
X79282548Y-116176848D01*
X79282548Y-116176851D01*
X79290002Y-116306133D01*
X79295110Y-116394715D01*
X79296247Y-116399761D01*
X79296248Y-116399767D01*
X79311225Y-116466221D01*
X79344222Y-116612639D01*
X79428266Y-116819616D01*
X79544987Y-117010088D01*
X79691250Y-117178938D01*
X79863126Y-117321632D01*
X79933595Y-117362811D01*
X79936445Y-117364476D01*
X79985169Y-117416114D01*
X79998240Y-117485897D01*
X79971509Y-117551669D01*
X79931055Y-117585027D01*
X79918607Y-117591507D01*
X79914474Y-117594610D01*
X79914471Y-117594612D01*
X79890247Y-117612800D01*
X79739965Y-117725635D01*
X79585629Y-117887138D01*
X79459743Y-118071680D01*
X79412716Y-118172992D01*
X79378997Y-118245634D01*
X79365688Y-118274305D01*
X79305989Y-118489570D01*
X79282251Y-118711695D01*
X75508500Y-118711695D01*
X75508500Y-110852885D01*
X79287000Y-110852885D01*
X79291475Y-110868124D01*
X79292865Y-110869329D01*
X79300548Y-110871000D01*
X80372885Y-110871000D01*
X80388124Y-110866525D01*
X80389329Y-110865135D01*
X80391000Y-110857452D01*
X80391000Y-110852885D01*
X80899000Y-110852885D01*
X80903475Y-110868124D01*
X80904865Y-110869329D01*
X80912548Y-110871000D01*
X81984884Y-110871000D01*
X82000123Y-110866525D01*
X82001328Y-110865135D01*
X82002999Y-110857452D01*
X82002999Y-110230331D01*
X82002629Y-110223510D01*
X81997105Y-110172648D01*
X81993479Y-110157396D01*
X81948324Y-110036946D01*
X81939786Y-110021351D01*
X81863285Y-109919276D01*
X81850724Y-109906715D01*
X81748649Y-109830214D01*
X81733054Y-109821676D01*
X81612606Y-109776522D01*
X81597351Y-109772895D01*
X81546486Y-109767369D01*
X81539672Y-109767000D01*
X80917115Y-109767000D01*
X80901876Y-109771475D01*
X80900671Y-109772865D01*
X80899000Y-109780548D01*
X80899000Y-110852885D01*
X80391000Y-110852885D01*
X80391000Y-109785116D01*
X80386525Y-109769877D01*
X80385135Y-109768672D01*
X80377452Y-109767001D01*
X79750331Y-109767001D01*
X79743510Y-109767371D01*
X79692648Y-109772895D01*
X79677396Y-109776521D01*
X79556946Y-109821676D01*
X79541351Y-109830214D01*
X79439276Y-109906715D01*
X79426715Y-109919276D01*
X79350214Y-110021351D01*
X79341676Y-110036946D01*
X79296522Y-110157394D01*
X79292895Y-110172649D01*
X79287369Y-110223514D01*
X79287000Y-110230328D01*
X79287000Y-110852885D01*
X75508500Y-110852885D01*
X75508500Y-102448134D01*
X82511500Y-102448134D01*
X82518255Y-102510316D01*
X82569385Y-102646705D01*
X82656739Y-102763261D01*
X82773295Y-102850615D01*
X82909684Y-102901745D01*
X82971866Y-102908500D01*
X84668134Y-102908500D01*
X84730316Y-102901745D01*
X84866705Y-102850615D01*
X84950771Y-102787611D01*
X84976078Y-102768645D01*
X84976081Y-102768642D01*
X84983261Y-102763261D01*
X84988642Y-102756081D01*
X84994993Y-102749730D01*
X84997135Y-102751872D01*
X85041846Y-102718436D01*
X85112664Y-102713406D01*
X85154035Y-102731523D01*
X85154232Y-102731182D01*
X85157298Y-102732952D01*
X85158090Y-102733299D01*
X85158989Y-102733929D01*
X85168489Y-102739414D01*
X85365947Y-102831490D01*
X85376239Y-102835236D01*
X85586688Y-102891625D01*
X85597481Y-102893528D01*
X85814525Y-102912517D01*
X85825475Y-102912517D01*
X86042519Y-102893528D01*
X86053312Y-102891625D01*
X86263761Y-102835236D01*
X86274053Y-102831490D01*
X86471511Y-102739414D01*
X86481006Y-102733931D01*
X86533048Y-102697491D01*
X86541424Y-102687012D01*
X86534356Y-102673566D01*
X86308924Y-102448134D01*
X92671500Y-102448134D01*
X92678255Y-102510316D01*
X92729385Y-102646705D01*
X92816739Y-102763261D01*
X92933295Y-102850615D01*
X93069684Y-102901745D01*
X93131866Y-102908500D01*
X94828134Y-102908500D01*
X94890316Y-102901745D01*
X95026705Y-102850615D01*
X95110771Y-102787611D01*
X95136078Y-102768645D01*
X95136081Y-102768642D01*
X95143261Y-102763261D01*
X95148642Y-102756081D01*
X95154993Y-102749730D01*
X95157135Y-102751872D01*
X95201846Y-102718436D01*
X95272664Y-102713406D01*
X95314035Y-102731523D01*
X95314232Y-102731182D01*
X95317298Y-102732952D01*
X95318090Y-102733299D01*
X95318989Y-102733929D01*
X95328489Y-102739414D01*
X95525947Y-102831490D01*
X95536239Y-102835236D01*
X95746688Y-102891625D01*
X95757481Y-102893528D01*
X95974525Y-102912517D01*
X95985475Y-102912517D01*
X96202519Y-102893528D01*
X96213312Y-102891625D01*
X96423761Y-102835236D01*
X96434053Y-102831490D01*
X96631511Y-102739414D01*
X96641006Y-102733931D01*
X96693048Y-102697491D01*
X96701424Y-102687012D01*
X96694356Y-102673566D01*
X95709885Y-101689095D01*
X95675859Y-101626783D01*
X95677694Y-101601132D01*
X96344408Y-101601132D01*
X96344539Y-101602965D01*
X96348790Y-101609580D01*
X97054287Y-102315077D01*
X97066062Y-102321507D01*
X97078077Y-102312211D01*
X97113931Y-102261006D01*
X97119414Y-102251511D01*
X97211490Y-102054053D01*
X97215236Y-102043761D01*
X97271625Y-101833312D01*
X97273528Y-101822519D01*
X97292517Y-101605475D01*
X97292517Y-101594525D01*
X97273528Y-101377481D01*
X97271625Y-101366688D01*
X97215236Y-101156239D01*
X97211490Y-101145947D01*
X97119414Y-100948489D01*
X97113931Y-100938994D01*
X97077491Y-100886952D01*
X97067012Y-100878576D01*
X97053566Y-100885644D01*
X96352022Y-101587188D01*
X96344408Y-101601132D01*
X95677694Y-101601132D01*
X95680924Y-101555968D01*
X95709885Y-101510905D01*
X96695077Y-100525713D01*
X96701507Y-100513938D01*
X96692211Y-100501923D01*
X96641006Y-100466069D01*
X96631511Y-100460586D01*
X96434053Y-100368510D01*
X96423761Y-100364764D01*
X96213312Y-100308375D01*
X96202519Y-100306472D01*
X95985475Y-100287483D01*
X95974525Y-100287483D01*
X95757481Y-100306472D01*
X95746688Y-100308375D01*
X95536239Y-100364764D01*
X95525947Y-100368510D01*
X95328489Y-100460586D01*
X95318989Y-100466071D01*
X95318090Y-100466701D01*
X95317630Y-100466856D01*
X95314232Y-100468818D01*
X95313838Y-100468135D01*
X95250816Y-100489388D01*
X95181956Y-100472102D01*
X95156197Y-100449066D01*
X95154993Y-100450270D01*
X95148642Y-100443919D01*
X95143261Y-100436739D01*
X95136081Y-100431358D01*
X95136078Y-100431355D01*
X95047225Y-100364764D01*
X95026705Y-100349385D01*
X94890316Y-100298255D01*
X94828134Y-100291500D01*
X93131866Y-100291500D01*
X93069684Y-100298255D01*
X92933295Y-100349385D01*
X92816739Y-100436739D01*
X92729385Y-100553295D01*
X92678255Y-100689684D01*
X92671500Y-100751866D01*
X92671500Y-102448134D01*
X86308924Y-102448134D01*
X85549885Y-101689095D01*
X85515859Y-101626783D01*
X85517694Y-101601132D01*
X86184408Y-101601132D01*
X86184539Y-101602965D01*
X86188790Y-101609580D01*
X86894287Y-102315077D01*
X86906062Y-102321507D01*
X86918077Y-102312211D01*
X86953931Y-102261006D01*
X86959414Y-102251511D01*
X87051490Y-102054053D01*
X87055236Y-102043761D01*
X87111625Y-101833312D01*
X87113528Y-101822519D01*
X87132517Y-101605475D01*
X87132517Y-101594525D01*
X87113528Y-101377481D01*
X87111625Y-101366688D01*
X87055236Y-101156239D01*
X87051490Y-101145947D01*
X86959414Y-100948489D01*
X86953931Y-100938994D01*
X86917491Y-100886952D01*
X86907012Y-100878576D01*
X86893566Y-100885644D01*
X86192022Y-101587188D01*
X86184408Y-101601132D01*
X85517694Y-101601132D01*
X85520924Y-101555968D01*
X85549885Y-101510905D01*
X86535077Y-100525713D01*
X86541507Y-100513938D01*
X86532211Y-100501923D01*
X86481006Y-100466069D01*
X86471511Y-100460586D01*
X86274053Y-100368510D01*
X86263761Y-100364764D01*
X86053312Y-100308375D01*
X86042519Y-100306472D01*
X85825475Y-100287483D01*
X85814525Y-100287483D01*
X85597481Y-100306472D01*
X85586688Y-100308375D01*
X85376239Y-100364764D01*
X85365947Y-100368510D01*
X85168489Y-100460586D01*
X85158989Y-100466071D01*
X85158090Y-100466701D01*
X85157630Y-100466856D01*
X85154232Y-100468818D01*
X85153838Y-100468135D01*
X85090816Y-100489388D01*
X85021956Y-100472102D01*
X84996197Y-100449066D01*
X84994993Y-100450270D01*
X84988642Y-100443919D01*
X84983261Y-100436739D01*
X84976081Y-100431358D01*
X84976078Y-100431355D01*
X84887225Y-100364764D01*
X84866705Y-100349385D01*
X84730316Y-100298255D01*
X84668134Y-100291500D01*
X82971866Y-100291500D01*
X82909684Y-100298255D01*
X82773295Y-100349385D01*
X82656739Y-100436739D01*
X82569385Y-100553295D01*
X82518255Y-100689684D01*
X82511500Y-100751866D01*
X82511500Y-102448134D01*
X75508500Y-102448134D01*
X75508500Y-89748134D01*
X92671500Y-89748134D01*
X92678255Y-89810316D01*
X92729385Y-89946705D01*
X92816739Y-90063261D01*
X92933295Y-90150615D01*
X93069684Y-90201745D01*
X93131866Y-90208500D01*
X94828134Y-90208500D01*
X94890316Y-90201745D01*
X95026705Y-90150615D01*
X95072502Y-90116292D01*
X95136078Y-90068645D01*
X95136081Y-90068642D01*
X95143261Y-90063261D01*
X95148642Y-90056081D01*
X95154993Y-90049730D01*
X95157135Y-90051872D01*
X95201846Y-90018436D01*
X95272664Y-90013406D01*
X95314035Y-90031523D01*
X95314232Y-90031182D01*
X95317298Y-90032952D01*
X95318090Y-90033299D01*
X95318989Y-90033929D01*
X95328489Y-90039414D01*
X95525947Y-90131490D01*
X95536239Y-90135236D01*
X95746688Y-90191625D01*
X95757481Y-90193528D01*
X95974525Y-90212517D01*
X95985475Y-90212517D01*
X96202519Y-90193528D01*
X96213312Y-90191625D01*
X96423761Y-90135236D01*
X96434053Y-90131490D01*
X96631511Y-90039414D01*
X96641006Y-90033931D01*
X96693048Y-89997491D01*
X96701424Y-89987012D01*
X96694356Y-89973566D01*
X95709885Y-88989095D01*
X95675859Y-88926783D01*
X95677694Y-88901132D01*
X96344408Y-88901132D01*
X96344539Y-88902965D01*
X96348790Y-88909580D01*
X97054287Y-89615077D01*
X97066062Y-89621507D01*
X97078077Y-89612211D01*
X97113931Y-89561006D01*
X97119414Y-89551511D01*
X97211490Y-89354053D01*
X97215236Y-89343761D01*
X97271625Y-89133312D01*
X97273528Y-89122519D01*
X97292517Y-88905475D01*
X97292517Y-88894525D01*
X97273528Y-88677481D01*
X97271625Y-88666688D01*
X97215236Y-88456239D01*
X97211490Y-88445947D01*
X97119414Y-88248489D01*
X97113931Y-88238994D01*
X97077491Y-88186952D01*
X97067012Y-88178576D01*
X97053566Y-88185644D01*
X96352022Y-88887188D01*
X96344408Y-88901132D01*
X95677694Y-88901132D01*
X95680924Y-88855968D01*
X95709885Y-88810905D01*
X96695077Y-87825713D01*
X96701507Y-87813938D01*
X96692211Y-87801923D01*
X96641006Y-87766069D01*
X96631511Y-87760586D01*
X96434053Y-87668510D01*
X96423761Y-87664764D01*
X96213312Y-87608375D01*
X96202519Y-87606472D01*
X95985475Y-87587483D01*
X95974525Y-87587483D01*
X95757481Y-87606472D01*
X95746688Y-87608375D01*
X95536239Y-87664764D01*
X95525947Y-87668510D01*
X95328489Y-87760586D01*
X95318989Y-87766071D01*
X95318090Y-87766701D01*
X95317630Y-87766856D01*
X95314232Y-87768818D01*
X95313838Y-87768135D01*
X95250816Y-87789388D01*
X95181956Y-87772102D01*
X95156197Y-87749066D01*
X95154993Y-87750270D01*
X95148642Y-87743919D01*
X95143261Y-87736739D01*
X95136081Y-87731358D01*
X95136078Y-87731355D01*
X95047225Y-87664764D01*
X95026705Y-87649385D01*
X94890316Y-87598255D01*
X94828134Y-87591500D01*
X93131866Y-87591500D01*
X93069684Y-87598255D01*
X92933295Y-87649385D01*
X92816739Y-87736739D01*
X92729385Y-87853295D01*
X92678255Y-87989684D01*
X92671500Y-88051866D01*
X92671500Y-89748134D01*
X75508500Y-89748134D01*
X75508500Y-83825475D01*
X105405628Y-83825475D01*
X105424038Y-84035896D01*
X105425941Y-84046691D01*
X105480609Y-84250715D01*
X105484355Y-84261007D01*
X105573623Y-84452441D01*
X105579103Y-84461932D01*
X105609794Y-84505765D01*
X105620271Y-84514140D01*
X105633718Y-84507072D01*
X106307978Y-83832812D01*
X106314356Y-83821132D01*
X107044408Y-83821132D01*
X107044539Y-83822965D01*
X107048790Y-83829580D01*
X107727003Y-84507793D01*
X107738777Y-84514223D01*
X107750793Y-84504926D01*
X107780897Y-84461932D01*
X107786377Y-84452441D01*
X107875645Y-84261007D01*
X107879391Y-84250715D01*
X107934059Y-84046691D01*
X107935962Y-84035896D01*
X107954372Y-83825475D01*
X107954372Y-83814525D01*
X107935962Y-83604104D01*
X107934059Y-83593309D01*
X107879391Y-83389285D01*
X107875645Y-83378993D01*
X107786377Y-83187559D01*
X107780897Y-83178068D01*
X107750206Y-83134235D01*
X107739729Y-83125860D01*
X107726282Y-83132928D01*
X107052022Y-83807188D01*
X107044408Y-83821132D01*
X106314356Y-83821132D01*
X106315592Y-83818868D01*
X106315461Y-83817035D01*
X106311210Y-83810420D01*
X105632997Y-83132207D01*
X105621223Y-83125777D01*
X105609207Y-83135074D01*
X105579103Y-83178068D01*
X105573623Y-83187559D01*
X105484355Y-83378993D01*
X105480609Y-83389285D01*
X105425941Y-83593309D01*
X105424038Y-83604104D01*
X105405628Y-83814525D01*
X105405628Y-83825475D01*
X75508500Y-83825475D01*
X75508500Y-81280000D01*
X105404647Y-81280000D01*
X105424022Y-81501463D01*
X105481560Y-81716196D01*
X105483882Y-81721177D01*
X105483883Y-81721178D01*
X105573186Y-81912689D01*
X105573189Y-81912694D01*
X105575512Y-81917676D01*
X105578668Y-81922183D01*
X105578669Y-81922185D01*
X105615107Y-81974223D01*
X105703023Y-82099781D01*
X105860219Y-82256977D01*
X105864727Y-82260134D01*
X105864730Y-82260136D01*
X105940495Y-82313187D01*
X106042323Y-82384488D01*
X106047305Y-82386811D01*
X106047310Y-82386814D01*
X106152965Y-82436081D01*
X106206250Y-82482998D01*
X106225711Y-82551275D01*
X106205169Y-82619235D01*
X106152965Y-82664471D01*
X106047559Y-82713623D01*
X106038068Y-82719103D01*
X105994235Y-82749794D01*
X105985860Y-82760271D01*
X105992928Y-82773718D01*
X106667188Y-83447978D01*
X106681132Y-83455592D01*
X106682965Y-83455461D01*
X106689580Y-83451210D01*
X107367793Y-82772997D01*
X107374223Y-82761223D01*
X107364926Y-82749207D01*
X107321931Y-82719102D01*
X107312445Y-82713624D01*
X107207035Y-82664471D01*
X107153750Y-82617554D01*
X107134289Y-82549277D01*
X107154831Y-82481317D01*
X107207035Y-82436081D01*
X107312690Y-82386814D01*
X107312695Y-82386811D01*
X107317677Y-82384488D01*
X107419505Y-82313187D01*
X107495270Y-82260136D01*
X107495273Y-82260134D01*
X107499781Y-82256977D01*
X107656977Y-82099781D01*
X107744894Y-81974223D01*
X107781331Y-81922185D01*
X107781332Y-81922183D01*
X107784488Y-81917676D01*
X107786811Y-81912694D01*
X107786814Y-81912689D01*
X107876117Y-81721178D01*
X107876118Y-81721177D01*
X107878440Y-81716196D01*
X107935978Y-81501463D01*
X107954874Y-81285475D01*
X128265628Y-81285475D01*
X128284038Y-81495896D01*
X128285941Y-81506691D01*
X128340609Y-81710715D01*
X128344355Y-81721007D01*
X128433623Y-81912441D01*
X128439103Y-81921932D01*
X128469794Y-81965765D01*
X128480271Y-81974140D01*
X128493718Y-81967072D01*
X129167978Y-81292812D01*
X129174356Y-81281132D01*
X129904408Y-81281132D01*
X129904539Y-81282965D01*
X129908790Y-81289580D01*
X130587003Y-81967793D01*
X130598777Y-81974223D01*
X130610793Y-81964926D01*
X130640897Y-81921932D01*
X130646377Y-81912441D01*
X130735645Y-81721007D01*
X130739391Y-81710715D01*
X130794059Y-81506691D01*
X130795962Y-81495896D01*
X130814372Y-81285475D01*
X130814372Y-81281695D01*
X143417251Y-81281695D01*
X143417548Y-81286848D01*
X143417548Y-81286851D01*
X143429607Y-81495984D01*
X143430110Y-81504715D01*
X143431247Y-81509761D01*
X143431248Y-81509767D01*
X143451119Y-81597939D01*
X143479222Y-81722639D01*
X143517461Y-81816811D01*
X143560249Y-81922185D01*
X143563266Y-81929616D01*
X143565965Y-81934020D01*
X143664779Y-82095270D01*
X143679987Y-82120088D01*
X143826250Y-82288938D01*
X143998126Y-82431632D01*
X144191000Y-82544338D01*
X144195825Y-82546180D01*
X144195826Y-82546181D01*
X144209166Y-82551275D01*
X144399692Y-82624030D01*
X144404760Y-82625061D01*
X144404763Y-82625062D01*
X144512017Y-82646883D01*
X144618597Y-82668567D01*
X144623772Y-82668757D01*
X144623774Y-82668757D01*
X144836673Y-82676564D01*
X144836677Y-82676564D01*
X144841837Y-82676753D01*
X144846957Y-82676097D01*
X144846959Y-82676097D01*
X145058288Y-82649025D01*
X145058289Y-82649025D01*
X145063416Y-82648368D01*
X145068366Y-82646883D01*
X145272429Y-82585661D01*
X145272434Y-82585659D01*
X145277384Y-82584174D01*
X145477994Y-82485896D01*
X145659860Y-82356173D01*
X145818096Y-82198489D01*
X145877594Y-82115689D01*
X145945435Y-82021277D01*
X145948453Y-82017077D01*
X145974228Y-81964926D01*
X146045136Y-81821453D01*
X146045137Y-81821451D01*
X146047430Y-81816811D01*
X146098479Y-81648790D01*
X146110865Y-81608023D01*
X146110865Y-81608021D01*
X146112370Y-81603069D01*
X146141529Y-81381590D01*
X146143156Y-81315000D01*
X146124852Y-81092361D01*
X146070431Y-80875702D01*
X145981354Y-80670840D01*
X145860014Y-80483277D01*
X145709670Y-80318051D01*
X145705619Y-80314852D01*
X145705615Y-80314848D01*
X145538414Y-80182800D01*
X145538410Y-80182798D01*
X145534359Y-80179598D01*
X145493053Y-80156796D01*
X145443084Y-80106364D01*
X145428312Y-80036921D01*
X145453428Y-79970516D01*
X145480780Y-79943909D01*
X145524603Y-79912650D01*
X145659860Y-79816173D01*
X145818096Y-79658489D01*
X145877594Y-79575689D01*
X145945435Y-79481277D01*
X145948453Y-79477077D01*
X146031769Y-79308500D01*
X146045136Y-79281453D01*
X146045137Y-79281451D01*
X146047430Y-79276811D01*
X146112370Y-79063069D01*
X146141529Y-78841590D01*
X146143156Y-78775000D01*
X146124852Y-78552361D01*
X146070431Y-78335702D01*
X145981354Y-78130840D01*
X145860014Y-77943277D01*
X145709670Y-77778051D01*
X145705619Y-77774852D01*
X145705615Y-77774848D01*
X145538414Y-77642800D01*
X145538410Y-77642798D01*
X145534359Y-77639598D01*
X145493053Y-77616796D01*
X145443084Y-77566364D01*
X145428312Y-77496921D01*
X145453428Y-77430516D01*
X145480780Y-77403909D01*
X145524603Y-77372650D01*
X145659860Y-77276173D01*
X145818096Y-77118489D01*
X145836318Y-77093131D01*
X145945435Y-76941277D01*
X145948453Y-76937077D01*
X145972000Y-76889434D01*
X146045136Y-76741453D01*
X146045137Y-76741451D01*
X146047430Y-76736811D01*
X146112370Y-76523069D01*
X146141529Y-76301590D01*
X146143156Y-76235000D01*
X146124852Y-76012361D01*
X146070431Y-75795702D01*
X145981354Y-75590840D01*
X145894783Y-75457022D01*
X145862822Y-75407617D01*
X145862820Y-75407614D01*
X145860014Y-75403277D01*
X145856540Y-75399459D01*
X145856533Y-75399450D01*
X145712435Y-75241088D01*
X145681383Y-75177242D01*
X145689779Y-75106744D01*
X145734956Y-75051976D01*
X145761400Y-75038307D01*
X145868052Y-74998325D01*
X145883649Y-74989786D01*
X145985724Y-74913285D01*
X145998285Y-74900724D01*
X146074786Y-74798649D01*
X146083324Y-74783054D01*
X146128478Y-74662606D01*
X146132105Y-74647351D01*
X146137631Y-74596486D01*
X146138000Y-74589672D01*
X146138000Y-73967115D01*
X146133525Y-73951876D01*
X146132135Y-73950671D01*
X146124452Y-73949000D01*
X143440116Y-73949000D01*
X143424877Y-73953475D01*
X143423672Y-73954865D01*
X143422001Y-73962548D01*
X143422001Y-74589669D01*
X143422371Y-74596490D01*
X143427895Y-74647352D01*
X143431521Y-74662604D01*
X143476676Y-74783054D01*
X143485214Y-74798649D01*
X143561715Y-74900724D01*
X143574276Y-74913285D01*
X143676351Y-74989786D01*
X143691946Y-74998324D01*
X143800827Y-75039142D01*
X143857591Y-75081784D01*
X143882291Y-75148345D01*
X143867083Y-75217694D01*
X143847691Y-75244175D01*
X143762838Y-75332969D01*
X143720629Y-75377138D01*
X143717715Y-75381410D01*
X143717714Y-75381411D01*
X143666136Y-75457022D01*
X143594743Y-75561680D01*
X143500688Y-75764305D01*
X143440989Y-75979570D01*
X143417251Y-76201695D01*
X143417548Y-76206848D01*
X143417548Y-76206851D01*
X143425982Y-76353124D01*
X143430110Y-76424715D01*
X143431247Y-76429761D01*
X143431248Y-76429767D01*
X143443020Y-76482000D01*
X143479222Y-76642639D01*
X143563266Y-76849616D01*
X143614019Y-76932438D01*
X143649861Y-76990926D01*
X143679987Y-77040088D01*
X143826250Y-77208938D01*
X143998126Y-77351632D01*
X144068595Y-77392811D01*
X144071445Y-77394476D01*
X144120169Y-77446114D01*
X144133240Y-77515897D01*
X144106509Y-77581669D01*
X144066055Y-77615027D01*
X144053607Y-77621507D01*
X144049474Y-77624610D01*
X144049471Y-77624612D01*
X144025247Y-77642800D01*
X143874965Y-77755635D01*
X143720629Y-77917138D01*
X143594743Y-78101680D01*
X143500688Y-78304305D01*
X143440989Y-78519570D01*
X143417251Y-78741695D01*
X143417548Y-78746848D01*
X143417548Y-78746851D01*
X143423011Y-78841590D01*
X143430110Y-78964715D01*
X143431247Y-78969761D01*
X143431248Y-78969767D01*
X143451119Y-79057939D01*
X143479222Y-79182639D01*
X143563266Y-79389616D01*
X143679987Y-79580088D01*
X143826250Y-79748938D01*
X143998126Y-79891632D01*
X144068595Y-79932811D01*
X144071445Y-79934476D01*
X144120169Y-79986114D01*
X144133240Y-80055897D01*
X144106509Y-80121669D01*
X144066055Y-80155027D01*
X144053607Y-80161507D01*
X144049474Y-80164610D01*
X144049471Y-80164612D01*
X143879100Y-80292530D01*
X143874965Y-80295635D01*
X143720629Y-80457138D01*
X143594743Y-80641680D01*
X143579003Y-80675590D01*
X143503154Y-80838993D01*
X143500688Y-80844305D01*
X143440989Y-81059570D01*
X143417251Y-81281695D01*
X130814372Y-81281695D01*
X130814372Y-81274525D01*
X130795962Y-81064104D01*
X130794059Y-81053309D01*
X130739391Y-80849285D01*
X130735645Y-80838993D01*
X130646377Y-80647559D01*
X130640897Y-80638068D01*
X130610206Y-80594235D01*
X130599729Y-80585860D01*
X130586282Y-80592928D01*
X129912022Y-81267188D01*
X129904408Y-81281132D01*
X129174356Y-81281132D01*
X129175592Y-81278868D01*
X129175461Y-81277035D01*
X129171210Y-81270420D01*
X128492997Y-80592207D01*
X128481223Y-80585777D01*
X128469207Y-80595074D01*
X128439103Y-80638068D01*
X128433623Y-80647559D01*
X128344355Y-80838993D01*
X128340609Y-80849285D01*
X128285941Y-81053309D01*
X128284038Y-81064104D01*
X128265628Y-81274525D01*
X128265628Y-81285475D01*
X107954874Y-81285475D01*
X107955353Y-81280000D01*
X107935978Y-81058537D01*
X107878440Y-80843804D01*
X107876117Y-80838822D01*
X107786814Y-80647311D01*
X107786811Y-80647306D01*
X107784488Y-80642324D01*
X107781041Y-80637401D01*
X107660136Y-80464730D01*
X107660134Y-80464727D01*
X107656977Y-80460219D01*
X107499781Y-80303023D01*
X107495273Y-80299866D01*
X107495270Y-80299864D01*
X107419505Y-80246813D01*
X107381599Y-80220271D01*
X128845860Y-80220271D01*
X128852928Y-80233718D01*
X129527188Y-80907978D01*
X129541132Y-80915592D01*
X129542965Y-80915461D01*
X129549580Y-80911210D01*
X130227793Y-80232997D01*
X130234223Y-80221223D01*
X130224926Y-80209207D01*
X130181931Y-80179102D01*
X130172445Y-80173624D01*
X129981007Y-80084355D01*
X129970715Y-80080609D01*
X129766691Y-80025941D01*
X129755896Y-80024038D01*
X129545475Y-80005628D01*
X129534525Y-80005628D01*
X129324104Y-80024038D01*
X129313309Y-80025941D01*
X129109285Y-80080609D01*
X129098993Y-80084355D01*
X128907559Y-80173623D01*
X128898068Y-80179103D01*
X128854235Y-80209794D01*
X128845860Y-80220271D01*
X107381599Y-80220271D01*
X107317677Y-80175512D01*
X107312695Y-80173189D01*
X107312690Y-80173186D01*
X107121178Y-80083883D01*
X107121177Y-80083882D01*
X107116196Y-80081560D01*
X107110888Y-80080138D01*
X107110886Y-80080137D01*
X107020421Y-80055897D01*
X106901463Y-80024022D01*
X106680000Y-80004647D01*
X106458537Y-80024022D01*
X106339579Y-80055897D01*
X106249114Y-80080137D01*
X106249112Y-80080138D01*
X106243804Y-80081560D01*
X106238823Y-80083882D01*
X106238822Y-80083883D01*
X106047311Y-80173186D01*
X106047306Y-80173189D01*
X106042324Y-80175512D01*
X106037817Y-80178668D01*
X106037815Y-80178669D01*
X105864730Y-80299864D01*
X105864727Y-80299866D01*
X105860219Y-80303023D01*
X105703023Y-80460219D01*
X105699866Y-80464727D01*
X105699864Y-80464730D01*
X105578959Y-80637401D01*
X105575512Y-80642324D01*
X105573189Y-80647306D01*
X105573186Y-80647311D01*
X105483883Y-80838822D01*
X105481560Y-80843804D01*
X105424022Y-81058537D01*
X105404647Y-81280000D01*
X75508500Y-81280000D01*
X75508500Y-78740000D01*
X103566594Y-78740000D01*
X103571500Y-78777265D01*
X103586132Y-78888408D01*
X103643416Y-79026703D01*
X103734541Y-79145459D01*
X103853297Y-79236584D01*
X103991592Y-79293868D01*
X104140000Y-79313406D01*
X104148188Y-79312328D01*
X104169077Y-79309578D01*
X104185523Y-79308500D01*
X132034477Y-79308500D01*
X132050924Y-79309578D01*
X132080000Y-79313406D01*
X132088188Y-79312328D01*
X132117265Y-79308500D01*
X132220220Y-79294946D01*
X132228408Y-79293868D01*
X132366703Y-79236584D01*
X132485459Y-79145459D01*
X132576584Y-79026703D01*
X132633868Y-78888408D01*
X132653406Y-78740000D01*
X132649578Y-78710923D01*
X132648500Y-78694477D01*
X132648500Y-73422885D01*
X143422000Y-73422885D01*
X143426475Y-73438124D01*
X143427865Y-73439329D01*
X143435548Y-73441000D01*
X144507885Y-73441000D01*
X144523124Y-73436525D01*
X144524329Y-73435135D01*
X144526000Y-73427452D01*
X144526000Y-73422885D01*
X145034000Y-73422885D01*
X145038475Y-73438124D01*
X145039865Y-73439329D01*
X145047548Y-73441000D01*
X146119884Y-73441000D01*
X146135123Y-73436525D01*
X146136328Y-73435135D01*
X146137999Y-73427452D01*
X146137999Y-72800331D01*
X146137629Y-72793510D01*
X146132105Y-72742648D01*
X146128479Y-72727396D01*
X146083324Y-72606946D01*
X146074786Y-72591351D01*
X145998285Y-72489276D01*
X145985724Y-72476715D01*
X145883649Y-72400214D01*
X145868054Y-72391676D01*
X145747606Y-72346522D01*
X145732351Y-72342895D01*
X145681486Y-72337369D01*
X145674672Y-72337000D01*
X145052115Y-72337000D01*
X145036876Y-72341475D01*
X145035671Y-72342865D01*
X145034000Y-72350548D01*
X145034000Y-73422885D01*
X144526000Y-73422885D01*
X144526000Y-72355116D01*
X144521525Y-72339877D01*
X144520135Y-72338672D01*
X144512452Y-72337001D01*
X143885331Y-72337001D01*
X143878510Y-72337371D01*
X143827648Y-72342895D01*
X143812396Y-72346521D01*
X143691946Y-72391676D01*
X143676351Y-72400214D01*
X143574276Y-72476715D01*
X143561715Y-72489276D01*
X143485214Y-72591351D01*
X143476676Y-72606946D01*
X143431522Y-72727394D01*
X143427895Y-72742649D01*
X143422369Y-72793514D01*
X143422000Y-72800328D01*
X143422000Y-73422885D01*
X132648500Y-73422885D01*
X132648500Y-71165523D01*
X132649578Y-71149077D01*
X132652328Y-71128188D01*
X132653406Y-71120000D01*
X132633868Y-70971592D01*
X132576584Y-70833297D01*
X132485459Y-70714541D01*
X132366703Y-70623416D01*
X132228408Y-70566132D01*
X132117265Y-70551500D01*
X132080000Y-70546594D01*
X132071812Y-70547672D01*
X132050923Y-70550422D01*
X132034477Y-70551500D01*
X104185523Y-70551500D01*
X104169077Y-70550422D01*
X104148188Y-70547672D01*
X104140000Y-70546594D01*
X104102735Y-70551500D01*
X103991592Y-70566132D01*
X103853297Y-70623416D01*
X103734541Y-70714541D01*
X103643416Y-70833297D01*
X103586132Y-70971592D01*
X103566594Y-71120000D01*
X103567672Y-71128188D01*
X103570422Y-71149077D01*
X103571500Y-71165523D01*
X103571500Y-78694477D01*
X103570422Y-78710923D01*
X103566594Y-78740000D01*
X75508500Y-78740000D01*
X75508500Y-76633134D01*
X79271500Y-76633134D01*
X79278255Y-76695316D01*
X79329385Y-76831705D01*
X79416739Y-76948261D01*
X79533295Y-77035615D01*
X79669684Y-77086745D01*
X79731866Y-77093500D01*
X82828134Y-77093500D01*
X82890316Y-77086745D01*
X83026705Y-77035615D01*
X83143261Y-76948261D01*
X83230615Y-76831705D01*
X83281745Y-76695316D01*
X83283990Y-76674654D01*
X85135618Y-76674654D01*
X85142673Y-76684627D01*
X85173679Y-76710551D01*
X85180598Y-76715579D01*
X85405272Y-76856515D01*
X85412807Y-76860556D01*
X85654520Y-76969694D01*
X85662551Y-76972680D01*
X85916832Y-77048002D01*
X85925184Y-77049869D01*
X86187340Y-77089984D01*
X86195874Y-77090700D01*
X86461045Y-77094867D01*
X86469596Y-77094418D01*
X86732883Y-77062557D01*
X86741284Y-77060955D01*
X86997824Y-76993653D01*
X87005926Y-76990926D01*
X87250949Y-76889434D01*
X87258617Y-76885628D01*
X87487598Y-76751822D01*
X87494679Y-76747009D01*
X87574655Y-76684301D01*
X87583125Y-76672442D01*
X87576608Y-76660818D01*
X86372812Y-75457022D01*
X86358868Y-75449408D01*
X86357035Y-75449539D01*
X86350420Y-75453790D01*
X85142910Y-76661300D01*
X85135618Y-76674654D01*
X83283990Y-76674654D01*
X83288500Y-76633134D01*
X83288500Y-75068204D01*
X84347665Y-75068204D01*
X84362932Y-75332969D01*
X84364005Y-75341470D01*
X84415065Y-75601722D01*
X84417276Y-75609974D01*
X84503184Y-75860894D01*
X84506499Y-75868779D01*
X84625664Y-76105713D01*
X84630020Y-76113079D01*
X84759347Y-76301250D01*
X84769601Y-76309594D01*
X84783342Y-76302448D01*
X85987978Y-75097812D01*
X85994356Y-75086132D01*
X86724408Y-75086132D01*
X86724539Y-75087965D01*
X86728790Y-75094580D01*
X87935730Y-76301520D01*
X87947939Y-76308187D01*
X87959439Y-76299497D01*
X88056831Y-76166913D01*
X88061418Y-76159685D01*
X88187962Y-75926621D01*
X88191530Y-75918827D01*
X88285271Y-75670750D01*
X88287748Y-75662544D01*
X88346954Y-75404038D01*
X88348294Y-75395577D01*
X88372031Y-75129616D01*
X88372277Y-75124677D01*
X88372666Y-75087485D01*
X88372523Y-75082519D01*
X88354362Y-74816123D01*
X88353201Y-74807649D01*
X88299419Y-74547944D01*
X88297120Y-74539709D01*
X88208588Y-74289705D01*
X88205191Y-74281854D01*
X88083550Y-74046178D01*
X88079122Y-74038866D01*
X87960031Y-73869417D01*
X87949509Y-73861037D01*
X87936121Y-73868089D01*
X86732022Y-75072188D01*
X86724408Y-75086132D01*
X85994356Y-75086132D01*
X85995592Y-75083868D01*
X85995461Y-75082035D01*
X85991210Y-75075420D01*
X84783814Y-73868024D01*
X84771804Y-73861466D01*
X84760064Y-73870434D01*
X84651935Y-74020911D01*
X84647418Y-74028196D01*
X84523325Y-74262567D01*
X84519839Y-74270395D01*
X84428700Y-74519446D01*
X84426311Y-74527670D01*
X84369812Y-74786795D01*
X84368563Y-74795250D01*
X84347754Y-75059653D01*
X84347665Y-75068204D01*
X83288500Y-75068204D01*
X83288500Y-73536866D01*
X83284224Y-73497500D01*
X85136584Y-73497500D01*
X85142980Y-73508770D01*
X86347188Y-74712978D01*
X86361132Y-74720592D01*
X86362965Y-74720461D01*
X86369580Y-74716210D01*
X87576604Y-73509186D01*
X87583795Y-73496017D01*
X87576473Y-73485780D01*
X87529233Y-73447115D01*
X87522261Y-73442160D01*
X87296122Y-73303582D01*
X87288552Y-73299624D01*
X87045704Y-73193022D01*
X87037644Y-73190120D01*
X86782592Y-73117467D01*
X86774214Y-73115685D01*
X86511656Y-73078318D01*
X86503111Y-73077691D01*
X86237908Y-73076302D01*
X86229374Y-73076839D01*
X85966433Y-73111456D01*
X85958035Y-73113149D01*
X85702238Y-73183127D01*
X85694143Y-73185946D01*
X85450199Y-73289997D01*
X85442577Y-73293881D01*
X85215013Y-73430075D01*
X85207981Y-73434962D01*
X85145053Y-73485377D01*
X85136584Y-73497500D01*
X83284224Y-73497500D01*
X83281745Y-73474684D01*
X83230615Y-73338295D01*
X83143261Y-73221739D01*
X83026705Y-73134385D01*
X82890316Y-73083255D01*
X82828134Y-73076500D01*
X79731866Y-73076500D01*
X79669684Y-73083255D01*
X79533295Y-73134385D01*
X79416739Y-73221739D01*
X79329385Y-73338295D01*
X79278255Y-73474684D01*
X79271500Y-73536866D01*
X79271500Y-76633134D01*
X75508500Y-76633134D01*
X75508500Y-67634500D01*
X75528502Y-67566379D01*
X75582158Y-67519886D01*
X75634500Y-67508500D01*
X157365500Y-67508500D01*
X157433621Y-67528502D01*
G37*
%TD.AperFunction*%
%TD*%
M02*
