M48
; DRILL file {KiCad (6.0.11)} date Tue Aug 11 11:20:09 2026
; FORMAT={-:-/ absolute / inch / decimal}
; #@! TF.CreationDate,2026-08-11T11:20:09+05:30
; #@! TF.GenerationSoftware,Kicad,Pcbnew,(6.0.11)
; #@! TF.FileFunction,Plated,1,2,PTH
FMAT,2
INCH
; #@! TA.AperFunction,Plated,PTH,ViaDrill
T1C0.0157
; #@! TA.AperFunction,Plated,PTH,ComponentDrill
T2C0.0300
; #@! TA.AperFunction,Plated,PTH,ComponentDrill
T3C0.0315
; #@! TA.AperFunction,Plated,PTH,ComponentDrill
T4C0.0354
; #@! TA.AperFunction,Plated,PTH,ComponentDrill
T5C0.0394
; #@! TA.AperFunction,Plated,PTH,ComponentDrill
T6C0.0433
; #@! TA.AperFunction,Plated,PTH,ComponentDrill
T7C0.0598
%
G90
G05
T1
X3.4142Y-4.5511
X3.435Y-4.5177
X3.435Y-4.5177
X3.6394Y-4.4783
X3.9272Y-4.1437
X4.2Y-3.5
X4.2Y-3.6
X5.1Y-3.8
X5.2362Y-3.7303
X5.4394Y-3.622
T2
X4.2Y-3.2
X4.2Y-3.3
X4.2Y-3.4
X4.2Y-3.5
X4.2Y-3.6
X4.2Y-3.7
X4.2Y-3.8
X4.2Y-3.9
X5.1Y-3.2
X5.1Y-3.3
X5.1Y-3.4
X5.1Y-3.5
X5.1Y-3.6
X5.1Y-3.7
X5.1Y-3.8
X5.1Y-3.9
T3
X3.3Y-4.0
X3.3787Y-4.0
X3.6Y-4.4
X3.6Y-4.7
X3.7Y-3.5
X3.7Y-4.0
X3.7Y-4.4
X3.7Y-4.7
X3.7787Y-3.5
X3.7787Y-4.0
X4.1Y-4.7
X4.2Y-4.7
X5.4Y-3.5
X5.4Y-3.8
X5.4Y-4.1
X5.4984Y-3.8
X5.5Y-3.5
X5.5Y-4.1
T4
X4.5Y-4.7
X4.6Y-4.7
T5
X3.175Y-4.375
X3.175Y-4.475
X3.175Y-4.575
X3.175Y-4.675
X5.7Y-2.9014
X5.7Y-3.0014
X5.7Y-3.1014
X5.7Y-3.2014
T6
X5.7705Y-4.0736
X5.7705Y-4.2508
X5.772Y-3.5527
X5.772Y-3.7299
X6.0264Y-4.0736
X6.0264Y-4.2508
X6.028Y-3.5527
X6.028Y-3.7299
T7
X3.2Y-2.9561
X3.4Y-2.9561
T0
M30
