%TF.GenerationSoftware,KiCad,Pcbnew,(6.0.11)*%
%TF.CreationDate,2026-08-11T11:19:42+05:30*%
%TF.ProjectId,Tiny_ml_hand_classifier,54696e79-5f6d-46c5-9f68-616e645f636c,rev?*%
%TF.SameCoordinates,Original*%
%TF.FileFunction,Copper,L1,Top*%
%TF.FilePolarity,Positive*%
%FSLAX46Y46*%
G04 Gerber Fmt 4.6, Leading zero omitted, Abs format (unit mm)*
G04 Created by KiCad (PCBNEW (6.0.11)) date 2026-08-11 11:19:42*
%MOMM*%
%LPD*%
G01*
G04 APERTURE LIST*
%TA.AperFunction,ComponentPad*%
%ADD10C,2.000000*%
%TD*%
%TA.AperFunction,ComponentPad*%
%ADD11R,1.600000X1.600000*%
%TD*%
%TA.AperFunction,ComponentPad*%
%ADD12C,1.600000*%
%TD*%
%TA.AperFunction,ComponentPad*%
%ADD13R,1.700000X1.700000*%
%TD*%
%TA.AperFunction,ComponentPad*%
%ADD14O,1.700000X1.700000*%
%TD*%
%TA.AperFunction,ComponentPad*%
%ADD15R,1.800000X1.800000*%
%TD*%
%TA.AperFunction,ComponentPad*%
%ADD16C,1.800000*%
%TD*%
%TA.AperFunction,SMDPad,CuDef*%
%ADD17R,2.000000X1.500000*%
%TD*%
%TA.AperFunction,SMDPad,CuDef*%
%ADD18R,2.000000X3.800000*%
%TD*%
%TA.AperFunction,ComponentPad*%
%ADD19O,1.600000X1.600000*%
%TD*%
%TA.AperFunction,ComponentPad*%
%ADD20R,3.000000X3.000000*%
%TD*%
%TA.AperFunction,ComponentPad*%
%ADD21C,3.000000*%
%TD*%
%TA.AperFunction,ComponentPad*%
%ADD22C,1.524000*%
%TD*%
%TA.AperFunction,ViaPad*%
%ADD23C,0.800000*%
%TD*%
%TA.AperFunction,Conductor*%
%ADD24C,0.400000*%
%TD*%
%TA.AperFunction,Conductor*%
%ADD25C,0.800000*%
%TD*%
G04 APERTURE END LIST*
D10*
%TO.P,SW2,1,PIN_A*%
%TO.N,Net-(R2-Pad1)*%
X153070000Y-103470000D03*
X146570000Y-103470000D03*
%TO.P,SW2,2,PIN_B*%
%TO.N,GND*%
X153070000Y-107970000D03*
X146570000Y-107970000D03*
%TD*%
%TO.P,SW1,1,PIN_A*%
%TO.N,Net-(R1-Pad2)*%
X153110000Y-90238872D03*
X146610000Y-90238872D03*
%TO.P,SW1,2,PIN_B*%
%TO.N,GND*%
X153110000Y-94738872D03*
X146610000Y-94738872D03*
%TD*%
D11*
%TO.P,C4,1*%
%TO.N,VCC*%
X93980000Y-101600000D03*
D12*
%TO.P,C4,2*%
%TO.N,GND*%
X95980000Y-101600000D03*
%TD*%
D11*
%TO.P,C2,1*%
%TO.N,VCC*%
X83820000Y-101600000D03*
D12*
%TO.P,C2,2*%
%TO.N,GND*%
X85820000Y-101600000D03*
%TD*%
D11*
%TO.P,C1,1*%
%TO.N,VCC*%
X93980000Y-88900000D03*
D12*
%TO.P,C1,2*%
%TO.N,GND*%
X95980000Y-88900000D03*
%TD*%
%TO.P,C3,1*%
%TO.N,VCC*%
X137160000Y-96520000D03*
%TO.P,C3,2*%
%TO.N,GND*%
X139660000Y-96520000D03*
%TD*%
D13*
%TO.P,J3,1,PIN_A*%
%TO.N,GND*%
X80645000Y-111125000D03*
D14*
%TO.P,J3,2,PIN_B*%
%TO.N,VCC*%
X80645000Y-113665000D03*
%TO.P,J3,3,PIN_C*%
%TO.N,Net-(R3-Pad2)*%
X80645000Y-116205000D03*
%TO.P,J3,4,PIN_D*%
%TO.N,Net-(J3-Pad4)*%
X80645000Y-118745000D03*
%TD*%
D13*
%TO.P,J2,1,PIN_A*%
%TO.N,GND*%
X144780000Y-73695000D03*
D14*
%TO.P,J2,2,PIN_B*%
%TO.N,unconnected-(J2-Pad2)*%
X144780000Y-76235000D03*
%TO.P,J2,3,PIN_C*%
%TO.N,Net-(U2-Pad15)*%
X144780000Y-78775000D03*
%TO.P,J2,4,PIN_D*%
%TO.N,Net-(U2-Pad14)*%
X144780000Y-81315000D03*
%TD*%
D15*
%TO.P,D1,1,A*%
%TO.N,Net-(D1-Pad1)*%
X114300000Y-119380000D03*
D16*
%TO.P,D1,2,K*%
%TO.N,GND*%
X116840000Y-119380000D03*
%TD*%
D17*
%TO.P,U1,1,VI*%
%TO.N,VCC*%
X80670000Y-86600000D03*
D18*
%TO.P,U1,2,GND*%
%TO.N,GND*%
X86970000Y-88900000D03*
D17*
X80670000Y-88900000D03*
%TO.P,U1,3,VO*%
%TO.N,VCC*%
X80670000Y-91200000D03*
%TD*%
D12*
%TO.P,R5,1*%
%TO.N,Net-(D1-Pad1)*%
X104140000Y-119380000D03*
D19*
%TO.P,R5,2*%
%TO.N,Net-(R5-Pad2)*%
X106680000Y-119380000D03*
%TD*%
D12*
%TO.P,R4,1*%
%TO.N,VCC*%
X91440000Y-119380000D03*
D19*
%TO.P,R4,2*%
%TO.N,Net-(U2-Pad6)*%
X93980000Y-119380000D03*
%TD*%
D12*
%TO.P,R3,1*%
%TO.N,VCC*%
X91440000Y-111760000D03*
D19*
%TO.P,R3,2*%
%TO.N,Net-(R3-Pad2)*%
X93980000Y-111760000D03*
%TD*%
D12*
%TO.P,R2,1*%
%TO.N,Net-(R2-Pad1)*%
X137160000Y-104140000D03*
D19*
%TO.P,R2,2*%
%TO.N,VCC*%
X139700000Y-104140000D03*
%TD*%
D12*
%TO.P,R1,1*%
%TO.N,VCC*%
X137160000Y-88900000D03*
D19*
%TO.P,R1,2*%
%TO.N,Net-(R1-Pad2)*%
X139700000Y-88900000D03*
%TD*%
D20*
%TO.P,J1,1,VIN*%
%TO.N,VCC*%
X81280000Y-75085000D03*
D21*
%TO.P,J1,2,GND*%
%TO.N,GND*%
X86360000Y-75085000D03*
%TD*%
D22*
%TO.P,U2,1,5V*%
%TO.N,unconnected-(U2-Pad1)*%
X106680000Y-81280000D03*
%TO.P,U2,2,GND*%
%TO.N,GND*%
X106680000Y-83820000D03*
%TO.P,U2,3,GPIO12*%
%TO.N,unconnected-(U2-Pad3)*%
X106680000Y-86360000D03*
%TO.P,U2,4,GPIO13*%
%TO.N,Net-(J3-Pad4)*%
X106680000Y-88900000D03*
%TO.P,U2,5,GPIO15*%
%TO.N,Net-(R3-Pad2)*%
X106680000Y-91440000D03*
%TO.P,U2,6,GPIO14*%
%TO.N,Net-(U2-Pad6)*%
X106680000Y-93980000D03*
%TO.P,U2,7,GPIO2*%
%TO.N,unconnected-(U2-Pad7)*%
X106680000Y-96520000D03*
%TO.P,U2,8,GPIO4*%
%TO.N,Net-(R5-Pad2)*%
X106680000Y-99060000D03*
%TO.P,U2,9,3V3*%
%TO.N,VCC*%
X129540000Y-99060000D03*
%TO.P,U2,10,EN*%
%TO.N,Net-(R1-Pad2)*%
X129540000Y-96520000D03*
%TO.P,U2,11,GPIO0*%
%TO.N,Net-(R2-Pad1)*%
X129540000Y-93980000D03*
%TO.P,U2,12,GPIO16*%
%TO.N,unconnected-(U2-Pad12)*%
X129540000Y-91440000D03*
%TO.P,U2,13,VCC*%
%TO.N,VCC*%
X129540000Y-88900000D03*
%TO.P,U2,14,U0RXD*%
%TO.N,Net-(U2-Pad14)*%
X129540000Y-86360000D03*
%TO.P,U2,15,U0TXD*%
%TO.N,Net-(U2-Pad15)*%
X129540000Y-83820000D03*
%TO.P,U2,16,GND*%
%TO.N,GND*%
X129540000Y-81280000D03*
%TD*%
D23*
%TO.N,Net-(R3-Pad2)*%
X92439500Y-113750000D03*
X87250000Y-114750000D03*
%TO.N,Net-(R1-Pad2)*%
X133000000Y-94750000D03*
X138159500Y-92000000D03*
X129540000Y-96520000D03*
%TO.N,Net-(J3-Pad4)*%
X106680000Y-88900000D03*
X99750000Y-105250000D03*
X86720027Y-115597427D03*
%TO.N,Net-(R3-Pad2)*%
X106680000Y-91440000D03*
X87250000Y-114750000D03*
%TD*%
D24*
%TO.N,Net-(R3-Pad2)*%
X93980000Y-112209500D02*
X92439500Y-113750000D01*
X93980000Y-111760000D02*
X93980000Y-112209500D01*
%TO.N,Net-(R2-Pad1)*%
X146570000Y-103470000D02*
X153070000Y-103470000D01*
%TO.N,Net-(U2-Pad6)*%
X100550000Y-112810000D02*
X93980000Y-119380000D01*
X106680000Y-93980000D02*
X100550000Y-100110000D01*
X100550000Y-100110000D02*
X100550000Y-112810000D01*
%TO.N,Net-(U2-Pad15)*%
X139735000Y-83820000D02*
X144780000Y-78775000D01*
X129540000Y-83820000D02*
X139735000Y-83820000D01*
%TO.N,Net-(U2-Pad14)*%
X139735000Y-86360000D02*
X144780000Y-81315000D01*
X129540000Y-86360000D02*
X139735000Y-86360000D01*
%TO.N,Net-(R1-Pad2)*%
X133000000Y-94750000D02*
X131230000Y-96520000D01*
X131230000Y-96520000D02*
X129540000Y-96520000D01*
X139700000Y-90459500D02*
X138159500Y-92000000D01*
X139700000Y-88900000D02*
X139700000Y-90459500D01*
X145271128Y-88900000D02*
X146610000Y-90238872D01*
X139700000Y-88900000D02*
X145271128Y-88900000D01*
%TO.N,Net-(D1-Pad1)*%
X113100000Y-120580000D02*
X114300000Y-119380000D01*
X105340000Y-120580000D02*
X113100000Y-120580000D01*
X104140000Y-119380000D02*
X105340000Y-120580000D01*
%TO.N,Net-(R5-Pad2)*%
X106680000Y-119380000D02*
X106680000Y-99060000D01*
%TO.N,Net-(J3-Pad4)*%
X99750000Y-95830000D02*
X106680000Y-88900000D01*
X99750000Y-105250000D02*
X99750000Y-95830000D01*
X83792573Y-115597427D02*
X86720027Y-115597427D01*
X80645000Y-118745000D02*
X83792573Y-115597427D01*
%TO.N,Net-(R3-Pad2)*%
X82100000Y-114750000D02*
X87250000Y-114750000D01*
X80645000Y-116205000D02*
X82100000Y-114750000D01*
D25*
%TO.N,VCC*%
X79070000Y-87550000D02*
X80020000Y-86600000D01*
X79070000Y-90250000D02*
X79070000Y-87550000D01*
X80020000Y-86600000D02*
X80670000Y-86600000D01*
X80020000Y-91200000D02*
X79070000Y-90250000D01*
X80670000Y-91200000D02*
X80020000Y-91200000D01*
X91440000Y-119380000D02*
X91440000Y-111760000D01*
X129540000Y-99060000D02*
X134620000Y-99060000D01*
X134620000Y-99060000D02*
X137160000Y-96520000D01*
X139700000Y-99060000D02*
X137160000Y-96520000D01*
X139700000Y-104140000D02*
X139700000Y-99060000D01*
X89535000Y-113665000D02*
X91440000Y-111760000D01*
X80645000Y-113665000D02*
X89535000Y-113665000D01*
X91440000Y-111760000D02*
X91440000Y-104190000D01*
X91440000Y-104190000D02*
X91415000Y-104165000D01*
X91415000Y-104165000D02*
X91080000Y-104500000D01*
X93980000Y-101600000D02*
X91415000Y-104165000D01*
X93980000Y-101600000D02*
X93980000Y-88900000D01*
X86720000Y-104500000D02*
X83820000Y-101600000D01*
X91080000Y-104500000D02*
X86720000Y-104500000D01*
X80670000Y-98450000D02*
X83820000Y-101600000D01*
X80670000Y-91200000D02*
X80670000Y-98450000D01*
X102962000Y-79918000D02*
X93980000Y-88900000D01*
X120558000Y-79918000D02*
X102962000Y-79918000D01*
X129540000Y-88900000D02*
X120558000Y-79918000D01*
X137160000Y-88900000D02*
X137160000Y-96520000D01*
X129540000Y-88900000D02*
X137160000Y-88900000D01*
X81280000Y-85990000D02*
X80670000Y-86600000D01*
X81280000Y-75085000D02*
X81280000Y-85990000D01*
%TD*%
%TA.AperFunction,Conductor*%
%TO.N,GND*%
G36*
X157433621Y-67528502D02*
G01*
X157480114Y-67582158D01*
X157491500Y-67634500D01*
X157491500Y-125365500D01*
X157471498Y-125433621D01*
X157417842Y-125480114D01*
X157365500Y-125491500D01*
X75634500Y-125491500D01*
X75566379Y-125471498D01*
X75519886Y-125417842D01*
X75508500Y-125365500D01*
X75508500Y-110852885D01*
X79287000Y-110852885D01*
X79291475Y-110868124D01*
X79292865Y-110869329D01*
X79300548Y-110871000D01*
X80372885Y-110871000D01*
X80388124Y-110866525D01*
X80389329Y-110865135D01*
X80391000Y-110857452D01*
X80391000Y-110852885D01*
X80899000Y-110852885D01*
X80903475Y-110868124D01*
X80904865Y-110869329D01*
X80912548Y-110871000D01*
X81984884Y-110871000D01*
X82000123Y-110866525D01*
X82001328Y-110865135D01*
X82002999Y-110857452D01*
X82002999Y-110230331D01*
X82002629Y-110223510D01*
X81997105Y-110172648D01*
X81993479Y-110157396D01*
X81948324Y-110036946D01*
X81939786Y-110021351D01*
X81863285Y-109919276D01*
X81850724Y-109906715D01*
X81748649Y-109830214D01*
X81733054Y-109821676D01*
X81612606Y-109776522D01*
X81597351Y-109772895D01*
X81546486Y-109767369D01*
X81539672Y-109767000D01*
X80917115Y-109767000D01*
X80901876Y-109771475D01*
X80900671Y-109772865D01*
X80899000Y-109780548D01*
X80899000Y-110852885D01*
X80391000Y-110852885D01*
X80391000Y-109785116D01*
X80386525Y-109769877D01*
X80385135Y-109768672D01*
X80377452Y-109767001D01*
X79750331Y-109767001D01*
X79743510Y-109767371D01*
X79692648Y-109772895D01*
X79677396Y-109776521D01*
X79556946Y-109821676D01*
X79541351Y-109830214D01*
X79439276Y-109906715D01*
X79426715Y-109919276D01*
X79350214Y-110021351D01*
X79341676Y-110036946D01*
X79296522Y-110157394D01*
X79292895Y-110172649D01*
X79287369Y-110223514D01*
X79287000Y-110230328D01*
X79287000Y-110852885D01*
X75508500Y-110852885D01*
X75508500Y-90202190D01*
X78157748Y-90202190D01*
X78158093Y-90208777D01*
X78158093Y-90208782D01*
X78161327Y-90270480D01*
X78161500Y-90277074D01*
X78161500Y-90297610D01*
X78161844Y-90300882D01*
X78161844Y-90300884D01*
X78163647Y-90318042D01*
X78164164Y-90324616D01*
X78165366Y-90347540D01*
X78167743Y-90392903D01*
X78169453Y-90399284D01*
X78169453Y-90399286D01*
X78171383Y-90406491D01*
X78174985Y-90425925D01*
X78175766Y-90433354D01*
X78175768Y-90433363D01*
X78176458Y-90439928D01*
X78197600Y-90504997D01*
X78199467Y-90511299D01*
X78217171Y-90577370D01*
X78223559Y-90589907D01*
X78231125Y-90608173D01*
X78235473Y-90621556D01*
X78238776Y-90627278D01*
X78238777Y-90627279D01*
X78269667Y-90680782D01*
X78272814Y-90686577D01*
X78303871Y-90747530D01*
X78308024Y-90752658D01*
X78308025Y-90752660D01*
X78312727Y-90758466D01*
X78323927Y-90774763D01*
X78327657Y-90781224D01*
X78327660Y-90781228D01*
X78330960Y-90786944D01*
X78335377Y-90791850D01*
X78335381Y-90791855D01*
X78376722Y-90837769D01*
X78381006Y-90842784D01*
X78393928Y-90858741D01*
X78408443Y-90873256D01*
X78412984Y-90878041D01*
X78458747Y-90928866D01*
X78464086Y-90932745D01*
X78464087Y-90932746D01*
X78470135Y-90937140D01*
X78485168Y-90949981D01*
X79124595Y-91589408D01*
X79158621Y-91651720D01*
X79161500Y-91678503D01*
X79161500Y-91998134D01*
X79168255Y-92060316D01*
X79219385Y-92196705D01*
X79306739Y-92313261D01*
X79423295Y-92400615D01*
X79559684Y-92451745D01*
X79621866Y-92458500D01*
X79635500Y-92458500D01*
X79703621Y-92478502D01*
X79750114Y-92532158D01*
X79761500Y-92584500D01*
X79761500Y-98368583D01*
X79759949Y-98388292D01*
X79757748Y-98402190D01*
X79758093Y-98408777D01*
X79758093Y-98408782D01*
X79761327Y-98470480D01*
X79761500Y-98477074D01*
X79761500Y-98497610D01*
X79761844Y-98500882D01*
X79761844Y-98500884D01*
X79763647Y-98518042D01*
X79764164Y-98524616D01*
X79764721Y-98535232D01*
X79767743Y-98592903D01*
X79769453Y-98599284D01*
X79769453Y-98599286D01*
X79771383Y-98606491D01*
X79774985Y-98625925D01*
X79775766Y-98633354D01*
X79775768Y-98633363D01*
X79776458Y-98639928D01*
X79797600Y-98704997D01*
X79799467Y-98711299D01*
X79817171Y-98777370D01*
X79823559Y-98789907D01*
X79831125Y-98808173D01*
X79835473Y-98821556D01*
X79859856Y-98863788D01*
X79869667Y-98880782D01*
X79872814Y-98886577D01*
X79903871Y-98947530D01*
X79908024Y-98952658D01*
X79908025Y-98952660D01*
X79912727Y-98958466D01*
X79923927Y-98974763D01*
X79927657Y-98981224D01*
X79927660Y-98981228D01*
X79930960Y-98986944D01*
X79935377Y-98991850D01*
X79935381Y-98991855D01*
X79976722Y-99037769D01*
X79981006Y-99042784D01*
X79993928Y-99058741D01*
X80008443Y-99073256D01*
X80012984Y-99078041D01*
X80058747Y-99128866D01*
X80064086Y-99132745D01*
X80064087Y-99132746D01*
X80070135Y-99137140D01*
X80085168Y-99149981D01*
X82474595Y-101539408D01*
X82508621Y-101601720D01*
X82511500Y-101628503D01*
X82511500Y-102448134D01*
X82518255Y-102510316D01*
X82569385Y-102646705D01*
X82656739Y-102763261D01*
X82773295Y-102850615D01*
X82909684Y-102901745D01*
X82971866Y-102908500D01*
X83791497Y-102908500D01*
X83859618Y-102928502D01*
X83880592Y-102945405D01*
X86020019Y-105084832D01*
X86032860Y-105099865D01*
X86041134Y-105111253D01*
X86046043Y-105115673D01*
X86091959Y-105157016D01*
X86096744Y-105161557D01*
X86111259Y-105176072D01*
X86113823Y-105178148D01*
X86127216Y-105188994D01*
X86132231Y-105193278D01*
X86178145Y-105234619D01*
X86178150Y-105234623D01*
X86183056Y-105239040D01*
X86188772Y-105242340D01*
X86188776Y-105242343D01*
X86195237Y-105246073D01*
X86211533Y-105257273D01*
X86222470Y-105266129D01*
X86283421Y-105297185D01*
X86289215Y-105300331D01*
X86348444Y-105334527D01*
X86354726Y-105336568D01*
X86354728Y-105336569D01*
X86361826Y-105338875D01*
X86380092Y-105346440D01*
X86392630Y-105352829D01*
X86399006Y-105354538D01*
X86399010Y-105354539D01*
X86458685Y-105370529D01*
X86465010Y-105372402D01*
X86530072Y-105393542D01*
X86536640Y-105394232D01*
X86536644Y-105394233D01*
X86544061Y-105395012D01*
X86563508Y-105398616D01*
X86577096Y-105402257D01*
X86583695Y-105402603D01*
X86583696Y-105402603D01*
X86645385Y-105405836D01*
X86651960Y-105406353D01*
X86666222Y-105407852D01*
X86672390Y-105408500D01*
X86692925Y-105408500D01*
X86699519Y-105408673D01*
X86761217Y-105411907D01*
X86761222Y-105411907D01*
X86767809Y-105412252D01*
X86781707Y-105410051D01*
X86801416Y-105408500D01*
X90405500Y-105408500D01*
X90473621Y-105428502D01*
X90520114Y-105482158D01*
X90531500Y-105534500D01*
X90531500Y-110765812D01*
X90511498Y-110833933D01*
X90494595Y-110854907D01*
X90433802Y-110915700D01*
X90302477Y-111103251D01*
X90300154Y-111108233D01*
X90300151Y-111108238D01*
X90284195Y-111142457D01*
X90205716Y-111310757D01*
X90204294Y-111316065D01*
X90204293Y-111316067D01*
X90186231Y-111383475D01*
X90146457Y-111531913D01*
X90145978Y-111537389D01*
X90145977Y-111537394D01*
X90127749Y-111745750D01*
X90101886Y-111811869D01*
X90091323Y-111823864D01*
X89195592Y-112719595D01*
X89133280Y-112753621D01*
X89106497Y-112756500D01*
X81710856Y-112756500D01*
X81642735Y-112736498D01*
X81617667Y-112715304D01*
X81577433Y-112671087D01*
X81546383Y-112607244D01*
X81554778Y-112536745D01*
X81599954Y-112481977D01*
X81626398Y-112468308D01*
X81733054Y-112428324D01*
X81748649Y-112419786D01*
X81850724Y-112343285D01*
X81863285Y-112330724D01*
X81939786Y-112228649D01*
X81948324Y-112213054D01*
X81993478Y-112092606D01*
X81997105Y-112077351D01*
X82002631Y-112026486D01*
X82003000Y-112019672D01*
X82003000Y-111397115D01*
X81998525Y-111381876D01*
X81997135Y-111380671D01*
X81989452Y-111379000D01*
X79305116Y-111379000D01*
X79289877Y-111383475D01*
X79288672Y-111384865D01*
X79287001Y-111392548D01*
X79287001Y-112019669D01*
X79287371Y-112026490D01*
X79292895Y-112077352D01*
X79296521Y-112092604D01*
X79341676Y-112213054D01*
X79350214Y-112228649D01*
X79426715Y-112330724D01*
X79439276Y-112343285D01*
X79541351Y-112419786D01*
X79556946Y-112428324D01*
X79665827Y-112469142D01*
X79722591Y-112511784D01*
X79747291Y-112578345D01*
X79732083Y-112647694D01*
X79712691Y-112674175D01*
X79669287Y-112719595D01*
X79585629Y-112807138D01*
X79582715Y-112811410D01*
X79582714Y-112811411D01*
X79522386Y-112899849D01*
X79459743Y-112991680D01*
X79427905Y-113060270D01*
X79376735Y-113170507D01*
X79365688Y-113194305D01*
X79305989Y-113409570D01*
X79282251Y-113631695D01*
X79295110Y-113854715D01*
X79296247Y-113859761D01*
X79296248Y-113859767D01*
X79312834Y-113933363D01*
X79344222Y-114072639D01*
X79428266Y-114279616D01*
X79430965Y-114284020D01*
X79541060Y-114463679D01*
X79544987Y-114470088D01*
X79691250Y-114638938D01*
X79863126Y-114781632D01*
X79933595Y-114822811D01*
X79936445Y-114824476D01*
X79985169Y-114876114D01*
X79998240Y-114945897D01*
X79971509Y-115011669D01*
X79931055Y-115045027D01*
X79918607Y-115051507D01*
X79914474Y-115054610D01*
X79914471Y-115054612D01*
X79833681Y-115115271D01*
X79739965Y-115185635D01*
X79585629Y-115347138D01*
X79459743Y-115531680D01*
X79426901Y-115602432D01*
X79393869Y-115673595D01*
X79365688Y-115734305D01*
X79305989Y-115949570D01*
X79282251Y-116171695D01*
X79282548Y-116176848D01*
X79282548Y-116176851D01*
X79294530Y-116384664D01*
X79295110Y-116394715D01*
X79296247Y-116399761D01*
X79296248Y-116399767D01*
X79311225Y-116466221D01*
X79344222Y-116612639D01*
X79428266Y-116819616D01*
X79544987Y-117010088D01*
X79691250Y-117178938D01*
X79863126Y-117321632D01*
X79933595Y-117362811D01*
X79936445Y-117364476D01*
X79985169Y-117416114D01*
X79998240Y-117485897D01*
X79971509Y-117551669D01*
X79931055Y-117585027D01*
X79918607Y-117591507D01*
X79914474Y-117594610D01*
X79914471Y-117594612D01*
X79744100Y-117722530D01*
X79739965Y-117725635D01*
X79585629Y-117887138D01*
X79459743Y-118071680D01*
X79412716Y-118172992D01*
X79371921Y-118260878D01*
X79365688Y-118274305D01*
X79305989Y-118489570D01*
X79282251Y-118711695D01*
X79282548Y-118716848D01*
X79282548Y-118716851D01*
X79288011Y-118811590D01*
X79295110Y-118934715D01*
X79296247Y-118939761D01*
X79296248Y-118939767D01*
X79311621Y-119007979D01*
X79344222Y-119152639D01*
X79428266Y-119359616D01*
X79544987Y-119550088D01*
X79691250Y-119718938D01*
X79817717Y-119823933D01*
X79850920Y-119851498D01*
X79863126Y-119861632D01*
X80056000Y-119974338D01*
X80264692Y-120054030D01*
X80269760Y-120055061D01*
X80269763Y-120055062D01*
X80377017Y-120076883D01*
X80483597Y-120098567D01*
X80488772Y-120098757D01*
X80488774Y-120098757D01*
X80701673Y-120106564D01*
X80701677Y-120106564D01*
X80706837Y-120106753D01*
X80711957Y-120106097D01*
X80711959Y-120106097D01*
X80923288Y-120079025D01*
X80923289Y-120079025D01*
X80928416Y-120078368D01*
X80933366Y-120076883D01*
X81137429Y-120015661D01*
X81137434Y-120015659D01*
X81142384Y-120014174D01*
X81342994Y-119915896D01*
X81524860Y-119786173D01*
X81576875Y-119734340D01*
X81679435Y-119632137D01*
X81683096Y-119628489D01*
X81742594Y-119545689D01*
X81810435Y-119451277D01*
X81813453Y-119447077D01*
X81843899Y-119385475D01*
X81910136Y-119251453D01*
X81910137Y-119251451D01*
X81912430Y-119246811D01*
X81977370Y-119033069D01*
X82006529Y-118811590D01*
X82006611Y-118808240D01*
X82008074Y-118748365D01*
X82008074Y-118748361D01*
X82008156Y-118745000D01*
X81989852Y-118522361D01*
X81983114Y-118495534D01*
X81985920Y-118424593D01*
X82016224Y-118375747D01*
X84049139Y-116342832D01*
X84111451Y-116308806D01*
X84138234Y-116305927D01*
X86108622Y-116305927D01*
X86176743Y-116325929D01*
X86182683Y-116329991D01*
X86263275Y-116388545D01*
X86269303Y-116391229D01*
X86269305Y-116391230D01*
X86288480Y-116399767D01*
X86437739Y-116466221D01*
X86531140Y-116486074D01*
X86618083Y-116504555D01*
X86618088Y-116504555D01*
X86624540Y-116505927D01*
X86815514Y-116505927D01*
X86821966Y-116504555D01*
X86821971Y-116504555D01*
X86908914Y-116486074D01*
X87002315Y-116466221D01*
X87151574Y-116399767D01*
X87170749Y-116391230D01*
X87170751Y-116391229D01*
X87176779Y-116388545D01*
X87331280Y-116276293D01*
X87392559Y-116208236D01*
X87454648Y-116139279D01*
X87454649Y-116139278D01*
X87459067Y-116134371D01*
X87554554Y-115968983D01*
X87613569Y-115787355D01*
X87628541Y-115644903D01*
X87655554Y-115579246D01*
X87695686Y-115548297D01*
X87694999Y-115547107D01*
X87700722Y-115543803D01*
X87706752Y-115541118D01*
X87719085Y-115532158D01*
X87820465Y-115458500D01*
X87861253Y-115428866D01*
X87989040Y-115286944D01*
X88084527Y-115121556D01*
X88143542Y-114939928D01*
X88163504Y-114750000D01*
X88162814Y-114743432D01*
X88159581Y-114712669D01*
X88172354Y-114642831D01*
X88220856Y-114590985D01*
X88284891Y-114573500D01*
X89453583Y-114573500D01*
X89473292Y-114575051D01*
X89487190Y-114577252D01*
X89493777Y-114576907D01*
X89493782Y-114576907D01*
X89555480Y-114573673D01*
X89562074Y-114573500D01*
X89582610Y-114573500D01*
X89585882Y-114573156D01*
X89585884Y-114573156D01*
X89603042Y-114571353D01*
X89609616Y-114570836D01*
X89671308Y-114567603D01*
X89671312Y-114567602D01*
X89677903Y-114567257D01*
X89684284Y-114565547D01*
X89684286Y-114565547D01*
X89691491Y-114563617D01*
X89710925Y-114560015D01*
X89718354Y-114559234D01*
X89718363Y-114559232D01*
X89724928Y-114558542D01*
X89789997Y-114537400D01*
X89796299Y-114535533D01*
X89862370Y-114517829D01*
X89874908Y-114511440D01*
X89893174Y-114503875D01*
X89900272Y-114501569D01*
X89900274Y-114501568D01*
X89906556Y-114499527D01*
X89965785Y-114465331D01*
X89971579Y-114462185D01*
X90032530Y-114431129D01*
X90043467Y-114422273D01*
X90059763Y-114411073D01*
X90066224Y-114407343D01*
X90066228Y-114407340D01*
X90071944Y-114404040D01*
X90076850Y-114399623D01*
X90076855Y-114399619D01*
X90122769Y-114358278D01*
X90127784Y-114353994D01*
X90141177Y-114343148D01*
X90143741Y-114341072D01*
X90158256Y-114326557D01*
X90163041Y-114322016D01*
X90213866Y-114276253D01*
X90222140Y-114264865D01*
X90234981Y-114249832D01*
X90316405Y-114168408D01*
X90378717Y-114134382D01*
X90449532Y-114139447D01*
X90506368Y-114181994D01*
X90531179Y-114248514D01*
X90531500Y-114257503D01*
X90531500Y-118385812D01*
X90511498Y-118453933D01*
X90494595Y-118474907D01*
X90433802Y-118535700D01*
X90302477Y-118723251D01*
X90300154Y-118728233D01*
X90300151Y-118728238D01*
X90293899Y-118741646D01*
X90205716Y-118930757D01*
X90204294Y-118936065D01*
X90204293Y-118936067D01*
X90147881Y-119146598D01*
X90146457Y-119151913D01*
X90126502Y-119380000D01*
X90146457Y-119608087D01*
X90147880Y-119613399D01*
X90147881Y-119613402D01*
X90194979Y-119789171D01*
X90205716Y-119829243D01*
X90208039Y-119834224D01*
X90208039Y-119834225D01*
X90300151Y-120031762D01*
X90300154Y-120031767D01*
X90302477Y-120036749D01*
X90433802Y-120224300D01*
X90595700Y-120386198D01*
X90600208Y-120389355D01*
X90600211Y-120389357D01*
X90601581Y-120390316D01*
X90783251Y-120517523D01*
X90788233Y-120519846D01*
X90788238Y-120519849D01*
X90939878Y-120590559D01*
X90990757Y-120614284D01*
X90996065Y-120615706D01*
X90996067Y-120615707D01*
X91206598Y-120672119D01*
X91206600Y-120672119D01*
X91211913Y-120673543D01*
X91440000Y-120693498D01*
X91668087Y-120673543D01*
X91673400Y-120672119D01*
X91673402Y-120672119D01*
X91883933Y-120615707D01*
X91883935Y-120615706D01*
X91889243Y-120614284D01*
X91940122Y-120590559D01*
X92091762Y-120519849D01*
X92091767Y-120519846D01*
X92096749Y-120517523D01*
X92278419Y-120390316D01*
X92279789Y-120389357D01*
X92279792Y-120389355D01*
X92284300Y-120386198D01*
X92446198Y-120224300D01*
X92577523Y-120036749D01*
X92579846Y-120031767D01*
X92579849Y-120031762D01*
X92595805Y-119997543D01*
X92642722Y-119944258D01*
X92710999Y-119924797D01*
X92778959Y-119945339D01*
X92824195Y-119997543D01*
X92840151Y-120031762D01*
X92840154Y-120031767D01*
X92842477Y-120036749D01*
X92973802Y-120224300D01*
X93135700Y-120386198D01*
X93140208Y-120389355D01*
X93140211Y-120389357D01*
X93141581Y-120390316D01*
X93323251Y-120517523D01*
X93328233Y-120519846D01*
X93328238Y-120519849D01*
X93479878Y-120590559D01*
X93530757Y-120614284D01*
X93536065Y-120615706D01*
X93536067Y-120615707D01*
X93746598Y-120672119D01*
X93746600Y-120672119D01*
X93751913Y-120673543D01*
X93980000Y-120693498D01*
X94208087Y-120673543D01*
X94213400Y-120672119D01*
X94213402Y-120672119D01*
X94423933Y-120615707D01*
X94423935Y-120615706D01*
X94429243Y-120614284D01*
X94480122Y-120590559D01*
X94631762Y-120519849D01*
X94631767Y-120519846D01*
X94636749Y-120517523D01*
X94818419Y-120390316D01*
X94819789Y-120389357D01*
X94819792Y-120389355D01*
X94824300Y-120386198D01*
X94986198Y-120224300D01*
X95117523Y-120036749D01*
X95119846Y-120031767D01*
X95119849Y-120031762D01*
X95211961Y-119834225D01*
X95211961Y-119834224D01*
X95214284Y-119829243D01*
X95225022Y-119789171D01*
X95272119Y-119613402D01*
X95272120Y-119613399D01*
X95273543Y-119608087D01*
X95293498Y-119380000D01*
X95273556Y-119152064D01*
X95287545Y-119082460D01*
X95309982Y-119051988D01*
X98153735Y-116208236D01*
X101030528Y-113331443D01*
X101036793Y-113325589D01*
X101074664Y-113292552D01*
X101074665Y-113292551D01*
X101080385Y-113287561D01*
X101117136Y-113235271D01*
X101121028Y-113230029D01*
X101160476Y-113179718D01*
X101163600Y-113172799D01*
X101164988Y-113170507D01*
X101173357Y-113155835D01*
X101174622Y-113153475D01*
X101178990Y-113147261D01*
X101202203Y-113087723D01*
X101204759Y-113081642D01*
X101227918Y-113030352D01*
X101231045Y-113023427D01*
X101232430Y-113015954D01*
X101233234Y-113013388D01*
X101237855Y-112997165D01*
X101238520Y-112994573D01*
X101241282Y-112987491D01*
X101249622Y-112924139D01*
X101250654Y-112917623D01*
X101260911Y-112862281D01*
X101262295Y-112854814D01*
X101258709Y-112792620D01*
X101258500Y-112785367D01*
X101258500Y-100455660D01*
X101278502Y-100387539D01*
X101295405Y-100366565D01*
X105192449Y-96469522D01*
X105254761Y-96435496D01*
X105325577Y-96440561D01*
X105382412Y-96483108D01*
X105407065Y-96547635D01*
X105424022Y-96741463D01*
X105481560Y-96956196D01*
X105483882Y-96961177D01*
X105483883Y-96961178D01*
X105573186Y-97152689D01*
X105573189Y-97152694D01*
X105575512Y-97157676D01*
X105578668Y-97162183D01*
X105578669Y-97162185D01*
X105699861Y-97335265D01*
X105703023Y-97339781D01*
X105860219Y-97496977D01*
X105864727Y-97500134D01*
X105864730Y-97500136D01*
X105940495Y-97553187D01*
X106042323Y-97624488D01*
X106047305Y-97626811D01*
X106047310Y-97626814D01*
X106152373Y-97675805D01*
X106205658Y-97722722D01*
X106225119Y-97790999D01*
X106204577Y-97858959D01*
X106152373Y-97904195D01*
X106047311Y-97953186D01*
X106047306Y-97953189D01*
X106042324Y-97955512D01*
X106037817Y-97958668D01*
X106037815Y-97958669D01*
X105864730Y-98079864D01*
X105864727Y-98079866D01*
X105860219Y-98083023D01*
X105703023Y-98240219D01*
X105699866Y-98244727D01*
X105699864Y-98244730D01*
X105610147Y-98372860D01*
X105575512Y-98422324D01*
X105573189Y-98427306D01*
X105573186Y-98427311D01*
X105512552Y-98557341D01*
X105481560Y-98623804D01*
X105480138Y-98629112D01*
X105480137Y-98629114D01*
X105465773Y-98682721D01*
X105424022Y-98838537D01*
X105404647Y-99060000D01*
X105424022Y-99281463D01*
X105425446Y-99286776D01*
X105479499Y-99488503D01*
X105481560Y-99496196D01*
X105483882Y-99501177D01*
X105483883Y-99501178D01*
X105573186Y-99692689D01*
X105573189Y-99692694D01*
X105575512Y-99697676D01*
X105578668Y-99702183D01*
X105578669Y-99702185D01*
X105665456Y-99826129D01*
X105703023Y-99879781D01*
X105860219Y-100036977D01*
X105864729Y-100040135D01*
X105864735Y-100040140D01*
X105917770Y-100077275D01*
X105962099Y-100132732D01*
X105971500Y-100180488D01*
X105971500Y-118213122D01*
X105951498Y-118281243D01*
X105917771Y-118316335D01*
X105840211Y-118370643D01*
X105840208Y-118370645D01*
X105835700Y-118373802D01*
X105673802Y-118535700D01*
X105542477Y-118723251D01*
X105540154Y-118728233D01*
X105540151Y-118728238D01*
X105524195Y-118762457D01*
X105477278Y-118815742D01*
X105409001Y-118835203D01*
X105341041Y-118814661D01*
X105295805Y-118762457D01*
X105279849Y-118728238D01*
X105279846Y-118728233D01*
X105277523Y-118723251D01*
X105146198Y-118535700D01*
X104984300Y-118373802D01*
X104979792Y-118370645D01*
X104979789Y-118370643D01*
X104849333Y-118279297D01*
X104796749Y-118242477D01*
X104791767Y-118240154D01*
X104791762Y-118240151D01*
X104594225Y-118148039D01*
X104594224Y-118148039D01*
X104589243Y-118145716D01*
X104583935Y-118144294D01*
X104583933Y-118144293D01*
X104373402Y-118087881D01*
X104373400Y-118087881D01*
X104368087Y-118086457D01*
X104140000Y-118066502D01*
X103911913Y-118086457D01*
X103906600Y-118087881D01*
X103906598Y-118087881D01*
X103696067Y-118144293D01*
X103696065Y-118144294D01*
X103690757Y-118145716D01*
X103685776Y-118148039D01*
X103685775Y-118148039D01*
X103488238Y-118240151D01*
X103488233Y-118240154D01*
X103483251Y-118242477D01*
X103430667Y-118279297D01*
X103300211Y-118370643D01*
X103300208Y-118370645D01*
X103295700Y-118373802D01*
X103133802Y-118535700D01*
X103002477Y-118723251D01*
X103000154Y-118728233D01*
X103000151Y-118728238D01*
X102993899Y-118741646D01*
X102905716Y-118930757D01*
X102904294Y-118936065D01*
X102904293Y-118936067D01*
X102847881Y-119146598D01*
X102846457Y-119151913D01*
X102826502Y-119380000D01*
X102846457Y-119608087D01*
X102847880Y-119613399D01*
X102847881Y-119613402D01*
X102894979Y-119789171D01*
X102905716Y-119829243D01*
X102908039Y-119834224D01*
X102908039Y-119834225D01*
X103000151Y-120031762D01*
X103000154Y-120031767D01*
X103002477Y-120036749D01*
X103133802Y-120224300D01*
X103295700Y-120386198D01*
X103300208Y-120389355D01*
X103300211Y-120389357D01*
X103301581Y-120390316D01*
X103483251Y-120517523D01*
X103488233Y-120519846D01*
X103488238Y-120519849D01*
X103639878Y-120590559D01*
X103690757Y-120614284D01*
X103696065Y-120615706D01*
X103696067Y-120615707D01*
X103906598Y-120672119D01*
X103906600Y-120672119D01*
X103911913Y-120673543D01*
X104140000Y-120693498D01*
X104367935Y-120673556D01*
X104437539Y-120687545D01*
X104468011Y-120709982D01*
X104818557Y-121060528D01*
X104824411Y-121066793D01*
X104862439Y-121110385D01*
X104914729Y-121147136D01*
X104919971Y-121151028D01*
X104970282Y-121190476D01*
X104977201Y-121193600D01*
X104979493Y-121194988D01*
X104994165Y-121203357D01*
X104996525Y-121204622D01*
X105002739Y-121208990D01*
X105009818Y-121211750D01*
X105009820Y-121211751D01*
X105062275Y-121232202D01*
X105068344Y-121234753D01*
X105126573Y-121261045D01*
X105134046Y-121262430D01*
X105136612Y-121263234D01*
X105152835Y-121267855D01*
X105155427Y-121268520D01*
X105162509Y-121271282D01*
X105170044Y-121272274D01*
X105225861Y-121279622D01*
X105232377Y-121280654D01*
X105270770Y-121287770D01*
X105295186Y-121292295D01*
X105302766Y-121291858D01*
X105302767Y-121291858D01*
X105357380Y-121288709D01*
X105364633Y-121288500D01*
X113071088Y-121288500D01*
X113079658Y-121288792D01*
X113129776Y-121292209D01*
X113129780Y-121292209D01*
X113137352Y-121292725D01*
X113144829Y-121291420D01*
X113144830Y-121291420D01*
X113171308Y-121286799D01*
X113200303Y-121281738D01*
X113206821Y-121280777D01*
X113270242Y-121273102D01*
X113277343Y-121270419D01*
X113279952Y-121269778D01*
X113296262Y-121265315D01*
X113298798Y-121264550D01*
X113306284Y-121263243D01*
X113364800Y-121237556D01*
X113370904Y-121235065D01*
X113423548Y-121215173D01*
X113423549Y-121215172D01*
X113430656Y-121212487D01*
X113436919Y-121208183D01*
X113439285Y-121206946D01*
X113454097Y-121198701D01*
X113456351Y-121197368D01*
X113463305Y-121194315D01*
X113514002Y-121155413D01*
X113519332Y-121151541D01*
X113565720Y-121119661D01*
X113565725Y-121119656D01*
X113571981Y-121115357D01*
X113613436Y-121068829D01*
X113618416Y-121063554D01*
X113856565Y-120825405D01*
X113918877Y-120791379D01*
X113945660Y-120788500D01*
X115248134Y-120788500D01*
X115310316Y-120781745D01*
X115446705Y-120730615D01*
X115563261Y-120643261D01*
X115639597Y-120541406D01*
X116043423Y-120541406D01*
X116048704Y-120548461D01*
X116225080Y-120651527D01*
X116234363Y-120655974D01*
X116441003Y-120734883D01*
X116450901Y-120737759D01*
X116667653Y-120781857D01*
X116677883Y-120783076D01*
X116898914Y-120791182D01*
X116909223Y-120790714D01*
X117128623Y-120762608D01*
X117138688Y-120760468D01*
X117350557Y-120696905D01*
X117360152Y-120693144D01*
X117558778Y-120595838D01*
X117567636Y-120590559D01*
X117625097Y-120549572D01*
X117633497Y-120538874D01*
X117626510Y-120525721D01*
X116852811Y-119752021D01*
X116838868Y-119744408D01*
X116837034Y-119744539D01*
X116830420Y-119748790D01*
X116050180Y-120529031D01*
X116043423Y-120541406D01*
X115639597Y-120541406D01*
X115650615Y-120526705D01*
X115701745Y-120390316D01*
X115708500Y-120328134D01*
X115708500Y-120204480D01*
X115728502Y-120136359D01*
X115745405Y-120115384D01*
X116467979Y-119392811D01*
X116474356Y-119381132D01*
X117204408Y-119381132D01*
X117204539Y-119382966D01*
X117208790Y-119389580D01*
X117986307Y-120167096D01*
X117998313Y-120173652D01*
X118010052Y-120164684D01*
X118048010Y-120111859D01*
X118053321Y-120103020D01*
X118151318Y-119904737D01*
X118155117Y-119895142D01*
X118219415Y-119683517D01*
X118221594Y-119673436D01*
X118250702Y-119452338D01*
X118251221Y-119445663D01*
X118252744Y-119383364D01*
X118252550Y-119376646D01*
X118234279Y-119154400D01*
X118232596Y-119144238D01*
X118178710Y-118929708D01*
X118175389Y-118919953D01*
X118087193Y-118717118D01*
X118082315Y-118708020D01*
X118009224Y-118595038D01*
X117998538Y-118585835D01*
X117988973Y-118590238D01*
X117212021Y-119367189D01*
X117204408Y-119381132D01*
X116474356Y-119381132D01*
X116475592Y-119378868D01*
X116475461Y-119377034D01*
X116471210Y-119370420D01*
X115745405Y-118644616D01*
X115711380Y-118582303D01*
X115708500Y-118555520D01*
X115708500Y-118431866D01*
X115701745Y-118369684D01*
X115650615Y-118233295D01*
X115641184Y-118220711D01*
X116045508Y-118220711D01*
X116052251Y-118233040D01*
X116827189Y-119007979D01*
X116841132Y-119015592D01*
X116842966Y-119015461D01*
X116849580Y-119011210D01*
X117628994Y-118231795D01*
X117636011Y-118218944D01*
X117628237Y-118208274D01*
X117625902Y-118206430D01*
X117617320Y-118200729D01*
X117423678Y-118093833D01*
X117414272Y-118089606D01*
X117205772Y-118015772D01*
X117195809Y-118013140D01*
X116978047Y-117974350D01*
X116967796Y-117973381D01*
X116746616Y-117970679D01*
X116736332Y-117971399D01*
X116517693Y-118004855D01*
X116507666Y-118007244D01*
X116297426Y-118075961D01*
X116287916Y-118079958D01*
X116091725Y-118182089D01*
X116083007Y-118187578D01*
X116053961Y-118209386D01*
X116045508Y-118220711D01*
X115641184Y-118220711D01*
X115563261Y-118116739D01*
X115446705Y-118029385D01*
X115310316Y-117978255D01*
X115248134Y-117971500D01*
X113351866Y-117971500D01*
X113289684Y-117978255D01*
X113153295Y-118029385D01*
X113036739Y-118116739D01*
X112949385Y-118233295D01*
X112898255Y-118369684D01*
X112891500Y-118431866D01*
X112891500Y-119734340D01*
X112871498Y-119802461D01*
X112854595Y-119823435D01*
X112843435Y-119834595D01*
X112781123Y-119868621D01*
X112754340Y-119871500D01*
X108067168Y-119871500D01*
X107999047Y-119851498D01*
X107952554Y-119797842D01*
X107942450Y-119727568D01*
X107945461Y-119712888D01*
X107953331Y-119683517D01*
X107973543Y-119608087D01*
X107993498Y-119380000D01*
X107973543Y-119151913D01*
X107972119Y-119146598D01*
X107915707Y-118936067D01*
X107915706Y-118936065D01*
X107914284Y-118930757D01*
X107826101Y-118741646D01*
X107819849Y-118728238D01*
X107819846Y-118728233D01*
X107817523Y-118723251D01*
X107686198Y-118535700D01*
X107524300Y-118373802D01*
X107519792Y-118370645D01*
X107519789Y-118370643D01*
X107442229Y-118316335D01*
X107397901Y-118260878D01*
X107388500Y-118213122D01*
X107388500Y-109202670D01*
X145702160Y-109202670D01*
X145707887Y-109210320D01*
X145879042Y-109315205D01*
X145887837Y-109319687D01*
X146097988Y-109406734D01*
X146107373Y-109409783D01*
X146328554Y-109462885D01*
X146338301Y-109464428D01*
X146565070Y-109482275D01*
X146574930Y-109482275D01*
X146801699Y-109464428D01*
X146811446Y-109462885D01*
X147032627Y-109409783D01*
X147042012Y-109406734D01*
X147252163Y-109319687D01*
X147260958Y-109315205D01*
X147428445Y-109212568D01*
X147437400Y-109202670D01*
X152202160Y-109202670D01*
X152207887Y-109210320D01*
X152379042Y-109315205D01*
X152387837Y-109319687D01*
X152597988Y-109406734D01*
X152607373Y-109409783D01*
X152828554Y-109462885D01*
X152838301Y-109464428D01*
X153065070Y-109482275D01*
X153074930Y-109482275D01*
X153301699Y-109464428D01*
X153311446Y-109462885D01*
X153532627Y-109409783D01*
X153542012Y-109406734D01*
X153752163Y-109319687D01*
X153760958Y-109315205D01*
X153928445Y-109212568D01*
X153937907Y-109202110D01*
X153934124Y-109193334D01*
X153082812Y-108342022D01*
X153068868Y-108334408D01*
X153067035Y-108334539D01*
X153060420Y-108338790D01*
X152208920Y-109190290D01*
X152202160Y-109202670D01*
X147437400Y-109202670D01*
X147437907Y-109202110D01*
X147434124Y-109193334D01*
X146582812Y-108342022D01*
X146568868Y-108334408D01*
X146567035Y-108334539D01*
X146560420Y-108338790D01*
X145708920Y-109190290D01*
X145702160Y-109202670D01*
X107388500Y-109202670D01*
X107388500Y-107974930D01*
X145057725Y-107974930D01*
X145075572Y-108201699D01*
X145077115Y-108211446D01*
X145130217Y-108432627D01*
X145133266Y-108442012D01*
X145220313Y-108652163D01*
X145224795Y-108660958D01*
X145327432Y-108828445D01*
X145337890Y-108837907D01*
X145346666Y-108834124D01*
X146197978Y-107982812D01*
X146204356Y-107971132D01*
X146934408Y-107971132D01*
X146934539Y-107972965D01*
X146938790Y-107979580D01*
X147790290Y-108831080D01*
X147802670Y-108837840D01*
X147810320Y-108832113D01*
X147915205Y-108660958D01*
X147919687Y-108652163D01*
X148006734Y-108442012D01*
X148009783Y-108432627D01*
X148062885Y-108211446D01*
X148064428Y-108201699D01*
X148082275Y-107974930D01*
X151557725Y-107974930D01*
X151575572Y-108201699D01*
X151577115Y-108211446D01*
X151630217Y-108432627D01*
X151633266Y-108442012D01*
X151720313Y-108652163D01*
X151724795Y-108660958D01*
X151827432Y-108828445D01*
X151837890Y-108837907D01*
X151846666Y-108834124D01*
X152697978Y-107982812D01*
X152704356Y-107971132D01*
X153434408Y-107971132D01*
X153434539Y-107972965D01*
X153438790Y-107979580D01*
X154290290Y-108831080D01*
X154302670Y-108837840D01*
X154310320Y-108832113D01*
X154415205Y-108660958D01*
X154419687Y-108652163D01*
X154506734Y-108442012D01*
X154509783Y-108432627D01*
X154562885Y-108211446D01*
X154564428Y-108201699D01*
X154582275Y-107974930D01*
X154582275Y-107965070D01*
X154564428Y-107738301D01*
X154562885Y-107728554D01*
X154509783Y-107507373D01*
X154506734Y-107497988D01*
X154419687Y-107287837D01*
X154415205Y-107279042D01*
X154312568Y-107111555D01*
X154302110Y-107102093D01*
X154293334Y-107105876D01*
X153442022Y-107957188D01*
X153434408Y-107971132D01*
X152704356Y-107971132D01*
X152705592Y-107968868D01*
X152705461Y-107967035D01*
X152701210Y-107960420D01*
X151849710Y-107108920D01*
X151837330Y-107102160D01*
X151829680Y-107107887D01*
X151724795Y-107279042D01*
X151720313Y-107287837D01*
X151633266Y-107497988D01*
X151630217Y-107507373D01*
X151577115Y-107728554D01*
X151575572Y-107738301D01*
X151557725Y-107965070D01*
X151557725Y-107974930D01*
X148082275Y-107974930D01*
X148082275Y-107965070D01*
X148064428Y-107738301D01*
X148062885Y-107728554D01*
X148009783Y-107507373D01*
X148006734Y-107497988D01*
X147919687Y-107287837D01*
X147915205Y-107279042D01*
X147812568Y-107111555D01*
X147802110Y-107102093D01*
X147793334Y-107105876D01*
X146942022Y-107957188D01*
X146934408Y-107971132D01*
X146204356Y-107971132D01*
X146205592Y-107968868D01*
X146205461Y-107967035D01*
X146201210Y-107960420D01*
X145349710Y-107108920D01*
X145337330Y-107102160D01*
X145329680Y-107107887D01*
X145224795Y-107279042D01*
X145220313Y-107287837D01*
X145133266Y-107497988D01*
X145130217Y-107507373D01*
X145077115Y-107728554D01*
X145075572Y-107738301D01*
X145057725Y-107965070D01*
X145057725Y-107974930D01*
X107388500Y-107974930D01*
X107388500Y-106737890D01*
X145702093Y-106737890D01*
X145705876Y-106746666D01*
X146557188Y-107597978D01*
X146571132Y-107605592D01*
X146572965Y-107605461D01*
X146579580Y-107601210D01*
X147431080Y-106749710D01*
X147437534Y-106737890D01*
X152202093Y-106737890D01*
X152205876Y-106746666D01*
X153057188Y-107597978D01*
X153071132Y-107605592D01*
X153072965Y-107605461D01*
X153079580Y-107601210D01*
X153931080Y-106749710D01*
X153937840Y-106737330D01*
X153932113Y-106729680D01*
X153760958Y-106624795D01*
X153752163Y-106620313D01*
X153542012Y-106533266D01*
X153532627Y-106530217D01*
X153311446Y-106477115D01*
X153301699Y-106475572D01*
X153074930Y-106457725D01*
X153065070Y-106457725D01*
X152838301Y-106475572D01*
X152828554Y-106477115D01*
X152607373Y-106530217D01*
X152597988Y-106533266D01*
X152387837Y-106620313D01*
X152379042Y-106624795D01*
X152211555Y-106727432D01*
X152202093Y-106737890D01*
X147437534Y-106737890D01*
X147437840Y-106737330D01*
X147432113Y-106729680D01*
X147260958Y-106624795D01*
X147252163Y-106620313D01*
X147042012Y-106533266D01*
X147032627Y-106530217D01*
X146811446Y-106477115D01*
X146801699Y-106475572D01*
X146574930Y-106457725D01*
X146565070Y-106457725D01*
X146338301Y-106475572D01*
X146328554Y-106477115D01*
X146107373Y-106530217D01*
X146097988Y-106533266D01*
X145887837Y-106620313D01*
X145879042Y-106624795D01*
X145711555Y-106727432D01*
X145702093Y-106737890D01*
X107388500Y-106737890D01*
X107388500Y-100180488D01*
X107408502Y-100112367D01*
X107442230Y-100077275D01*
X107495265Y-100040140D01*
X107495271Y-100040135D01*
X107499781Y-100036977D01*
X107656977Y-99879781D01*
X107694545Y-99826129D01*
X107781331Y-99702185D01*
X107781332Y-99702183D01*
X107784488Y-99697676D01*
X107786811Y-99692694D01*
X107786814Y-99692689D01*
X107876117Y-99501178D01*
X107876118Y-99501177D01*
X107878440Y-99496196D01*
X107880502Y-99488503D01*
X107934554Y-99286776D01*
X107935978Y-99281463D01*
X107955353Y-99060000D01*
X107935978Y-98838537D01*
X107894227Y-98682721D01*
X107879863Y-98629114D01*
X107879862Y-98629112D01*
X107878440Y-98623804D01*
X107847448Y-98557341D01*
X107786814Y-98427311D01*
X107786811Y-98427306D01*
X107784488Y-98422324D01*
X107749853Y-98372860D01*
X107660136Y-98244730D01*
X107660134Y-98244727D01*
X107656977Y-98240219D01*
X107499781Y-98083023D01*
X107495273Y-98079866D01*
X107495270Y-98079864D01*
X107379920Y-97999095D01*
X107317677Y-97955512D01*
X107312695Y-97953189D01*
X107312690Y-97953186D01*
X107207627Y-97904195D01*
X107154342Y-97857278D01*
X107134881Y-97789001D01*
X107155423Y-97721041D01*
X107207627Y-97675805D01*
X107312690Y-97626814D01*
X107312695Y-97626811D01*
X107317677Y-97624488D01*
X107419505Y-97553187D01*
X107495270Y-97500136D01*
X107495273Y-97500134D01*
X107499781Y-97496977D01*
X107656977Y-97339781D01*
X107660140Y-97335265D01*
X107781331Y-97162185D01*
X107781332Y-97162183D01*
X107784488Y-97157676D01*
X107786811Y-97152694D01*
X107786814Y-97152689D01*
X107876117Y-96961178D01*
X107876118Y-96961177D01*
X107878440Y-96956196D01*
X107935978Y-96741463D01*
X107955353Y-96520000D01*
X107935978Y-96298537D01*
X107878440Y-96083804D01*
X107876117Y-96078822D01*
X107786814Y-95887311D01*
X107786811Y-95887306D01*
X107784488Y-95882324D01*
X107781331Y-95877815D01*
X107660136Y-95704730D01*
X107660134Y-95704727D01*
X107656977Y-95700219D01*
X107499781Y-95543023D01*
X107495273Y-95539866D01*
X107495270Y-95539864D01*
X107360808Y-95445713D01*
X107317677Y-95415512D01*
X107312695Y-95413189D01*
X107312690Y-95413186D01*
X107207627Y-95364195D01*
X107154342Y-95317278D01*
X107134881Y-95249001D01*
X107155423Y-95181041D01*
X107207627Y-95135805D01*
X107312690Y-95086814D01*
X107312695Y-95086811D01*
X107317677Y-95084488D01*
X107480367Y-94970571D01*
X107495270Y-94960136D01*
X107495273Y-94960134D01*
X107499781Y-94956977D01*
X107656977Y-94799781D01*
X107698834Y-94740004D01*
X107781331Y-94622185D01*
X107781332Y-94622183D01*
X107784488Y-94617676D01*
X107786811Y-94612694D01*
X107786814Y-94612689D01*
X107876117Y-94421178D01*
X107876118Y-94421177D01*
X107878440Y-94416196D01*
X107935978Y-94201463D01*
X107955353Y-93980000D01*
X107935978Y-93758537D01*
X107878440Y-93543804D01*
X107857339Y-93498552D01*
X107786814Y-93347311D01*
X107786811Y-93347306D01*
X107784488Y-93342324D01*
X107754215Y-93299089D01*
X107660136Y-93164730D01*
X107660134Y-93164727D01*
X107656977Y-93160219D01*
X107499781Y-93003023D01*
X107495273Y-92999866D01*
X107495270Y-92999864D01*
X107381049Y-92919886D01*
X107317677Y-92875512D01*
X107312695Y-92873189D01*
X107312690Y-92873186D01*
X107207627Y-92824195D01*
X107154342Y-92777278D01*
X107134881Y-92709001D01*
X107155423Y-92641041D01*
X107207627Y-92595805D01*
X107312690Y-92546814D01*
X107312695Y-92546811D01*
X107317677Y-92544488D01*
X107448909Y-92452598D01*
X107495270Y-92420136D01*
X107495273Y-92420134D01*
X107499781Y-92416977D01*
X107656977Y-92259781D01*
X107701144Y-92196705D01*
X107781331Y-92082185D01*
X107781332Y-92082183D01*
X107784488Y-92077676D01*
X107786811Y-92072694D01*
X107786814Y-92072689D01*
X107876117Y-91881178D01*
X107876118Y-91881177D01*
X107878440Y-91876196D01*
X107935978Y-91661463D01*
X107955353Y-91440000D01*
X107935978Y-91218537D01*
X107878440Y-91003804D01*
X107845305Y-90932746D01*
X107786814Y-90807311D01*
X107786811Y-90807306D01*
X107784488Y-90802324D01*
X107759175Y-90766173D01*
X107660136Y-90624730D01*
X107660134Y-90624727D01*
X107656977Y-90620219D01*
X107499781Y-90463023D01*
X107495273Y-90459866D01*
X107495270Y-90459864D01*
X107407589Y-90398469D01*
X107317677Y-90335512D01*
X107312695Y-90333189D01*
X107312690Y-90333186D01*
X107222217Y-90290998D01*
X107207627Y-90284195D01*
X107154342Y-90237278D01*
X107134881Y-90169001D01*
X107155423Y-90101041D01*
X107207627Y-90055805D01*
X107216062Y-90051872D01*
X107242778Y-90039414D01*
X107312690Y-90006814D01*
X107312695Y-90006811D01*
X107317677Y-90004488D01*
X107463615Y-89902301D01*
X107495270Y-89880136D01*
X107495273Y-89880134D01*
X107499781Y-89876977D01*
X107656977Y-89719781D01*
X107669788Y-89701486D01*
X107781331Y-89542185D01*
X107781332Y-89542183D01*
X107784488Y-89537676D01*
X107786811Y-89532694D01*
X107786814Y-89532689D01*
X107876117Y-89341178D01*
X107876118Y-89341177D01*
X107878440Y-89336196D01*
X107935978Y-89121463D01*
X107955353Y-88900000D01*
X107935978Y-88678537D01*
X107878440Y-88463804D01*
X107876117Y-88458822D01*
X107786814Y-88267311D01*
X107786811Y-88267306D01*
X107784488Y-88262324D01*
X107773479Y-88246601D01*
X107660136Y-88084730D01*
X107660134Y-88084727D01*
X107656977Y-88080219D01*
X107499781Y-87923023D01*
X107495273Y-87919866D01*
X107495270Y-87919864D01*
X107389937Y-87846109D01*
X107317677Y-87795512D01*
X107312695Y-87793189D01*
X107312690Y-87793186D01*
X107207627Y-87744195D01*
X107154342Y-87697278D01*
X107134881Y-87629001D01*
X107155423Y-87561041D01*
X107207627Y-87515805D01*
X107312690Y-87466814D01*
X107312695Y-87466811D01*
X107317677Y-87464488D01*
X107446800Y-87374075D01*
X107495270Y-87340136D01*
X107495273Y-87340134D01*
X107499781Y-87336977D01*
X107656977Y-87179781D01*
X107660140Y-87175265D01*
X107781331Y-87002185D01*
X107781332Y-87002183D01*
X107784488Y-86997676D01*
X107786811Y-86992694D01*
X107786814Y-86992689D01*
X107876117Y-86801178D01*
X107876118Y-86801177D01*
X107878440Y-86796196D01*
X107935978Y-86581463D01*
X107955353Y-86360000D01*
X107935978Y-86138537D01*
X107878440Y-85923804D01*
X107823173Y-85805283D01*
X107786814Y-85727311D01*
X107786811Y-85727306D01*
X107784488Y-85722324D01*
X107707031Y-85611703D01*
X107660136Y-85544730D01*
X107660134Y-85544727D01*
X107656977Y-85540219D01*
X107499781Y-85383023D01*
X107495273Y-85379866D01*
X107495270Y-85379864D01*
X107419505Y-85326813D01*
X107317677Y-85255512D01*
X107312695Y-85253189D01*
X107312690Y-85253186D01*
X107207035Y-85203919D01*
X107153750Y-85157002D01*
X107134289Y-85088725D01*
X107154831Y-85020765D01*
X107207035Y-84975529D01*
X107312445Y-84926376D01*
X107321931Y-84920898D01*
X107365764Y-84890207D01*
X107374139Y-84879729D01*
X107367071Y-84866281D01*
X106692812Y-84192022D01*
X106678868Y-84184408D01*
X106677035Y-84184539D01*
X106670420Y-84188790D01*
X105992207Y-84867003D01*
X105985777Y-84878777D01*
X105995074Y-84890793D01*
X106038069Y-84920898D01*
X106047555Y-84926376D01*
X106152965Y-84975529D01*
X106206250Y-85022446D01*
X106225711Y-85090723D01*
X106205169Y-85158683D01*
X106152965Y-85203919D01*
X106047311Y-85253186D01*
X106047306Y-85253189D01*
X106042324Y-85255512D01*
X106037817Y-85258668D01*
X106037815Y-85258669D01*
X105864730Y-85379864D01*
X105864727Y-85379866D01*
X105860219Y-85383023D01*
X105703023Y-85540219D01*
X105699866Y-85544727D01*
X105699864Y-85544730D01*
X105652969Y-85611703D01*
X105575512Y-85722324D01*
X105573189Y-85727306D01*
X105573186Y-85727311D01*
X105536827Y-85805283D01*
X105481560Y-85923804D01*
X105424022Y-86138537D01*
X105404647Y-86360000D01*
X105424022Y-86581463D01*
X105481560Y-86796196D01*
X105483882Y-86801177D01*
X105483883Y-86801178D01*
X105573186Y-86992689D01*
X105573189Y-86992694D01*
X105575512Y-86997676D01*
X105578668Y-87002183D01*
X105578669Y-87002185D01*
X105699861Y-87175265D01*
X105703023Y-87179781D01*
X105860219Y-87336977D01*
X105864727Y-87340134D01*
X105864730Y-87340136D01*
X105913200Y-87374075D01*
X106042323Y-87464488D01*
X106047305Y-87466811D01*
X106047310Y-87466814D01*
X106152373Y-87515805D01*
X106205658Y-87562722D01*
X106225119Y-87630999D01*
X106204577Y-87698959D01*
X106152373Y-87744195D01*
X106047311Y-87793186D01*
X106047306Y-87793189D01*
X106042324Y-87795512D01*
X106037817Y-87798668D01*
X106037815Y-87798669D01*
X105864730Y-87919864D01*
X105864727Y-87919866D01*
X105860219Y-87923023D01*
X105703023Y-88080219D01*
X105699866Y-88084727D01*
X105699864Y-88084730D01*
X105586521Y-88246601D01*
X105575512Y-88262324D01*
X105573189Y-88267306D01*
X105573186Y-88267311D01*
X105483883Y-88458822D01*
X105481560Y-88463804D01*
X105424022Y-88678537D01*
X105404647Y-88900000D01*
X105420425Y-89080342D01*
X105421520Y-89092859D01*
X105407531Y-89162464D01*
X105385094Y-89192936D01*
X99269480Y-95308550D01*
X99263215Y-95314404D01*
X99219615Y-95352439D01*
X99182872Y-95404719D01*
X99178939Y-95410014D01*
X99139524Y-95460282D01*
X99136401Y-95467198D01*
X99135017Y-95469484D01*
X99126643Y-95484165D01*
X99125378Y-95486525D01*
X99121010Y-95492739D01*
X99118250Y-95499818D01*
X99118249Y-95499820D01*
X99097798Y-95552275D01*
X99095247Y-95558344D01*
X99068955Y-95616573D01*
X99067571Y-95624040D01*
X99066770Y-95626595D01*
X99062141Y-95642848D01*
X99061478Y-95645428D01*
X99058718Y-95652509D01*
X99057727Y-95660040D01*
X99057726Y-95660042D01*
X99050379Y-95715852D01*
X99049348Y-95722359D01*
X99037704Y-95785186D01*
X99038141Y-95792766D01*
X99038141Y-95792767D01*
X99041291Y-95847392D01*
X99041500Y-95854646D01*
X99041500Y-104631256D01*
X99021498Y-104699377D01*
X99017436Y-104705317D01*
X99015379Y-104708148D01*
X99010960Y-104713056D01*
X98915473Y-104878444D01*
X98856458Y-105060072D01*
X98855768Y-105066633D01*
X98855768Y-105066635D01*
X98844266Y-105176072D01*
X98836496Y-105250000D01*
X98837186Y-105256565D01*
X98853119Y-105408156D01*
X98856458Y-105439928D01*
X98915473Y-105621556D01*
X99010960Y-105786944D01*
X99138747Y-105928866D01*
X99293248Y-106041118D01*
X99299276Y-106043802D01*
X99299278Y-106043803D01*
X99461681Y-106116109D01*
X99467712Y-106118794D01*
X99561112Y-106138647D01*
X99648056Y-106157128D01*
X99648061Y-106157128D01*
X99654513Y-106158500D01*
X99715500Y-106158500D01*
X99783621Y-106178502D01*
X99830114Y-106232158D01*
X99841500Y-106284500D01*
X99841500Y-112464340D01*
X99821498Y-112532461D01*
X99804595Y-112553435D01*
X94308012Y-118050018D01*
X94245700Y-118084044D01*
X94207937Y-118086444D01*
X93980000Y-118066502D01*
X93751913Y-118086457D01*
X93746600Y-118087881D01*
X93746598Y-118087881D01*
X93536067Y-118144293D01*
X93536065Y-118144294D01*
X93530757Y-118145716D01*
X93525776Y-118148039D01*
X93525775Y-118148039D01*
X93328238Y-118240151D01*
X93328233Y-118240154D01*
X93323251Y-118242477D01*
X93270667Y-118279297D01*
X93140211Y-118370643D01*
X93140208Y-118370645D01*
X93135700Y-118373802D01*
X92973802Y-118535700D01*
X92842477Y-118723251D01*
X92840154Y-118728233D01*
X92840151Y-118728238D01*
X92824195Y-118762457D01*
X92777278Y-118815742D01*
X92709001Y-118835203D01*
X92641041Y-118814661D01*
X92595805Y-118762457D01*
X92579849Y-118728238D01*
X92579846Y-118728233D01*
X92577523Y-118723251D01*
X92446198Y-118535700D01*
X92385405Y-118474907D01*
X92351379Y-118412595D01*
X92348500Y-118385812D01*
X92348500Y-114784500D01*
X92368502Y-114716379D01*
X92422158Y-114669886D01*
X92474500Y-114658500D01*
X92534987Y-114658500D01*
X92541439Y-114657128D01*
X92541444Y-114657128D01*
X92645399Y-114635031D01*
X92721788Y-114618794D01*
X92727819Y-114616109D01*
X92890222Y-114543803D01*
X92890224Y-114543802D01*
X92896252Y-114541118D01*
X92928307Y-114517829D01*
X92994016Y-114470088D01*
X93050753Y-114428866D01*
X93066774Y-114411073D01*
X93174121Y-114291852D01*
X93174122Y-114291851D01*
X93178540Y-114286944D01*
X93274027Y-114121556D01*
X93333042Y-113939928D01*
X93337950Y-113893230D01*
X93364963Y-113827573D01*
X93374165Y-113817305D01*
X94098772Y-113092698D01*
X94161084Y-113058672D01*
X94176885Y-113056273D01*
X94185115Y-113055553D01*
X94208087Y-113053543D01*
X94345748Y-113016657D01*
X94423933Y-112995707D01*
X94423935Y-112995706D01*
X94429243Y-112994284D01*
X94434225Y-112991961D01*
X94631762Y-112899849D01*
X94631767Y-112899846D01*
X94636749Y-112897523D01*
X94796924Y-112785367D01*
X94819789Y-112769357D01*
X94819792Y-112769355D01*
X94824300Y-112766198D01*
X94986198Y-112604300D01*
X95117523Y-112416749D01*
X95119846Y-112411767D01*
X95119849Y-112411762D01*
X95211961Y-112214225D01*
X95211961Y-112214224D01*
X95214284Y-112209243D01*
X95249625Y-112077352D01*
X95272119Y-111993402D01*
X95272119Y-111993400D01*
X95273543Y-111988087D01*
X95293498Y-111760000D01*
X95273543Y-111531913D01*
X95233769Y-111383475D01*
X95215707Y-111316067D01*
X95215706Y-111316065D01*
X95214284Y-111310757D01*
X95135805Y-111142457D01*
X95119849Y-111108238D01*
X95119846Y-111108233D01*
X95117523Y-111103251D01*
X94986198Y-110915700D01*
X94824300Y-110753802D01*
X94819792Y-110750645D01*
X94819789Y-110750643D01*
X94741611Y-110695902D01*
X94636749Y-110622477D01*
X94631767Y-110620154D01*
X94631762Y-110620151D01*
X94434225Y-110528039D01*
X94434224Y-110528039D01*
X94429243Y-110525716D01*
X94423935Y-110524294D01*
X94423933Y-110524293D01*
X94213402Y-110467881D01*
X94213400Y-110467881D01*
X94208087Y-110466457D01*
X93980000Y-110446502D01*
X93751913Y-110466457D01*
X93746600Y-110467881D01*
X93746598Y-110467881D01*
X93536067Y-110524293D01*
X93536065Y-110524294D01*
X93530757Y-110525716D01*
X93525776Y-110528039D01*
X93525775Y-110528039D01*
X93328238Y-110620151D01*
X93328233Y-110620154D01*
X93323251Y-110622477D01*
X93218389Y-110695902D01*
X93140211Y-110750643D01*
X93140208Y-110750645D01*
X93135700Y-110753802D01*
X92973802Y-110915700D01*
X92842477Y-111103251D01*
X92840154Y-111108233D01*
X92840151Y-111108238D01*
X92824195Y-111142457D01*
X92777278Y-111195742D01*
X92709001Y-111215203D01*
X92641041Y-111194661D01*
X92595805Y-111142457D01*
X92579849Y-111108238D01*
X92579846Y-111108233D01*
X92577523Y-111103251D01*
X92446198Y-110915700D01*
X92385405Y-110854907D01*
X92351379Y-110792595D01*
X92348500Y-110765812D01*
X92348500Y-104568503D01*
X92368502Y-104500382D01*
X92385405Y-104479408D01*
X93919408Y-102945405D01*
X93981720Y-102911379D01*
X94008503Y-102908500D01*
X94828134Y-102908500D01*
X94890316Y-102901745D01*
X95026705Y-102850615D01*
X95110771Y-102787611D01*
X95136078Y-102768645D01*
X95136081Y-102768642D01*
X95143261Y-102763261D01*
X95148642Y-102756081D01*
X95154993Y-102749730D01*
X95157135Y-102751872D01*
X95201846Y-102718436D01*
X95272664Y-102713406D01*
X95314035Y-102731523D01*
X95314232Y-102731182D01*
X95317298Y-102732952D01*
X95318090Y-102733299D01*
X95318989Y-102733929D01*
X95328489Y-102739414D01*
X95525947Y-102831490D01*
X95536239Y-102835236D01*
X95746688Y-102891625D01*
X95757481Y-102893528D01*
X95974525Y-102912517D01*
X95985475Y-102912517D01*
X96202519Y-102893528D01*
X96213312Y-102891625D01*
X96423761Y-102835236D01*
X96434053Y-102831490D01*
X96631511Y-102739414D01*
X96641006Y-102733931D01*
X96693048Y-102697491D01*
X96701424Y-102687012D01*
X96694356Y-102673566D01*
X95709885Y-101689095D01*
X95675859Y-101626783D01*
X95677694Y-101601132D01*
X96344408Y-101601132D01*
X96344539Y-101602965D01*
X96348790Y-101609580D01*
X97054287Y-102315077D01*
X97066062Y-102321507D01*
X97078077Y-102312211D01*
X97113931Y-102261006D01*
X97119414Y-102251511D01*
X97211490Y-102054053D01*
X97215236Y-102043761D01*
X97271625Y-101833312D01*
X97273528Y-101822519D01*
X97292517Y-101605475D01*
X97292517Y-101594525D01*
X97273528Y-101377481D01*
X97271625Y-101366688D01*
X97215236Y-101156239D01*
X97211490Y-101145947D01*
X97119414Y-100948489D01*
X97113931Y-100938994D01*
X97077491Y-100886952D01*
X97067012Y-100878576D01*
X97053566Y-100885644D01*
X96352022Y-101587188D01*
X96344408Y-101601132D01*
X95677694Y-101601132D01*
X95680924Y-101555968D01*
X95709885Y-101510905D01*
X96695077Y-100525713D01*
X96701507Y-100513938D01*
X96692211Y-100501923D01*
X96641006Y-100466069D01*
X96631511Y-100460586D01*
X96434053Y-100368510D01*
X96423761Y-100364764D01*
X96213312Y-100308375D01*
X96202519Y-100306472D01*
X95985475Y-100287483D01*
X95974525Y-100287483D01*
X95757481Y-100306472D01*
X95746688Y-100308375D01*
X95536239Y-100364764D01*
X95525947Y-100368510D01*
X95328489Y-100460586D01*
X95318989Y-100466071D01*
X95318090Y-100466701D01*
X95317630Y-100466856D01*
X95314232Y-100468818D01*
X95313838Y-100468135D01*
X95250816Y-100489388D01*
X95181956Y-100472102D01*
X95156197Y-100449066D01*
X95154993Y-100450270D01*
X95148642Y-100443919D01*
X95143261Y-100436739D01*
X95136081Y-100431358D01*
X95136078Y-100431355D01*
X95047225Y-100364764D01*
X95026705Y-100349385D01*
X94989275Y-100335353D01*
X94970270Y-100328228D01*
X94913505Y-100285586D01*
X94888806Y-100219024D01*
X94888500Y-100210246D01*
X94888500Y-90289754D01*
X94908502Y-90221633D01*
X94962158Y-90175140D01*
X94970270Y-90171772D01*
X95018297Y-90153767D01*
X95026705Y-90150615D01*
X95075774Y-90113840D01*
X95136078Y-90068645D01*
X95136081Y-90068642D01*
X95143261Y-90063261D01*
X95148642Y-90056081D01*
X95154993Y-90049730D01*
X95157135Y-90051872D01*
X95201846Y-90018436D01*
X95272664Y-90013406D01*
X95314035Y-90031523D01*
X95314232Y-90031182D01*
X95317298Y-90032952D01*
X95318090Y-90033299D01*
X95318989Y-90033929D01*
X95328489Y-90039414D01*
X95525947Y-90131490D01*
X95536239Y-90135236D01*
X95746688Y-90191625D01*
X95757481Y-90193528D01*
X95974525Y-90212517D01*
X95985475Y-90212517D01*
X96202519Y-90193528D01*
X96213312Y-90191625D01*
X96423761Y-90135236D01*
X96434053Y-90131490D01*
X96631511Y-90039414D01*
X96641006Y-90033931D01*
X96693048Y-89997491D01*
X96701424Y-89987012D01*
X96694356Y-89973566D01*
X95709885Y-88989095D01*
X95675859Y-88926783D01*
X95677694Y-88901132D01*
X96344408Y-88901132D01*
X96344539Y-88902965D01*
X96348790Y-88909580D01*
X97054287Y-89615077D01*
X97066062Y-89621507D01*
X97078077Y-89612211D01*
X97113931Y-89561006D01*
X97119414Y-89551511D01*
X97211490Y-89354053D01*
X97215236Y-89343761D01*
X97271625Y-89133312D01*
X97273528Y-89122519D01*
X97292517Y-88905475D01*
X97292517Y-88894525D01*
X97273528Y-88677481D01*
X97271625Y-88666688D01*
X97215236Y-88456239D01*
X97211490Y-88445947D01*
X97119414Y-88248489D01*
X97113931Y-88238994D01*
X97077491Y-88186952D01*
X97067012Y-88178576D01*
X97053566Y-88185644D01*
X96352022Y-88887188D01*
X96344408Y-88901132D01*
X95677694Y-88901132D01*
X95680924Y-88855968D01*
X95709885Y-88810905D01*
X96695077Y-87825713D01*
X96701507Y-87813938D01*
X96692211Y-87801923D01*
X96640998Y-87766063D01*
X96629624Y-87759496D01*
X96580631Y-87708113D01*
X96567196Y-87638399D01*
X96593583Y-87572489D01*
X96603530Y-87561283D01*
X100339338Y-83825475D01*
X105405628Y-83825475D01*
X105424038Y-84035896D01*
X105425941Y-84046691D01*
X105480609Y-84250715D01*
X105484355Y-84261007D01*
X105573623Y-84452441D01*
X105579103Y-84461932D01*
X105609794Y-84505765D01*
X105620271Y-84514140D01*
X105633718Y-84507072D01*
X106307978Y-83832812D01*
X106314356Y-83821132D01*
X107044408Y-83821132D01*
X107044539Y-83822965D01*
X107048790Y-83829580D01*
X107727003Y-84507793D01*
X107738777Y-84514223D01*
X107750793Y-84504926D01*
X107780897Y-84461932D01*
X107786377Y-84452441D01*
X107875645Y-84261007D01*
X107879391Y-84250715D01*
X107934059Y-84046691D01*
X107935962Y-84035896D01*
X107954372Y-83825475D01*
X107954372Y-83814525D01*
X107935962Y-83604104D01*
X107934059Y-83593309D01*
X107879391Y-83389285D01*
X107875645Y-83378993D01*
X107786377Y-83187559D01*
X107780897Y-83178068D01*
X107750206Y-83134235D01*
X107739729Y-83125860D01*
X107726282Y-83132928D01*
X107052022Y-83807188D01*
X107044408Y-83821132D01*
X106314356Y-83821132D01*
X106315592Y-83818868D01*
X106315461Y-83817035D01*
X106311210Y-83810420D01*
X105632997Y-83132207D01*
X105621223Y-83125777D01*
X105609207Y-83135074D01*
X105579103Y-83178068D01*
X105573623Y-83187559D01*
X105484355Y-83378993D01*
X105480609Y-83389285D01*
X105425941Y-83593309D01*
X105424038Y-83604104D01*
X105405628Y-83814525D01*
X105405628Y-83825475D01*
X100339338Y-83825475D01*
X103301408Y-80863405D01*
X103363720Y-80829379D01*
X103390503Y-80826500D01*
X105321990Y-80826500D01*
X105390111Y-80846502D01*
X105436604Y-80900158D01*
X105446708Y-80970432D01*
X105443696Y-80985112D01*
X105425447Y-81053216D01*
X105425446Y-81053224D01*
X105424022Y-81058537D01*
X105404647Y-81280000D01*
X105424022Y-81501463D01*
X105481560Y-81716196D01*
X105483882Y-81721177D01*
X105483883Y-81721178D01*
X105573186Y-81912689D01*
X105573189Y-81912694D01*
X105575512Y-81917676D01*
X105578668Y-81922183D01*
X105578669Y-81922185D01*
X105615107Y-81974223D01*
X105703023Y-82099781D01*
X105860219Y-82256977D01*
X105864727Y-82260134D01*
X105864730Y-82260136D01*
X105940495Y-82313187D01*
X106042323Y-82384488D01*
X106047305Y-82386811D01*
X106047310Y-82386814D01*
X106152965Y-82436081D01*
X106206250Y-82482998D01*
X106225711Y-82551275D01*
X106205169Y-82619235D01*
X106152965Y-82664471D01*
X106047559Y-82713623D01*
X106038068Y-82719103D01*
X105994235Y-82749794D01*
X105985860Y-82760271D01*
X105992928Y-82773718D01*
X106667188Y-83447978D01*
X106681132Y-83455592D01*
X106682965Y-83455461D01*
X106689580Y-83451210D01*
X107367793Y-82772997D01*
X107374223Y-82761223D01*
X107364926Y-82749207D01*
X107321931Y-82719102D01*
X107312445Y-82713624D01*
X107207035Y-82664471D01*
X107153750Y-82617554D01*
X107134289Y-82549277D01*
X107154831Y-82481317D01*
X107207035Y-82436081D01*
X107312690Y-82386814D01*
X107312695Y-82386811D01*
X107317677Y-82384488D01*
X107419505Y-82313187D01*
X107495270Y-82260136D01*
X107495273Y-82260134D01*
X107499781Y-82256977D01*
X107656977Y-82099781D01*
X107744894Y-81974223D01*
X107781331Y-81922185D01*
X107781332Y-81922183D01*
X107784488Y-81917676D01*
X107786811Y-81912694D01*
X107786814Y-81912689D01*
X107876117Y-81721178D01*
X107876118Y-81721177D01*
X107878440Y-81716196D01*
X107935978Y-81501463D01*
X107955353Y-81280000D01*
X107935978Y-81058537D01*
X107934554Y-81053224D01*
X107934553Y-81053216D01*
X107916304Y-80985112D01*
X107917993Y-80914136D01*
X107957786Y-80855339D01*
X108023051Y-80827391D01*
X108038010Y-80826500D01*
X120129497Y-80826500D01*
X120197618Y-80846502D01*
X120218592Y-80863405D01*
X128233125Y-88877938D01*
X128267151Y-88940250D01*
X128269551Y-88956049D01*
X128284022Y-89121463D01*
X128341560Y-89336196D01*
X128343882Y-89341177D01*
X128343883Y-89341178D01*
X128433186Y-89532689D01*
X128433189Y-89532694D01*
X128435512Y-89537676D01*
X128438668Y-89542183D01*
X128438669Y-89542185D01*
X128550213Y-89701486D01*
X128563023Y-89719781D01*
X128720219Y-89876977D01*
X128724727Y-89880134D01*
X128724730Y-89880136D01*
X128756385Y-89902301D01*
X128902323Y-90004488D01*
X128907305Y-90006811D01*
X128907310Y-90006814D01*
X128977222Y-90039414D01*
X129003939Y-90051872D01*
X129012373Y-90055805D01*
X129065658Y-90102722D01*
X129085119Y-90170999D01*
X129064577Y-90238959D01*
X129012373Y-90284195D01*
X128907311Y-90333186D01*
X128907306Y-90333189D01*
X128902324Y-90335512D01*
X128897817Y-90338668D01*
X128897815Y-90338669D01*
X128724730Y-90459864D01*
X128724727Y-90459866D01*
X128720219Y-90463023D01*
X128563023Y-90620219D01*
X128559866Y-90624727D01*
X128559864Y-90624730D01*
X128460825Y-90766173D01*
X128435512Y-90802324D01*
X128433189Y-90807306D01*
X128433186Y-90807311D01*
X128374695Y-90932746D01*
X128341560Y-91003804D01*
X128284022Y-91218537D01*
X128264647Y-91440000D01*
X128284022Y-91661463D01*
X128341560Y-91876196D01*
X128343882Y-91881177D01*
X128343883Y-91881178D01*
X128433186Y-92072689D01*
X128433189Y-92072694D01*
X128435512Y-92077676D01*
X128438668Y-92082183D01*
X128438669Y-92082185D01*
X128518857Y-92196705D01*
X128563023Y-92259781D01*
X128720219Y-92416977D01*
X128724727Y-92420134D01*
X128724730Y-92420136D01*
X128771091Y-92452598D01*
X128902323Y-92544488D01*
X128907305Y-92546811D01*
X128907310Y-92546814D01*
X129012373Y-92595805D01*
X129065658Y-92642722D01*
X129085119Y-92710999D01*
X129064577Y-92778959D01*
X129012373Y-92824195D01*
X128907311Y-92873186D01*
X128907306Y-92873189D01*
X128902324Y-92875512D01*
X128897817Y-92878668D01*
X128897815Y-92878669D01*
X128724730Y-92999864D01*
X128724727Y-92999866D01*
X128720219Y-93003023D01*
X128563023Y-93160219D01*
X128559866Y-93164727D01*
X128559864Y-93164730D01*
X128465785Y-93299089D01*
X128435512Y-93342324D01*
X128433189Y-93347306D01*
X128433186Y-93347311D01*
X128362661Y-93498552D01*
X128341560Y-93543804D01*
X128284022Y-93758537D01*
X128264647Y-93980000D01*
X128284022Y-94201463D01*
X128341560Y-94416196D01*
X128343882Y-94421177D01*
X128343883Y-94421178D01*
X128433186Y-94612689D01*
X128433189Y-94612694D01*
X128435512Y-94617676D01*
X128438668Y-94622183D01*
X128438669Y-94622185D01*
X128521167Y-94740004D01*
X128563023Y-94799781D01*
X128720219Y-94956977D01*
X128724727Y-94960134D01*
X128724730Y-94960136D01*
X128739633Y-94970571D01*
X128902323Y-95084488D01*
X128907305Y-95086811D01*
X128907310Y-95086814D01*
X129012373Y-95135805D01*
X129065658Y-95182722D01*
X129085119Y-95250999D01*
X129064577Y-95318959D01*
X129012373Y-95364195D01*
X128907311Y-95413186D01*
X128907306Y-95413189D01*
X128902324Y-95415512D01*
X128897817Y-95418668D01*
X128897815Y-95418669D01*
X128724730Y-95539864D01*
X128724727Y-95539866D01*
X128720219Y-95543023D01*
X128563023Y-95700219D01*
X128559866Y-95704727D01*
X128559864Y-95704730D01*
X128438669Y-95877815D01*
X128435512Y-95882324D01*
X128433189Y-95887306D01*
X128433186Y-95887311D01*
X128343883Y-96078822D01*
X128341560Y-96083804D01*
X128284022Y-96298537D01*
X128264647Y-96520000D01*
X128284022Y-96741463D01*
X128341560Y-96956196D01*
X128343882Y-96961177D01*
X128343883Y-96961178D01*
X128433186Y-97152689D01*
X128433189Y-97152694D01*
X128435512Y-97157676D01*
X128438668Y-97162183D01*
X128438669Y-97162185D01*
X128559861Y-97335265D01*
X128563023Y-97339781D01*
X128720219Y-97496977D01*
X128724727Y-97500134D01*
X128724730Y-97500136D01*
X128800495Y-97553187D01*
X128902323Y-97624488D01*
X128907305Y-97626811D01*
X128907310Y-97626814D01*
X129012373Y-97675805D01*
X129065658Y-97722722D01*
X129085119Y-97790999D01*
X129064577Y-97858959D01*
X129012373Y-97904195D01*
X128907311Y-97953186D01*
X128907306Y-97953189D01*
X128902324Y-97955512D01*
X128897817Y-97958668D01*
X128897815Y-97958669D01*
X128724730Y-98079864D01*
X128724727Y-98079866D01*
X128720219Y-98083023D01*
X128563023Y-98240219D01*
X128559866Y-98244727D01*
X128559864Y-98244730D01*
X128470147Y-98372860D01*
X128435512Y-98422324D01*
X128433189Y-98427306D01*
X128433186Y-98427311D01*
X128372552Y-98557341D01*
X128341560Y-98623804D01*
X128340138Y-98629112D01*
X128340137Y-98629114D01*
X128325773Y-98682721D01*
X128284022Y-98838537D01*
X128264647Y-99060000D01*
X128284022Y-99281463D01*
X128285446Y-99286776D01*
X128339499Y-99488503D01*
X128341560Y-99496196D01*
X128343882Y-99501177D01*
X128343883Y-99501178D01*
X128433186Y-99692689D01*
X128433189Y-99692694D01*
X128435512Y-99697676D01*
X128438668Y-99702183D01*
X128438669Y-99702185D01*
X128525456Y-99826129D01*
X128563023Y-99879781D01*
X128720219Y-100036977D01*
X128724727Y-100040134D01*
X128724736Y-100040140D01*
X128902323Y-100164488D01*
X128907305Y-100166811D01*
X128907310Y-100166814D01*
X129095558Y-100254595D01*
X129103804Y-100258440D01*
X129109112Y-100259862D01*
X129109114Y-100259863D01*
X129174949Y-100277503D01*
X129318537Y-100315978D01*
X129540000Y-100335353D01*
X129761463Y-100315978D01*
X129905051Y-100277503D01*
X129970886Y-100259863D01*
X129970888Y-100259862D01*
X129976196Y-100258440D01*
X129984442Y-100254595D01*
X130172690Y-100166814D01*
X130172695Y-100166811D01*
X130177677Y-100164488D01*
X130355264Y-100040140D01*
X130355273Y-100040134D01*
X130359781Y-100036977D01*
X130391353Y-100005405D01*
X130453665Y-99971379D01*
X130480448Y-99968500D01*
X134538583Y-99968500D01*
X134558292Y-99970051D01*
X134572190Y-99972252D01*
X134578777Y-99971907D01*
X134578782Y-99971907D01*
X134640480Y-99968673D01*
X134647074Y-99968500D01*
X134667610Y-99968500D01*
X134670882Y-99968156D01*
X134670884Y-99968156D01*
X134688042Y-99966353D01*
X134694616Y-99965836D01*
X134756308Y-99962603D01*
X134756312Y-99962602D01*
X134762903Y-99962257D01*
X134769284Y-99960547D01*
X134769286Y-99960547D01*
X134776491Y-99958617D01*
X134795925Y-99955015D01*
X134803354Y-99954234D01*
X134803363Y-99954232D01*
X134809928Y-99953542D01*
X134874997Y-99932400D01*
X134881299Y-99930533D01*
X134947370Y-99912829D01*
X134959908Y-99906440D01*
X134978174Y-99898875D01*
X134985272Y-99896569D01*
X134985274Y-99896568D01*
X134991556Y-99894527D01*
X135050785Y-99860331D01*
X135056579Y-99857185D01*
X135117530Y-99826129D01*
X135128467Y-99817273D01*
X135144763Y-99806073D01*
X135151224Y-99802343D01*
X135151228Y-99802340D01*
X135156944Y-99799040D01*
X135161850Y-99794623D01*
X135161855Y-99794619D01*
X135207769Y-99753278D01*
X135212784Y-99748994D01*
X135226177Y-99738148D01*
X135228741Y-99736072D01*
X135243256Y-99721557D01*
X135248041Y-99717016D01*
X135298866Y-99671253D01*
X135307140Y-99659865D01*
X135319981Y-99644832D01*
X137070905Y-97893908D01*
X137133217Y-97859882D01*
X137204032Y-97864947D01*
X137249095Y-97893908D01*
X138754595Y-99399408D01*
X138788621Y-99461720D01*
X138791500Y-99488503D01*
X138791500Y-103145812D01*
X138771498Y-103213933D01*
X138754595Y-103234907D01*
X138693802Y-103295700D01*
X138562477Y-103483251D01*
X138560154Y-103488233D01*
X138560151Y-103488238D01*
X138544195Y-103522457D01*
X138497278Y-103575742D01*
X138429001Y-103595203D01*
X138361041Y-103574661D01*
X138315805Y-103522457D01*
X138299849Y-103488238D01*
X138299846Y-103488233D01*
X138297523Y-103483251D01*
X138166198Y-103295700D01*
X138004300Y-103133802D01*
X137999792Y-103130645D01*
X137999789Y-103130643D01*
X137921611Y-103075902D01*
X137816749Y-103002477D01*
X137811767Y-103000154D01*
X137811762Y-103000151D01*
X137614225Y-102908039D01*
X137614224Y-102908039D01*
X137609243Y-102905716D01*
X137603935Y-102904294D01*
X137603933Y-102904293D01*
X137393402Y-102847881D01*
X137393400Y-102847881D01*
X137388087Y-102846457D01*
X137160000Y-102826502D01*
X136931913Y-102846457D01*
X136926600Y-102847881D01*
X136926598Y-102847881D01*
X136716067Y-102904293D01*
X136716065Y-102904294D01*
X136710757Y-102905716D01*
X136705776Y-102908039D01*
X136705775Y-102908039D01*
X136508238Y-103000151D01*
X136508233Y-103000154D01*
X136503251Y-103002477D01*
X136398389Y-103075902D01*
X136320211Y-103130643D01*
X136320208Y-103130645D01*
X136315700Y-103133802D01*
X136153802Y-103295700D01*
X136022477Y-103483251D01*
X136020154Y-103488233D01*
X136020151Y-103488238D01*
X136004195Y-103522457D01*
X135925716Y-103690757D01*
X135866457Y-103911913D01*
X135846502Y-104140000D01*
X135866457Y-104368087D01*
X135867881Y-104373400D01*
X135867881Y-104373402D01*
X135913373Y-104543177D01*
X135925716Y-104589243D01*
X135928039Y-104594224D01*
X135928039Y-104594225D01*
X136020151Y-104791762D01*
X136020154Y-104791767D01*
X136022477Y-104796749D01*
X136095902Y-104901611D01*
X136139154Y-104963380D01*
X136153802Y-104984300D01*
X136315700Y-105146198D01*
X136320208Y-105149355D01*
X136320211Y-105149357D01*
X136355028Y-105173736D01*
X136503251Y-105277523D01*
X136508233Y-105279846D01*
X136508238Y-105279849D01*
X136651047Y-105346441D01*
X136710757Y-105374284D01*
X136716065Y-105375706D01*
X136716067Y-105375707D01*
X136926598Y-105432119D01*
X136926600Y-105432119D01*
X136931913Y-105433543D01*
X137160000Y-105453498D01*
X137388087Y-105433543D01*
X137393400Y-105432119D01*
X137393402Y-105432119D01*
X137603933Y-105375707D01*
X137603935Y-105375706D01*
X137609243Y-105374284D01*
X137668953Y-105346441D01*
X137811762Y-105279849D01*
X137811767Y-105279846D01*
X137816749Y-105277523D01*
X137964972Y-105173736D01*
X137999789Y-105149357D01*
X137999792Y-105149355D01*
X138004300Y-105146198D01*
X138166198Y-104984300D01*
X138180847Y-104963380D01*
X138224098Y-104901611D01*
X138297523Y-104796749D01*
X138299846Y-104791767D01*
X138299849Y-104791762D01*
X138315805Y-104757543D01*
X138362722Y-104704258D01*
X138430999Y-104684797D01*
X138498959Y-104705339D01*
X138544195Y-104757543D01*
X138560151Y-104791762D01*
X138560154Y-104791767D01*
X138562477Y-104796749D01*
X138635902Y-104901611D01*
X138679154Y-104963380D01*
X138693802Y-104984300D01*
X138855700Y-105146198D01*
X138860208Y-105149355D01*
X138860211Y-105149357D01*
X138895028Y-105173736D01*
X139043251Y-105277523D01*
X139048233Y-105279846D01*
X139048238Y-105279849D01*
X139191047Y-105346441D01*
X139250757Y-105374284D01*
X139256065Y-105375706D01*
X139256067Y-105375707D01*
X139466598Y-105432119D01*
X139466600Y-105432119D01*
X139471913Y-105433543D01*
X139700000Y-105453498D01*
X139928087Y-105433543D01*
X139933400Y-105432119D01*
X139933402Y-105432119D01*
X140143933Y-105375707D01*
X140143935Y-105375706D01*
X140149243Y-105374284D01*
X140208953Y-105346441D01*
X140351762Y-105279849D01*
X140351767Y-105279846D01*
X140356749Y-105277523D01*
X140504972Y-105173736D01*
X140539789Y-105149357D01*
X140539792Y-105149355D01*
X140544300Y-105146198D01*
X140706198Y-104984300D01*
X140720847Y-104963380D01*
X140764098Y-104901611D01*
X140837523Y-104796749D01*
X140839846Y-104791767D01*
X140839849Y-104791762D01*
X140931961Y-104594225D01*
X140931961Y-104594224D01*
X140934284Y-104589243D01*
X140946628Y-104543177D01*
X140992119Y-104373402D01*
X140992119Y-104373400D01*
X140993543Y-104368087D01*
X141013498Y-104140000D01*
X140993543Y-103911913D01*
X140934284Y-103690757D01*
X140855805Y-103522457D01*
X140839849Y-103488238D01*
X140839846Y-103488233D01*
X140837523Y-103483251D01*
X140828245Y-103470000D01*
X145056835Y-103470000D01*
X145075465Y-103706711D01*
X145076619Y-103711518D01*
X145076620Y-103711524D01*
X145111640Y-103857391D01*
X145130895Y-103937594D01*
X145132788Y-103942165D01*
X145132789Y-103942167D01*
X145217002Y-104145475D01*
X145221760Y-104156963D01*
X145224346Y-104161183D01*
X145343241Y-104355202D01*
X145343245Y-104355208D01*
X145345824Y-104359416D01*
X145500031Y-104539969D01*
X145680584Y-104694176D01*
X145684792Y-104696755D01*
X145684798Y-104696759D01*
X145839829Y-104791762D01*
X145883037Y-104818240D01*
X145887607Y-104820133D01*
X145887611Y-104820135D01*
X146097833Y-104907211D01*
X146102406Y-104909105D01*
X146182609Y-104928360D01*
X146328476Y-104963380D01*
X146328482Y-104963381D01*
X146333289Y-104964535D01*
X146570000Y-104983165D01*
X146806711Y-104964535D01*
X146811518Y-104963381D01*
X146811524Y-104963380D01*
X146957391Y-104928360D01*
X147037594Y-104909105D01*
X147042167Y-104907211D01*
X147252389Y-104820135D01*
X147252393Y-104820133D01*
X147256963Y-104818240D01*
X147300171Y-104791762D01*
X147455202Y-104696759D01*
X147455208Y-104696755D01*
X147459416Y-104694176D01*
X147639969Y-104539969D01*
X147794176Y-104359416D01*
X147796758Y-104355202D01*
X147796765Y-104355193D01*
X147868174Y-104238665D01*
X147920821Y-104191034D01*
X147975606Y-104178500D01*
X151664394Y-104178500D01*
X151732515Y-104198502D01*
X151771826Y-104238665D01*
X151843235Y-104355193D01*
X151843242Y-104355202D01*
X151845824Y-104359416D01*
X152000031Y-104539969D01*
X152180584Y-104694176D01*
X152184792Y-104696755D01*
X152184798Y-104696759D01*
X152339829Y-104791762D01*
X152383037Y-104818240D01*
X152387607Y-104820133D01*
X152387611Y-104820135D01*
X152597833Y-104907211D01*
X152602406Y-104909105D01*
X152682609Y-104928360D01*
X152828476Y-104963380D01*
X152828482Y-104963381D01*
X152833289Y-104964535D01*
X153070000Y-104983165D01*
X153306711Y-104964535D01*
X153311518Y-104963381D01*
X153311524Y-104963380D01*
X153457391Y-104928360D01*
X153537594Y-104909105D01*
X153542167Y-104907211D01*
X153752389Y-104820135D01*
X153752393Y-104820133D01*
X153756963Y-104818240D01*
X153800171Y-104791762D01*
X153955202Y-104696759D01*
X153955208Y-104696755D01*
X153959416Y-104694176D01*
X154139969Y-104539969D01*
X154294176Y-104359416D01*
X154296755Y-104355208D01*
X154296759Y-104355202D01*
X154415654Y-104161183D01*
X154418240Y-104156963D01*
X154422999Y-104145475D01*
X154507211Y-103942167D01*
X154507212Y-103942165D01*
X154509105Y-103937594D01*
X154528360Y-103857391D01*
X154563380Y-103711524D01*
X154563381Y-103711518D01*
X154564535Y-103706711D01*
X154583165Y-103470000D01*
X154564535Y-103233289D01*
X154556064Y-103198002D01*
X154510260Y-103007218D01*
X154509105Y-103002406D01*
X154485495Y-102945405D01*
X154420135Y-102787611D01*
X154420133Y-102787607D01*
X154418240Y-102783037D01*
X154388148Y-102733931D01*
X154296759Y-102584798D01*
X154296755Y-102584792D01*
X154294176Y-102580584D01*
X154139969Y-102400031D01*
X153959416Y-102245824D01*
X153955208Y-102243245D01*
X153955202Y-102243241D01*
X153761183Y-102124346D01*
X153756963Y-102121760D01*
X153752393Y-102119867D01*
X153752389Y-102119865D01*
X153542167Y-102032789D01*
X153542165Y-102032788D01*
X153537594Y-102030895D01*
X153457391Y-102011640D01*
X153311524Y-101976620D01*
X153311518Y-101976619D01*
X153306711Y-101975465D01*
X153070000Y-101956835D01*
X152833289Y-101975465D01*
X152828482Y-101976619D01*
X152828476Y-101976620D01*
X152682609Y-102011640D01*
X152602406Y-102030895D01*
X152597835Y-102032788D01*
X152597833Y-102032789D01*
X152387611Y-102119865D01*
X152387607Y-102119867D01*
X152383037Y-102121760D01*
X152378817Y-102124346D01*
X152184798Y-102243241D01*
X152184792Y-102243245D01*
X152180584Y-102245824D01*
X152000031Y-102400031D01*
X151845824Y-102580584D01*
X151843242Y-102584797D01*
X151843235Y-102584807D01*
X151771826Y-102701335D01*
X151719179Y-102748966D01*
X151664394Y-102761500D01*
X147975606Y-102761500D01*
X147907485Y-102741498D01*
X147868174Y-102701335D01*
X147796765Y-102584807D01*
X147796758Y-102584797D01*
X147794176Y-102580584D01*
X147639969Y-102400031D01*
X147459416Y-102245824D01*
X147455208Y-102243245D01*
X147455202Y-102243241D01*
X147261183Y-102124346D01*
X147256963Y-102121760D01*
X147252393Y-102119867D01*
X147252389Y-102119865D01*
X147042167Y-102032789D01*
X147042165Y-102032788D01*
X147037594Y-102030895D01*
X146957391Y-102011640D01*
X146811524Y-101976620D01*
X146811518Y-101976619D01*
X146806711Y-101975465D01*
X146570000Y-101956835D01*
X146333289Y-101975465D01*
X146328482Y-101976619D01*
X146328476Y-101976620D01*
X146182609Y-102011640D01*
X146102406Y-102030895D01*
X146097835Y-102032788D01*
X146097833Y-102032789D01*
X145887611Y-102119865D01*
X145887607Y-102119867D01*
X145883037Y-102121760D01*
X145878817Y-102124346D01*
X145684798Y-102243241D01*
X145684792Y-102243245D01*
X145680584Y-102245824D01*
X145500031Y-102400031D01*
X145345824Y-102580584D01*
X145343245Y-102584792D01*
X145343241Y-102584798D01*
X145251852Y-102733931D01*
X145221760Y-102783037D01*
X145219867Y-102787607D01*
X145219865Y-102787611D01*
X145154505Y-102945405D01*
X145130895Y-103002406D01*
X145129740Y-103007218D01*
X145083937Y-103198002D01*
X145075465Y-103233289D01*
X145056835Y-103470000D01*
X140828245Y-103470000D01*
X140706198Y-103295700D01*
X140645405Y-103234907D01*
X140611379Y-103172595D01*
X140608500Y-103145812D01*
X140608500Y-99141416D01*
X140610051Y-99121704D01*
X140611220Y-99114324D01*
X140612252Y-99107809D01*
X140610564Y-99075591D01*
X140608673Y-99039519D01*
X140608500Y-99032925D01*
X140608500Y-99012390D01*
X140606353Y-98991960D01*
X140605836Y-98985385D01*
X140602603Y-98923696D01*
X140602603Y-98923695D01*
X140602257Y-98917096D01*
X140598616Y-98903508D01*
X140595012Y-98884061D01*
X140594233Y-98876644D01*
X140594232Y-98876640D01*
X140593542Y-98870072D01*
X140572402Y-98805009D01*
X140570529Y-98798685D01*
X140554539Y-98739010D01*
X140554538Y-98739006D01*
X140552829Y-98732630D01*
X140546440Y-98720092D01*
X140538875Y-98701826D01*
X140536569Y-98694728D01*
X140536568Y-98694726D01*
X140534527Y-98688444D01*
X140500335Y-98629220D01*
X140497188Y-98623426D01*
X140469127Y-98568352D01*
X140469125Y-98568349D01*
X140466129Y-98562469D01*
X140457267Y-98551526D01*
X140446073Y-98535237D01*
X140439040Y-98523056D01*
X140434623Y-98518150D01*
X140434619Y-98518145D01*
X140393269Y-98472221D01*
X140388997Y-98467220D01*
X140376072Y-98451259D01*
X140361557Y-98436744D01*
X140357016Y-98431959D01*
X140315673Y-98386043D01*
X140311253Y-98381134D01*
X140299865Y-98372860D01*
X140284832Y-98360019D01*
X139923908Y-97999095D01*
X139889882Y-97936783D01*
X139894947Y-97865968D01*
X139937494Y-97809132D01*
X139980391Y-97788293D01*
X140103764Y-97755235D01*
X140114053Y-97751490D01*
X140311511Y-97659414D01*
X140321006Y-97653931D01*
X140373048Y-97617491D01*
X140381424Y-97607012D01*
X140374356Y-97593566D01*
X139301922Y-96521132D01*
X140024408Y-96521132D01*
X140024539Y-96522965D01*
X140028790Y-96529580D01*
X140734287Y-97235077D01*
X140746062Y-97241507D01*
X140758077Y-97232211D01*
X140793931Y-97181006D01*
X140799414Y-97171511D01*
X140891490Y-96974053D01*
X140895236Y-96963761D01*
X140951625Y-96753312D01*
X140953528Y-96742519D01*
X140972517Y-96525475D01*
X140972517Y-96514525D01*
X140953528Y-96297481D01*
X140951625Y-96286688D01*
X140895236Y-96076239D01*
X140891490Y-96065947D01*
X140847468Y-95971542D01*
X145742160Y-95971542D01*
X145747887Y-95979192D01*
X145919042Y-96084077D01*
X145927837Y-96088559D01*
X146137988Y-96175606D01*
X146147373Y-96178655D01*
X146368554Y-96231757D01*
X146378301Y-96233300D01*
X146605070Y-96251147D01*
X146614930Y-96251147D01*
X146841699Y-96233300D01*
X146851446Y-96231757D01*
X147072627Y-96178655D01*
X147082012Y-96175606D01*
X147292163Y-96088559D01*
X147300958Y-96084077D01*
X147468445Y-95981440D01*
X147477400Y-95971542D01*
X152242160Y-95971542D01*
X152247887Y-95979192D01*
X152419042Y-96084077D01*
X152427837Y-96088559D01*
X152637988Y-96175606D01*
X152647373Y-96178655D01*
X152868554Y-96231757D01*
X152878301Y-96233300D01*
X153105070Y-96251147D01*
X153114930Y-96251147D01*
X153341699Y-96233300D01*
X153351446Y-96231757D01*
X153572627Y-96178655D01*
X153582012Y-96175606D01*
X153792163Y-96088559D01*
X153800958Y-96084077D01*
X153968445Y-95981440D01*
X153977907Y-95970982D01*
X153974124Y-95962206D01*
X153122812Y-95110894D01*
X153108868Y-95103280D01*
X153107035Y-95103411D01*
X153100420Y-95107662D01*
X152248920Y-95959162D01*
X152242160Y-95971542D01*
X147477400Y-95971542D01*
X147477907Y-95970982D01*
X147474124Y-95962206D01*
X146622812Y-95110894D01*
X146608868Y-95103280D01*
X146607035Y-95103411D01*
X146600420Y-95107662D01*
X145748920Y-95959162D01*
X145742160Y-95971542D01*
X140847468Y-95971542D01*
X140799414Y-95868489D01*
X140793931Y-95858994D01*
X140757491Y-95806952D01*
X140747012Y-95798576D01*
X140733566Y-95805644D01*
X140032022Y-96507188D01*
X140024408Y-96521132D01*
X139301922Y-96521132D01*
X138585713Y-95804923D01*
X138573938Y-95798493D01*
X138561923Y-95807789D01*
X138526066Y-95858998D01*
X138519409Y-95870528D01*
X138468027Y-95919521D01*
X138398313Y-95932958D01*
X138332402Y-95906571D01*
X138301171Y-95870528D01*
X138299847Y-95868235D01*
X138297523Y-95863251D01*
X138223664Y-95757770D01*
X138169357Y-95680211D01*
X138169355Y-95680208D01*
X138166198Y-95675700D01*
X138105405Y-95614907D01*
X138071379Y-95552595D01*
X138068500Y-95525812D01*
X138068500Y-95432988D01*
X138938576Y-95432988D01*
X138945644Y-95446434D01*
X139647188Y-96147978D01*
X139661132Y-96155592D01*
X139662965Y-96155461D01*
X139669580Y-96151210D01*
X140375077Y-95445713D01*
X140381507Y-95433938D01*
X140372211Y-95421923D01*
X140321006Y-95386069D01*
X140311511Y-95380586D01*
X140114053Y-95288510D01*
X140103761Y-95284764D01*
X139893312Y-95228375D01*
X139882519Y-95226472D01*
X139665475Y-95207483D01*
X139654525Y-95207483D01*
X139437481Y-95226472D01*
X139426688Y-95228375D01*
X139216239Y-95284764D01*
X139205947Y-95288510D01*
X139008489Y-95380586D01*
X138998994Y-95386069D01*
X138946952Y-95422509D01*
X138938576Y-95432988D01*
X138068500Y-95432988D01*
X138068500Y-94743802D01*
X145097725Y-94743802D01*
X145115572Y-94970571D01*
X145117115Y-94980318D01*
X145170217Y-95201499D01*
X145173266Y-95210884D01*
X145260313Y-95421035D01*
X145264795Y-95429830D01*
X145367432Y-95597317D01*
X145377890Y-95606779D01*
X145386666Y-95602996D01*
X146237978Y-94751684D01*
X146244356Y-94740004D01*
X146974408Y-94740004D01*
X146974539Y-94741837D01*
X146978790Y-94748452D01*
X147830290Y-95599952D01*
X147842670Y-95606712D01*
X147850320Y-95600985D01*
X147955205Y-95429830D01*
X147959687Y-95421035D01*
X148046734Y-95210884D01*
X148049783Y-95201499D01*
X148102885Y-94980318D01*
X148104428Y-94970571D01*
X148122275Y-94743802D01*
X151597725Y-94743802D01*
X151615572Y-94970571D01*
X151617115Y-94980318D01*
X151670217Y-95201499D01*
X151673266Y-95210884D01*
X151760313Y-95421035D01*
X151764795Y-95429830D01*
X151867432Y-95597317D01*
X151877890Y-95606779D01*
X151886666Y-95602996D01*
X152737978Y-94751684D01*
X152744356Y-94740004D01*
X153474408Y-94740004D01*
X153474539Y-94741837D01*
X153478790Y-94748452D01*
X154330290Y-95599952D01*
X154342670Y-95606712D01*
X154350320Y-95600985D01*
X154455205Y-95429830D01*
X154459687Y-95421035D01*
X154546734Y-95210884D01*
X154549783Y-95201499D01*
X154602885Y-94980318D01*
X154604428Y-94970571D01*
X154622275Y-94743802D01*
X154622275Y-94733942D01*
X154604428Y-94507173D01*
X154602885Y-94497426D01*
X154549783Y-94276245D01*
X154546734Y-94266860D01*
X154459687Y-94056709D01*
X154455205Y-94047914D01*
X154352568Y-93880427D01*
X154342110Y-93870965D01*
X154333334Y-93874748D01*
X153482022Y-94726060D01*
X153474408Y-94740004D01*
X152744356Y-94740004D01*
X152745592Y-94737740D01*
X152745461Y-94735907D01*
X152741210Y-94729292D01*
X151889710Y-93877792D01*
X151877330Y-93871032D01*
X151869680Y-93876759D01*
X151764795Y-94047914D01*
X151760313Y-94056709D01*
X151673266Y-94266860D01*
X151670217Y-94276245D01*
X151617115Y-94497426D01*
X151615572Y-94507173D01*
X151597725Y-94733942D01*
X151597725Y-94743802D01*
X148122275Y-94743802D01*
X148122275Y-94733942D01*
X148104428Y-94507173D01*
X148102885Y-94497426D01*
X148049783Y-94276245D01*
X148046734Y-94266860D01*
X147959687Y-94056709D01*
X147955205Y-94047914D01*
X147852568Y-93880427D01*
X147842110Y-93870965D01*
X147833334Y-93874748D01*
X146982022Y-94726060D01*
X146974408Y-94740004D01*
X146244356Y-94740004D01*
X146245592Y-94737740D01*
X146245461Y-94735907D01*
X146241210Y-94729292D01*
X145389710Y-93877792D01*
X145377330Y-93871032D01*
X145369680Y-93876759D01*
X145264795Y-94047914D01*
X145260313Y-94056709D01*
X145173266Y-94266860D01*
X145170217Y-94276245D01*
X145117115Y-94497426D01*
X145115572Y-94507173D01*
X145097725Y-94733942D01*
X145097725Y-94743802D01*
X138068500Y-94743802D01*
X138068500Y-93506762D01*
X145742093Y-93506762D01*
X145745876Y-93515538D01*
X146597188Y-94366850D01*
X146611132Y-94374464D01*
X146612965Y-94374333D01*
X146619580Y-94370082D01*
X147471080Y-93518582D01*
X147477534Y-93506762D01*
X152242093Y-93506762D01*
X152245876Y-93515538D01*
X153097188Y-94366850D01*
X153111132Y-94374464D01*
X153112965Y-94374333D01*
X153119580Y-94370082D01*
X153971080Y-93518582D01*
X153977840Y-93506202D01*
X153972113Y-93498552D01*
X153800958Y-93393667D01*
X153792163Y-93389185D01*
X153582012Y-93302138D01*
X153572627Y-93299089D01*
X153351446Y-93245987D01*
X153341699Y-93244444D01*
X153114930Y-93226597D01*
X153105070Y-93226597D01*
X152878301Y-93244444D01*
X152868554Y-93245987D01*
X152647373Y-93299089D01*
X152637988Y-93302138D01*
X152427837Y-93389185D01*
X152419042Y-93393667D01*
X152251555Y-93496304D01*
X152242093Y-93506762D01*
X147477534Y-93506762D01*
X147477840Y-93506202D01*
X147472113Y-93498552D01*
X147300958Y-93393667D01*
X147292163Y-93389185D01*
X147082012Y-93302138D01*
X147072627Y-93299089D01*
X146851446Y-93245987D01*
X146841699Y-93244444D01*
X146614930Y-93226597D01*
X146605070Y-93226597D01*
X146378301Y-93244444D01*
X146368554Y-93245987D01*
X146147373Y-93299089D01*
X146137988Y-93302138D01*
X145927837Y-93389185D01*
X145919042Y-93393667D01*
X145751555Y-93496304D01*
X145742093Y-93506762D01*
X138068500Y-93506762D01*
X138068500Y-93034500D01*
X138088502Y-92966379D01*
X138142158Y-92919886D01*
X138194500Y-92908500D01*
X138254987Y-92908500D01*
X138261439Y-92907128D01*
X138261444Y-92907128D01*
X138348387Y-92888647D01*
X138441788Y-92868794D01*
X138447819Y-92866109D01*
X138610222Y-92793803D01*
X138610224Y-92793802D01*
X138616252Y-92791118D01*
X138629408Y-92781560D01*
X138747200Y-92695978D01*
X138770753Y-92678866D01*
X138807153Y-92638440D01*
X138894121Y-92541852D01*
X138894122Y-92541851D01*
X138898540Y-92536944D01*
X138994027Y-92371556D01*
X139053042Y-92189928D01*
X139057950Y-92143230D01*
X139084963Y-92077573D01*
X139094165Y-92067305D01*
X140180520Y-90980950D01*
X140186785Y-90975096D01*
X140187238Y-90974701D01*
X140230385Y-90937061D01*
X140267129Y-90884780D01*
X140271061Y-90879486D01*
X140305791Y-90835193D01*
X140310476Y-90829218D01*
X140313599Y-90822302D01*
X140314983Y-90820016D01*
X140323357Y-90805335D01*
X140324622Y-90802975D01*
X140328990Y-90796761D01*
X140332818Y-90786944D01*
X140352202Y-90737225D01*
X140354759Y-90731142D01*
X140376205Y-90683647D01*
X140381045Y-90672927D01*
X140382429Y-90665460D01*
X140383230Y-90662905D01*
X140387859Y-90646652D01*
X140388522Y-90644072D01*
X140391282Y-90636991D01*
X140399622Y-90573639D01*
X140400653Y-90567132D01*
X140410912Y-90511780D01*
X140412296Y-90504314D01*
X140408709Y-90442108D01*
X140408500Y-90434854D01*
X140408500Y-90066878D01*
X140428502Y-89998757D01*
X140462229Y-89963665D01*
X140539789Y-89909357D01*
X140539792Y-89909355D01*
X140544300Y-89906198D01*
X140706198Y-89744300D01*
X140720638Y-89723678D01*
X140763665Y-89662229D01*
X140819122Y-89617901D01*
X140866878Y-89608500D01*
X144925468Y-89608500D01*
X144993589Y-89628502D01*
X145014563Y-89645405D01*
X145115102Y-89745944D01*
X145149128Y-89808256D01*
X145148526Y-89864451D01*
X145144275Y-89882158D01*
X145127054Y-89953891D01*
X145115465Y-90002161D01*
X145096835Y-90238872D01*
X145115465Y-90475583D01*
X145116619Y-90480390D01*
X145116620Y-90480396D01*
X145147297Y-90608174D01*
X145170895Y-90706466D01*
X145172788Y-90711037D01*
X145172789Y-90711039D01*
X145258351Y-90917604D01*
X145261760Y-90925835D01*
X145264346Y-90930055D01*
X145383241Y-91124074D01*
X145383245Y-91124080D01*
X145385824Y-91128288D01*
X145462904Y-91218537D01*
X145534304Y-91302135D01*
X145540031Y-91308841D01*
X145720584Y-91463048D01*
X145724792Y-91465627D01*
X145724798Y-91465631D01*
X145918817Y-91584526D01*
X145923037Y-91587112D01*
X145927607Y-91589005D01*
X145927611Y-91589007D01*
X146102537Y-91661463D01*
X146142406Y-91677977D01*
X146222609Y-91697232D01*
X146368476Y-91732252D01*
X146368482Y-91732253D01*
X146373289Y-91733407D01*
X146610000Y-91752037D01*
X146846711Y-91733407D01*
X146851518Y-91732253D01*
X146851524Y-91732252D01*
X146997391Y-91697232D01*
X147077594Y-91677977D01*
X147117463Y-91661463D01*
X147292389Y-91589007D01*
X147292393Y-91589005D01*
X147296963Y-91587112D01*
X147301183Y-91584526D01*
X147495202Y-91465631D01*
X147495208Y-91465627D01*
X147499416Y-91463048D01*
X147679969Y-91308841D01*
X147685697Y-91302135D01*
X147757096Y-91218537D01*
X147834176Y-91128288D01*
X147836755Y-91124080D01*
X147836759Y-91124074D01*
X147955654Y-90930055D01*
X147958240Y-90925835D01*
X147961650Y-90917604D01*
X148047211Y-90711039D01*
X148047212Y-90711037D01*
X148049105Y-90706466D01*
X148072703Y-90608174D01*
X148103380Y-90480396D01*
X148103381Y-90480390D01*
X148104535Y-90475583D01*
X148123165Y-90238872D01*
X151596835Y-90238872D01*
X151615465Y-90475583D01*
X151616619Y-90480390D01*
X151616620Y-90480396D01*
X151647297Y-90608174D01*
X151670895Y-90706466D01*
X151672788Y-90711037D01*
X151672789Y-90711039D01*
X151758351Y-90917604D01*
X151761760Y-90925835D01*
X151764346Y-90930055D01*
X151883241Y-91124074D01*
X151883245Y-91124080D01*
X151885824Y-91128288D01*
X151962904Y-91218537D01*
X152034304Y-91302135D01*
X152040031Y-91308841D01*
X152220584Y-91463048D01*
X152224792Y-91465627D01*
X152224798Y-91465631D01*
X152418817Y-91584526D01*
X152423037Y-91587112D01*
X152427607Y-91589005D01*
X152427611Y-91589007D01*
X152602537Y-91661463D01*
X152642406Y-91677977D01*
X152722609Y-91697232D01*
X152868476Y-91732252D01*
X152868482Y-91732253D01*
X152873289Y-91733407D01*
X153110000Y-91752037D01*
X153346711Y-91733407D01*
X153351518Y-91732253D01*
X153351524Y-91732252D01*
X153497391Y-91697232D01*
X153577594Y-91677977D01*
X153617463Y-91661463D01*
X153792389Y-91589007D01*
X153792393Y-91589005D01*
X153796963Y-91587112D01*
X153801183Y-91584526D01*
X153995202Y-91465631D01*
X153995208Y-91465627D01*
X153999416Y-91463048D01*
X154179969Y-91308841D01*
X154185697Y-91302135D01*
X154257096Y-91218537D01*
X154334176Y-91128288D01*
X154336755Y-91124080D01*
X154336759Y-91124074D01*
X154455654Y-90930055D01*
X154458240Y-90925835D01*
X154461650Y-90917604D01*
X154547211Y-90711039D01*
X154547212Y-90711037D01*
X154549105Y-90706466D01*
X154572703Y-90608174D01*
X154603380Y-90480396D01*
X154603381Y-90480390D01*
X154604535Y-90475583D01*
X154623165Y-90238872D01*
X154604535Y-90002161D01*
X154600899Y-89987012D01*
X154562259Y-89826067D01*
X154549105Y-89771278D01*
X154539519Y-89748134D01*
X154460135Y-89556483D01*
X154460133Y-89556479D01*
X154458240Y-89551909D01*
X154446462Y-89532689D01*
X154336759Y-89353670D01*
X154336755Y-89353664D01*
X154334176Y-89349456D01*
X154179969Y-89168903D01*
X153999416Y-89014696D01*
X153995208Y-89012117D01*
X153995202Y-89012113D01*
X153801183Y-88893218D01*
X153796963Y-88890632D01*
X153792393Y-88888739D01*
X153792389Y-88888737D01*
X153582167Y-88801661D01*
X153582165Y-88801660D01*
X153577594Y-88799767D01*
X153461936Y-88772000D01*
X153351524Y-88745492D01*
X153351518Y-88745491D01*
X153346711Y-88744337D01*
X153110000Y-88725707D01*
X152873289Y-88744337D01*
X152868482Y-88745491D01*
X152868476Y-88745492D01*
X152758064Y-88772000D01*
X152642406Y-88799767D01*
X152637835Y-88801660D01*
X152637833Y-88801661D01*
X152427611Y-88888737D01*
X152427607Y-88888739D01*
X152423037Y-88890632D01*
X152418817Y-88893218D01*
X152224798Y-89012113D01*
X152224792Y-89012117D01*
X152220584Y-89014696D01*
X152040031Y-89168903D01*
X151885824Y-89349456D01*
X151883245Y-89353664D01*
X151883241Y-89353670D01*
X151773538Y-89532689D01*
X151761760Y-89551909D01*
X151759867Y-89556479D01*
X151759865Y-89556483D01*
X151680481Y-89748134D01*
X151670895Y-89771278D01*
X151657741Y-89826067D01*
X151619102Y-89987012D01*
X151615465Y-90002161D01*
X151596835Y-90238872D01*
X148123165Y-90238872D01*
X148104535Y-90002161D01*
X148100899Y-89987012D01*
X148062259Y-89826067D01*
X148049105Y-89771278D01*
X148039519Y-89748134D01*
X147960135Y-89556483D01*
X147960133Y-89556479D01*
X147958240Y-89551909D01*
X147946462Y-89532689D01*
X147836759Y-89353670D01*
X147836755Y-89353664D01*
X147834176Y-89349456D01*
X147679969Y-89168903D01*
X147499416Y-89014696D01*
X147495208Y-89012117D01*
X147495202Y-89012113D01*
X147301183Y-88893218D01*
X147296963Y-88890632D01*
X147292393Y-88888739D01*
X147292389Y-88888737D01*
X147082167Y-88801661D01*
X147082165Y-88801660D01*
X147077594Y-88799767D01*
X146961936Y-88772000D01*
X146851524Y-88745492D01*
X146851518Y-88745491D01*
X146846711Y-88744337D01*
X146610000Y-88725707D01*
X146373289Y-88744337D01*
X146368482Y-88745491D01*
X146368476Y-88745492D01*
X146297352Y-88762568D01*
X146235580Y-88777398D01*
X146164673Y-88773851D01*
X146117072Y-88743974D01*
X145792578Y-88419480D01*
X145786724Y-88413215D01*
X145786329Y-88412762D01*
X145748689Y-88369615D01*
X145696408Y-88332871D01*
X145691114Y-88328939D01*
X145646821Y-88294209D01*
X145640846Y-88289524D01*
X145633930Y-88286401D01*
X145631644Y-88285017D01*
X145616963Y-88276643D01*
X145614603Y-88275378D01*
X145608389Y-88271010D01*
X145601310Y-88268250D01*
X145601308Y-88268249D01*
X145548853Y-88247798D01*
X145542784Y-88245247D01*
X145484555Y-88218955D01*
X145477088Y-88217571D01*
X145474533Y-88216770D01*
X145458280Y-88212141D01*
X145455700Y-88211478D01*
X145448619Y-88208718D01*
X145441088Y-88207727D01*
X145441086Y-88207726D01*
X145411467Y-88203827D01*
X145385267Y-88200378D01*
X145378769Y-88199348D01*
X145315942Y-88187704D01*
X145308362Y-88188141D01*
X145308361Y-88188141D01*
X145253736Y-88191291D01*
X145246482Y-88191500D01*
X140866878Y-88191500D01*
X140798757Y-88171498D01*
X140763665Y-88137771D01*
X140709357Y-88060211D01*
X140709355Y-88060208D01*
X140706198Y-88055700D01*
X140544300Y-87893802D01*
X140539792Y-87890645D01*
X140539789Y-87890643D01*
X140430243Y-87813938D01*
X140356749Y-87762477D01*
X140351767Y-87760154D01*
X140351762Y-87760151D01*
X140154225Y-87668039D01*
X140154224Y-87668039D01*
X140149243Y-87665716D01*
X140143935Y-87664294D01*
X140143933Y-87664293D01*
X139933402Y-87607881D01*
X139933400Y-87607881D01*
X139928087Y-87606457D01*
X139700000Y-87586502D01*
X139471913Y-87606457D01*
X139466600Y-87607881D01*
X139466598Y-87607881D01*
X139256067Y-87664293D01*
X139256065Y-87664294D01*
X139250757Y-87665716D01*
X139245776Y-87668039D01*
X139245775Y-87668039D01*
X139048238Y-87760151D01*
X139048233Y-87760154D01*
X139043251Y-87762477D01*
X138969757Y-87813938D01*
X138860211Y-87890643D01*
X138860208Y-87890645D01*
X138855700Y-87893802D01*
X138693802Y-88055700D01*
X138690645Y-88060208D01*
X138690643Y-88060211D01*
X138673475Y-88084730D01*
X138562477Y-88243251D01*
X138560154Y-88248233D01*
X138560151Y-88248238D01*
X138544195Y-88282457D01*
X138497278Y-88335742D01*
X138429001Y-88355203D01*
X138361041Y-88334661D01*
X138315805Y-88282457D01*
X138299849Y-88248238D01*
X138299846Y-88248233D01*
X138297523Y-88243251D01*
X138186525Y-88084730D01*
X138169357Y-88060211D01*
X138169355Y-88060208D01*
X138166198Y-88055700D01*
X138004300Y-87893802D01*
X137999792Y-87890645D01*
X137999789Y-87890643D01*
X137890243Y-87813938D01*
X137816749Y-87762477D01*
X137811767Y-87760154D01*
X137811762Y-87760151D01*
X137614225Y-87668039D01*
X137614224Y-87668039D01*
X137609243Y-87665716D01*
X137603935Y-87664294D01*
X137603933Y-87664293D01*
X137393402Y-87607881D01*
X137393400Y-87607881D01*
X137388087Y-87606457D01*
X137160000Y-87586502D01*
X136931913Y-87606457D01*
X136926600Y-87607881D01*
X136926598Y-87607881D01*
X136716067Y-87664293D01*
X136716065Y-87664294D01*
X136710757Y-87665716D01*
X136705776Y-87668039D01*
X136705775Y-87668039D01*
X136508238Y-87760151D01*
X136508233Y-87760154D01*
X136503251Y-87762477D01*
X136429757Y-87813938D01*
X136320211Y-87890643D01*
X136320208Y-87890645D01*
X136315700Y-87893802D01*
X136254907Y-87954595D01*
X136192595Y-87988621D01*
X136165812Y-87991500D01*
X130480448Y-87991500D01*
X130412327Y-87971498D01*
X130391353Y-87954595D01*
X130359781Y-87923023D01*
X130355273Y-87919866D01*
X130355270Y-87919864D01*
X130249937Y-87846109D01*
X130177677Y-87795512D01*
X130172695Y-87793189D01*
X130172690Y-87793186D01*
X130067627Y-87744195D01*
X130014342Y-87697278D01*
X129994881Y-87629001D01*
X130015423Y-87561041D01*
X130067627Y-87515805D01*
X130172690Y-87466814D01*
X130172695Y-87466811D01*
X130177677Y-87464488D01*
X130306800Y-87374075D01*
X130355270Y-87340136D01*
X130355273Y-87340134D01*
X130359781Y-87336977D01*
X130516977Y-87179781D01*
X130520136Y-87175270D01*
X130520140Y-87175265D01*
X130557275Y-87122230D01*
X130612732Y-87077901D01*
X130660488Y-87068500D01*
X139706088Y-87068500D01*
X139714658Y-87068792D01*
X139764776Y-87072209D01*
X139764780Y-87072209D01*
X139772352Y-87072725D01*
X139779829Y-87071420D01*
X139779830Y-87071420D01*
X139806308Y-87066799D01*
X139835303Y-87061738D01*
X139841821Y-87060777D01*
X139905242Y-87053102D01*
X139912343Y-87050419D01*
X139914952Y-87049778D01*
X139931262Y-87045315D01*
X139933798Y-87044550D01*
X139941284Y-87043243D01*
X139999800Y-87017556D01*
X140005904Y-87015065D01*
X140058548Y-86995173D01*
X140058549Y-86995172D01*
X140065656Y-86992487D01*
X140071919Y-86988183D01*
X140074285Y-86986946D01*
X140089097Y-86978701D01*
X140091351Y-86977368D01*
X140098305Y-86974315D01*
X140149002Y-86935413D01*
X140154332Y-86931541D01*
X140200720Y-86899661D01*
X140200725Y-86899656D01*
X140206981Y-86895357D01*
X140248436Y-86848829D01*
X140253416Y-86843554D01*
X144412685Y-82684286D01*
X144474997Y-82650260D01*
X144526901Y-82649911D01*
X144553103Y-82655242D01*
X144618597Y-82668567D01*
X144623772Y-82668757D01*
X144623774Y-82668757D01*
X144836673Y-82676564D01*
X144836677Y-82676564D01*
X144841837Y-82676753D01*
X144846957Y-82676097D01*
X144846959Y-82676097D01*
X145058288Y-82649025D01*
X145058289Y-82649025D01*
X145063416Y-82648368D01*
X145103264Y-82636413D01*
X145272429Y-82585661D01*
X145272434Y-82585659D01*
X145277384Y-82584174D01*
X145477994Y-82485896D01*
X145659860Y-82356173D01*
X145818096Y-82198489D01*
X145889025Y-82099781D01*
X145945435Y-82021277D01*
X145948453Y-82017077D01*
X145974228Y-81964926D01*
X146045136Y-81821453D01*
X146045137Y-81821451D01*
X146047430Y-81816811D01*
X146098479Y-81648790D01*
X146110865Y-81608023D01*
X146110865Y-81608021D01*
X146112370Y-81603069D01*
X146141529Y-81381590D01*
X146141611Y-81378240D01*
X146143074Y-81318365D01*
X146143074Y-81318361D01*
X146143156Y-81315000D01*
X146124852Y-81092361D01*
X146070431Y-80875702D01*
X145981354Y-80670840D01*
X145860014Y-80483277D01*
X145709670Y-80318051D01*
X145705619Y-80314852D01*
X145705615Y-80314848D01*
X145538414Y-80182800D01*
X145538410Y-80182798D01*
X145534359Y-80179598D01*
X145493053Y-80156796D01*
X145443084Y-80106364D01*
X145428312Y-80036921D01*
X145453428Y-79970516D01*
X145480780Y-79943909D01*
X145524603Y-79912650D01*
X145659860Y-79816173D01*
X145818096Y-79658489D01*
X145948453Y-79477077D01*
X146019348Y-79333632D01*
X146045136Y-79281453D01*
X146045137Y-79281451D01*
X146047430Y-79276811D01*
X146095782Y-79117667D01*
X146110865Y-79068023D01*
X146110865Y-79068021D01*
X146112370Y-79063069D01*
X146141529Y-78841590D01*
X146143156Y-78775000D01*
X146124852Y-78552361D01*
X146070431Y-78335702D01*
X145981354Y-78130840D01*
X145860014Y-77943277D01*
X145709670Y-77778051D01*
X145705619Y-77774852D01*
X145705615Y-77774848D01*
X145538414Y-77642800D01*
X145538410Y-77642798D01*
X145534359Y-77639598D01*
X145493053Y-77616796D01*
X145443084Y-77566364D01*
X145428312Y-77496921D01*
X145453428Y-77430516D01*
X145480780Y-77403909D01*
X145524603Y-77372650D01*
X145659860Y-77276173D01*
X145818096Y-77118489D01*
X145836318Y-77093131D01*
X145945435Y-76941277D01*
X145948453Y-76937077D01*
X145972000Y-76889434D01*
X146045136Y-76741453D01*
X146045137Y-76741451D01*
X146047430Y-76736811D01*
X146112370Y-76523069D01*
X146141529Y-76301590D01*
X146143156Y-76235000D01*
X146124852Y-76012361D01*
X146070431Y-75795702D01*
X145981354Y-75590840D01*
X145894783Y-75457022D01*
X145862822Y-75407617D01*
X145862820Y-75407614D01*
X145860014Y-75403277D01*
X145856540Y-75399459D01*
X145856533Y-75399450D01*
X145712435Y-75241088D01*
X145681383Y-75177242D01*
X145689779Y-75106744D01*
X145734956Y-75051976D01*
X145761400Y-75038307D01*
X145868052Y-74998325D01*
X145883649Y-74989786D01*
X145985724Y-74913285D01*
X145998285Y-74900724D01*
X146074786Y-74798649D01*
X146083324Y-74783054D01*
X146128478Y-74662606D01*
X146132105Y-74647351D01*
X146137631Y-74596486D01*
X146138000Y-74589672D01*
X146138000Y-73967115D01*
X146133525Y-73951876D01*
X146132135Y-73950671D01*
X146124452Y-73949000D01*
X143440116Y-73949000D01*
X143424877Y-73953475D01*
X143423672Y-73954865D01*
X143422001Y-73962548D01*
X143422001Y-74589669D01*
X143422371Y-74596490D01*
X143427895Y-74647352D01*
X143431521Y-74662604D01*
X143476676Y-74783054D01*
X143485214Y-74798649D01*
X143561715Y-74900724D01*
X143574276Y-74913285D01*
X143676351Y-74989786D01*
X143691946Y-74998324D01*
X143800827Y-75039142D01*
X143857591Y-75081784D01*
X143882291Y-75148345D01*
X143867083Y-75217694D01*
X143847691Y-75244175D01*
X143762838Y-75332969D01*
X143720629Y-75377138D01*
X143717715Y-75381410D01*
X143717714Y-75381411D01*
X143666136Y-75457022D01*
X143594743Y-75561680D01*
X143500688Y-75764305D01*
X143440989Y-75979570D01*
X143417251Y-76201695D01*
X143417548Y-76206848D01*
X143417548Y-76206851D01*
X143425982Y-76353124D01*
X143430110Y-76424715D01*
X143431247Y-76429761D01*
X143431248Y-76429767D01*
X143443020Y-76482000D01*
X143479222Y-76642639D01*
X143563266Y-76849616D01*
X143614019Y-76932438D01*
X143649861Y-76990926D01*
X143679987Y-77040088D01*
X143826250Y-77208938D01*
X143998126Y-77351632D01*
X144068595Y-77392811D01*
X144071445Y-77394476D01*
X144120169Y-77446114D01*
X144133240Y-77515897D01*
X144106509Y-77581669D01*
X144066055Y-77615027D01*
X144053607Y-77621507D01*
X144049474Y-77624610D01*
X144049471Y-77624612D01*
X144025247Y-77642800D01*
X143874965Y-77755635D01*
X143720629Y-77917138D01*
X143594743Y-78101680D01*
X143500688Y-78304305D01*
X143440989Y-78519570D01*
X143417251Y-78741695D01*
X143417548Y-78746848D01*
X143417548Y-78746851D01*
X143423011Y-78841590D01*
X143430110Y-78964715D01*
X143431247Y-78969761D01*
X143431248Y-78969767D01*
X143443946Y-79026110D01*
X143439410Y-79096962D01*
X143410124Y-79142906D01*
X139478435Y-83074595D01*
X139416123Y-83108621D01*
X139389340Y-83111500D01*
X130660488Y-83111500D01*
X130592367Y-83091498D01*
X130557275Y-83057770D01*
X130520140Y-83004735D01*
X130520135Y-83004729D01*
X130516977Y-83000219D01*
X130359781Y-82843023D01*
X130355273Y-82839866D01*
X130355270Y-82839864D01*
X130279505Y-82786813D01*
X130177677Y-82715512D01*
X130172695Y-82713189D01*
X130172690Y-82713186D01*
X130067035Y-82663919D01*
X130013750Y-82617002D01*
X129994289Y-82548725D01*
X130014831Y-82480765D01*
X130067035Y-82435529D01*
X130172445Y-82386376D01*
X130181931Y-82380898D01*
X130225764Y-82350207D01*
X130234139Y-82339729D01*
X130227071Y-82326281D01*
X129552812Y-81652022D01*
X129538868Y-81644408D01*
X129537035Y-81644539D01*
X129530420Y-81648790D01*
X128852207Y-82327003D01*
X128845777Y-82338777D01*
X128855074Y-82350793D01*
X128898069Y-82380898D01*
X128907555Y-82386376D01*
X129012965Y-82435529D01*
X129066250Y-82482446D01*
X129085711Y-82550723D01*
X129065169Y-82618683D01*
X129012965Y-82663919D01*
X128907311Y-82713186D01*
X128907306Y-82713189D01*
X128902324Y-82715512D01*
X128897817Y-82718668D01*
X128897815Y-82718669D01*
X128724730Y-82839864D01*
X128724727Y-82839866D01*
X128720219Y-82843023D01*
X128563023Y-83000219D01*
X128559866Y-83004727D01*
X128559864Y-83004730D01*
X128438669Y-83177815D01*
X128435512Y-83182324D01*
X128433189Y-83187306D01*
X128433186Y-83187311D01*
X128343883Y-83378822D01*
X128341560Y-83383804D01*
X128284022Y-83598537D01*
X128264647Y-83820000D01*
X128284022Y-84041463D01*
X128341560Y-84256196D01*
X128343882Y-84261177D01*
X128343883Y-84261178D01*
X128433186Y-84452689D01*
X128433189Y-84452694D01*
X128435512Y-84457676D01*
X128438668Y-84462183D01*
X128438669Y-84462185D01*
X128559861Y-84635265D01*
X128563023Y-84639781D01*
X128720219Y-84796977D01*
X128724727Y-84800134D01*
X128724730Y-84800136D01*
X128800495Y-84853187D01*
X128902323Y-84924488D01*
X128907305Y-84926811D01*
X128907310Y-84926814D01*
X129012373Y-84975805D01*
X129065658Y-85022722D01*
X129085119Y-85090999D01*
X129064577Y-85158959D01*
X129012373Y-85204195D01*
X128907311Y-85253186D01*
X128907306Y-85253189D01*
X128902324Y-85255512D01*
X128897817Y-85258668D01*
X128897815Y-85258669D01*
X128724730Y-85379864D01*
X128724727Y-85379866D01*
X128720219Y-85383023D01*
X128563023Y-85540219D01*
X128559866Y-85544727D01*
X128559864Y-85544730D01*
X128512969Y-85611703D01*
X128435512Y-85722324D01*
X128433189Y-85727306D01*
X128433186Y-85727311D01*
X128396827Y-85805283D01*
X128341560Y-85923804D01*
X128304716Y-86061309D01*
X128293873Y-86101774D01*
X128256921Y-86162397D01*
X128193061Y-86193418D01*
X128122566Y-86184990D01*
X128083071Y-86158258D01*
X123210288Y-81285475D01*
X128265628Y-81285475D01*
X128284038Y-81495896D01*
X128285941Y-81506691D01*
X128340609Y-81710715D01*
X128344355Y-81721007D01*
X128433623Y-81912441D01*
X128439103Y-81921932D01*
X128469794Y-81965765D01*
X128480271Y-81974140D01*
X128493718Y-81967072D01*
X129167978Y-81292812D01*
X129174356Y-81281132D01*
X129904408Y-81281132D01*
X129904539Y-81282965D01*
X129908790Y-81289580D01*
X130587003Y-81967793D01*
X130598777Y-81974223D01*
X130610793Y-81964926D01*
X130640897Y-81921932D01*
X130646377Y-81912441D01*
X130735645Y-81721007D01*
X130739391Y-81710715D01*
X130794059Y-81506691D01*
X130795962Y-81495896D01*
X130814372Y-81285475D01*
X130814372Y-81274525D01*
X130795962Y-81064104D01*
X130794059Y-81053309D01*
X130739391Y-80849285D01*
X130735645Y-80838993D01*
X130646377Y-80647559D01*
X130640897Y-80638068D01*
X130610206Y-80594235D01*
X130599729Y-80585860D01*
X130586282Y-80592928D01*
X129912022Y-81267188D01*
X129904408Y-81281132D01*
X129174356Y-81281132D01*
X129175592Y-81278868D01*
X129175461Y-81277035D01*
X129171210Y-81270420D01*
X128492997Y-80592207D01*
X128481223Y-80585777D01*
X128469207Y-80595074D01*
X128439103Y-80638068D01*
X128433623Y-80647559D01*
X128344355Y-80838993D01*
X128340609Y-80849285D01*
X128285941Y-81053309D01*
X128284038Y-81064104D01*
X128265628Y-81274525D01*
X128265628Y-81285475D01*
X123210288Y-81285475D01*
X122145084Y-80220271D01*
X128845860Y-80220271D01*
X128852928Y-80233718D01*
X129527188Y-80907978D01*
X129541132Y-80915592D01*
X129542965Y-80915461D01*
X129549580Y-80911210D01*
X130227793Y-80232997D01*
X130234223Y-80221223D01*
X130224926Y-80209207D01*
X130181931Y-80179102D01*
X130172445Y-80173624D01*
X129981007Y-80084355D01*
X129970715Y-80080609D01*
X129766691Y-80025941D01*
X129755896Y-80024038D01*
X129545475Y-80005628D01*
X129534525Y-80005628D01*
X129324104Y-80024038D01*
X129313309Y-80025941D01*
X129109285Y-80080609D01*
X129098993Y-80084355D01*
X128907559Y-80173623D01*
X128898068Y-80179103D01*
X128854235Y-80209794D01*
X128845860Y-80220271D01*
X122145084Y-80220271D01*
X121448408Y-79523595D01*
X121414382Y-79461283D01*
X121419447Y-79390468D01*
X121461994Y-79333632D01*
X121528514Y-79308821D01*
X121537503Y-79308500D01*
X132034477Y-79308500D01*
X132050924Y-79309578D01*
X132080000Y-79313406D01*
X132088188Y-79312328D01*
X132117265Y-79308500D01*
X132220220Y-79294946D01*
X132228408Y-79293868D01*
X132366703Y-79236584D01*
X132485459Y-79145459D01*
X132576584Y-79026703D01*
X132633868Y-78888408D01*
X132653406Y-78740000D01*
X132649578Y-78710923D01*
X132648500Y-78694477D01*
X132648500Y-73422885D01*
X143422000Y-73422885D01*
X143426475Y-73438124D01*
X143427865Y-73439329D01*
X143435548Y-73441000D01*
X144507885Y-73441000D01*
X144523124Y-73436525D01*
X144524329Y-73435135D01*
X144526000Y-73427452D01*
X144526000Y-73422885D01*
X145034000Y-73422885D01*
X145038475Y-73438124D01*
X145039865Y-73439329D01*
X145047548Y-73441000D01*
X146119884Y-73441000D01*
X146135123Y-73436525D01*
X146136328Y-73435135D01*
X146137999Y-73427452D01*
X146137999Y-72800331D01*
X146137629Y-72793510D01*
X146132105Y-72742648D01*
X146128479Y-72727396D01*
X146083324Y-72606946D01*
X146074786Y-72591351D01*
X145998285Y-72489276D01*
X145985724Y-72476715D01*
X145883649Y-72400214D01*
X145868054Y-72391676D01*
X145747606Y-72346522D01*
X145732351Y-72342895D01*
X145681486Y-72337369D01*
X145674672Y-72337000D01*
X145052115Y-72337000D01*
X145036876Y-72341475D01*
X145035671Y-72342865D01*
X145034000Y-72350548D01*
X145034000Y-73422885D01*
X144526000Y-73422885D01*
X144526000Y-72355116D01*
X144521525Y-72339877D01*
X144520135Y-72338672D01*
X144512452Y-72337001D01*
X143885331Y-72337001D01*
X143878510Y-72337371D01*
X143827648Y-72342895D01*
X143812396Y-72346521D01*
X143691946Y-72391676D01*
X143676351Y-72400214D01*
X143574276Y-72476715D01*
X143561715Y-72489276D01*
X143485214Y-72591351D01*
X143476676Y-72606946D01*
X143431522Y-72727394D01*
X143427895Y-72742649D01*
X143422369Y-72793514D01*
X143422000Y-72800328D01*
X143422000Y-73422885D01*
X132648500Y-73422885D01*
X132648500Y-71165523D01*
X132649578Y-71149077D01*
X132652328Y-71128188D01*
X132653406Y-71120000D01*
X132633868Y-70971592D01*
X132576584Y-70833297D01*
X132485459Y-70714541D01*
X132366703Y-70623416D01*
X132228408Y-70566132D01*
X132117265Y-70551500D01*
X132080000Y-70546594D01*
X132071812Y-70547672D01*
X132050923Y-70550422D01*
X132034477Y-70551500D01*
X104185523Y-70551500D01*
X104169077Y-70550422D01*
X104148188Y-70547672D01*
X104140000Y-70546594D01*
X104102735Y-70551500D01*
X103991592Y-70566132D01*
X103853297Y-70623416D01*
X103734541Y-70714541D01*
X103643416Y-70833297D01*
X103586132Y-70971592D01*
X103566594Y-71120000D01*
X103567672Y-71128188D01*
X103570422Y-71149077D01*
X103571500Y-71165523D01*
X103571500Y-78694477D01*
X103570422Y-78710923D01*
X103566594Y-78740000D01*
X103571500Y-78777265D01*
X103579969Y-78841590D01*
X103583321Y-78867054D01*
X103572382Y-78937203D01*
X103525253Y-78990301D01*
X103458399Y-79009500D01*
X103043416Y-79009500D01*
X103023707Y-79007949D01*
X103009809Y-79005748D01*
X103003222Y-79006093D01*
X103003217Y-79006093D01*
X102941519Y-79009327D01*
X102934925Y-79009500D01*
X102914390Y-79009500D01*
X102908222Y-79010148D01*
X102893960Y-79011647D01*
X102887385Y-79012164D01*
X102825696Y-79015397D01*
X102825695Y-79015397D01*
X102819096Y-79015743D01*
X102805508Y-79019384D01*
X102786061Y-79022988D01*
X102778644Y-79023767D01*
X102778640Y-79023768D01*
X102772072Y-79024458D01*
X102715276Y-79042912D01*
X102707009Y-79045598D01*
X102700685Y-79047471D01*
X102641010Y-79063461D01*
X102641006Y-79063462D01*
X102634630Y-79065171D01*
X102628748Y-79068168D01*
X102622093Y-79071559D01*
X102603826Y-79079125D01*
X102596728Y-79081431D01*
X102596726Y-79081432D01*
X102590444Y-79083473D01*
X102584722Y-79086776D01*
X102584721Y-79086777D01*
X102531218Y-79117667D01*
X102525423Y-79120814D01*
X102464470Y-79151871D01*
X102459342Y-79156024D01*
X102459340Y-79156025D01*
X102453534Y-79160727D01*
X102437237Y-79171927D01*
X102430776Y-79175657D01*
X102430772Y-79175660D01*
X102425056Y-79178960D01*
X102420150Y-79183377D01*
X102420145Y-79183381D01*
X102374231Y-79224722D01*
X102369216Y-79229006D01*
X102360718Y-79235888D01*
X102353259Y-79241928D01*
X102338744Y-79256443D01*
X102333959Y-79260984D01*
X102283134Y-79306747D01*
X102279255Y-79312086D01*
X102279254Y-79312087D01*
X102274860Y-79318135D01*
X102262019Y-79333168D01*
X94040592Y-87554595D01*
X93978280Y-87588621D01*
X93951497Y-87591500D01*
X93131866Y-87591500D01*
X93069684Y-87598255D01*
X92933295Y-87649385D01*
X92816739Y-87736739D01*
X92729385Y-87853295D01*
X92678255Y-87989684D01*
X92671500Y-88051866D01*
X92671500Y-89748134D01*
X92678255Y-89810316D01*
X92729385Y-89946705D01*
X92816739Y-90063261D01*
X92933295Y-90150615D01*
X92941703Y-90153767D01*
X92989730Y-90171772D01*
X93046495Y-90214414D01*
X93071194Y-90280976D01*
X93071500Y-90289754D01*
X93071500Y-100210246D01*
X93051498Y-100278367D01*
X92997842Y-100324860D01*
X92989730Y-100328228D01*
X92970725Y-100335353D01*
X92933295Y-100349385D01*
X92816739Y-100436739D01*
X92729385Y-100553295D01*
X92678255Y-100689684D01*
X92671500Y-100751866D01*
X92671500Y-101571497D01*
X92651498Y-101639618D01*
X92634595Y-101660592D01*
X90740592Y-103554595D01*
X90678280Y-103588621D01*
X90651497Y-103591500D01*
X87148503Y-103591500D01*
X87080382Y-103571498D01*
X87059408Y-103554595D01*
X86443530Y-102938717D01*
X86409504Y-102876405D01*
X86414569Y-102805590D01*
X86457116Y-102748754D01*
X86469624Y-102740504D01*
X86480998Y-102733937D01*
X86533048Y-102697491D01*
X86541424Y-102687012D01*
X86534356Y-102673566D01*
X85549885Y-101689095D01*
X85515859Y-101626783D01*
X85517694Y-101601132D01*
X86184408Y-101601132D01*
X86184539Y-101602965D01*
X86188790Y-101609580D01*
X86894287Y-102315077D01*
X86906062Y-102321507D01*
X86918077Y-102312211D01*
X86953931Y-102261006D01*
X86959414Y-102251511D01*
X87051490Y-102054053D01*
X87055236Y-102043761D01*
X87111625Y-101833312D01*
X87113528Y-101822519D01*
X87132517Y-101605475D01*
X87132517Y-101594525D01*
X87113528Y-101377481D01*
X87111625Y-101366688D01*
X87055236Y-101156239D01*
X87051490Y-101145947D01*
X86959414Y-100948489D01*
X86953931Y-100938994D01*
X86917491Y-100886952D01*
X86907012Y-100878576D01*
X86893566Y-100885644D01*
X86192022Y-101587188D01*
X86184408Y-101601132D01*
X85517694Y-101601132D01*
X85520924Y-101555968D01*
X85549885Y-101510905D01*
X86535077Y-100525713D01*
X86541507Y-100513938D01*
X86532211Y-100501923D01*
X86481006Y-100466069D01*
X86471511Y-100460586D01*
X86274053Y-100368510D01*
X86263761Y-100364764D01*
X86053312Y-100308375D01*
X86042519Y-100306472D01*
X85825475Y-100287483D01*
X85814525Y-100287483D01*
X85597481Y-100306472D01*
X85586688Y-100308375D01*
X85376239Y-100364764D01*
X85365947Y-100368510D01*
X85168489Y-100460586D01*
X85158989Y-100466071D01*
X85158090Y-100466701D01*
X85157630Y-100466856D01*
X85154232Y-100468818D01*
X85153838Y-100468135D01*
X85090816Y-100489388D01*
X85021956Y-100472102D01*
X84996197Y-100449066D01*
X84994993Y-100450270D01*
X84988642Y-100443919D01*
X84983261Y-100436739D01*
X84976081Y-100431358D01*
X84976078Y-100431355D01*
X84887225Y-100364764D01*
X84866705Y-100349385D01*
X84730316Y-100298255D01*
X84668134Y-100291500D01*
X83848503Y-100291500D01*
X83780382Y-100271498D01*
X83759408Y-100254595D01*
X81615405Y-98110592D01*
X81581379Y-98048280D01*
X81578500Y-98021497D01*
X81578500Y-92584500D01*
X81598502Y-92516379D01*
X81652158Y-92469886D01*
X81704500Y-92458500D01*
X81718134Y-92458500D01*
X81780316Y-92451745D01*
X81916705Y-92400615D01*
X82033261Y-92313261D01*
X82120615Y-92196705D01*
X82171745Y-92060316D01*
X82178500Y-91998134D01*
X82178500Y-90844669D01*
X85462001Y-90844669D01*
X85462371Y-90851490D01*
X85467895Y-90902352D01*
X85471521Y-90917604D01*
X85516676Y-91038054D01*
X85525214Y-91053649D01*
X85601715Y-91155724D01*
X85614276Y-91168285D01*
X85716351Y-91244786D01*
X85731946Y-91253324D01*
X85852394Y-91298478D01*
X85867649Y-91302105D01*
X85918514Y-91307631D01*
X85925328Y-91308000D01*
X86697885Y-91308000D01*
X86713124Y-91303525D01*
X86714329Y-91302135D01*
X86716000Y-91294452D01*
X86716000Y-91289884D01*
X87224000Y-91289884D01*
X87228475Y-91305123D01*
X87229865Y-91306328D01*
X87237548Y-91307999D01*
X88014669Y-91307999D01*
X88021490Y-91307629D01*
X88072352Y-91302105D01*
X88087604Y-91298479D01*
X88208054Y-91253324D01*
X88223649Y-91244786D01*
X88325724Y-91168285D01*
X88338285Y-91155724D01*
X88414786Y-91053649D01*
X88423324Y-91038054D01*
X88468478Y-90917606D01*
X88472105Y-90902351D01*
X88477631Y-90851486D01*
X88478000Y-90844672D01*
X88478000Y-89172115D01*
X88473525Y-89156876D01*
X88472135Y-89155671D01*
X88464452Y-89154000D01*
X87242115Y-89154000D01*
X87226876Y-89158475D01*
X87225671Y-89159865D01*
X87224000Y-89167548D01*
X87224000Y-91289884D01*
X86716000Y-91289884D01*
X86716000Y-89172115D01*
X86711525Y-89156876D01*
X86710135Y-89155671D01*
X86702452Y-89154000D01*
X85480116Y-89154000D01*
X85464877Y-89158475D01*
X85463672Y-89159865D01*
X85462001Y-89167548D01*
X85462001Y-90844669D01*
X82178500Y-90844669D01*
X82178500Y-90401866D01*
X82171745Y-90339684D01*
X82120615Y-90203295D01*
X82062047Y-90125148D01*
X82037199Y-90058642D01*
X82052252Y-89989259D01*
X82062047Y-89974018D01*
X82114786Y-89903648D01*
X82123324Y-89888054D01*
X82168478Y-89767606D01*
X82172105Y-89752351D01*
X82177631Y-89701486D01*
X82178000Y-89694672D01*
X82178000Y-89172115D01*
X82173525Y-89156876D01*
X82172135Y-89155671D01*
X82164452Y-89154000D01*
X80542000Y-89154000D01*
X80473879Y-89133998D01*
X80427386Y-89080342D01*
X80416000Y-89028000D01*
X80416000Y-88772000D01*
X80436002Y-88703879D01*
X80489658Y-88657386D01*
X80542000Y-88646000D01*
X82159884Y-88646000D01*
X82175123Y-88641525D01*
X82176328Y-88640135D01*
X82177999Y-88632452D01*
X82177999Y-88627885D01*
X85462000Y-88627885D01*
X85466475Y-88643124D01*
X85467865Y-88644329D01*
X85475548Y-88646000D01*
X86697885Y-88646000D01*
X86713124Y-88641525D01*
X86714329Y-88640135D01*
X86716000Y-88632452D01*
X86716000Y-88627885D01*
X87224000Y-88627885D01*
X87228475Y-88643124D01*
X87229865Y-88644329D01*
X87237548Y-88646000D01*
X88459884Y-88646000D01*
X88475123Y-88641525D01*
X88476328Y-88640135D01*
X88477999Y-88632452D01*
X88477999Y-86955331D01*
X88477629Y-86948510D01*
X88472105Y-86897648D01*
X88468479Y-86882396D01*
X88423324Y-86761946D01*
X88414786Y-86746351D01*
X88338285Y-86644276D01*
X88325724Y-86631715D01*
X88223649Y-86555214D01*
X88208054Y-86546676D01*
X88087606Y-86501522D01*
X88072351Y-86497895D01*
X88021486Y-86492369D01*
X88014672Y-86492000D01*
X87242115Y-86492000D01*
X87226876Y-86496475D01*
X87225671Y-86497865D01*
X87224000Y-86505548D01*
X87224000Y-88627885D01*
X86716000Y-88627885D01*
X86716000Y-86510116D01*
X86711525Y-86494877D01*
X86710135Y-86493672D01*
X86702452Y-86492001D01*
X85925331Y-86492001D01*
X85918510Y-86492371D01*
X85867648Y-86497895D01*
X85852396Y-86501521D01*
X85731946Y-86546676D01*
X85716351Y-86555214D01*
X85614276Y-86631715D01*
X85601715Y-86644276D01*
X85525214Y-86746351D01*
X85516676Y-86761946D01*
X85471522Y-86882394D01*
X85467895Y-86897649D01*
X85462369Y-86948514D01*
X85462000Y-86955328D01*
X85462000Y-88627885D01*
X82177999Y-88627885D01*
X82177999Y-88105331D01*
X82177629Y-88098510D01*
X82172105Y-88047648D01*
X82168479Y-88032396D01*
X82123324Y-87911946D01*
X82114786Y-87896352D01*
X82062047Y-87825982D01*
X82037199Y-87759476D01*
X82052252Y-87690093D01*
X82062047Y-87674852D01*
X82068894Y-87665716D01*
X82120615Y-87596705D01*
X82171745Y-87460316D01*
X82178500Y-87398134D01*
X82178500Y-86162126D01*
X82180051Y-86142415D01*
X82180546Y-86139289D01*
X82182257Y-86132904D01*
X82182855Y-86121497D01*
X82185836Y-86064615D01*
X82186353Y-86058040D01*
X82188156Y-86040882D01*
X82188500Y-86037610D01*
X82188500Y-86017075D01*
X82188673Y-86010481D01*
X82191907Y-85948783D01*
X82191907Y-85948778D01*
X82192252Y-85942191D01*
X82190051Y-85928293D01*
X82188500Y-85908584D01*
X82188500Y-77219500D01*
X82208502Y-77151379D01*
X82262158Y-77104886D01*
X82314500Y-77093500D01*
X82828134Y-77093500D01*
X82890316Y-77086745D01*
X83026705Y-77035615D01*
X83143261Y-76948261D01*
X83230615Y-76831705D01*
X83281745Y-76695316D01*
X83283990Y-76674654D01*
X85135618Y-76674654D01*
X85142673Y-76684627D01*
X85173679Y-76710551D01*
X85180598Y-76715579D01*
X85405272Y-76856515D01*
X85412807Y-76860556D01*
X85654520Y-76969694D01*
X85662551Y-76972680D01*
X85916832Y-77048002D01*
X85925184Y-77049869D01*
X86187340Y-77089984D01*
X86195874Y-77090700D01*
X86461045Y-77094867D01*
X86469596Y-77094418D01*
X86732883Y-77062557D01*
X86741284Y-77060955D01*
X86997824Y-76993653D01*
X87005926Y-76990926D01*
X87250949Y-76889434D01*
X87258617Y-76885628D01*
X87487598Y-76751822D01*
X87494679Y-76747009D01*
X87574655Y-76684301D01*
X87583125Y-76672442D01*
X87576608Y-76660818D01*
X86372812Y-75457022D01*
X86358868Y-75449408D01*
X86357035Y-75449539D01*
X86350420Y-75453790D01*
X85142910Y-76661300D01*
X85135618Y-76674654D01*
X83283990Y-76674654D01*
X83288500Y-76633134D01*
X83288500Y-75068204D01*
X84347665Y-75068204D01*
X84362932Y-75332969D01*
X84364005Y-75341470D01*
X84415065Y-75601722D01*
X84417276Y-75609974D01*
X84503184Y-75860894D01*
X84506499Y-75868779D01*
X84625664Y-76105713D01*
X84630020Y-76113079D01*
X84759347Y-76301250D01*
X84769601Y-76309594D01*
X84783342Y-76302448D01*
X85987978Y-75097812D01*
X85994356Y-75086132D01*
X86724408Y-75086132D01*
X86724539Y-75087965D01*
X86728790Y-75094580D01*
X87935730Y-76301520D01*
X87947939Y-76308187D01*
X87959439Y-76299497D01*
X88056831Y-76166913D01*
X88061418Y-76159685D01*
X88187962Y-75926621D01*
X88191530Y-75918827D01*
X88285271Y-75670750D01*
X88287748Y-75662544D01*
X88346954Y-75404038D01*
X88348294Y-75395577D01*
X88372031Y-75129616D01*
X88372277Y-75124677D01*
X88372666Y-75087485D01*
X88372523Y-75082519D01*
X88354362Y-74816123D01*
X88353201Y-74807649D01*
X88299419Y-74547944D01*
X88297120Y-74539709D01*
X88208588Y-74289705D01*
X88205191Y-74281854D01*
X88083550Y-74046178D01*
X88079122Y-74038866D01*
X87960031Y-73869417D01*
X87949509Y-73861037D01*
X87936121Y-73868089D01*
X86732022Y-75072188D01*
X86724408Y-75086132D01*
X85994356Y-75086132D01*
X85995592Y-75083868D01*
X85995461Y-75082035D01*
X85991210Y-75075420D01*
X84783814Y-73868024D01*
X84771804Y-73861466D01*
X84760064Y-73870434D01*
X84651935Y-74020911D01*
X84647418Y-74028196D01*
X84523325Y-74262567D01*
X84519839Y-74270395D01*
X84428700Y-74519446D01*
X84426311Y-74527670D01*
X84369812Y-74786795D01*
X84368563Y-74795250D01*
X84347754Y-75059653D01*
X84347665Y-75068204D01*
X83288500Y-75068204D01*
X83288500Y-73536866D01*
X83284224Y-73497500D01*
X85136584Y-73497500D01*
X85142980Y-73508770D01*
X86347188Y-74712978D01*
X86361132Y-74720592D01*
X86362965Y-74720461D01*
X86369580Y-74716210D01*
X87576604Y-73509186D01*
X87583795Y-73496017D01*
X87576473Y-73485780D01*
X87529233Y-73447115D01*
X87522261Y-73442160D01*
X87296122Y-73303582D01*
X87288552Y-73299624D01*
X87045704Y-73193022D01*
X87037644Y-73190120D01*
X86782592Y-73117467D01*
X86774214Y-73115685D01*
X86511656Y-73078318D01*
X86503111Y-73077691D01*
X86237908Y-73076302D01*
X86229374Y-73076839D01*
X85966433Y-73111456D01*
X85958035Y-73113149D01*
X85702238Y-73183127D01*
X85694143Y-73185946D01*
X85450199Y-73289997D01*
X85442577Y-73293881D01*
X85215013Y-73430075D01*
X85207981Y-73434962D01*
X85145053Y-73485377D01*
X85136584Y-73497500D01*
X83284224Y-73497500D01*
X83281745Y-73474684D01*
X83230615Y-73338295D01*
X83143261Y-73221739D01*
X83026705Y-73134385D01*
X82890316Y-73083255D01*
X82828134Y-73076500D01*
X79731866Y-73076500D01*
X79669684Y-73083255D01*
X79533295Y-73134385D01*
X79416739Y-73221739D01*
X79329385Y-73338295D01*
X79278255Y-73474684D01*
X79271500Y-73536866D01*
X79271500Y-76633134D01*
X79278255Y-76695316D01*
X79329385Y-76831705D01*
X79416739Y-76948261D01*
X79533295Y-77035615D01*
X79669684Y-77086745D01*
X79731866Y-77093500D01*
X80245500Y-77093500D01*
X80313621Y-77113502D01*
X80360114Y-77167158D01*
X80371500Y-77219500D01*
X80371500Y-85215500D01*
X80351498Y-85283621D01*
X80297842Y-85330114D01*
X80245500Y-85341500D01*
X79621866Y-85341500D01*
X79559684Y-85348255D01*
X79423295Y-85399385D01*
X79306739Y-85486739D01*
X79219385Y-85603295D01*
X79168255Y-85739684D01*
X79161500Y-85801866D01*
X79161500Y-86121497D01*
X79141498Y-86189618D01*
X79124595Y-86210592D01*
X78485168Y-86850019D01*
X78470135Y-86862860D01*
X78458747Y-86871134D01*
X78448607Y-86882396D01*
X78412984Y-86921959D01*
X78408443Y-86926744D01*
X78393928Y-86941259D01*
X78391852Y-86943823D01*
X78381006Y-86957216D01*
X78376722Y-86962231D01*
X78335381Y-87008145D01*
X78335377Y-87008150D01*
X78330960Y-87013056D01*
X78327660Y-87018772D01*
X78327657Y-87018776D01*
X78323927Y-87025237D01*
X78312727Y-87041533D01*
X78303871Y-87052470D01*
X78272815Y-87113421D01*
X78269669Y-87119215D01*
X78235473Y-87178444D01*
X78233432Y-87184726D01*
X78233431Y-87184728D01*
X78231125Y-87191826D01*
X78223560Y-87210092D01*
X78217171Y-87222630D01*
X78215463Y-87229003D01*
X78215463Y-87229004D01*
X78199469Y-87288695D01*
X78197600Y-87295003D01*
X78176458Y-87360072D01*
X78175768Y-87366637D01*
X78175766Y-87366646D01*
X78174985Y-87374075D01*
X78171383Y-87393509D01*
X78169453Y-87400714D01*
X78167743Y-87407097D01*
X78167398Y-87413688D01*
X78167397Y-87413692D01*
X78164164Y-87475384D01*
X78163647Y-87481958D01*
X78161844Y-87499116D01*
X78161500Y-87502390D01*
X78161500Y-87522926D01*
X78161327Y-87529520D01*
X78158230Y-87588621D01*
X78157748Y-87597810D01*
X78158780Y-87604325D01*
X78159949Y-87611705D01*
X78161500Y-87631417D01*
X78161500Y-90168583D01*
X78159949Y-90188292D01*
X78157748Y-90202190D01*
X75508500Y-90202190D01*
X75508500Y-67634500D01*
X75528502Y-67566379D01*
X75582158Y-67519886D01*
X75634500Y-67508500D01*
X157365500Y-67508500D01*
X157433621Y-67528502D01*
G37*
%TD.AperFunction*%
%TD*%
M02*
