%TF.GenerationSoftware,KiCad,Pcbnew,(6.0.11)*%
%TF.CreationDate,2026-08-16T14:16:16+05:30*%
%TF.ProjectId,pcb,7063622e-6b69-4636-9164-5f7063625858,rev?*%
%TF.SameCoordinates,Original*%
%TF.FileFunction,Legend,Top*%
%TF.FilePolarity,Positive*%
%FSLAX46Y46*%
G04 Gerber Fmt 4.6, Leading zero omitted, Abs format (unit mm)*
G04 Created by KiCad (PCBNEW (6.0.11)) date 2026-08-16 14:16:16*
%MOMM*%
%LPD*%
G01*
G04 APERTURE LIST*
%ADD10C,0.150000*%
%ADD11C,0.120000*%
G04 APERTURE END LIST*
D10*
%TO.C,0.1u*%
X169575314Y-106132380D02*
X169670552Y-106132380D01*
X169765790Y-106180000D01*
X169813409Y-106227619D01*
X169861028Y-106322857D01*
X169908647Y-106513333D01*
X169908647Y-106751428D01*
X169861028Y-106941904D01*
X169813409Y-107037142D01*
X169765790Y-107084761D01*
X169670552Y-107132380D01*
X169575314Y-107132380D01*
X169480076Y-107084761D01*
X169432457Y-107037142D01*
X169384838Y-106941904D01*
X169337219Y-106751428D01*
X169337219Y-106513333D01*
X169384838Y-106322857D01*
X169432457Y-106227619D01*
X169480076Y-106180000D01*
X169575314Y-106132380D01*
X170337219Y-107037142D02*
X170384838Y-107084761D01*
X170337219Y-107132380D01*
X170289600Y-107084761D01*
X170337219Y-107037142D01*
X170337219Y-107132380D01*
X171337219Y-107132380D02*
X170765790Y-107132380D01*
X171051504Y-107132380D02*
X171051504Y-106132380D01*
X170956266Y-106275238D01*
X170861028Y-106370476D01*
X170765790Y-106418095D01*
X172194361Y-106465714D02*
X172194361Y-107132380D01*
X171765790Y-106465714D02*
X171765790Y-106989523D01*
X171813409Y-107084761D01*
X171908647Y-107132380D01*
X172051504Y-107132380D01*
X172146742Y-107084761D01*
X172194361Y-107037142D01*
%TO.C,IC 555*%
X168327676Y-100731580D02*
X168327676Y-99731580D01*
X169375295Y-100636342D02*
X169327676Y-100683961D01*
X169184819Y-100731580D01*
X169089580Y-100731580D01*
X168946723Y-100683961D01*
X168851485Y-100588723D01*
X168803866Y-100493485D01*
X168756247Y-100303009D01*
X168756247Y-100160152D01*
X168803866Y-99969676D01*
X168851485Y-99874438D01*
X168946723Y-99779200D01*
X169089580Y-99731580D01*
X169184819Y-99731580D01*
X169327676Y-99779200D01*
X169375295Y-99826819D01*
X171041961Y-99731580D02*
X170565771Y-99731580D01*
X170518152Y-100207771D01*
X170565771Y-100160152D01*
X170661009Y-100112533D01*
X170899104Y-100112533D01*
X170994342Y-100160152D01*
X171041961Y-100207771D01*
X171089580Y-100303009D01*
X171089580Y-100541104D01*
X171041961Y-100636342D01*
X170994342Y-100683961D01*
X170899104Y-100731580D01*
X170661009Y-100731580D01*
X170565771Y-100683961D01*
X170518152Y-100636342D01*
X171994342Y-99731580D02*
X171518152Y-99731580D01*
X171470533Y-100207771D01*
X171518152Y-100160152D01*
X171613390Y-100112533D01*
X171851485Y-100112533D01*
X171946723Y-100160152D01*
X171994342Y-100207771D01*
X172041961Y-100303009D01*
X172041961Y-100541104D01*
X171994342Y-100636342D01*
X171946723Y-100683961D01*
X171851485Y-100731580D01*
X171613390Y-100731580D01*
X171518152Y-100683961D01*
X171470533Y-100636342D01*
X172946723Y-99731580D02*
X172470533Y-99731580D01*
X172422914Y-100207771D01*
X172470533Y-100160152D01*
X172565771Y-100112533D01*
X172803866Y-100112533D01*
X172899104Y-100160152D01*
X172946723Y-100207771D01*
X172994342Y-100303009D01*
X172994342Y-100541104D01*
X172946723Y-100636342D01*
X172899104Y-100683961D01*
X172803866Y-100731580D01*
X172565771Y-100731580D01*
X172470533Y-100683961D01*
X172422914Y-100636342D01*
%TO.C,+Bat-*%
X177441504Y-100604628D02*
X178203409Y-100604628D01*
X177822457Y-100985580D02*
X177822457Y-100223676D01*
X179012933Y-100461771D02*
X179155790Y-100509390D01*
X179203409Y-100557009D01*
X179251028Y-100652247D01*
X179251028Y-100795104D01*
X179203409Y-100890342D01*
X179155790Y-100937961D01*
X179060552Y-100985580D01*
X178679600Y-100985580D01*
X178679600Y-99985580D01*
X179012933Y-99985580D01*
X179108171Y-100033200D01*
X179155790Y-100080819D01*
X179203409Y-100176057D01*
X179203409Y-100271295D01*
X179155790Y-100366533D01*
X179108171Y-100414152D01*
X179012933Y-100461771D01*
X178679600Y-100461771D01*
X180108171Y-100985580D02*
X180108171Y-100461771D01*
X180060552Y-100366533D01*
X179965314Y-100318914D01*
X179774838Y-100318914D01*
X179679600Y-100366533D01*
X180108171Y-100937961D02*
X180012933Y-100985580D01*
X179774838Y-100985580D01*
X179679600Y-100937961D01*
X179631980Y-100842723D01*
X179631980Y-100747485D01*
X179679600Y-100652247D01*
X179774838Y-100604628D01*
X180012933Y-100604628D01*
X180108171Y-100557009D01*
X180441504Y-100318914D02*
X180822457Y-100318914D01*
X180584361Y-99985580D02*
X180584361Y-100842723D01*
X180631980Y-100937961D01*
X180727219Y-100985580D01*
X180822457Y-100985580D01*
X181155790Y-100604628D02*
X181917695Y-100604628D01*
%TO.C,10k*%
X159067580Y-90816038D02*
X159067580Y-91387466D01*
X159067580Y-91101752D02*
X158067580Y-91101752D01*
X158210438Y-91196990D01*
X158305676Y-91292228D01*
X158353295Y-91387466D01*
X158067580Y-90196990D02*
X158067580Y-90101752D01*
X158115200Y-90006514D01*
X158162819Y-89958895D01*
X158258057Y-89911276D01*
X158448533Y-89863657D01*
X158686628Y-89863657D01*
X158877104Y-89911276D01*
X158972342Y-89958895D01*
X159019961Y-90006514D01*
X159067580Y-90101752D01*
X159067580Y-90196990D01*
X159019961Y-90292228D01*
X158972342Y-90339847D01*
X158877104Y-90387466D01*
X158686628Y-90435085D01*
X158448533Y-90435085D01*
X158258057Y-90387466D01*
X158162819Y-90339847D01*
X158115200Y-90292228D01*
X158067580Y-90196990D01*
X159067580Y-89435085D02*
X158067580Y-89435085D01*
X158686628Y-89339847D02*
X159067580Y-89054133D01*
X158400914Y-89054133D02*
X158781866Y-89435085D01*
%TO.C,47k*%
X164837314Y-103722876D02*
X165503980Y-103722876D01*
X164456361Y-103960971D02*
X165170647Y-104199066D01*
X165170647Y-103580019D01*
X164503980Y-103294304D02*
X164503980Y-102627638D01*
X165503980Y-103056209D01*
X165503980Y-102246685D02*
X164503980Y-102246685D01*
X165123028Y-102151447D02*
X165503980Y-101865733D01*
X164837314Y-101865733D02*
X165218266Y-102246685D01*
%TO.C,out + -*%
X183027580Y-96332323D02*
X182979961Y-96427561D01*
X182932342Y-96475180D01*
X182837104Y-96522800D01*
X182551390Y-96522800D01*
X182456152Y-96475180D01*
X182408533Y-96427561D01*
X182360914Y-96332323D01*
X182360914Y-96189466D01*
X182408533Y-96094228D01*
X182456152Y-96046609D01*
X182551390Y-95998990D01*
X182837104Y-95998990D01*
X182932342Y-96046609D01*
X182979961Y-96094228D01*
X183027580Y-96189466D01*
X183027580Y-96332323D01*
X182360914Y-95141847D02*
X183027580Y-95141847D01*
X182360914Y-95570419D02*
X182884723Y-95570419D01*
X182979961Y-95522800D01*
X183027580Y-95427561D01*
X183027580Y-95284704D01*
X182979961Y-95189466D01*
X182932342Y-95141847D01*
X182360914Y-94808514D02*
X182360914Y-94427561D01*
X182027580Y-94665657D02*
X182884723Y-94665657D01*
X182979961Y-94618038D01*
X183027580Y-94522800D01*
X183027580Y-94427561D01*
X182646628Y-93332323D02*
X182646628Y-92570419D01*
X183027580Y-92951371D02*
X182265676Y-92951371D01*
X182646628Y-91332323D02*
X182646628Y-90570419D01*
%TO.C,220k*%
X169299142Y-82115219D02*
X169346761Y-82067600D01*
X169442000Y-82019980D01*
X169680095Y-82019980D01*
X169775333Y-82067600D01*
X169822952Y-82115219D01*
X169870571Y-82210457D01*
X169870571Y-82305695D01*
X169822952Y-82448552D01*
X169251523Y-83019980D01*
X169870571Y-83019980D01*
X170251523Y-82115219D02*
X170299142Y-82067600D01*
X170394380Y-82019980D01*
X170632476Y-82019980D01*
X170727714Y-82067600D01*
X170775333Y-82115219D01*
X170822952Y-82210457D01*
X170822952Y-82305695D01*
X170775333Y-82448552D01*
X170203904Y-83019980D01*
X170822952Y-83019980D01*
X171442000Y-82019980D02*
X171537238Y-82019980D01*
X171632476Y-82067600D01*
X171680095Y-82115219D01*
X171727714Y-82210457D01*
X171775333Y-82400933D01*
X171775333Y-82639028D01*
X171727714Y-82829504D01*
X171680095Y-82924742D01*
X171632476Y-82972361D01*
X171537238Y-83019980D01*
X171442000Y-83019980D01*
X171346761Y-82972361D01*
X171299142Y-82924742D01*
X171251523Y-82829504D01*
X171203904Y-82639028D01*
X171203904Y-82400933D01*
X171251523Y-82210457D01*
X171299142Y-82115219D01*
X171346761Y-82067600D01*
X171442000Y-82019980D01*
X172203904Y-83019980D02*
X172203904Y-82019980D01*
X172299142Y-82639028D02*
X172584857Y-83019980D01*
X172584857Y-82353314D02*
X172203904Y-82734266D01*
D11*
%TO.C,0.1u*%
X173409600Y-104900400D02*
X173409600Y-104585400D01*
X173409600Y-102160400D02*
X168169600Y-102160400D01*
X173409600Y-102475400D02*
X173409600Y-102160400D01*
X168169600Y-102475400D02*
X168169600Y-102160400D01*
X173409600Y-104900400D02*
X168169600Y-104900400D01*
X168169600Y-104900400D02*
X168169600Y-104585400D01*
%TO.C,IC 555*%
X169545600Y-88748400D02*
X167895600Y-88748400D01*
X173195600Y-88748400D02*
X171545600Y-88748400D01*
X173195600Y-99028400D02*
X173195600Y-88748400D01*
X167895600Y-99028400D02*
X173195600Y-99028400D01*
X167895600Y-88748400D02*
X167895600Y-99028400D01*
X169545600Y-88748400D02*
G75*
G03*
X171545600Y-88748400I1000000J0D01*
G01*
%TO.C,+Bat-*%
X181739600Y-107858800D02*
X182509600Y-107858800D01*
X176849600Y-101998800D02*
X182509600Y-101998800D01*
X179199600Y-107298800D02*
X180159600Y-107298800D01*
X176609600Y-108098800D02*
X177109600Y-108098800D01*
X179199600Y-107858800D02*
X180159600Y-107858800D01*
X176849600Y-107858800D02*
X177619600Y-107858800D01*
X181739600Y-107298800D02*
X182509600Y-107298800D01*
X176849600Y-101538800D02*
X176849600Y-107858800D01*
X182509600Y-101538800D02*
X182509600Y-107858800D01*
X176849600Y-101538800D02*
X182509600Y-101538800D01*
X176609600Y-107358800D02*
X176609600Y-108098800D01*
X176849600Y-107298800D02*
X177619600Y-107298800D01*
%TO.C,10k*%
X159615200Y-86950800D02*
X159615200Y-93490800D01*
X159615200Y-93490800D02*
X162355200Y-93490800D01*
X160985200Y-86180800D02*
X160985200Y-86950800D01*
X162355200Y-93490800D02*
X162355200Y-86950800D01*
X162355200Y-86950800D02*
X159615200Y-86950800D01*
X160985200Y-94260800D02*
X160985200Y-93490800D01*
%TO.C,47k*%
X163921600Y-98147400D02*
X163921600Y-107917400D01*
X163921600Y-107917400D02*
X158851600Y-107917400D01*
X163921600Y-98147400D02*
X158851600Y-98147400D01*
X158851600Y-98147400D02*
X158851600Y-107917400D01*
%TO.C,out + -*%
X181162000Y-91759800D02*
X181162000Y-96899800D01*
X178502000Y-90489800D02*
X178502000Y-89159800D01*
X178502000Y-89159800D02*
X179832000Y-89159800D01*
X178502000Y-91759800D02*
X178502000Y-96899800D01*
X178502000Y-91759800D02*
X181162000Y-91759800D01*
X178502000Y-96899800D02*
X181162000Y-96899800D01*
%TO.C,220k*%
X174212000Y-83567600D02*
X167672000Y-83567600D01*
X167672000Y-86307600D02*
X174212000Y-86307600D01*
X174982000Y-84937600D02*
X174212000Y-84937600D01*
X167672000Y-83567600D02*
X167672000Y-86307600D01*
X174212000Y-86307600D02*
X174212000Y-83567600D01*
X166902000Y-84937600D02*
X167672000Y-84937600D01*
%TD*%
M02*
