%TF.GenerationSoftware,KiCad,Pcbnew,(6.0.11)*%
%TF.CreationDate,2026-08-16T14:16:16+05:30*%
%TF.ProjectId,pcb,7063622e-6b69-4636-9164-5f7063625858,rev?*%
%TF.SameCoordinates,Original*%
%TF.FileFunction,Copper,L2,Bot*%
%TF.FilePolarity,Positive*%
%FSLAX46Y46*%
G04 Gerber Fmt 4.6, Leading zero omitted, Abs format (unit mm)*
G04 Created by KiCad (PCBNEW (6.0.11)) date 2026-08-16 14:16:16*
%MOMM*%
%LPD*%
G01*
G04 APERTURE LIST*
%TA.AperFunction,ComponentPad*%
%ADD10C,1.600000*%
%TD*%
%TA.AperFunction,ComponentPad*%
%ADD11R,1.600000X1.600000*%
%TD*%
%TA.AperFunction,ComponentPad*%
%ADD12O,1.600000X1.600000*%
%TD*%
%TA.AperFunction,ComponentPad*%
%ADD13C,2.200000*%
%TD*%
%TA.AperFunction,ComponentPad*%
%ADD14R,2.200000X2.200000*%
%TD*%
%TA.AperFunction,ComponentPad*%
%ADD15C,1.440000*%
%TD*%
%TA.AperFunction,ComponentPad*%
%ADD16R,1.700000X1.700000*%
%TD*%
%TA.AperFunction,ComponentPad*%
%ADD17O,1.700000X1.700000*%
%TD*%
%TA.AperFunction,ViaPad*%
%ADD18C,0.800000*%
%TD*%
%TA.AperFunction,Conductor*%
%ADD19C,0.250000*%
%TD*%
G04 APERTURE END LIST*
D10*
%TO.P,0.1u,2*%
%TO.N,GND*%
X168289600Y-103530400D03*
%TO.P,0.1u,1*%
%TO.N,/TR*%
X173289600Y-103530400D03*
%TD*%
D11*
%TO.P,IC 555,1,GND*%
%TO.N,GND*%
X166735600Y-90078400D03*
D12*
%TO.P,IC 555,2,TR*%
%TO.N,/TR*%
X166735600Y-92618400D03*
%TO.P,IC 555,3,Q*%
%TO.N,/OUT*%
X166735600Y-95158400D03*
%TO.P,IC 555,4,R*%
%TO.N,VCC*%
X166735600Y-97698400D03*
%TO.P,IC 555,5,CV*%
%TO.N,unconnected-(X1-Pad5)*%
X174355600Y-97698400D03*
%TO.P,IC 555,6,THR*%
%TO.N,/TR*%
X174355600Y-95158400D03*
%TO.P,IC 555,7,DIS*%
%TO.N,/DISC*%
X174355600Y-92618400D03*
%TO.P,IC 555,8,VCC*%
%TO.N,VCC*%
X174355600Y-90078400D03*
%TD*%
D13*
%TO.P,+Bat-,2,Pin_2*%
%TO.N,GND*%
X180949600Y-104698800D03*
D14*
%TO.P,+Bat-,1,Pin_1*%
%TO.N,VCC*%
X178409600Y-104698800D03*
%TD*%
D10*
%TO.P,10k,1*%
%TO.N,/R_OUT*%
X160985200Y-95300800D03*
D12*
%TO.P,10k,2*%
%TO.N,VCC*%
X160985200Y-85140800D03*
%TD*%
D15*
%TO.P,47k,3*%
%TO.N,unconnected-(R3-Pad3)*%
X161391600Y-100492400D03*
%TO.P,47k,2*%
%TO.N,/R_OUT*%
X161391600Y-103032400D03*
%TO.P,47k,1*%
%TO.N,/DISC*%
X161391600Y-105572400D03*
%TD*%
D16*
%TO.P,out + -,1,Pin_1*%
%TO.N,GND*%
X179832000Y-90489800D03*
D17*
%TO.P,out + -,2,Pin_2*%
%TO.N,VCC*%
X179832000Y-93029800D03*
%TO.P,out + -,3,Pin_3*%
%TO.N,/OUT*%
X179832000Y-95569800D03*
%TD*%
D12*
%TO.P,220k,2*%
%TO.N,/DISC*%
X176022000Y-84937600D03*
D10*
%TO.P,220k,1*%
%TO.N,/TR*%
X165862000Y-84937600D03*
%TD*%
D18*
%TO.N,GND*%
X174955200Y-88087200D03*
%TD*%
D19*
%TO.N,GND*%
X180949600Y-105714800D02*
X180949600Y-104698800D01*
X180350601Y-106313799D02*
X180949600Y-105714800D01*
X169762999Y-106313799D02*
X180350601Y-106313799D01*
X168289600Y-104840400D02*
X169762999Y-106313799D01*
X168289600Y-103530400D02*
X168289600Y-104840400D01*
X168726800Y-88087200D02*
X174955200Y-88087200D01*
X166735600Y-90078400D02*
X168726800Y-88087200D01*
%TO.N,/R_OUT*%
X159258000Y-100898800D02*
X161391600Y-103032400D01*
X159258000Y-97028000D02*
X159258000Y-100898800D01*
X160985200Y-95300800D02*
X159258000Y-97028000D01*
%TO.N,/DISC*%
X176022000Y-90952000D02*
X174355600Y-92618400D01*
X176022000Y-84937600D02*
X176022000Y-90952000D01*
%TO.N,/TR*%
X172489601Y-102730401D02*
X173289600Y-103530400D01*
X174355600Y-95158400D02*
X172489601Y-97024399D01*
X172489601Y-97024399D02*
X172489601Y-102730401D01*
%TO.N,/DISC*%
X174244000Y-92506800D02*
X174355600Y-92618400D01*
X173177200Y-92506800D02*
X174244000Y-92506800D01*
X172821600Y-94142400D02*
X172821600Y-92862400D01*
X161391600Y-105572400D02*
X172821600Y-94142400D01*
X172821600Y-92862400D02*
X173177200Y-92506800D01*
%TO.N,VCC*%
X166735600Y-97698400D02*
X174355600Y-90078400D01*
%TO.N,/TR*%
X164541200Y-92659200D02*
X164582000Y-92618400D01*
X164582000Y-92618400D02*
X166735600Y-92618400D01*
X163068000Y-91186000D02*
X164541200Y-92659200D01*
X163068000Y-86055200D02*
X163068000Y-91186000D01*
X165862000Y-84937600D02*
X164185600Y-84937600D01*
X164185600Y-84937600D02*
X163068000Y-86055200D01*
%TD*%
%TA.AperFunction,Conductor*%
%TO.N,GND*%
G36*
X183939221Y-81808502D02*
G01*
X183985714Y-81862158D01*
X183997100Y-81914500D01*
X183997100Y-109093500D01*
X183977098Y-109161621D01*
X183923442Y-109208114D01*
X183871100Y-109219500D01*
X157504900Y-109219500D01*
X157436779Y-109199498D01*
X157390286Y-109145842D01*
X157378900Y-109093500D01*
X157378900Y-97007943D01*
X158619780Y-97007943D01*
X158620526Y-97015835D01*
X158623941Y-97051961D01*
X158624500Y-97063819D01*
X158624500Y-100820033D01*
X158623973Y-100831216D01*
X158622298Y-100838709D01*
X158622547Y-100846635D01*
X158622547Y-100846636D01*
X158624438Y-100906786D01*
X158624500Y-100910745D01*
X158624500Y-100938656D01*
X158624997Y-100942590D01*
X158624997Y-100942591D01*
X158625005Y-100942656D01*
X158625938Y-100954493D01*
X158627327Y-100998689D01*
X158632978Y-101018139D01*
X158636987Y-101037500D01*
X158639526Y-101057597D01*
X158642445Y-101064968D01*
X158642445Y-101064970D01*
X158655804Y-101098712D01*
X158659649Y-101109942D01*
X158671982Y-101152393D01*
X158676015Y-101159212D01*
X158676017Y-101159217D01*
X158682293Y-101169828D01*
X158690988Y-101187576D01*
X158698448Y-101206417D01*
X158703110Y-101212833D01*
X158703110Y-101212834D01*
X158724436Y-101242187D01*
X158730952Y-101252107D01*
X158747785Y-101280569D01*
X158753458Y-101290162D01*
X158767779Y-101304483D01*
X158780619Y-101319516D01*
X158792528Y-101335907D01*
X158798634Y-101340958D01*
X158826605Y-101364098D01*
X158835384Y-101372088D01*
X160147767Y-102684471D01*
X160181793Y-102746783D01*
X160180379Y-102806176D01*
X160177142Y-102818258D01*
X160158407Y-103032400D01*
X160177142Y-103246542D01*
X160178566Y-103251855D01*
X160178566Y-103251857D01*
X160219813Y-103405790D01*
X160232778Y-103454177D01*
X160235100Y-103459157D01*
X160235101Y-103459159D01*
X160288258Y-103573153D01*
X160323624Y-103648996D01*
X160446919Y-103825081D01*
X160598919Y-103977081D01*
X160775003Y-104100376D01*
X160779981Y-104102697D01*
X160779984Y-104102699D01*
X160963353Y-104188205D01*
X161016638Y-104235122D01*
X161036099Y-104303400D01*
X161015557Y-104371359D01*
X160963353Y-104416595D01*
X160779985Y-104502101D01*
X160779982Y-104502103D01*
X160775004Y-104504424D01*
X160598919Y-104627719D01*
X160446919Y-104779719D01*
X160323624Y-104955804D01*
X160232778Y-105150623D01*
X160231356Y-105155931D01*
X160231355Y-105155933D01*
X160212990Y-105224471D01*
X160177142Y-105358258D01*
X160158407Y-105572400D01*
X160177142Y-105786542D01*
X160178566Y-105791855D01*
X160178566Y-105791857D01*
X160192409Y-105843517D01*
X160232778Y-105994177D01*
X160235100Y-105999157D01*
X160235101Y-105999159D01*
X160313727Y-106167771D01*
X160323624Y-106188996D01*
X160446919Y-106365081D01*
X160598919Y-106517081D01*
X160775003Y-106640376D01*
X160779981Y-106642697D01*
X160779984Y-106642699D01*
X160964841Y-106728899D01*
X160969823Y-106731222D01*
X160975131Y-106732644D01*
X160975133Y-106732645D01*
X161172143Y-106785434D01*
X161172145Y-106785434D01*
X161177458Y-106786858D01*
X161391600Y-106805593D01*
X161605742Y-106786858D01*
X161611055Y-106785434D01*
X161611057Y-106785434D01*
X161808067Y-106732645D01*
X161808069Y-106732644D01*
X161813377Y-106731222D01*
X161818359Y-106728899D01*
X162003216Y-106642699D01*
X162003219Y-106642697D01*
X162008197Y-106640376D01*
X162184281Y-106517081D01*
X162336281Y-106365081D01*
X162459576Y-106188996D01*
X162469474Y-106167771D01*
X162548099Y-105999159D01*
X162548100Y-105999157D01*
X162550422Y-105994177D01*
X162589876Y-105846934D01*
X176801100Y-105846934D01*
X176807855Y-105909116D01*
X176858985Y-106045505D01*
X176946339Y-106162061D01*
X177062895Y-106249415D01*
X177199284Y-106300545D01*
X177261466Y-106307300D01*
X177538622Y-106307300D01*
X177606743Y-106327302D01*
X177653236Y-106380958D01*
X177663340Y-106451232D01*
X177635706Y-106513615D01*
X177527817Y-106644030D01*
X177524888Y-106649447D01*
X177524886Y-106649450D01*
X177432016Y-106821210D01*
X177432014Y-106821215D01*
X177429086Y-106826630D01*
X177367702Y-107024929D01*
X177367058Y-107031054D01*
X177367058Y-107031055D01*
X177365526Y-107045636D01*
X177346004Y-107231375D01*
X177364818Y-107438103D01*
X177366556Y-107444009D01*
X177366557Y-107444013D01*
X177410073Y-107591868D01*
X177423427Y-107637240D01*
X177519599Y-107821200D01*
X177649671Y-107982977D01*
X177654388Y-107986935D01*
X177654390Y-107986937D01*
X177758281Y-108074112D01*
X177808689Y-108116409D01*
X177814081Y-108119373D01*
X177814085Y-108119376D01*
X177985198Y-108213446D01*
X177990595Y-108216413D01*
X178188461Y-108279179D01*
X178194578Y-108279865D01*
X178194582Y-108279866D01*
X178271198Y-108288459D01*
X178350013Y-108297300D01*
X178461837Y-108297300D01*
X178464893Y-108297000D01*
X178464900Y-108297000D01*
X178610066Y-108282766D01*
X178610069Y-108282765D01*
X178616192Y-108282165D01*
X178748146Y-108242326D01*
X178809007Y-108223952D01*
X178809010Y-108223951D01*
X178814915Y-108222168D01*
X178822235Y-108218276D01*
X178992753Y-108127609D01*
X178992755Y-108127608D01*
X178998199Y-108124713D01*
X179058071Y-108075883D01*
X179154289Y-107997410D01*
X179154292Y-107997407D01*
X179159064Y-107993515D01*
X179291383Y-107833570D01*
X179295476Y-107826001D01*
X179387184Y-107656390D01*
X179387186Y-107656385D01*
X179390114Y-107650970D01*
X179451498Y-107452671D01*
X179453029Y-107438103D01*
X179472552Y-107252354D01*
X179472552Y-107252352D01*
X179473196Y-107246225D01*
X179454382Y-107039497D01*
X179451898Y-107031055D01*
X179397512Y-106846269D01*
X179395773Y-106840360D01*
X179299601Y-106656400D01*
X179183703Y-106512252D01*
X179156607Y-106446630D01*
X179169290Y-106376775D01*
X179217726Y-106324867D01*
X179281900Y-106307300D01*
X179557734Y-106307300D01*
X179619916Y-106300545D01*
X179756305Y-106249415D01*
X179872861Y-106162061D01*
X179925854Y-106091353D01*
X179982713Y-106048838D01*
X180053532Y-106043812D01*
X180092515Y-106059485D01*
X180213106Y-106133383D01*
X180221900Y-106137864D01*
X180294103Y-106167771D01*
X180349384Y-106212319D01*
X180371805Y-106279683D01*
X180354247Y-106348474D01*
X180325521Y-106381823D01*
X180204911Y-106480190D01*
X180204908Y-106480193D01*
X180200136Y-106484085D01*
X180196208Y-106488833D01*
X180196207Y-106488834D01*
X180172839Y-106517081D01*
X180067817Y-106644030D01*
X180064888Y-106649447D01*
X180064886Y-106649450D01*
X179972016Y-106821210D01*
X179972014Y-106821215D01*
X179969086Y-106826630D01*
X179907702Y-107024929D01*
X179907058Y-107031054D01*
X179907058Y-107031055D01*
X179905526Y-107045636D01*
X179886004Y-107231375D01*
X179904818Y-107438103D01*
X179906556Y-107444009D01*
X179906557Y-107444013D01*
X179950073Y-107591868D01*
X179963427Y-107637240D01*
X180059599Y-107821200D01*
X180189671Y-107982977D01*
X180194388Y-107986935D01*
X180194390Y-107986937D01*
X180298281Y-108074112D01*
X180348689Y-108116409D01*
X180354081Y-108119373D01*
X180354085Y-108119376D01*
X180525198Y-108213446D01*
X180530595Y-108216413D01*
X180728461Y-108279179D01*
X180734578Y-108279865D01*
X180734582Y-108279866D01*
X180811198Y-108288459D01*
X180890013Y-108297300D01*
X181001837Y-108297300D01*
X181004893Y-108297000D01*
X181004900Y-108297000D01*
X181150066Y-108282766D01*
X181150069Y-108282765D01*
X181156192Y-108282165D01*
X181288146Y-108242326D01*
X181349007Y-108223952D01*
X181349010Y-108223951D01*
X181354915Y-108222168D01*
X181362235Y-108218276D01*
X181532753Y-108127609D01*
X181532755Y-108127608D01*
X181538199Y-108124713D01*
X181598071Y-108075883D01*
X181694289Y-107997410D01*
X181694292Y-107997407D01*
X181699064Y-107993515D01*
X181831383Y-107833570D01*
X181835476Y-107826001D01*
X181927184Y-107656390D01*
X181927186Y-107656385D01*
X181930114Y-107650970D01*
X181991498Y-107452671D01*
X181993029Y-107438103D01*
X182012552Y-107252354D01*
X182012552Y-107252352D01*
X182013196Y-107246225D01*
X181994382Y-107039497D01*
X181991898Y-107031055D01*
X181937512Y-106846269D01*
X181935773Y-106840360D01*
X181839601Y-106656400D01*
X181709529Y-106494623D01*
X181696971Y-106484085D01*
X181573288Y-106380303D01*
X181533961Y-106321193D01*
X181532835Y-106250205D01*
X181570266Y-106189878D01*
X181606061Y-106167372D01*
X181677300Y-106137864D01*
X181686094Y-106133383D01*
X181880767Y-106014087D01*
X181890227Y-106003630D01*
X181886444Y-105994854D01*
X180679485Y-104787895D01*
X180645459Y-104725583D01*
X180647294Y-104699932D01*
X181314008Y-104699932D01*
X181314139Y-104701765D01*
X181318390Y-104708380D01*
X182242610Y-105632600D01*
X182254990Y-105639360D01*
X182262640Y-105633633D01*
X182384183Y-105435294D01*
X182388664Y-105426500D01*
X182481734Y-105201809D01*
X182484783Y-105192424D01*
X182541559Y-104955937D01*
X182543102Y-104946190D01*
X182562184Y-104703730D01*
X182562184Y-104693870D01*
X182543102Y-104451410D01*
X182541559Y-104441663D01*
X182484783Y-104205176D01*
X182481734Y-104195791D01*
X182388664Y-103971100D01*
X182384183Y-103962306D01*
X182264887Y-103767633D01*
X182254430Y-103758173D01*
X182245654Y-103761956D01*
X181321622Y-104685988D01*
X181314008Y-104699932D01*
X180647294Y-104699932D01*
X180650524Y-104654768D01*
X180679485Y-104609705D01*
X181883400Y-103405790D01*
X181890160Y-103393410D01*
X181884433Y-103385760D01*
X181686094Y-103264217D01*
X181677300Y-103259736D01*
X181452609Y-103166666D01*
X181443224Y-103163617D01*
X181206737Y-103106841D01*
X181196990Y-103105298D01*
X180954530Y-103086216D01*
X180944670Y-103086216D01*
X180702210Y-103105298D01*
X180692463Y-103106841D01*
X180455976Y-103163617D01*
X180446591Y-103166666D01*
X180221900Y-103259736D01*
X180213106Y-103264217D01*
X180092515Y-103338115D01*
X180023981Y-103356653D01*
X179956304Y-103335196D01*
X179925854Y-103306247D01*
X179878243Y-103242720D01*
X179878242Y-103242719D01*
X179872861Y-103235539D01*
X179756305Y-103148185D01*
X179619916Y-103097055D01*
X179557734Y-103090300D01*
X177261466Y-103090300D01*
X177199284Y-103097055D01*
X177062895Y-103148185D01*
X176946339Y-103235539D01*
X176858985Y-103352095D01*
X176807855Y-103488484D01*
X176801100Y-103550666D01*
X176801100Y-105846934D01*
X162589876Y-105846934D01*
X162590792Y-105843517D01*
X162604634Y-105791857D01*
X162604634Y-105791855D01*
X162606058Y-105786542D01*
X162624793Y-105572400D01*
X162606058Y-105358258D01*
X162602821Y-105346176D01*
X162604511Y-105275200D01*
X162635433Y-105224471D01*
X163243442Y-104616462D01*
X167568093Y-104616462D01*
X167577389Y-104628477D01*
X167628594Y-104664331D01*
X167638089Y-104669814D01*
X167835547Y-104761890D01*
X167845839Y-104765636D01*
X168056288Y-104822025D01*
X168067081Y-104823928D01*
X168284125Y-104842917D01*
X168295075Y-104842917D01*
X168512119Y-104823928D01*
X168522912Y-104822025D01*
X168733361Y-104765636D01*
X168743653Y-104761890D01*
X168941111Y-104669814D01*
X168950606Y-104664331D01*
X169002648Y-104627891D01*
X169011024Y-104617412D01*
X169003956Y-104603966D01*
X168302412Y-103902422D01*
X168288468Y-103894808D01*
X168286635Y-103894939D01*
X168280020Y-103899190D01*
X167574523Y-104604687D01*
X167568093Y-104616462D01*
X163243442Y-104616462D01*
X164324029Y-103535875D01*
X166977083Y-103535875D01*
X166996072Y-103752919D01*
X166997975Y-103763712D01*
X167054364Y-103974161D01*
X167058110Y-103984453D01*
X167150186Y-104181911D01*
X167155669Y-104191406D01*
X167192109Y-104243448D01*
X167202588Y-104251824D01*
X167216034Y-104244756D01*
X167917578Y-103543212D01*
X167923956Y-103531532D01*
X168654008Y-103531532D01*
X168654139Y-103533365D01*
X168658390Y-103539980D01*
X169363887Y-104245477D01*
X169375662Y-104251907D01*
X169387677Y-104242611D01*
X169423531Y-104191406D01*
X169429014Y-104181911D01*
X169521090Y-103984453D01*
X169524836Y-103974161D01*
X169581225Y-103763712D01*
X169583128Y-103752919D01*
X169602117Y-103535875D01*
X169602117Y-103524925D01*
X169583128Y-103307881D01*
X169581225Y-103297088D01*
X169524836Y-103086639D01*
X169521090Y-103076347D01*
X169429014Y-102878889D01*
X169423531Y-102869394D01*
X169387091Y-102817352D01*
X169376612Y-102808976D01*
X169363166Y-102816044D01*
X168661622Y-103517588D01*
X168654008Y-103531532D01*
X167923956Y-103531532D01*
X167925192Y-103529268D01*
X167925061Y-103527435D01*
X167920810Y-103520820D01*
X167215313Y-102815323D01*
X167203538Y-102808893D01*
X167191523Y-102818189D01*
X167155669Y-102869394D01*
X167150186Y-102878889D01*
X167058110Y-103076347D01*
X167054364Y-103086639D01*
X166997975Y-103297088D01*
X166996072Y-103307881D01*
X166977083Y-103524925D01*
X166977083Y-103535875D01*
X164324029Y-103535875D01*
X165416516Y-102443388D01*
X167568176Y-102443388D01*
X167575244Y-102456834D01*
X168276788Y-103158378D01*
X168290732Y-103165992D01*
X168292565Y-103165861D01*
X168299180Y-103161610D01*
X169004677Y-102456113D01*
X169011107Y-102444338D01*
X169001811Y-102432323D01*
X168950606Y-102396469D01*
X168941111Y-102390986D01*
X168743653Y-102298910D01*
X168733361Y-102295164D01*
X168522912Y-102238775D01*
X168512119Y-102236872D01*
X168295075Y-102217883D01*
X168284125Y-102217883D01*
X168067081Y-102236872D01*
X168056288Y-102238775D01*
X167845839Y-102295164D01*
X167835547Y-102298910D01*
X167638089Y-102390986D01*
X167628594Y-102396469D01*
X167576552Y-102432909D01*
X167568176Y-102443388D01*
X165416516Y-102443388D01*
X172829970Y-95029935D01*
X172892282Y-94995909D01*
X172963097Y-95000974D01*
X173019933Y-95043521D01*
X173044744Y-95110041D01*
X173044585Y-95130013D01*
X173042581Y-95152915D01*
X173042581Y-95152925D01*
X173042102Y-95158400D01*
X173062057Y-95386487D01*
X173063480Y-95391798D01*
X173063482Y-95391809D01*
X173079059Y-95449941D01*
X173077370Y-95520917D01*
X173046450Y-95571646D01*
X172097337Y-96520758D01*
X172089063Y-96528287D01*
X172082583Y-96532399D01*
X172077158Y-96538176D01*
X172035958Y-96582050D01*
X172033203Y-96584892D01*
X172013466Y-96604629D01*
X172010986Y-96607826D01*
X172003283Y-96616846D01*
X171973015Y-96649078D01*
X171969196Y-96656024D01*
X171969194Y-96656027D01*
X171963253Y-96666833D01*
X171952402Y-96683352D01*
X171939987Y-96699358D01*
X171936842Y-96706627D01*
X171936839Y-96706631D01*
X171922427Y-96739936D01*
X171917210Y-96750586D01*
X171895906Y-96789339D01*
X171893935Y-96797014D01*
X171893935Y-96797015D01*
X171890868Y-96808961D01*
X171884464Y-96827665D01*
X171880557Y-96836695D01*
X171876420Y-96846254D01*
X171875181Y-96854077D01*
X171875178Y-96854087D01*
X171869502Y-96889923D01*
X171867096Y-96901543D01*
X171861758Y-96922334D01*
X171856101Y-96944369D01*
X171856101Y-96964623D01*
X171854550Y-96984333D01*
X171851381Y-97004342D01*
X171852127Y-97012234D01*
X171855542Y-97048360D01*
X171856101Y-97060218D01*
X171856101Y-102651634D01*
X171855574Y-102662817D01*
X171853899Y-102670310D01*
X171854148Y-102678236D01*
X171854148Y-102678237D01*
X171856039Y-102738387D01*
X171856101Y-102742346D01*
X171856101Y-102770257D01*
X171856598Y-102774191D01*
X171856598Y-102774192D01*
X171856606Y-102774257D01*
X171857539Y-102786094D01*
X171858928Y-102830290D01*
X171864579Y-102849740D01*
X171868588Y-102869101D01*
X171871127Y-102889198D01*
X171874046Y-102896569D01*
X171874046Y-102896571D01*
X171887405Y-102930313D01*
X171891250Y-102941543D01*
X171903583Y-102983994D01*
X171907616Y-102990813D01*
X171907618Y-102990818D01*
X171913894Y-103001429D01*
X171922589Y-103019177D01*
X171930049Y-103038018D01*
X171934711Y-103044434D01*
X171934711Y-103044435D01*
X171956037Y-103073788D01*
X171962553Y-103083708D01*
X171985059Y-103121763D01*
X171990665Y-103127369D01*
X171991177Y-103128029D01*
X172017125Y-103194114D01*
X172013326Y-103237864D01*
X171996057Y-103302313D01*
X171976102Y-103530400D01*
X171996057Y-103758487D01*
X171997481Y-103763800D01*
X171997481Y-103763802D01*
X172050671Y-103962306D01*
X172055316Y-103979643D01*
X172057639Y-103984624D01*
X172057639Y-103984625D01*
X172149751Y-104182162D01*
X172149754Y-104182167D01*
X172152077Y-104187149D01*
X172283402Y-104374700D01*
X172445300Y-104536598D01*
X172449808Y-104539755D01*
X172449811Y-104539757D01*
X172527989Y-104594498D01*
X172632851Y-104667923D01*
X172637833Y-104670246D01*
X172637838Y-104670249D01*
X172834365Y-104761890D01*
X172840357Y-104764684D01*
X172845665Y-104766106D01*
X172845667Y-104766107D01*
X173056198Y-104822519D01*
X173056200Y-104822519D01*
X173061513Y-104823943D01*
X173289600Y-104843898D01*
X173517687Y-104823943D01*
X173523000Y-104822519D01*
X173523002Y-104822519D01*
X173733533Y-104766107D01*
X173733535Y-104766106D01*
X173738843Y-104764684D01*
X173744835Y-104761890D01*
X173941362Y-104670249D01*
X173941367Y-104670246D01*
X173946349Y-104667923D01*
X174051211Y-104594498D01*
X174129389Y-104539757D01*
X174129392Y-104539755D01*
X174133900Y-104536598D01*
X174295798Y-104374700D01*
X174427123Y-104187149D01*
X174429446Y-104182167D01*
X174429449Y-104182162D01*
X174521561Y-103984625D01*
X174521561Y-103984624D01*
X174523884Y-103979643D01*
X174528530Y-103962306D01*
X174581719Y-103763802D01*
X174581719Y-103763800D01*
X174583143Y-103758487D01*
X174603098Y-103530400D01*
X174583143Y-103302313D01*
X174581719Y-103296998D01*
X174525307Y-103086467D01*
X174525306Y-103086465D01*
X174523884Y-103081157D01*
X174520448Y-103073788D01*
X174429449Y-102878638D01*
X174429446Y-102878633D01*
X174427123Y-102873651D01*
X174295798Y-102686100D01*
X174133900Y-102524202D01*
X174129392Y-102521045D01*
X174129389Y-102521043D01*
X174003520Y-102432909D01*
X173946349Y-102392877D01*
X173941367Y-102390554D01*
X173941362Y-102390551D01*
X173743825Y-102298439D01*
X173743824Y-102298439D01*
X173738843Y-102296116D01*
X173733535Y-102294694D01*
X173733533Y-102294693D01*
X173523002Y-102238281D01*
X173523000Y-102238281D01*
X173517687Y-102236857D01*
X173289600Y-102216902D01*
X173284125Y-102217381D01*
X173284122Y-102217381D01*
X173260081Y-102219484D01*
X173190476Y-102205494D01*
X173139485Y-102156094D01*
X173123101Y-102093963D01*
X173123101Y-98618441D01*
X173143103Y-98550320D01*
X173196759Y-98503827D01*
X173267033Y-98493723D01*
X173331613Y-98523217D01*
X173345620Y-98537447D01*
X173346243Y-98538189D01*
X173349402Y-98542700D01*
X173511300Y-98704598D01*
X173515808Y-98707755D01*
X173515811Y-98707757D01*
X173593989Y-98762498D01*
X173698851Y-98835923D01*
X173703833Y-98838246D01*
X173703838Y-98838249D01*
X173901375Y-98930361D01*
X173906357Y-98932684D01*
X173911665Y-98934106D01*
X173911667Y-98934107D01*
X174122198Y-98990519D01*
X174122200Y-98990519D01*
X174127513Y-98991943D01*
X174355600Y-99011898D01*
X174583687Y-98991943D01*
X174589000Y-98990519D01*
X174589002Y-98990519D01*
X174799533Y-98934107D01*
X174799535Y-98934106D01*
X174804843Y-98932684D01*
X174809825Y-98930361D01*
X175007362Y-98838249D01*
X175007367Y-98838246D01*
X175012349Y-98835923D01*
X175117211Y-98762498D01*
X175195389Y-98707757D01*
X175195392Y-98707755D01*
X175199900Y-98704598D01*
X175361798Y-98542700D01*
X175365477Y-98537447D01*
X175489966Y-98359657D01*
X175493123Y-98355149D01*
X175495446Y-98350167D01*
X175495449Y-98350162D01*
X175587561Y-98152625D01*
X175587561Y-98152624D01*
X175589884Y-98147643D01*
X175607978Y-98080118D01*
X175647719Y-97931802D01*
X175647719Y-97931800D01*
X175649143Y-97926487D01*
X175669098Y-97698400D01*
X175649143Y-97470313D01*
X175647717Y-97464991D01*
X175591307Y-97254467D01*
X175591306Y-97254465D01*
X175589884Y-97249157D01*
X175587561Y-97244175D01*
X175495449Y-97046638D01*
X175495446Y-97046633D01*
X175493123Y-97041651D01*
X175415572Y-96930897D01*
X175364957Y-96858611D01*
X175364955Y-96858608D01*
X175361798Y-96854100D01*
X175199900Y-96692202D01*
X175195392Y-96689045D01*
X175195389Y-96689043D01*
X175097426Y-96620449D01*
X175012349Y-96560877D01*
X175007367Y-96558554D01*
X175007362Y-96558551D01*
X174973143Y-96542595D01*
X174919858Y-96495678D01*
X174900397Y-96427401D01*
X174920939Y-96359441D01*
X174973143Y-96314205D01*
X175007362Y-96298249D01*
X175007367Y-96298246D01*
X175012349Y-96295923D01*
X175117211Y-96222498D01*
X175195389Y-96167757D01*
X175195392Y-96167755D01*
X175199900Y-96164598D01*
X175361798Y-96002700D01*
X175493123Y-95815149D01*
X175495446Y-95810167D01*
X175495449Y-95810162D01*
X175587561Y-95612625D01*
X175587561Y-95612624D01*
X175589884Y-95607643D01*
X175599123Y-95573165D01*
X175608949Y-95536495D01*
X178469251Y-95536495D01*
X178469548Y-95541648D01*
X178469548Y-95541651D01*
X178475011Y-95636390D01*
X178482110Y-95759515D01*
X178483247Y-95764561D01*
X178483248Y-95764567D01*
X178493524Y-95810162D01*
X178531222Y-95977439D01*
X178569461Y-96071611D01*
X178608502Y-96167757D01*
X178615266Y-96184416D01*
X178617965Y-96188820D01*
X178694801Y-96314205D01*
X178731987Y-96374888D01*
X178878250Y-96543738D01*
X179050126Y-96686432D01*
X179243000Y-96799138D01*
X179451692Y-96878830D01*
X179456760Y-96879861D01*
X179456763Y-96879862D01*
X179552742Y-96899389D01*
X179670597Y-96923367D01*
X179675772Y-96923557D01*
X179675774Y-96923557D01*
X179888673Y-96931364D01*
X179888677Y-96931364D01*
X179893837Y-96931553D01*
X179898957Y-96930897D01*
X179898959Y-96930897D01*
X180110288Y-96903825D01*
X180110289Y-96903825D01*
X180115416Y-96903168D01*
X180120366Y-96901683D01*
X180324429Y-96840461D01*
X180324434Y-96840459D01*
X180329384Y-96838974D01*
X180529994Y-96740696D01*
X180711860Y-96610973D01*
X180717427Y-96605426D01*
X180866435Y-96456937D01*
X180870096Y-96453289D01*
X180887981Y-96428400D01*
X180997435Y-96276077D01*
X181000453Y-96271877D01*
X181099430Y-96071611D01*
X181164370Y-95857869D01*
X181193529Y-95636390D01*
X181194110Y-95612625D01*
X181195074Y-95573165D01*
X181195074Y-95573161D01*
X181195156Y-95569800D01*
X181176852Y-95347161D01*
X181122431Y-95130502D01*
X181033354Y-94925640D01*
X180912014Y-94738077D01*
X180761670Y-94572851D01*
X180757619Y-94569652D01*
X180757615Y-94569648D01*
X180590414Y-94437600D01*
X180590410Y-94437598D01*
X180586359Y-94434398D01*
X180545053Y-94411596D01*
X180495084Y-94361164D01*
X180480312Y-94291721D01*
X180505428Y-94225316D01*
X180532780Y-94198709D01*
X180602409Y-94149043D01*
X180711860Y-94070973D01*
X180870096Y-93913289D01*
X180887981Y-93888400D01*
X180997435Y-93736077D01*
X181000453Y-93731877D01*
X181099430Y-93531611D01*
X181164370Y-93317869D01*
X181193529Y-93096390D01*
X181193611Y-93093040D01*
X181195074Y-93033165D01*
X181195074Y-93033161D01*
X181195156Y-93029800D01*
X181176852Y-92807161D01*
X181122431Y-92590502D01*
X181033354Y-92385640D01*
X180949869Y-92256592D01*
X180914822Y-92202417D01*
X180914820Y-92202414D01*
X180912014Y-92198077D01*
X180908540Y-92194259D01*
X180908533Y-92194250D01*
X180764435Y-92035888D01*
X180733383Y-91972042D01*
X180741779Y-91901544D01*
X180786956Y-91846776D01*
X180813400Y-91833107D01*
X180920052Y-91793125D01*
X180935649Y-91784586D01*
X181037724Y-91708085D01*
X181050285Y-91695524D01*
X181126786Y-91593449D01*
X181135324Y-91577854D01*
X181180478Y-91457406D01*
X181184105Y-91442151D01*
X181189631Y-91391286D01*
X181190000Y-91384472D01*
X181190000Y-90761915D01*
X181185525Y-90746676D01*
X181184135Y-90745471D01*
X181176452Y-90743800D01*
X178492116Y-90743800D01*
X178476877Y-90748275D01*
X178475672Y-90749665D01*
X178474001Y-90757348D01*
X178474001Y-91384469D01*
X178474371Y-91391290D01*
X178479895Y-91442152D01*
X178483521Y-91457404D01*
X178528676Y-91577854D01*
X178537214Y-91593449D01*
X178613715Y-91695524D01*
X178626276Y-91708085D01*
X178728351Y-91784586D01*
X178743946Y-91793124D01*
X178852827Y-91833942D01*
X178909591Y-91876584D01*
X178934291Y-91943145D01*
X178919083Y-92012494D01*
X178899691Y-92038975D01*
X178776200Y-92168201D01*
X178772629Y-92171938D01*
X178646743Y-92356480D01*
X178552688Y-92559105D01*
X178492989Y-92774370D01*
X178469251Y-92996495D01*
X178469548Y-93001648D01*
X178469548Y-93001651D01*
X178477256Y-93135334D01*
X178482110Y-93219515D01*
X178483247Y-93224561D01*
X178483248Y-93224567D01*
X178499667Y-93297419D01*
X178531222Y-93437439D01*
X178569461Y-93531611D01*
X178608502Y-93627757D01*
X178615266Y-93644416D01*
X178617965Y-93648820D01*
X178694801Y-93774205D01*
X178731987Y-93834888D01*
X178878250Y-94003738D01*
X179050126Y-94146432D01*
X179120595Y-94187611D01*
X179123445Y-94189276D01*
X179172169Y-94240914D01*
X179185240Y-94310697D01*
X179158509Y-94376469D01*
X179118055Y-94409827D01*
X179105607Y-94416307D01*
X179101474Y-94419410D01*
X179101471Y-94419412D01*
X178997943Y-94497143D01*
X178926965Y-94550435D01*
X178923393Y-94554173D01*
X178780048Y-94704175D01*
X178772629Y-94711938D01*
X178646743Y-94896480D01*
X178631003Y-94930390D01*
X178564939Y-95072713D01*
X178552688Y-95099105D01*
X178492989Y-95314370D01*
X178469251Y-95536495D01*
X175608949Y-95536495D01*
X175647719Y-95391802D01*
X175647719Y-95391800D01*
X175649143Y-95386487D01*
X175669098Y-95158400D01*
X175649143Y-94930313D01*
X175646726Y-94921292D01*
X175591307Y-94714467D01*
X175591306Y-94714465D01*
X175589884Y-94709157D01*
X175526324Y-94572851D01*
X175495449Y-94506638D01*
X175495446Y-94506633D01*
X175493123Y-94501651D01*
X175394753Y-94361164D01*
X175364957Y-94318611D01*
X175364955Y-94318608D01*
X175361798Y-94314100D01*
X175199900Y-94152202D01*
X175195392Y-94149045D01*
X175195389Y-94149043D01*
X175083893Y-94070973D01*
X175012349Y-94020877D01*
X175007367Y-94018554D01*
X175007362Y-94018551D01*
X174973143Y-94002595D01*
X174919858Y-93955678D01*
X174900397Y-93887401D01*
X174920939Y-93819441D01*
X174973143Y-93774205D01*
X175007362Y-93758249D01*
X175007367Y-93758246D01*
X175012349Y-93755923D01*
X175117211Y-93682498D01*
X175195389Y-93627757D01*
X175195392Y-93627755D01*
X175199900Y-93624598D01*
X175361798Y-93462700D01*
X175493123Y-93275149D01*
X175495446Y-93270167D01*
X175495449Y-93270162D01*
X175587561Y-93072625D01*
X175587561Y-93072624D01*
X175589884Y-93067643D01*
X175592902Y-93056382D01*
X175647719Y-92851802D01*
X175647719Y-92851800D01*
X175649143Y-92846487D01*
X175669098Y-92618400D01*
X175649143Y-92390313D01*
X175647719Y-92384998D01*
X175647718Y-92384991D01*
X175632141Y-92326859D01*
X175633830Y-92255883D01*
X175664752Y-92205152D01*
X176414247Y-91455657D01*
X176422537Y-91448113D01*
X176429018Y-91444000D01*
X176475659Y-91394332D01*
X176478413Y-91391491D01*
X176498134Y-91371770D01*
X176500612Y-91368575D01*
X176508318Y-91359553D01*
X176522175Y-91344797D01*
X176538586Y-91327321D01*
X176548346Y-91309568D01*
X176559199Y-91293045D01*
X176566753Y-91283306D01*
X176571613Y-91277041D01*
X176589176Y-91236457D01*
X176594383Y-91225827D01*
X176615695Y-91187060D01*
X176617666Y-91179383D01*
X176617668Y-91179378D01*
X176620732Y-91167442D01*
X176627138Y-91148730D01*
X176632034Y-91137417D01*
X176635181Y-91130145D01*
X176636932Y-91119093D01*
X176642097Y-91086481D01*
X176644504Y-91074860D01*
X176653528Y-91039711D01*
X176653528Y-91039710D01*
X176655500Y-91032030D01*
X176655500Y-91011769D01*
X176657051Y-90992058D01*
X176658979Y-90979885D01*
X176660219Y-90972057D01*
X176656059Y-90928046D01*
X176655500Y-90916189D01*
X176655500Y-90217685D01*
X178474000Y-90217685D01*
X178478475Y-90232924D01*
X178479865Y-90234129D01*
X178487548Y-90235800D01*
X179559885Y-90235800D01*
X179575124Y-90231325D01*
X179576329Y-90229935D01*
X179578000Y-90222252D01*
X179578000Y-90217685D01*
X180086000Y-90217685D01*
X180090475Y-90232924D01*
X180091865Y-90234129D01*
X180099548Y-90235800D01*
X181171884Y-90235800D01*
X181187123Y-90231325D01*
X181188328Y-90229935D01*
X181189999Y-90222252D01*
X181189999Y-89595131D01*
X181189629Y-89588310D01*
X181184105Y-89537448D01*
X181180479Y-89522196D01*
X181135324Y-89401746D01*
X181126786Y-89386151D01*
X181050285Y-89284076D01*
X181037724Y-89271515D01*
X180935649Y-89195014D01*
X180920054Y-89186476D01*
X180799606Y-89141322D01*
X180784351Y-89137695D01*
X180733486Y-89132169D01*
X180726672Y-89131800D01*
X180104115Y-89131800D01*
X180088876Y-89136275D01*
X180087671Y-89137665D01*
X180086000Y-89145348D01*
X180086000Y-90217685D01*
X179578000Y-90217685D01*
X179578000Y-89149916D01*
X179573525Y-89134677D01*
X179572135Y-89133472D01*
X179564452Y-89131801D01*
X178937331Y-89131801D01*
X178930510Y-89132171D01*
X178879648Y-89137695D01*
X178864396Y-89141321D01*
X178743946Y-89186476D01*
X178728351Y-89195014D01*
X178626276Y-89271515D01*
X178613715Y-89284076D01*
X178537214Y-89386151D01*
X178528676Y-89401746D01*
X178483522Y-89522194D01*
X178479895Y-89537449D01*
X178474369Y-89588314D01*
X178474000Y-89595128D01*
X178474000Y-90217685D01*
X176655500Y-90217685D01*
X176655500Y-86156994D01*
X176675502Y-86088873D01*
X176709229Y-86053781D01*
X176861789Y-85946957D01*
X176861792Y-85946955D01*
X176866300Y-85943798D01*
X177028198Y-85781900D01*
X177036015Y-85770737D01*
X177099634Y-85679879D01*
X177159523Y-85594349D01*
X177161846Y-85589367D01*
X177161849Y-85589362D01*
X177253961Y-85391825D01*
X177253961Y-85391824D01*
X177256284Y-85386843D01*
X177261096Y-85368887D01*
X177314119Y-85171002D01*
X177314119Y-85171000D01*
X177315543Y-85165687D01*
X177335498Y-84937600D01*
X177315543Y-84709513D01*
X177314119Y-84704198D01*
X177257707Y-84493667D01*
X177257706Y-84493665D01*
X177256284Y-84488357D01*
X177243164Y-84460220D01*
X177161849Y-84285838D01*
X177161846Y-84285833D01*
X177159523Y-84280851D01*
X177028198Y-84093300D01*
X176866300Y-83931402D01*
X176861792Y-83928245D01*
X176861789Y-83928243D01*
X176783611Y-83873502D01*
X176678749Y-83800077D01*
X176673767Y-83797754D01*
X176673762Y-83797751D01*
X176476225Y-83705639D01*
X176476224Y-83705639D01*
X176471243Y-83703316D01*
X176465935Y-83701894D01*
X176465933Y-83701893D01*
X176255402Y-83645481D01*
X176255400Y-83645481D01*
X176250087Y-83644057D01*
X176022000Y-83624102D01*
X175793913Y-83644057D01*
X175788600Y-83645481D01*
X175788598Y-83645481D01*
X175578067Y-83701893D01*
X175578065Y-83701894D01*
X175572757Y-83703316D01*
X175567776Y-83705639D01*
X175567775Y-83705639D01*
X175370238Y-83797751D01*
X175370233Y-83797754D01*
X175365251Y-83800077D01*
X175260389Y-83873502D01*
X175182211Y-83928243D01*
X175182208Y-83928245D01*
X175177700Y-83931402D01*
X175015802Y-84093300D01*
X174884477Y-84280851D01*
X174882154Y-84285833D01*
X174882151Y-84285838D01*
X174800836Y-84460220D01*
X174787716Y-84488357D01*
X174786294Y-84493665D01*
X174786293Y-84493667D01*
X174729881Y-84704198D01*
X174728457Y-84709513D01*
X174708502Y-84937600D01*
X174728457Y-85165687D01*
X174729881Y-85171000D01*
X174729881Y-85171002D01*
X174782905Y-85368887D01*
X174787716Y-85386843D01*
X174790039Y-85391824D01*
X174790039Y-85391825D01*
X174882151Y-85589362D01*
X174882154Y-85589367D01*
X174884477Y-85594349D01*
X174944366Y-85679879D01*
X175007986Y-85770737D01*
X175015802Y-85781900D01*
X175177700Y-85943798D01*
X175182208Y-85946955D01*
X175182211Y-85946957D01*
X175334771Y-86053781D01*
X175379099Y-86109238D01*
X175388500Y-86156994D01*
X175388500Y-88962217D01*
X175368498Y-89030338D01*
X175314842Y-89076831D01*
X175244568Y-89086935D01*
X175190229Y-89065430D01*
X175016858Y-88944034D01*
X175016856Y-88944033D01*
X175012349Y-88940877D01*
X175007367Y-88938554D01*
X175007362Y-88938551D01*
X174809825Y-88846439D01*
X174809824Y-88846439D01*
X174804843Y-88844116D01*
X174799535Y-88842694D01*
X174799533Y-88842693D01*
X174589002Y-88786281D01*
X174589000Y-88786281D01*
X174583687Y-88784857D01*
X174355600Y-88764902D01*
X174127513Y-88784857D01*
X174122200Y-88786281D01*
X174122198Y-88786281D01*
X173911667Y-88842693D01*
X173911665Y-88842694D01*
X173906357Y-88844116D01*
X173901376Y-88846439D01*
X173901375Y-88846439D01*
X173703838Y-88938551D01*
X173703833Y-88938554D01*
X173698851Y-88940877D01*
X173593989Y-89014302D01*
X173515811Y-89069043D01*
X173515808Y-89069045D01*
X173511300Y-89072202D01*
X173349402Y-89234100D01*
X173346245Y-89238608D01*
X173346243Y-89238611D01*
X173322700Y-89272234D01*
X173218077Y-89421651D01*
X173215754Y-89426633D01*
X173215751Y-89426638D01*
X173171193Y-89522194D01*
X173121316Y-89629157D01*
X173119894Y-89634465D01*
X173119893Y-89634467D01*
X173070572Y-89818535D01*
X173062057Y-89850313D01*
X173042102Y-90078400D01*
X173062057Y-90306487D01*
X173072631Y-90345948D01*
X173079060Y-90369941D01*
X173077370Y-90440918D01*
X173046448Y-90491647D01*
X168262189Y-95275906D01*
X168199877Y-95309932D01*
X168129062Y-95304867D01*
X168072226Y-95262320D01*
X168047415Y-95195800D01*
X168047574Y-95175828D01*
X168048619Y-95163885D01*
X168048619Y-95163875D01*
X168049098Y-95158400D01*
X168029143Y-94930313D01*
X168026726Y-94921292D01*
X167971307Y-94714467D01*
X167971306Y-94714465D01*
X167969884Y-94709157D01*
X167906324Y-94572851D01*
X167875449Y-94506638D01*
X167875446Y-94506633D01*
X167873123Y-94501651D01*
X167774753Y-94361164D01*
X167744957Y-94318611D01*
X167744955Y-94318608D01*
X167741798Y-94314100D01*
X167579900Y-94152202D01*
X167575392Y-94149045D01*
X167575389Y-94149043D01*
X167463893Y-94070973D01*
X167392349Y-94020877D01*
X167387367Y-94018554D01*
X167387362Y-94018551D01*
X167353143Y-94002595D01*
X167299858Y-93955678D01*
X167280397Y-93887401D01*
X167300939Y-93819441D01*
X167353143Y-93774205D01*
X167387362Y-93758249D01*
X167387367Y-93758246D01*
X167392349Y-93755923D01*
X167497211Y-93682498D01*
X167575389Y-93627757D01*
X167575392Y-93627755D01*
X167579900Y-93624598D01*
X167741798Y-93462700D01*
X167873123Y-93275149D01*
X167875446Y-93270167D01*
X167875449Y-93270162D01*
X167967561Y-93072625D01*
X167967561Y-93072624D01*
X167969884Y-93067643D01*
X167972902Y-93056382D01*
X168027719Y-92851802D01*
X168027719Y-92851800D01*
X168029143Y-92846487D01*
X168049098Y-92618400D01*
X168029143Y-92390313D01*
X168026726Y-92381292D01*
X167971307Y-92174467D01*
X167971306Y-92174465D01*
X167969884Y-92169157D01*
X167906324Y-92032851D01*
X167875449Y-91966638D01*
X167875446Y-91966633D01*
X167873123Y-91961651D01*
X167783115Y-91833107D01*
X167744957Y-91778611D01*
X167744955Y-91778608D01*
X167741798Y-91774100D01*
X167579900Y-91612202D01*
X167575389Y-91609043D01*
X167571176Y-91605508D01*
X167571988Y-91604540D01*
X167531510Y-91553906D01*
X167524196Y-91483287D01*
X167556224Y-91419924D01*
X167617423Y-91383936D01*
X167634501Y-91380880D01*
X167637952Y-91380505D01*
X167653204Y-91376879D01*
X167773654Y-91331724D01*
X167789249Y-91323186D01*
X167891324Y-91246685D01*
X167903885Y-91234124D01*
X167980386Y-91132049D01*
X167988924Y-91116454D01*
X168034078Y-90996006D01*
X168037705Y-90980751D01*
X168043231Y-90929886D01*
X168043600Y-90923072D01*
X168043600Y-90350515D01*
X168039125Y-90335276D01*
X168037735Y-90334071D01*
X168030052Y-90332400D01*
X165445716Y-90332400D01*
X165430477Y-90336875D01*
X165429272Y-90338265D01*
X165427601Y-90345948D01*
X165427601Y-90923069D01*
X165427971Y-90929890D01*
X165433495Y-90980752D01*
X165437121Y-90996004D01*
X165482276Y-91116454D01*
X165490814Y-91132049D01*
X165567315Y-91234124D01*
X165579876Y-91246685D01*
X165681951Y-91323186D01*
X165697546Y-91331724D01*
X165817994Y-91376878D01*
X165833243Y-91380504D01*
X165836696Y-91380879D01*
X165839206Y-91381922D01*
X165840931Y-91382332D01*
X165840865Y-91382611D01*
X165902259Y-91408119D01*
X165942688Y-91466480D01*
X165945146Y-91537434D01*
X165908853Y-91598454D01*
X165897360Y-91607744D01*
X165895814Y-91609041D01*
X165891300Y-91612202D01*
X165729402Y-91774100D01*
X165726245Y-91778608D01*
X165726243Y-91778611D01*
X165619419Y-91931171D01*
X165563962Y-91975499D01*
X165516206Y-91984900D01*
X164814995Y-91984900D01*
X164746874Y-91964898D01*
X164725900Y-91947995D01*
X163738405Y-90960500D01*
X163704379Y-90898188D01*
X163701500Y-90871405D01*
X163701500Y-89806285D01*
X165427600Y-89806285D01*
X165432075Y-89821524D01*
X165433465Y-89822729D01*
X165441148Y-89824400D01*
X166463485Y-89824400D01*
X166478724Y-89819925D01*
X166479929Y-89818535D01*
X166481600Y-89810852D01*
X166481600Y-89806285D01*
X166989600Y-89806285D01*
X166994075Y-89821524D01*
X166995465Y-89822729D01*
X167003148Y-89824400D01*
X168025484Y-89824400D01*
X168040723Y-89819925D01*
X168041928Y-89818535D01*
X168043599Y-89810852D01*
X168043599Y-89233731D01*
X168043229Y-89226910D01*
X168037705Y-89176048D01*
X168034079Y-89160796D01*
X167988924Y-89040346D01*
X167980386Y-89024751D01*
X167903885Y-88922676D01*
X167891324Y-88910115D01*
X167789249Y-88833614D01*
X167773654Y-88825076D01*
X167653206Y-88779922D01*
X167637951Y-88776295D01*
X167587086Y-88770769D01*
X167580272Y-88770400D01*
X167007715Y-88770400D01*
X166992476Y-88774875D01*
X166991271Y-88776265D01*
X166989600Y-88783948D01*
X166989600Y-89806285D01*
X166481600Y-89806285D01*
X166481600Y-88788516D01*
X166477125Y-88773277D01*
X166475735Y-88772072D01*
X166468052Y-88770401D01*
X165890931Y-88770401D01*
X165884110Y-88770771D01*
X165833248Y-88776295D01*
X165817996Y-88779921D01*
X165697546Y-88825076D01*
X165681951Y-88833614D01*
X165579876Y-88910115D01*
X165567315Y-88922676D01*
X165490814Y-89024751D01*
X165482276Y-89040346D01*
X165437122Y-89160794D01*
X165433495Y-89176049D01*
X165427969Y-89226914D01*
X165427600Y-89233728D01*
X165427600Y-89806285D01*
X163701500Y-89806285D01*
X163701500Y-86369795D01*
X163721502Y-86301674D01*
X163738405Y-86280699D01*
X164411101Y-85608004D01*
X164473413Y-85573979D01*
X164500196Y-85571100D01*
X164642606Y-85571100D01*
X164710727Y-85591102D01*
X164745819Y-85624829D01*
X164851803Y-85776189D01*
X164855802Y-85781900D01*
X165017700Y-85943798D01*
X165022208Y-85946955D01*
X165022211Y-85946957D01*
X165070243Y-85980589D01*
X165205251Y-86075123D01*
X165210233Y-86077446D01*
X165210238Y-86077449D01*
X165351031Y-86143101D01*
X165412757Y-86171884D01*
X165418065Y-86173306D01*
X165418067Y-86173307D01*
X165628598Y-86229719D01*
X165628600Y-86229719D01*
X165633913Y-86231143D01*
X165862000Y-86251098D01*
X166090087Y-86231143D01*
X166095400Y-86229719D01*
X166095402Y-86229719D01*
X166305933Y-86173307D01*
X166305935Y-86173306D01*
X166311243Y-86171884D01*
X166372969Y-86143101D01*
X166513762Y-86077449D01*
X166513767Y-86077446D01*
X166518749Y-86075123D01*
X166653757Y-85980589D01*
X166701789Y-85946957D01*
X166701792Y-85946955D01*
X166706300Y-85943798D01*
X166868198Y-85781900D01*
X166876015Y-85770737D01*
X166939634Y-85679879D01*
X166999523Y-85594349D01*
X167001846Y-85589367D01*
X167001849Y-85589362D01*
X167093961Y-85391825D01*
X167093961Y-85391824D01*
X167096284Y-85386843D01*
X167101096Y-85368887D01*
X167154119Y-85171002D01*
X167154119Y-85171000D01*
X167155543Y-85165687D01*
X167175498Y-84937600D01*
X167155543Y-84709513D01*
X167154119Y-84704198D01*
X167097707Y-84493667D01*
X167097706Y-84493665D01*
X167096284Y-84488357D01*
X167083164Y-84460220D01*
X167001849Y-84285838D01*
X167001846Y-84285833D01*
X166999523Y-84280851D01*
X166868198Y-84093300D01*
X166706300Y-83931402D01*
X166701792Y-83928245D01*
X166701789Y-83928243D01*
X166623611Y-83873502D01*
X166518749Y-83800077D01*
X166513767Y-83797754D01*
X166513762Y-83797751D01*
X166316225Y-83705639D01*
X166316224Y-83705639D01*
X166311243Y-83703316D01*
X166305935Y-83701894D01*
X166305933Y-83701893D01*
X166095402Y-83645481D01*
X166095400Y-83645481D01*
X166090087Y-83644057D01*
X165862000Y-83624102D01*
X165633913Y-83644057D01*
X165628600Y-83645481D01*
X165628598Y-83645481D01*
X165418067Y-83701893D01*
X165418065Y-83701894D01*
X165412757Y-83703316D01*
X165407776Y-83705639D01*
X165407775Y-83705639D01*
X165210238Y-83797751D01*
X165210233Y-83797754D01*
X165205251Y-83800077D01*
X165100389Y-83873502D01*
X165022211Y-83928243D01*
X165022208Y-83928245D01*
X165017700Y-83931402D01*
X164855802Y-84093300D01*
X164852645Y-84097808D01*
X164852643Y-84097811D01*
X164745819Y-84250371D01*
X164690362Y-84294699D01*
X164642606Y-84304100D01*
X164264367Y-84304100D01*
X164253184Y-84303573D01*
X164245691Y-84301898D01*
X164237765Y-84302147D01*
X164237764Y-84302147D01*
X164177614Y-84304038D01*
X164173655Y-84304100D01*
X164145744Y-84304100D01*
X164141810Y-84304597D01*
X164141809Y-84304597D01*
X164141744Y-84304605D01*
X164129907Y-84305538D01*
X164097649Y-84306552D01*
X164093630Y-84306678D01*
X164085711Y-84306927D01*
X164066257Y-84312579D01*
X164046900Y-84316587D01*
X164034670Y-84318132D01*
X164034669Y-84318132D01*
X164026803Y-84319126D01*
X164019432Y-84322045D01*
X164019430Y-84322045D01*
X163985688Y-84335404D01*
X163974458Y-84339249D01*
X163939617Y-84349371D01*
X163939616Y-84349371D01*
X163932007Y-84351582D01*
X163925188Y-84355615D01*
X163925183Y-84355617D01*
X163914572Y-84361893D01*
X163896824Y-84370588D01*
X163877983Y-84378048D01*
X163871567Y-84382710D01*
X163871566Y-84382710D01*
X163842213Y-84404036D01*
X163832293Y-84410552D01*
X163801065Y-84429020D01*
X163801062Y-84429022D01*
X163794238Y-84433058D01*
X163779917Y-84447379D01*
X163764884Y-84460219D01*
X163748493Y-84472128D01*
X163720302Y-84506205D01*
X163712312Y-84514984D01*
X162675747Y-85551548D01*
X162667461Y-85559088D01*
X162660982Y-85563200D01*
X162655557Y-85568977D01*
X162614357Y-85612851D01*
X162611602Y-85615693D01*
X162591865Y-85635430D01*
X162589385Y-85638627D01*
X162581682Y-85647647D01*
X162551414Y-85679879D01*
X162547595Y-85686825D01*
X162547593Y-85686828D01*
X162541652Y-85697634D01*
X162530801Y-85714153D01*
X162518386Y-85730159D01*
X162515241Y-85737428D01*
X162515238Y-85737432D01*
X162500826Y-85770737D01*
X162495609Y-85781387D01*
X162474305Y-85820140D01*
X162472334Y-85827815D01*
X162472334Y-85827816D01*
X162469267Y-85839762D01*
X162462863Y-85858466D01*
X162454819Y-85877055D01*
X162453580Y-85884878D01*
X162453577Y-85884888D01*
X162447901Y-85920724D01*
X162445495Y-85932344D01*
X162436472Y-85967489D01*
X162434500Y-85975170D01*
X162434500Y-85995424D01*
X162432949Y-86015134D01*
X162429780Y-86035143D01*
X162430526Y-86043035D01*
X162433941Y-86079161D01*
X162434500Y-86091019D01*
X162434500Y-91107233D01*
X162433973Y-91118416D01*
X162432298Y-91125909D01*
X162432547Y-91133835D01*
X162432547Y-91133836D01*
X162434438Y-91193986D01*
X162434500Y-91197945D01*
X162434500Y-91225856D01*
X162434997Y-91229790D01*
X162434997Y-91229791D01*
X162435005Y-91229856D01*
X162435938Y-91241693D01*
X162437327Y-91285889D01*
X162441682Y-91300878D01*
X162442978Y-91305339D01*
X162446987Y-91324700D01*
X162449526Y-91344797D01*
X162452445Y-91352168D01*
X162452445Y-91352170D01*
X162465804Y-91385912D01*
X162469649Y-91397142D01*
X162481982Y-91439593D01*
X162486015Y-91446412D01*
X162486017Y-91446417D01*
X162492293Y-91457028D01*
X162500988Y-91474776D01*
X162508448Y-91493617D01*
X162513110Y-91500033D01*
X162513110Y-91500034D01*
X162534436Y-91529387D01*
X162540952Y-91539307D01*
X162563458Y-91577362D01*
X162577779Y-91591683D01*
X162590619Y-91606716D01*
X162602528Y-91623107D01*
X162608634Y-91628158D01*
X162636605Y-91651298D01*
X162645384Y-91659288D01*
X164042478Y-93056382D01*
X164057594Y-93074653D01*
X164062228Y-93081471D01*
X164068176Y-93086715D01*
X164068177Y-93086716D01*
X164104363Y-93118618D01*
X164110133Y-93124037D01*
X164121430Y-93135334D01*
X164124556Y-93137759D01*
X164124562Y-93137764D01*
X164134054Y-93145126D01*
X164140157Y-93150175D01*
X164176341Y-93182076D01*
X164176345Y-93182079D01*
X164182290Y-93187320D01*
X164189353Y-93190919D01*
X164189639Y-93191065D01*
X164209650Y-93203764D01*
X164216159Y-93208813D01*
X164252565Y-93224567D01*
X164267687Y-93231111D01*
X164274848Y-93234481D01*
X164317838Y-93256385D01*
X164317840Y-93256386D01*
X164324904Y-93259985D01*
X164332949Y-93261783D01*
X164355494Y-93269109D01*
X164363055Y-93272381D01*
X164370884Y-93273621D01*
X164418526Y-93281167D01*
X164426287Y-93282648D01*
X164481109Y-93294902D01*
X164489035Y-93294653D01*
X164489036Y-93294653D01*
X164489263Y-93294646D01*
X164489350Y-93294643D01*
X164513016Y-93296132D01*
X164521143Y-93297419D01*
X164529035Y-93296673D01*
X164577047Y-93292135D01*
X164584945Y-93291638D01*
X164620476Y-93290521D01*
X164641089Y-93289873D01*
X164648998Y-93287575D01*
X164672294Y-93283132D01*
X164672604Y-93283103D01*
X164672607Y-93283102D01*
X164680492Y-93282357D01*
X164733344Y-93263329D01*
X164740864Y-93260886D01*
X164754574Y-93256903D01*
X164789724Y-93251900D01*
X165516206Y-93251900D01*
X165584327Y-93271902D01*
X165619419Y-93305629D01*
X165711410Y-93437005D01*
X165729402Y-93462700D01*
X165891300Y-93624598D01*
X165895808Y-93627755D01*
X165895811Y-93627757D01*
X165973989Y-93682498D01*
X166078851Y-93755923D01*
X166083833Y-93758246D01*
X166083838Y-93758249D01*
X166118057Y-93774205D01*
X166171342Y-93821122D01*
X166190803Y-93889399D01*
X166170261Y-93957359D01*
X166118057Y-94002595D01*
X166083838Y-94018551D01*
X166083833Y-94018554D01*
X166078851Y-94020877D01*
X166007307Y-94070973D01*
X165895811Y-94149043D01*
X165895808Y-94149045D01*
X165891300Y-94152202D01*
X165729402Y-94314100D01*
X165726245Y-94318608D01*
X165726243Y-94318611D01*
X165696447Y-94361164D01*
X165598077Y-94501651D01*
X165595754Y-94506633D01*
X165595751Y-94506638D01*
X165564876Y-94572851D01*
X165501316Y-94709157D01*
X165499894Y-94714465D01*
X165499893Y-94714467D01*
X165444474Y-94921292D01*
X165442057Y-94930313D01*
X165422102Y-95158400D01*
X165442057Y-95386487D01*
X165443481Y-95391800D01*
X165443481Y-95391802D01*
X165492078Y-95573165D01*
X165501316Y-95607643D01*
X165503639Y-95612624D01*
X165503639Y-95612625D01*
X165595751Y-95810162D01*
X165595754Y-95810167D01*
X165598077Y-95815149D01*
X165729402Y-96002700D01*
X165891300Y-96164598D01*
X165895808Y-96167755D01*
X165895811Y-96167757D01*
X165973989Y-96222498D01*
X166078851Y-96295923D01*
X166083833Y-96298246D01*
X166083838Y-96298249D01*
X166118057Y-96314205D01*
X166171342Y-96361122D01*
X166190803Y-96429399D01*
X166170261Y-96497359D01*
X166118057Y-96542595D01*
X166083838Y-96558551D01*
X166083833Y-96558554D01*
X166078851Y-96560877D01*
X165993774Y-96620449D01*
X165895811Y-96689043D01*
X165895808Y-96689045D01*
X165891300Y-96692202D01*
X165729402Y-96854100D01*
X165726245Y-96858608D01*
X165726243Y-96858611D01*
X165675628Y-96930897D01*
X165598077Y-97041651D01*
X165595754Y-97046633D01*
X165595751Y-97046638D01*
X165503639Y-97244175D01*
X165501316Y-97249157D01*
X165499894Y-97254465D01*
X165499893Y-97254467D01*
X165443483Y-97464991D01*
X165442057Y-97470313D01*
X165422102Y-97698400D01*
X165442057Y-97926487D01*
X165443481Y-97931800D01*
X165443481Y-97931802D01*
X165483223Y-98080118D01*
X165501316Y-98147643D01*
X165503639Y-98152624D01*
X165503639Y-98152625D01*
X165595751Y-98350162D01*
X165595754Y-98350167D01*
X165598077Y-98355149D01*
X165601234Y-98359657D01*
X165725724Y-98537447D01*
X165729402Y-98542700D01*
X165891300Y-98704598D01*
X165895808Y-98707755D01*
X165895811Y-98707757D01*
X165973989Y-98762498D01*
X166078851Y-98835923D01*
X166083833Y-98838246D01*
X166083838Y-98838249D01*
X166281375Y-98930361D01*
X166286357Y-98932684D01*
X166291665Y-98934106D01*
X166291667Y-98934107D01*
X166502198Y-98990519D01*
X166502200Y-98990519D01*
X166507513Y-98991943D01*
X166735600Y-99011898D01*
X166741075Y-99011419D01*
X166741076Y-99011419D01*
X166742071Y-99011332D01*
X166742504Y-99011419D01*
X166746582Y-99011419D01*
X166746582Y-99012239D01*
X166811676Y-99025322D01*
X166862668Y-99074722D01*
X166878858Y-99143848D01*
X166855105Y-99210753D01*
X166842147Y-99225948D01*
X162830185Y-103237910D01*
X162767873Y-103271936D01*
X162697058Y-103266871D01*
X162640222Y-103224324D01*
X162615411Y-103157804D01*
X162615569Y-103137834D01*
X162624314Y-103037876D01*
X162624314Y-103037875D01*
X162624793Y-103032400D01*
X162606058Y-102818258D01*
X162594268Y-102774257D01*
X162551845Y-102615933D01*
X162551844Y-102615931D01*
X162550422Y-102610623D01*
X162478709Y-102456834D01*
X162461899Y-102420785D01*
X162461897Y-102420782D01*
X162459576Y-102415804D01*
X162336281Y-102239719D01*
X162184281Y-102087719D01*
X162008197Y-101964424D01*
X162003219Y-101962103D01*
X162003216Y-101962101D01*
X161819847Y-101876595D01*
X161766562Y-101829678D01*
X161747101Y-101761400D01*
X161767643Y-101693441D01*
X161819847Y-101648205D01*
X162003216Y-101562699D01*
X162003219Y-101562697D01*
X162008197Y-101560376D01*
X162184281Y-101437081D01*
X162336281Y-101285081D01*
X162459576Y-101108996D01*
X162487213Y-101049730D01*
X162548099Y-100919159D01*
X162548100Y-100919157D01*
X162550422Y-100914177D01*
X162552403Y-100906786D01*
X162604634Y-100711857D01*
X162604634Y-100711855D01*
X162606058Y-100706542D01*
X162624793Y-100492400D01*
X162606058Y-100278258D01*
X162550422Y-100070623D01*
X162459576Y-99875804D01*
X162336281Y-99699719D01*
X162184281Y-99547719D01*
X162008197Y-99424424D01*
X162003219Y-99422103D01*
X162003216Y-99422101D01*
X161818359Y-99335901D01*
X161818358Y-99335900D01*
X161813377Y-99333578D01*
X161808069Y-99332156D01*
X161808067Y-99332155D01*
X161611057Y-99279366D01*
X161611055Y-99279366D01*
X161605742Y-99277942D01*
X161391600Y-99259207D01*
X161177458Y-99277942D01*
X161172145Y-99279366D01*
X161172143Y-99279366D01*
X160975133Y-99332155D01*
X160975131Y-99332156D01*
X160969823Y-99333578D01*
X160964843Y-99335900D01*
X160964841Y-99335901D01*
X160779985Y-99422101D01*
X160779982Y-99422103D01*
X160775004Y-99424424D01*
X160598919Y-99547719D01*
X160446919Y-99699719D01*
X160323624Y-99875804D01*
X160232778Y-100070623D01*
X160177142Y-100278258D01*
X160158407Y-100492400D01*
X160158886Y-100497875D01*
X160158886Y-100497876D01*
X160167631Y-100597834D01*
X160153642Y-100667438D01*
X160104242Y-100718431D01*
X160035116Y-100734621D01*
X159968211Y-100710868D01*
X159953015Y-100697910D01*
X159928405Y-100673300D01*
X159894379Y-100610988D01*
X159891500Y-100584205D01*
X159891500Y-97342594D01*
X159911502Y-97274473D01*
X159928405Y-97253499D01*
X160571952Y-96609952D01*
X160634264Y-96575926D01*
X160693659Y-96577341D01*
X160751791Y-96592918D01*
X160751802Y-96592920D01*
X160757113Y-96594343D01*
X160985200Y-96614298D01*
X161213287Y-96594343D01*
X161218600Y-96592919D01*
X161218602Y-96592919D01*
X161429133Y-96536507D01*
X161429135Y-96536506D01*
X161434443Y-96535084D01*
X161440201Y-96532399D01*
X161636962Y-96440649D01*
X161636967Y-96440646D01*
X161641949Y-96438323D01*
X161754604Y-96359441D01*
X161824989Y-96310157D01*
X161824992Y-96310155D01*
X161829500Y-96306998D01*
X161991398Y-96145100D01*
X162122723Y-95957549D01*
X162125046Y-95952567D01*
X162125049Y-95952562D01*
X162217161Y-95755025D01*
X162217161Y-95755024D01*
X162219484Y-95750043D01*
X162249049Y-95639708D01*
X162277319Y-95534202D01*
X162277319Y-95534200D01*
X162278743Y-95528887D01*
X162298698Y-95300800D01*
X162278743Y-95072713D01*
X162267281Y-95029935D01*
X162220907Y-94856867D01*
X162220906Y-94856865D01*
X162219484Y-94851557D01*
X162166568Y-94738077D01*
X162125049Y-94649038D01*
X162125046Y-94649033D01*
X162122723Y-94644051D01*
X161991398Y-94456500D01*
X161829500Y-94294602D01*
X161824992Y-94291445D01*
X161824989Y-94291443D01*
X161706394Y-94208402D01*
X161641949Y-94163277D01*
X161636967Y-94160954D01*
X161636962Y-94160951D01*
X161439425Y-94068839D01*
X161439424Y-94068839D01*
X161434443Y-94066516D01*
X161429135Y-94065094D01*
X161429133Y-94065093D01*
X161218602Y-94008681D01*
X161218600Y-94008681D01*
X161213287Y-94007257D01*
X160985200Y-93987302D01*
X160757113Y-94007257D01*
X160751800Y-94008681D01*
X160751798Y-94008681D01*
X160541267Y-94065093D01*
X160541265Y-94065094D01*
X160535957Y-94066516D01*
X160530976Y-94068839D01*
X160530975Y-94068839D01*
X160333438Y-94160951D01*
X160333433Y-94160954D01*
X160328451Y-94163277D01*
X160264006Y-94208402D01*
X160145411Y-94291443D01*
X160145408Y-94291445D01*
X160140900Y-94294602D01*
X159979002Y-94456500D01*
X159847677Y-94644051D01*
X159845354Y-94649033D01*
X159845351Y-94649038D01*
X159803832Y-94738077D01*
X159750916Y-94851557D01*
X159749494Y-94856865D01*
X159749493Y-94856867D01*
X159703119Y-95029935D01*
X159691657Y-95072713D01*
X159671702Y-95300800D01*
X159691657Y-95528887D01*
X159693079Y-95534192D01*
X159693081Y-95534206D01*
X159708659Y-95592339D01*
X159706971Y-95663316D01*
X159676048Y-95714048D01*
X158865742Y-96524353D01*
X158857463Y-96531887D01*
X158850982Y-96536000D01*
X158824657Y-96564034D01*
X158804357Y-96585651D01*
X158801602Y-96588493D01*
X158781865Y-96608230D01*
X158779385Y-96611427D01*
X158771682Y-96620447D01*
X158741414Y-96652679D01*
X158737595Y-96659625D01*
X158737593Y-96659628D01*
X158731652Y-96670434D01*
X158720801Y-96686953D01*
X158708386Y-96702959D01*
X158705241Y-96710228D01*
X158705238Y-96710232D01*
X158690826Y-96743537D01*
X158685609Y-96754187D01*
X158664305Y-96792940D01*
X158660192Y-96808961D01*
X158659267Y-96812562D01*
X158652863Y-96831266D01*
X158649528Y-96838974D01*
X158644819Y-96849855D01*
X158643580Y-96857678D01*
X158643577Y-96857688D01*
X158637901Y-96893524D01*
X158635495Y-96905144D01*
X158628715Y-96931553D01*
X158624500Y-96947970D01*
X158624500Y-96968224D01*
X158622949Y-96987934D01*
X158619780Y-97007943D01*
X157378900Y-97007943D01*
X157378900Y-85140800D01*
X159671702Y-85140800D01*
X159691657Y-85368887D01*
X159693081Y-85374200D01*
X159693081Y-85374202D01*
X159746612Y-85573979D01*
X159750916Y-85590043D01*
X159753239Y-85595024D01*
X159753239Y-85595025D01*
X159845351Y-85792562D01*
X159845354Y-85792567D01*
X159847677Y-85797549D01*
X159877235Y-85839762D01*
X159966671Y-85967489D01*
X159979002Y-85985100D01*
X160140900Y-86146998D01*
X160145408Y-86150155D01*
X160145411Y-86150157D01*
X160178473Y-86173307D01*
X160328451Y-86278323D01*
X160333433Y-86280646D01*
X160333438Y-86280649D01*
X160530975Y-86372761D01*
X160535957Y-86375084D01*
X160541265Y-86376506D01*
X160541267Y-86376507D01*
X160751798Y-86432919D01*
X160751800Y-86432919D01*
X160757113Y-86434343D01*
X160985200Y-86454298D01*
X161213287Y-86434343D01*
X161218600Y-86432919D01*
X161218602Y-86432919D01*
X161429133Y-86376507D01*
X161429135Y-86376506D01*
X161434443Y-86375084D01*
X161439425Y-86372761D01*
X161636962Y-86280649D01*
X161636967Y-86280646D01*
X161641949Y-86278323D01*
X161791927Y-86173307D01*
X161824989Y-86150157D01*
X161824992Y-86150155D01*
X161829500Y-86146998D01*
X161991398Y-85985100D01*
X162003730Y-85967489D01*
X162093165Y-85839762D01*
X162122723Y-85797549D01*
X162125046Y-85792567D01*
X162125049Y-85792562D01*
X162217161Y-85595025D01*
X162217161Y-85595024D01*
X162219484Y-85590043D01*
X162223789Y-85573979D01*
X162277319Y-85374202D01*
X162277319Y-85374200D01*
X162278743Y-85368887D01*
X162298698Y-85140800D01*
X162278743Y-84912713D01*
X162225764Y-84714993D01*
X162220907Y-84696867D01*
X162220906Y-84696865D01*
X162219484Y-84691557D01*
X162217161Y-84686575D01*
X162125049Y-84489038D01*
X162125046Y-84489033D01*
X162122723Y-84484051D01*
X162043279Y-84370594D01*
X161994557Y-84301011D01*
X161994555Y-84301008D01*
X161991398Y-84296500D01*
X161829500Y-84134602D01*
X161824992Y-84131445D01*
X161824989Y-84131443D01*
X161746811Y-84076702D01*
X161641949Y-84003277D01*
X161636967Y-84000954D01*
X161636962Y-84000951D01*
X161439425Y-83908839D01*
X161439424Y-83908839D01*
X161434443Y-83906516D01*
X161429135Y-83905094D01*
X161429133Y-83905093D01*
X161218602Y-83848681D01*
X161218600Y-83848681D01*
X161213287Y-83847257D01*
X160985200Y-83827302D01*
X160757113Y-83847257D01*
X160751800Y-83848681D01*
X160751798Y-83848681D01*
X160541267Y-83905093D01*
X160541265Y-83905094D01*
X160535957Y-83906516D01*
X160530976Y-83908839D01*
X160530975Y-83908839D01*
X160333438Y-84000951D01*
X160333433Y-84000954D01*
X160328451Y-84003277D01*
X160223589Y-84076702D01*
X160145411Y-84131443D01*
X160145408Y-84131445D01*
X160140900Y-84134602D01*
X159979002Y-84296500D01*
X159975845Y-84301008D01*
X159975843Y-84301011D01*
X159927121Y-84370594D01*
X159847677Y-84484051D01*
X159845354Y-84489033D01*
X159845351Y-84489038D01*
X159753239Y-84686575D01*
X159750916Y-84691557D01*
X159749494Y-84696865D01*
X159749493Y-84696867D01*
X159744636Y-84714993D01*
X159691657Y-84912713D01*
X159671702Y-85140800D01*
X157378900Y-85140800D01*
X157378900Y-81914500D01*
X157398902Y-81846379D01*
X157452558Y-81799886D01*
X157504900Y-81788500D01*
X183871100Y-81788500D01*
X183939221Y-81808502D01*
G37*
%TD.AperFunction*%
%TD*%
M02*
