%TF.GenerationSoftware,KiCad,Pcbnew,(6.0.11)*%
%TF.CreationDate,2026-08-16T14:16:16+05:30*%
%TF.ProjectId,pcb,7063622e-6b69-4636-9164-5f7063625858,rev?*%
%TF.SameCoordinates,Original*%
%TF.FileFunction,Copper,L1,Top*%
%TF.FilePolarity,Positive*%
%FSLAX46Y46*%
G04 Gerber Fmt 4.6, Leading zero omitted, Abs format (unit mm)*
G04 Created by KiCad (PCBNEW (6.0.11)) date 2026-08-16 14:16:16*
%MOMM*%
%LPD*%
G01*
G04 APERTURE LIST*
%TA.AperFunction,ComponentPad*%
%ADD10C,1.600000*%
%TD*%
%TA.AperFunction,ComponentPad*%
%ADD11R,1.600000X1.600000*%
%TD*%
%TA.AperFunction,ComponentPad*%
%ADD12O,1.600000X1.600000*%
%TD*%
%TA.AperFunction,ComponentPad*%
%ADD13C,2.200000*%
%TD*%
%TA.AperFunction,ComponentPad*%
%ADD14R,2.200000X2.200000*%
%TD*%
%TA.AperFunction,ComponentPad*%
%ADD15C,1.440000*%
%TD*%
%TA.AperFunction,ComponentPad*%
%ADD16R,1.700000X1.700000*%
%TD*%
%TA.AperFunction,ComponentPad*%
%ADD17O,1.700000X1.700000*%
%TD*%
%TA.AperFunction,ViaPad*%
%ADD18C,0.800000*%
%TD*%
%TA.AperFunction,Conductor*%
%ADD19C,0.250000*%
%TD*%
G04 APERTURE END LIST*
D10*
%TO.P,0.1u,2*%
%TO.N,GND*%
X168289600Y-103530400D03*
%TO.P,0.1u,1*%
%TO.N,/TR*%
X173289600Y-103530400D03*
%TD*%
D11*
%TO.P,IC 555,1,GND*%
%TO.N,GND*%
X166735600Y-90078400D03*
D12*
%TO.P,IC 555,2,TR*%
%TO.N,/TR*%
X166735600Y-92618400D03*
%TO.P,IC 555,3,Q*%
%TO.N,/OUT*%
X166735600Y-95158400D03*
%TO.P,IC 555,4,R*%
%TO.N,VCC*%
X166735600Y-97698400D03*
%TO.P,IC 555,5,CV*%
%TO.N,unconnected-(X1-Pad5)*%
X174355600Y-97698400D03*
%TO.P,IC 555,6,THR*%
%TO.N,/TR*%
X174355600Y-95158400D03*
%TO.P,IC 555,7,DIS*%
%TO.N,/DISC*%
X174355600Y-92618400D03*
%TO.P,IC 555,8,VCC*%
%TO.N,VCC*%
X174355600Y-90078400D03*
%TD*%
D13*
%TO.P,+Bat-,2,Pin_2*%
%TO.N,GND*%
X180949600Y-104698800D03*
D14*
%TO.P,+Bat-,1,Pin_1*%
%TO.N,VCC*%
X178409600Y-104698800D03*
%TD*%
D10*
%TO.P,10k,1*%
%TO.N,/R_OUT*%
X160985200Y-95300800D03*
D12*
%TO.P,10k,2*%
%TO.N,VCC*%
X160985200Y-85140800D03*
%TD*%
D15*
%TO.P,47k,3*%
%TO.N,unconnected-(R3-Pad3)*%
X161391600Y-100492400D03*
%TO.P,47k,2*%
%TO.N,/R_OUT*%
X161391600Y-103032400D03*
%TO.P,47k,1*%
%TO.N,/DISC*%
X161391600Y-105572400D03*
%TD*%
D16*
%TO.P,out + -,1,Pin_1*%
%TO.N,GND*%
X179832000Y-90489800D03*
D17*
%TO.P,out + -,2,Pin_2*%
%TO.N,VCC*%
X179832000Y-93029800D03*
%TO.P,out + -,3,Pin_3*%
%TO.N,/OUT*%
X179832000Y-95569800D03*
%TD*%
D12*
%TO.P,220k,2*%
%TO.N,/DISC*%
X176022000Y-84937600D03*
D10*
%TO.P,220k,1*%
%TO.N,/TR*%
X165862000Y-84937600D03*
%TD*%
D18*
%TO.N,GND*%
X174955200Y-88087200D03*
%TD*%
D19*
%TO.N,VCC*%
X166725600Y-99822000D02*
X166735600Y-99812000D01*
X166735600Y-99812000D02*
X166735600Y-97698400D01*
X168351200Y-101447600D02*
X166725600Y-99822000D01*
X175158400Y-101447600D02*
X168351200Y-101447600D01*
X178409600Y-104698800D02*
X175158400Y-101447600D01*
%TO.N,GND*%
X177357800Y-90489800D02*
X179832000Y-90489800D01*
X174955200Y-88087200D02*
X177357800Y-90489800D01*
%TO.N,/OUT*%
X178828400Y-96573400D02*
X179832000Y-95569800D01*
X170893800Y-96573400D02*
X178828400Y-96573400D01*
X169478800Y-95158400D02*
X170893800Y-96573400D01*
X166735600Y-95158400D02*
X169478800Y-95158400D01*
%TO.N,/TR*%
X167904000Y-92618400D02*
X170444000Y-95158400D01*
X170444000Y-95158400D02*
X174355600Y-95158400D01*
X166735600Y-92618400D02*
X167904000Y-92618400D01*
%TO.N,GND*%
X164795200Y-100036000D02*
X168289600Y-103530400D01*
X164795200Y-91846400D02*
X164795200Y-100036000D01*
X166563200Y-90078400D02*
X164795200Y-91846400D01*
X166735600Y-90078400D02*
X166563200Y-90078400D01*
%TO.N,VCC*%
X179643800Y-93218000D02*
X179832000Y-93029800D01*
X177495200Y-93218000D02*
X179643800Y-93218000D01*
X174355600Y-90078400D02*
X177495200Y-93218000D01*
X174396400Y-88595200D02*
X174355600Y-88636000D01*
X173380400Y-87579200D02*
X174396400Y-88595200D01*
X162814000Y-85140800D02*
X165252400Y-87579200D01*
X174355600Y-88636000D02*
X174355600Y-90078400D01*
X160985200Y-85140800D02*
X162814000Y-85140800D01*
X165252400Y-87579200D02*
X173380400Y-87579200D01*
%TD*%
%TA.AperFunction,Conductor*%
%TO.N,GND*%
G36*
X183939221Y-81808502D02*
G01*
X183985714Y-81862158D01*
X183997100Y-81914500D01*
X183997100Y-109093500D01*
X183977098Y-109161621D01*
X183923442Y-109208114D01*
X183871100Y-109219500D01*
X157504900Y-109219500D01*
X157436779Y-109199498D01*
X157390286Y-109145842D01*
X157378900Y-109093500D01*
X157378900Y-105572400D01*
X160158407Y-105572400D01*
X160177142Y-105786542D01*
X160178566Y-105791855D01*
X160178566Y-105791857D01*
X160192409Y-105843517D01*
X160232778Y-105994177D01*
X160235100Y-105999157D01*
X160235101Y-105999159D01*
X160313727Y-106167771D01*
X160323624Y-106188996D01*
X160446919Y-106365081D01*
X160598919Y-106517081D01*
X160775003Y-106640376D01*
X160779981Y-106642697D01*
X160779984Y-106642699D01*
X160964841Y-106728899D01*
X160969823Y-106731222D01*
X160975131Y-106732644D01*
X160975133Y-106732645D01*
X161172143Y-106785434D01*
X161172145Y-106785434D01*
X161177458Y-106786858D01*
X161391600Y-106805593D01*
X161605742Y-106786858D01*
X161611055Y-106785434D01*
X161611057Y-106785434D01*
X161808067Y-106732645D01*
X161808069Y-106732644D01*
X161813377Y-106731222D01*
X161818359Y-106728899D01*
X162003216Y-106642699D01*
X162003219Y-106642697D01*
X162008197Y-106640376D01*
X162184281Y-106517081D01*
X162336281Y-106365081D01*
X162459576Y-106188996D01*
X162469474Y-106167771D01*
X162548099Y-105999159D01*
X162548100Y-105999157D01*
X162550422Y-105994177D01*
X162590792Y-105843517D01*
X162604634Y-105791857D01*
X162604634Y-105791855D01*
X162606058Y-105786542D01*
X162624793Y-105572400D01*
X162606058Y-105358258D01*
X162604634Y-105352943D01*
X162551845Y-105155933D01*
X162551844Y-105155931D01*
X162550422Y-105150623D01*
X162459576Y-104955804D01*
X162336281Y-104779719D01*
X162184281Y-104627719D01*
X162168204Y-104616462D01*
X167568093Y-104616462D01*
X167577389Y-104628477D01*
X167628594Y-104664331D01*
X167638089Y-104669814D01*
X167835547Y-104761890D01*
X167845839Y-104765636D01*
X168056288Y-104822025D01*
X168067081Y-104823928D01*
X168284125Y-104842917D01*
X168295075Y-104842917D01*
X168512119Y-104823928D01*
X168522912Y-104822025D01*
X168733361Y-104765636D01*
X168743653Y-104761890D01*
X168941111Y-104669814D01*
X168950606Y-104664331D01*
X169002648Y-104627891D01*
X169011024Y-104617412D01*
X169003956Y-104603966D01*
X168302412Y-103902422D01*
X168288468Y-103894808D01*
X168286635Y-103894939D01*
X168280020Y-103899190D01*
X167574523Y-104604687D01*
X167568093Y-104616462D01*
X162168204Y-104616462D01*
X162008197Y-104504424D01*
X162003219Y-104502103D01*
X162003216Y-104502101D01*
X161819847Y-104416595D01*
X161766562Y-104369678D01*
X161747101Y-104301400D01*
X161767643Y-104233441D01*
X161819847Y-104188205D01*
X162003216Y-104102699D01*
X162003219Y-104102697D01*
X162008197Y-104100376D01*
X162184281Y-103977081D01*
X162336281Y-103825081D01*
X162459576Y-103648996D01*
X162512326Y-103535875D01*
X166977083Y-103535875D01*
X166996072Y-103752919D01*
X166997975Y-103763712D01*
X167054364Y-103974161D01*
X167058110Y-103984453D01*
X167150186Y-104181911D01*
X167155669Y-104191406D01*
X167192109Y-104243448D01*
X167202588Y-104251824D01*
X167216034Y-104244756D01*
X167917578Y-103543212D01*
X167923956Y-103531532D01*
X168654008Y-103531532D01*
X168654139Y-103533365D01*
X168658390Y-103539980D01*
X169363887Y-104245477D01*
X169375662Y-104251907D01*
X169387677Y-104242611D01*
X169423531Y-104191406D01*
X169429014Y-104181911D01*
X169521090Y-103984453D01*
X169524836Y-103974161D01*
X169581225Y-103763712D01*
X169583128Y-103752919D01*
X169602117Y-103535875D01*
X169602117Y-103524925D01*
X169583128Y-103307881D01*
X169581225Y-103297088D01*
X169524836Y-103086639D01*
X169521090Y-103076347D01*
X169429014Y-102878889D01*
X169423531Y-102869394D01*
X169387091Y-102817352D01*
X169376612Y-102808976D01*
X169363166Y-102816044D01*
X168661622Y-103517588D01*
X168654008Y-103531532D01*
X167923956Y-103531532D01*
X167925192Y-103529268D01*
X167925061Y-103527435D01*
X167920810Y-103520820D01*
X167215313Y-102815323D01*
X167203538Y-102808893D01*
X167191523Y-102818189D01*
X167155669Y-102869394D01*
X167150186Y-102878889D01*
X167058110Y-103076347D01*
X167054364Y-103086639D01*
X166997975Y-103297088D01*
X166996072Y-103307881D01*
X166977083Y-103524925D01*
X166977083Y-103535875D01*
X162512326Y-103535875D01*
X162548099Y-103459159D01*
X162548100Y-103459157D01*
X162550422Y-103454177D01*
X162563388Y-103405790D01*
X162604634Y-103251857D01*
X162604634Y-103251855D01*
X162606058Y-103246542D01*
X162624793Y-103032400D01*
X162606058Y-102818258D01*
X162550422Y-102610623D01*
X162478709Y-102456834D01*
X162461899Y-102420785D01*
X162461897Y-102420782D01*
X162459576Y-102415804D01*
X162336281Y-102239719D01*
X162184281Y-102087719D01*
X162008197Y-101964424D01*
X162003219Y-101962103D01*
X162003216Y-101962101D01*
X161819847Y-101876595D01*
X161766562Y-101829678D01*
X161747101Y-101761400D01*
X161767643Y-101693441D01*
X161819847Y-101648205D01*
X162003216Y-101562699D01*
X162003219Y-101562697D01*
X162008197Y-101560376D01*
X162184281Y-101437081D01*
X162336281Y-101285081D01*
X162459576Y-101108996D01*
X162514505Y-100991202D01*
X162548099Y-100919159D01*
X162548100Y-100919157D01*
X162550422Y-100914177D01*
X162554761Y-100897986D01*
X162604634Y-100711857D01*
X162604634Y-100711855D01*
X162606058Y-100706542D01*
X162624793Y-100492400D01*
X162606058Y-100278258D01*
X162559401Y-100104132D01*
X162551845Y-100075933D01*
X162551844Y-100075931D01*
X162550422Y-100070623D01*
X162484752Y-99929794D01*
X162461899Y-99880785D01*
X162461897Y-99880782D01*
X162459576Y-99875804D01*
X162336281Y-99699719D01*
X162184281Y-99547719D01*
X162008197Y-99424424D01*
X162003219Y-99422103D01*
X162003216Y-99422101D01*
X161818359Y-99335901D01*
X161818358Y-99335900D01*
X161813377Y-99333578D01*
X161808069Y-99332156D01*
X161808067Y-99332155D01*
X161611057Y-99279366D01*
X161611055Y-99279366D01*
X161605742Y-99277942D01*
X161391600Y-99259207D01*
X161177458Y-99277942D01*
X161172145Y-99279366D01*
X161172143Y-99279366D01*
X160975133Y-99332155D01*
X160975131Y-99332156D01*
X160969823Y-99333578D01*
X160964843Y-99335900D01*
X160964841Y-99335901D01*
X160779985Y-99422101D01*
X160779982Y-99422103D01*
X160775004Y-99424424D01*
X160598919Y-99547719D01*
X160446919Y-99699719D01*
X160323624Y-99875804D01*
X160321303Y-99880782D01*
X160321301Y-99880785D01*
X160298448Y-99929794D01*
X160232778Y-100070623D01*
X160231356Y-100075931D01*
X160231355Y-100075933D01*
X160223799Y-100104132D01*
X160177142Y-100278258D01*
X160158407Y-100492400D01*
X160177142Y-100706542D01*
X160178566Y-100711855D01*
X160178566Y-100711857D01*
X160228440Y-100897986D01*
X160232778Y-100914177D01*
X160235100Y-100919157D01*
X160235101Y-100919159D01*
X160268696Y-100991202D01*
X160323624Y-101108996D01*
X160446919Y-101285081D01*
X160598919Y-101437081D01*
X160775003Y-101560376D01*
X160779981Y-101562697D01*
X160779984Y-101562699D01*
X160963353Y-101648205D01*
X161016638Y-101695122D01*
X161036099Y-101763400D01*
X161015557Y-101831359D01*
X160963353Y-101876595D01*
X160779985Y-101962101D01*
X160779982Y-101962103D01*
X160775004Y-101964424D01*
X160598919Y-102087719D01*
X160446919Y-102239719D01*
X160323624Y-102415804D01*
X160321303Y-102420782D01*
X160321301Y-102420785D01*
X160304491Y-102456834D01*
X160232778Y-102610623D01*
X160177142Y-102818258D01*
X160158407Y-103032400D01*
X160177142Y-103246542D01*
X160178566Y-103251855D01*
X160178566Y-103251857D01*
X160219813Y-103405790D01*
X160232778Y-103454177D01*
X160235100Y-103459157D01*
X160235101Y-103459159D01*
X160270875Y-103535875D01*
X160323624Y-103648996D01*
X160446919Y-103825081D01*
X160598919Y-103977081D01*
X160775003Y-104100376D01*
X160779981Y-104102697D01*
X160779984Y-104102699D01*
X160963353Y-104188205D01*
X161016638Y-104235122D01*
X161036099Y-104303400D01*
X161015557Y-104371359D01*
X160963353Y-104416595D01*
X160779985Y-104502101D01*
X160779982Y-104502103D01*
X160775004Y-104504424D01*
X160598919Y-104627719D01*
X160446919Y-104779719D01*
X160323624Y-104955804D01*
X160232778Y-105150623D01*
X160231356Y-105155931D01*
X160231355Y-105155933D01*
X160178566Y-105352943D01*
X160177142Y-105358258D01*
X160158407Y-105572400D01*
X157378900Y-105572400D01*
X157378900Y-95300800D01*
X159671702Y-95300800D01*
X159691657Y-95528887D01*
X159693081Y-95534200D01*
X159693081Y-95534202D01*
X159721352Y-95639708D01*
X159750916Y-95750043D01*
X159753239Y-95755024D01*
X159753239Y-95755025D01*
X159845351Y-95952562D01*
X159845354Y-95952567D01*
X159847677Y-95957549D01*
X159979002Y-96145100D01*
X160140900Y-96306998D01*
X160145408Y-96310155D01*
X160145411Y-96310157D01*
X160215796Y-96359441D01*
X160328451Y-96438323D01*
X160333433Y-96440646D01*
X160333438Y-96440649D01*
X160530975Y-96532761D01*
X160535957Y-96535084D01*
X160541265Y-96536506D01*
X160541267Y-96536507D01*
X160751798Y-96592919D01*
X160751800Y-96592919D01*
X160757113Y-96594343D01*
X160985200Y-96614298D01*
X161213287Y-96594343D01*
X161218600Y-96592919D01*
X161218602Y-96592919D01*
X161429133Y-96536507D01*
X161429135Y-96536506D01*
X161434443Y-96535084D01*
X161439425Y-96532761D01*
X161636962Y-96440649D01*
X161636967Y-96440646D01*
X161641949Y-96438323D01*
X161754604Y-96359441D01*
X161824989Y-96310157D01*
X161824992Y-96310155D01*
X161829500Y-96306998D01*
X161991398Y-96145100D01*
X162122723Y-95957549D01*
X162125046Y-95952567D01*
X162125049Y-95952562D01*
X162217161Y-95755025D01*
X162217161Y-95755024D01*
X162219484Y-95750043D01*
X162249049Y-95639708D01*
X162277319Y-95534202D01*
X162277319Y-95534200D01*
X162278743Y-95528887D01*
X162298698Y-95300800D01*
X162278743Y-95072713D01*
X162242055Y-94935793D01*
X162220907Y-94856867D01*
X162220906Y-94856865D01*
X162219484Y-94851557D01*
X162166568Y-94738077D01*
X162125049Y-94649038D01*
X162125046Y-94649033D01*
X162122723Y-94644051D01*
X161991398Y-94456500D01*
X161829500Y-94294602D01*
X161824992Y-94291445D01*
X161824989Y-94291443D01*
X161730550Y-94225316D01*
X161641949Y-94163277D01*
X161636967Y-94160954D01*
X161636962Y-94160951D01*
X161439425Y-94068839D01*
X161439424Y-94068839D01*
X161434443Y-94066516D01*
X161429135Y-94065094D01*
X161429133Y-94065093D01*
X161218602Y-94008681D01*
X161218600Y-94008681D01*
X161213287Y-94007257D01*
X160985200Y-93987302D01*
X160757113Y-94007257D01*
X160751800Y-94008681D01*
X160751798Y-94008681D01*
X160541267Y-94065093D01*
X160541265Y-94065094D01*
X160535957Y-94066516D01*
X160530976Y-94068839D01*
X160530975Y-94068839D01*
X160333438Y-94160951D01*
X160333433Y-94160954D01*
X160328451Y-94163277D01*
X160239850Y-94225316D01*
X160145411Y-94291443D01*
X160145408Y-94291445D01*
X160140900Y-94294602D01*
X159979002Y-94456500D01*
X159847677Y-94644051D01*
X159845354Y-94649033D01*
X159845351Y-94649038D01*
X159803832Y-94738077D01*
X159750916Y-94851557D01*
X159749494Y-94856865D01*
X159749493Y-94856867D01*
X159728345Y-94935793D01*
X159691657Y-95072713D01*
X159671702Y-95300800D01*
X157378900Y-95300800D01*
X157378900Y-89806285D01*
X165427600Y-89806285D01*
X165432075Y-89821524D01*
X165433465Y-89822729D01*
X165441148Y-89824400D01*
X166463485Y-89824400D01*
X166478724Y-89819925D01*
X166479929Y-89818535D01*
X166481600Y-89810852D01*
X166481600Y-89806285D01*
X166989600Y-89806285D01*
X166994075Y-89821524D01*
X166995465Y-89822729D01*
X167003148Y-89824400D01*
X168025484Y-89824400D01*
X168040723Y-89819925D01*
X168041928Y-89818535D01*
X168043599Y-89810852D01*
X168043599Y-89233731D01*
X168043229Y-89226910D01*
X168037705Y-89176048D01*
X168034079Y-89160796D01*
X167988924Y-89040346D01*
X167980386Y-89024751D01*
X167903885Y-88922676D01*
X167891324Y-88910115D01*
X167789249Y-88833614D01*
X167773654Y-88825076D01*
X167653206Y-88779922D01*
X167637951Y-88776295D01*
X167587086Y-88770769D01*
X167580272Y-88770400D01*
X167007715Y-88770400D01*
X166992476Y-88774875D01*
X166991271Y-88776265D01*
X166989600Y-88783948D01*
X166989600Y-89806285D01*
X166481600Y-89806285D01*
X166481600Y-88788516D01*
X166477125Y-88773277D01*
X166475735Y-88772072D01*
X166468052Y-88770401D01*
X165890931Y-88770401D01*
X165884110Y-88770771D01*
X165833248Y-88776295D01*
X165817996Y-88779921D01*
X165697546Y-88825076D01*
X165681951Y-88833614D01*
X165579876Y-88910115D01*
X165567315Y-88922676D01*
X165490814Y-89024751D01*
X165482276Y-89040346D01*
X165437122Y-89160794D01*
X165433495Y-89176049D01*
X165427969Y-89226914D01*
X165427600Y-89233728D01*
X165427600Y-89806285D01*
X157378900Y-89806285D01*
X157378900Y-85140800D01*
X159671702Y-85140800D01*
X159691657Y-85368887D01*
X159693081Y-85374200D01*
X159693081Y-85374202D01*
X159695046Y-85381533D01*
X159750916Y-85590043D01*
X159753239Y-85595024D01*
X159753239Y-85595025D01*
X159845351Y-85792562D01*
X159845354Y-85792567D01*
X159847677Y-85797549D01*
X159979002Y-85985100D01*
X160140900Y-86146998D01*
X160145408Y-86150155D01*
X160145411Y-86150157D01*
X160178473Y-86173307D01*
X160328451Y-86278323D01*
X160333433Y-86280646D01*
X160333438Y-86280649D01*
X160530975Y-86372761D01*
X160535957Y-86375084D01*
X160541265Y-86376506D01*
X160541267Y-86376507D01*
X160751798Y-86432919D01*
X160751800Y-86432919D01*
X160757113Y-86434343D01*
X160985200Y-86454298D01*
X161213287Y-86434343D01*
X161218600Y-86432919D01*
X161218602Y-86432919D01*
X161429133Y-86376507D01*
X161429135Y-86376506D01*
X161434443Y-86375084D01*
X161439425Y-86372761D01*
X161636962Y-86280649D01*
X161636967Y-86280646D01*
X161641949Y-86278323D01*
X161791927Y-86173307D01*
X161824989Y-86150157D01*
X161824992Y-86150155D01*
X161829500Y-86146998D01*
X161991398Y-85985100D01*
X162101381Y-85828029D01*
X162156838Y-85783701D01*
X162204594Y-85774300D01*
X162499406Y-85774300D01*
X162567527Y-85794302D01*
X162588501Y-85811205D01*
X164748743Y-87971447D01*
X164756287Y-87979737D01*
X164760400Y-87986218D01*
X164766177Y-87991643D01*
X164810067Y-88032858D01*
X164812909Y-88035613D01*
X164832630Y-88055334D01*
X164835825Y-88057812D01*
X164844847Y-88065518D01*
X164877079Y-88095786D01*
X164884028Y-88099606D01*
X164894832Y-88105546D01*
X164911356Y-88116399D01*
X164927359Y-88128813D01*
X164967943Y-88146376D01*
X164978573Y-88151583D01*
X165017340Y-88172895D01*
X165025017Y-88174866D01*
X165025022Y-88174868D01*
X165036958Y-88177932D01*
X165055666Y-88184337D01*
X165074255Y-88192381D01*
X165082080Y-88193620D01*
X165082082Y-88193621D01*
X165117919Y-88199297D01*
X165129540Y-88201704D01*
X165164689Y-88210728D01*
X165172370Y-88212700D01*
X165192631Y-88212700D01*
X165212340Y-88214251D01*
X165232343Y-88217419D01*
X165240235Y-88216673D01*
X165245462Y-88216179D01*
X165276354Y-88213259D01*
X165288211Y-88212700D01*
X173065805Y-88212700D01*
X173133926Y-88232702D01*
X173154900Y-88249605D01*
X173679320Y-88774025D01*
X173713346Y-88836337D01*
X173708281Y-88907152D01*
X173662496Y-88966333D01*
X173515811Y-89069043D01*
X173515808Y-89069045D01*
X173511300Y-89072202D01*
X173349402Y-89234100D01*
X173346245Y-89238608D01*
X173346243Y-89238611D01*
X173314408Y-89284076D01*
X173218077Y-89421651D01*
X173215754Y-89426633D01*
X173215751Y-89426638D01*
X173171193Y-89522194D01*
X173121316Y-89629157D01*
X173119894Y-89634465D01*
X173119893Y-89634467D01*
X173070572Y-89818535D01*
X173062057Y-89850313D01*
X173042102Y-90078400D01*
X173062057Y-90306487D01*
X173063481Y-90311800D01*
X173063481Y-90311802D01*
X173094975Y-90429336D01*
X173121316Y-90527643D01*
X173123639Y-90532624D01*
X173123639Y-90532625D01*
X173215751Y-90730162D01*
X173215754Y-90730167D01*
X173218077Y-90735149D01*
X173349402Y-90922700D01*
X173511300Y-91084598D01*
X173515808Y-91087755D01*
X173515811Y-91087757D01*
X173556795Y-91116454D01*
X173698851Y-91215923D01*
X173703833Y-91218246D01*
X173703838Y-91218249D01*
X173738057Y-91234205D01*
X173791342Y-91281122D01*
X173810803Y-91349399D01*
X173790261Y-91417359D01*
X173738057Y-91462595D01*
X173703838Y-91478551D01*
X173703833Y-91478554D01*
X173698851Y-91480877D01*
X173594555Y-91553906D01*
X173515811Y-91609043D01*
X173515808Y-91609045D01*
X173511300Y-91612202D01*
X173349402Y-91774100D01*
X173346245Y-91778608D01*
X173346243Y-91778611D01*
X173308085Y-91833107D01*
X173218077Y-91961651D01*
X173215754Y-91966633D01*
X173215751Y-91966638D01*
X173135009Y-92139792D01*
X173121316Y-92169157D01*
X173119894Y-92174465D01*
X173119893Y-92174467D01*
X173064474Y-92381292D01*
X173062057Y-92390313D01*
X173042102Y-92618400D01*
X173062057Y-92846487D01*
X173063481Y-92851800D01*
X173063481Y-92851802D01*
X173112078Y-93033165D01*
X173121316Y-93067643D01*
X173123639Y-93072624D01*
X173123639Y-93072625D01*
X173215751Y-93270162D01*
X173215754Y-93270167D01*
X173218077Y-93275149D01*
X173349402Y-93462700D01*
X173511300Y-93624598D01*
X173515808Y-93627755D01*
X173515811Y-93627757D01*
X173593989Y-93682498D01*
X173698851Y-93755923D01*
X173703833Y-93758246D01*
X173703838Y-93758249D01*
X173738057Y-93774205D01*
X173791342Y-93821122D01*
X173810803Y-93889399D01*
X173790261Y-93957359D01*
X173738057Y-94002595D01*
X173703838Y-94018551D01*
X173703833Y-94018554D01*
X173698851Y-94020877D01*
X173627307Y-94070973D01*
X173515811Y-94149043D01*
X173515808Y-94149045D01*
X173511300Y-94152202D01*
X173349402Y-94314100D01*
X173346245Y-94318608D01*
X173346243Y-94318611D01*
X173239419Y-94471171D01*
X173183962Y-94515499D01*
X173136206Y-94524900D01*
X170758595Y-94524900D01*
X170690474Y-94504898D01*
X170669500Y-94487995D01*
X168407652Y-92226147D01*
X168400112Y-92217861D01*
X168396000Y-92211382D01*
X168346348Y-92164756D01*
X168343507Y-92162002D01*
X168323770Y-92142265D01*
X168320573Y-92139785D01*
X168311551Y-92132080D01*
X168285100Y-92107241D01*
X168279321Y-92101814D01*
X168272375Y-92097995D01*
X168272372Y-92097993D01*
X168261566Y-92092052D01*
X168245047Y-92081201D01*
X168244583Y-92080841D01*
X168229041Y-92068786D01*
X168221772Y-92065641D01*
X168221768Y-92065638D01*
X168188463Y-92051226D01*
X168177813Y-92046009D01*
X168139060Y-92024705D01*
X168119437Y-92019667D01*
X168100734Y-92013263D01*
X168089420Y-92008367D01*
X168089419Y-92008367D01*
X168082145Y-92005219D01*
X168074322Y-92003980D01*
X168074312Y-92003977D01*
X168038476Y-91998301D01*
X168026856Y-91995895D01*
X167991711Y-91986872D01*
X167991710Y-91986872D01*
X167984030Y-91984900D01*
X167963776Y-91984900D01*
X167944059Y-91983348D01*
X167934181Y-91981783D01*
X167870030Y-91951368D01*
X167850685Y-91929606D01*
X167744957Y-91778611D01*
X167744955Y-91778608D01*
X167741798Y-91774100D01*
X167579900Y-91612202D01*
X167575389Y-91609043D01*
X167571176Y-91605508D01*
X167571988Y-91604540D01*
X167531510Y-91553906D01*
X167524196Y-91483287D01*
X167556224Y-91419924D01*
X167617423Y-91383936D01*
X167634501Y-91380880D01*
X167637952Y-91380505D01*
X167653204Y-91376879D01*
X167773654Y-91331724D01*
X167789249Y-91323186D01*
X167891324Y-91246685D01*
X167903885Y-91234124D01*
X167980386Y-91132049D01*
X167988924Y-91116454D01*
X168034078Y-90996006D01*
X168037705Y-90980751D01*
X168043231Y-90929886D01*
X168043600Y-90923072D01*
X168043600Y-90350515D01*
X168039125Y-90335276D01*
X168037735Y-90334071D01*
X168030052Y-90332400D01*
X165445716Y-90332400D01*
X165430477Y-90336875D01*
X165429272Y-90338265D01*
X165427601Y-90345948D01*
X165427601Y-90923069D01*
X165427971Y-90929890D01*
X165433495Y-90980752D01*
X165437121Y-90996004D01*
X165482276Y-91116454D01*
X165490814Y-91132049D01*
X165567315Y-91234124D01*
X165579876Y-91246685D01*
X165681951Y-91323186D01*
X165697546Y-91331724D01*
X165817994Y-91376878D01*
X165833243Y-91380504D01*
X165836696Y-91380879D01*
X165839206Y-91381922D01*
X165840931Y-91382332D01*
X165840865Y-91382611D01*
X165902259Y-91408119D01*
X165942688Y-91466480D01*
X165945146Y-91537434D01*
X165908853Y-91598454D01*
X165897360Y-91607744D01*
X165895814Y-91609041D01*
X165891300Y-91612202D01*
X165729402Y-91774100D01*
X165726245Y-91778608D01*
X165726243Y-91778611D01*
X165688085Y-91833107D01*
X165598077Y-91961651D01*
X165595754Y-91966633D01*
X165595751Y-91966638D01*
X165515009Y-92139792D01*
X165501316Y-92169157D01*
X165499894Y-92174465D01*
X165499893Y-92174467D01*
X165444474Y-92381292D01*
X165442057Y-92390313D01*
X165422102Y-92618400D01*
X165442057Y-92846487D01*
X165443481Y-92851800D01*
X165443481Y-92851802D01*
X165492078Y-93033165D01*
X165501316Y-93067643D01*
X165503639Y-93072624D01*
X165503639Y-93072625D01*
X165595751Y-93270162D01*
X165595754Y-93270167D01*
X165598077Y-93275149D01*
X165729402Y-93462700D01*
X165891300Y-93624598D01*
X165895808Y-93627755D01*
X165895811Y-93627757D01*
X165973989Y-93682498D01*
X166078851Y-93755923D01*
X166083833Y-93758246D01*
X166083838Y-93758249D01*
X166118057Y-93774205D01*
X166171342Y-93821122D01*
X166190803Y-93889399D01*
X166170261Y-93957359D01*
X166118057Y-94002595D01*
X166083838Y-94018551D01*
X166083833Y-94018554D01*
X166078851Y-94020877D01*
X166007307Y-94070973D01*
X165895811Y-94149043D01*
X165895808Y-94149045D01*
X165891300Y-94152202D01*
X165729402Y-94314100D01*
X165726245Y-94318608D01*
X165726243Y-94318611D01*
X165696447Y-94361164D01*
X165598077Y-94501651D01*
X165595754Y-94506633D01*
X165595751Y-94506638D01*
X165564876Y-94572851D01*
X165501316Y-94709157D01*
X165499894Y-94714465D01*
X165499893Y-94714467D01*
X165444474Y-94921292D01*
X165442057Y-94930313D01*
X165422102Y-95158400D01*
X165442057Y-95386487D01*
X165443481Y-95391800D01*
X165443481Y-95391802D01*
X165492078Y-95573165D01*
X165501316Y-95607643D01*
X165503639Y-95612624D01*
X165503639Y-95612625D01*
X165595751Y-95810162D01*
X165595754Y-95810167D01*
X165598077Y-95815149D01*
X165729402Y-96002700D01*
X165891300Y-96164598D01*
X165895808Y-96167755D01*
X165895811Y-96167757D01*
X165973989Y-96222498D01*
X166078851Y-96295923D01*
X166083833Y-96298246D01*
X166083838Y-96298249D01*
X166118057Y-96314205D01*
X166171342Y-96361122D01*
X166190803Y-96429399D01*
X166170261Y-96497359D01*
X166118057Y-96542595D01*
X166083838Y-96558551D01*
X166083833Y-96558554D01*
X166078851Y-96560877D01*
X166031057Y-96594343D01*
X165895811Y-96689043D01*
X165895808Y-96689045D01*
X165891300Y-96692202D01*
X165729402Y-96854100D01*
X165726245Y-96858608D01*
X165726243Y-96858611D01*
X165675628Y-96930897D01*
X165598077Y-97041651D01*
X165595754Y-97046633D01*
X165595751Y-97046638D01*
X165507573Y-97235739D01*
X165501316Y-97249157D01*
X165499894Y-97254465D01*
X165499893Y-97254467D01*
X165443481Y-97464998D01*
X165442057Y-97470313D01*
X165422102Y-97698400D01*
X165442057Y-97926487D01*
X165501316Y-98147643D01*
X165503639Y-98152624D01*
X165503639Y-98152625D01*
X165595751Y-98350162D01*
X165595754Y-98350167D01*
X165598077Y-98355149D01*
X165729402Y-98542700D01*
X165891300Y-98704598D01*
X165895808Y-98707755D01*
X165895811Y-98707757D01*
X166048371Y-98814581D01*
X166092699Y-98870038D01*
X166102100Y-98917794D01*
X166102100Y-99693412D01*
X166099065Y-99720899D01*
X166089898Y-99761909D01*
X166090147Y-99769832D01*
X166090147Y-99769833D01*
X166090157Y-99770141D01*
X166088667Y-99793815D01*
X166087380Y-99801943D01*
X166088126Y-99809835D01*
X166088126Y-99809836D01*
X166092665Y-99857858D01*
X166093162Y-99865755D01*
X166093478Y-99875804D01*
X166094927Y-99921889D01*
X166097139Y-99929501D01*
X166097224Y-99929794D01*
X166101668Y-99953094D01*
X166102443Y-99961292D01*
X166105127Y-99968746D01*
X166121471Y-100014144D01*
X166123917Y-100021673D01*
X166137370Y-100067981D01*
X166137372Y-100067985D01*
X166139582Y-100075593D01*
X166143617Y-100082416D01*
X166143619Y-100082420D01*
X166143777Y-100082688D01*
X166153867Y-100104132D01*
X166153972Y-100104423D01*
X166153976Y-100104431D01*
X166156661Y-100111889D01*
X166188246Y-100158365D01*
X166192455Y-100164996D01*
X166221058Y-100213362D01*
X166226878Y-100219182D01*
X166241994Y-100237453D01*
X166246628Y-100244271D01*
X166252576Y-100249515D01*
X166252577Y-100249516D01*
X166288763Y-100281418D01*
X166294533Y-100286837D01*
X167847543Y-101839847D01*
X167855087Y-101848137D01*
X167859200Y-101854618D01*
X167864977Y-101860043D01*
X167908867Y-101901258D01*
X167911709Y-101904013D01*
X167931431Y-101923735D01*
X167934555Y-101926158D01*
X167934559Y-101926162D01*
X167934624Y-101926212D01*
X167943645Y-101933917D01*
X167975879Y-101964186D01*
X167982827Y-101968005D01*
X167982829Y-101968007D01*
X167993632Y-101973946D01*
X168010159Y-101984802D01*
X168019898Y-101992357D01*
X168019900Y-101992358D01*
X168026160Y-101997214D01*
X168050366Y-102007689D01*
X168104939Y-102053099D01*
X168126299Y-102120806D01*
X168107663Y-102189313D01*
X168054947Y-102236869D01*
X168032935Y-102245032D01*
X167845839Y-102295164D01*
X167835547Y-102298910D01*
X167638089Y-102390986D01*
X167628594Y-102396469D01*
X167576552Y-102432909D01*
X167568176Y-102443388D01*
X167575244Y-102456834D01*
X168276788Y-103158378D01*
X168290732Y-103165992D01*
X168292565Y-103165861D01*
X168299180Y-103161610D01*
X169004677Y-102456113D01*
X169011107Y-102444338D01*
X169001811Y-102432323D01*
X168950606Y-102396469D01*
X168941111Y-102390986D01*
X168791657Y-102321295D01*
X168738372Y-102274378D01*
X168718911Y-102206100D01*
X168739453Y-102138141D01*
X168793476Y-102092075D01*
X168844907Y-102081100D01*
X172733110Y-102081100D01*
X172801231Y-102101102D01*
X172847724Y-102154758D01*
X172857828Y-102225032D01*
X172828334Y-102289612D01*
X172786360Y-102321295D01*
X172637838Y-102390551D01*
X172637833Y-102390554D01*
X172632851Y-102392877D01*
X172575680Y-102432909D01*
X172449811Y-102521043D01*
X172449808Y-102521045D01*
X172445300Y-102524202D01*
X172283402Y-102686100D01*
X172152077Y-102873651D01*
X172149754Y-102878633D01*
X172149751Y-102878638D01*
X172057639Y-103076175D01*
X172055316Y-103081157D01*
X172053894Y-103086465D01*
X172053893Y-103086467D01*
X172006265Y-103264217D01*
X171996057Y-103302313D01*
X171976102Y-103530400D01*
X171996057Y-103758487D01*
X171997481Y-103763800D01*
X171997481Y-103763802D01*
X172050671Y-103962306D01*
X172055316Y-103979643D01*
X172057639Y-103984624D01*
X172057639Y-103984625D01*
X172149751Y-104182162D01*
X172149754Y-104182167D01*
X172152077Y-104187149D01*
X172164700Y-104205176D01*
X172279886Y-104369678D01*
X172283402Y-104374700D01*
X172445300Y-104536598D01*
X172449808Y-104539755D01*
X172449811Y-104539757D01*
X172527989Y-104594498D01*
X172632851Y-104667923D01*
X172637833Y-104670246D01*
X172637838Y-104670249D01*
X172834365Y-104761890D01*
X172840357Y-104764684D01*
X172845665Y-104766106D01*
X172845667Y-104766107D01*
X173056198Y-104822519D01*
X173056200Y-104822519D01*
X173061513Y-104823943D01*
X173289600Y-104843898D01*
X173517687Y-104823943D01*
X173523000Y-104822519D01*
X173523002Y-104822519D01*
X173733533Y-104766107D01*
X173733535Y-104766106D01*
X173738843Y-104764684D01*
X173744835Y-104761890D01*
X173941362Y-104670249D01*
X173941367Y-104670246D01*
X173946349Y-104667923D01*
X174051211Y-104594498D01*
X174129389Y-104539757D01*
X174129392Y-104539755D01*
X174133900Y-104536598D01*
X174295798Y-104374700D01*
X174299315Y-104369678D01*
X174414500Y-104205176D01*
X174427123Y-104187149D01*
X174429446Y-104182167D01*
X174429449Y-104182162D01*
X174521561Y-103984625D01*
X174521561Y-103984624D01*
X174523884Y-103979643D01*
X174528530Y-103962306D01*
X174581719Y-103763802D01*
X174581719Y-103763800D01*
X174583143Y-103758487D01*
X174603098Y-103530400D01*
X174583143Y-103302313D01*
X174572935Y-103264217D01*
X174525307Y-103086467D01*
X174525306Y-103086465D01*
X174523884Y-103081157D01*
X174521561Y-103076175D01*
X174429449Y-102878638D01*
X174429446Y-102878633D01*
X174427123Y-102873651D01*
X174295798Y-102686100D01*
X174133900Y-102524202D01*
X174129392Y-102521045D01*
X174129389Y-102521043D01*
X174003520Y-102432909D01*
X173946349Y-102392877D01*
X173941367Y-102390554D01*
X173941362Y-102390551D01*
X173792840Y-102321295D01*
X173739555Y-102274378D01*
X173720094Y-102206101D01*
X173740636Y-102138141D01*
X173794658Y-102092075D01*
X173846090Y-102081100D01*
X174843806Y-102081100D01*
X174911927Y-102101102D01*
X174932901Y-102118005D01*
X176764195Y-103949299D01*
X176798221Y-104011611D01*
X176801100Y-104038394D01*
X176801100Y-105846934D01*
X176807855Y-105909116D01*
X176858985Y-106045505D01*
X176946339Y-106162061D01*
X177062895Y-106249415D01*
X177199284Y-106300545D01*
X177261466Y-106307300D01*
X177538622Y-106307300D01*
X177606743Y-106327302D01*
X177653236Y-106380958D01*
X177663340Y-106451232D01*
X177635706Y-106513615D01*
X177527817Y-106644030D01*
X177524888Y-106649447D01*
X177524886Y-106649450D01*
X177432016Y-106821210D01*
X177432014Y-106821215D01*
X177429086Y-106826630D01*
X177367702Y-107024929D01*
X177367058Y-107031054D01*
X177367058Y-107031055D01*
X177365526Y-107045636D01*
X177346004Y-107231375D01*
X177364818Y-107438103D01*
X177366556Y-107444009D01*
X177366557Y-107444013D01*
X177410073Y-107591868D01*
X177423427Y-107637240D01*
X177519599Y-107821200D01*
X177649671Y-107982977D01*
X177654388Y-107986935D01*
X177654390Y-107986937D01*
X177758281Y-108074112D01*
X177808689Y-108116409D01*
X177814081Y-108119373D01*
X177814085Y-108119376D01*
X177985198Y-108213446D01*
X177990595Y-108216413D01*
X178188461Y-108279179D01*
X178194578Y-108279865D01*
X178194582Y-108279866D01*
X178271198Y-108288459D01*
X178350013Y-108297300D01*
X178461837Y-108297300D01*
X178464893Y-108297000D01*
X178464900Y-108297000D01*
X178610066Y-108282766D01*
X178610069Y-108282765D01*
X178616192Y-108282165D01*
X178748146Y-108242326D01*
X178809007Y-108223952D01*
X178809010Y-108223951D01*
X178814915Y-108222168D01*
X178822235Y-108218276D01*
X178992753Y-108127609D01*
X178992755Y-108127608D01*
X178998199Y-108124713D01*
X179058071Y-108075883D01*
X179154289Y-107997410D01*
X179154292Y-107997407D01*
X179159064Y-107993515D01*
X179291383Y-107833570D01*
X179295476Y-107826001D01*
X179387184Y-107656390D01*
X179387186Y-107656385D01*
X179390114Y-107650970D01*
X179451498Y-107452671D01*
X179453029Y-107438103D01*
X179472552Y-107252354D01*
X179472552Y-107252352D01*
X179473196Y-107246225D01*
X179454382Y-107039497D01*
X179451898Y-107031055D01*
X179397512Y-106846269D01*
X179395773Y-106840360D01*
X179299601Y-106656400D01*
X179183703Y-106512252D01*
X179156607Y-106446630D01*
X179169290Y-106376775D01*
X179217726Y-106324867D01*
X179281900Y-106307300D01*
X179557734Y-106307300D01*
X179619916Y-106300545D01*
X179756305Y-106249415D01*
X179872861Y-106162061D01*
X179925854Y-106091353D01*
X179982713Y-106048838D01*
X180053532Y-106043812D01*
X180092515Y-106059485D01*
X180213106Y-106133383D01*
X180221900Y-106137864D01*
X180294103Y-106167771D01*
X180349384Y-106212319D01*
X180371805Y-106279683D01*
X180354247Y-106348474D01*
X180325521Y-106381823D01*
X180204911Y-106480190D01*
X180204908Y-106480193D01*
X180200136Y-106484085D01*
X180196208Y-106488833D01*
X180196207Y-106488834D01*
X180172839Y-106517081D01*
X180067817Y-106644030D01*
X180064888Y-106649447D01*
X180064886Y-106649450D01*
X179972016Y-106821210D01*
X179972014Y-106821215D01*
X179969086Y-106826630D01*
X179907702Y-107024929D01*
X179907058Y-107031054D01*
X179907058Y-107031055D01*
X179905526Y-107045636D01*
X179886004Y-107231375D01*
X179904818Y-107438103D01*
X179906556Y-107444009D01*
X179906557Y-107444013D01*
X179950073Y-107591868D01*
X179963427Y-107637240D01*
X180059599Y-107821200D01*
X180189671Y-107982977D01*
X180194388Y-107986935D01*
X180194390Y-107986937D01*
X180298281Y-108074112D01*
X180348689Y-108116409D01*
X180354081Y-108119373D01*
X180354085Y-108119376D01*
X180525198Y-108213446D01*
X180530595Y-108216413D01*
X180728461Y-108279179D01*
X180734578Y-108279865D01*
X180734582Y-108279866D01*
X180811198Y-108288459D01*
X180890013Y-108297300D01*
X181001837Y-108297300D01*
X181004893Y-108297000D01*
X181004900Y-108297000D01*
X181150066Y-108282766D01*
X181150069Y-108282765D01*
X181156192Y-108282165D01*
X181288146Y-108242326D01*
X181349007Y-108223952D01*
X181349010Y-108223951D01*
X181354915Y-108222168D01*
X181362235Y-108218276D01*
X181532753Y-108127609D01*
X181532755Y-108127608D01*
X181538199Y-108124713D01*
X181598071Y-108075883D01*
X181694289Y-107997410D01*
X181694292Y-107997407D01*
X181699064Y-107993515D01*
X181831383Y-107833570D01*
X181835476Y-107826001D01*
X181927184Y-107656390D01*
X181927186Y-107656385D01*
X181930114Y-107650970D01*
X181991498Y-107452671D01*
X181993029Y-107438103D01*
X182012552Y-107252354D01*
X182012552Y-107252352D01*
X182013196Y-107246225D01*
X181994382Y-107039497D01*
X181991898Y-107031055D01*
X181937512Y-106846269D01*
X181935773Y-106840360D01*
X181839601Y-106656400D01*
X181709529Y-106494623D01*
X181696971Y-106484085D01*
X181573288Y-106380303D01*
X181533961Y-106321193D01*
X181532835Y-106250205D01*
X181570266Y-106189878D01*
X181606061Y-106167372D01*
X181677300Y-106137864D01*
X181686094Y-106133383D01*
X181880767Y-106014087D01*
X181890227Y-106003630D01*
X181886444Y-105994854D01*
X180679485Y-104787895D01*
X180645459Y-104725583D01*
X180647294Y-104699932D01*
X181314008Y-104699932D01*
X181314139Y-104701765D01*
X181318390Y-104708380D01*
X182242610Y-105632600D01*
X182254990Y-105639360D01*
X182262640Y-105633633D01*
X182384183Y-105435294D01*
X182388664Y-105426500D01*
X182481734Y-105201809D01*
X182484783Y-105192424D01*
X182541559Y-104955937D01*
X182543102Y-104946190D01*
X182562184Y-104703730D01*
X182562184Y-104693870D01*
X182543102Y-104451410D01*
X182541559Y-104441663D01*
X182484783Y-104205176D01*
X182481734Y-104195791D01*
X182388664Y-103971100D01*
X182384183Y-103962306D01*
X182264887Y-103767633D01*
X182254430Y-103758173D01*
X182245654Y-103761956D01*
X181321622Y-104685988D01*
X181314008Y-104699932D01*
X180647294Y-104699932D01*
X180650524Y-104654768D01*
X180679485Y-104609705D01*
X181883400Y-103405790D01*
X181890160Y-103393410D01*
X181884433Y-103385760D01*
X181686094Y-103264217D01*
X181677300Y-103259736D01*
X181452609Y-103166666D01*
X181443224Y-103163617D01*
X181206737Y-103106841D01*
X181196990Y-103105298D01*
X180954530Y-103086216D01*
X180944670Y-103086216D01*
X180702210Y-103105298D01*
X180692463Y-103106841D01*
X180455976Y-103163617D01*
X180446591Y-103166666D01*
X180221900Y-103259736D01*
X180213106Y-103264217D01*
X180092515Y-103338115D01*
X180023981Y-103356653D01*
X179956304Y-103335196D01*
X179925854Y-103306247D01*
X179878243Y-103242720D01*
X179878242Y-103242719D01*
X179872861Y-103235539D01*
X179756305Y-103148185D01*
X179619916Y-103097055D01*
X179557734Y-103090300D01*
X177749194Y-103090300D01*
X177681073Y-103070298D01*
X177660099Y-103053395D01*
X176675332Y-102068627D01*
X175662052Y-101055347D01*
X175654512Y-101047061D01*
X175650400Y-101040582D01*
X175600748Y-100993956D01*
X175597907Y-100991202D01*
X175578170Y-100971465D01*
X175574973Y-100968985D01*
X175565951Y-100961280D01*
X175539500Y-100936441D01*
X175533721Y-100931014D01*
X175526775Y-100927195D01*
X175526772Y-100927193D01*
X175515966Y-100921252D01*
X175499447Y-100910401D01*
X175497469Y-100908867D01*
X175483441Y-100897986D01*
X175476172Y-100894841D01*
X175476168Y-100894838D01*
X175442863Y-100880426D01*
X175432213Y-100875209D01*
X175393460Y-100853905D01*
X175373837Y-100848867D01*
X175355134Y-100842463D01*
X175343820Y-100837567D01*
X175343819Y-100837567D01*
X175336545Y-100834419D01*
X175328722Y-100833180D01*
X175328712Y-100833177D01*
X175292876Y-100827501D01*
X175281256Y-100825095D01*
X175246111Y-100816072D01*
X175246110Y-100816072D01*
X175238430Y-100814100D01*
X175218176Y-100814100D01*
X175198465Y-100812549D01*
X175186286Y-100810620D01*
X175178457Y-100809380D01*
X175170565Y-100810126D01*
X175134439Y-100813541D01*
X175122581Y-100814100D01*
X168665794Y-100814100D01*
X168597673Y-100794098D01*
X168576699Y-100777195D01*
X167406005Y-99606500D01*
X167371979Y-99544188D01*
X167369100Y-99517405D01*
X167369100Y-98917794D01*
X167389102Y-98849673D01*
X167422829Y-98814581D01*
X167575389Y-98707757D01*
X167575392Y-98707755D01*
X167579900Y-98704598D01*
X167741798Y-98542700D01*
X167873123Y-98355149D01*
X167875446Y-98350167D01*
X167875449Y-98350162D01*
X167967561Y-98152625D01*
X167967561Y-98152624D01*
X167969884Y-98147643D01*
X168029143Y-97926487D01*
X168049098Y-97698400D01*
X168029143Y-97470313D01*
X168027719Y-97464998D01*
X167971307Y-97254467D01*
X167971306Y-97254465D01*
X167969884Y-97249157D01*
X167963627Y-97235739D01*
X167875449Y-97046638D01*
X167875446Y-97046633D01*
X167873123Y-97041651D01*
X167795572Y-96930897D01*
X167744957Y-96858611D01*
X167744955Y-96858608D01*
X167741798Y-96854100D01*
X167579900Y-96692202D01*
X167575392Y-96689045D01*
X167575389Y-96689043D01*
X167440143Y-96594343D01*
X167392349Y-96560877D01*
X167387367Y-96558554D01*
X167387362Y-96558551D01*
X167353143Y-96542595D01*
X167299858Y-96495678D01*
X167280397Y-96427401D01*
X167300939Y-96359441D01*
X167353143Y-96314205D01*
X167387362Y-96298249D01*
X167387367Y-96298246D01*
X167392349Y-96295923D01*
X167497211Y-96222498D01*
X167575389Y-96167757D01*
X167575392Y-96167755D01*
X167579900Y-96164598D01*
X167741798Y-96002700D01*
X167770257Y-95962057D01*
X167851781Y-95845629D01*
X167907238Y-95801301D01*
X167954994Y-95791900D01*
X169164206Y-95791900D01*
X169232327Y-95811902D01*
X169253301Y-95828805D01*
X170390143Y-96965647D01*
X170397687Y-96973937D01*
X170401800Y-96980418D01*
X170407577Y-96985843D01*
X170451467Y-97027058D01*
X170454309Y-97029813D01*
X170474030Y-97049534D01*
X170477225Y-97052012D01*
X170486247Y-97059718D01*
X170518479Y-97089986D01*
X170525428Y-97093806D01*
X170536232Y-97099746D01*
X170552756Y-97110599D01*
X170568759Y-97123013D01*
X170609343Y-97140576D01*
X170619973Y-97145783D01*
X170658740Y-97167095D01*
X170666417Y-97169066D01*
X170666422Y-97169068D01*
X170678358Y-97172132D01*
X170697066Y-97178537D01*
X170715655Y-97186581D01*
X170723483Y-97187821D01*
X170723490Y-97187823D01*
X170759324Y-97193499D01*
X170770944Y-97195905D01*
X170802759Y-97204073D01*
X170813770Y-97206900D01*
X170834024Y-97206900D01*
X170853734Y-97208451D01*
X170873743Y-97211620D01*
X170881635Y-97210874D01*
X170900380Y-97209102D01*
X170917762Y-97207459D01*
X170929619Y-97206900D01*
X172968432Y-97206900D01*
X173036553Y-97226902D01*
X173083046Y-97280558D01*
X173093150Y-97350832D01*
X173090140Y-97365505D01*
X173062057Y-97470313D01*
X173042102Y-97698400D01*
X173062057Y-97926487D01*
X173121316Y-98147643D01*
X173123639Y-98152624D01*
X173123639Y-98152625D01*
X173215751Y-98350162D01*
X173215754Y-98350167D01*
X173218077Y-98355149D01*
X173349402Y-98542700D01*
X173511300Y-98704598D01*
X173515808Y-98707755D01*
X173515811Y-98707757D01*
X173593989Y-98762498D01*
X173698851Y-98835923D01*
X173703833Y-98838246D01*
X173703838Y-98838249D01*
X173874425Y-98917794D01*
X173906357Y-98932684D01*
X173911665Y-98934106D01*
X173911667Y-98934107D01*
X174122198Y-98990519D01*
X174122200Y-98990519D01*
X174127513Y-98991943D01*
X174355600Y-99011898D01*
X174583687Y-98991943D01*
X174589000Y-98990519D01*
X174589002Y-98990519D01*
X174799533Y-98934107D01*
X174799535Y-98934106D01*
X174804843Y-98932684D01*
X174836775Y-98917794D01*
X175007362Y-98838249D01*
X175007367Y-98838246D01*
X175012349Y-98835923D01*
X175117211Y-98762498D01*
X175195389Y-98707757D01*
X175195392Y-98707755D01*
X175199900Y-98704598D01*
X175361798Y-98542700D01*
X175493123Y-98355149D01*
X175495446Y-98350167D01*
X175495449Y-98350162D01*
X175587561Y-98152625D01*
X175587561Y-98152624D01*
X175589884Y-98147643D01*
X175649143Y-97926487D01*
X175669098Y-97698400D01*
X175649143Y-97470313D01*
X175621061Y-97365510D01*
X175622751Y-97294535D01*
X175662545Y-97235739D01*
X175727809Y-97207791D01*
X175742768Y-97206900D01*
X178749633Y-97206900D01*
X178760816Y-97207427D01*
X178768309Y-97209102D01*
X178776235Y-97208853D01*
X178776236Y-97208853D01*
X178836386Y-97206962D01*
X178840345Y-97206900D01*
X178868256Y-97206900D01*
X178872191Y-97206403D01*
X178872256Y-97206395D01*
X178884093Y-97205462D01*
X178916351Y-97204448D01*
X178920370Y-97204322D01*
X178928289Y-97204073D01*
X178947743Y-97198421D01*
X178967100Y-97194413D01*
X178979330Y-97192868D01*
X178979331Y-97192868D01*
X178987197Y-97191874D01*
X178994568Y-97188955D01*
X178994570Y-97188955D01*
X179028312Y-97175596D01*
X179039542Y-97171751D01*
X179074383Y-97161629D01*
X179074384Y-97161629D01*
X179081993Y-97159418D01*
X179088812Y-97155385D01*
X179088817Y-97155383D01*
X179099428Y-97149107D01*
X179117176Y-97140412D01*
X179136017Y-97132952D01*
X179156387Y-97118153D01*
X179171787Y-97106964D01*
X179181707Y-97100448D01*
X179212935Y-97081980D01*
X179212938Y-97081978D01*
X179219762Y-97077942D01*
X179234083Y-97063621D01*
X179249117Y-97050780D01*
X179250832Y-97049534D01*
X179265507Y-97038872D01*
X179293698Y-97004795D01*
X179301688Y-96996016D01*
X179376549Y-96921155D01*
X179438861Y-96887129D01*
X179490762Y-96886779D01*
X179670597Y-96923367D01*
X179675772Y-96923557D01*
X179675774Y-96923557D01*
X179888673Y-96931364D01*
X179888677Y-96931364D01*
X179893837Y-96931553D01*
X179898957Y-96930897D01*
X179898959Y-96930897D01*
X180110288Y-96903825D01*
X180110289Y-96903825D01*
X180115416Y-96903168D01*
X180120366Y-96901683D01*
X180324429Y-96840461D01*
X180324434Y-96840459D01*
X180329384Y-96838974D01*
X180529994Y-96740696D01*
X180711860Y-96610973D01*
X180870096Y-96453289D01*
X180887981Y-96428400D01*
X180997435Y-96276077D01*
X181000453Y-96271877D01*
X181099430Y-96071611D01*
X181164370Y-95857869D01*
X181193529Y-95636390D01*
X181194110Y-95612625D01*
X181195074Y-95573165D01*
X181195074Y-95573161D01*
X181195156Y-95569800D01*
X181176852Y-95347161D01*
X181122431Y-95130502D01*
X181033354Y-94925640D01*
X180912014Y-94738077D01*
X180761670Y-94572851D01*
X180757619Y-94569652D01*
X180757615Y-94569648D01*
X180590414Y-94437600D01*
X180590410Y-94437598D01*
X180586359Y-94434398D01*
X180545053Y-94411596D01*
X180495084Y-94361164D01*
X180480312Y-94291721D01*
X180505428Y-94225316D01*
X180532780Y-94198709D01*
X180602409Y-94149043D01*
X180711860Y-94070973D01*
X180870096Y-93913289D01*
X180887981Y-93888400D01*
X180997435Y-93736077D01*
X181000453Y-93731877D01*
X181014073Y-93704320D01*
X181097136Y-93536253D01*
X181097137Y-93536251D01*
X181099430Y-93531611D01*
X181164370Y-93317869D01*
X181193529Y-93096390D01*
X181194110Y-93072625D01*
X181195074Y-93033165D01*
X181195074Y-93033161D01*
X181195156Y-93029800D01*
X181176852Y-92807161D01*
X181122431Y-92590502D01*
X181033354Y-92385640D01*
X180993906Y-92324662D01*
X180914822Y-92202417D01*
X180914820Y-92202414D01*
X180912014Y-92198077D01*
X180908540Y-92194259D01*
X180908533Y-92194250D01*
X180764435Y-92035888D01*
X180733383Y-91972042D01*
X180741779Y-91901544D01*
X180786956Y-91846776D01*
X180813400Y-91833107D01*
X180920052Y-91793125D01*
X180935649Y-91784586D01*
X181037724Y-91708085D01*
X181050285Y-91695524D01*
X181126786Y-91593449D01*
X181135324Y-91577854D01*
X181180478Y-91457406D01*
X181184105Y-91442151D01*
X181189631Y-91391286D01*
X181190000Y-91384472D01*
X181190000Y-90761915D01*
X181185525Y-90746676D01*
X181184135Y-90745471D01*
X181176452Y-90743800D01*
X178492116Y-90743800D01*
X178476877Y-90748275D01*
X178475672Y-90749665D01*
X178474001Y-90757348D01*
X178474001Y-91384469D01*
X178474371Y-91391290D01*
X178479895Y-91442152D01*
X178483521Y-91457404D01*
X178528676Y-91577854D01*
X178537214Y-91593449D01*
X178613715Y-91695524D01*
X178626276Y-91708085D01*
X178728351Y-91784586D01*
X178743946Y-91793124D01*
X178852827Y-91833942D01*
X178909591Y-91876584D01*
X178934291Y-91943145D01*
X178919083Y-92012494D01*
X178899691Y-92038975D01*
X178779491Y-92164757D01*
X178772629Y-92171938D01*
X178646743Y-92356480D01*
X178644567Y-92361169D01*
X178644563Y-92361175D01*
X178574762Y-92511550D01*
X178527938Y-92564917D01*
X178460474Y-92584500D01*
X177809794Y-92584500D01*
X177741673Y-92564498D01*
X177720699Y-92547595D01*
X175664752Y-90491648D01*
X175630726Y-90429336D01*
X175632141Y-90369941D01*
X175647718Y-90311809D01*
X175647720Y-90311798D01*
X175649143Y-90306487D01*
X175656912Y-90217685D01*
X178474000Y-90217685D01*
X178478475Y-90232924D01*
X178479865Y-90234129D01*
X178487548Y-90235800D01*
X179559885Y-90235800D01*
X179575124Y-90231325D01*
X179576329Y-90229935D01*
X179578000Y-90222252D01*
X179578000Y-90217685D01*
X180086000Y-90217685D01*
X180090475Y-90232924D01*
X180091865Y-90234129D01*
X180099548Y-90235800D01*
X181171884Y-90235800D01*
X181187123Y-90231325D01*
X181188328Y-90229935D01*
X181189999Y-90222252D01*
X181189999Y-89595131D01*
X181189629Y-89588310D01*
X181184105Y-89537448D01*
X181180479Y-89522196D01*
X181135324Y-89401746D01*
X181126786Y-89386151D01*
X181050285Y-89284076D01*
X181037724Y-89271515D01*
X180935649Y-89195014D01*
X180920054Y-89186476D01*
X180799606Y-89141322D01*
X180784351Y-89137695D01*
X180733486Y-89132169D01*
X180726672Y-89131800D01*
X180104115Y-89131800D01*
X180088876Y-89136275D01*
X180087671Y-89137665D01*
X180086000Y-89145348D01*
X180086000Y-90217685D01*
X179578000Y-90217685D01*
X179578000Y-89149916D01*
X179573525Y-89134677D01*
X179572135Y-89133472D01*
X179564452Y-89131801D01*
X178937331Y-89131801D01*
X178930510Y-89132171D01*
X178879648Y-89137695D01*
X178864396Y-89141321D01*
X178743946Y-89186476D01*
X178728351Y-89195014D01*
X178626276Y-89271515D01*
X178613715Y-89284076D01*
X178537214Y-89386151D01*
X178528676Y-89401746D01*
X178483522Y-89522194D01*
X178479895Y-89537449D01*
X178474369Y-89588314D01*
X178474000Y-89595128D01*
X178474000Y-90217685D01*
X175656912Y-90217685D01*
X175669098Y-90078400D01*
X175649143Y-89850313D01*
X175640628Y-89818535D01*
X175591307Y-89634467D01*
X175591306Y-89634465D01*
X175589884Y-89629157D01*
X175540007Y-89522194D01*
X175495449Y-89426638D01*
X175495446Y-89426633D01*
X175493123Y-89421651D01*
X175396792Y-89284076D01*
X175364957Y-89238611D01*
X175364955Y-89238608D01*
X175361798Y-89234100D01*
X175199900Y-89072202D01*
X175195392Y-89069045D01*
X175195389Y-89069043D01*
X175042829Y-88962219D01*
X174998501Y-88906762D01*
X174989100Y-88859006D01*
X174989100Y-88853013D01*
X174995908Y-88814004D01*
X174997186Y-88811496D01*
X174998985Y-88803448D01*
X175006309Y-88780907D01*
X175009581Y-88773345D01*
X175018367Y-88717874D01*
X175019850Y-88710101D01*
X175032102Y-88655291D01*
X175031843Y-88647057D01*
X175033333Y-88623386D01*
X175033380Y-88623090D01*
X175033380Y-88623085D01*
X175034620Y-88615257D01*
X175029336Y-88559353D01*
X175028839Y-88551455D01*
X175027323Y-88503238D01*
X175027074Y-88495311D01*
X175024776Y-88487402D01*
X175020332Y-88464104D01*
X175020303Y-88463799D01*
X175019557Y-88455908D01*
X175000531Y-88403062D01*
X174998086Y-88395536D01*
X174984629Y-88349216D01*
X174984628Y-88349214D01*
X174982418Y-88341607D01*
X174978385Y-88334787D01*
X174978382Y-88334781D01*
X174978223Y-88334512D01*
X174968133Y-88313068D01*
X174968028Y-88312777D01*
X174968024Y-88312769D01*
X174965339Y-88305311D01*
X174933754Y-88258835D01*
X174929545Y-88252204D01*
X174900942Y-88203838D01*
X174895122Y-88198018D01*
X174880006Y-88179747D01*
X174879831Y-88179490D01*
X174875372Y-88172929D01*
X174845245Y-88146368D01*
X174833245Y-88135789D01*
X174827474Y-88130370D01*
X173884047Y-87186942D01*
X173876513Y-87178663D01*
X173872400Y-87172182D01*
X173822748Y-87125556D01*
X173819907Y-87122802D01*
X173800170Y-87103065D01*
X173796973Y-87100585D01*
X173787951Y-87092880D01*
X173761500Y-87068041D01*
X173755721Y-87062614D01*
X173748775Y-87058795D01*
X173748772Y-87058793D01*
X173737966Y-87052852D01*
X173721447Y-87042001D01*
X173720983Y-87041641D01*
X173705441Y-87029586D01*
X173698172Y-87026441D01*
X173698168Y-87026438D01*
X173664863Y-87012026D01*
X173654213Y-87006809D01*
X173615460Y-86985505D01*
X173595837Y-86980467D01*
X173577134Y-86974063D01*
X173565820Y-86969167D01*
X173565819Y-86969167D01*
X173558545Y-86966019D01*
X173550722Y-86964780D01*
X173550712Y-86964777D01*
X173514876Y-86959101D01*
X173503256Y-86956695D01*
X173468111Y-86947672D01*
X173468110Y-86947672D01*
X173460430Y-86945700D01*
X173440176Y-86945700D01*
X173420465Y-86944149D01*
X173408286Y-86942220D01*
X173400457Y-86940980D01*
X173392565Y-86941726D01*
X173356439Y-86945141D01*
X173344581Y-86945700D01*
X165566995Y-86945700D01*
X165498874Y-86925698D01*
X165477900Y-86908795D01*
X163506705Y-84937600D01*
X164548502Y-84937600D01*
X164568457Y-85165687D01*
X164569881Y-85171000D01*
X164569881Y-85171002D01*
X164622905Y-85368887D01*
X164627716Y-85386843D01*
X164630039Y-85391824D01*
X164630039Y-85391825D01*
X164722151Y-85589362D01*
X164722154Y-85589367D01*
X164724477Y-85594349D01*
X164855802Y-85781900D01*
X165017700Y-85943798D01*
X165022208Y-85946955D01*
X165022211Y-85946957D01*
X165070243Y-85980589D01*
X165205251Y-86075123D01*
X165210233Y-86077446D01*
X165210238Y-86077449D01*
X165351031Y-86143101D01*
X165412757Y-86171884D01*
X165418065Y-86173306D01*
X165418067Y-86173307D01*
X165628598Y-86229719D01*
X165628600Y-86229719D01*
X165633913Y-86231143D01*
X165862000Y-86251098D01*
X166090087Y-86231143D01*
X166095400Y-86229719D01*
X166095402Y-86229719D01*
X166305933Y-86173307D01*
X166305935Y-86173306D01*
X166311243Y-86171884D01*
X166372969Y-86143101D01*
X166513762Y-86077449D01*
X166513767Y-86077446D01*
X166518749Y-86075123D01*
X166653757Y-85980589D01*
X166701789Y-85946957D01*
X166701792Y-85946955D01*
X166706300Y-85943798D01*
X166868198Y-85781900D01*
X166999523Y-85594349D01*
X167001846Y-85589367D01*
X167001849Y-85589362D01*
X167093961Y-85391825D01*
X167093961Y-85391824D01*
X167096284Y-85386843D01*
X167101096Y-85368887D01*
X167154119Y-85171002D01*
X167154119Y-85171000D01*
X167155543Y-85165687D01*
X167175498Y-84937600D01*
X174708502Y-84937600D01*
X174728457Y-85165687D01*
X174729881Y-85171000D01*
X174729881Y-85171002D01*
X174782905Y-85368887D01*
X174787716Y-85386843D01*
X174790039Y-85391824D01*
X174790039Y-85391825D01*
X174882151Y-85589362D01*
X174882154Y-85589367D01*
X174884477Y-85594349D01*
X175015802Y-85781900D01*
X175177700Y-85943798D01*
X175182208Y-85946955D01*
X175182211Y-85946957D01*
X175230243Y-85980589D01*
X175365251Y-86075123D01*
X175370233Y-86077446D01*
X175370238Y-86077449D01*
X175511031Y-86143101D01*
X175572757Y-86171884D01*
X175578065Y-86173306D01*
X175578067Y-86173307D01*
X175788598Y-86229719D01*
X175788600Y-86229719D01*
X175793913Y-86231143D01*
X176022000Y-86251098D01*
X176250087Y-86231143D01*
X176255400Y-86229719D01*
X176255402Y-86229719D01*
X176465933Y-86173307D01*
X176465935Y-86173306D01*
X176471243Y-86171884D01*
X176532969Y-86143101D01*
X176673762Y-86077449D01*
X176673767Y-86077446D01*
X176678749Y-86075123D01*
X176813757Y-85980589D01*
X176861789Y-85946957D01*
X176861792Y-85946955D01*
X176866300Y-85943798D01*
X177028198Y-85781900D01*
X177159523Y-85594349D01*
X177161846Y-85589367D01*
X177161849Y-85589362D01*
X177253961Y-85391825D01*
X177253961Y-85391824D01*
X177256284Y-85386843D01*
X177261096Y-85368887D01*
X177314119Y-85171002D01*
X177314119Y-85171000D01*
X177315543Y-85165687D01*
X177335498Y-84937600D01*
X177315543Y-84709513D01*
X177314119Y-84704198D01*
X177257707Y-84493667D01*
X177257706Y-84493665D01*
X177256284Y-84488357D01*
X177168924Y-84301011D01*
X177161849Y-84285838D01*
X177161846Y-84285833D01*
X177159523Y-84280851D01*
X177028198Y-84093300D01*
X176866300Y-83931402D01*
X176861792Y-83928245D01*
X176861789Y-83928243D01*
X176783611Y-83873502D01*
X176678749Y-83800077D01*
X176673767Y-83797754D01*
X176673762Y-83797751D01*
X176476225Y-83705639D01*
X176476224Y-83705639D01*
X176471243Y-83703316D01*
X176465935Y-83701894D01*
X176465933Y-83701893D01*
X176255402Y-83645481D01*
X176255400Y-83645481D01*
X176250087Y-83644057D01*
X176022000Y-83624102D01*
X175793913Y-83644057D01*
X175788600Y-83645481D01*
X175788598Y-83645481D01*
X175578067Y-83701893D01*
X175578065Y-83701894D01*
X175572757Y-83703316D01*
X175567776Y-83705639D01*
X175567775Y-83705639D01*
X175370238Y-83797751D01*
X175370233Y-83797754D01*
X175365251Y-83800077D01*
X175260389Y-83873502D01*
X175182211Y-83928243D01*
X175182208Y-83928245D01*
X175177700Y-83931402D01*
X175015802Y-84093300D01*
X174884477Y-84280851D01*
X174882154Y-84285833D01*
X174882151Y-84285838D01*
X174875076Y-84301011D01*
X174787716Y-84488357D01*
X174786294Y-84493665D01*
X174786293Y-84493667D01*
X174729881Y-84704198D01*
X174728457Y-84709513D01*
X174708502Y-84937600D01*
X167175498Y-84937600D01*
X167155543Y-84709513D01*
X167154119Y-84704198D01*
X167097707Y-84493667D01*
X167097706Y-84493665D01*
X167096284Y-84488357D01*
X167008924Y-84301011D01*
X167001849Y-84285838D01*
X167001846Y-84285833D01*
X166999523Y-84280851D01*
X166868198Y-84093300D01*
X166706300Y-83931402D01*
X166701792Y-83928245D01*
X166701789Y-83928243D01*
X166623611Y-83873502D01*
X166518749Y-83800077D01*
X166513767Y-83797754D01*
X166513762Y-83797751D01*
X166316225Y-83705639D01*
X166316224Y-83705639D01*
X166311243Y-83703316D01*
X166305935Y-83701894D01*
X166305933Y-83701893D01*
X166095402Y-83645481D01*
X166095400Y-83645481D01*
X166090087Y-83644057D01*
X165862000Y-83624102D01*
X165633913Y-83644057D01*
X165628600Y-83645481D01*
X165628598Y-83645481D01*
X165418067Y-83701893D01*
X165418065Y-83701894D01*
X165412757Y-83703316D01*
X165407776Y-83705639D01*
X165407775Y-83705639D01*
X165210238Y-83797751D01*
X165210233Y-83797754D01*
X165205251Y-83800077D01*
X165100389Y-83873502D01*
X165022211Y-83928243D01*
X165022208Y-83928245D01*
X165017700Y-83931402D01*
X164855802Y-84093300D01*
X164724477Y-84280851D01*
X164722154Y-84285833D01*
X164722151Y-84285838D01*
X164715076Y-84301011D01*
X164627716Y-84488357D01*
X164626294Y-84493665D01*
X164626293Y-84493667D01*
X164569881Y-84704198D01*
X164568457Y-84709513D01*
X164548502Y-84937600D01*
X163506705Y-84937600D01*
X163317652Y-84748547D01*
X163310112Y-84740261D01*
X163306000Y-84733782D01*
X163256348Y-84687156D01*
X163253507Y-84684402D01*
X163233770Y-84664665D01*
X163230573Y-84662185D01*
X163221551Y-84654480D01*
X163195100Y-84629641D01*
X163189321Y-84624214D01*
X163182375Y-84620395D01*
X163182372Y-84620393D01*
X163171566Y-84614452D01*
X163155047Y-84603601D01*
X163154583Y-84603241D01*
X163139041Y-84591186D01*
X163131772Y-84588041D01*
X163131768Y-84588038D01*
X163098463Y-84573626D01*
X163087813Y-84568409D01*
X163049060Y-84547105D01*
X163029437Y-84542067D01*
X163010734Y-84535663D01*
X162999420Y-84530767D01*
X162999419Y-84530767D01*
X162992145Y-84527619D01*
X162984322Y-84526380D01*
X162984312Y-84526377D01*
X162948476Y-84520701D01*
X162936856Y-84518295D01*
X162901711Y-84509272D01*
X162901710Y-84509272D01*
X162894030Y-84507300D01*
X162873776Y-84507300D01*
X162854065Y-84505749D01*
X162841886Y-84503820D01*
X162834057Y-84502580D01*
X162826165Y-84503326D01*
X162790039Y-84506741D01*
X162778181Y-84507300D01*
X162204594Y-84507300D01*
X162136473Y-84487298D01*
X162101381Y-84453571D01*
X161994557Y-84301011D01*
X161994555Y-84301008D01*
X161991398Y-84296500D01*
X161829500Y-84134602D01*
X161824992Y-84131445D01*
X161824989Y-84131443D01*
X161746811Y-84076702D01*
X161641949Y-84003277D01*
X161636967Y-84000954D01*
X161636962Y-84000951D01*
X161439425Y-83908839D01*
X161439424Y-83908839D01*
X161434443Y-83906516D01*
X161429135Y-83905094D01*
X161429133Y-83905093D01*
X161218602Y-83848681D01*
X161218600Y-83848681D01*
X161213287Y-83847257D01*
X160985200Y-83827302D01*
X160757113Y-83847257D01*
X160751800Y-83848681D01*
X160751798Y-83848681D01*
X160541267Y-83905093D01*
X160541265Y-83905094D01*
X160535957Y-83906516D01*
X160530976Y-83908839D01*
X160530975Y-83908839D01*
X160333438Y-84000951D01*
X160333433Y-84000954D01*
X160328451Y-84003277D01*
X160223589Y-84076702D01*
X160145411Y-84131443D01*
X160145408Y-84131445D01*
X160140900Y-84134602D01*
X159979002Y-84296500D01*
X159847677Y-84484051D01*
X159845354Y-84489033D01*
X159845351Y-84489038D01*
X159764609Y-84662192D01*
X159750916Y-84691557D01*
X159749494Y-84696865D01*
X159749493Y-84696867D01*
X159744636Y-84714993D01*
X159691657Y-84912713D01*
X159671702Y-85140800D01*
X157378900Y-85140800D01*
X157378900Y-81914500D01*
X157398902Y-81846379D01*
X157452558Y-81799886D01*
X157504900Y-81788500D01*
X183871100Y-81788500D01*
X183939221Y-81808502D01*
G37*
%TD.AperFunction*%
%TD*%
M02*
