%TF.GenerationSoftware,KiCad,Pcbnew,(6.0.11)*%
%TF.CreationDate,2026-08-19T06:43:28+05:30*%
%TF.ProjectId,Project_2,50726f6a-6563-4745-9f32-2e6b69636164,rev?*%
%TF.SameCoordinates,Original*%
%TF.FileFunction,Legend,Top*%
%TF.FilePolarity,Positive*%
%FSLAX46Y46*%
G04 Gerber Fmt 4.6, Leading zero omitted, Abs format (unit mm)*
G04 Created by KiCad (PCBNEW (6.0.11)) date 2026-08-19 06:43:28*
%MOMM*%
%LPD*%
G01*
G04 APERTURE LIST*
%ADD10C,0.150000*%
%ADD11C,0.120000*%
G04 APERTURE END LIST*
D10*
X166238228Y-87588552D02*
X166238228Y-86826647D01*
X166619180Y-87207600D02*
X165857276Y-87207600D01*
X166238228Y-85588552D02*
X166238228Y-84826647D01*
X165831828Y-72907352D02*
X165831828Y-72145447D01*
X166212780Y-72526400D02*
X165450876Y-72526400D01*
X165831828Y-70907352D02*
X165831828Y-70145447D01*
%TO.C,10k*%
X147740761Y-94737180D02*
X147169333Y-94737180D01*
X147455047Y-94737180D02*
X147455047Y-93737180D01*
X147359809Y-93880038D01*
X147264571Y-93975276D01*
X147169333Y-94022895D01*
X148359809Y-93737180D02*
X148455047Y-93737180D01*
X148550285Y-93784800D01*
X148597904Y-93832419D01*
X148645523Y-93927657D01*
X148693142Y-94118133D01*
X148693142Y-94356228D01*
X148645523Y-94546704D01*
X148597904Y-94641942D01*
X148550285Y-94689561D01*
X148455047Y-94737180D01*
X148359809Y-94737180D01*
X148264571Y-94689561D01*
X148216952Y-94641942D01*
X148169333Y-94546704D01*
X148121714Y-94356228D01*
X148121714Y-94118133D01*
X148169333Y-93927657D01*
X148216952Y-93832419D01*
X148264571Y-93784800D01*
X148359809Y-93737180D01*
X149121714Y-94737180D02*
X149121714Y-93737180D01*
X149216952Y-94356228D02*
X149502666Y-94737180D01*
X149502666Y-94070514D02*
X149121714Y-94451466D01*
%TO.C,0.1u*%
X133507314Y-93544780D02*
X133602552Y-93544780D01*
X133697790Y-93592400D01*
X133745409Y-93640019D01*
X133793028Y-93735257D01*
X133840647Y-93925733D01*
X133840647Y-94163828D01*
X133793028Y-94354304D01*
X133745409Y-94449542D01*
X133697790Y-94497161D01*
X133602552Y-94544780D01*
X133507314Y-94544780D01*
X133412076Y-94497161D01*
X133364457Y-94449542D01*
X133316838Y-94354304D01*
X133269219Y-94163828D01*
X133269219Y-93925733D01*
X133316838Y-93735257D01*
X133364457Y-93640019D01*
X133412076Y-93592400D01*
X133507314Y-93544780D01*
X134269219Y-94449542D02*
X134316838Y-94497161D01*
X134269219Y-94544780D01*
X134221600Y-94497161D01*
X134269219Y-94449542D01*
X134269219Y-94544780D01*
X135269219Y-94544780D02*
X134697790Y-94544780D01*
X134983504Y-94544780D02*
X134983504Y-93544780D01*
X134888266Y-93687638D01*
X134793028Y-93782876D01*
X134697790Y-93830495D01*
X136126361Y-93878114D02*
X136126361Y-94544780D01*
X135697790Y-93878114D02*
X135697790Y-94401923D01*
X135745409Y-94497161D01*
X135840647Y-94544780D01*
X135983504Y-94544780D01*
X136078742Y-94497161D01*
X136126361Y-94449542D01*
%TO.C,220u*%
X152024411Y-79058819D02*
X152072030Y-79011200D01*
X152167268Y-78963580D01*
X152405364Y-78963580D01*
X152500602Y-79011200D01*
X152548221Y-79058819D01*
X152595840Y-79154057D01*
X152595840Y-79249295D01*
X152548221Y-79392152D01*
X151976792Y-79963580D01*
X152595840Y-79963580D01*
X152976792Y-79058819D02*
X153024411Y-79011200D01*
X153119649Y-78963580D01*
X153357745Y-78963580D01*
X153452983Y-79011200D01*
X153500602Y-79058819D01*
X153548221Y-79154057D01*
X153548221Y-79249295D01*
X153500602Y-79392152D01*
X152929173Y-79963580D01*
X153548221Y-79963580D01*
X154167268Y-78963580D02*
X154262507Y-78963580D01*
X154357745Y-79011200D01*
X154405364Y-79058819D01*
X154452983Y-79154057D01*
X154500602Y-79344533D01*
X154500602Y-79582628D01*
X154452983Y-79773104D01*
X154405364Y-79868342D01*
X154357745Y-79915961D01*
X154262507Y-79963580D01*
X154167268Y-79963580D01*
X154072030Y-79915961D01*
X154024411Y-79868342D01*
X153976792Y-79773104D01*
X153929173Y-79582628D01*
X153929173Y-79344533D01*
X153976792Y-79154057D01*
X154024411Y-79058819D01*
X154072030Y-79011200D01*
X154167268Y-78963580D01*
X155357745Y-79296914D02*
X155357745Y-79963580D01*
X154929173Y-79296914D02*
X154929173Y-79820723D01*
X154976792Y-79915961D01*
X155072030Y-79963580D01*
X155214888Y-79963580D01*
X155310126Y-79915961D01*
X155357745Y-79868342D01*
%TO.C,10u*%
X133768030Y-71886380D02*
X133196602Y-71886380D01*
X133482316Y-71886380D02*
X133482316Y-70886380D01*
X133387078Y-71029238D01*
X133291840Y-71124476D01*
X133196602Y-71172095D01*
X134387078Y-70886380D02*
X134482316Y-70886380D01*
X134577554Y-70934000D01*
X134625173Y-70981619D01*
X134672792Y-71076857D01*
X134720411Y-71267333D01*
X134720411Y-71505428D01*
X134672792Y-71695904D01*
X134625173Y-71791142D01*
X134577554Y-71838761D01*
X134482316Y-71886380D01*
X134387078Y-71886380D01*
X134291840Y-71838761D01*
X134244221Y-71791142D01*
X134196602Y-71695904D01*
X134148983Y-71505428D01*
X134148983Y-71267333D01*
X134196602Y-71076857D01*
X134244221Y-70981619D01*
X134291840Y-70934000D01*
X134387078Y-70886380D01*
X135577554Y-71219714D02*
X135577554Y-71886380D01*
X135148983Y-71219714D02*
X135148983Y-71743523D01*
X135196602Y-71838761D01*
X135291840Y-71886380D01*
X135434697Y-71886380D01*
X135529935Y-71838761D01*
X135577554Y-71791142D01*
%TO.C,Bat*%
X157363371Y-86721866D02*
X157410990Y-86579009D01*
X157458609Y-86531390D01*
X157553847Y-86483771D01*
X157696704Y-86483771D01*
X157791942Y-86531390D01*
X157839561Y-86579009D01*
X157887180Y-86674247D01*
X157887180Y-87055200D01*
X156887180Y-87055200D01*
X156887180Y-86721866D01*
X156934800Y-86626628D01*
X156982419Y-86579009D01*
X157077657Y-86531390D01*
X157172895Y-86531390D01*
X157268133Y-86579009D01*
X157315752Y-86626628D01*
X157363371Y-86721866D01*
X157363371Y-87055200D01*
X157887180Y-85626628D02*
X157363371Y-85626628D01*
X157268133Y-85674247D01*
X157220514Y-85769485D01*
X157220514Y-85959961D01*
X157268133Y-86055200D01*
X157839561Y-85626628D02*
X157887180Y-85721866D01*
X157887180Y-85959961D01*
X157839561Y-86055200D01*
X157744323Y-86102819D01*
X157649085Y-86102819D01*
X157553847Y-86055200D01*
X157506228Y-85959961D01*
X157506228Y-85721866D01*
X157458609Y-85626628D01*
X157220514Y-85293295D02*
X157220514Y-84912342D01*
X156887180Y-85150438D02*
X157744323Y-85150438D01*
X157839561Y-85102819D01*
X157887180Y-85007580D01*
X157887180Y-84912342D01*
%TO.C,10k*%
X143473561Y-67983180D02*
X142902133Y-67983180D01*
X143187847Y-67983180D02*
X143187847Y-66983180D01*
X143092609Y-67126038D01*
X142997371Y-67221276D01*
X142902133Y-67268895D01*
X144092609Y-66983180D02*
X144187847Y-66983180D01*
X144283085Y-67030800D01*
X144330704Y-67078419D01*
X144378323Y-67173657D01*
X144425942Y-67364133D01*
X144425942Y-67602228D01*
X144378323Y-67792704D01*
X144330704Y-67887942D01*
X144283085Y-67935561D01*
X144187847Y-67983180D01*
X144092609Y-67983180D01*
X143997371Y-67935561D01*
X143949752Y-67887942D01*
X143902133Y-67792704D01*
X143854514Y-67602228D01*
X143854514Y-67364133D01*
X143902133Y-67173657D01*
X143949752Y-67078419D01*
X143997371Y-67030800D01*
X144092609Y-66983180D01*
X144854514Y-67983180D02*
X144854514Y-66983180D01*
X144949752Y-67602228D02*
X145235466Y-67983180D01*
X145235466Y-67316514D02*
X144854514Y-67697466D01*
%TO.C,100k*%
X122725580Y-74833028D02*
X122725580Y-75404457D01*
X122725580Y-75118742D02*
X121725580Y-75118742D01*
X121868438Y-75213980D01*
X121963676Y-75309219D01*
X122011295Y-75404457D01*
X121725580Y-74213980D02*
X121725580Y-74118742D01*
X121773200Y-74023504D01*
X121820819Y-73975885D01*
X121916057Y-73928266D01*
X122106533Y-73880647D01*
X122344628Y-73880647D01*
X122535104Y-73928266D01*
X122630342Y-73975885D01*
X122677961Y-74023504D01*
X122725580Y-74118742D01*
X122725580Y-74213980D01*
X122677961Y-74309219D01*
X122630342Y-74356838D01*
X122535104Y-74404457D01*
X122344628Y-74452076D01*
X122106533Y-74452076D01*
X121916057Y-74404457D01*
X121820819Y-74356838D01*
X121773200Y-74309219D01*
X121725580Y-74213980D01*
X121725580Y-73261600D02*
X121725580Y-73166361D01*
X121773200Y-73071123D01*
X121820819Y-73023504D01*
X121916057Y-72975885D01*
X122106533Y-72928266D01*
X122344628Y-72928266D01*
X122535104Y-72975885D01*
X122630342Y-73023504D01*
X122677961Y-73071123D01*
X122725580Y-73166361D01*
X122725580Y-73261600D01*
X122677961Y-73356838D01*
X122630342Y-73404457D01*
X122535104Y-73452076D01*
X122344628Y-73499695D01*
X122106533Y-73499695D01*
X121916057Y-73452076D01*
X121820819Y-73404457D01*
X121773200Y-73356838D01*
X121725580Y-73261600D01*
X122725580Y-72499695D02*
X121725580Y-72499695D01*
X122344628Y-72404457D02*
X122725580Y-72118742D01*
X122058914Y-72118742D02*
X122439866Y-72499695D01*
%TO.C,IC LM386*%
X141037085Y-88437980D02*
X141037085Y-87437980D01*
X142084704Y-88342742D02*
X142037085Y-88390361D01*
X141894228Y-88437980D01*
X141798990Y-88437980D01*
X141656133Y-88390361D01*
X141560895Y-88295123D01*
X141513276Y-88199885D01*
X141465657Y-88009409D01*
X141465657Y-87866552D01*
X141513276Y-87676076D01*
X141560895Y-87580838D01*
X141656133Y-87485600D01*
X141798990Y-87437980D01*
X141894228Y-87437980D01*
X142037085Y-87485600D01*
X142084704Y-87533219D01*
X143751371Y-88437980D02*
X143275180Y-88437980D01*
X143275180Y-87437980D01*
X144084704Y-88437980D02*
X144084704Y-87437980D01*
X144418038Y-88152266D01*
X144751371Y-87437980D01*
X144751371Y-88437980D01*
X145132323Y-87437980D02*
X145751371Y-87437980D01*
X145418038Y-87818933D01*
X145560895Y-87818933D01*
X145656133Y-87866552D01*
X145703752Y-87914171D01*
X145751371Y-88009409D01*
X145751371Y-88247504D01*
X145703752Y-88342742D01*
X145656133Y-88390361D01*
X145560895Y-88437980D01*
X145275180Y-88437980D01*
X145179942Y-88390361D01*
X145132323Y-88342742D01*
X146322800Y-87866552D02*
X146227561Y-87818933D01*
X146179942Y-87771314D01*
X146132323Y-87676076D01*
X146132323Y-87628457D01*
X146179942Y-87533219D01*
X146227561Y-87485600D01*
X146322800Y-87437980D01*
X146513276Y-87437980D01*
X146608514Y-87485600D01*
X146656133Y-87533219D01*
X146703752Y-87628457D01*
X146703752Y-87676076D01*
X146656133Y-87771314D01*
X146608514Y-87818933D01*
X146513276Y-87866552D01*
X146322800Y-87866552D01*
X146227561Y-87914171D01*
X146179942Y-87961790D01*
X146132323Y-88057028D01*
X146132323Y-88247504D01*
X146179942Y-88342742D01*
X146227561Y-88390361D01*
X146322800Y-88437980D01*
X146513276Y-88437980D01*
X146608514Y-88390361D01*
X146656133Y-88342742D01*
X146703752Y-88247504D01*
X146703752Y-88057028D01*
X146656133Y-87961790D01*
X146608514Y-87914171D01*
X146513276Y-87866552D01*
X147560895Y-87437980D02*
X147370419Y-87437980D01*
X147275180Y-87485600D01*
X147227561Y-87533219D01*
X147132323Y-87676076D01*
X147084704Y-87866552D01*
X147084704Y-88247504D01*
X147132323Y-88342742D01*
X147179942Y-88390361D01*
X147275180Y-88437980D01*
X147465657Y-88437980D01*
X147560895Y-88390361D01*
X147608514Y-88342742D01*
X147656133Y-88247504D01*
X147656133Y-88009409D01*
X147608514Y-87914171D01*
X147560895Y-87866552D01*
X147465657Y-87818933D01*
X147275180Y-87818933D01*
X147179942Y-87866552D01*
X147132323Y-87914171D01*
X147084704Y-88009409D01*
%TO.C,0.05u*%
X150165180Y-76315676D02*
X150165180Y-76220438D01*
X150212800Y-76125200D01*
X150260419Y-76077580D01*
X150355657Y-76029961D01*
X150546133Y-75982342D01*
X150784228Y-75982342D01*
X150974704Y-76029961D01*
X151069942Y-76077580D01*
X151117561Y-76125200D01*
X151165180Y-76220438D01*
X151165180Y-76315676D01*
X151117561Y-76410914D01*
X151069942Y-76458533D01*
X150974704Y-76506152D01*
X150784228Y-76553771D01*
X150546133Y-76553771D01*
X150355657Y-76506152D01*
X150260419Y-76458533D01*
X150212800Y-76410914D01*
X150165180Y-76315676D01*
X151069942Y-75553771D02*
X151117561Y-75506152D01*
X151165180Y-75553771D01*
X151117561Y-75601390D01*
X151069942Y-75553771D01*
X151165180Y-75553771D01*
X150165180Y-74887104D02*
X150165180Y-74791866D01*
X150212800Y-74696628D01*
X150260419Y-74649009D01*
X150355657Y-74601390D01*
X150546133Y-74553771D01*
X150784228Y-74553771D01*
X150974704Y-74601390D01*
X151069942Y-74649009D01*
X151117561Y-74696628D01*
X151165180Y-74791866D01*
X151165180Y-74887104D01*
X151117561Y-74982342D01*
X151069942Y-75029961D01*
X150974704Y-75077580D01*
X150784228Y-75125200D01*
X150546133Y-75125200D01*
X150355657Y-75077580D01*
X150260419Y-75029961D01*
X150212800Y-74982342D01*
X150165180Y-74887104D01*
X150165180Y-73649009D02*
X150165180Y-74125200D01*
X150641371Y-74172819D01*
X150593752Y-74125200D01*
X150546133Y-74029961D01*
X150546133Y-73791866D01*
X150593752Y-73696628D01*
X150641371Y-73649009D01*
X150736609Y-73601390D01*
X150974704Y-73601390D01*
X151069942Y-73649009D01*
X151117561Y-73696628D01*
X151165180Y-73791866D01*
X151165180Y-74029961D01*
X151117561Y-74125200D01*
X151069942Y-74172819D01*
X150498514Y-72744247D02*
X151165180Y-72744247D01*
X150498514Y-73172819D02*
X151022323Y-73172819D01*
X151117561Y-73125200D01*
X151165180Y-73029961D01*
X151165180Y-72887104D01*
X151117561Y-72791866D01*
X151069942Y-72744247D01*
%TO.C,Speaker*%
X157534761Y-74135904D02*
X157582380Y-73993047D01*
X157582380Y-73754952D01*
X157534761Y-73659714D01*
X157487142Y-73612095D01*
X157391904Y-73564476D01*
X157296666Y-73564476D01*
X157201428Y-73612095D01*
X157153809Y-73659714D01*
X157106190Y-73754952D01*
X157058571Y-73945428D01*
X157010952Y-74040666D01*
X156963333Y-74088285D01*
X156868095Y-74135904D01*
X156772857Y-74135904D01*
X156677619Y-74088285D01*
X156630000Y-74040666D01*
X156582380Y-73945428D01*
X156582380Y-73707333D01*
X156630000Y-73564476D01*
X156915714Y-73135904D02*
X157915714Y-73135904D01*
X156963333Y-73135904D02*
X156915714Y-73040666D01*
X156915714Y-72850190D01*
X156963333Y-72754952D01*
X157010952Y-72707333D01*
X157106190Y-72659714D01*
X157391904Y-72659714D01*
X157487142Y-72707333D01*
X157534761Y-72754952D01*
X157582380Y-72850190D01*
X157582380Y-73040666D01*
X157534761Y-73135904D01*
X157534761Y-71850190D02*
X157582380Y-71945428D01*
X157582380Y-72135904D01*
X157534761Y-72231142D01*
X157439523Y-72278761D01*
X157058571Y-72278761D01*
X156963333Y-72231142D01*
X156915714Y-72135904D01*
X156915714Y-71945428D01*
X156963333Y-71850190D01*
X157058571Y-71802571D01*
X157153809Y-71802571D01*
X157249047Y-72278761D01*
X157582380Y-70945428D02*
X157058571Y-70945428D01*
X156963333Y-70993047D01*
X156915714Y-71088285D01*
X156915714Y-71278761D01*
X156963333Y-71374000D01*
X157534761Y-70945428D02*
X157582380Y-71040666D01*
X157582380Y-71278761D01*
X157534761Y-71374000D01*
X157439523Y-71421619D01*
X157344285Y-71421619D01*
X157249047Y-71374000D01*
X157201428Y-71278761D01*
X157201428Y-71040666D01*
X157153809Y-70945428D01*
X157582380Y-70469238D02*
X156582380Y-70469238D01*
X157201428Y-70374000D02*
X157582380Y-70088285D01*
X156915714Y-70088285D02*
X157296666Y-70469238D01*
X157534761Y-69278761D02*
X157582380Y-69374000D01*
X157582380Y-69564476D01*
X157534761Y-69659714D01*
X157439523Y-69707333D01*
X157058571Y-69707333D01*
X156963333Y-69659714D01*
X156915714Y-69564476D01*
X156915714Y-69374000D01*
X156963333Y-69278761D01*
X157058571Y-69231142D01*
X157153809Y-69231142D01*
X157249047Y-69707333D01*
X157582380Y-68802571D02*
X156915714Y-68802571D01*
X157106190Y-68802571D02*
X157010952Y-68754952D01*
X156963333Y-68707333D01*
X156915714Y-68612095D01*
X156915714Y-68516857D01*
%TO.C,Mic*%
X130799580Y-84515200D02*
X129799580Y-84515200D01*
X130513866Y-84181866D01*
X129799580Y-83848533D01*
X130799580Y-83848533D01*
X130799580Y-83372342D02*
X130132914Y-83372342D01*
X129799580Y-83372342D02*
X129847200Y-83419961D01*
X129894819Y-83372342D01*
X129847200Y-83324723D01*
X129799580Y-83372342D01*
X129894819Y-83372342D01*
X130751961Y-82467580D02*
X130799580Y-82562819D01*
X130799580Y-82753295D01*
X130751961Y-82848533D01*
X130704342Y-82896152D01*
X130609104Y-82943771D01*
X130323390Y-82943771D01*
X130228152Y-82896152D01*
X130180533Y-82848533D01*
X130132914Y-82753295D01*
X130132914Y-82562819D01*
X130180533Y-82467580D01*
%TO.C,10u*%
X133910342Y-81690780D02*
X133338914Y-81690780D01*
X133624628Y-81690780D02*
X133624628Y-80690780D01*
X133529390Y-80833638D01*
X133434152Y-80928876D01*
X133338914Y-80976495D01*
X134529390Y-80690780D02*
X134624628Y-80690780D01*
X134719866Y-80738400D01*
X134767485Y-80786019D01*
X134815104Y-80881257D01*
X134862723Y-81071733D01*
X134862723Y-81309828D01*
X134815104Y-81500304D01*
X134767485Y-81595542D01*
X134719866Y-81643161D01*
X134624628Y-81690780D01*
X134529390Y-81690780D01*
X134434152Y-81643161D01*
X134386533Y-81595542D01*
X134338914Y-81500304D01*
X134291295Y-81309828D01*
X134291295Y-81071733D01*
X134338914Y-80881257D01*
X134386533Y-80786019D01*
X134434152Y-80738400D01*
X134529390Y-80690780D01*
X135719866Y-81024114D02*
X135719866Y-81690780D01*
X135291295Y-81024114D02*
X135291295Y-81547923D01*
X135338914Y-81643161D01*
X135434152Y-81690780D01*
X135577009Y-81690780D01*
X135672247Y-81643161D01*
X135719866Y-81595542D01*
D11*
%TO.C,10k*%
X152274400Y-91592400D02*
X151504400Y-91592400D01*
X144964400Y-90222400D02*
X144964400Y-92962400D01*
X144964400Y-92962400D02*
X151504400Y-92962400D01*
X151504400Y-92962400D02*
X151504400Y-90222400D01*
X144194400Y-91592400D02*
X144964400Y-91592400D01*
X151504400Y-90222400D02*
X144964400Y-90222400D01*
%TO.C,0.1u*%
X132101600Y-90537400D02*
X132101600Y-90222400D01*
X137341600Y-90222400D02*
X132101600Y-90222400D01*
X132101600Y-92962400D02*
X132101600Y-92647400D01*
X137341600Y-92962400D02*
X132101600Y-92962400D01*
X137341600Y-90537400D02*
X137341600Y-90222400D01*
X137341600Y-92962400D02*
X137341600Y-92647400D01*
%TO.C,220u*%
X155315888Y-81226200D02*
X155315888Y-82221200D01*
X155435888Y-81324200D02*
X155435888Y-82221200D01*
X155915888Y-81878200D02*
X155915888Y-84644200D01*
X156115888Y-82250200D02*
X156115888Y-84272200D01*
X155195888Y-84301200D02*
X155195888Y-85383200D01*
X154475888Y-84301200D02*
X154475888Y-85729200D01*
X153714888Y-84301200D02*
X153714888Y-85841200D01*
X154875888Y-84301200D02*
X154875888Y-85571200D01*
X155995888Y-82010200D02*
X155995888Y-84512200D01*
X155875888Y-81818200D02*
X155875888Y-84704200D01*
X155235888Y-81166200D02*
X155235888Y-82221200D01*
X155395888Y-84301200D02*
X155395888Y-85232200D01*
X155715888Y-81608200D02*
X155715888Y-82221200D01*
X153714888Y-80681200D02*
X153714888Y-82221200D01*
X154234888Y-80733200D02*
X154234888Y-82221200D01*
X155035888Y-81037200D02*
X155035888Y-82221200D01*
X156195888Y-82456200D02*
X156195888Y-84066200D01*
X154915888Y-80971200D02*
X154915888Y-82221200D01*
X155675888Y-84301200D02*
X155675888Y-84960200D01*
X153914888Y-80688200D02*
X153914888Y-82221200D01*
X154795888Y-84301200D02*
X154795888Y-85609200D01*
X154715888Y-80879200D02*
X154715888Y-82221200D01*
X155275888Y-81196200D02*
X155275888Y-82221200D01*
X154154888Y-80718200D02*
X154154888Y-82221200D01*
X154114888Y-84301200D02*
X154114888Y-85811200D01*
X155595888Y-84301200D02*
X155595888Y-85046200D01*
X154394888Y-84301200D02*
X154394888Y-85752200D01*
X154555888Y-84301200D02*
X154555888Y-85703200D01*
X154915888Y-84301200D02*
X154915888Y-85551200D01*
X154955888Y-80993200D02*
X154955888Y-82221200D01*
X154635888Y-84301200D02*
X154635888Y-85675200D01*
X155035888Y-84301200D02*
X155035888Y-85485200D01*
X155315888Y-84301200D02*
X155315888Y-85296200D01*
X155635888Y-84301200D02*
X155635888Y-85004200D01*
X154034888Y-84301200D02*
X154034888Y-85822200D01*
X155115888Y-81086200D02*
X155115888Y-82221200D01*
X154635888Y-80847200D02*
X154635888Y-82221200D01*
X154835888Y-84301200D02*
X154835888Y-85590200D01*
X154555888Y-80819200D02*
X154555888Y-82221200D01*
X154274888Y-80741200D02*
X154274888Y-82221200D01*
X156075888Y-82163200D02*
X156075888Y-84359200D01*
X154194888Y-80725200D02*
X154194888Y-82221200D01*
X154194888Y-84301200D02*
X154194888Y-85797200D01*
X155635888Y-81518200D02*
X155635888Y-82221200D01*
X153914888Y-84301200D02*
X153914888Y-85834200D01*
X154835888Y-80932200D02*
X154835888Y-82221200D01*
X151160113Y-81536200D02*
X151160113Y-82036200D01*
X154354888Y-80760200D02*
X154354888Y-82221200D01*
X156155888Y-82346200D02*
X156155888Y-84176200D01*
X155355888Y-84301200D02*
X155355888Y-85265200D01*
X154154888Y-84301200D02*
X154154888Y-85804200D01*
X155155888Y-84301200D02*
X155155888Y-85410200D01*
X154034888Y-80700200D02*
X154034888Y-82221200D01*
X153994888Y-84301200D02*
X153994888Y-85826200D01*
X155715888Y-84301200D02*
X155715888Y-84914200D01*
X155115888Y-84301200D02*
X155115888Y-85436200D01*
X156315888Y-82977200D02*
X156315888Y-83545200D01*
X153754888Y-80681200D02*
X153754888Y-82221200D01*
X153994888Y-80696200D02*
X153994888Y-82221200D01*
X154515888Y-84301200D02*
X154515888Y-85716200D01*
X155515888Y-84301200D02*
X155515888Y-85125200D01*
X155355888Y-81257200D02*
X155355888Y-82221200D01*
X153794888Y-80682200D02*
X153794888Y-82221200D01*
X153754888Y-84301200D02*
X153754888Y-85841200D01*
X155515888Y-81397200D02*
X155515888Y-82221200D01*
X154074888Y-80705200D02*
X154074888Y-82221200D01*
X154114888Y-80711200D02*
X154114888Y-82221200D01*
X153874888Y-80685200D02*
X153874888Y-82221200D01*
X156235888Y-82584200D02*
X156235888Y-83938200D01*
X154715888Y-84301200D02*
X154715888Y-85643200D01*
X155475888Y-84301200D02*
X155475888Y-85162200D01*
X153834888Y-84301200D02*
X153834888Y-85839200D01*
X154074888Y-84301200D02*
X154074888Y-85817200D01*
X154595888Y-84301200D02*
X154595888Y-85689200D01*
X155755888Y-81656200D02*
X155755888Y-84866200D01*
X155835888Y-81761200D02*
X155835888Y-84761200D01*
X156035888Y-82083200D02*
X156035888Y-84439200D01*
X154314888Y-80750200D02*
X154314888Y-82221200D01*
X153954888Y-84301200D02*
X153954888Y-85830200D01*
X155275888Y-84301200D02*
X155275888Y-85326200D01*
X155555888Y-84301200D02*
X155555888Y-85087200D01*
X155395888Y-81290200D02*
X155395888Y-82221200D01*
X153954888Y-80692200D02*
X153954888Y-82221200D01*
X155195888Y-81139200D02*
X155195888Y-82221200D01*
X155555888Y-81435200D02*
X155555888Y-82221200D01*
X154755888Y-80896200D02*
X154755888Y-82221200D01*
X155795888Y-81707200D02*
X155795888Y-84815200D01*
X154515888Y-80806200D02*
X154515888Y-82221200D01*
X154795888Y-80913200D02*
X154795888Y-82221200D01*
X150910113Y-81786200D02*
X151410113Y-81786200D01*
X155475888Y-81360200D02*
X155475888Y-82221200D01*
X154955888Y-84301200D02*
X154955888Y-85529200D01*
X155155888Y-81112200D02*
X155155888Y-82221200D01*
X154354888Y-84301200D02*
X154354888Y-85762200D01*
X155675888Y-81562200D02*
X155675888Y-82221200D01*
X155435888Y-84301200D02*
X155435888Y-85198200D01*
X154755888Y-84301200D02*
X154755888Y-85626200D01*
X155075888Y-84301200D02*
X155075888Y-85461200D01*
X155955888Y-81942200D02*
X155955888Y-84580200D01*
X155595888Y-81476200D02*
X155595888Y-82221200D01*
X154314888Y-84301200D02*
X154314888Y-85772200D01*
X154995888Y-81014200D02*
X154995888Y-82221200D01*
X155235888Y-84301200D02*
X155235888Y-85356200D01*
X154595888Y-80833200D02*
X154595888Y-82221200D01*
X154675888Y-80863200D02*
X154675888Y-82221200D01*
X154234888Y-84301200D02*
X154234888Y-85789200D01*
X153834888Y-80683200D02*
X153834888Y-82221200D01*
X155075888Y-81061200D02*
X155075888Y-82221200D01*
X153874888Y-84301200D02*
X153874888Y-85837200D01*
X154435888Y-84301200D02*
X154435888Y-85741200D01*
X154394888Y-80770200D02*
X154394888Y-82221200D01*
X154875888Y-80951200D02*
X154875888Y-82221200D01*
X154995888Y-84301200D02*
X154995888Y-85508200D01*
X154435888Y-80781200D02*
X154435888Y-82221200D01*
X154475888Y-80793200D02*
X154475888Y-82221200D01*
X154274888Y-84301200D02*
X154274888Y-85781200D01*
X153794888Y-84301200D02*
X153794888Y-85840200D01*
X154675888Y-84301200D02*
X154675888Y-85659200D01*
X156275888Y-82743200D02*
X156275888Y-83779200D01*
X156334888Y-83261200D02*
G75*
G03*
X156334888Y-83261200I-2620000J0D01*
G01*
%TO.C,10u*%
X135571888Y-76224000D02*
X135571888Y-77494000D01*
X136251888Y-76224000D02*
X136251888Y-77010000D01*
X135010888Y-72673000D02*
X135010888Y-74144000D01*
X135771888Y-72984000D02*
X135771888Y-74144000D01*
X135171888Y-72716000D02*
X135171888Y-74144000D01*
X134890888Y-76224000D02*
X134890888Y-77720000D01*
X135171888Y-76224000D02*
X135171888Y-77652000D01*
X135891888Y-76224000D02*
X135891888Y-77306000D01*
X135531888Y-72855000D02*
X135531888Y-74144000D01*
X134970888Y-76224000D02*
X134970888Y-77704000D01*
X135491888Y-76224000D02*
X135491888Y-77532000D01*
X134610888Y-72611000D02*
X134610888Y-74144000D01*
X134970888Y-72664000D02*
X134970888Y-74144000D01*
X135331888Y-76224000D02*
X135331888Y-77598000D01*
X136171888Y-73283000D02*
X136171888Y-74144000D01*
X135731888Y-76224000D02*
X135731888Y-77408000D01*
X135851888Y-76224000D02*
X135851888Y-77333000D01*
X136091888Y-76224000D02*
X136091888Y-77155000D01*
X135131888Y-76224000D02*
X135131888Y-77664000D01*
X135891888Y-73062000D02*
X135891888Y-74144000D01*
X134730888Y-76224000D02*
X134730888Y-77745000D01*
X135731888Y-72960000D02*
X135731888Y-74144000D01*
X135411888Y-76224000D02*
X135411888Y-77566000D01*
X134730888Y-72623000D02*
X134730888Y-74144000D01*
X136571888Y-73741000D02*
X136571888Y-76627000D01*
X135611888Y-76224000D02*
X135611888Y-77474000D01*
X134490888Y-72605000D02*
X134490888Y-74144000D01*
X135331888Y-72770000D02*
X135331888Y-74144000D01*
X136371888Y-73485000D02*
X136371888Y-74144000D01*
X135251888Y-72742000D02*
X135251888Y-74144000D01*
X135571888Y-72874000D02*
X135571888Y-74144000D01*
X136131888Y-73247000D02*
X136131888Y-74144000D01*
X135451888Y-72819000D02*
X135451888Y-74144000D01*
X134410888Y-76224000D02*
X134410888Y-77764000D01*
X135371888Y-72786000D02*
X135371888Y-74144000D01*
X135211888Y-72729000D02*
X135211888Y-74144000D01*
X135691888Y-72937000D02*
X135691888Y-74144000D01*
X134690888Y-76224000D02*
X134690888Y-77749000D01*
X135811888Y-76224000D02*
X135811888Y-77359000D01*
X136651888Y-73865000D02*
X136651888Y-76503000D01*
X136211888Y-76224000D02*
X136211888Y-77048000D01*
X136731888Y-74006000D02*
X136731888Y-76362000D01*
X136291888Y-76224000D02*
X136291888Y-76969000D01*
X136011888Y-73149000D02*
X136011888Y-74144000D01*
X135651888Y-72916000D02*
X135651888Y-74144000D01*
X134490888Y-76224000D02*
X134490888Y-77763000D01*
X135771888Y-76224000D02*
X135771888Y-77384000D01*
X135090888Y-76224000D02*
X135090888Y-77675000D01*
X135971888Y-76224000D02*
X135971888Y-77249000D01*
X136491888Y-73630000D02*
X136491888Y-76738000D01*
X134530888Y-72606000D02*
X134530888Y-74144000D01*
X135131888Y-72704000D02*
X135131888Y-74144000D01*
X135411888Y-72802000D02*
X135411888Y-74144000D01*
X136291888Y-73399000D02*
X136291888Y-74144000D01*
X134610888Y-76224000D02*
X134610888Y-77757000D01*
X136411888Y-73531000D02*
X136411888Y-74144000D01*
X137011888Y-74900000D02*
X137011888Y-75468000D01*
X134650888Y-72615000D02*
X134650888Y-74144000D01*
X135691888Y-76224000D02*
X135691888Y-77431000D01*
X131856113Y-73459000D02*
X131856113Y-73959000D01*
X134570888Y-72608000D02*
X134570888Y-74144000D01*
X134930888Y-72656000D02*
X134930888Y-74144000D01*
X134850888Y-76224000D02*
X134850888Y-77727000D01*
X135931888Y-73089000D02*
X135931888Y-74144000D01*
X136011888Y-76224000D02*
X136011888Y-77219000D01*
X134770888Y-72628000D02*
X134770888Y-74144000D01*
X136851888Y-74269000D02*
X136851888Y-76099000D01*
X136531888Y-73684000D02*
X136531888Y-76684000D01*
X135211888Y-76224000D02*
X135211888Y-77639000D01*
X136811888Y-74173000D02*
X136811888Y-76195000D01*
X136091888Y-73213000D02*
X136091888Y-74144000D01*
X134650888Y-76224000D02*
X134650888Y-77753000D01*
X136411888Y-76224000D02*
X136411888Y-76837000D01*
X136691888Y-73933000D02*
X136691888Y-76435000D01*
X135491888Y-72836000D02*
X135491888Y-74144000D01*
X134450888Y-72604000D02*
X134450888Y-74144000D01*
X135291888Y-76224000D02*
X135291888Y-77612000D01*
X135851888Y-73035000D02*
X135851888Y-74144000D01*
X136251888Y-73358000D02*
X136251888Y-74144000D01*
X136971888Y-74666000D02*
X136971888Y-75702000D01*
X135291888Y-72756000D02*
X135291888Y-74144000D01*
X135371888Y-76224000D02*
X135371888Y-77582000D01*
X134810888Y-72634000D02*
X134810888Y-74144000D01*
X136891888Y-74379000D02*
X136891888Y-75989000D01*
X136931888Y-74507000D02*
X136931888Y-75861000D01*
X135811888Y-73009000D02*
X135811888Y-74144000D01*
X135931888Y-76224000D02*
X135931888Y-77279000D01*
X136171888Y-76224000D02*
X136171888Y-77085000D01*
X136211888Y-73320000D02*
X136211888Y-74144000D01*
X134690888Y-72619000D02*
X134690888Y-74144000D01*
X135090888Y-72693000D02*
X135090888Y-74144000D01*
X134810888Y-76224000D02*
X134810888Y-77734000D01*
X136771888Y-74086000D02*
X136771888Y-76282000D01*
X136451888Y-73579000D02*
X136451888Y-76789000D01*
X136611888Y-73801000D02*
X136611888Y-76567000D01*
X135050888Y-76224000D02*
X135050888Y-77685000D01*
X136051888Y-76224000D02*
X136051888Y-77188000D01*
X135010888Y-76224000D02*
X135010888Y-77695000D01*
X136131888Y-76224000D02*
X136131888Y-77121000D01*
X134930888Y-76224000D02*
X134930888Y-77712000D01*
X135971888Y-73119000D02*
X135971888Y-74144000D01*
X134450888Y-76224000D02*
X134450888Y-77764000D01*
X134850888Y-72641000D02*
X134850888Y-74144000D01*
X136051888Y-73180000D02*
X136051888Y-74144000D01*
X135451888Y-76224000D02*
X135451888Y-77549000D01*
X134530888Y-76224000D02*
X134530888Y-77762000D01*
X135651888Y-76224000D02*
X135651888Y-77452000D01*
X134890888Y-72648000D02*
X134890888Y-74144000D01*
X136371888Y-76224000D02*
X136371888Y-76883000D01*
X136331888Y-73441000D02*
X136331888Y-74144000D01*
X134570888Y-76224000D02*
X134570888Y-77760000D01*
X135251888Y-76224000D02*
X135251888Y-77626000D01*
X134770888Y-76224000D02*
X134770888Y-77740000D01*
X131606113Y-73709000D02*
X132106113Y-73709000D01*
X135050888Y-72683000D02*
X135050888Y-74144000D01*
X135611888Y-72894000D02*
X135611888Y-74144000D01*
X136331888Y-76224000D02*
X136331888Y-76927000D01*
X135531888Y-76224000D02*
X135531888Y-77513000D01*
X134410888Y-72604000D02*
X134410888Y-74144000D01*
X137030888Y-75184000D02*
G75*
G03*
X137030888Y-75184000I-2620000J0D01*
G01*
%TO.C,Bat*%
X164194800Y-86535200D02*
X164194800Y-85575200D01*
X164194800Y-83995200D02*
X164194800Y-83225200D01*
X164254800Y-89125200D02*
X164994800Y-89125200D01*
X164754800Y-83995200D02*
X164754800Y-83225200D01*
X158434800Y-83225200D02*
X164754800Y-83225200D01*
X164194800Y-88885200D02*
X164194800Y-88115200D01*
X164994800Y-89125200D02*
X164994800Y-88625200D01*
X158894800Y-88885200D02*
X158894800Y-83225200D01*
X164754800Y-86535200D02*
X164754800Y-85575200D01*
X164754800Y-88885200D02*
X164754800Y-88115200D01*
X158434800Y-88885200D02*
X158434800Y-83225200D01*
X158434800Y-88885200D02*
X164754800Y-88885200D01*
%TO.C,10k*%
X147338800Y-68530800D02*
X140798800Y-68530800D01*
X140028800Y-69900800D02*
X140798800Y-69900800D01*
X147338800Y-71270800D02*
X147338800Y-68530800D01*
X140798800Y-68530800D02*
X140798800Y-71270800D01*
X148108800Y-69900800D02*
X147338800Y-69900800D01*
X140798800Y-71270800D02*
X147338800Y-71270800D01*
%TO.C,100k*%
X128473200Y-78646600D02*
X128473200Y-68876600D01*
X123403200Y-68876600D02*
X128473200Y-68876600D01*
X123403200Y-78646600D02*
X128473200Y-78646600D01*
X123403200Y-78646600D02*
X123403200Y-68876600D01*
%TO.C,IC LM386*%
X146982800Y-86582400D02*
X146982800Y-76302400D01*
X141682800Y-76302400D02*
X141682800Y-86582400D01*
X141682800Y-86582400D02*
X146982800Y-86582400D01*
X146982800Y-76302400D02*
X145332800Y-76302400D01*
X143332800Y-76302400D02*
X141682800Y-76302400D01*
X143332800Y-76302400D02*
G75*
G03*
X145332800Y-76302400I1000000J0D01*
G01*
%TO.C,0.05u*%
X154582800Y-77245200D02*
X154582800Y-72005200D01*
X151842800Y-77245200D02*
X151842800Y-72005200D01*
X154267800Y-72005200D02*
X154582800Y-72005200D01*
X151842800Y-72005200D02*
X152157800Y-72005200D01*
X151842800Y-77245200D02*
X152157800Y-77245200D01*
X154267800Y-77245200D02*
X154582800Y-77245200D01*
%TO.C,Speaker*%
X163950000Y-74444000D02*
X164690000Y-74444000D01*
X158130000Y-74204000D02*
X158130000Y-68544000D01*
X158130000Y-74204000D02*
X164450000Y-74204000D01*
X158130000Y-68544000D02*
X164450000Y-68544000D01*
X164450000Y-69314000D02*
X164450000Y-68544000D01*
X158590000Y-74204000D02*
X158590000Y-68544000D01*
X164450000Y-71854000D02*
X164450000Y-70894000D01*
X164690000Y-74444000D02*
X164690000Y-73944000D01*
X163890000Y-74204000D02*
X163890000Y-73434000D01*
X163890000Y-71854000D02*
X163890000Y-70894000D01*
X164450000Y-74204000D02*
X164450000Y-73434000D01*
X163890000Y-69314000D02*
X163890000Y-68544000D01*
%TO.C,Mic*%
X123527200Y-80445200D02*
X122787200Y-80445200D01*
X129347200Y-80685200D02*
X123027200Y-80685200D01*
X129347200Y-86345200D02*
X123027200Y-86345200D01*
X123027200Y-85575200D02*
X123027200Y-86345200D01*
X128887200Y-80685200D02*
X128887200Y-86345200D01*
X123027200Y-83035200D02*
X123027200Y-83995200D01*
X123587200Y-85575200D02*
X123587200Y-86345200D01*
X123587200Y-83035200D02*
X123587200Y-83995200D01*
X122787200Y-80445200D02*
X122787200Y-80945200D01*
X123027200Y-80685200D02*
X123027200Y-81455200D01*
X129347200Y-80685200D02*
X129347200Y-86345200D01*
X123587200Y-80685200D02*
X123587200Y-81455200D01*
%TO.C,10u*%
X135994200Y-86028400D02*
X135994200Y-87137400D01*
X135554200Y-82606400D02*
X135554200Y-83948400D01*
X134833200Y-82423400D02*
X134833200Y-83948400D01*
X136394200Y-86028400D02*
X136394200Y-86814400D01*
X135754200Y-82698400D02*
X135754200Y-83948400D01*
X136474200Y-83245400D02*
X136474200Y-83948400D01*
X136234200Y-86028400D02*
X136234200Y-86959400D01*
X135274200Y-82508400D02*
X135274200Y-83948400D01*
X135514200Y-86028400D02*
X135514200Y-87386400D01*
X135394200Y-86028400D02*
X135394200Y-87430400D01*
X136594200Y-83383400D02*
X136594200Y-86593400D01*
X136274200Y-86028400D02*
X136274200Y-86925400D01*
X135033200Y-86028400D02*
X135033200Y-87524400D01*
X135914200Y-86028400D02*
X135914200Y-87188400D01*
X134753200Y-86028400D02*
X134753200Y-87561400D01*
X136634200Y-83434400D02*
X136634200Y-86542400D01*
X136514200Y-83289400D02*
X136514200Y-83948400D01*
X135914200Y-82788400D02*
X135914200Y-83948400D01*
X135314200Y-82520400D02*
X135314200Y-83948400D01*
X135233200Y-86028400D02*
X135233200Y-87479400D01*
X135474200Y-86028400D02*
X135474200Y-87402400D01*
X135714200Y-86028400D02*
X135714200Y-87298400D01*
X135794200Y-82720400D02*
X135794200Y-83948400D01*
X135794200Y-86028400D02*
X135794200Y-87256400D01*
X136274200Y-83051400D02*
X136274200Y-83948400D01*
X135834200Y-86028400D02*
X135834200Y-87235400D01*
X137074200Y-84311400D02*
X137074200Y-85665400D01*
X135233200Y-82497400D02*
X135233200Y-83948400D01*
X136314200Y-86028400D02*
X136314200Y-86889400D01*
X135153200Y-86028400D02*
X135153200Y-87499400D01*
X136074200Y-82893400D02*
X136074200Y-83948400D01*
X134873200Y-82427400D02*
X134873200Y-83948400D01*
X135073200Y-82460400D02*
X135073200Y-83948400D01*
X134993200Y-86028400D02*
X134993200Y-87531400D01*
X135714200Y-82678400D02*
X135714200Y-83948400D01*
X136474200Y-86028400D02*
X136474200Y-86731400D01*
X136434200Y-83203400D02*
X136434200Y-83948400D01*
X136394200Y-83162400D02*
X136394200Y-83948400D01*
X136874200Y-83810400D02*
X136874200Y-86166400D01*
X136434200Y-86028400D02*
X136434200Y-86773400D01*
X134713200Y-82412400D02*
X134713200Y-83948400D01*
X136154200Y-86028400D02*
X136154200Y-87023400D01*
X135594200Y-86028400D02*
X135594200Y-87353400D01*
X136794200Y-83669400D02*
X136794200Y-86307400D01*
X135754200Y-86028400D02*
X135754200Y-87278400D01*
X134633200Y-86028400D02*
X134633200Y-87567400D01*
X135113200Y-86028400D02*
X135113200Y-87508400D01*
X137154200Y-84704400D02*
X137154200Y-85272400D01*
X136714200Y-83545400D02*
X136714200Y-86431400D01*
X136314200Y-83087400D02*
X136314200Y-83948400D01*
X134753200Y-82415400D02*
X134753200Y-83948400D01*
X135394200Y-82546400D02*
X135394200Y-83948400D01*
X136194200Y-82984400D02*
X136194200Y-83948400D01*
X131998425Y-83263400D02*
X131998425Y-83763400D01*
X134873200Y-86028400D02*
X134873200Y-87549400D01*
X135434200Y-82560400D02*
X135434200Y-83948400D01*
X136034200Y-86028400D02*
X136034200Y-87110400D01*
X136154200Y-82953400D02*
X136154200Y-83948400D01*
X135193200Y-86028400D02*
X135193200Y-87489400D01*
X131748425Y-83513400D02*
X132248425Y-83513400D01*
X136074200Y-86028400D02*
X136074200Y-87083400D01*
X134633200Y-82409400D02*
X134633200Y-83948400D01*
X134593200Y-86028400D02*
X134593200Y-87568400D01*
X134953200Y-86028400D02*
X134953200Y-87538400D01*
X135594200Y-82623400D02*
X135594200Y-83948400D01*
X135193200Y-82487400D02*
X135193200Y-83948400D01*
X134673200Y-86028400D02*
X134673200Y-87566400D01*
X135314200Y-86028400D02*
X135314200Y-87456400D01*
X136994200Y-84073400D02*
X136994200Y-85903400D01*
X134953200Y-82438400D02*
X134953200Y-83948400D01*
X135634200Y-82640400D02*
X135634200Y-83948400D01*
X136514200Y-86028400D02*
X136514200Y-86687400D01*
X136034200Y-82866400D02*
X136034200Y-83948400D01*
X135674200Y-82659400D02*
X135674200Y-83948400D01*
X134913200Y-82432400D02*
X134913200Y-83948400D01*
X134913200Y-86028400D02*
X134913200Y-87544400D01*
X135033200Y-82452400D02*
X135033200Y-83948400D01*
X136754200Y-83605400D02*
X136754200Y-86371400D01*
X135354200Y-82533400D02*
X135354200Y-83948400D01*
X136194200Y-86028400D02*
X136194200Y-86992400D01*
X135634200Y-86028400D02*
X135634200Y-87336400D01*
X136354200Y-83124400D02*
X136354200Y-83948400D01*
X136554200Y-86028400D02*
X136554200Y-86641400D01*
X135834200Y-82741400D02*
X135834200Y-83948400D01*
X134833200Y-86028400D02*
X134833200Y-87553400D01*
X135874200Y-82764400D02*
X135874200Y-83948400D01*
X136914200Y-83890400D02*
X136914200Y-86086400D01*
X136834200Y-83737400D02*
X136834200Y-86239400D01*
X134793200Y-86028400D02*
X134793200Y-87557400D01*
X135874200Y-86028400D02*
X135874200Y-87212400D01*
X135354200Y-86028400D02*
X135354200Y-87443400D01*
X135153200Y-82477400D02*
X135153200Y-83948400D01*
X135434200Y-86028400D02*
X135434200Y-87416400D01*
X137114200Y-84470400D02*
X137114200Y-85506400D01*
X136954200Y-83977400D02*
X136954200Y-85999400D01*
X137034200Y-84183400D02*
X137034200Y-85793400D01*
X136114200Y-82923400D02*
X136114200Y-83948400D01*
X135113200Y-82468400D02*
X135113200Y-83948400D01*
X136234200Y-83017400D02*
X136234200Y-83948400D01*
X134553200Y-82408400D02*
X134553200Y-83948400D01*
X135994200Y-82839400D02*
X135994200Y-83948400D01*
X136354200Y-86028400D02*
X136354200Y-86852400D01*
X135274200Y-86028400D02*
X135274200Y-87468400D01*
X135954200Y-86028400D02*
X135954200Y-87163400D01*
X136114200Y-86028400D02*
X136114200Y-87053400D01*
X135954200Y-82813400D02*
X135954200Y-83948400D01*
X134993200Y-82445400D02*
X134993200Y-83948400D01*
X134553200Y-86028400D02*
X134553200Y-87568400D01*
X134673200Y-82410400D02*
X134673200Y-83948400D01*
X135674200Y-86028400D02*
X135674200Y-87317400D01*
X135474200Y-82574400D02*
X135474200Y-83948400D01*
X135554200Y-86028400D02*
X135554200Y-87370400D01*
X134713200Y-86028400D02*
X134713200Y-87564400D01*
X135514200Y-82590400D02*
X135514200Y-83948400D01*
X134593200Y-82408400D02*
X134593200Y-83948400D01*
X136674200Y-83488400D02*
X136674200Y-86488400D01*
X135073200Y-86028400D02*
X135073200Y-87516400D01*
X136554200Y-83335400D02*
X136554200Y-83948400D01*
X134793200Y-82419400D02*
X134793200Y-83948400D01*
X137173200Y-84988400D02*
G75*
G03*
X137173200Y-84988400I-2620000J0D01*
G01*
%TD*%
M02*
