%TF.GenerationSoftware,KiCad,Pcbnew,(6.0.11)*%
%TF.CreationDate,2026-08-19T06:43:28+05:30*%
%TF.ProjectId,Project_2,50726f6a-6563-4745-9f32-2e6b69636164,rev?*%
%TF.SameCoordinates,Original*%
%TF.FileFunction,Copper,L2,Bot*%
%TF.FilePolarity,Positive*%
%FSLAX46Y46*%
G04 Gerber Fmt 4.6, Leading zero omitted, Abs format (unit mm)*
G04 Created by KiCad (PCBNEW (6.0.11)) date 2026-08-19 06:43:28*
%MOMM*%
%LPD*%
G01*
G04 APERTURE LIST*
%TA.AperFunction,ComponentPad*%
%ADD10C,1.600000*%
%TD*%
%TA.AperFunction,ComponentPad*%
%ADD11O,1.600000X1.600000*%
%TD*%
%TA.AperFunction,ComponentPad*%
%ADD12R,1.600000X1.600000*%
%TD*%
%TA.AperFunction,ComponentPad*%
%ADD13R,2.200000X2.200000*%
%TD*%
%TA.AperFunction,ComponentPad*%
%ADD14C,2.200000*%
%TD*%
%TA.AperFunction,ComponentPad*%
%ADD15C,1.440000*%
%TD*%
%TA.AperFunction,ViaPad*%
%ADD16C,0.800000*%
%TD*%
%TA.AperFunction,Conductor*%
%ADD17C,0.250000*%
%TD*%
G04 APERTURE END LIST*
D10*
%TO.P,10k,1*%
%TO.N,Net-(C1-Pad1)*%
X143154400Y-91592400D03*
D11*
%TO.P,10k,2*%
%TO.N,VCC*%
X153314400Y-91592400D03*
%TD*%
D10*
%TO.P,0.1u,1*%
%TO.N,Net-(C1-Pad1)*%
X137221600Y-91592400D03*
%TO.P,0.1u,2*%
%TO.N,Net-(C1-Pad2)*%
X132221600Y-91592400D03*
%TD*%
D12*
%TO.P,220u,1*%
%TO.N,Net-(C4-Pad1)*%
X152714888Y-83261200D03*
D10*
%TO.P,220u,2*%
%TO.N,Net-(C5-Pad2)*%
X154714888Y-83261200D03*
%TD*%
D12*
%TO.P,10u,1*%
%TO.N,Net-(C3-Pad1)*%
X133410888Y-75184000D03*
D10*
%TO.P,10u,2*%
%TO.N,Net-(C3-Pad2)*%
X135410888Y-75184000D03*
%TD*%
D13*
%TO.P,Bat,1,Pin_1*%
%TO.N,VCC*%
X161594800Y-87325200D03*
D14*
%TO.P,Bat,2,Pin_2*%
%TO.N,GND*%
X161594800Y-84785200D03*
%TD*%
D10*
%TO.P,10k,1*%
%TO.N,GND*%
X138988800Y-69900800D03*
D11*
%TO.P,10k,2*%
%TO.N,Net-(C4-Pad2)*%
X149148800Y-69900800D03*
%TD*%
D15*
%TO.P,100k,1*%
%TO.N,GND*%
X125933200Y-71221600D03*
%TO.P,100k,2*%
%TO.N,Net-(R2-Pad2)*%
X125933200Y-73761600D03*
%TO.P,100k,3*%
%TO.N,Net-(C1-Pad2)*%
X125933200Y-76301600D03*
%TD*%
D12*
%TO.P,IC LM386,1,IN-*%
%TO.N,GND*%
X140522800Y-77632400D03*
D11*
%TO.P,IC LM386,2,BYP*%
%TO.N,Net-(C2-Pad1)*%
X140522800Y-80172400D03*
%TO.P,IC LM386,3,GAIN*%
%TO.N,Net-(C3-Pad2)*%
X140522800Y-82712400D03*
%TO.P,IC LM386,4,GAIN*%
%TO.N,Net-(C3-Pad1)*%
X140522800Y-85252400D03*
%TO.P,IC LM386,5,IN+*%
%TO.N,Net-(R2-Pad2)*%
X148142800Y-85252400D03*
%TO.P,IC LM386,6,VCC*%
%TO.N,VCC*%
X148142800Y-82712400D03*
%TO.P,IC LM386,7,VOUT*%
%TO.N,Net-(C4-Pad1)*%
X148142800Y-80172400D03*
%TO.P,IC LM386,8,GND*%
%TO.N,GND*%
X148142800Y-77632400D03*
%TD*%
D10*
%TO.P,0.05u,1*%
%TO.N,Net-(C4-Pad1)*%
X153212800Y-77125200D03*
%TO.P,0.05u,2*%
%TO.N,Net-(C4-Pad2)*%
X153212800Y-72125200D03*
%TD*%
D13*
%TO.P,Speaker,1,Pin_1*%
%TO.N,Net-(C5-Pad2)*%
X161290000Y-72644000D03*
D14*
%TO.P,Speaker,2,Pin_2*%
%TO.N,GND*%
X161290000Y-70104000D03*
%TD*%
D13*
%TO.P,Mic,1,Pin_1*%
%TO.N,GND*%
X126187200Y-82245200D03*
D14*
%TO.P,Mic,2,Pin_2*%
%TO.N,Net-(C1-Pad1)*%
X126187200Y-84785200D03*
%TD*%
D12*
%TO.P,10u,1*%
%TO.N,Net-(C2-Pad1)*%
X133553200Y-84988400D03*
D10*
%TO.P,10u,2*%
%TO.N,GND*%
X135553200Y-84988400D03*
%TD*%
D16*
%TO.N,GND*%
X137210800Y-80518000D03*
%TO.N,Net-(C2-Pad1)*%
X138582400Y-81991200D03*
%TD*%
D17*
%TO.N,GND*%
X140522800Y-71434800D02*
X138988800Y-69900800D01*
X124256800Y-72898000D02*
X125933200Y-71221600D01*
X156824991Y-70104000D02*
X161290000Y-70104000D01*
X126187200Y-82245200D02*
X124256800Y-80314800D01*
X148142800Y-77632400D02*
X140522800Y-77632400D01*
X148142800Y-77632400D02*
X149296591Y-77632400D01*
X149296591Y-77632400D02*
X156824991Y-70104000D01*
X124256800Y-80314800D02*
X124256800Y-72898000D01*
X140522800Y-77632400D02*
X140522800Y-71434800D01*
X137210800Y-80518000D02*
X140096400Y-77632400D01*
X140096400Y-77632400D02*
X140522800Y-77632400D01*
%TO.N,Net-(C1-Pad1)*%
X126187200Y-84785200D02*
X126187200Y-87071200D01*
X126187200Y-87071200D02*
X128473200Y-89357200D01*
X128598609Y-89560400D02*
X135189600Y-89560400D01*
X128473200Y-89357200D02*
X128473200Y-89434991D01*
X128473200Y-89434991D02*
X128598609Y-89560400D01*
X135189600Y-89560400D02*
X137221600Y-91592400D01*
%TO.N,VCC*%
X153314400Y-87884000D02*
X153314400Y-91592400D01*
X148142800Y-82712400D02*
X153314400Y-87884000D01*
%TO.N,Net-(C2-Pad1)*%
X138704000Y-81991200D02*
X140522800Y-80172400D01*
X138582400Y-81991200D02*
X138704000Y-81991200D01*
%TO.N,Net-(C3-Pad1)*%
X133410888Y-75184000D02*
X133410888Y-78140488D01*
X133410888Y-78140488D02*
X140522800Y-85252400D01*
%TD*%
%TA.AperFunction,Conductor*%
%TO.N,GND*%
G36*
X166718021Y-65704902D02*
G01*
X166764514Y-65758558D01*
X166775900Y-65810900D01*
X166775900Y-95225100D01*
X166755898Y-95293221D01*
X166702242Y-95339714D01*
X166649900Y-95351100D01*
X121843300Y-95351100D01*
X121775179Y-95331098D01*
X121728686Y-95277442D01*
X121717300Y-95225100D01*
X121717300Y-84777775D01*
X122583604Y-84777775D01*
X122585461Y-84798175D01*
X122601607Y-84975588D01*
X122602418Y-84984503D01*
X122604156Y-84990409D01*
X122604157Y-84990413D01*
X122623259Y-85055315D01*
X122661027Y-85183640D01*
X122757199Y-85367600D01*
X122887271Y-85529377D01*
X122891988Y-85533335D01*
X122891990Y-85533337D01*
X122995881Y-85620512D01*
X123046289Y-85662809D01*
X123051681Y-85665773D01*
X123051685Y-85665776D01*
X123222798Y-85759846D01*
X123228195Y-85762813D01*
X123426061Y-85825579D01*
X123432178Y-85826265D01*
X123432182Y-85826266D01*
X123508798Y-85834859D01*
X123587613Y-85843700D01*
X123699437Y-85843700D01*
X123702493Y-85843400D01*
X123702500Y-85843400D01*
X123847666Y-85829166D01*
X123847669Y-85829165D01*
X123853792Y-85828565D01*
X123985746Y-85788726D01*
X124046607Y-85770352D01*
X124046610Y-85770351D01*
X124052515Y-85768568D01*
X124059835Y-85764676D01*
X124230353Y-85674009D01*
X124230355Y-85674008D01*
X124235799Y-85671113D01*
X124295671Y-85622283D01*
X124391889Y-85543810D01*
X124391892Y-85543807D01*
X124396664Y-85539915D01*
X124411738Y-85521694D01*
X124504563Y-85409489D01*
X124563397Y-85369751D01*
X124634375Y-85368130D01*
X124694962Y-85405139D01*
X124718056Y-85441587D01*
X124736371Y-85485802D01*
X124749584Y-85517702D01*
X124881872Y-85733576D01*
X125046302Y-85926098D01*
X125238824Y-86090528D01*
X125454698Y-86222816D01*
X125459273Y-86224711D01*
X125459275Y-86224712D01*
X125475920Y-86231607D01*
X125531200Y-86276156D01*
X125553700Y-86348015D01*
X125553700Y-86992433D01*
X125553173Y-87003616D01*
X125551498Y-87011109D01*
X125551747Y-87019035D01*
X125551747Y-87019036D01*
X125553638Y-87079186D01*
X125553700Y-87083145D01*
X125553700Y-87111056D01*
X125554197Y-87114990D01*
X125554197Y-87114991D01*
X125554205Y-87115056D01*
X125555138Y-87126893D01*
X125556527Y-87171089D01*
X125562178Y-87190539D01*
X125566187Y-87209900D01*
X125568726Y-87229997D01*
X125571645Y-87237368D01*
X125571645Y-87237370D01*
X125585004Y-87271112D01*
X125588849Y-87282342D01*
X125601182Y-87324793D01*
X125605215Y-87331612D01*
X125605217Y-87331617D01*
X125611493Y-87342228D01*
X125620188Y-87359976D01*
X125627648Y-87378817D01*
X125632310Y-87385233D01*
X125632310Y-87385234D01*
X125653636Y-87414587D01*
X125660152Y-87424507D01*
X125682658Y-87462562D01*
X125696979Y-87476883D01*
X125709819Y-87491916D01*
X125721728Y-87508307D01*
X125727834Y-87513358D01*
X125755805Y-87536498D01*
X125764584Y-87544488D01*
X127855694Y-89635598D01*
X127882236Y-89674653D01*
X127884971Y-89680974D01*
X127887182Y-89688584D01*
X127891215Y-89695403D01*
X127891217Y-89695408D01*
X127897493Y-89706019D01*
X127906188Y-89723767D01*
X127913648Y-89742608D01*
X127918310Y-89749024D01*
X127918310Y-89749025D01*
X127939636Y-89778378D01*
X127946152Y-89788298D01*
X127968658Y-89826353D01*
X127982982Y-89840677D01*
X127995817Y-89855704D01*
X128007728Y-89872098D01*
X128013836Y-89877151D01*
X128013838Y-89877153D01*
X128041798Y-89900283D01*
X128050578Y-89908273D01*
X128094956Y-89952651D01*
X128102499Y-89960940D01*
X128106609Y-89967418D01*
X128112384Y-89972841D01*
X128156245Y-90014028D01*
X128159089Y-90016784D01*
X128178839Y-90036535D01*
X128182036Y-90039015D01*
X128191056Y-90046718D01*
X128223288Y-90076986D01*
X128230234Y-90080805D01*
X128230237Y-90080807D01*
X128241043Y-90086748D01*
X128257562Y-90097599D01*
X128273568Y-90110014D01*
X128280837Y-90113159D01*
X128280841Y-90113162D01*
X128314146Y-90127574D01*
X128324796Y-90132791D01*
X128363549Y-90154095D01*
X128371224Y-90156066D01*
X128371225Y-90156066D01*
X128383171Y-90159133D01*
X128401876Y-90165537D01*
X128420464Y-90173581D01*
X128428287Y-90174820D01*
X128428297Y-90174823D01*
X128464133Y-90180499D01*
X128475753Y-90182905D01*
X128510898Y-90191928D01*
X128518579Y-90193900D01*
X128538833Y-90193900D01*
X128558543Y-90195451D01*
X128578552Y-90198620D01*
X128586444Y-90197874D01*
X128622570Y-90194459D01*
X128634428Y-90193900D01*
X131556168Y-90193900D01*
X131624289Y-90213902D01*
X131670782Y-90267558D01*
X131680886Y-90337832D01*
X131651392Y-90402412D01*
X131609418Y-90434095D01*
X131569838Y-90452551D01*
X131569833Y-90452554D01*
X131564851Y-90454877D01*
X131534372Y-90476219D01*
X131381811Y-90583043D01*
X131381808Y-90583045D01*
X131377300Y-90586202D01*
X131215402Y-90748100D01*
X131084077Y-90935651D01*
X131081754Y-90940633D01*
X131081751Y-90940638D01*
X130989639Y-91138175D01*
X130987316Y-91143157D01*
X130985894Y-91148465D01*
X130985893Y-91148467D01*
X130929483Y-91358991D01*
X130928057Y-91364313D01*
X130908102Y-91592400D01*
X130928057Y-91820487D01*
X130987316Y-92041643D01*
X130989639Y-92046624D01*
X130989639Y-92046625D01*
X131081751Y-92244162D01*
X131081754Y-92244167D01*
X131084077Y-92249149D01*
X131215402Y-92436700D01*
X131377300Y-92598598D01*
X131381808Y-92601755D01*
X131381811Y-92601757D01*
X131459989Y-92656498D01*
X131564851Y-92729923D01*
X131569833Y-92732246D01*
X131569838Y-92732249D01*
X131767375Y-92824361D01*
X131772357Y-92826684D01*
X131777665Y-92828106D01*
X131777667Y-92828107D01*
X131988198Y-92884519D01*
X131988200Y-92884519D01*
X131993513Y-92885943D01*
X132221600Y-92905898D01*
X132449687Y-92885943D01*
X132455000Y-92884519D01*
X132455002Y-92884519D01*
X132665533Y-92828107D01*
X132665535Y-92828106D01*
X132670843Y-92826684D01*
X132675825Y-92824361D01*
X132873362Y-92732249D01*
X132873367Y-92732246D01*
X132878349Y-92729923D01*
X132983211Y-92656498D01*
X133061389Y-92601757D01*
X133061392Y-92601755D01*
X133065900Y-92598598D01*
X133227798Y-92436700D01*
X133359123Y-92249149D01*
X133361446Y-92244167D01*
X133361449Y-92244162D01*
X133453561Y-92046625D01*
X133453561Y-92046624D01*
X133455884Y-92041643D01*
X133515143Y-91820487D01*
X133535098Y-91592400D01*
X133515143Y-91364313D01*
X133513717Y-91358991D01*
X133457307Y-91148467D01*
X133457306Y-91148465D01*
X133455884Y-91143157D01*
X133453561Y-91138175D01*
X133361449Y-90940638D01*
X133361446Y-90940633D01*
X133359123Y-90935651D01*
X133227798Y-90748100D01*
X133065900Y-90586202D01*
X133061392Y-90583045D01*
X133061389Y-90583043D01*
X132908828Y-90476219D01*
X132878349Y-90454877D01*
X132873367Y-90452554D01*
X132873362Y-90452551D01*
X132833782Y-90434095D01*
X132780497Y-90387178D01*
X132761036Y-90318900D01*
X132781578Y-90250940D01*
X132835601Y-90204875D01*
X132887032Y-90193900D01*
X134875006Y-90193900D01*
X134943127Y-90213902D01*
X134964101Y-90230805D01*
X135912448Y-91179152D01*
X135946474Y-91241464D01*
X135945059Y-91300859D01*
X135929482Y-91358991D01*
X135929481Y-91358998D01*
X135928057Y-91364313D01*
X135908102Y-91592400D01*
X135928057Y-91820487D01*
X135987316Y-92041643D01*
X135989639Y-92046624D01*
X135989639Y-92046625D01*
X136081751Y-92244162D01*
X136081754Y-92244167D01*
X136084077Y-92249149D01*
X136215402Y-92436700D01*
X136377300Y-92598598D01*
X136381808Y-92601755D01*
X136381811Y-92601757D01*
X136459989Y-92656498D01*
X136564851Y-92729923D01*
X136569833Y-92732246D01*
X136569838Y-92732249D01*
X136767375Y-92824361D01*
X136772357Y-92826684D01*
X136777665Y-92828106D01*
X136777667Y-92828107D01*
X136988198Y-92884519D01*
X136988200Y-92884519D01*
X136993513Y-92885943D01*
X137221600Y-92905898D01*
X137449687Y-92885943D01*
X137455000Y-92884519D01*
X137455002Y-92884519D01*
X137665533Y-92828107D01*
X137665535Y-92828106D01*
X137670843Y-92826684D01*
X137675825Y-92824361D01*
X137873362Y-92732249D01*
X137873367Y-92732246D01*
X137878349Y-92729923D01*
X137983211Y-92656498D01*
X138061389Y-92601757D01*
X138061392Y-92601755D01*
X138065900Y-92598598D01*
X138227798Y-92436700D01*
X138359123Y-92249149D01*
X138361446Y-92244167D01*
X138361449Y-92244162D01*
X138453561Y-92046625D01*
X138453561Y-92046624D01*
X138455884Y-92041643D01*
X138515143Y-91820487D01*
X138535098Y-91592400D01*
X141840902Y-91592400D01*
X141860857Y-91820487D01*
X141920116Y-92041643D01*
X141922439Y-92046624D01*
X141922439Y-92046625D01*
X142014551Y-92244162D01*
X142014554Y-92244167D01*
X142016877Y-92249149D01*
X142148202Y-92436700D01*
X142310100Y-92598598D01*
X142314608Y-92601755D01*
X142314611Y-92601757D01*
X142392789Y-92656498D01*
X142497651Y-92729923D01*
X142502633Y-92732246D01*
X142502638Y-92732249D01*
X142700175Y-92824361D01*
X142705157Y-92826684D01*
X142710465Y-92828106D01*
X142710467Y-92828107D01*
X142920998Y-92884519D01*
X142921000Y-92884519D01*
X142926313Y-92885943D01*
X143154400Y-92905898D01*
X143382487Y-92885943D01*
X143387800Y-92884519D01*
X143387802Y-92884519D01*
X143598333Y-92828107D01*
X143598335Y-92828106D01*
X143603643Y-92826684D01*
X143608625Y-92824361D01*
X143806162Y-92732249D01*
X143806167Y-92732246D01*
X143811149Y-92729923D01*
X143916011Y-92656498D01*
X143994189Y-92601757D01*
X143994192Y-92601755D01*
X143998700Y-92598598D01*
X144160598Y-92436700D01*
X144291923Y-92249149D01*
X144294246Y-92244167D01*
X144294249Y-92244162D01*
X144386361Y-92046625D01*
X144386361Y-92046624D01*
X144388684Y-92041643D01*
X144447943Y-91820487D01*
X144467898Y-91592400D01*
X144447943Y-91364313D01*
X144446517Y-91358991D01*
X144390107Y-91148467D01*
X144390106Y-91148465D01*
X144388684Y-91143157D01*
X144386361Y-91138175D01*
X144294249Y-90940638D01*
X144294246Y-90940633D01*
X144291923Y-90935651D01*
X144160598Y-90748100D01*
X143998700Y-90586202D01*
X143994192Y-90583045D01*
X143994189Y-90583043D01*
X143841628Y-90476219D01*
X143811149Y-90454877D01*
X143806167Y-90452554D01*
X143806162Y-90452551D01*
X143608625Y-90360439D01*
X143608624Y-90360439D01*
X143603643Y-90358116D01*
X143598335Y-90356694D01*
X143598333Y-90356693D01*
X143387802Y-90300281D01*
X143387800Y-90300281D01*
X143382487Y-90298857D01*
X143154400Y-90278902D01*
X142926313Y-90298857D01*
X142921000Y-90300281D01*
X142920998Y-90300281D01*
X142710467Y-90356693D01*
X142710465Y-90356694D01*
X142705157Y-90358116D01*
X142700176Y-90360439D01*
X142700175Y-90360439D01*
X142502638Y-90452551D01*
X142502633Y-90452554D01*
X142497651Y-90454877D01*
X142467172Y-90476219D01*
X142314611Y-90583043D01*
X142314608Y-90583045D01*
X142310100Y-90586202D01*
X142148202Y-90748100D01*
X142016877Y-90935651D01*
X142014554Y-90940633D01*
X142014551Y-90940638D01*
X141922439Y-91138175D01*
X141920116Y-91143157D01*
X141918694Y-91148465D01*
X141918693Y-91148467D01*
X141862283Y-91358991D01*
X141860857Y-91364313D01*
X141840902Y-91592400D01*
X138535098Y-91592400D01*
X138515143Y-91364313D01*
X138513717Y-91358991D01*
X138457307Y-91148467D01*
X138457306Y-91148465D01*
X138455884Y-91143157D01*
X138453561Y-91138175D01*
X138361449Y-90940638D01*
X138361446Y-90940633D01*
X138359123Y-90935651D01*
X138227798Y-90748100D01*
X138065900Y-90586202D01*
X138061392Y-90583045D01*
X138061389Y-90583043D01*
X137908828Y-90476219D01*
X137878349Y-90454877D01*
X137873367Y-90452554D01*
X137873362Y-90452551D01*
X137675825Y-90360439D01*
X137675824Y-90360439D01*
X137670843Y-90358116D01*
X137665535Y-90356694D01*
X137665533Y-90356693D01*
X137455002Y-90300281D01*
X137455000Y-90300281D01*
X137449687Y-90298857D01*
X137221600Y-90278902D01*
X136993513Y-90298857D01*
X136988202Y-90300280D01*
X136988191Y-90300282D01*
X136930059Y-90315859D01*
X136859083Y-90314170D01*
X136808352Y-90283248D01*
X136267713Y-89742608D01*
X135693252Y-89168147D01*
X135685712Y-89159861D01*
X135681600Y-89153382D01*
X135631948Y-89106756D01*
X135629107Y-89104002D01*
X135609370Y-89084265D01*
X135606173Y-89081785D01*
X135597151Y-89074080D01*
X135570700Y-89049241D01*
X135564921Y-89043814D01*
X135557975Y-89039995D01*
X135557972Y-89039993D01*
X135547166Y-89034052D01*
X135530647Y-89023201D01*
X135530183Y-89022841D01*
X135514641Y-89010786D01*
X135507372Y-89007641D01*
X135507368Y-89007638D01*
X135474063Y-88993226D01*
X135463413Y-88988009D01*
X135424660Y-88966705D01*
X135405037Y-88961667D01*
X135386334Y-88955263D01*
X135375020Y-88950367D01*
X135375019Y-88950367D01*
X135367745Y-88947219D01*
X135359922Y-88945980D01*
X135359912Y-88945977D01*
X135324076Y-88940301D01*
X135312456Y-88937895D01*
X135277311Y-88928872D01*
X135277310Y-88928872D01*
X135269630Y-88926900D01*
X135249376Y-88926900D01*
X135229665Y-88925349D01*
X135217486Y-88923420D01*
X135209657Y-88922180D01*
X135201765Y-88922926D01*
X135165639Y-88926341D01*
X135153781Y-88926900D01*
X128992263Y-88926900D01*
X128924142Y-88906898D01*
X128911948Y-88897985D01*
X128904607Y-88891912D01*
X128895827Y-88883922D01*
X126857605Y-86845700D01*
X126823579Y-86783388D01*
X126820700Y-86756605D01*
X126820700Y-86348015D01*
X126840702Y-86279894D01*
X126898480Y-86231607D01*
X126915125Y-86224712D01*
X126915127Y-86224711D01*
X126919702Y-86222816D01*
X127135576Y-86090528D01*
X127328098Y-85926098D01*
X127404593Y-85836534D01*
X132244700Y-85836534D01*
X132251455Y-85898716D01*
X132302585Y-86035105D01*
X132389939Y-86151661D01*
X132506495Y-86239015D01*
X132642884Y-86290145D01*
X132705066Y-86296900D01*
X134401334Y-86296900D01*
X134463516Y-86290145D01*
X134599905Y-86239015D01*
X134678004Y-86180483D01*
X134709278Y-86157045D01*
X134709281Y-86157042D01*
X134716461Y-86151661D01*
X134721842Y-86144481D01*
X134728193Y-86138130D01*
X134730335Y-86140272D01*
X134775046Y-86106836D01*
X134845864Y-86101806D01*
X134887235Y-86119923D01*
X134887432Y-86119582D01*
X134890498Y-86121352D01*
X134891290Y-86121699D01*
X134892189Y-86122329D01*
X134901689Y-86127814D01*
X135099147Y-86219890D01*
X135109439Y-86223636D01*
X135319888Y-86280025D01*
X135330681Y-86281928D01*
X135547725Y-86300917D01*
X135558675Y-86300917D01*
X135775719Y-86281928D01*
X135786512Y-86280025D01*
X135996961Y-86223636D01*
X136007253Y-86219890D01*
X136204711Y-86127814D01*
X136214206Y-86122331D01*
X136266248Y-86085891D01*
X136274624Y-86075412D01*
X136267556Y-86061966D01*
X135283085Y-85077495D01*
X135249059Y-85015183D01*
X135250894Y-84989532D01*
X135917608Y-84989532D01*
X135917739Y-84991365D01*
X135921990Y-84997980D01*
X136627487Y-85703477D01*
X136639262Y-85709907D01*
X136651277Y-85700611D01*
X136687131Y-85649406D01*
X136692614Y-85639911D01*
X136784690Y-85442453D01*
X136788436Y-85432161D01*
X136844825Y-85221712D01*
X136846728Y-85210919D01*
X136865717Y-84993875D01*
X136865717Y-84982925D01*
X136846728Y-84765881D01*
X136844825Y-84755088D01*
X136788436Y-84544639D01*
X136784690Y-84534347D01*
X136692614Y-84336889D01*
X136687131Y-84327394D01*
X136650691Y-84275352D01*
X136640212Y-84266976D01*
X136626766Y-84274044D01*
X135925222Y-84975588D01*
X135917608Y-84989532D01*
X135250894Y-84989532D01*
X135254124Y-84944368D01*
X135283085Y-84899305D01*
X136268277Y-83914113D01*
X136274707Y-83902338D01*
X136265411Y-83890323D01*
X136214206Y-83854469D01*
X136204711Y-83848986D01*
X136007253Y-83756910D01*
X135996961Y-83753164D01*
X135786512Y-83696775D01*
X135775719Y-83694872D01*
X135558675Y-83675883D01*
X135547725Y-83675883D01*
X135330681Y-83694872D01*
X135319888Y-83696775D01*
X135109439Y-83753164D01*
X135099147Y-83756910D01*
X134901689Y-83848986D01*
X134892189Y-83854471D01*
X134891290Y-83855101D01*
X134890830Y-83855256D01*
X134887432Y-83857218D01*
X134887038Y-83856535D01*
X134824016Y-83877788D01*
X134755156Y-83860502D01*
X134729397Y-83837466D01*
X134728193Y-83838670D01*
X134721842Y-83832319D01*
X134716461Y-83825139D01*
X134709281Y-83819758D01*
X134709278Y-83819755D01*
X134620425Y-83753164D01*
X134599905Y-83737785D01*
X134463516Y-83686655D01*
X134401334Y-83679900D01*
X132705066Y-83679900D01*
X132642884Y-83686655D01*
X132506495Y-83737785D01*
X132389939Y-83825139D01*
X132302585Y-83941695D01*
X132251455Y-84078084D01*
X132244700Y-84140266D01*
X132244700Y-85836534D01*
X127404593Y-85836534D01*
X127492528Y-85733576D01*
X127624816Y-85517702D01*
X127638030Y-85485802D01*
X127719811Y-85288364D01*
X127719812Y-85288362D01*
X127721705Y-85283791D01*
X127760563Y-85121934D01*
X127779654Y-85042416D01*
X127779655Y-85042410D01*
X127780809Y-85037603D01*
X127800674Y-84785200D01*
X127780809Y-84532797D01*
X127776529Y-84514967D01*
X127733776Y-84336889D01*
X127721705Y-84286609D01*
X127717042Y-84275352D01*
X127626711Y-84057272D01*
X127626709Y-84057268D01*
X127624816Y-84052698D01*
X127622231Y-84048479D01*
X127622225Y-84048468D01*
X127548025Y-83927386D01*
X127529486Y-83858853D01*
X127550942Y-83791176D01*
X127579892Y-83760725D01*
X127642924Y-83713485D01*
X127655485Y-83700924D01*
X127731986Y-83598849D01*
X127740524Y-83583254D01*
X127785678Y-83462806D01*
X127789305Y-83447551D01*
X127794831Y-83396686D01*
X127795200Y-83389872D01*
X127795200Y-82517315D01*
X127790725Y-82502076D01*
X127789335Y-82500871D01*
X127781652Y-82499200D01*
X126059200Y-82499200D01*
X125991079Y-82479198D01*
X125944586Y-82425542D01*
X125933200Y-82373200D01*
X125933200Y-81973085D01*
X126441200Y-81973085D01*
X126445675Y-81988324D01*
X126447065Y-81989529D01*
X126454748Y-81991200D01*
X127777084Y-81991200D01*
X127792323Y-81986725D01*
X127793528Y-81985335D01*
X127795199Y-81977652D01*
X127795199Y-81100531D01*
X127794829Y-81093710D01*
X127789305Y-81042848D01*
X127785679Y-81027596D01*
X127740524Y-80907146D01*
X127731986Y-80891551D01*
X127655485Y-80789476D01*
X127642924Y-80776915D01*
X127540849Y-80700414D01*
X127525254Y-80691876D01*
X127404806Y-80646722D01*
X127389551Y-80643095D01*
X127338686Y-80637569D01*
X127331872Y-80637200D01*
X126459315Y-80637200D01*
X126444076Y-80641675D01*
X126442871Y-80643065D01*
X126441200Y-80650748D01*
X126441200Y-81973085D01*
X125933200Y-81973085D01*
X125933200Y-80655316D01*
X125928725Y-80640077D01*
X125927335Y-80638872D01*
X125919652Y-80637201D01*
X125042531Y-80637201D01*
X125035710Y-80637571D01*
X124984848Y-80643095D01*
X124969596Y-80646721D01*
X124849146Y-80691876D01*
X124833551Y-80700414D01*
X124731476Y-80776915D01*
X124718915Y-80789476D01*
X124642414Y-80891551D01*
X124633876Y-80907146D01*
X124588722Y-81027594D01*
X124585095Y-81042849D01*
X124579569Y-81093714D01*
X124579200Y-81100528D01*
X124579200Y-81375200D01*
X124559198Y-81443321D01*
X124505542Y-81489814D01*
X124435268Y-81499918D01*
X124372209Y-81471721D01*
X124252835Y-81371554D01*
X124252829Y-81371550D01*
X124248111Y-81367591D01*
X124242719Y-81364627D01*
X124242715Y-81364624D01*
X124071602Y-81270554D01*
X124066205Y-81267587D01*
X123868339Y-81204821D01*
X123862222Y-81204135D01*
X123862218Y-81204134D01*
X123785602Y-81195541D01*
X123706787Y-81186700D01*
X123594963Y-81186700D01*
X123591907Y-81187000D01*
X123591900Y-81187000D01*
X123446734Y-81201234D01*
X123446731Y-81201235D01*
X123440608Y-81201835D01*
X123308654Y-81241674D01*
X123247793Y-81260048D01*
X123247790Y-81260049D01*
X123241885Y-81261832D01*
X123236440Y-81264727D01*
X123236438Y-81264728D01*
X123064047Y-81356391D01*
X123064045Y-81356392D01*
X123058601Y-81359287D01*
X123039090Y-81375200D01*
X122902511Y-81486590D01*
X122902508Y-81486593D01*
X122897736Y-81490485D01*
X122765417Y-81650430D01*
X122762488Y-81655847D01*
X122762486Y-81655850D01*
X122669616Y-81827610D01*
X122669614Y-81827615D01*
X122666686Y-81833030D01*
X122605302Y-82031329D01*
X122604658Y-82037454D01*
X122604658Y-82037455D01*
X122592810Y-82150188D01*
X122583604Y-82237775D01*
X122585914Y-82263157D01*
X122593225Y-82343485D01*
X122602418Y-82444503D01*
X122604156Y-82450409D01*
X122604157Y-82450413D01*
X122647673Y-82598268D01*
X122661027Y-82643640D01*
X122757199Y-82827600D01*
X122887271Y-82989377D01*
X122891988Y-82993335D01*
X122891990Y-82993337D01*
X122945924Y-83038593D01*
X123046289Y-83122809D01*
X123051681Y-83125773D01*
X123051685Y-83125776D01*
X123171597Y-83191698D01*
X123228195Y-83222813D01*
X123426061Y-83285579D01*
X123432178Y-83286265D01*
X123432182Y-83286266D01*
X123508798Y-83294859D01*
X123587613Y-83303700D01*
X123699437Y-83303700D01*
X123702493Y-83303400D01*
X123702500Y-83303400D01*
X123847666Y-83289166D01*
X123847669Y-83289165D01*
X123853792Y-83288565D01*
X123985746Y-83248726D01*
X124046607Y-83230352D01*
X124046610Y-83230351D01*
X124052515Y-83228568D01*
X124059835Y-83224676D01*
X124230353Y-83134009D01*
X124230355Y-83134008D01*
X124235799Y-83131113D01*
X124373565Y-83018754D01*
X124438997Y-82991200D01*
X124508938Y-83003396D01*
X124561184Y-83051468D01*
X124579201Y-83116397D01*
X124579201Y-83389869D01*
X124579571Y-83396690D01*
X124585095Y-83447552D01*
X124588721Y-83462804D01*
X124633876Y-83583254D01*
X124642414Y-83598849D01*
X124718915Y-83700924D01*
X124731476Y-83713485D01*
X124794508Y-83760725D01*
X124837023Y-83817584D01*
X124842049Y-83888403D01*
X124826375Y-83927386D01*
X124752175Y-84048468D01*
X124752169Y-84048479D01*
X124749584Y-84052698D01*
X124747691Y-84057268D01*
X124747687Y-84057276D01*
X124717708Y-84129654D01*
X124673160Y-84184936D01*
X124605797Y-84207357D01*
X124537006Y-84189799D01*
X124503103Y-84160389D01*
X124410994Y-84045829D01*
X124410988Y-84045823D01*
X124407129Y-84041023D01*
X124394571Y-84030485D01*
X124271702Y-83927386D01*
X124248111Y-83907591D01*
X124242719Y-83904627D01*
X124242715Y-83904624D01*
X124071602Y-83810554D01*
X124066205Y-83807587D01*
X123868339Y-83744821D01*
X123862222Y-83744135D01*
X123862218Y-83744134D01*
X123777511Y-83734633D01*
X123706787Y-83726700D01*
X123594963Y-83726700D01*
X123591907Y-83727000D01*
X123591900Y-83727000D01*
X123446734Y-83741234D01*
X123446731Y-83741235D01*
X123440608Y-83741835D01*
X123308654Y-83781674D01*
X123247793Y-83800048D01*
X123247790Y-83800049D01*
X123241885Y-83801832D01*
X123236440Y-83804727D01*
X123236438Y-83804728D01*
X123064047Y-83896391D01*
X123064045Y-83896392D01*
X123058601Y-83899287D01*
X123006604Y-83941695D01*
X122902511Y-84026590D01*
X122902508Y-84026593D01*
X122897736Y-84030485D01*
X122893808Y-84035233D01*
X122893807Y-84035234D01*
X122835678Y-84105500D01*
X122765417Y-84190430D01*
X122762488Y-84195847D01*
X122762486Y-84195850D01*
X122669616Y-84367610D01*
X122669614Y-84367615D01*
X122666686Y-84373030D01*
X122605302Y-84571329D01*
X122604658Y-84577454D01*
X122604658Y-84577455D01*
X122602222Y-84600638D01*
X122583604Y-84777775D01*
X121717300Y-84777775D01*
X121717300Y-76301600D01*
X124700007Y-76301600D01*
X124718742Y-76515742D01*
X124720166Y-76521055D01*
X124720166Y-76521057D01*
X124763095Y-76681267D01*
X124774378Y-76723377D01*
X124776700Y-76728357D01*
X124776701Y-76728359D01*
X124855393Y-76897113D01*
X124865224Y-76918196D01*
X124988519Y-77094281D01*
X125140519Y-77246281D01*
X125316603Y-77369576D01*
X125321581Y-77371897D01*
X125321584Y-77371899D01*
X125506441Y-77458099D01*
X125511423Y-77460422D01*
X125516731Y-77461844D01*
X125516733Y-77461845D01*
X125713743Y-77514634D01*
X125713745Y-77514634D01*
X125719058Y-77516058D01*
X125933200Y-77534793D01*
X126147342Y-77516058D01*
X126152655Y-77514634D01*
X126152657Y-77514634D01*
X126349667Y-77461845D01*
X126349669Y-77461844D01*
X126354977Y-77460422D01*
X126359959Y-77458099D01*
X126544816Y-77371899D01*
X126544819Y-77371897D01*
X126549797Y-77369576D01*
X126725881Y-77246281D01*
X126877881Y-77094281D01*
X127001176Y-76918196D01*
X127011008Y-76897113D01*
X127089699Y-76728359D01*
X127089700Y-76728357D01*
X127092022Y-76723377D01*
X127103306Y-76681267D01*
X127146234Y-76521057D01*
X127146234Y-76521055D01*
X127147658Y-76515742D01*
X127166393Y-76301600D01*
X127147658Y-76087458D01*
X127132834Y-76032134D01*
X132102388Y-76032134D01*
X132109143Y-76094316D01*
X132160273Y-76230705D01*
X132247627Y-76347261D01*
X132364183Y-76434615D01*
X132500572Y-76485745D01*
X132562754Y-76492500D01*
X132651388Y-76492500D01*
X132719509Y-76512502D01*
X132766002Y-76566158D01*
X132777388Y-76618500D01*
X132777388Y-78061721D01*
X132776861Y-78072904D01*
X132775186Y-78080397D01*
X132775435Y-78088323D01*
X132775435Y-78088324D01*
X132777326Y-78148474D01*
X132777388Y-78152433D01*
X132777388Y-78180344D01*
X132777885Y-78184278D01*
X132777885Y-78184279D01*
X132777893Y-78184344D01*
X132778826Y-78196181D01*
X132780215Y-78240377D01*
X132785790Y-78259566D01*
X132785866Y-78259827D01*
X132789875Y-78279188D01*
X132792414Y-78299285D01*
X132795333Y-78306656D01*
X132795333Y-78306658D01*
X132808692Y-78340400D01*
X132812537Y-78351630D01*
X132824870Y-78394081D01*
X132828903Y-78400900D01*
X132828905Y-78400905D01*
X132835181Y-78411516D01*
X132843876Y-78429264D01*
X132851336Y-78448105D01*
X132855998Y-78454521D01*
X132855998Y-78454522D01*
X132877324Y-78483875D01*
X132883840Y-78493795D01*
X132906346Y-78531850D01*
X132920667Y-78546171D01*
X132933507Y-78561204D01*
X132945416Y-78577595D01*
X132951522Y-78582646D01*
X132979493Y-78605786D01*
X132988272Y-78613776D01*
X139213648Y-84839152D01*
X139247674Y-84901464D01*
X139246259Y-84960859D01*
X139230682Y-85018991D01*
X139230681Y-85018998D01*
X139229257Y-85024313D01*
X139209302Y-85252400D01*
X139229257Y-85480487D01*
X139230681Y-85485800D01*
X139230681Y-85485802D01*
X139277050Y-85658850D01*
X139288516Y-85701643D01*
X139290839Y-85706624D01*
X139290839Y-85706625D01*
X139382951Y-85904162D01*
X139382954Y-85904167D01*
X139385277Y-85909149D01*
X139428802Y-85971309D01*
X139473473Y-86035105D01*
X139516602Y-86096700D01*
X139678500Y-86258598D01*
X139683008Y-86261755D01*
X139683011Y-86261757D01*
X139761189Y-86316498D01*
X139866051Y-86389923D01*
X139871033Y-86392246D01*
X139871038Y-86392249D01*
X140068575Y-86484361D01*
X140073557Y-86486684D01*
X140078865Y-86488106D01*
X140078867Y-86488107D01*
X140289398Y-86544519D01*
X140289400Y-86544519D01*
X140294713Y-86545943D01*
X140522800Y-86565898D01*
X140750887Y-86545943D01*
X140756200Y-86544519D01*
X140756202Y-86544519D01*
X140966733Y-86488107D01*
X140966735Y-86488106D01*
X140972043Y-86486684D01*
X140977025Y-86484361D01*
X141174562Y-86392249D01*
X141174567Y-86392246D01*
X141179549Y-86389923D01*
X141284411Y-86316498D01*
X141362589Y-86261757D01*
X141362592Y-86261755D01*
X141367100Y-86258598D01*
X141528998Y-86096700D01*
X141572128Y-86035105D01*
X141616798Y-85971309D01*
X141660323Y-85909149D01*
X141662646Y-85904167D01*
X141662649Y-85904162D01*
X141754761Y-85706625D01*
X141754761Y-85706624D01*
X141757084Y-85701643D01*
X141768551Y-85658850D01*
X141814919Y-85485802D01*
X141814919Y-85485800D01*
X141816343Y-85480487D01*
X141836298Y-85252400D01*
X146829302Y-85252400D01*
X146849257Y-85480487D01*
X146850681Y-85485800D01*
X146850681Y-85485802D01*
X146897050Y-85658850D01*
X146908516Y-85701643D01*
X146910839Y-85706624D01*
X146910839Y-85706625D01*
X147002951Y-85904162D01*
X147002954Y-85904167D01*
X147005277Y-85909149D01*
X147048802Y-85971309D01*
X147093473Y-86035105D01*
X147136602Y-86096700D01*
X147298500Y-86258598D01*
X147303008Y-86261755D01*
X147303011Y-86261757D01*
X147381189Y-86316498D01*
X147486051Y-86389923D01*
X147491033Y-86392246D01*
X147491038Y-86392249D01*
X147688575Y-86484361D01*
X147693557Y-86486684D01*
X147698865Y-86488106D01*
X147698867Y-86488107D01*
X147909398Y-86544519D01*
X147909400Y-86544519D01*
X147914713Y-86545943D01*
X148142800Y-86565898D01*
X148370887Y-86545943D01*
X148376200Y-86544519D01*
X148376202Y-86544519D01*
X148586733Y-86488107D01*
X148586735Y-86488106D01*
X148592043Y-86486684D01*
X148597025Y-86484361D01*
X148794562Y-86392249D01*
X148794567Y-86392246D01*
X148799549Y-86389923D01*
X148904411Y-86316498D01*
X148982589Y-86261757D01*
X148982592Y-86261755D01*
X148987100Y-86258598D01*
X149148998Y-86096700D01*
X149192128Y-86035105D01*
X149236798Y-85971309D01*
X149280323Y-85909149D01*
X149282646Y-85904167D01*
X149282649Y-85904162D01*
X149374761Y-85706625D01*
X149374761Y-85706624D01*
X149377084Y-85701643D01*
X149388551Y-85658850D01*
X149434919Y-85485802D01*
X149434919Y-85485800D01*
X149436343Y-85480487D01*
X149456298Y-85252400D01*
X149455819Y-85246925D01*
X149455819Y-85246914D01*
X149454774Y-85234970D01*
X149468762Y-85165365D01*
X149518161Y-85114373D01*
X149587287Y-85098182D01*
X149654193Y-85121934D01*
X149669388Y-85134893D01*
X152643995Y-88109500D01*
X152678021Y-88171812D01*
X152680900Y-88198595D01*
X152680900Y-90373006D01*
X152660898Y-90441127D01*
X152627171Y-90476219D01*
X152474611Y-90583043D01*
X152474608Y-90583045D01*
X152470100Y-90586202D01*
X152308202Y-90748100D01*
X152176877Y-90935651D01*
X152174554Y-90940633D01*
X152174551Y-90940638D01*
X152082439Y-91138175D01*
X152080116Y-91143157D01*
X152078694Y-91148465D01*
X152078693Y-91148467D01*
X152022283Y-91358991D01*
X152020857Y-91364313D01*
X152000902Y-91592400D01*
X152020857Y-91820487D01*
X152080116Y-92041643D01*
X152082439Y-92046624D01*
X152082439Y-92046625D01*
X152174551Y-92244162D01*
X152174554Y-92244167D01*
X152176877Y-92249149D01*
X152308202Y-92436700D01*
X152470100Y-92598598D01*
X152474608Y-92601755D01*
X152474611Y-92601757D01*
X152552789Y-92656498D01*
X152657651Y-92729923D01*
X152662633Y-92732246D01*
X152662638Y-92732249D01*
X152860175Y-92824361D01*
X152865157Y-92826684D01*
X152870465Y-92828106D01*
X152870467Y-92828107D01*
X153080998Y-92884519D01*
X153081000Y-92884519D01*
X153086313Y-92885943D01*
X153314400Y-92905898D01*
X153542487Y-92885943D01*
X153547800Y-92884519D01*
X153547802Y-92884519D01*
X153758333Y-92828107D01*
X153758335Y-92828106D01*
X153763643Y-92826684D01*
X153768625Y-92824361D01*
X153966162Y-92732249D01*
X153966167Y-92732246D01*
X153971149Y-92729923D01*
X154076011Y-92656498D01*
X154154189Y-92601757D01*
X154154192Y-92601755D01*
X154158700Y-92598598D01*
X154320598Y-92436700D01*
X154451923Y-92249149D01*
X154454246Y-92244167D01*
X154454249Y-92244162D01*
X154546361Y-92046625D01*
X154546361Y-92046624D01*
X154548684Y-92041643D01*
X154607943Y-91820487D01*
X154627898Y-91592400D01*
X154607943Y-91364313D01*
X154606517Y-91358991D01*
X154550107Y-91148467D01*
X154550106Y-91148465D01*
X154548684Y-91143157D01*
X154546361Y-91138175D01*
X154454249Y-90940638D01*
X154454246Y-90940633D01*
X154451923Y-90935651D01*
X154320598Y-90748100D01*
X154158700Y-90586202D01*
X154154192Y-90583045D01*
X154154189Y-90583043D01*
X154001629Y-90476219D01*
X153957301Y-90420762D01*
X153947900Y-90373006D01*
X153947900Y-87962767D01*
X153948427Y-87951584D01*
X153950102Y-87944091D01*
X153947962Y-87876000D01*
X153947900Y-87872043D01*
X153947900Y-87844144D01*
X153947396Y-87840153D01*
X153946463Y-87828311D01*
X153946461Y-87828220D01*
X153945074Y-87784111D01*
X153942862Y-87776497D01*
X153942861Y-87776492D01*
X153939423Y-87764659D01*
X153935412Y-87745295D01*
X153933867Y-87733064D01*
X153932874Y-87725203D01*
X153929957Y-87717836D01*
X153929956Y-87717831D01*
X153916598Y-87684092D01*
X153912754Y-87672865D01*
X153902630Y-87638022D01*
X153900418Y-87630407D01*
X153890107Y-87612972D01*
X153881412Y-87595224D01*
X153873952Y-87576383D01*
X153847964Y-87540613D01*
X153841448Y-87530693D01*
X153822980Y-87499465D01*
X153822978Y-87499462D01*
X153818942Y-87492638D01*
X153804621Y-87478317D01*
X153791780Y-87463283D01*
X153784531Y-87453306D01*
X153779872Y-87446893D01*
X153745795Y-87418702D01*
X153737016Y-87410712D01*
X151116434Y-84790130D01*
X159982216Y-84790130D01*
X160001298Y-85032590D01*
X160002841Y-85042337D01*
X160059617Y-85278824D01*
X160062666Y-85288209D01*
X160155736Y-85512900D01*
X160160217Y-85521694D01*
X160234115Y-85642285D01*
X160252653Y-85710819D01*
X160231196Y-85778496D01*
X160202247Y-85808946D01*
X160156275Y-85843400D01*
X160131539Y-85861939D01*
X160044185Y-85978495D01*
X159993055Y-86114884D01*
X159986300Y-86177066D01*
X159986300Y-88473334D01*
X159993055Y-88535516D01*
X160044185Y-88671905D01*
X160131539Y-88788461D01*
X160248095Y-88875815D01*
X160384484Y-88926945D01*
X160446666Y-88933700D01*
X162742934Y-88933700D01*
X162805116Y-88926945D01*
X162941505Y-88875815D01*
X163058061Y-88788461D01*
X163145415Y-88671905D01*
X163196545Y-88535516D01*
X163203300Y-88473334D01*
X163203300Y-88195620D01*
X163223302Y-88127499D01*
X163276958Y-88081006D01*
X163347232Y-88070902D01*
X163410291Y-88099098D01*
X163533889Y-88202809D01*
X163539281Y-88205773D01*
X163539285Y-88205776D01*
X163710398Y-88299846D01*
X163715795Y-88302813D01*
X163913661Y-88365579D01*
X163919778Y-88366265D01*
X163919782Y-88366266D01*
X163996398Y-88374859D01*
X164075213Y-88383700D01*
X164187037Y-88383700D01*
X164190093Y-88383400D01*
X164190100Y-88383400D01*
X164335266Y-88369166D01*
X164335269Y-88369165D01*
X164341392Y-88368565D01*
X164473346Y-88328726D01*
X164534207Y-88310352D01*
X164534210Y-88310351D01*
X164540115Y-88308568D01*
X164547435Y-88304676D01*
X164717953Y-88214009D01*
X164717955Y-88214008D01*
X164723399Y-88211113D01*
X164825920Y-88127499D01*
X164879489Y-88083810D01*
X164879492Y-88083807D01*
X164884264Y-88079915D01*
X164891721Y-88070902D01*
X165012655Y-87924718D01*
X165016583Y-87919970D01*
X165019514Y-87914550D01*
X165112384Y-87742790D01*
X165112386Y-87742785D01*
X165115314Y-87737370D01*
X165176698Y-87539071D01*
X165179401Y-87513358D01*
X165197752Y-87338754D01*
X165197752Y-87338752D01*
X165198396Y-87332625D01*
X165179582Y-87125897D01*
X165176392Y-87115056D01*
X165122712Y-86932669D01*
X165120973Y-86926760D01*
X165024801Y-86742800D01*
X164894729Y-86581023D01*
X164882171Y-86570485D01*
X164740429Y-86451550D01*
X164735711Y-86447591D01*
X164730319Y-86444627D01*
X164730315Y-86444624D01*
X164559202Y-86350554D01*
X164553805Y-86347587D01*
X164355939Y-86284821D01*
X164349822Y-86284135D01*
X164349818Y-86284134D01*
X164273202Y-86275541D01*
X164194387Y-86266700D01*
X164082563Y-86266700D01*
X164079507Y-86267000D01*
X164079500Y-86267000D01*
X163934334Y-86281234D01*
X163934331Y-86281235D01*
X163928208Y-86281835D01*
X163796254Y-86321674D01*
X163735393Y-86340048D01*
X163735390Y-86340049D01*
X163729485Y-86341832D01*
X163724040Y-86344727D01*
X163724038Y-86344728D01*
X163551647Y-86436391D01*
X163551645Y-86436392D01*
X163546201Y-86439287D01*
X163541420Y-86443187D01*
X163541416Y-86443189D01*
X163408935Y-86551237D01*
X163343504Y-86578791D01*
X163273562Y-86566595D01*
X163221317Y-86518523D01*
X163203300Y-86453594D01*
X163203300Y-86177066D01*
X163196545Y-86114884D01*
X163145415Y-85978495D01*
X163058061Y-85861939D01*
X163033325Y-85843400D01*
X162987353Y-85808946D01*
X162944838Y-85752087D01*
X162939812Y-85681268D01*
X162955485Y-85642285D01*
X163029383Y-85521694D01*
X163033864Y-85512900D01*
X163063935Y-85440301D01*
X163108483Y-85385020D01*
X163175847Y-85362599D01*
X163244638Y-85380157D01*
X163278540Y-85409567D01*
X163371006Y-85524571D01*
X163371011Y-85524576D01*
X163374871Y-85529377D01*
X163379588Y-85533335D01*
X163379590Y-85533337D01*
X163483481Y-85620512D01*
X163533889Y-85662809D01*
X163539281Y-85665773D01*
X163539285Y-85665776D01*
X163710398Y-85759846D01*
X163715795Y-85762813D01*
X163913661Y-85825579D01*
X163919778Y-85826265D01*
X163919782Y-85826266D01*
X163996398Y-85834859D01*
X164075213Y-85843700D01*
X164187037Y-85843700D01*
X164190093Y-85843400D01*
X164190100Y-85843400D01*
X164335266Y-85829166D01*
X164335269Y-85829165D01*
X164341392Y-85828565D01*
X164473346Y-85788726D01*
X164534207Y-85770352D01*
X164534210Y-85770351D01*
X164540115Y-85768568D01*
X164547435Y-85764676D01*
X164717953Y-85674009D01*
X164717955Y-85674008D01*
X164723399Y-85671113D01*
X164783271Y-85622283D01*
X164879489Y-85543810D01*
X164879492Y-85543807D01*
X164884264Y-85539915D01*
X164902641Y-85517702D01*
X165012655Y-85384718D01*
X165016583Y-85379970D01*
X165020676Y-85372401D01*
X165112384Y-85202790D01*
X165112386Y-85202785D01*
X165115314Y-85197370D01*
X165176698Y-84999071D01*
X165178395Y-84982925D01*
X165197752Y-84798754D01*
X165197752Y-84798752D01*
X165198396Y-84792625D01*
X165179582Y-84585897D01*
X165177098Y-84577455D01*
X165122712Y-84392669D01*
X165120973Y-84386760D01*
X165024801Y-84202800D01*
X164894729Y-84041023D01*
X164882171Y-84030485D01*
X164759302Y-83927386D01*
X164735711Y-83907591D01*
X164730319Y-83904627D01*
X164730315Y-83904624D01*
X164559202Y-83810554D01*
X164553805Y-83807587D01*
X164355939Y-83744821D01*
X164349822Y-83744135D01*
X164349818Y-83744134D01*
X164265111Y-83734633D01*
X164194387Y-83726700D01*
X164082563Y-83726700D01*
X164079507Y-83727000D01*
X164079500Y-83727000D01*
X163934334Y-83741234D01*
X163934331Y-83741235D01*
X163928208Y-83741835D01*
X163796254Y-83781674D01*
X163735393Y-83800048D01*
X163735390Y-83800049D01*
X163729485Y-83801832D01*
X163724040Y-83804727D01*
X163724038Y-83804728D01*
X163551647Y-83896391D01*
X163551645Y-83896392D01*
X163546201Y-83899287D01*
X163494204Y-83941695D01*
X163390111Y-84026590D01*
X163390108Y-84026593D01*
X163385336Y-84030485D01*
X163381408Y-84035233D01*
X163381407Y-84035234D01*
X163277076Y-84161348D01*
X163218243Y-84201086D01*
X163147265Y-84202707D01*
X163086677Y-84165698D01*
X163063583Y-84129250D01*
X163033864Y-84057500D01*
X163029383Y-84048706D01*
X162910087Y-83854033D01*
X162899630Y-83844573D01*
X162890854Y-83848356D01*
X161683895Y-85055315D01*
X161621583Y-85089341D01*
X161550768Y-85084276D01*
X161505705Y-85055315D01*
X160301790Y-83851400D01*
X160289410Y-83844640D01*
X160281760Y-83850367D01*
X160160217Y-84048706D01*
X160155736Y-84057500D01*
X160062666Y-84282191D01*
X160059617Y-84291576D01*
X160002841Y-84528063D01*
X160001298Y-84537810D01*
X159982216Y-84780270D01*
X159982216Y-84790130D01*
X151116434Y-84790130D01*
X150435638Y-84109334D01*
X151406388Y-84109334D01*
X151413143Y-84171516D01*
X151464273Y-84307905D01*
X151551627Y-84424461D01*
X151668183Y-84511815D01*
X151804572Y-84562945D01*
X151866754Y-84569700D01*
X153563022Y-84569700D01*
X153625204Y-84562945D01*
X153761593Y-84511815D01*
X153878149Y-84424461D01*
X153883530Y-84417281D01*
X153889880Y-84410931D01*
X153892120Y-84413171D01*
X153936453Y-84380029D01*
X154007272Y-84375010D01*
X154048678Y-84393149D01*
X154048869Y-84392817D01*
X154051852Y-84394539D01*
X154052685Y-84394904D01*
X154058139Y-84398723D01*
X154063121Y-84401046D01*
X154063126Y-84401049D01*
X154260663Y-84493161D01*
X154265645Y-84495484D01*
X154270953Y-84496906D01*
X154270955Y-84496907D01*
X154481486Y-84553319D01*
X154481488Y-84553319D01*
X154486801Y-84554743D01*
X154714888Y-84574698D01*
X154942975Y-84554743D01*
X154948288Y-84553319D01*
X154948290Y-84553319D01*
X155158821Y-84496907D01*
X155158823Y-84496906D01*
X155164131Y-84495484D01*
X155169113Y-84493161D01*
X155366650Y-84401049D01*
X155366655Y-84401046D01*
X155371637Y-84398723D01*
X155513346Y-84299497D01*
X155554677Y-84270557D01*
X155554680Y-84270555D01*
X155559188Y-84267398D01*
X155721086Y-84105500D01*
X155727322Y-84096595D01*
X155792379Y-84003683D01*
X155852411Y-83917949D01*
X155854734Y-83912967D01*
X155854737Y-83912962D01*
X155946849Y-83715425D01*
X155946849Y-83715424D01*
X155949172Y-83710443D01*
X155952835Y-83696775D01*
X156007007Y-83494602D01*
X156007007Y-83494600D01*
X156008431Y-83489287D01*
X156009211Y-83480370D01*
X160654173Y-83480370D01*
X160657956Y-83489146D01*
X161581988Y-84413178D01*
X161595932Y-84420792D01*
X161597765Y-84420661D01*
X161604380Y-84416410D01*
X162528600Y-83492190D01*
X162535360Y-83479810D01*
X162529633Y-83472160D01*
X162331294Y-83350617D01*
X162322500Y-83346136D01*
X162097809Y-83253066D01*
X162088424Y-83250017D01*
X161851937Y-83193241D01*
X161842190Y-83191698D01*
X161599730Y-83172616D01*
X161589870Y-83172616D01*
X161347410Y-83191698D01*
X161337663Y-83193241D01*
X161101176Y-83250017D01*
X161091791Y-83253066D01*
X160867100Y-83346136D01*
X160858306Y-83350617D01*
X160663633Y-83469913D01*
X160654173Y-83480370D01*
X156009211Y-83480370D01*
X156028386Y-83261200D01*
X156008431Y-83033113D01*
X156007007Y-83027798D01*
X155950595Y-82817267D01*
X155950594Y-82817265D01*
X155949172Y-82811957D01*
X155883008Y-82670066D01*
X155854737Y-82609438D01*
X155854734Y-82609433D01*
X155852411Y-82604451D01*
X155740414Y-82444503D01*
X155724245Y-82421411D01*
X155724243Y-82421408D01*
X155721086Y-82416900D01*
X155559188Y-82255002D01*
X155554680Y-82251845D01*
X155554677Y-82251843D01*
X155476499Y-82197102D01*
X155371637Y-82123677D01*
X155366655Y-82121354D01*
X155366650Y-82121351D01*
X155169113Y-82029239D01*
X155169112Y-82029239D01*
X155164131Y-82026916D01*
X155158823Y-82025494D01*
X155158821Y-82025493D01*
X154948290Y-81969081D01*
X154948288Y-81969081D01*
X154942975Y-81967657D01*
X154714888Y-81947702D01*
X154486801Y-81967657D01*
X154481488Y-81969081D01*
X154481486Y-81969081D01*
X154270955Y-82025493D01*
X154270953Y-82025494D01*
X154265645Y-82026916D01*
X154260664Y-82029239D01*
X154260663Y-82029239D01*
X154063126Y-82121351D01*
X154063121Y-82121354D01*
X154058139Y-82123677D01*
X154052686Y-82127495D01*
X154052202Y-82127659D01*
X154048869Y-82129583D01*
X154048482Y-82128913D01*
X153985414Y-82150188D01*
X153916553Y-82132907D01*
X153891151Y-82110198D01*
X153889880Y-82111469D01*
X153883530Y-82105119D01*
X153878149Y-82097939D01*
X153761593Y-82010585D01*
X153625204Y-81959455D01*
X153563022Y-81952700D01*
X151866754Y-81952700D01*
X151804572Y-81959455D01*
X151668183Y-82010585D01*
X151551627Y-82097939D01*
X151464273Y-82214495D01*
X151413143Y-82350884D01*
X151406388Y-82413066D01*
X151406388Y-84109334D01*
X150435638Y-84109334D01*
X149451952Y-83125648D01*
X149417926Y-83063336D01*
X149419341Y-83003941D01*
X149434918Y-82945809D01*
X149434920Y-82945798D01*
X149436343Y-82940487D01*
X149456298Y-82712400D01*
X149436343Y-82484313D01*
X149434919Y-82478998D01*
X149378507Y-82268467D01*
X149378506Y-82268465D01*
X149377084Y-82263157D01*
X149371808Y-82251843D01*
X149282649Y-82060638D01*
X149282646Y-82060633D01*
X149280323Y-82055651D01*
X149148998Y-81868100D01*
X148987100Y-81706202D01*
X148982592Y-81703045D01*
X148982589Y-81703043D01*
X148900669Y-81645682D01*
X148799549Y-81574877D01*
X148794567Y-81572554D01*
X148794562Y-81572551D01*
X148760343Y-81556595D01*
X148707058Y-81509678D01*
X148687597Y-81441401D01*
X148708139Y-81373441D01*
X148760343Y-81328205D01*
X148794562Y-81312249D01*
X148794567Y-81312246D01*
X148799549Y-81309923D01*
X148951371Y-81203616D01*
X148982589Y-81181757D01*
X148982592Y-81181755D01*
X148987100Y-81178598D01*
X149148998Y-81016700D01*
X149280323Y-80829149D01*
X149282646Y-80824167D01*
X149282649Y-80824162D01*
X149374761Y-80626625D01*
X149374761Y-80626624D01*
X149377084Y-80621643D01*
X149436343Y-80400487D01*
X149456298Y-80172400D01*
X149436343Y-79944313D01*
X149377084Y-79723157D01*
X149374761Y-79718175D01*
X149282649Y-79520638D01*
X149282646Y-79520633D01*
X149280323Y-79515651D01*
X149148998Y-79328100D01*
X148987100Y-79166202D01*
X148982592Y-79163045D01*
X148982589Y-79163043D01*
X148903845Y-79107906D01*
X148799549Y-79034877D01*
X148794567Y-79032554D01*
X148794562Y-79032551D01*
X148759751Y-79016319D01*
X148706466Y-78969402D01*
X148687005Y-78901125D01*
X148707547Y-78833165D01*
X148759751Y-78787929D01*
X148794311Y-78771814D01*
X148803807Y-78766331D01*
X148982267Y-78641372D01*
X148990675Y-78634316D01*
X149144716Y-78480275D01*
X149151772Y-78471867D01*
X149276731Y-78293407D01*
X149282214Y-78283911D01*
X149374290Y-78086453D01*
X149378036Y-78076161D01*
X149424194Y-77903897D01*
X149423858Y-77889801D01*
X149415916Y-77886400D01*
X146874833Y-77886400D01*
X146861302Y-77890373D01*
X146860073Y-77898922D01*
X146907564Y-78076161D01*
X146911310Y-78086453D01*
X147003386Y-78283911D01*
X147008869Y-78293407D01*
X147133828Y-78471867D01*
X147140884Y-78480275D01*
X147294925Y-78634316D01*
X147303333Y-78641372D01*
X147481793Y-78766331D01*
X147491289Y-78771814D01*
X147525849Y-78787929D01*
X147579134Y-78834846D01*
X147598595Y-78903123D01*
X147578053Y-78971083D01*
X147525849Y-79016319D01*
X147491038Y-79032551D01*
X147491033Y-79032554D01*
X147486051Y-79034877D01*
X147381755Y-79107906D01*
X147303011Y-79163043D01*
X147303008Y-79163045D01*
X147298500Y-79166202D01*
X147136602Y-79328100D01*
X147005277Y-79515651D01*
X147002954Y-79520633D01*
X147002951Y-79520638D01*
X146910839Y-79718175D01*
X146908516Y-79723157D01*
X146849257Y-79944313D01*
X146829302Y-80172400D01*
X146849257Y-80400487D01*
X146908516Y-80621643D01*
X146910839Y-80626624D01*
X146910839Y-80626625D01*
X147002951Y-80824162D01*
X147002954Y-80824167D01*
X147005277Y-80829149D01*
X147136602Y-81016700D01*
X147298500Y-81178598D01*
X147303008Y-81181755D01*
X147303011Y-81181757D01*
X147334229Y-81203616D01*
X147486051Y-81309923D01*
X147491033Y-81312246D01*
X147491038Y-81312249D01*
X147525257Y-81328205D01*
X147578542Y-81375122D01*
X147598003Y-81443399D01*
X147577461Y-81511359D01*
X147525257Y-81556595D01*
X147491038Y-81572551D01*
X147491033Y-81572554D01*
X147486051Y-81574877D01*
X147384931Y-81645682D01*
X147303011Y-81703043D01*
X147303008Y-81703045D01*
X147298500Y-81706202D01*
X147136602Y-81868100D01*
X147005277Y-82055651D01*
X147002954Y-82060633D01*
X147002951Y-82060638D01*
X146913792Y-82251843D01*
X146908516Y-82263157D01*
X146907094Y-82268465D01*
X146907093Y-82268467D01*
X146850681Y-82478998D01*
X146849257Y-82484313D01*
X146829302Y-82712400D01*
X146849257Y-82940487D01*
X146850681Y-82945800D01*
X146850681Y-82945802D01*
X146897050Y-83118850D01*
X146908516Y-83161643D01*
X146910839Y-83166624D01*
X146910839Y-83166625D01*
X147002951Y-83364162D01*
X147002954Y-83364167D01*
X147005277Y-83369149D01*
X147136602Y-83556700D01*
X147298500Y-83718598D01*
X147303008Y-83721755D01*
X147303011Y-83721757D01*
X147334229Y-83743616D01*
X147486051Y-83849923D01*
X147491033Y-83852246D01*
X147491038Y-83852249D01*
X147525257Y-83868205D01*
X147578542Y-83915122D01*
X147598003Y-83983399D01*
X147577461Y-84051359D01*
X147525257Y-84096595D01*
X147491038Y-84112551D01*
X147491033Y-84112554D01*
X147486051Y-84114877D01*
X147394596Y-84178915D01*
X147303011Y-84243043D01*
X147303008Y-84243045D01*
X147298500Y-84246202D01*
X147136602Y-84408100D01*
X147133445Y-84412608D01*
X147133443Y-84412611D01*
X147127715Y-84420792D01*
X147005277Y-84595651D01*
X147002954Y-84600633D01*
X147002951Y-84600638D01*
X146913427Y-84792625D01*
X146908516Y-84803157D01*
X146907094Y-84808465D01*
X146907093Y-84808467D01*
X146854444Y-85004956D01*
X146849257Y-85024313D01*
X146829302Y-85252400D01*
X141836298Y-85252400D01*
X141816343Y-85024313D01*
X141811156Y-85004956D01*
X141758507Y-84808467D01*
X141758506Y-84808465D01*
X141757084Y-84803157D01*
X141752173Y-84792625D01*
X141662649Y-84600638D01*
X141662646Y-84600633D01*
X141660323Y-84595651D01*
X141537885Y-84420792D01*
X141532157Y-84412611D01*
X141532155Y-84412608D01*
X141528998Y-84408100D01*
X141367100Y-84246202D01*
X141362592Y-84243045D01*
X141362589Y-84243043D01*
X141271004Y-84178915D01*
X141179549Y-84114877D01*
X141174567Y-84112554D01*
X141174562Y-84112551D01*
X141140343Y-84096595D01*
X141087058Y-84049678D01*
X141067597Y-83981401D01*
X141088139Y-83913441D01*
X141140343Y-83868205D01*
X141174562Y-83852249D01*
X141174567Y-83852246D01*
X141179549Y-83849923D01*
X141331371Y-83743616D01*
X141362589Y-83721757D01*
X141362592Y-83721755D01*
X141367100Y-83718598D01*
X141528998Y-83556700D01*
X141660323Y-83369149D01*
X141662646Y-83364167D01*
X141662649Y-83364162D01*
X141754761Y-83166625D01*
X141754761Y-83166624D01*
X141757084Y-83161643D01*
X141768551Y-83118850D01*
X141814919Y-82945802D01*
X141814919Y-82945800D01*
X141816343Y-82940487D01*
X141836298Y-82712400D01*
X141816343Y-82484313D01*
X141814919Y-82478998D01*
X141758507Y-82268467D01*
X141758506Y-82268465D01*
X141757084Y-82263157D01*
X141751808Y-82251843D01*
X141662649Y-82060638D01*
X141662646Y-82060633D01*
X141660323Y-82055651D01*
X141528998Y-81868100D01*
X141367100Y-81706202D01*
X141362592Y-81703045D01*
X141362589Y-81703043D01*
X141280669Y-81645682D01*
X141179549Y-81574877D01*
X141174567Y-81572554D01*
X141174562Y-81572551D01*
X141140343Y-81556595D01*
X141087058Y-81509678D01*
X141067597Y-81441401D01*
X141088139Y-81373441D01*
X141140343Y-81328205D01*
X141174562Y-81312249D01*
X141174567Y-81312246D01*
X141179549Y-81309923D01*
X141331371Y-81203616D01*
X141362589Y-81181757D01*
X141362592Y-81181755D01*
X141367100Y-81178598D01*
X141528998Y-81016700D01*
X141660323Y-80829149D01*
X141662646Y-80824167D01*
X141662649Y-80824162D01*
X141754761Y-80626625D01*
X141754761Y-80626624D01*
X141757084Y-80621643D01*
X141816343Y-80400487D01*
X141836298Y-80172400D01*
X141816343Y-79944313D01*
X141757084Y-79723157D01*
X141754761Y-79718175D01*
X141662649Y-79520638D01*
X141662646Y-79520633D01*
X141660323Y-79515651D01*
X141528998Y-79328100D01*
X141367100Y-79166202D01*
X141362589Y-79163043D01*
X141358376Y-79159508D01*
X141359188Y-79158540D01*
X141318710Y-79107906D01*
X141311396Y-79037287D01*
X141343424Y-78973924D01*
X141404623Y-78937936D01*
X141421701Y-78934880D01*
X141425152Y-78934505D01*
X141440404Y-78930879D01*
X141560854Y-78885724D01*
X141576449Y-78877186D01*
X141678524Y-78800685D01*
X141691085Y-78788124D01*
X141767586Y-78686049D01*
X141776124Y-78670454D01*
X141821278Y-78550006D01*
X141824905Y-78534751D01*
X141830432Y-78483875D01*
X141830800Y-78477072D01*
X141830800Y-77904515D01*
X141826325Y-77889276D01*
X141824935Y-77888071D01*
X141817252Y-77886400D01*
X139232916Y-77886400D01*
X139217677Y-77890875D01*
X139216472Y-77892265D01*
X139214801Y-77899948D01*
X139214801Y-78477069D01*
X139215171Y-78483890D01*
X139220695Y-78534752D01*
X139224321Y-78550004D01*
X139269476Y-78670454D01*
X139278014Y-78686049D01*
X139354515Y-78788124D01*
X139367076Y-78800685D01*
X139469151Y-78877186D01*
X139484746Y-78885724D01*
X139605194Y-78930878D01*
X139620443Y-78934504D01*
X139623896Y-78934879D01*
X139626406Y-78935922D01*
X139628131Y-78936332D01*
X139628065Y-78936611D01*
X139689459Y-78962119D01*
X139729888Y-79020480D01*
X139732346Y-79091434D01*
X139696053Y-79152454D01*
X139684560Y-79161744D01*
X139683014Y-79163041D01*
X139678500Y-79166202D01*
X139516602Y-79328100D01*
X139385277Y-79515651D01*
X139382954Y-79520633D01*
X139382951Y-79520638D01*
X139290839Y-79718175D01*
X139288516Y-79723157D01*
X139229257Y-79944313D01*
X139209302Y-80172400D01*
X139229257Y-80400487D01*
X139230679Y-80405792D01*
X139230681Y-80405806D01*
X139246259Y-80463939D01*
X139244571Y-80534916D01*
X139213648Y-80585648D01*
X138753499Y-81045796D01*
X138691187Y-81079821D01*
X138664404Y-81082700D01*
X138486913Y-81082700D01*
X138480461Y-81084072D01*
X138480456Y-81084072D01*
X138403039Y-81100528D01*
X138300112Y-81122406D01*
X138294082Y-81125091D01*
X138294081Y-81125091D01*
X138131678Y-81197397D01*
X138131676Y-81197398D01*
X138125648Y-81200082D01*
X137971147Y-81312334D01*
X137966726Y-81317244D01*
X137966725Y-81317245D01*
X137847784Y-81449342D01*
X137847782Y-81449345D01*
X137843360Y-81454256D01*
X137840057Y-81459977D01*
X137836810Y-81464446D01*
X137780586Y-81507797D01*
X137709849Y-81513871D01*
X137645781Y-81479476D01*
X134081293Y-77914988D01*
X134047267Y-77852676D01*
X134044388Y-77825893D01*
X134044388Y-77360285D01*
X139214800Y-77360285D01*
X139219275Y-77375524D01*
X139220665Y-77376729D01*
X139228348Y-77378400D01*
X140250685Y-77378400D01*
X140265924Y-77373925D01*
X140267129Y-77372535D01*
X140268800Y-77364852D01*
X140268800Y-77360285D01*
X140776800Y-77360285D01*
X140781275Y-77375524D01*
X140782665Y-77376729D01*
X140790348Y-77378400D01*
X141812684Y-77378400D01*
X141827923Y-77373925D01*
X141829128Y-77372535D01*
X141830799Y-77364852D01*
X141830799Y-77360903D01*
X146861406Y-77360903D01*
X146861742Y-77374999D01*
X146869684Y-77378400D01*
X147870685Y-77378400D01*
X147885924Y-77373925D01*
X147887129Y-77372535D01*
X147888800Y-77364852D01*
X147888800Y-77360285D01*
X148396800Y-77360285D01*
X148401275Y-77375524D01*
X148402665Y-77376729D01*
X148410348Y-77378400D01*
X149410767Y-77378400D01*
X149424298Y-77374427D01*
X149425527Y-77365878D01*
X149378036Y-77188639D01*
X149374290Y-77178347D01*
X149349507Y-77125200D01*
X151899302Y-77125200D01*
X151919257Y-77353287D01*
X151920681Y-77358600D01*
X151920681Y-77358602D01*
X151962872Y-77516058D01*
X151978516Y-77574443D01*
X151980839Y-77579424D01*
X151980839Y-77579425D01*
X152072951Y-77776962D01*
X152072954Y-77776967D01*
X152075277Y-77781949D01*
X152206602Y-77969500D01*
X152368500Y-78131398D01*
X152373008Y-78134555D01*
X152373011Y-78134557D01*
X152451189Y-78189298D01*
X152556051Y-78262723D01*
X152561033Y-78265046D01*
X152561038Y-78265049D01*
X152746714Y-78351630D01*
X152763557Y-78359484D01*
X152768865Y-78360906D01*
X152768867Y-78360907D01*
X152979398Y-78417319D01*
X152979400Y-78417319D01*
X152984713Y-78418743D01*
X153212800Y-78438698D01*
X153440887Y-78418743D01*
X153446200Y-78417319D01*
X153446202Y-78417319D01*
X153656733Y-78360907D01*
X153656735Y-78360906D01*
X153662043Y-78359484D01*
X153678886Y-78351630D01*
X153864562Y-78265049D01*
X153864567Y-78265046D01*
X153869549Y-78262723D01*
X153974411Y-78189298D01*
X154052589Y-78134557D01*
X154052592Y-78134555D01*
X154057100Y-78131398D01*
X154218998Y-77969500D01*
X154350323Y-77781949D01*
X154352646Y-77776967D01*
X154352649Y-77776962D01*
X154444761Y-77579425D01*
X154444761Y-77579424D01*
X154447084Y-77574443D01*
X154462729Y-77516058D01*
X154504919Y-77358602D01*
X154504919Y-77358600D01*
X154506343Y-77353287D01*
X154526298Y-77125200D01*
X154506343Y-76897113D01*
X154476175Y-76784525D01*
X154448507Y-76681267D01*
X154448506Y-76681265D01*
X154447084Y-76675957D01*
X154425880Y-76630484D01*
X154352649Y-76473438D01*
X154352646Y-76473433D01*
X154350323Y-76468451D01*
X154249717Y-76324771D01*
X154222157Y-76285411D01*
X154222155Y-76285408D01*
X154218998Y-76280900D01*
X154057100Y-76119002D01*
X154052592Y-76115845D01*
X154052589Y-76115843D01*
X153921122Y-76023789D01*
X153869549Y-75987677D01*
X153864567Y-75985354D01*
X153864562Y-75985351D01*
X153667025Y-75893239D01*
X153667024Y-75893239D01*
X153662043Y-75890916D01*
X153656735Y-75889494D01*
X153656733Y-75889493D01*
X153446202Y-75833081D01*
X153446200Y-75833081D01*
X153440887Y-75831657D01*
X153212800Y-75811702D01*
X152984713Y-75831657D01*
X152979400Y-75833081D01*
X152979398Y-75833081D01*
X152768867Y-75889493D01*
X152768865Y-75889494D01*
X152763557Y-75890916D01*
X152758576Y-75893239D01*
X152758575Y-75893239D01*
X152561038Y-75985351D01*
X152561033Y-75985354D01*
X152556051Y-75987677D01*
X152504478Y-76023789D01*
X152373011Y-76115843D01*
X152373008Y-76115845D01*
X152368500Y-76119002D01*
X152206602Y-76280900D01*
X152203445Y-76285408D01*
X152203443Y-76285411D01*
X152175883Y-76324771D01*
X152075277Y-76468451D01*
X152072954Y-76473433D01*
X152072951Y-76473438D01*
X151999720Y-76630484D01*
X151978516Y-76675957D01*
X151977094Y-76681265D01*
X151977093Y-76681267D01*
X151949425Y-76784525D01*
X151919257Y-76897113D01*
X151899302Y-77125200D01*
X149349507Y-77125200D01*
X149282214Y-76980889D01*
X149276731Y-76971393D01*
X149151772Y-76792933D01*
X149144716Y-76784525D01*
X148990675Y-76630484D01*
X148982267Y-76623428D01*
X148803807Y-76498469D01*
X148794311Y-76492986D01*
X148596853Y-76400910D01*
X148586561Y-76397164D01*
X148414297Y-76351006D01*
X148400201Y-76351342D01*
X148396800Y-76359284D01*
X148396800Y-77360285D01*
X147888800Y-77360285D01*
X147888800Y-76364433D01*
X147884827Y-76350902D01*
X147876278Y-76349673D01*
X147699039Y-76397164D01*
X147688747Y-76400910D01*
X147491289Y-76492986D01*
X147481793Y-76498469D01*
X147303333Y-76623428D01*
X147294925Y-76630484D01*
X147140884Y-76784525D01*
X147133828Y-76792933D01*
X147008869Y-76971393D01*
X147003386Y-76980889D01*
X146911310Y-77178347D01*
X146907564Y-77188639D01*
X146861406Y-77360903D01*
X141830799Y-77360903D01*
X141830799Y-76787731D01*
X141830429Y-76780910D01*
X141824905Y-76730048D01*
X141821279Y-76714796D01*
X141776124Y-76594346D01*
X141767586Y-76578751D01*
X141691085Y-76476676D01*
X141678524Y-76464115D01*
X141576449Y-76387614D01*
X141560854Y-76379076D01*
X141440406Y-76333922D01*
X141425151Y-76330295D01*
X141374286Y-76324769D01*
X141367472Y-76324400D01*
X140794915Y-76324400D01*
X140779676Y-76328875D01*
X140778471Y-76330265D01*
X140776800Y-76337948D01*
X140776800Y-77360285D01*
X140268800Y-77360285D01*
X140268800Y-76342516D01*
X140264325Y-76327277D01*
X140262935Y-76326072D01*
X140255252Y-76324401D01*
X139678131Y-76324401D01*
X139671310Y-76324771D01*
X139620448Y-76330295D01*
X139605196Y-76333921D01*
X139484746Y-76379076D01*
X139469151Y-76387614D01*
X139367076Y-76464115D01*
X139354515Y-76476676D01*
X139278014Y-76578751D01*
X139269476Y-76594346D01*
X139224322Y-76714794D01*
X139220695Y-76730049D01*
X139215169Y-76780914D01*
X139214800Y-76787728D01*
X139214800Y-77360285D01*
X134044388Y-77360285D01*
X134044388Y-76618500D01*
X134064390Y-76550379D01*
X134118046Y-76503886D01*
X134170388Y-76492500D01*
X134259022Y-76492500D01*
X134321204Y-76485745D01*
X134457593Y-76434615D01*
X134574149Y-76347261D01*
X134579530Y-76340081D01*
X134585880Y-76333731D01*
X134588120Y-76335971D01*
X134632453Y-76302829D01*
X134703272Y-76297810D01*
X134744678Y-76315949D01*
X134744869Y-76315617D01*
X134747852Y-76317339D01*
X134748685Y-76317704D01*
X134754139Y-76321523D01*
X134759121Y-76323846D01*
X134759126Y-76323849D01*
X134924386Y-76400910D01*
X134961645Y-76418284D01*
X134966953Y-76419706D01*
X134966955Y-76419707D01*
X135177486Y-76476119D01*
X135177488Y-76476119D01*
X135182801Y-76477543D01*
X135410888Y-76497498D01*
X135638975Y-76477543D01*
X135644288Y-76476119D01*
X135644290Y-76476119D01*
X135854821Y-76419707D01*
X135854823Y-76419706D01*
X135860131Y-76418284D01*
X135897390Y-76400910D01*
X136062650Y-76323849D01*
X136062655Y-76323846D01*
X136067637Y-76321523D01*
X136209346Y-76222297D01*
X136250677Y-76193357D01*
X136250680Y-76193355D01*
X136255188Y-76190198D01*
X136417086Y-76028300D01*
X136548411Y-75840749D01*
X136550734Y-75835767D01*
X136550737Y-75835762D01*
X136642849Y-75638225D01*
X136642849Y-75638224D01*
X136645172Y-75633243D01*
X136679529Y-75505024D01*
X136703007Y-75417402D01*
X136703007Y-75417400D01*
X136704431Y-75412087D01*
X136724386Y-75184000D01*
X136704431Y-74955913D01*
X136670579Y-74829576D01*
X136646595Y-74740067D01*
X136646594Y-74740065D01*
X136645172Y-74734757D01*
X136630077Y-74702386D01*
X136550737Y-74532238D01*
X136550734Y-74532233D01*
X136548411Y-74527251D01*
X136417086Y-74339700D01*
X136255188Y-74177802D01*
X136250680Y-74174645D01*
X136250677Y-74174643D01*
X136144191Y-74100081D01*
X136067637Y-74046477D01*
X136062655Y-74044154D01*
X136062650Y-74044151D01*
X135865113Y-73952039D01*
X135865112Y-73952039D01*
X135860131Y-73949716D01*
X135854823Y-73948294D01*
X135854821Y-73948293D01*
X135644290Y-73891881D01*
X135644288Y-73891881D01*
X135638975Y-73890457D01*
X135410888Y-73870502D01*
X135182801Y-73890457D01*
X135177488Y-73891881D01*
X135177486Y-73891881D01*
X134966955Y-73948293D01*
X134966953Y-73948294D01*
X134961645Y-73949716D01*
X134956664Y-73952039D01*
X134956663Y-73952039D01*
X134759126Y-74044151D01*
X134759121Y-74044154D01*
X134754139Y-74046477D01*
X134748686Y-74050295D01*
X134748202Y-74050459D01*
X134744869Y-74052383D01*
X134744482Y-74051713D01*
X134681414Y-74072988D01*
X134612553Y-74055707D01*
X134587151Y-74032998D01*
X134585880Y-74034269D01*
X134579530Y-74027919D01*
X134574149Y-74020739D01*
X134457593Y-73933385D01*
X134321204Y-73882255D01*
X134259022Y-73875500D01*
X132562754Y-73875500D01*
X132500572Y-73882255D01*
X132364183Y-73933385D01*
X132247627Y-74020739D01*
X132160273Y-74137295D01*
X132109143Y-74273684D01*
X132102388Y-74335866D01*
X132102388Y-76032134D01*
X127132834Y-76032134D01*
X127095617Y-75893239D01*
X127093445Y-75885133D01*
X127093444Y-75885131D01*
X127092022Y-75879823D01*
X127075904Y-75845257D01*
X127003499Y-75689985D01*
X127003497Y-75689982D01*
X127001176Y-75685004D01*
X126877881Y-75508919D01*
X126725881Y-75356919D01*
X126549797Y-75233624D01*
X126544819Y-75231303D01*
X126544816Y-75231301D01*
X126361447Y-75145795D01*
X126308162Y-75098878D01*
X126288701Y-75030600D01*
X126309243Y-74962641D01*
X126361447Y-74917405D01*
X126544816Y-74831899D01*
X126544819Y-74831897D01*
X126549797Y-74829576D01*
X126725881Y-74706281D01*
X126877881Y-74554281D01*
X127001176Y-74378196D01*
X127020945Y-74335803D01*
X127089699Y-74188359D01*
X127089700Y-74188357D01*
X127092022Y-74183377D01*
X127112418Y-74107261D01*
X127146234Y-73981057D01*
X127146234Y-73981055D01*
X127147658Y-73975742D01*
X127166393Y-73761600D01*
X127147658Y-73547458D01*
X127139671Y-73517650D01*
X127093445Y-73345133D01*
X127093444Y-73345131D01*
X127092022Y-73339823D01*
X127056070Y-73262723D01*
X127003499Y-73149985D01*
X127003497Y-73149982D01*
X127001176Y-73145004D01*
X126877881Y-72968919D01*
X126725881Y-72816919D01*
X126549797Y-72693624D01*
X126544819Y-72691303D01*
X126544816Y-72691301D01*
X126360856Y-72605519D01*
X126307571Y-72558602D01*
X126288110Y-72490324D01*
X126308652Y-72422364D01*
X126360856Y-72377129D01*
X126544559Y-72291468D01*
X126554054Y-72285985D01*
X126588807Y-72261651D01*
X126597183Y-72251172D01*
X126590116Y-72237727D01*
X126477589Y-72125200D01*
X151899302Y-72125200D01*
X151919257Y-72353287D01*
X151920681Y-72358600D01*
X151920681Y-72358602D01*
X151971201Y-72547142D01*
X151978516Y-72574443D01*
X151980839Y-72579424D01*
X151980839Y-72579425D01*
X152072951Y-72776962D01*
X152072954Y-72776967D01*
X152075277Y-72781949D01*
X152206602Y-72969500D01*
X152368500Y-73131398D01*
X152373008Y-73134555D01*
X152373011Y-73134557D01*
X152387931Y-73145004D01*
X152556051Y-73262723D01*
X152561033Y-73265046D01*
X152561038Y-73265049D01*
X152732781Y-73345133D01*
X152763557Y-73359484D01*
X152768865Y-73360906D01*
X152768867Y-73360907D01*
X152979398Y-73417319D01*
X152979400Y-73417319D01*
X152984713Y-73418743D01*
X153212800Y-73438698D01*
X153440887Y-73418743D01*
X153446200Y-73417319D01*
X153446202Y-73417319D01*
X153656733Y-73360907D01*
X153656735Y-73360906D01*
X153662043Y-73359484D01*
X153692819Y-73345133D01*
X153864562Y-73265049D01*
X153864567Y-73265046D01*
X153869549Y-73262723D01*
X154037669Y-73145004D01*
X154052589Y-73134557D01*
X154052592Y-73134555D01*
X154057100Y-73131398D01*
X154218998Y-72969500D01*
X154350323Y-72781949D01*
X154352646Y-72776967D01*
X154352649Y-72776962D01*
X154444761Y-72579425D01*
X154444761Y-72579424D01*
X154447084Y-72574443D01*
X154454400Y-72547142D01*
X154504919Y-72358602D01*
X154504919Y-72358600D01*
X154506343Y-72353287D01*
X154526298Y-72125200D01*
X154506343Y-71897113D01*
X154504919Y-71891798D01*
X154448507Y-71681267D01*
X154448506Y-71681265D01*
X154447084Y-71675957D01*
X154444005Y-71669354D01*
X154352649Y-71473438D01*
X154352646Y-71473433D01*
X154350323Y-71468451D01*
X154276898Y-71363589D01*
X154222157Y-71285411D01*
X154222155Y-71285408D01*
X154218998Y-71280900D01*
X154057100Y-71119002D01*
X154052592Y-71115845D01*
X154052589Y-71115843D01*
X153947494Y-71042255D01*
X153869549Y-70987677D01*
X153864567Y-70985354D01*
X153864562Y-70985351D01*
X153667025Y-70893239D01*
X153667024Y-70893239D01*
X153662043Y-70890916D01*
X153656735Y-70889494D01*
X153656733Y-70889493D01*
X153446202Y-70833081D01*
X153446200Y-70833081D01*
X153440887Y-70831657D01*
X153212800Y-70811702D01*
X152984713Y-70831657D01*
X152979400Y-70833081D01*
X152979398Y-70833081D01*
X152768867Y-70889493D01*
X152768865Y-70889494D01*
X152763557Y-70890916D01*
X152758576Y-70893239D01*
X152758575Y-70893239D01*
X152561038Y-70985351D01*
X152561033Y-70985354D01*
X152556051Y-70987677D01*
X152478106Y-71042255D01*
X152373011Y-71115843D01*
X152373008Y-71115845D01*
X152368500Y-71119002D01*
X152206602Y-71280900D01*
X152203445Y-71285408D01*
X152203443Y-71285411D01*
X152148702Y-71363589D01*
X152075277Y-71468451D01*
X152072954Y-71473433D01*
X152072951Y-71473438D01*
X151981595Y-71669354D01*
X151978516Y-71675957D01*
X151977094Y-71681265D01*
X151977093Y-71681267D01*
X151920681Y-71891798D01*
X151919257Y-71897113D01*
X151899302Y-72125200D01*
X126477589Y-72125200D01*
X125946011Y-71593621D01*
X125932068Y-71586008D01*
X125930234Y-71586139D01*
X125923620Y-71590390D01*
X125275560Y-72238451D01*
X125269133Y-72250221D01*
X125278427Y-72262235D01*
X125312346Y-72285985D01*
X125321841Y-72291468D01*
X125505544Y-72377129D01*
X125558829Y-72424046D01*
X125578290Y-72492323D01*
X125557748Y-72560283D01*
X125505544Y-72605519D01*
X125321585Y-72691301D01*
X125321582Y-72691303D01*
X125316604Y-72693624D01*
X125140519Y-72816919D01*
X124988519Y-72968919D01*
X124865224Y-73145004D01*
X124862903Y-73149982D01*
X124862901Y-73149985D01*
X124810330Y-73262723D01*
X124774378Y-73339823D01*
X124772956Y-73345131D01*
X124772955Y-73345133D01*
X124726729Y-73517650D01*
X124718742Y-73547458D01*
X124700007Y-73761600D01*
X124718742Y-73975742D01*
X124720166Y-73981055D01*
X124720166Y-73981057D01*
X124753983Y-74107261D01*
X124774378Y-74183377D01*
X124776700Y-74188357D01*
X124776701Y-74188359D01*
X124845456Y-74335803D01*
X124865224Y-74378196D01*
X124988519Y-74554281D01*
X125140519Y-74706281D01*
X125316603Y-74829576D01*
X125321581Y-74831897D01*
X125321584Y-74831899D01*
X125504953Y-74917405D01*
X125558238Y-74964322D01*
X125577699Y-75032600D01*
X125557157Y-75100559D01*
X125504953Y-75145795D01*
X125321585Y-75231301D01*
X125321582Y-75231303D01*
X125316604Y-75233624D01*
X125140519Y-75356919D01*
X124988519Y-75508919D01*
X124865224Y-75685004D01*
X124862903Y-75689982D01*
X124862901Y-75689985D01*
X124790496Y-75845257D01*
X124774378Y-75879823D01*
X124772956Y-75885131D01*
X124772955Y-75885133D01*
X124770783Y-75893239D01*
X124718742Y-76087458D01*
X124700007Y-76301600D01*
X121717300Y-76301600D01*
X121717300Y-71227075D01*
X124700988Y-71227075D01*
X124718757Y-71430175D01*
X124720660Y-71440968D01*
X124773426Y-71637895D01*
X124777172Y-71648187D01*
X124863335Y-71832964D01*
X124868813Y-71842450D01*
X124893149Y-71877207D01*
X124903628Y-71885583D01*
X124917072Y-71878517D01*
X125561179Y-71234411D01*
X125567556Y-71222732D01*
X126297608Y-71222732D01*
X126297739Y-71224566D01*
X126301990Y-71231180D01*
X126950051Y-71879240D01*
X126961821Y-71885667D01*
X126973835Y-71876372D01*
X126997587Y-71842450D01*
X127003065Y-71832964D01*
X127089228Y-71648187D01*
X127092974Y-71637895D01*
X127145740Y-71440968D01*
X127147643Y-71430175D01*
X127165412Y-71227075D01*
X127165412Y-71216125D01*
X127147643Y-71013025D01*
X127145740Y-71002232D01*
X127141622Y-70986862D01*
X138267293Y-70986862D01*
X138276589Y-70998877D01*
X138327794Y-71034731D01*
X138337289Y-71040214D01*
X138534747Y-71132290D01*
X138545039Y-71136036D01*
X138755488Y-71192425D01*
X138766281Y-71194328D01*
X138983325Y-71213317D01*
X138994275Y-71213317D01*
X139211319Y-71194328D01*
X139222112Y-71192425D01*
X139432561Y-71136036D01*
X139442853Y-71132290D01*
X139640311Y-71040214D01*
X139649806Y-71034731D01*
X139701848Y-70998291D01*
X139710224Y-70987812D01*
X139703156Y-70974366D01*
X139001612Y-70272822D01*
X138987668Y-70265208D01*
X138985835Y-70265339D01*
X138979220Y-70269590D01*
X138273723Y-70975087D01*
X138267293Y-70986862D01*
X127141622Y-70986862D01*
X127092974Y-70805305D01*
X127089228Y-70795013D01*
X127003065Y-70610236D01*
X126997587Y-70600750D01*
X126973251Y-70565993D01*
X126962772Y-70557617D01*
X126949328Y-70564683D01*
X126305221Y-71208789D01*
X126297608Y-71222732D01*
X125567556Y-71222732D01*
X125568792Y-71220468D01*
X125568661Y-71218634D01*
X125564410Y-71212020D01*
X124916349Y-70563960D01*
X124904579Y-70557533D01*
X124892565Y-70566828D01*
X124868813Y-70600750D01*
X124863335Y-70610236D01*
X124777172Y-70795013D01*
X124773426Y-70805305D01*
X124720660Y-71002232D01*
X124718757Y-71013025D01*
X124700988Y-71216125D01*
X124700988Y-71227075D01*
X121717300Y-71227075D01*
X121717300Y-70192028D01*
X125269217Y-70192028D01*
X125276283Y-70205472D01*
X125920389Y-70849579D01*
X125934332Y-70857192D01*
X125936166Y-70857061D01*
X125942780Y-70852810D01*
X126590840Y-70204749D01*
X126597267Y-70192979D01*
X126587973Y-70180965D01*
X126554054Y-70157215D01*
X126544559Y-70151732D01*
X126359787Y-70065572D01*
X126349495Y-70061826D01*
X126152568Y-70009060D01*
X126141775Y-70007157D01*
X125938675Y-69989388D01*
X125927725Y-69989388D01*
X125724625Y-70007157D01*
X125713832Y-70009060D01*
X125516905Y-70061826D01*
X125506613Y-70065572D01*
X125321836Y-70151735D01*
X125312350Y-70157213D01*
X125277593Y-70181549D01*
X125269217Y-70192028D01*
X121717300Y-70192028D01*
X121717300Y-69906275D01*
X137676283Y-69906275D01*
X137695272Y-70123319D01*
X137697175Y-70134112D01*
X137753564Y-70344561D01*
X137757310Y-70354853D01*
X137849386Y-70552311D01*
X137854869Y-70561806D01*
X137891309Y-70613848D01*
X137901788Y-70622224D01*
X137915234Y-70615156D01*
X138616778Y-69913612D01*
X138623156Y-69901932D01*
X139353208Y-69901932D01*
X139353339Y-69903765D01*
X139357590Y-69910380D01*
X140063087Y-70615877D01*
X140074862Y-70622307D01*
X140086877Y-70613011D01*
X140122731Y-70561806D01*
X140128214Y-70552311D01*
X140220290Y-70354853D01*
X140224036Y-70344561D01*
X140280425Y-70134112D01*
X140282328Y-70123319D01*
X140301317Y-69906275D01*
X140301317Y-69900800D01*
X147835302Y-69900800D01*
X147855257Y-70128887D01*
X147856681Y-70134200D01*
X147856681Y-70134202D01*
X147893825Y-70272822D01*
X147914516Y-70350043D01*
X147916839Y-70355024D01*
X147916839Y-70355025D01*
X148008951Y-70552562D01*
X148008954Y-70552567D01*
X148011277Y-70557549D01*
X148142602Y-70745100D01*
X148304500Y-70906998D01*
X148309008Y-70910155D01*
X148309011Y-70910157D01*
X148381744Y-70961085D01*
X148492051Y-71038323D01*
X148497033Y-71040646D01*
X148497038Y-71040649D01*
X148693565Y-71132290D01*
X148699557Y-71135084D01*
X148704865Y-71136506D01*
X148704867Y-71136507D01*
X148915398Y-71192919D01*
X148915400Y-71192919D01*
X148920713Y-71194343D01*
X149148800Y-71214298D01*
X149376887Y-71194343D01*
X149382200Y-71192919D01*
X149382202Y-71192919D01*
X149592733Y-71136507D01*
X149592735Y-71136506D01*
X149598043Y-71135084D01*
X149604035Y-71132290D01*
X149800562Y-71040649D01*
X149800567Y-71040646D01*
X149805549Y-71038323D01*
X149915856Y-70961085D01*
X149988589Y-70910157D01*
X149988592Y-70910155D01*
X149993100Y-70906998D01*
X150154998Y-70745100D01*
X150286323Y-70557549D01*
X150288646Y-70552567D01*
X150288649Y-70552562D01*
X150380761Y-70355025D01*
X150380761Y-70355024D01*
X150383084Y-70350043D01*
X150403776Y-70272822D01*
X150440919Y-70134202D01*
X150440919Y-70134200D01*
X150442343Y-70128887D01*
X150444089Y-70108930D01*
X159677416Y-70108930D01*
X159696498Y-70351390D01*
X159698041Y-70361137D01*
X159754817Y-70597624D01*
X159757866Y-70607009D01*
X159850936Y-70831700D01*
X159855417Y-70840494D01*
X159929315Y-70961085D01*
X159947853Y-71029619D01*
X159926396Y-71097296D01*
X159897447Y-71127746D01*
X159851475Y-71162200D01*
X159826739Y-71180739D01*
X159739385Y-71297295D01*
X159688255Y-71433684D01*
X159681500Y-71495866D01*
X159681500Y-73792134D01*
X159688255Y-73854316D01*
X159739385Y-73990705D01*
X159826739Y-74107261D01*
X159943295Y-74194615D01*
X160079684Y-74245745D01*
X160141866Y-74252500D01*
X162438134Y-74252500D01*
X162500316Y-74245745D01*
X162636705Y-74194615D01*
X162753261Y-74107261D01*
X162840615Y-73990705D01*
X162891745Y-73854316D01*
X162898500Y-73792134D01*
X162898500Y-73514420D01*
X162918502Y-73446299D01*
X162972158Y-73399806D01*
X163042432Y-73389702D01*
X163105491Y-73417898D01*
X163229089Y-73521609D01*
X163234481Y-73524573D01*
X163234485Y-73524576D01*
X163405598Y-73618646D01*
X163410995Y-73621613D01*
X163608861Y-73684379D01*
X163614978Y-73685065D01*
X163614982Y-73685066D01*
X163691598Y-73693659D01*
X163770413Y-73702500D01*
X163882237Y-73702500D01*
X163885293Y-73702200D01*
X163885300Y-73702200D01*
X164030466Y-73687966D01*
X164030469Y-73687965D01*
X164036592Y-73687365D01*
X164168546Y-73647526D01*
X164229407Y-73629152D01*
X164229410Y-73629151D01*
X164235315Y-73627368D01*
X164242635Y-73623476D01*
X164413153Y-73532809D01*
X164413155Y-73532808D01*
X164418599Y-73529913D01*
X164530440Y-73438698D01*
X164574689Y-73402610D01*
X164574692Y-73402607D01*
X164579464Y-73398715D01*
X164586921Y-73389702D01*
X164707855Y-73243518D01*
X164711783Y-73238770D01*
X164714714Y-73233350D01*
X164807584Y-73061590D01*
X164807586Y-73061585D01*
X164810514Y-73056170D01*
X164871898Y-72857871D01*
X164893596Y-72651425D01*
X164882400Y-72528407D01*
X164875341Y-72450836D01*
X164875340Y-72450833D01*
X164874782Y-72444697D01*
X164816173Y-72245560D01*
X164720001Y-72061600D01*
X164589929Y-71899823D01*
X164580366Y-71891798D01*
X164435629Y-71770350D01*
X164430911Y-71766391D01*
X164425519Y-71763427D01*
X164425515Y-71763424D01*
X164254402Y-71669354D01*
X164249005Y-71666387D01*
X164051139Y-71603621D01*
X164045022Y-71602935D01*
X164045018Y-71602934D01*
X163961987Y-71593621D01*
X163889587Y-71585500D01*
X163777763Y-71585500D01*
X163774707Y-71585800D01*
X163774700Y-71585800D01*
X163629534Y-71600034D01*
X163629531Y-71600035D01*
X163623408Y-71600635D01*
X163499995Y-71637895D01*
X163430593Y-71658848D01*
X163430590Y-71658849D01*
X163424685Y-71660632D01*
X163419240Y-71663527D01*
X163419238Y-71663528D01*
X163246847Y-71755191D01*
X163246845Y-71755192D01*
X163241401Y-71758087D01*
X163236620Y-71761987D01*
X163236616Y-71761989D01*
X163104135Y-71870037D01*
X163038704Y-71897591D01*
X162968762Y-71885395D01*
X162916517Y-71837323D01*
X162898500Y-71772394D01*
X162898500Y-71495866D01*
X162891745Y-71433684D01*
X162840615Y-71297295D01*
X162753261Y-71180739D01*
X162728525Y-71162200D01*
X162682553Y-71127746D01*
X162640038Y-71070887D01*
X162635012Y-71000068D01*
X162650685Y-70961085D01*
X162724583Y-70840494D01*
X162729064Y-70831700D01*
X162759135Y-70759101D01*
X162803683Y-70703820D01*
X162871047Y-70681399D01*
X162939838Y-70698957D01*
X162973740Y-70728367D01*
X163066206Y-70843371D01*
X163066211Y-70843376D01*
X163070071Y-70848177D01*
X163074788Y-70852135D01*
X163074790Y-70852137D01*
X163119309Y-70889493D01*
X163229089Y-70981609D01*
X163234481Y-70984573D01*
X163234485Y-70984576D01*
X163405598Y-71078646D01*
X163410995Y-71081613D01*
X163608861Y-71144379D01*
X163614978Y-71145065D01*
X163614982Y-71145066D01*
X163691598Y-71153659D01*
X163770413Y-71162500D01*
X163882237Y-71162500D01*
X163885293Y-71162200D01*
X163885300Y-71162200D01*
X164030466Y-71147966D01*
X164030469Y-71147965D01*
X164036592Y-71147365D01*
X164168546Y-71107526D01*
X164229407Y-71089152D01*
X164229410Y-71089151D01*
X164235315Y-71087368D01*
X164242635Y-71083476D01*
X164413153Y-70992809D01*
X164413155Y-70992808D01*
X164418599Y-70989913D01*
X164520263Y-70906998D01*
X164574689Y-70862610D01*
X164574692Y-70862607D01*
X164579464Y-70858715D01*
X164600671Y-70833081D01*
X164707855Y-70703518D01*
X164711783Y-70698770D01*
X164714714Y-70693350D01*
X164807584Y-70521590D01*
X164807586Y-70521585D01*
X164810514Y-70516170D01*
X164871898Y-70317871D01*
X164876633Y-70272822D01*
X164892952Y-70117554D01*
X164892952Y-70117552D01*
X164893596Y-70111425D01*
X164882490Y-69989388D01*
X164875341Y-69910836D01*
X164875340Y-69910833D01*
X164874782Y-69904697D01*
X164872763Y-69897835D01*
X164817912Y-69711469D01*
X164816173Y-69705560D01*
X164720001Y-69521600D01*
X164589929Y-69359823D01*
X164577371Y-69349285D01*
X164435629Y-69230350D01*
X164430911Y-69226391D01*
X164425519Y-69223427D01*
X164425515Y-69223424D01*
X164254402Y-69129354D01*
X164249005Y-69126387D01*
X164051139Y-69063621D01*
X164045022Y-69062935D01*
X164045018Y-69062934D01*
X163968402Y-69054341D01*
X163889587Y-69045500D01*
X163777763Y-69045500D01*
X163774707Y-69045800D01*
X163774700Y-69045800D01*
X163629534Y-69060034D01*
X163629531Y-69060035D01*
X163623408Y-69060635D01*
X163491454Y-69100474D01*
X163430593Y-69118848D01*
X163430590Y-69118849D01*
X163424685Y-69120632D01*
X163419240Y-69123527D01*
X163419238Y-69123528D01*
X163246847Y-69215191D01*
X163246845Y-69215192D01*
X163241401Y-69218087D01*
X163181529Y-69266917D01*
X163085311Y-69345390D01*
X163085308Y-69345393D01*
X163080536Y-69349285D01*
X162991394Y-69457039D01*
X162972276Y-69480148D01*
X162913443Y-69519886D01*
X162842465Y-69521507D01*
X162781877Y-69484498D01*
X162758783Y-69448050D01*
X162729064Y-69376300D01*
X162724583Y-69367506D01*
X162605287Y-69172833D01*
X162594830Y-69163373D01*
X162586054Y-69167156D01*
X161379095Y-70374115D01*
X161316783Y-70408141D01*
X161245968Y-70403076D01*
X161200905Y-70374115D01*
X159996990Y-69170200D01*
X159984610Y-69163440D01*
X159976960Y-69169167D01*
X159855417Y-69367506D01*
X159850936Y-69376300D01*
X159757866Y-69600991D01*
X159754817Y-69610376D01*
X159698041Y-69846863D01*
X159696498Y-69856610D01*
X159677416Y-70099070D01*
X159677416Y-70108930D01*
X150444089Y-70108930D01*
X150462298Y-69900800D01*
X150442343Y-69672713D01*
X150405781Y-69536261D01*
X150384507Y-69456867D01*
X150384506Y-69456865D01*
X150383084Y-69451557D01*
X150380761Y-69446575D01*
X150288649Y-69249038D01*
X150288646Y-69249033D01*
X150286323Y-69244051D01*
X150161289Y-69065484D01*
X150158157Y-69061011D01*
X150158155Y-69061008D01*
X150154998Y-69056500D01*
X149993100Y-68894602D01*
X149988592Y-68891445D01*
X149988589Y-68891443D01*
X149873690Y-68810990D01*
X149856809Y-68799170D01*
X160349373Y-68799170D01*
X160353156Y-68807946D01*
X161277188Y-69731978D01*
X161291132Y-69739592D01*
X161292965Y-69739461D01*
X161299580Y-69735210D01*
X162223800Y-68810990D01*
X162230560Y-68798610D01*
X162224833Y-68790960D01*
X162026494Y-68669417D01*
X162017700Y-68664936D01*
X161793009Y-68571866D01*
X161783624Y-68568817D01*
X161547137Y-68512041D01*
X161537390Y-68510498D01*
X161294930Y-68491416D01*
X161285070Y-68491416D01*
X161042610Y-68510498D01*
X161032863Y-68512041D01*
X160796376Y-68568817D01*
X160786991Y-68571866D01*
X160562300Y-68664936D01*
X160553506Y-68669417D01*
X160358833Y-68788713D01*
X160349373Y-68799170D01*
X149856809Y-68799170D01*
X149805549Y-68763277D01*
X149800567Y-68760954D01*
X149800562Y-68760951D01*
X149603025Y-68668839D01*
X149603024Y-68668839D01*
X149598043Y-68666516D01*
X149592735Y-68665094D01*
X149592733Y-68665093D01*
X149382202Y-68608681D01*
X149382200Y-68608681D01*
X149376887Y-68607257D01*
X149148800Y-68587302D01*
X148920713Y-68607257D01*
X148915400Y-68608681D01*
X148915398Y-68608681D01*
X148704867Y-68665093D01*
X148704865Y-68665094D01*
X148699557Y-68666516D01*
X148694576Y-68668839D01*
X148694575Y-68668839D01*
X148497038Y-68760951D01*
X148497033Y-68760954D01*
X148492051Y-68763277D01*
X148423910Y-68810990D01*
X148309011Y-68891443D01*
X148309008Y-68891445D01*
X148304500Y-68894602D01*
X148142602Y-69056500D01*
X148139445Y-69061008D01*
X148139443Y-69061011D01*
X148136311Y-69065484D01*
X148011277Y-69244051D01*
X148008954Y-69249033D01*
X148008951Y-69249038D01*
X147916839Y-69446575D01*
X147914516Y-69451557D01*
X147913094Y-69456865D01*
X147913093Y-69456867D01*
X147891819Y-69536261D01*
X147855257Y-69672713D01*
X147835302Y-69900800D01*
X140301317Y-69900800D01*
X140301317Y-69895325D01*
X140282328Y-69678281D01*
X140280425Y-69667488D01*
X140224036Y-69457039D01*
X140220290Y-69446747D01*
X140128214Y-69249289D01*
X140122731Y-69239794D01*
X140086291Y-69187752D01*
X140075812Y-69179376D01*
X140062366Y-69186444D01*
X139360822Y-69887988D01*
X139353208Y-69901932D01*
X138623156Y-69901932D01*
X138624392Y-69899668D01*
X138624261Y-69897835D01*
X138620010Y-69891220D01*
X137914513Y-69185723D01*
X137902738Y-69179293D01*
X137890723Y-69188589D01*
X137854869Y-69239794D01*
X137849386Y-69249289D01*
X137757310Y-69446747D01*
X137753564Y-69457039D01*
X137697175Y-69667488D01*
X137695272Y-69678281D01*
X137676283Y-69895325D01*
X137676283Y-69906275D01*
X121717300Y-69906275D01*
X121717300Y-68813788D01*
X138267376Y-68813788D01*
X138274444Y-68827234D01*
X138975988Y-69528778D01*
X138989932Y-69536392D01*
X138991765Y-69536261D01*
X138998380Y-69532010D01*
X139703877Y-68826513D01*
X139710307Y-68814738D01*
X139701011Y-68802723D01*
X139649806Y-68766869D01*
X139640311Y-68761386D01*
X139442853Y-68669310D01*
X139432561Y-68665564D01*
X139222112Y-68609175D01*
X139211319Y-68607272D01*
X138994275Y-68588283D01*
X138983325Y-68588283D01*
X138766281Y-68607272D01*
X138755488Y-68609175D01*
X138545039Y-68665564D01*
X138534747Y-68669310D01*
X138337289Y-68761386D01*
X138327794Y-68766869D01*
X138275752Y-68803309D01*
X138267376Y-68813788D01*
X121717300Y-68813788D01*
X121717300Y-65810900D01*
X121737302Y-65742779D01*
X121790958Y-65696286D01*
X121843300Y-65684900D01*
X166649900Y-65684900D01*
X166718021Y-65704902D01*
G37*
%TD.AperFunction*%
%TD*%
M02*
