%TF.GenerationSoftware,KiCad,Pcbnew,(6.0.11)*%
%TF.CreationDate,2026-08-19T06:43:28+05:30*%
%TF.ProjectId,Project_2,50726f6a-6563-4745-9f32-2e6b69636164,rev?*%
%TF.SameCoordinates,Original*%
%TF.FileFunction,Copper,L1,Top*%
%TF.FilePolarity,Positive*%
%FSLAX46Y46*%
G04 Gerber Fmt 4.6, Leading zero omitted, Abs format (unit mm)*
G04 Created by KiCad (PCBNEW (6.0.11)) date 2026-08-19 06:43:28*
%MOMM*%
%LPD*%
G01*
G04 APERTURE LIST*
%TA.AperFunction,ComponentPad*%
%ADD10C,1.600000*%
%TD*%
%TA.AperFunction,ComponentPad*%
%ADD11O,1.600000X1.600000*%
%TD*%
%TA.AperFunction,ComponentPad*%
%ADD12R,1.600000X1.600000*%
%TD*%
%TA.AperFunction,ComponentPad*%
%ADD13R,2.200000X2.200000*%
%TD*%
%TA.AperFunction,ComponentPad*%
%ADD14C,2.200000*%
%TD*%
%TA.AperFunction,ComponentPad*%
%ADD15C,1.440000*%
%TD*%
%TA.AperFunction,ViaPad*%
%ADD16C,0.800000*%
%TD*%
%TA.AperFunction,Conductor*%
%ADD17C,0.250000*%
%TD*%
G04 APERTURE END LIST*
D10*
%TO.P,10k,1*%
%TO.N,Net-(C1-Pad1)*%
X143154400Y-91592400D03*
D11*
%TO.P,10k,2*%
%TO.N,VCC*%
X153314400Y-91592400D03*
%TD*%
D10*
%TO.P,0.1u,1*%
%TO.N,Net-(C1-Pad1)*%
X137221600Y-91592400D03*
%TO.P,0.1u,2*%
%TO.N,Net-(C1-Pad2)*%
X132221600Y-91592400D03*
%TD*%
D12*
%TO.P,220u,1*%
%TO.N,Net-(C4-Pad1)*%
X152714888Y-83261200D03*
D10*
%TO.P,220u,2*%
%TO.N,Net-(C5-Pad2)*%
X154714888Y-83261200D03*
%TD*%
D12*
%TO.P,10u,1*%
%TO.N,Net-(C3-Pad1)*%
X133410888Y-75184000D03*
D10*
%TO.P,10u,2*%
%TO.N,Net-(C3-Pad2)*%
X135410888Y-75184000D03*
%TD*%
D13*
%TO.P,Bat,1,Pin_1*%
%TO.N,VCC*%
X161594800Y-87325200D03*
D14*
%TO.P,Bat,2,Pin_2*%
%TO.N,GND*%
X161594800Y-84785200D03*
%TD*%
D10*
%TO.P,10k,1*%
%TO.N,GND*%
X138988800Y-69900800D03*
D11*
%TO.P,10k,2*%
%TO.N,Net-(C4-Pad2)*%
X149148800Y-69900800D03*
%TD*%
D15*
%TO.P,100k,1*%
%TO.N,GND*%
X125933200Y-71221600D03*
%TO.P,100k,2*%
%TO.N,Net-(R2-Pad2)*%
X125933200Y-73761600D03*
%TO.P,100k,3*%
%TO.N,Net-(C1-Pad2)*%
X125933200Y-76301600D03*
%TD*%
D12*
%TO.P,IC LM386,1,IN-*%
%TO.N,GND*%
X140522800Y-77632400D03*
D11*
%TO.P,IC LM386,2,BYP*%
%TO.N,Net-(C2-Pad1)*%
X140522800Y-80172400D03*
%TO.P,IC LM386,3,GAIN*%
%TO.N,Net-(C3-Pad2)*%
X140522800Y-82712400D03*
%TO.P,IC LM386,4,GAIN*%
%TO.N,Net-(C3-Pad1)*%
X140522800Y-85252400D03*
%TO.P,IC LM386,5,IN+*%
%TO.N,Net-(R2-Pad2)*%
X148142800Y-85252400D03*
%TO.P,IC LM386,6,VCC*%
%TO.N,VCC*%
X148142800Y-82712400D03*
%TO.P,IC LM386,7,VOUT*%
%TO.N,Net-(C4-Pad1)*%
X148142800Y-80172400D03*
%TO.P,IC LM386,8,GND*%
%TO.N,GND*%
X148142800Y-77632400D03*
%TD*%
D10*
%TO.P,0.05u,1*%
%TO.N,Net-(C4-Pad1)*%
X153212800Y-77125200D03*
%TO.P,0.05u,2*%
%TO.N,Net-(C4-Pad2)*%
X153212800Y-72125200D03*
%TD*%
D13*
%TO.P,Speaker,1,Pin_1*%
%TO.N,Net-(C5-Pad2)*%
X161290000Y-72644000D03*
D14*
%TO.P,Speaker,2,Pin_2*%
%TO.N,GND*%
X161290000Y-70104000D03*
%TD*%
D13*
%TO.P,Mic,1,Pin_1*%
%TO.N,GND*%
X126187200Y-82245200D03*
D14*
%TO.P,Mic,2,Pin_2*%
%TO.N,Net-(C1-Pad1)*%
X126187200Y-84785200D03*
%TD*%
D12*
%TO.P,10u,1*%
%TO.N,Net-(C2-Pad1)*%
X133553200Y-84988400D03*
D10*
%TO.P,10u,2*%
%TO.N,GND*%
X135553200Y-84988400D03*
%TD*%
D16*
%TO.N,GND*%
X137210800Y-80518000D03*
%TO.N,Net-(C2-Pad1)*%
X138582400Y-81991200D03*
%TD*%
D17*
%TO.N,GND*%
X135553200Y-84988400D02*
X135553200Y-82175600D01*
X162715000Y-71219000D02*
X161600000Y-70104000D01*
X162715000Y-83665000D02*
X162715000Y-71219000D01*
X135553200Y-82175600D02*
X137210800Y-80518000D01*
X161594800Y-84785200D02*
X162715000Y-83665000D01*
X161600000Y-70104000D02*
X161290000Y-70104000D01*
%TO.N,Net-(C1-Pad1)*%
X137221600Y-91592400D02*
X143154400Y-91592400D01*
%TO.N,Net-(C5-Pad2)*%
X161290000Y-72644000D02*
X161290000Y-76686088D01*
X161290000Y-76686088D02*
X154714888Y-83261200D01*
%TO.N,VCC*%
X153314400Y-91592400D02*
X157327600Y-91592400D01*
X157327600Y-91592400D02*
X161594800Y-87325200D01*
%TO.N,Net-(C4-Pad2)*%
X150988400Y-69900800D02*
X153212800Y-72125200D01*
X149148800Y-69900800D02*
X150988400Y-69900800D01*
%TO.N,Net-(R2-Pad2)*%
X145440400Y-82550000D02*
X145440400Y-79350991D01*
X139851009Y-73761600D02*
X145440400Y-79350991D01*
X148142800Y-85252400D02*
X145440400Y-82550000D01*
X125933200Y-73761600D02*
X139851009Y-73761600D01*
%TO.N,Net-(C1-Pad2)*%
X124762200Y-77472600D02*
X124762200Y-87932200D01*
X125933200Y-76301600D02*
X124762200Y-77472600D01*
X132221600Y-91592400D02*
X128422400Y-91592400D01*
X128422400Y-91592400D02*
X124762200Y-87932200D01*
%TO.N,Net-(C2-Pad1)*%
X133553200Y-84988400D02*
X134678200Y-86113400D01*
X134678200Y-86113400D02*
X136035000Y-86113400D01*
X138582400Y-83566000D02*
X138582400Y-81991200D01*
X136035000Y-86113400D02*
X138582400Y-83566000D01*
%TO.N,Net-(C3-Pad2)*%
X135410888Y-75184000D02*
X135410888Y-77600488D01*
X135410888Y-77600488D02*
X140522800Y-82712400D01*
%TO.N,Net-(C4-Pad1)*%
X151302400Y-77012800D02*
X153100400Y-77012800D01*
X153100400Y-77012800D02*
X153212800Y-77125200D01*
X152714888Y-83261200D02*
X151231600Y-83261200D01*
X151231600Y-83261200D02*
X148142800Y-80172400D01*
X148142800Y-80172400D02*
X151302400Y-77012800D01*
%TD*%
%TA.AperFunction,Conductor*%
%TO.N,GND*%
G36*
X166718021Y-65704902D02*
G01*
X166764514Y-65758558D01*
X166775900Y-65810900D01*
X166775900Y-95225100D01*
X166755898Y-95293221D01*
X166702242Y-95339714D01*
X166649900Y-95351100D01*
X121843300Y-95351100D01*
X121775179Y-95331098D01*
X121728686Y-95277442D01*
X121717300Y-95225100D01*
X121717300Y-84777775D01*
X122583604Y-84777775D01*
X122602418Y-84984503D01*
X122604156Y-84990409D01*
X122604157Y-84990413D01*
X122623259Y-85055315D01*
X122661027Y-85183640D01*
X122757199Y-85367600D01*
X122887271Y-85529377D01*
X122891988Y-85533335D01*
X122891990Y-85533337D01*
X122995881Y-85620512D01*
X123046289Y-85662809D01*
X123051681Y-85665773D01*
X123051685Y-85665776D01*
X123222798Y-85759846D01*
X123228195Y-85762813D01*
X123426061Y-85825579D01*
X123432178Y-85826265D01*
X123432182Y-85826266D01*
X123508798Y-85834859D01*
X123587613Y-85843700D01*
X123699437Y-85843700D01*
X123702493Y-85843400D01*
X123702500Y-85843400D01*
X123847666Y-85829166D01*
X123847669Y-85829165D01*
X123853792Y-85828565D01*
X123966285Y-85794602D01*
X124037278Y-85794062D01*
X124097294Y-85831991D01*
X124127277Y-85896345D01*
X124128700Y-85915225D01*
X124128700Y-87853433D01*
X124128173Y-87864616D01*
X124126498Y-87872109D01*
X124126747Y-87880035D01*
X124126747Y-87880036D01*
X124128638Y-87940186D01*
X124128700Y-87944145D01*
X124128700Y-87972056D01*
X124129197Y-87975990D01*
X124129197Y-87975991D01*
X124129205Y-87976056D01*
X124130138Y-87987893D01*
X124131527Y-88032089D01*
X124137178Y-88051539D01*
X124141187Y-88070900D01*
X124143726Y-88090997D01*
X124146645Y-88098368D01*
X124146645Y-88098370D01*
X124160004Y-88132112D01*
X124163849Y-88143342D01*
X124176182Y-88185793D01*
X124180215Y-88192612D01*
X124180217Y-88192617D01*
X124186493Y-88203228D01*
X124195188Y-88220976D01*
X124202648Y-88239817D01*
X124207310Y-88246233D01*
X124207310Y-88246234D01*
X124228636Y-88275587D01*
X124235152Y-88285507D01*
X124249846Y-88310352D01*
X124257658Y-88323562D01*
X124271979Y-88337883D01*
X124284819Y-88352916D01*
X124296728Y-88369307D01*
X124314126Y-88383700D01*
X124330805Y-88397498D01*
X124339584Y-88405488D01*
X127918743Y-91984647D01*
X127926287Y-91992937D01*
X127930400Y-91999418D01*
X127936177Y-92004843D01*
X127980067Y-92046058D01*
X127982909Y-92048813D01*
X128002630Y-92068534D01*
X128005825Y-92071012D01*
X128014847Y-92078718D01*
X128047079Y-92108986D01*
X128054028Y-92112806D01*
X128064832Y-92118746D01*
X128081356Y-92129599D01*
X128097359Y-92142013D01*
X128137943Y-92159576D01*
X128148573Y-92164783D01*
X128187340Y-92186095D01*
X128195017Y-92188066D01*
X128195022Y-92188068D01*
X128206958Y-92191132D01*
X128225666Y-92197537D01*
X128244255Y-92205581D01*
X128252080Y-92206820D01*
X128252082Y-92206821D01*
X128287919Y-92212497D01*
X128299540Y-92214904D01*
X128331359Y-92223073D01*
X128342370Y-92225900D01*
X128362631Y-92225900D01*
X128382340Y-92227451D01*
X128402343Y-92230619D01*
X128410235Y-92229873D01*
X128415462Y-92229379D01*
X128446354Y-92226459D01*
X128458211Y-92225900D01*
X131002206Y-92225900D01*
X131070327Y-92245902D01*
X131105419Y-92279629D01*
X131215402Y-92436700D01*
X131377300Y-92598598D01*
X131381808Y-92601755D01*
X131381811Y-92601757D01*
X131459989Y-92656498D01*
X131564851Y-92729923D01*
X131569833Y-92732246D01*
X131569838Y-92732249D01*
X131767375Y-92824361D01*
X131772357Y-92826684D01*
X131777665Y-92828106D01*
X131777667Y-92828107D01*
X131988198Y-92884519D01*
X131988200Y-92884519D01*
X131993513Y-92885943D01*
X132221600Y-92905898D01*
X132449687Y-92885943D01*
X132455000Y-92884519D01*
X132455002Y-92884519D01*
X132665533Y-92828107D01*
X132665535Y-92828106D01*
X132670843Y-92826684D01*
X132675825Y-92824361D01*
X132873362Y-92732249D01*
X132873367Y-92732246D01*
X132878349Y-92729923D01*
X132983211Y-92656498D01*
X133061389Y-92601757D01*
X133061392Y-92601755D01*
X133065900Y-92598598D01*
X133227798Y-92436700D01*
X133359123Y-92249149D01*
X133361446Y-92244167D01*
X133361449Y-92244162D01*
X133453561Y-92046625D01*
X133453561Y-92046624D01*
X133455884Y-92041643D01*
X133460667Y-92023795D01*
X133513719Y-91825802D01*
X133513719Y-91825800D01*
X133515143Y-91820487D01*
X133535098Y-91592400D01*
X135908102Y-91592400D01*
X135928057Y-91820487D01*
X135929481Y-91825800D01*
X135929481Y-91825802D01*
X135982534Y-92023795D01*
X135987316Y-92041643D01*
X135989639Y-92046624D01*
X135989639Y-92046625D01*
X136081751Y-92244162D01*
X136081754Y-92244167D01*
X136084077Y-92249149D01*
X136215402Y-92436700D01*
X136377300Y-92598598D01*
X136381808Y-92601755D01*
X136381811Y-92601757D01*
X136459989Y-92656498D01*
X136564851Y-92729923D01*
X136569833Y-92732246D01*
X136569838Y-92732249D01*
X136767375Y-92824361D01*
X136772357Y-92826684D01*
X136777665Y-92828106D01*
X136777667Y-92828107D01*
X136988198Y-92884519D01*
X136988200Y-92884519D01*
X136993513Y-92885943D01*
X137221600Y-92905898D01*
X137449687Y-92885943D01*
X137455000Y-92884519D01*
X137455002Y-92884519D01*
X137665533Y-92828107D01*
X137665535Y-92828106D01*
X137670843Y-92826684D01*
X137675825Y-92824361D01*
X137873362Y-92732249D01*
X137873367Y-92732246D01*
X137878349Y-92729923D01*
X137983211Y-92656498D01*
X138061389Y-92601757D01*
X138061392Y-92601755D01*
X138065900Y-92598598D01*
X138227798Y-92436700D01*
X138337781Y-92279629D01*
X138393238Y-92235301D01*
X138440994Y-92225900D01*
X141935006Y-92225900D01*
X142003127Y-92245902D01*
X142038219Y-92279629D01*
X142148202Y-92436700D01*
X142310100Y-92598598D01*
X142314608Y-92601755D01*
X142314611Y-92601757D01*
X142392789Y-92656498D01*
X142497651Y-92729923D01*
X142502633Y-92732246D01*
X142502638Y-92732249D01*
X142700175Y-92824361D01*
X142705157Y-92826684D01*
X142710465Y-92828106D01*
X142710467Y-92828107D01*
X142920998Y-92884519D01*
X142921000Y-92884519D01*
X142926313Y-92885943D01*
X143154400Y-92905898D01*
X143382487Y-92885943D01*
X143387800Y-92884519D01*
X143387802Y-92884519D01*
X143598333Y-92828107D01*
X143598335Y-92828106D01*
X143603643Y-92826684D01*
X143608625Y-92824361D01*
X143806162Y-92732249D01*
X143806167Y-92732246D01*
X143811149Y-92729923D01*
X143916011Y-92656498D01*
X143994189Y-92601757D01*
X143994192Y-92601755D01*
X143998700Y-92598598D01*
X144160598Y-92436700D01*
X144291923Y-92249149D01*
X144294246Y-92244167D01*
X144294249Y-92244162D01*
X144386361Y-92046625D01*
X144386361Y-92046624D01*
X144388684Y-92041643D01*
X144393467Y-92023795D01*
X144446519Y-91825802D01*
X144446519Y-91825800D01*
X144447943Y-91820487D01*
X144467898Y-91592400D01*
X152000902Y-91592400D01*
X152020857Y-91820487D01*
X152022281Y-91825800D01*
X152022281Y-91825802D01*
X152075334Y-92023795D01*
X152080116Y-92041643D01*
X152082439Y-92046624D01*
X152082439Y-92046625D01*
X152174551Y-92244162D01*
X152174554Y-92244167D01*
X152176877Y-92249149D01*
X152308202Y-92436700D01*
X152470100Y-92598598D01*
X152474608Y-92601755D01*
X152474611Y-92601757D01*
X152552789Y-92656498D01*
X152657651Y-92729923D01*
X152662633Y-92732246D01*
X152662638Y-92732249D01*
X152860175Y-92824361D01*
X152865157Y-92826684D01*
X152870465Y-92828106D01*
X152870467Y-92828107D01*
X153080998Y-92884519D01*
X153081000Y-92884519D01*
X153086313Y-92885943D01*
X153314400Y-92905898D01*
X153542487Y-92885943D01*
X153547800Y-92884519D01*
X153547802Y-92884519D01*
X153758333Y-92828107D01*
X153758335Y-92828106D01*
X153763643Y-92826684D01*
X153768625Y-92824361D01*
X153966162Y-92732249D01*
X153966167Y-92732246D01*
X153971149Y-92729923D01*
X154076011Y-92656498D01*
X154154189Y-92601757D01*
X154154192Y-92601755D01*
X154158700Y-92598598D01*
X154320598Y-92436700D01*
X154430581Y-92279629D01*
X154486038Y-92235301D01*
X154533794Y-92225900D01*
X157248833Y-92225900D01*
X157260016Y-92226427D01*
X157267509Y-92228102D01*
X157275435Y-92227853D01*
X157275436Y-92227853D01*
X157335586Y-92225962D01*
X157339545Y-92225900D01*
X157367456Y-92225900D01*
X157371391Y-92225403D01*
X157371456Y-92225395D01*
X157383293Y-92224462D01*
X157415551Y-92223448D01*
X157419570Y-92223322D01*
X157427489Y-92223073D01*
X157446943Y-92217421D01*
X157466300Y-92213413D01*
X157478530Y-92211868D01*
X157478531Y-92211868D01*
X157486397Y-92210874D01*
X157493768Y-92207955D01*
X157493770Y-92207955D01*
X157527512Y-92194596D01*
X157538742Y-92190751D01*
X157573583Y-92180629D01*
X157573584Y-92180629D01*
X157581193Y-92178418D01*
X157588012Y-92174385D01*
X157588017Y-92174383D01*
X157598628Y-92168107D01*
X157616376Y-92159412D01*
X157635217Y-92151952D01*
X157655587Y-92137153D01*
X157670987Y-92125964D01*
X157680907Y-92119448D01*
X157712135Y-92100980D01*
X157712138Y-92100978D01*
X157718962Y-92096942D01*
X157733283Y-92082621D01*
X157748317Y-92069780D01*
X157750032Y-92068534D01*
X157764707Y-92057872D01*
X157792898Y-92023795D01*
X157800888Y-92015016D01*
X160845300Y-88970605D01*
X160907612Y-88936579D01*
X160934395Y-88933700D01*
X162742934Y-88933700D01*
X162805116Y-88926945D01*
X162941505Y-88875815D01*
X163058061Y-88788461D01*
X163145415Y-88671905D01*
X163196545Y-88535516D01*
X163203300Y-88473334D01*
X163203300Y-88195620D01*
X163223302Y-88127499D01*
X163276958Y-88081006D01*
X163347232Y-88070902D01*
X163410291Y-88099098D01*
X163533889Y-88202809D01*
X163539281Y-88205773D01*
X163539285Y-88205776D01*
X163710398Y-88299846D01*
X163715795Y-88302813D01*
X163913661Y-88365579D01*
X163919778Y-88366265D01*
X163919782Y-88366266D01*
X163991927Y-88374358D01*
X164075213Y-88383700D01*
X164187037Y-88383700D01*
X164190093Y-88383400D01*
X164190100Y-88383400D01*
X164335266Y-88369166D01*
X164335269Y-88369165D01*
X164341392Y-88368565D01*
X164490452Y-88323562D01*
X164534207Y-88310352D01*
X164534210Y-88310351D01*
X164540115Y-88308568D01*
X164547435Y-88304676D01*
X164717953Y-88214009D01*
X164717955Y-88214008D01*
X164723399Y-88211113D01*
X164825920Y-88127499D01*
X164879489Y-88083810D01*
X164879492Y-88083807D01*
X164884264Y-88079915D01*
X164888578Y-88074701D01*
X165012655Y-87924718D01*
X165016583Y-87919970D01*
X165019514Y-87914550D01*
X165112384Y-87742790D01*
X165112386Y-87742785D01*
X165115314Y-87737370D01*
X165176698Y-87539071D01*
X165198396Y-87332625D01*
X165179582Y-87125897D01*
X165120973Y-86926760D01*
X165024801Y-86742800D01*
X165016816Y-86732868D01*
X164956743Y-86658153D01*
X164894729Y-86581023D01*
X164882171Y-86570485D01*
X164740429Y-86451550D01*
X164735711Y-86447591D01*
X164730319Y-86444627D01*
X164730315Y-86444624D01*
X164559202Y-86350554D01*
X164553805Y-86347587D01*
X164355939Y-86284821D01*
X164349822Y-86284135D01*
X164349818Y-86284134D01*
X164273202Y-86275541D01*
X164194387Y-86266700D01*
X164082563Y-86266700D01*
X164079507Y-86267000D01*
X164079500Y-86267000D01*
X163934334Y-86281234D01*
X163934331Y-86281235D01*
X163928208Y-86281835D01*
X163798949Y-86320860D01*
X163735393Y-86340048D01*
X163735390Y-86340049D01*
X163729485Y-86341832D01*
X163724040Y-86344727D01*
X163724038Y-86344728D01*
X163551647Y-86436391D01*
X163551645Y-86436392D01*
X163546201Y-86439287D01*
X163541420Y-86443187D01*
X163541416Y-86443189D01*
X163408935Y-86551237D01*
X163343504Y-86578791D01*
X163273562Y-86566595D01*
X163221317Y-86518523D01*
X163203300Y-86453594D01*
X163203300Y-86177066D01*
X163196545Y-86114884D01*
X163145415Y-85978495D01*
X163058061Y-85861939D01*
X163033325Y-85843400D01*
X162987353Y-85808946D01*
X162944838Y-85752087D01*
X162939812Y-85681268D01*
X162955485Y-85642285D01*
X163029383Y-85521694D01*
X163033864Y-85512900D01*
X163063935Y-85440301D01*
X163108483Y-85385020D01*
X163175847Y-85362599D01*
X163244638Y-85380157D01*
X163278540Y-85409567D01*
X163371006Y-85524571D01*
X163371011Y-85524576D01*
X163374871Y-85529377D01*
X163379588Y-85533335D01*
X163379590Y-85533337D01*
X163483481Y-85620512D01*
X163533889Y-85662809D01*
X163539281Y-85665773D01*
X163539285Y-85665776D01*
X163710398Y-85759846D01*
X163715795Y-85762813D01*
X163913661Y-85825579D01*
X163919778Y-85826265D01*
X163919782Y-85826266D01*
X163996398Y-85834859D01*
X164075213Y-85843700D01*
X164187037Y-85843700D01*
X164190093Y-85843400D01*
X164190100Y-85843400D01*
X164335266Y-85829166D01*
X164335269Y-85829165D01*
X164341392Y-85828565D01*
X164473346Y-85788726D01*
X164534207Y-85770352D01*
X164534210Y-85770351D01*
X164540115Y-85768568D01*
X164547435Y-85764676D01*
X164717953Y-85674009D01*
X164717955Y-85674008D01*
X164723399Y-85671113D01*
X164783271Y-85622283D01*
X164879489Y-85543810D01*
X164879492Y-85543807D01*
X164884264Y-85539915D01*
X164902641Y-85517702D01*
X165012655Y-85384718D01*
X165016583Y-85379970D01*
X165020676Y-85372401D01*
X165112384Y-85202790D01*
X165112386Y-85202785D01*
X165115314Y-85197370D01*
X165176698Y-84999071D01*
X165178229Y-84984503D01*
X165197752Y-84798754D01*
X165197752Y-84798752D01*
X165198396Y-84792625D01*
X165179582Y-84585897D01*
X165177098Y-84577455D01*
X165122712Y-84392669D01*
X165120973Y-84386760D01*
X165024801Y-84202800D01*
X164894729Y-84041023D01*
X164882171Y-84030485D01*
X164754752Y-83923568D01*
X164735711Y-83907591D01*
X164730319Y-83904627D01*
X164730315Y-83904624D01*
X164559202Y-83810554D01*
X164553805Y-83807587D01*
X164355939Y-83744821D01*
X164349822Y-83744135D01*
X164349818Y-83744134D01*
X164265111Y-83734633D01*
X164194387Y-83726700D01*
X164082563Y-83726700D01*
X164079507Y-83727000D01*
X164079500Y-83727000D01*
X163934334Y-83741234D01*
X163934331Y-83741235D01*
X163928208Y-83741835D01*
X163828845Y-83771834D01*
X163735393Y-83800048D01*
X163735390Y-83800049D01*
X163729485Y-83801832D01*
X163724040Y-83804727D01*
X163724038Y-83804728D01*
X163551647Y-83896391D01*
X163551645Y-83896392D01*
X163546201Y-83899287D01*
X163494662Y-83941321D01*
X163390111Y-84026590D01*
X163390108Y-84026593D01*
X163385336Y-84030485D01*
X163381408Y-84035233D01*
X163381407Y-84035234D01*
X163277076Y-84161348D01*
X163218243Y-84201086D01*
X163147265Y-84202707D01*
X163086677Y-84165698D01*
X163063583Y-84129250D01*
X163033864Y-84057500D01*
X163029383Y-84048706D01*
X162910087Y-83854033D01*
X162899630Y-83844573D01*
X162890854Y-83848356D01*
X161683895Y-85055315D01*
X161621583Y-85089341D01*
X161550768Y-85084276D01*
X161505705Y-85055315D01*
X160301790Y-83851400D01*
X160289410Y-83844640D01*
X160281760Y-83850367D01*
X160160217Y-84048706D01*
X160155736Y-84057500D01*
X160062666Y-84282191D01*
X160059617Y-84291576D01*
X160002841Y-84528063D01*
X160001298Y-84537810D01*
X159982216Y-84780270D01*
X159982216Y-84790130D01*
X160001298Y-85032590D01*
X160002841Y-85042337D01*
X160059617Y-85278824D01*
X160062666Y-85288209D01*
X160155736Y-85512900D01*
X160160217Y-85521694D01*
X160234115Y-85642285D01*
X160252653Y-85710819D01*
X160231196Y-85778496D01*
X160202247Y-85808946D01*
X160156275Y-85843400D01*
X160131539Y-85861939D01*
X160044185Y-85978495D01*
X159993055Y-86114884D01*
X159986300Y-86177066D01*
X159986300Y-87985606D01*
X159966298Y-88053727D01*
X159949395Y-88074701D01*
X157102100Y-90921995D01*
X157039788Y-90956021D01*
X157013005Y-90958900D01*
X154533794Y-90958900D01*
X154465673Y-90938898D01*
X154430581Y-90905171D01*
X154323757Y-90752611D01*
X154323755Y-90752608D01*
X154320598Y-90748100D01*
X154158700Y-90586202D01*
X154154192Y-90583045D01*
X154154189Y-90583043D01*
X154076011Y-90528302D01*
X153971149Y-90454877D01*
X153966167Y-90452554D01*
X153966162Y-90452551D01*
X153768625Y-90360439D01*
X153768624Y-90360439D01*
X153763643Y-90358116D01*
X153758335Y-90356694D01*
X153758333Y-90356693D01*
X153547802Y-90300281D01*
X153547800Y-90300281D01*
X153542487Y-90298857D01*
X153314400Y-90278902D01*
X153086313Y-90298857D01*
X153081000Y-90300281D01*
X153080998Y-90300281D01*
X152870467Y-90356693D01*
X152870465Y-90356694D01*
X152865157Y-90358116D01*
X152860176Y-90360439D01*
X152860175Y-90360439D01*
X152662638Y-90452551D01*
X152662633Y-90452554D01*
X152657651Y-90454877D01*
X152552789Y-90528302D01*
X152474611Y-90583043D01*
X152474608Y-90583045D01*
X152470100Y-90586202D01*
X152308202Y-90748100D01*
X152176877Y-90935651D01*
X152174554Y-90940633D01*
X152174551Y-90940638D01*
X152082439Y-91138175D01*
X152080116Y-91143157D01*
X152020857Y-91364313D01*
X152000902Y-91592400D01*
X144467898Y-91592400D01*
X144447943Y-91364313D01*
X144388684Y-91143157D01*
X144386361Y-91138175D01*
X144294249Y-90940638D01*
X144294246Y-90940633D01*
X144291923Y-90935651D01*
X144160598Y-90748100D01*
X143998700Y-90586202D01*
X143994192Y-90583045D01*
X143994189Y-90583043D01*
X143916011Y-90528302D01*
X143811149Y-90454877D01*
X143806167Y-90452554D01*
X143806162Y-90452551D01*
X143608625Y-90360439D01*
X143608624Y-90360439D01*
X143603643Y-90358116D01*
X143598335Y-90356694D01*
X143598333Y-90356693D01*
X143387802Y-90300281D01*
X143387800Y-90300281D01*
X143382487Y-90298857D01*
X143154400Y-90278902D01*
X142926313Y-90298857D01*
X142921000Y-90300281D01*
X142920998Y-90300281D01*
X142710467Y-90356693D01*
X142710465Y-90356694D01*
X142705157Y-90358116D01*
X142700176Y-90360439D01*
X142700175Y-90360439D01*
X142502638Y-90452551D01*
X142502633Y-90452554D01*
X142497651Y-90454877D01*
X142392789Y-90528302D01*
X142314611Y-90583043D01*
X142314608Y-90583045D01*
X142310100Y-90586202D01*
X142148202Y-90748100D01*
X142145045Y-90752608D01*
X142145043Y-90752611D01*
X142038219Y-90905171D01*
X141982762Y-90949499D01*
X141935006Y-90958900D01*
X138440994Y-90958900D01*
X138372873Y-90938898D01*
X138337781Y-90905171D01*
X138230957Y-90752611D01*
X138230955Y-90752608D01*
X138227798Y-90748100D01*
X138065900Y-90586202D01*
X138061392Y-90583045D01*
X138061389Y-90583043D01*
X137983211Y-90528302D01*
X137878349Y-90454877D01*
X137873367Y-90452554D01*
X137873362Y-90452551D01*
X137675825Y-90360439D01*
X137675824Y-90360439D01*
X137670843Y-90358116D01*
X137665535Y-90356694D01*
X137665533Y-90356693D01*
X137455002Y-90300281D01*
X137455000Y-90300281D01*
X137449687Y-90298857D01*
X137221600Y-90278902D01*
X136993513Y-90298857D01*
X136988200Y-90300281D01*
X136988198Y-90300281D01*
X136777667Y-90356693D01*
X136777665Y-90356694D01*
X136772357Y-90358116D01*
X136767376Y-90360439D01*
X136767375Y-90360439D01*
X136569838Y-90452551D01*
X136569833Y-90452554D01*
X136564851Y-90454877D01*
X136459989Y-90528302D01*
X136381811Y-90583043D01*
X136381808Y-90583045D01*
X136377300Y-90586202D01*
X136215402Y-90748100D01*
X136084077Y-90935651D01*
X136081754Y-90940633D01*
X136081751Y-90940638D01*
X135989639Y-91138175D01*
X135987316Y-91143157D01*
X135928057Y-91364313D01*
X135908102Y-91592400D01*
X133535098Y-91592400D01*
X133515143Y-91364313D01*
X133455884Y-91143157D01*
X133453561Y-91138175D01*
X133361449Y-90940638D01*
X133361446Y-90940633D01*
X133359123Y-90935651D01*
X133227798Y-90748100D01*
X133065900Y-90586202D01*
X133061392Y-90583045D01*
X133061389Y-90583043D01*
X132983211Y-90528302D01*
X132878349Y-90454877D01*
X132873367Y-90452554D01*
X132873362Y-90452551D01*
X132675825Y-90360439D01*
X132675824Y-90360439D01*
X132670843Y-90358116D01*
X132665535Y-90356694D01*
X132665533Y-90356693D01*
X132455002Y-90300281D01*
X132455000Y-90300281D01*
X132449687Y-90298857D01*
X132221600Y-90278902D01*
X131993513Y-90298857D01*
X131988200Y-90300281D01*
X131988198Y-90300281D01*
X131777667Y-90356693D01*
X131777665Y-90356694D01*
X131772357Y-90358116D01*
X131767376Y-90360439D01*
X131767375Y-90360439D01*
X131569838Y-90452551D01*
X131569833Y-90452554D01*
X131564851Y-90454877D01*
X131459989Y-90528302D01*
X131381811Y-90583043D01*
X131381808Y-90583045D01*
X131377300Y-90586202D01*
X131215402Y-90748100D01*
X131212245Y-90752608D01*
X131212243Y-90752611D01*
X131105419Y-90905171D01*
X131049962Y-90949499D01*
X131002206Y-90958900D01*
X128736995Y-90958900D01*
X128668874Y-90938898D01*
X128647900Y-90921995D01*
X125432605Y-87706700D01*
X125398579Y-87644388D01*
X125395700Y-87617605D01*
X125395700Y-86386951D01*
X125415702Y-86318830D01*
X125469358Y-86272337D01*
X125539632Y-86262233D01*
X125569918Y-86270542D01*
X125684036Y-86317811D01*
X125688609Y-86319705D01*
X125773232Y-86340021D01*
X125929984Y-86377654D01*
X125929990Y-86377655D01*
X125934797Y-86378809D01*
X126187200Y-86398674D01*
X126439603Y-86378809D01*
X126444410Y-86377655D01*
X126444416Y-86377654D01*
X126601168Y-86340021D01*
X126685791Y-86319705D01*
X126690364Y-86317811D01*
X126915128Y-86224711D01*
X126915132Y-86224709D01*
X126919702Y-86222816D01*
X127135576Y-86090528D01*
X127328098Y-85926098D01*
X127492528Y-85733576D01*
X127624816Y-85517702D01*
X127638030Y-85485802D01*
X127719811Y-85288364D01*
X127719812Y-85288362D01*
X127721705Y-85283791D01*
X127780809Y-85037603D01*
X127800674Y-84785200D01*
X127780809Y-84532797D01*
X127776529Y-84514967D01*
X127728543Y-84315091D01*
X127721705Y-84286609D01*
X127717042Y-84275352D01*
X127626711Y-84057272D01*
X127626709Y-84057268D01*
X127624816Y-84052698D01*
X127622231Y-84048479D01*
X127622225Y-84048468D01*
X127548025Y-83927386D01*
X127529486Y-83858853D01*
X127550942Y-83791176D01*
X127579892Y-83760725D01*
X127642924Y-83713485D01*
X127655485Y-83700924D01*
X127731986Y-83598849D01*
X127740524Y-83583254D01*
X127785678Y-83462806D01*
X127789305Y-83447551D01*
X127794831Y-83396686D01*
X127795200Y-83389872D01*
X127795200Y-82517315D01*
X127790725Y-82502076D01*
X127789335Y-82500871D01*
X127781652Y-82499200D01*
X126059200Y-82499200D01*
X125991079Y-82479198D01*
X125944586Y-82425542D01*
X125933200Y-82373200D01*
X125933200Y-81973085D01*
X126441200Y-81973085D01*
X126445675Y-81988324D01*
X126447065Y-81989529D01*
X126454748Y-81991200D01*
X127777084Y-81991200D01*
X127792323Y-81986725D01*
X127793528Y-81985335D01*
X127795199Y-81977652D01*
X127795199Y-81100531D01*
X127794829Y-81093710D01*
X127789305Y-81042848D01*
X127785679Y-81027596D01*
X127740524Y-80907146D01*
X127731986Y-80891551D01*
X127655485Y-80789476D01*
X127642924Y-80776915D01*
X127540849Y-80700414D01*
X127525254Y-80691876D01*
X127404806Y-80646722D01*
X127389551Y-80643095D01*
X127338686Y-80637569D01*
X127331872Y-80637200D01*
X126459315Y-80637200D01*
X126444076Y-80641675D01*
X126442871Y-80643065D01*
X126441200Y-80650748D01*
X126441200Y-81973085D01*
X125933200Y-81973085D01*
X125933200Y-80655316D01*
X125928725Y-80640077D01*
X125927335Y-80638872D01*
X125919652Y-80637201D01*
X125521700Y-80637201D01*
X125453579Y-80617199D01*
X125407086Y-80563543D01*
X125395700Y-80511201D01*
X125395700Y-77787194D01*
X125415702Y-77719073D01*
X125432605Y-77698099D01*
X125585271Y-77545433D01*
X125647583Y-77511407D01*
X125706976Y-77512821D01*
X125713196Y-77514487D01*
X125719058Y-77516058D01*
X125933200Y-77534793D01*
X126147342Y-77516058D01*
X126152655Y-77514634D01*
X126152657Y-77514634D01*
X126349667Y-77461845D01*
X126349669Y-77461844D01*
X126354977Y-77460422D01*
X126414781Y-77432535D01*
X126544816Y-77371899D01*
X126544819Y-77371897D01*
X126549797Y-77369576D01*
X126725881Y-77246281D01*
X126877881Y-77094281D01*
X127001176Y-76918196D01*
X127008950Y-76901526D01*
X127089699Y-76728359D01*
X127089700Y-76728357D01*
X127092022Y-76723377D01*
X127096640Y-76706145D01*
X127146234Y-76521057D01*
X127146234Y-76521055D01*
X127147658Y-76515742D01*
X127166393Y-76301600D01*
X127147658Y-76087458D01*
X127095617Y-75893239D01*
X127093445Y-75885133D01*
X127093444Y-75885131D01*
X127092022Y-75879823D01*
X127075904Y-75845257D01*
X127003499Y-75689985D01*
X127003497Y-75689982D01*
X127001176Y-75685004D01*
X126877881Y-75508919D01*
X126725881Y-75356919D01*
X126549797Y-75233624D01*
X126544819Y-75231303D01*
X126544816Y-75231301D01*
X126361447Y-75145795D01*
X126308162Y-75098878D01*
X126288701Y-75030600D01*
X126309243Y-74962641D01*
X126361447Y-74917405D01*
X126544816Y-74831899D01*
X126544819Y-74831897D01*
X126549797Y-74829576D01*
X126725881Y-74706281D01*
X126877881Y-74554281D01*
X126951718Y-74448830D01*
X127007175Y-74404501D01*
X127054931Y-74395100D01*
X131976388Y-74395100D01*
X132044509Y-74415102D01*
X132091002Y-74468758D01*
X132102388Y-74521100D01*
X132102388Y-76032134D01*
X132109143Y-76094316D01*
X132160273Y-76230705D01*
X132247627Y-76347261D01*
X132364183Y-76434615D01*
X132500572Y-76485745D01*
X132562754Y-76492500D01*
X134259022Y-76492500D01*
X134321204Y-76485745D01*
X134457593Y-76434615D01*
X134574149Y-76347261D01*
X134576054Y-76349803D01*
X134624605Y-76323292D01*
X134695420Y-76328357D01*
X134752256Y-76370904D01*
X134777067Y-76437424D01*
X134777388Y-76446413D01*
X134777388Y-77521721D01*
X134776861Y-77532904D01*
X134775186Y-77540397D01*
X134775435Y-77548323D01*
X134775435Y-77548324D01*
X134777326Y-77608474D01*
X134777388Y-77612433D01*
X134777388Y-77640344D01*
X134777885Y-77644278D01*
X134777885Y-77644279D01*
X134777893Y-77644344D01*
X134778826Y-77656181D01*
X134780215Y-77700377D01*
X134785647Y-77719073D01*
X134785866Y-77719827D01*
X134789875Y-77739188D01*
X134792414Y-77759285D01*
X134795333Y-77766656D01*
X134795333Y-77766658D01*
X134808692Y-77800400D01*
X134812537Y-77811630D01*
X134824870Y-77854081D01*
X134828903Y-77860900D01*
X134828905Y-77860905D01*
X134835181Y-77871516D01*
X134843876Y-77889264D01*
X134851336Y-77908105D01*
X134855998Y-77914521D01*
X134855998Y-77914522D01*
X134877324Y-77943875D01*
X134883840Y-77953795D01*
X134895433Y-77973397D01*
X134906346Y-77991850D01*
X134920667Y-78006171D01*
X134933507Y-78021204D01*
X134945416Y-78037595D01*
X134951522Y-78042646D01*
X134979493Y-78065786D01*
X134988272Y-78073776D01*
X138014919Y-81100423D01*
X138048945Y-81162735D01*
X138043880Y-81233550D01*
X137999886Y-81291453D01*
X137976494Y-81308449D01*
X137971147Y-81312334D01*
X137966726Y-81317244D01*
X137966725Y-81317245D01*
X137925361Y-81363185D01*
X137843360Y-81454256D01*
X137747873Y-81619644D01*
X137688858Y-81801272D01*
X137668896Y-81991200D01*
X137669586Y-81997765D01*
X137681537Y-82111469D01*
X137688858Y-82181128D01*
X137747873Y-82362756D01*
X137843360Y-82528144D01*
X137916537Y-82609415D01*
X137947253Y-82673421D01*
X137948900Y-82693724D01*
X137948900Y-83251406D01*
X137928898Y-83319527D01*
X137911995Y-83340501D01*
X136890346Y-84362150D01*
X136828034Y-84396176D01*
X136757219Y-84391111D01*
X136700383Y-84348564D01*
X136692131Y-84336053D01*
X136687134Y-84327398D01*
X136650691Y-84275352D01*
X136640212Y-84266976D01*
X136626766Y-84274044D01*
X135642295Y-85258515D01*
X135579983Y-85292541D01*
X135509168Y-85287476D01*
X135464105Y-85258515D01*
X135283085Y-85077495D01*
X135249059Y-85015183D01*
X135254124Y-84944368D01*
X135283085Y-84899305D01*
X136268277Y-83914113D01*
X136274707Y-83902338D01*
X136265411Y-83890323D01*
X136214206Y-83854469D01*
X136204711Y-83848986D01*
X136007253Y-83756910D01*
X135996961Y-83753164D01*
X135786512Y-83696775D01*
X135775719Y-83694872D01*
X135558675Y-83675883D01*
X135547725Y-83675883D01*
X135330681Y-83694872D01*
X135319888Y-83696775D01*
X135109439Y-83753164D01*
X135099147Y-83756910D01*
X134901689Y-83848986D01*
X134892189Y-83854471D01*
X134891290Y-83855101D01*
X134890830Y-83855256D01*
X134887432Y-83857218D01*
X134887038Y-83856535D01*
X134824016Y-83877788D01*
X134755156Y-83860502D01*
X134729397Y-83837466D01*
X134728193Y-83838670D01*
X134721842Y-83832319D01*
X134716461Y-83825139D01*
X134709281Y-83819758D01*
X134709278Y-83819755D01*
X134645336Y-83771834D01*
X134599905Y-83737785D01*
X134463516Y-83686655D01*
X134401334Y-83679900D01*
X132705066Y-83679900D01*
X132642884Y-83686655D01*
X132506495Y-83737785D01*
X132389939Y-83825139D01*
X132302585Y-83941695D01*
X132251455Y-84078084D01*
X132244700Y-84140266D01*
X132244700Y-85836534D01*
X132251455Y-85898716D01*
X132302585Y-86035105D01*
X132389939Y-86151661D01*
X132506495Y-86239015D01*
X132642884Y-86290145D01*
X132705066Y-86296900D01*
X133913606Y-86296900D01*
X133981727Y-86316902D01*
X134002701Y-86333805D01*
X134174543Y-86505647D01*
X134182087Y-86513937D01*
X134186200Y-86520418D01*
X134191977Y-86525843D01*
X134235867Y-86567058D01*
X134238709Y-86569813D01*
X134258430Y-86589534D01*
X134261625Y-86592012D01*
X134270647Y-86599718D01*
X134302879Y-86629986D01*
X134309828Y-86633806D01*
X134320632Y-86639746D01*
X134337156Y-86650599D01*
X134353159Y-86663013D01*
X134393743Y-86680576D01*
X134404373Y-86685783D01*
X134443140Y-86707095D01*
X134450817Y-86709066D01*
X134450822Y-86709068D01*
X134462758Y-86712132D01*
X134481466Y-86718537D01*
X134500055Y-86726581D01*
X134507883Y-86727821D01*
X134507890Y-86727823D01*
X134543724Y-86733499D01*
X134555344Y-86735905D01*
X134587159Y-86744073D01*
X134598170Y-86746900D01*
X134618424Y-86746900D01*
X134638134Y-86748451D01*
X134658143Y-86751620D01*
X134666035Y-86750874D01*
X134684780Y-86749102D01*
X134702162Y-86747459D01*
X134714019Y-86746900D01*
X135956233Y-86746900D01*
X135967416Y-86747427D01*
X135974909Y-86749102D01*
X135982835Y-86748853D01*
X135982836Y-86748853D01*
X136042986Y-86746962D01*
X136046945Y-86746900D01*
X136074856Y-86746900D01*
X136078791Y-86746403D01*
X136078856Y-86746395D01*
X136090693Y-86745462D01*
X136122951Y-86744448D01*
X136126970Y-86744322D01*
X136134889Y-86744073D01*
X136154343Y-86738421D01*
X136173700Y-86734413D01*
X136185930Y-86732868D01*
X136185931Y-86732868D01*
X136193797Y-86731874D01*
X136201168Y-86728955D01*
X136201170Y-86728955D01*
X136234912Y-86715596D01*
X136246142Y-86711751D01*
X136280983Y-86701629D01*
X136280984Y-86701629D01*
X136288593Y-86699418D01*
X136295412Y-86695385D01*
X136295417Y-86695383D01*
X136306028Y-86689107D01*
X136323776Y-86680412D01*
X136342617Y-86672952D01*
X136362987Y-86658153D01*
X136378387Y-86646964D01*
X136388307Y-86640448D01*
X136419535Y-86621980D01*
X136419538Y-86621978D01*
X136426362Y-86617942D01*
X136440683Y-86603621D01*
X136455717Y-86590780D01*
X136457432Y-86589534D01*
X136472107Y-86578872D01*
X136500298Y-86544795D01*
X136508288Y-86536016D01*
X138974647Y-84069657D01*
X138982937Y-84062113D01*
X138989418Y-84058000D01*
X139036059Y-84008332D01*
X139038813Y-84005491D01*
X139058535Y-83985769D01*
X139061012Y-83982576D01*
X139068717Y-83973555D01*
X139093559Y-83947100D01*
X139098986Y-83941321D01*
X139106647Y-83927386D01*
X139108746Y-83923568D01*
X139119602Y-83907041D01*
X139127157Y-83897302D01*
X139127158Y-83897300D01*
X139132014Y-83891040D01*
X139149574Y-83850460D01*
X139154791Y-83839812D01*
X139172275Y-83808009D01*
X139172276Y-83808007D01*
X139176095Y-83801060D01*
X139181133Y-83781437D01*
X139187537Y-83762734D01*
X139192433Y-83751420D01*
X139192433Y-83751419D01*
X139195581Y-83744145D01*
X139196820Y-83736322D01*
X139196823Y-83736312D01*
X139202499Y-83700476D01*
X139204905Y-83688856D01*
X139213928Y-83653711D01*
X139213928Y-83653710D01*
X139215900Y-83646030D01*
X139215900Y-83625776D01*
X139217451Y-83606065D01*
X139219380Y-83593886D01*
X139220620Y-83586057D01*
X139216459Y-83542038D01*
X139215900Y-83530181D01*
X139215900Y-83526874D01*
X139235902Y-83458753D01*
X139289558Y-83412260D01*
X139359832Y-83402156D01*
X139424412Y-83431650D01*
X139445112Y-83454602D01*
X139473120Y-83494602D01*
X139495718Y-83526874D01*
X139516602Y-83556700D01*
X139678500Y-83718598D01*
X139683008Y-83721755D01*
X139683011Y-83721757D01*
X139751722Y-83769869D01*
X139866051Y-83849923D01*
X139871033Y-83852246D01*
X139871038Y-83852249D01*
X139905257Y-83868205D01*
X139958542Y-83915122D01*
X139978003Y-83983399D01*
X139957461Y-84051359D01*
X139905257Y-84096595D01*
X139871038Y-84112551D01*
X139871033Y-84112554D01*
X139866051Y-84114877D01*
X139774596Y-84178915D01*
X139683011Y-84243043D01*
X139683008Y-84243045D01*
X139678500Y-84246202D01*
X139516602Y-84408100D01*
X139513445Y-84412608D01*
X139513443Y-84412611D01*
X139507715Y-84420792D01*
X139385277Y-84595651D01*
X139382954Y-84600633D01*
X139382951Y-84600638D01*
X139293427Y-84792625D01*
X139288516Y-84803157D01*
X139287094Y-84808465D01*
X139287093Y-84808467D01*
X139234444Y-85004956D01*
X139229257Y-85024313D01*
X139209302Y-85252400D01*
X139229257Y-85480487D01*
X139230681Y-85485800D01*
X139230681Y-85485802D01*
X139277050Y-85658850D01*
X139288516Y-85701643D01*
X139290839Y-85706624D01*
X139290839Y-85706625D01*
X139382951Y-85904162D01*
X139382954Y-85904167D01*
X139385277Y-85909149D01*
X139428802Y-85971309D01*
X139473473Y-86035105D01*
X139516602Y-86096700D01*
X139678500Y-86258598D01*
X139683008Y-86261755D01*
X139683011Y-86261757D01*
X139724772Y-86290998D01*
X139866051Y-86389923D01*
X139871033Y-86392246D01*
X139871038Y-86392249D01*
X140068575Y-86484361D01*
X140073557Y-86486684D01*
X140078865Y-86488106D01*
X140078867Y-86488107D01*
X140289398Y-86544519D01*
X140289400Y-86544519D01*
X140294713Y-86545943D01*
X140522800Y-86565898D01*
X140750887Y-86545943D01*
X140756200Y-86544519D01*
X140756202Y-86544519D01*
X140966733Y-86488107D01*
X140966735Y-86488106D01*
X140972043Y-86486684D01*
X140977025Y-86484361D01*
X141174562Y-86392249D01*
X141174567Y-86392246D01*
X141179549Y-86389923D01*
X141320828Y-86290998D01*
X141362589Y-86261757D01*
X141362592Y-86261755D01*
X141367100Y-86258598D01*
X141528998Y-86096700D01*
X141572128Y-86035105D01*
X141616798Y-85971309D01*
X141660323Y-85909149D01*
X141662646Y-85904167D01*
X141662649Y-85904162D01*
X141754761Y-85706625D01*
X141754761Y-85706624D01*
X141757084Y-85701643D01*
X141768551Y-85658850D01*
X141814919Y-85485802D01*
X141814919Y-85485800D01*
X141816343Y-85480487D01*
X141836298Y-85252400D01*
X141816343Y-85024313D01*
X141811156Y-85004956D01*
X141758507Y-84808467D01*
X141758506Y-84808465D01*
X141757084Y-84803157D01*
X141752173Y-84792625D01*
X141662649Y-84600638D01*
X141662646Y-84600633D01*
X141660323Y-84595651D01*
X141537885Y-84420792D01*
X141532157Y-84412611D01*
X141532155Y-84412608D01*
X141528998Y-84408100D01*
X141367100Y-84246202D01*
X141362592Y-84243045D01*
X141362589Y-84243043D01*
X141271004Y-84178915D01*
X141179549Y-84114877D01*
X141174567Y-84112554D01*
X141174562Y-84112551D01*
X141140343Y-84096595D01*
X141087058Y-84049678D01*
X141067597Y-83981401D01*
X141088139Y-83913441D01*
X141140343Y-83868205D01*
X141174562Y-83852249D01*
X141174567Y-83852246D01*
X141179549Y-83849923D01*
X141293878Y-83769869D01*
X141362589Y-83721757D01*
X141362592Y-83721755D01*
X141367100Y-83718598D01*
X141528998Y-83556700D01*
X141549883Y-83526874D01*
X141641041Y-83396686D01*
X141660323Y-83369149D01*
X141662646Y-83364167D01*
X141662649Y-83364162D01*
X141754761Y-83166625D01*
X141754761Y-83166624D01*
X141757084Y-83161643D01*
X141768551Y-83118850D01*
X141814919Y-82945802D01*
X141814919Y-82945800D01*
X141816343Y-82940487D01*
X141836298Y-82712400D01*
X141816343Y-82484313D01*
X141812838Y-82471233D01*
X141758507Y-82268467D01*
X141758506Y-82268465D01*
X141757084Y-82263157D01*
X141754761Y-82258175D01*
X141662649Y-82060638D01*
X141662646Y-82060633D01*
X141660323Y-82055651D01*
X141528998Y-81868100D01*
X141367100Y-81706202D01*
X141362592Y-81703045D01*
X141362589Y-81703043D01*
X141280669Y-81645682D01*
X141179549Y-81574877D01*
X141174567Y-81572554D01*
X141174562Y-81572551D01*
X141140343Y-81556595D01*
X141087058Y-81509678D01*
X141067597Y-81441401D01*
X141088139Y-81373441D01*
X141140343Y-81328205D01*
X141174562Y-81312249D01*
X141174567Y-81312246D01*
X141179549Y-81309923D01*
X141329650Y-81204821D01*
X141362589Y-81181757D01*
X141362592Y-81181755D01*
X141367100Y-81178598D01*
X141528998Y-81016700D01*
X141660323Y-80829149D01*
X141662646Y-80824167D01*
X141662649Y-80824162D01*
X141754761Y-80626625D01*
X141754761Y-80626624D01*
X141757084Y-80621643D01*
X141783426Y-80523336D01*
X141814919Y-80405802D01*
X141814919Y-80405800D01*
X141816343Y-80400487D01*
X141836298Y-80172400D01*
X141816343Y-79944313D01*
X141814917Y-79938991D01*
X141758507Y-79728467D01*
X141758506Y-79728465D01*
X141757084Y-79723157D01*
X141717749Y-79638802D01*
X141662649Y-79520638D01*
X141662646Y-79520633D01*
X141660323Y-79515651D01*
X141581553Y-79403156D01*
X141532157Y-79332611D01*
X141532155Y-79332608D01*
X141528998Y-79328100D01*
X141367100Y-79166202D01*
X141362589Y-79163043D01*
X141358376Y-79159508D01*
X141359188Y-79158540D01*
X141318710Y-79107906D01*
X141311396Y-79037287D01*
X141343424Y-78973924D01*
X141404623Y-78937936D01*
X141421701Y-78934880D01*
X141425152Y-78934505D01*
X141440404Y-78930879D01*
X141560854Y-78885724D01*
X141576449Y-78877186D01*
X141678524Y-78800685D01*
X141691085Y-78788124D01*
X141767586Y-78686049D01*
X141776124Y-78670454D01*
X141821278Y-78550006D01*
X141824905Y-78534751D01*
X141830431Y-78483886D01*
X141830800Y-78477072D01*
X141830800Y-77904515D01*
X141826325Y-77889276D01*
X141824935Y-77888071D01*
X141817252Y-77886400D01*
X139232916Y-77886400D01*
X139217677Y-77890875D01*
X139216472Y-77892265D01*
X139214801Y-77899948D01*
X139214801Y-78477069D01*
X139215171Y-78483890D01*
X139220695Y-78534752D01*
X139224321Y-78550004D01*
X139269476Y-78670454D01*
X139278014Y-78686049D01*
X139354515Y-78788124D01*
X139367076Y-78800685D01*
X139469151Y-78877186D01*
X139484746Y-78885724D01*
X139605194Y-78930878D01*
X139620443Y-78934504D01*
X139623896Y-78934879D01*
X139626406Y-78935922D01*
X139628131Y-78936332D01*
X139628065Y-78936611D01*
X139689459Y-78962119D01*
X139729888Y-79020480D01*
X139732346Y-79091434D01*
X139696053Y-79152454D01*
X139684560Y-79161744D01*
X139683014Y-79163041D01*
X139678500Y-79166202D01*
X139516602Y-79328100D01*
X139513445Y-79332608D01*
X139513443Y-79332611D01*
X139464047Y-79403156D01*
X139385277Y-79515651D01*
X139382954Y-79520633D01*
X139382951Y-79520638D01*
X139327851Y-79638802D01*
X139288516Y-79723157D01*
X139287094Y-79728465D01*
X139287093Y-79728467D01*
X139230683Y-79938991D01*
X139229257Y-79944313D01*
X139209302Y-80172400D01*
X139209781Y-80177875D01*
X139209781Y-80177885D01*
X139210826Y-80189828D01*
X139196838Y-80259433D01*
X139147439Y-80310426D01*
X139078314Y-80326617D01*
X139011408Y-80302865D01*
X138996211Y-80289906D01*
X136081293Y-77374988D01*
X136073264Y-77360285D01*
X139214800Y-77360285D01*
X139219275Y-77375524D01*
X139220665Y-77376729D01*
X139228348Y-77378400D01*
X140250685Y-77378400D01*
X140265924Y-77373925D01*
X140267129Y-77372535D01*
X140268800Y-77364852D01*
X140268800Y-76342516D01*
X140264325Y-76327277D01*
X140262935Y-76326072D01*
X140255252Y-76324401D01*
X139678131Y-76324401D01*
X139671310Y-76324771D01*
X139620448Y-76330295D01*
X139605196Y-76333921D01*
X139484746Y-76379076D01*
X139469151Y-76387614D01*
X139367076Y-76464115D01*
X139354515Y-76476676D01*
X139278014Y-76578751D01*
X139269476Y-76594346D01*
X139224322Y-76714794D01*
X139220695Y-76730049D01*
X139215169Y-76780914D01*
X139214800Y-76787728D01*
X139214800Y-77360285D01*
X136073264Y-77360285D01*
X136047267Y-77312676D01*
X136044388Y-77285893D01*
X136044388Y-76403394D01*
X136064390Y-76335273D01*
X136098117Y-76300181D01*
X136250677Y-76193357D01*
X136250680Y-76193355D01*
X136255188Y-76190198D01*
X136417086Y-76028300D01*
X136548411Y-75840749D01*
X136550734Y-75835767D01*
X136550737Y-75835762D01*
X136642849Y-75638225D01*
X136642849Y-75638224D01*
X136645172Y-75633243D01*
X136679529Y-75505024D01*
X136703007Y-75417402D01*
X136703007Y-75417400D01*
X136704431Y-75412087D01*
X136724386Y-75184000D01*
X136704431Y-74955913D01*
X136670579Y-74829576D01*
X136646595Y-74740067D01*
X136646594Y-74740065D01*
X136645172Y-74734757D01*
X136570373Y-74574348D01*
X136559712Y-74504158D01*
X136588692Y-74439346D01*
X136648112Y-74400489D01*
X136684568Y-74395100D01*
X139536415Y-74395100D01*
X139604536Y-74415102D01*
X139625510Y-74432005D01*
X141302810Y-76109305D01*
X141336836Y-76171617D01*
X141331771Y-76242432D01*
X141289224Y-76299268D01*
X141222704Y-76324079D01*
X141213715Y-76324400D01*
X140794915Y-76324400D01*
X140779676Y-76328875D01*
X140778471Y-76330265D01*
X140776800Y-76337948D01*
X140776800Y-77360285D01*
X140781275Y-77375524D01*
X140782665Y-77376729D01*
X140790348Y-77378400D01*
X141812684Y-77378400D01*
X141827923Y-77373925D01*
X141829128Y-77372535D01*
X141830799Y-77364852D01*
X141830799Y-76941484D01*
X141850801Y-76873363D01*
X141904457Y-76826870D01*
X141974731Y-76816766D01*
X142039311Y-76846260D01*
X142045894Y-76852389D01*
X144769995Y-79576490D01*
X144804021Y-79638802D01*
X144806900Y-79665585D01*
X144806900Y-82471233D01*
X144806373Y-82482416D01*
X144804698Y-82489909D01*
X144804947Y-82497835D01*
X144804947Y-82497836D01*
X144806838Y-82557986D01*
X144806900Y-82561945D01*
X144806900Y-82589856D01*
X144807397Y-82593790D01*
X144807397Y-82593791D01*
X144807405Y-82593856D01*
X144808338Y-82605693D01*
X144809727Y-82649889D01*
X144815378Y-82669339D01*
X144819387Y-82688700D01*
X144821926Y-82708797D01*
X144824845Y-82716168D01*
X144824845Y-82716170D01*
X144838204Y-82749912D01*
X144842049Y-82761142D01*
X144854382Y-82803593D01*
X144858415Y-82810412D01*
X144858417Y-82810417D01*
X144864693Y-82821028D01*
X144873388Y-82838776D01*
X144880848Y-82857617D01*
X144885510Y-82864033D01*
X144885510Y-82864034D01*
X144906836Y-82893387D01*
X144913352Y-82903307D01*
X144935858Y-82941362D01*
X144950179Y-82955683D01*
X144963019Y-82970716D01*
X144974928Y-82987107D01*
X144981034Y-82992158D01*
X145009005Y-83015298D01*
X145017784Y-83023288D01*
X146833648Y-84839152D01*
X146867674Y-84901464D01*
X146866259Y-84960859D01*
X146850682Y-85018991D01*
X146850681Y-85018998D01*
X146849257Y-85024313D01*
X146829302Y-85252400D01*
X146849257Y-85480487D01*
X146850681Y-85485800D01*
X146850681Y-85485802D01*
X146897050Y-85658850D01*
X146908516Y-85701643D01*
X146910839Y-85706624D01*
X146910839Y-85706625D01*
X147002951Y-85904162D01*
X147002954Y-85904167D01*
X147005277Y-85909149D01*
X147048802Y-85971309D01*
X147093473Y-86035105D01*
X147136602Y-86096700D01*
X147298500Y-86258598D01*
X147303008Y-86261755D01*
X147303011Y-86261757D01*
X147344772Y-86290998D01*
X147486051Y-86389923D01*
X147491033Y-86392246D01*
X147491038Y-86392249D01*
X147688575Y-86484361D01*
X147693557Y-86486684D01*
X147698865Y-86488106D01*
X147698867Y-86488107D01*
X147909398Y-86544519D01*
X147909400Y-86544519D01*
X147914713Y-86545943D01*
X148142800Y-86565898D01*
X148370887Y-86545943D01*
X148376200Y-86544519D01*
X148376202Y-86544519D01*
X148586733Y-86488107D01*
X148586735Y-86488106D01*
X148592043Y-86486684D01*
X148597025Y-86484361D01*
X148794562Y-86392249D01*
X148794567Y-86392246D01*
X148799549Y-86389923D01*
X148940828Y-86290998D01*
X148982589Y-86261757D01*
X148982592Y-86261755D01*
X148987100Y-86258598D01*
X149148998Y-86096700D01*
X149192128Y-86035105D01*
X149236798Y-85971309D01*
X149280323Y-85909149D01*
X149282646Y-85904167D01*
X149282649Y-85904162D01*
X149374761Y-85706625D01*
X149374761Y-85706624D01*
X149377084Y-85701643D01*
X149388551Y-85658850D01*
X149434919Y-85485802D01*
X149434919Y-85485800D01*
X149436343Y-85480487D01*
X149456298Y-85252400D01*
X149436343Y-85024313D01*
X149431156Y-85004956D01*
X149378507Y-84808467D01*
X149378506Y-84808465D01*
X149377084Y-84803157D01*
X149372173Y-84792625D01*
X149282649Y-84600638D01*
X149282646Y-84600633D01*
X149280323Y-84595651D01*
X149157885Y-84420792D01*
X149152157Y-84412611D01*
X149152155Y-84412608D01*
X149148998Y-84408100D01*
X148987100Y-84246202D01*
X148982592Y-84243045D01*
X148982589Y-84243043D01*
X148891004Y-84178915D01*
X148799549Y-84114877D01*
X148794567Y-84112554D01*
X148794562Y-84112551D01*
X148760343Y-84096595D01*
X148707058Y-84049678D01*
X148687597Y-83981401D01*
X148708139Y-83913441D01*
X148760343Y-83868205D01*
X148794562Y-83852249D01*
X148794567Y-83852246D01*
X148799549Y-83849923D01*
X148913878Y-83769869D01*
X148982589Y-83721757D01*
X148982592Y-83721755D01*
X148987100Y-83718598D01*
X149148998Y-83556700D01*
X149169883Y-83526874D01*
X149261041Y-83396686D01*
X149280323Y-83369149D01*
X149282646Y-83364167D01*
X149282649Y-83364162D01*
X149374761Y-83166625D01*
X149374761Y-83166624D01*
X149377084Y-83161643D01*
X149388551Y-83118850D01*
X149434919Y-82945802D01*
X149434919Y-82945800D01*
X149436343Y-82940487D01*
X149456298Y-82712400D01*
X149455819Y-82706925D01*
X149455819Y-82706915D01*
X149454774Y-82694972D01*
X149468762Y-82625367D01*
X149518161Y-82574374D01*
X149587286Y-82558183D01*
X149654192Y-82581935D01*
X149669389Y-82594894D01*
X150727948Y-83653453D01*
X150735488Y-83661739D01*
X150739600Y-83668218D01*
X150745377Y-83673643D01*
X150789251Y-83714843D01*
X150792093Y-83717598D01*
X150811830Y-83737335D01*
X150815027Y-83739815D01*
X150824047Y-83747518D01*
X150856279Y-83777786D01*
X150863225Y-83781605D01*
X150863228Y-83781607D01*
X150874034Y-83787548D01*
X150890553Y-83798399D01*
X150906559Y-83810814D01*
X150913828Y-83813959D01*
X150913832Y-83813962D01*
X150947137Y-83828374D01*
X150957787Y-83833591D01*
X150996540Y-83854895D01*
X151004215Y-83856866D01*
X151004216Y-83856866D01*
X151016162Y-83859933D01*
X151034867Y-83866337D01*
X151053455Y-83874381D01*
X151061278Y-83875620D01*
X151061288Y-83875623D01*
X151097124Y-83881299D01*
X151108744Y-83883705D01*
X151143889Y-83892728D01*
X151151570Y-83894700D01*
X151171824Y-83894700D01*
X151191534Y-83896251D01*
X151211543Y-83899420D01*
X151219435Y-83898674D01*
X151255561Y-83895259D01*
X151267419Y-83894700D01*
X151280388Y-83894700D01*
X151348509Y-83914702D01*
X151395002Y-83968358D01*
X151406388Y-84020700D01*
X151406388Y-84109334D01*
X151413143Y-84171516D01*
X151464273Y-84307905D01*
X151551627Y-84424461D01*
X151668183Y-84511815D01*
X151804572Y-84562945D01*
X151866754Y-84569700D01*
X153563022Y-84569700D01*
X153625204Y-84562945D01*
X153761593Y-84511815D01*
X153878149Y-84424461D01*
X153883530Y-84417281D01*
X153889880Y-84410931D01*
X153892120Y-84413171D01*
X153936453Y-84380029D01*
X154007272Y-84375010D01*
X154048678Y-84393149D01*
X154048869Y-84392817D01*
X154051852Y-84394539D01*
X154052685Y-84394904D01*
X154058139Y-84398723D01*
X154063121Y-84401046D01*
X154063126Y-84401049D01*
X154260663Y-84493161D01*
X154265645Y-84495484D01*
X154270953Y-84496906D01*
X154270955Y-84496907D01*
X154481486Y-84553319D01*
X154481488Y-84553319D01*
X154486801Y-84554743D01*
X154714888Y-84574698D01*
X154942975Y-84554743D01*
X154948288Y-84553319D01*
X154948290Y-84553319D01*
X155158821Y-84496907D01*
X155158823Y-84496906D01*
X155164131Y-84495484D01*
X155169113Y-84493161D01*
X155366650Y-84401049D01*
X155366655Y-84401046D01*
X155371637Y-84398723D01*
X155513346Y-84299497D01*
X155554677Y-84270557D01*
X155554680Y-84270555D01*
X155559188Y-84267398D01*
X155721086Y-84105500D01*
X155727322Y-84096595D01*
X155791113Y-84005491D01*
X155852411Y-83917949D01*
X155854734Y-83912967D01*
X155854737Y-83912962D01*
X155946849Y-83715425D01*
X155946849Y-83715424D01*
X155949172Y-83710443D01*
X155952835Y-83696775D01*
X156007007Y-83494602D01*
X156007007Y-83494600D01*
X156008431Y-83489287D01*
X156009211Y-83480370D01*
X160654173Y-83480370D01*
X160657956Y-83489146D01*
X161581988Y-84413178D01*
X161595932Y-84420792D01*
X161597765Y-84420661D01*
X161604380Y-84416410D01*
X162528600Y-83492190D01*
X162535360Y-83479810D01*
X162529633Y-83472160D01*
X162331294Y-83350617D01*
X162322500Y-83346136D01*
X162097809Y-83253066D01*
X162088424Y-83250017D01*
X161851937Y-83193241D01*
X161842190Y-83191698D01*
X161599730Y-83172616D01*
X161589870Y-83172616D01*
X161347410Y-83191698D01*
X161337663Y-83193241D01*
X161101176Y-83250017D01*
X161091791Y-83253066D01*
X160867100Y-83346136D01*
X160858306Y-83350617D01*
X160663633Y-83469913D01*
X160654173Y-83480370D01*
X156009211Y-83480370D01*
X156028386Y-83261200D01*
X156008431Y-83033113D01*
X156007008Y-83027802D01*
X156007006Y-83027791D01*
X155991429Y-82969659D01*
X155993118Y-82898683D01*
X156024040Y-82847952D01*
X161682247Y-77189745D01*
X161690537Y-77182201D01*
X161697018Y-77178088D01*
X161743659Y-77128420D01*
X161746413Y-77125579D01*
X161766135Y-77105857D01*
X161768612Y-77102664D01*
X161776317Y-77093643D01*
X161801159Y-77067188D01*
X161806586Y-77061409D01*
X161810407Y-77054459D01*
X161816346Y-77043656D01*
X161827202Y-77027129D01*
X161834757Y-77017390D01*
X161834758Y-77017388D01*
X161839614Y-77011128D01*
X161857174Y-76970548D01*
X161862391Y-76959900D01*
X161879875Y-76928097D01*
X161879876Y-76928095D01*
X161883695Y-76921148D01*
X161888733Y-76901525D01*
X161895137Y-76882822D01*
X161900033Y-76871508D01*
X161900033Y-76871507D01*
X161903181Y-76864233D01*
X161904420Y-76856410D01*
X161904423Y-76856400D01*
X161910099Y-76820564D01*
X161912505Y-76808944D01*
X161921528Y-76773799D01*
X161921528Y-76773798D01*
X161923500Y-76766118D01*
X161923500Y-76745864D01*
X161925051Y-76726153D01*
X161926980Y-76713974D01*
X161928220Y-76706145D01*
X161924059Y-76662126D01*
X161923500Y-76650269D01*
X161923500Y-74378500D01*
X161943502Y-74310379D01*
X161997158Y-74263886D01*
X162049500Y-74252500D01*
X162438134Y-74252500D01*
X162500316Y-74245745D01*
X162636705Y-74194615D01*
X162753261Y-74107261D01*
X162840615Y-73990705D01*
X162891745Y-73854316D01*
X162898500Y-73792134D01*
X162898500Y-73514420D01*
X162918502Y-73446299D01*
X162972158Y-73399806D01*
X163042432Y-73389702D01*
X163105491Y-73417898D01*
X163229089Y-73521609D01*
X163234481Y-73524573D01*
X163234485Y-73524576D01*
X163405598Y-73618646D01*
X163410995Y-73621613D01*
X163608861Y-73684379D01*
X163614978Y-73685065D01*
X163614982Y-73685066D01*
X163691598Y-73693659D01*
X163770413Y-73702500D01*
X163882237Y-73702500D01*
X163885293Y-73702200D01*
X163885300Y-73702200D01*
X164030466Y-73687966D01*
X164030469Y-73687965D01*
X164036592Y-73687365D01*
X164168546Y-73647526D01*
X164229407Y-73629152D01*
X164229410Y-73629151D01*
X164235315Y-73627368D01*
X164242635Y-73623476D01*
X164413153Y-73532809D01*
X164413155Y-73532808D01*
X164418599Y-73529913D01*
X164530440Y-73438698D01*
X164574689Y-73402610D01*
X164574692Y-73402607D01*
X164579464Y-73398715D01*
X164586921Y-73389702D01*
X164707855Y-73243518D01*
X164711783Y-73238770D01*
X164716266Y-73230479D01*
X164807584Y-73061590D01*
X164807586Y-73061585D01*
X164810514Y-73056170D01*
X164871898Y-72857871D01*
X164893596Y-72651425D01*
X164882400Y-72528407D01*
X164875341Y-72450836D01*
X164875340Y-72450833D01*
X164874782Y-72444697D01*
X164816173Y-72245560D01*
X164720001Y-72061600D01*
X164589929Y-71899823D01*
X164580366Y-71891798D01*
X164435629Y-71770350D01*
X164430911Y-71766391D01*
X164425519Y-71763427D01*
X164425515Y-71763424D01*
X164254402Y-71669354D01*
X164249005Y-71666387D01*
X164051139Y-71603621D01*
X164045022Y-71602935D01*
X164045018Y-71602934D01*
X163961987Y-71593621D01*
X163889587Y-71585500D01*
X163777763Y-71585500D01*
X163774707Y-71585800D01*
X163774700Y-71585800D01*
X163629534Y-71600034D01*
X163629531Y-71600035D01*
X163623408Y-71600635D01*
X163499995Y-71637895D01*
X163430593Y-71658848D01*
X163430590Y-71658849D01*
X163424685Y-71660632D01*
X163419240Y-71663527D01*
X163419238Y-71663528D01*
X163246847Y-71755191D01*
X163246845Y-71755192D01*
X163241401Y-71758087D01*
X163236620Y-71761987D01*
X163236616Y-71761989D01*
X163104135Y-71870037D01*
X163038704Y-71897591D01*
X162968762Y-71885395D01*
X162916517Y-71837323D01*
X162898500Y-71772394D01*
X162898500Y-71495866D01*
X162891745Y-71433684D01*
X162840615Y-71297295D01*
X162753261Y-71180739D01*
X162728525Y-71162200D01*
X162682553Y-71127746D01*
X162640038Y-71070887D01*
X162635012Y-71000068D01*
X162650685Y-70961085D01*
X162724583Y-70840494D01*
X162729064Y-70831700D01*
X162759135Y-70759101D01*
X162803683Y-70703820D01*
X162871047Y-70681399D01*
X162939838Y-70698957D01*
X162973740Y-70728367D01*
X163066206Y-70843371D01*
X163066211Y-70843376D01*
X163070071Y-70848177D01*
X163074788Y-70852135D01*
X163074790Y-70852137D01*
X163093085Y-70867488D01*
X163229089Y-70981609D01*
X163234481Y-70984573D01*
X163234485Y-70984576D01*
X163405598Y-71078646D01*
X163410995Y-71081613D01*
X163608861Y-71144379D01*
X163614978Y-71145065D01*
X163614982Y-71145066D01*
X163691598Y-71153659D01*
X163770413Y-71162500D01*
X163882237Y-71162500D01*
X163885293Y-71162200D01*
X163885300Y-71162200D01*
X164030466Y-71147966D01*
X164030469Y-71147965D01*
X164036592Y-71147365D01*
X164168546Y-71107526D01*
X164229407Y-71089152D01*
X164229410Y-71089151D01*
X164235315Y-71087368D01*
X164242635Y-71083476D01*
X164413153Y-70992809D01*
X164413155Y-70992808D01*
X164418599Y-70989913D01*
X164520263Y-70906998D01*
X164574689Y-70862610D01*
X164574692Y-70862607D01*
X164579464Y-70858715D01*
X164589181Y-70846970D01*
X164707855Y-70703518D01*
X164711783Y-70698770D01*
X164714714Y-70693350D01*
X164807584Y-70521590D01*
X164807586Y-70521585D01*
X164810514Y-70516170D01*
X164871898Y-70317871D01*
X164876633Y-70272822D01*
X164892952Y-70117554D01*
X164892952Y-70117552D01*
X164893596Y-70111425D01*
X164882490Y-69989388D01*
X164875341Y-69910836D01*
X164875340Y-69910833D01*
X164874782Y-69904697D01*
X164872763Y-69897835D01*
X164817912Y-69711469D01*
X164816173Y-69705560D01*
X164720001Y-69521600D01*
X164589929Y-69359823D01*
X164577371Y-69349285D01*
X164435629Y-69230350D01*
X164430911Y-69226391D01*
X164425519Y-69223427D01*
X164425515Y-69223424D01*
X164254402Y-69129354D01*
X164249005Y-69126387D01*
X164051139Y-69063621D01*
X164045022Y-69062935D01*
X164045018Y-69062934D01*
X163968402Y-69054341D01*
X163889587Y-69045500D01*
X163777763Y-69045500D01*
X163774707Y-69045800D01*
X163774700Y-69045800D01*
X163629534Y-69060034D01*
X163629531Y-69060035D01*
X163623408Y-69060635D01*
X163491454Y-69100474D01*
X163430593Y-69118848D01*
X163430590Y-69118849D01*
X163424685Y-69120632D01*
X163419240Y-69123527D01*
X163419238Y-69123528D01*
X163246847Y-69215191D01*
X163246845Y-69215192D01*
X163241401Y-69218087D01*
X163186847Y-69262580D01*
X163085311Y-69345390D01*
X163085308Y-69345393D01*
X163080536Y-69349285D01*
X163076608Y-69354033D01*
X163076607Y-69354034D01*
X163067847Y-69364623D01*
X162991394Y-69457039D01*
X162972276Y-69480148D01*
X162913443Y-69519886D01*
X162842465Y-69521507D01*
X162781877Y-69484498D01*
X162758783Y-69448050D01*
X162729064Y-69376300D01*
X162724583Y-69367506D01*
X162605287Y-69172833D01*
X162594830Y-69163373D01*
X162586054Y-69167156D01*
X161379095Y-70374115D01*
X161316783Y-70408141D01*
X161245968Y-70403076D01*
X161200905Y-70374115D01*
X159996990Y-69170200D01*
X159984610Y-69163440D01*
X159976960Y-69169167D01*
X159855417Y-69367506D01*
X159850936Y-69376300D01*
X159757866Y-69600991D01*
X159754817Y-69610376D01*
X159698041Y-69846863D01*
X159696498Y-69856610D01*
X159677416Y-70099070D01*
X159677416Y-70108930D01*
X159696498Y-70351390D01*
X159698041Y-70361137D01*
X159754817Y-70597624D01*
X159757866Y-70607009D01*
X159850936Y-70831700D01*
X159855417Y-70840494D01*
X159929315Y-70961085D01*
X159947853Y-71029619D01*
X159926396Y-71097296D01*
X159897447Y-71127746D01*
X159851475Y-71162200D01*
X159826739Y-71180739D01*
X159739385Y-71297295D01*
X159688255Y-71433684D01*
X159681500Y-71495866D01*
X159681500Y-73792134D01*
X159688255Y-73854316D01*
X159739385Y-73990705D01*
X159826739Y-74107261D01*
X159943295Y-74194615D01*
X160079684Y-74245745D01*
X160141866Y-74252500D01*
X160530500Y-74252500D01*
X160598621Y-74272502D01*
X160645114Y-74326158D01*
X160656500Y-74378500D01*
X160656500Y-76371494D01*
X160636498Y-76439615D01*
X160619595Y-76460589D01*
X155128136Y-81952048D01*
X155065824Y-81986074D01*
X155006429Y-81984659D01*
X154948297Y-81969082D01*
X154948286Y-81969080D01*
X154942975Y-81967657D01*
X154714888Y-81947702D01*
X154486801Y-81967657D01*
X154481488Y-81969081D01*
X154481486Y-81969081D01*
X154270955Y-82025493D01*
X154270953Y-82025494D01*
X154265645Y-82026916D01*
X154260664Y-82029239D01*
X154260663Y-82029239D01*
X154063126Y-82121351D01*
X154063121Y-82121354D01*
X154058139Y-82123677D01*
X154052686Y-82127495D01*
X154052202Y-82127659D01*
X154048869Y-82129583D01*
X154048482Y-82128913D01*
X153985414Y-82150188D01*
X153916553Y-82132907D01*
X153891151Y-82110198D01*
X153889880Y-82111469D01*
X153883530Y-82105119D01*
X153878149Y-82097939D01*
X153761593Y-82010585D01*
X153625204Y-81959455D01*
X153563022Y-81952700D01*
X151866754Y-81952700D01*
X151804572Y-81959455D01*
X151668183Y-82010585D01*
X151551627Y-82097939D01*
X151464273Y-82214495D01*
X151461121Y-82222904D01*
X151461120Y-82222905D01*
X151428409Y-82310162D01*
X151385768Y-82366927D01*
X151319206Y-82391627D01*
X151249857Y-82376420D01*
X151221332Y-82355028D01*
X149451952Y-80585648D01*
X149417926Y-80523336D01*
X149419341Y-80463941D01*
X149434918Y-80405809D01*
X149434920Y-80405798D01*
X149436343Y-80400487D01*
X149456298Y-80172400D01*
X149436343Y-79944313D01*
X149434919Y-79938998D01*
X149434918Y-79938991D01*
X149419341Y-79880859D01*
X149421030Y-79809883D01*
X149451952Y-79759152D01*
X151527899Y-77683205D01*
X151590211Y-77649179D01*
X151616994Y-77646300D01*
X151931752Y-77646300D01*
X151999873Y-77666302D01*
X152045947Y-77719051D01*
X152072949Y-77776958D01*
X152072952Y-77776964D01*
X152075277Y-77781949D01*
X152078434Y-77786457D01*
X152192024Y-77948680D01*
X152206602Y-77969500D01*
X152368500Y-78131398D01*
X152373008Y-78134555D01*
X152373011Y-78134557D01*
X152451189Y-78189298D01*
X152556051Y-78262723D01*
X152561033Y-78265046D01*
X152561038Y-78265049D01*
X152621853Y-78293407D01*
X152763557Y-78359484D01*
X152768865Y-78360906D01*
X152768867Y-78360907D01*
X152979398Y-78417319D01*
X152979400Y-78417319D01*
X152984713Y-78418743D01*
X153212800Y-78438698D01*
X153440887Y-78418743D01*
X153446200Y-78417319D01*
X153446202Y-78417319D01*
X153656733Y-78360907D01*
X153656735Y-78360906D01*
X153662043Y-78359484D01*
X153803747Y-78293407D01*
X153864562Y-78265049D01*
X153864567Y-78265046D01*
X153869549Y-78262723D01*
X153974411Y-78189298D01*
X154052589Y-78134557D01*
X154052592Y-78134555D01*
X154057100Y-78131398D01*
X154218998Y-77969500D01*
X154233577Y-77948680D01*
X154347166Y-77786457D01*
X154350323Y-77781949D01*
X154352646Y-77776967D01*
X154352649Y-77776962D01*
X154444761Y-77579425D01*
X154444761Y-77579424D01*
X154447084Y-77574443D01*
X154462729Y-77516058D01*
X154504919Y-77358602D01*
X154504919Y-77358600D01*
X154506343Y-77353287D01*
X154526298Y-77125200D01*
X154506343Y-76897113D01*
X154476175Y-76784525D01*
X154448507Y-76681267D01*
X154448506Y-76681265D01*
X154447084Y-76675957D01*
X154425880Y-76630484D01*
X154352649Y-76473438D01*
X154352646Y-76473433D01*
X154350323Y-76468451D01*
X154258944Y-76337948D01*
X154222157Y-76285411D01*
X154222155Y-76285408D01*
X154218998Y-76280900D01*
X154057100Y-76119002D01*
X154052592Y-76115845D01*
X154052589Y-76115843D01*
X153921122Y-76023789D01*
X153869549Y-75987677D01*
X153864567Y-75985354D01*
X153864562Y-75985351D01*
X153667025Y-75893239D01*
X153667024Y-75893239D01*
X153662043Y-75890916D01*
X153656735Y-75889494D01*
X153656733Y-75889493D01*
X153446202Y-75833081D01*
X153446200Y-75833081D01*
X153440887Y-75831657D01*
X153212800Y-75811702D01*
X152984713Y-75831657D01*
X152979400Y-75833081D01*
X152979398Y-75833081D01*
X152768867Y-75889493D01*
X152768865Y-75889494D01*
X152763557Y-75890916D01*
X152758576Y-75893239D01*
X152758575Y-75893239D01*
X152561038Y-75985351D01*
X152561033Y-75985354D01*
X152556051Y-75987677D01*
X152504478Y-76023789D01*
X152373011Y-76115843D01*
X152373008Y-76115845D01*
X152368500Y-76119002D01*
X152206602Y-76280900D01*
X152203445Y-76285409D01*
X152203443Y-76285411D01*
X152188274Y-76307075D01*
X152176368Y-76324079D01*
X152175323Y-76325571D01*
X152119866Y-76369899D01*
X152072110Y-76379300D01*
X151381167Y-76379300D01*
X151369984Y-76378773D01*
X151362491Y-76377098D01*
X151354565Y-76377347D01*
X151354564Y-76377347D01*
X151294414Y-76379238D01*
X151290455Y-76379300D01*
X151262544Y-76379300D01*
X151258610Y-76379797D01*
X151258609Y-76379797D01*
X151258544Y-76379805D01*
X151246707Y-76380738D01*
X151214890Y-76381738D01*
X151210429Y-76381878D01*
X151202510Y-76382127D01*
X151184854Y-76387256D01*
X151183058Y-76387778D01*
X151163706Y-76391786D01*
X151156635Y-76392680D01*
X151143603Y-76394326D01*
X151136234Y-76397243D01*
X151136232Y-76397244D01*
X151102497Y-76410600D01*
X151091269Y-76414445D01*
X151048807Y-76426782D01*
X151041985Y-76430816D01*
X151041979Y-76430819D01*
X151031368Y-76437094D01*
X151013618Y-76445790D01*
X151002156Y-76450328D01*
X151002151Y-76450331D01*
X150994783Y-76453248D01*
X150979826Y-76464115D01*
X150959025Y-76479227D01*
X150949107Y-76485743D01*
X150930419Y-76496795D01*
X150911037Y-76508258D01*
X150896713Y-76522582D01*
X150881681Y-76535421D01*
X150865293Y-76547328D01*
X150839298Y-76578751D01*
X150837112Y-76581393D01*
X150829122Y-76590173D01*
X149558123Y-77861172D01*
X149495811Y-77895198D01*
X149419429Y-77887904D01*
X149415917Y-77886400D01*
X146874833Y-77886400D01*
X146861302Y-77890373D01*
X146860073Y-77898922D01*
X146907564Y-78076161D01*
X146911310Y-78086453D01*
X147003386Y-78283911D01*
X147008869Y-78293407D01*
X147133828Y-78471867D01*
X147140884Y-78480275D01*
X147294925Y-78634316D01*
X147303333Y-78641372D01*
X147481793Y-78766331D01*
X147491289Y-78771814D01*
X147525849Y-78787929D01*
X147579134Y-78834846D01*
X147598595Y-78903123D01*
X147578053Y-78971083D01*
X147525849Y-79016319D01*
X147491038Y-79032551D01*
X147491033Y-79032554D01*
X147486051Y-79034877D01*
X147396762Y-79097398D01*
X147303011Y-79163043D01*
X147303008Y-79163045D01*
X147298500Y-79166202D01*
X147136602Y-79328100D01*
X147133445Y-79332608D01*
X147133443Y-79332611D01*
X147084047Y-79403156D01*
X147005277Y-79515651D01*
X147002954Y-79520633D01*
X147002951Y-79520638D01*
X146947851Y-79638802D01*
X146908516Y-79723157D01*
X146907094Y-79728465D01*
X146907093Y-79728467D01*
X146850683Y-79938991D01*
X146849257Y-79944313D01*
X146829302Y-80172400D01*
X146849257Y-80400487D01*
X146850681Y-80405800D01*
X146850681Y-80405802D01*
X146882175Y-80523336D01*
X146908516Y-80621643D01*
X146910839Y-80626624D01*
X146910839Y-80626625D01*
X147002951Y-80824162D01*
X147002954Y-80824167D01*
X147005277Y-80829149D01*
X147136602Y-81016700D01*
X147298500Y-81178598D01*
X147303008Y-81181755D01*
X147303011Y-81181757D01*
X147335950Y-81204821D01*
X147486051Y-81309923D01*
X147491033Y-81312246D01*
X147491038Y-81312249D01*
X147525257Y-81328205D01*
X147578542Y-81375122D01*
X147598003Y-81443399D01*
X147577461Y-81511359D01*
X147525257Y-81556595D01*
X147491038Y-81572551D01*
X147491033Y-81572554D01*
X147486051Y-81574877D01*
X147384931Y-81645682D01*
X147303011Y-81703043D01*
X147303008Y-81703045D01*
X147298500Y-81706202D01*
X147136602Y-81868100D01*
X147005277Y-82055651D01*
X147002954Y-82060633D01*
X147002951Y-82060638D01*
X146910839Y-82258175D01*
X146908516Y-82263157D01*
X146907094Y-82268465D01*
X146907093Y-82268467D01*
X146852762Y-82471233D01*
X146849257Y-82484313D01*
X146829302Y-82712400D01*
X146829781Y-82717875D01*
X146829781Y-82717885D01*
X146830826Y-82729828D01*
X146816838Y-82799433D01*
X146767439Y-82850426D01*
X146698314Y-82866617D01*
X146631408Y-82842865D01*
X146616211Y-82829906D01*
X146110805Y-82324500D01*
X146076779Y-82262188D01*
X146073900Y-82235405D01*
X146073900Y-79429759D01*
X146074427Y-79418576D01*
X146076102Y-79411083D01*
X146073962Y-79342992D01*
X146073900Y-79339035D01*
X146073900Y-79311135D01*
X146073396Y-79307144D01*
X146072463Y-79295302D01*
X146071323Y-79259027D01*
X146071074Y-79251102D01*
X146065421Y-79231643D01*
X146061412Y-79212284D01*
X146061246Y-79210974D01*
X146058874Y-79192194D01*
X146055958Y-79184828D01*
X146055956Y-79184822D01*
X146042600Y-79151089D01*
X146038755Y-79139859D01*
X146028630Y-79105008D01*
X146028630Y-79105007D01*
X146026419Y-79097398D01*
X146016105Y-79079957D01*
X146007408Y-79062204D01*
X146002872Y-79050749D01*
X145999952Y-79043374D01*
X145973963Y-79007603D01*
X145967447Y-78997683D01*
X145948978Y-78966454D01*
X145944942Y-78959629D01*
X145930621Y-78945308D01*
X145917780Y-78930274D01*
X145910531Y-78920297D01*
X145905872Y-78913884D01*
X145871795Y-78885693D01*
X145863016Y-78877703D01*
X144346216Y-77360903D01*
X146861406Y-77360903D01*
X146861742Y-77374999D01*
X146869684Y-77378400D01*
X147870685Y-77378400D01*
X147885924Y-77373925D01*
X147887129Y-77372535D01*
X147888800Y-77364852D01*
X147888800Y-77360285D01*
X148396800Y-77360285D01*
X148401275Y-77375524D01*
X148402665Y-77376729D01*
X148410348Y-77378400D01*
X149410767Y-77378400D01*
X149424298Y-77374427D01*
X149425527Y-77365878D01*
X149378036Y-77188639D01*
X149374290Y-77178347D01*
X149282214Y-76980889D01*
X149276731Y-76971393D01*
X149151772Y-76792933D01*
X149144716Y-76784525D01*
X148990675Y-76630484D01*
X148982267Y-76623428D01*
X148803807Y-76498469D01*
X148794311Y-76492986D01*
X148596853Y-76400910D01*
X148586561Y-76397164D01*
X148414297Y-76351006D01*
X148400201Y-76351342D01*
X148396800Y-76359284D01*
X148396800Y-77360285D01*
X147888800Y-77360285D01*
X147888800Y-76364433D01*
X147884827Y-76350902D01*
X147876278Y-76349673D01*
X147699039Y-76397164D01*
X147688747Y-76400910D01*
X147491289Y-76492986D01*
X147481793Y-76498469D01*
X147303333Y-76623428D01*
X147294925Y-76630484D01*
X147140884Y-76784525D01*
X147133828Y-76792933D01*
X147008869Y-76971393D01*
X147003386Y-76980889D01*
X146911310Y-77178347D01*
X146907564Y-77188639D01*
X146861406Y-77360903D01*
X144346216Y-77360903D01*
X140354661Y-73369347D01*
X140347121Y-73361061D01*
X140343009Y-73354582D01*
X140293357Y-73307956D01*
X140290516Y-73305202D01*
X140270779Y-73285465D01*
X140267582Y-73282985D01*
X140258560Y-73275280D01*
X140232109Y-73250441D01*
X140226330Y-73245014D01*
X140219384Y-73241195D01*
X140219381Y-73241193D01*
X140208575Y-73235252D01*
X140192056Y-73224401D01*
X140191592Y-73224041D01*
X140176050Y-73211986D01*
X140168781Y-73208841D01*
X140168777Y-73208838D01*
X140135472Y-73194426D01*
X140124822Y-73189209D01*
X140086069Y-73167905D01*
X140066446Y-73162867D01*
X140047743Y-73156463D01*
X140036429Y-73151567D01*
X140036428Y-73151567D01*
X140029154Y-73148419D01*
X140021331Y-73147180D01*
X140021321Y-73147177D01*
X139985485Y-73141501D01*
X139973865Y-73139095D01*
X139938720Y-73130072D01*
X139938719Y-73130072D01*
X139931039Y-73128100D01*
X139910785Y-73128100D01*
X139891074Y-73126549D01*
X139878895Y-73124620D01*
X139871066Y-73123380D01*
X139863174Y-73124126D01*
X139827048Y-73127541D01*
X139815190Y-73128100D01*
X127054931Y-73128100D01*
X126986810Y-73108098D01*
X126951718Y-73074370D01*
X126877881Y-72968919D01*
X126725881Y-72816919D01*
X126549797Y-72693624D01*
X126544819Y-72691303D01*
X126544816Y-72691301D01*
X126360856Y-72605519D01*
X126307571Y-72558602D01*
X126288110Y-72490324D01*
X126308652Y-72422364D01*
X126360856Y-72377129D01*
X126544559Y-72291468D01*
X126554054Y-72285985D01*
X126588807Y-72261651D01*
X126597183Y-72251172D01*
X126590116Y-72237727D01*
X125946011Y-71593621D01*
X125932068Y-71586008D01*
X125930234Y-71586139D01*
X125923620Y-71590390D01*
X125275560Y-72238451D01*
X125269133Y-72250221D01*
X125278427Y-72262235D01*
X125312346Y-72285985D01*
X125321841Y-72291468D01*
X125505544Y-72377129D01*
X125558829Y-72424046D01*
X125578290Y-72492323D01*
X125557748Y-72560283D01*
X125505544Y-72605519D01*
X125321585Y-72691301D01*
X125321582Y-72691303D01*
X125316604Y-72693624D01*
X125140519Y-72816919D01*
X124988519Y-72968919D01*
X124865224Y-73145004D01*
X124862903Y-73149982D01*
X124862901Y-73149985D01*
X124798418Y-73288269D01*
X124774378Y-73339823D01*
X124772956Y-73345131D01*
X124772955Y-73345133D01*
X124726729Y-73517650D01*
X124718742Y-73547458D01*
X124700007Y-73761600D01*
X124718742Y-73975742D01*
X124720166Y-73981055D01*
X124720166Y-73981057D01*
X124753983Y-74107261D01*
X124774378Y-74183377D01*
X124776700Y-74188357D01*
X124776701Y-74188359D01*
X124806439Y-74252131D01*
X124865224Y-74378196D01*
X124988519Y-74554281D01*
X125140519Y-74706281D01*
X125316603Y-74829576D01*
X125321581Y-74831897D01*
X125321584Y-74831899D01*
X125504953Y-74917405D01*
X125558238Y-74964322D01*
X125577699Y-75032600D01*
X125557157Y-75100559D01*
X125504953Y-75145795D01*
X125321585Y-75231301D01*
X125321582Y-75231303D01*
X125316604Y-75233624D01*
X125140519Y-75356919D01*
X124988519Y-75508919D01*
X124865224Y-75685004D01*
X124862903Y-75689982D01*
X124862901Y-75689985D01*
X124790496Y-75845257D01*
X124774378Y-75879823D01*
X124772956Y-75885131D01*
X124772955Y-75885133D01*
X124770783Y-75893239D01*
X124718742Y-76087458D01*
X124700007Y-76301600D01*
X124718742Y-76515742D01*
X124720166Y-76521057D01*
X124720167Y-76521061D01*
X124721978Y-76527820D01*
X124720290Y-76598797D01*
X124689367Y-76649529D01*
X124524196Y-76814699D01*
X124369942Y-76968953D01*
X124361663Y-76976487D01*
X124355182Y-76980600D01*
X124326515Y-77011128D01*
X124308557Y-77030251D01*
X124305802Y-77033093D01*
X124286065Y-77052830D01*
X124283585Y-77056027D01*
X124275882Y-77065047D01*
X124245614Y-77097279D01*
X124241795Y-77104225D01*
X124241793Y-77104228D01*
X124235852Y-77115034D01*
X124225001Y-77131553D01*
X124212586Y-77147559D01*
X124209441Y-77154828D01*
X124209438Y-77154832D01*
X124195026Y-77188137D01*
X124189809Y-77198787D01*
X124168505Y-77237540D01*
X124166534Y-77245215D01*
X124166534Y-77245216D01*
X124163467Y-77257162D01*
X124157063Y-77275866D01*
X124149019Y-77294455D01*
X124147780Y-77302278D01*
X124147777Y-77302288D01*
X124142101Y-77338124D01*
X124139695Y-77349744D01*
X124132767Y-77376729D01*
X124128700Y-77392570D01*
X124128700Y-77412824D01*
X124127149Y-77432534D01*
X124123980Y-77452543D01*
X124124726Y-77460435D01*
X124128141Y-77496561D01*
X124128700Y-77508419D01*
X124128700Y-81115255D01*
X124108698Y-81183376D01*
X124055042Y-81229869D01*
X123984768Y-81239973D01*
X123964602Y-81235357D01*
X123874212Y-81206684D01*
X123868339Y-81204821D01*
X123862222Y-81204135D01*
X123862218Y-81204134D01*
X123785602Y-81195541D01*
X123706787Y-81186700D01*
X123594963Y-81186700D01*
X123591907Y-81187000D01*
X123591900Y-81187000D01*
X123446734Y-81201234D01*
X123446731Y-81201235D01*
X123440608Y-81201835D01*
X123329576Y-81235357D01*
X123247793Y-81260048D01*
X123247790Y-81260049D01*
X123241885Y-81261832D01*
X123236440Y-81264727D01*
X123236438Y-81264728D01*
X123064047Y-81356391D01*
X123064045Y-81356392D01*
X123058601Y-81359287D01*
X123000486Y-81406684D01*
X122902511Y-81486590D01*
X122902508Y-81486593D01*
X122897736Y-81490485D01*
X122765417Y-81650430D01*
X122762488Y-81655847D01*
X122762486Y-81655850D01*
X122669616Y-81827610D01*
X122669614Y-81827615D01*
X122666686Y-81833030D01*
X122605302Y-82031329D01*
X122604658Y-82037454D01*
X122604658Y-82037455D01*
X122590248Y-82174565D01*
X122583604Y-82237775D01*
X122602418Y-82444503D01*
X122604156Y-82450409D01*
X122604157Y-82450413D01*
X122625352Y-82522426D01*
X122661027Y-82643640D01*
X122757199Y-82827600D01*
X122761059Y-82832400D01*
X122761059Y-82832401D01*
X122769472Y-82842865D01*
X122887271Y-82989377D01*
X122891988Y-82993335D01*
X122891990Y-82993337D01*
X122945922Y-83038591D01*
X123046289Y-83122809D01*
X123051681Y-83125773D01*
X123051685Y-83125776D01*
X123171597Y-83191698D01*
X123228195Y-83222813D01*
X123426061Y-83285579D01*
X123432178Y-83286265D01*
X123432182Y-83286266D01*
X123508798Y-83294859D01*
X123587613Y-83303700D01*
X123699437Y-83303700D01*
X123702493Y-83303400D01*
X123702500Y-83303400D01*
X123847666Y-83289166D01*
X123847669Y-83289165D01*
X123853792Y-83288565D01*
X123966285Y-83254602D01*
X124037278Y-83254062D01*
X124097294Y-83291991D01*
X124127277Y-83356345D01*
X124128700Y-83375225D01*
X124128700Y-83655255D01*
X124108698Y-83723376D01*
X124055042Y-83769869D01*
X123984768Y-83779973D01*
X123964602Y-83775357D01*
X123874212Y-83746684D01*
X123868339Y-83744821D01*
X123862222Y-83744135D01*
X123862218Y-83744134D01*
X123777511Y-83734633D01*
X123706787Y-83726700D01*
X123594963Y-83726700D01*
X123591907Y-83727000D01*
X123591900Y-83727000D01*
X123446734Y-83741234D01*
X123446731Y-83741235D01*
X123440608Y-83741835D01*
X123341245Y-83771834D01*
X123247793Y-83800048D01*
X123247790Y-83800049D01*
X123241885Y-83801832D01*
X123236440Y-83804727D01*
X123236438Y-83804728D01*
X123064047Y-83896391D01*
X123064045Y-83896392D01*
X123058601Y-83899287D01*
X123007062Y-83941321D01*
X122902511Y-84026590D01*
X122902508Y-84026593D01*
X122897736Y-84030485D01*
X122893808Y-84035233D01*
X122893807Y-84035234D01*
X122835678Y-84105500D01*
X122765417Y-84190430D01*
X122762488Y-84195847D01*
X122762486Y-84195850D01*
X122669616Y-84367610D01*
X122669614Y-84367615D01*
X122666686Y-84373030D01*
X122605302Y-84571329D01*
X122604658Y-84577454D01*
X122604658Y-84577455D01*
X122602222Y-84600638D01*
X122583604Y-84777775D01*
X121717300Y-84777775D01*
X121717300Y-71227075D01*
X124700988Y-71227075D01*
X124718757Y-71430175D01*
X124720660Y-71440968D01*
X124773426Y-71637895D01*
X124777172Y-71648187D01*
X124863335Y-71832964D01*
X124868813Y-71842450D01*
X124893149Y-71877207D01*
X124903628Y-71885583D01*
X124917072Y-71878517D01*
X125561179Y-71234411D01*
X125567556Y-71222732D01*
X126297608Y-71222732D01*
X126297739Y-71224566D01*
X126301990Y-71231180D01*
X126950051Y-71879240D01*
X126961821Y-71885667D01*
X126973835Y-71876372D01*
X126997587Y-71842450D01*
X127003065Y-71832964D01*
X127089228Y-71648187D01*
X127092974Y-71637895D01*
X127145740Y-71440968D01*
X127147643Y-71430175D01*
X127165412Y-71227075D01*
X127165412Y-71216125D01*
X127147643Y-71013025D01*
X127145740Y-71002232D01*
X127141622Y-70986862D01*
X138267293Y-70986862D01*
X138276589Y-70998877D01*
X138327794Y-71034731D01*
X138337289Y-71040214D01*
X138534747Y-71132290D01*
X138545039Y-71136036D01*
X138755488Y-71192425D01*
X138766281Y-71194328D01*
X138983325Y-71213317D01*
X138994275Y-71213317D01*
X139211319Y-71194328D01*
X139222112Y-71192425D01*
X139432561Y-71136036D01*
X139442853Y-71132290D01*
X139640311Y-71040214D01*
X139649806Y-71034731D01*
X139701848Y-70998291D01*
X139710224Y-70987812D01*
X139703156Y-70974366D01*
X139001612Y-70272822D01*
X138987668Y-70265208D01*
X138985835Y-70265339D01*
X138979220Y-70269590D01*
X138273723Y-70975087D01*
X138267293Y-70986862D01*
X127141622Y-70986862D01*
X127092974Y-70805305D01*
X127089228Y-70795013D01*
X127003065Y-70610236D01*
X126997587Y-70600750D01*
X126973251Y-70565993D01*
X126962772Y-70557617D01*
X126949328Y-70564683D01*
X126305221Y-71208789D01*
X126297608Y-71222732D01*
X125567556Y-71222732D01*
X125568792Y-71220468D01*
X125568661Y-71218634D01*
X125564410Y-71212020D01*
X124916349Y-70563960D01*
X124904579Y-70557533D01*
X124892565Y-70566828D01*
X124868813Y-70600750D01*
X124863335Y-70610236D01*
X124777172Y-70795013D01*
X124773426Y-70805305D01*
X124720660Y-71002232D01*
X124718757Y-71013025D01*
X124700988Y-71216125D01*
X124700988Y-71227075D01*
X121717300Y-71227075D01*
X121717300Y-70192028D01*
X125269217Y-70192028D01*
X125276283Y-70205472D01*
X125920389Y-70849579D01*
X125934332Y-70857192D01*
X125936166Y-70857061D01*
X125942780Y-70852810D01*
X126590840Y-70204749D01*
X126597267Y-70192979D01*
X126587973Y-70180965D01*
X126554054Y-70157215D01*
X126544559Y-70151732D01*
X126359787Y-70065572D01*
X126349495Y-70061826D01*
X126152568Y-70009060D01*
X126141775Y-70007157D01*
X125938675Y-69989388D01*
X125927725Y-69989388D01*
X125724625Y-70007157D01*
X125713832Y-70009060D01*
X125516905Y-70061826D01*
X125506613Y-70065572D01*
X125321836Y-70151735D01*
X125312350Y-70157213D01*
X125277593Y-70181549D01*
X125269217Y-70192028D01*
X121717300Y-70192028D01*
X121717300Y-69906275D01*
X137676283Y-69906275D01*
X137695272Y-70123319D01*
X137697175Y-70134112D01*
X137753564Y-70344561D01*
X137757310Y-70354853D01*
X137849386Y-70552311D01*
X137854869Y-70561806D01*
X137891309Y-70613848D01*
X137901788Y-70622224D01*
X137915234Y-70615156D01*
X138616778Y-69913612D01*
X138623156Y-69901932D01*
X139353208Y-69901932D01*
X139353339Y-69903765D01*
X139357590Y-69910380D01*
X140063087Y-70615877D01*
X140074862Y-70622307D01*
X140086877Y-70613011D01*
X140122731Y-70561806D01*
X140128214Y-70552311D01*
X140220290Y-70354853D01*
X140224036Y-70344561D01*
X140280425Y-70134112D01*
X140282328Y-70123319D01*
X140301317Y-69906275D01*
X140301317Y-69900800D01*
X147835302Y-69900800D01*
X147855257Y-70128887D01*
X147856681Y-70134200D01*
X147856681Y-70134202D01*
X147893825Y-70272822D01*
X147914516Y-70350043D01*
X147916839Y-70355024D01*
X147916839Y-70355025D01*
X148008951Y-70552562D01*
X148008954Y-70552567D01*
X148011277Y-70557549D01*
X148142602Y-70745100D01*
X148304500Y-70906998D01*
X148309008Y-70910155D01*
X148309011Y-70910157D01*
X148381744Y-70961085D01*
X148492051Y-71038323D01*
X148497033Y-71040646D01*
X148497038Y-71040649D01*
X148693565Y-71132290D01*
X148699557Y-71135084D01*
X148704865Y-71136506D01*
X148704867Y-71136507D01*
X148915398Y-71192919D01*
X148915400Y-71192919D01*
X148920713Y-71194343D01*
X149148800Y-71214298D01*
X149376887Y-71194343D01*
X149382200Y-71192919D01*
X149382202Y-71192919D01*
X149592733Y-71136507D01*
X149592735Y-71136506D01*
X149598043Y-71135084D01*
X149604035Y-71132290D01*
X149800562Y-71040649D01*
X149800567Y-71040646D01*
X149805549Y-71038323D01*
X149915856Y-70961085D01*
X149988589Y-70910157D01*
X149988592Y-70910155D01*
X149993100Y-70906998D01*
X150154998Y-70745100D01*
X150191234Y-70693350D01*
X150264981Y-70588029D01*
X150320438Y-70543701D01*
X150368194Y-70534300D01*
X150673806Y-70534300D01*
X150741927Y-70554302D01*
X150762901Y-70571205D01*
X151903648Y-71711952D01*
X151937674Y-71774264D01*
X151936259Y-71833659D01*
X151920682Y-71891791D01*
X151920681Y-71891798D01*
X151919257Y-71897113D01*
X151899302Y-72125200D01*
X151919257Y-72353287D01*
X151920681Y-72358600D01*
X151920681Y-72358602D01*
X151971201Y-72547142D01*
X151978516Y-72574443D01*
X151980839Y-72579424D01*
X151980839Y-72579425D01*
X152072951Y-72776962D01*
X152072954Y-72776967D01*
X152075277Y-72781949D01*
X152206602Y-72969500D01*
X152368500Y-73131398D01*
X152373008Y-73134555D01*
X152373011Y-73134557D01*
X152392808Y-73148419D01*
X152556051Y-73262723D01*
X152561033Y-73265046D01*
X152561038Y-73265049D01*
X152758575Y-73357161D01*
X152763557Y-73359484D01*
X152768865Y-73360906D01*
X152768867Y-73360907D01*
X152979398Y-73417319D01*
X152979400Y-73417319D01*
X152984713Y-73418743D01*
X153212800Y-73438698D01*
X153440887Y-73418743D01*
X153446200Y-73417319D01*
X153446202Y-73417319D01*
X153656733Y-73360907D01*
X153656735Y-73360906D01*
X153662043Y-73359484D01*
X153667025Y-73357161D01*
X153864562Y-73265049D01*
X153864567Y-73265046D01*
X153869549Y-73262723D01*
X154032792Y-73148419D01*
X154052589Y-73134557D01*
X154052592Y-73134555D01*
X154057100Y-73131398D01*
X154218998Y-72969500D01*
X154350323Y-72781949D01*
X154352646Y-72776967D01*
X154352649Y-72776962D01*
X154444761Y-72579425D01*
X154444761Y-72579424D01*
X154447084Y-72574443D01*
X154454400Y-72547142D01*
X154504919Y-72358602D01*
X154504919Y-72358600D01*
X154506343Y-72353287D01*
X154526298Y-72125200D01*
X154506343Y-71897113D01*
X154504917Y-71891791D01*
X154448507Y-71681267D01*
X154448506Y-71681265D01*
X154447084Y-71675957D01*
X154444005Y-71669354D01*
X154352649Y-71473438D01*
X154352646Y-71473433D01*
X154350323Y-71468451D01*
X154276898Y-71363589D01*
X154222157Y-71285411D01*
X154222155Y-71285408D01*
X154218998Y-71280900D01*
X154057100Y-71119002D01*
X154052592Y-71115845D01*
X154052589Y-71115843D01*
X153947494Y-71042255D01*
X153869549Y-70987677D01*
X153864567Y-70985354D01*
X153864562Y-70985351D01*
X153667025Y-70893239D01*
X153667024Y-70893239D01*
X153662043Y-70890916D01*
X153656735Y-70889494D01*
X153656733Y-70889493D01*
X153446202Y-70833081D01*
X153446200Y-70833081D01*
X153440887Y-70831657D01*
X153212800Y-70811702D01*
X152984713Y-70831657D01*
X152979402Y-70833080D01*
X152979391Y-70833082D01*
X152921259Y-70848659D01*
X152850283Y-70846970D01*
X152799552Y-70816048D01*
X152165054Y-70181549D01*
X151492052Y-69508547D01*
X151484512Y-69500261D01*
X151480400Y-69493782D01*
X151470514Y-69484498D01*
X151430749Y-69447157D01*
X151427907Y-69444402D01*
X151408170Y-69424665D01*
X151404973Y-69422185D01*
X151395951Y-69414480D01*
X151369500Y-69389641D01*
X151363721Y-69384214D01*
X151356775Y-69380395D01*
X151356772Y-69380393D01*
X151345966Y-69374452D01*
X151329447Y-69363601D01*
X151324576Y-69359823D01*
X151313441Y-69351186D01*
X151306172Y-69348041D01*
X151306168Y-69348038D01*
X151272863Y-69333626D01*
X151262213Y-69328409D01*
X151223460Y-69307105D01*
X151203837Y-69302067D01*
X151185134Y-69295663D01*
X151173820Y-69290767D01*
X151173819Y-69290767D01*
X151166545Y-69287619D01*
X151158722Y-69286380D01*
X151158712Y-69286377D01*
X151122876Y-69280701D01*
X151111256Y-69278295D01*
X151076111Y-69269272D01*
X151076110Y-69269272D01*
X151068430Y-69267300D01*
X151048176Y-69267300D01*
X151028465Y-69265749D01*
X151016286Y-69263820D01*
X151008457Y-69262580D01*
X151000565Y-69263326D01*
X150964439Y-69266741D01*
X150952581Y-69267300D01*
X150368194Y-69267300D01*
X150300073Y-69247298D01*
X150264981Y-69213571D01*
X150158157Y-69061011D01*
X150158155Y-69061008D01*
X150154998Y-69056500D01*
X149993100Y-68894602D01*
X149988592Y-68891445D01*
X149988589Y-68891443D01*
X149873690Y-68810990D01*
X149856809Y-68799170D01*
X160349373Y-68799170D01*
X160353156Y-68807946D01*
X161277188Y-69731978D01*
X161291132Y-69739592D01*
X161292965Y-69739461D01*
X161299580Y-69735210D01*
X162223800Y-68810990D01*
X162230560Y-68798610D01*
X162224833Y-68790960D01*
X162026494Y-68669417D01*
X162017700Y-68664936D01*
X161793009Y-68571866D01*
X161783624Y-68568817D01*
X161547137Y-68512041D01*
X161537390Y-68510498D01*
X161294930Y-68491416D01*
X161285070Y-68491416D01*
X161042610Y-68510498D01*
X161032863Y-68512041D01*
X160796376Y-68568817D01*
X160786991Y-68571866D01*
X160562300Y-68664936D01*
X160553506Y-68669417D01*
X160358833Y-68788713D01*
X160349373Y-68799170D01*
X149856809Y-68799170D01*
X149805549Y-68763277D01*
X149800567Y-68760954D01*
X149800562Y-68760951D01*
X149603025Y-68668839D01*
X149603024Y-68668839D01*
X149598043Y-68666516D01*
X149592735Y-68665094D01*
X149592733Y-68665093D01*
X149382202Y-68608681D01*
X149382200Y-68608681D01*
X149376887Y-68607257D01*
X149148800Y-68587302D01*
X148920713Y-68607257D01*
X148915400Y-68608681D01*
X148915398Y-68608681D01*
X148704867Y-68665093D01*
X148704865Y-68665094D01*
X148699557Y-68666516D01*
X148694576Y-68668839D01*
X148694575Y-68668839D01*
X148497038Y-68760951D01*
X148497033Y-68760954D01*
X148492051Y-68763277D01*
X148423910Y-68810990D01*
X148309011Y-68891443D01*
X148309008Y-68891445D01*
X148304500Y-68894602D01*
X148142602Y-69056500D01*
X148139445Y-69061008D01*
X148139443Y-69061011D01*
X148136311Y-69065484D01*
X148011277Y-69244051D01*
X148008954Y-69249033D01*
X148008951Y-69249038D01*
X147928209Y-69422192D01*
X147914516Y-69451557D01*
X147913094Y-69456865D01*
X147913093Y-69456867D01*
X147891819Y-69536261D01*
X147855257Y-69672713D01*
X147835302Y-69900800D01*
X140301317Y-69900800D01*
X140301317Y-69895325D01*
X140282328Y-69678281D01*
X140280425Y-69667488D01*
X140224036Y-69457039D01*
X140220290Y-69446747D01*
X140128214Y-69249289D01*
X140122731Y-69239794D01*
X140086291Y-69187752D01*
X140075812Y-69179376D01*
X140062366Y-69186444D01*
X139360822Y-69887988D01*
X139353208Y-69901932D01*
X138623156Y-69901932D01*
X138624392Y-69899668D01*
X138624261Y-69897835D01*
X138620010Y-69891220D01*
X137914513Y-69185723D01*
X137902738Y-69179293D01*
X137890723Y-69188589D01*
X137854869Y-69239794D01*
X137849386Y-69249289D01*
X137757310Y-69446747D01*
X137753564Y-69457039D01*
X137697175Y-69667488D01*
X137695272Y-69678281D01*
X137676283Y-69895325D01*
X137676283Y-69906275D01*
X121717300Y-69906275D01*
X121717300Y-68813788D01*
X138267376Y-68813788D01*
X138274444Y-68827234D01*
X138975988Y-69528778D01*
X138989932Y-69536392D01*
X138991765Y-69536261D01*
X138998380Y-69532010D01*
X139703877Y-68826513D01*
X139710307Y-68814738D01*
X139701011Y-68802723D01*
X139649806Y-68766869D01*
X139640311Y-68761386D01*
X139442853Y-68669310D01*
X139432561Y-68665564D01*
X139222112Y-68609175D01*
X139211319Y-68607272D01*
X138994275Y-68588283D01*
X138983325Y-68588283D01*
X138766281Y-68607272D01*
X138755488Y-68609175D01*
X138545039Y-68665564D01*
X138534747Y-68669310D01*
X138337289Y-68761386D01*
X138327794Y-68766869D01*
X138275752Y-68803309D01*
X138267376Y-68813788D01*
X121717300Y-68813788D01*
X121717300Y-65810900D01*
X121737302Y-65742779D01*
X121790958Y-65696286D01*
X121843300Y-65684900D01*
X166649900Y-65684900D01*
X166718021Y-65704902D01*
G37*
%TD.AperFunction*%
%TD*%
M02*
