%TF.GenerationSoftware,KiCad,Pcbnew,(6.0.11)*%
%TF.CreationDate,2026-08-19T02:18:55+05:30*%
%TF.ProjectId,Project_2,50726f6a-6563-4745-9f32-2e6b69636164,rev?*%
%TF.SameCoordinates,Original*%
%TF.FileFunction,Drillmap*%
%TF.FilePolarity,Positive*%
%FSLAX45Y45*%
G04 Gerber Fmt 4.5, Leading zero omitted, Abs format (unit mm)*
G04 Created by KiCad (PCBNEW (6.0.11)) date 2026-08-19 02:18:55*
%MOMM*%
%LPD*%
G01*
G04 APERTURE LIST*
%ADD10C,0.050000*%
%ADD11C,0.200000*%
%ADD12C,0.040000*%
%ADD13C,0.080000*%
%ADD14C,0.110000*%
G04 APERTURE END LIST*
D10*
X12120880Y-6517640D02*
X16728440Y-6517640D01*
X16728440Y-6517640D02*
X16728440Y-9585960D01*
X16728440Y-9585960D02*
X12120880Y-9585960D01*
X12120880Y-9585960D02*
X12120880Y-6517640D01*
D11*
D12*
X13701080Y-8031800D02*
X13741080Y-8071800D01*
X13741080Y-8031800D02*
X13701080Y-8071800D01*
X13838240Y-8179120D02*
X13878240Y-8219120D01*
X13878240Y-8179120D02*
X13838240Y-8219120D01*
D13*
X12633320Y-7122160D02*
G75*
G03*
X12633320Y-7122160I-40000J0D01*
G01*
X12633320Y-7376160D02*
G75*
G03*
X12633320Y-7376160I-40000J0D01*
G01*
X12633320Y-7630160D02*
G75*
G03*
X12633320Y-7630160I-40000J0D01*
G01*
X13262160Y-9159240D02*
G75*
G03*
X13262160Y-9159240I-40000J0D01*
G01*
X13381089Y-7518400D02*
G75*
G03*
X13381089Y-7518400I-40000J0D01*
G01*
X13395320Y-8498840D02*
G75*
G03*
X13395320Y-8498840I-40000J0D01*
G01*
X13581089Y-7518400D02*
G75*
G03*
X13581089Y-7518400I-40000J0D01*
G01*
X13595320Y-8498840D02*
G75*
G03*
X13595320Y-8498840I-40000J0D01*
G01*
X13762160Y-9159240D02*
G75*
G03*
X13762160Y-9159240I-40000J0D01*
G01*
X13938880Y-6990080D02*
G75*
G03*
X13938880Y-6990080I-40000J0D01*
G01*
X14092280Y-7763240D02*
G75*
G03*
X14092280Y-7763240I-40000J0D01*
G01*
X14092280Y-8017240D02*
G75*
G03*
X14092280Y-8017240I-40000J0D01*
G01*
X14092280Y-8271240D02*
G75*
G03*
X14092280Y-8271240I-40000J0D01*
G01*
X14092280Y-8525240D02*
G75*
G03*
X14092280Y-8525240I-40000J0D01*
G01*
X14355440Y-9159240D02*
G75*
G03*
X14355440Y-9159240I-40000J0D01*
G01*
X14854280Y-7763240D02*
G75*
G03*
X14854280Y-7763240I-40000J0D01*
G01*
X14854280Y-8017240D02*
G75*
G03*
X14854280Y-8017240I-40000J0D01*
G01*
X14854280Y-8271240D02*
G75*
G03*
X14854280Y-8271240I-40000J0D01*
G01*
X14854280Y-8525240D02*
G75*
G03*
X14854280Y-8525240I-40000J0D01*
G01*
X14954880Y-6990080D02*
G75*
G03*
X14954880Y-6990080I-40000J0D01*
G01*
X15311489Y-8326120D02*
G75*
G03*
X15311489Y-8326120I-40000J0D01*
G01*
X15361280Y-7212520D02*
G75*
G03*
X15361280Y-7212520I-40000J0D01*
G01*
X15361280Y-7712520D02*
G75*
G03*
X15361280Y-7712520I-40000J0D01*
G01*
X15371440Y-9159240D02*
G75*
G03*
X15371440Y-9159240I-40000J0D01*
G01*
X15511489Y-8326120D02*
G75*
G03*
X15511489Y-8326120I-40000J0D01*
G01*
D14*
X12618720Y-8169520D02*
X12618720Y-8279520D01*
X12563720Y-8224520D02*
X12673720Y-8224520D01*
X12618720Y-8423520D02*
X12618720Y-8533520D01*
X12563720Y-8478520D02*
X12673720Y-8478520D01*
X16129000Y-6955400D02*
X16129000Y-7065400D01*
X16074000Y-7010400D02*
X16184000Y-7010400D01*
X16129000Y-7209400D02*
X16129000Y-7319400D01*
X16074000Y-7264400D02*
X16184000Y-7264400D01*
X16159480Y-8423520D02*
X16159480Y-8533520D01*
X16104480Y-8478520D02*
X16214480Y-8478520D01*
X16159480Y-8677520D02*
X16159480Y-8787520D01*
X16104480Y-8732520D02*
X16214480Y-8732520D01*
D11*
X12375999Y-9898936D02*
X12375999Y-9698936D01*
X12423618Y-9698936D01*
X12452189Y-9708460D01*
X12471237Y-9727508D01*
X12480761Y-9746555D01*
X12490285Y-9784650D01*
X12490285Y-9813222D01*
X12480761Y-9851317D01*
X12471237Y-9870365D01*
X12452189Y-9889412D01*
X12423618Y-9898936D01*
X12375999Y-9898936D01*
X12575999Y-9898936D02*
X12575999Y-9765603D01*
X12575999Y-9803698D02*
X12585523Y-9784650D01*
X12595047Y-9775127D01*
X12614094Y-9765603D01*
X12633142Y-9765603D01*
X12699808Y-9898936D02*
X12699808Y-9765603D01*
X12699808Y-9698936D02*
X12690285Y-9708460D01*
X12699808Y-9717984D01*
X12709332Y-9708460D01*
X12699808Y-9698936D01*
X12699808Y-9717984D01*
X12823618Y-9898936D02*
X12804570Y-9889412D01*
X12795047Y-9870365D01*
X12795047Y-9698936D01*
X12928380Y-9898936D02*
X12909332Y-9889412D01*
X12899808Y-9870365D01*
X12899808Y-9698936D01*
X13156951Y-9898936D02*
X13156951Y-9698936D01*
X13223618Y-9841793D01*
X13290285Y-9698936D01*
X13290285Y-9898936D01*
X13471237Y-9898936D02*
X13471237Y-9794174D01*
X13461713Y-9775127D01*
X13442666Y-9765603D01*
X13404570Y-9765603D01*
X13385523Y-9775127D01*
X13471237Y-9889412D02*
X13452189Y-9898936D01*
X13404570Y-9898936D01*
X13385523Y-9889412D01*
X13375999Y-9870365D01*
X13375999Y-9851317D01*
X13385523Y-9832270D01*
X13404570Y-9822746D01*
X13452189Y-9822746D01*
X13471237Y-9813222D01*
X13566475Y-9765603D02*
X13566475Y-9965603D01*
X13566475Y-9775127D02*
X13585523Y-9765603D01*
X13623618Y-9765603D01*
X13642666Y-9775127D01*
X13652189Y-9784650D01*
X13661713Y-9803698D01*
X13661713Y-9860841D01*
X13652189Y-9879889D01*
X13642666Y-9889412D01*
X13623618Y-9898936D01*
X13585523Y-9898936D01*
X13566475Y-9889412D01*
X13747428Y-9879889D02*
X13756951Y-9889412D01*
X13747428Y-9898936D01*
X13737904Y-9889412D01*
X13747428Y-9879889D01*
X13747428Y-9898936D01*
X13747428Y-9775127D02*
X13756951Y-9784650D01*
X13747428Y-9794174D01*
X13737904Y-9784650D01*
X13747428Y-9775127D01*
X13747428Y-9794174D01*
D12*
X12078380Y-10208460D02*
X12118380Y-10248460D01*
X12118380Y-10208460D02*
X12078380Y-10248460D01*
D11*
X12414094Y-10118936D02*
X12433142Y-10118936D01*
X12452189Y-10128460D01*
X12461713Y-10137984D01*
X12471237Y-10157031D01*
X12480761Y-10195127D01*
X12480761Y-10242746D01*
X12471237Y-10280841D01*
X12461713Y-10299889D01*
X12452189Y-10309412D01*
X12433142Y-10318936D01*
X12414094Y-10318936D01*
X12395047Y-10309412D01*
X12385523Y-10299889D01*
X12375999Y-10280841D01*
X12366475Y-10242746D01*
X12366475Y-10195127D01*
X12375999Y-10157031D01*
X12385523Y-10137984D01*
X12395047Y-10128460D01*
X12414094Y-10118936D01*
X12566475Y-10299889D02*
X12575999Y-10309412D01*
X12566475Y-10318936D01*
X12556951Y-10309412D01*
X12566475Y-10299889D01*
X12566475Y-10318936D01*
X12747428Y-10185603D02*
X12747428Y-10318936D01*
X12699808Y-10109412D02*
X12652189Y-10252270D01*
X12775999Y-10252270D01*
X12890285Y-10118936D02*
X12909332Y-10118936D01*
X12928380Y-10128460D01*
X12937904Y-10137984D01*
X12947428Y-10157031D01*
X12956951Y-10195127D01*
X12956951Y-10242746D01*
X12947428Y-10280841D01*
X12937904Y-10299889D01*
X12928380Y-10309412D01*
X12909332Y-10318936D01*
X12890285Y-10318936D01*
X12871237Y-10309412D01*
X12861713Y-10299889D01*
X12852189Y-10280841D01*
X12842666Y-10242746D01*
X12842666Y-10195127D01*
X12852189Y-10157031D01*
X12861713Y-10137984D01*
X12871237Y-10128460D01*
X12890285Y-10118936D01*
X13080761Y-10118936D02*
X13099808Y-10118936D01*
X13118856Y-10128460D01*
X13128380Y-10137984D01*
X13137904Y-10157031D01*
X13147428Y-10195127D01*
X13147428Y-10242746D01*
X13137904Y-10280841D01*
X13128380Y-10299889D01*
X13118856Y-10309412D01*
X13099808Y-10318936D01*
X13080761Y-10318936D01*
X13061713Y-10309412D01*
X13052189Y-10299889D01*
X13042666Y-10280841D01*
X13033142Y-10242746D01*
X13033142Y-10195127D01*
X13042666Y-10157031D01*
X13052189Y-10137984D01*
X13061713Y-10128460D01*
X13080761Y-10118936D01*
X13233142Y-10318936D02*
X13233142Y-10185603D01*
X13233142Y-10204650D02*
X13242666Y-10195127D01*
X13261713Y-10185603D01*
X13290285Y-10185603D01*
X13309332Y-10195127D01*
X13318856Y-10214174D01*
X13318856Y-10318936D01*
X13318856Y-10214174D02*
X13328380Y-10195127D01*
X13347428Y-10185603D01*
X13375999Y-10185603D01*
X13395047Y-10195127D01*
X13404570Y-10214174D01*
X13404570Y-10318936D01*
X13499808Y-10318936D02*
X13499808Y-10185603D01*
X13499808Y-10204650D02*
X13509332Y-10195127D01*
X13528380Y-10185603D01*
X13556951Y-10185603D01*
X13575999Y-10195127D01*
X13585523Y-10214174D01*
X13585523Y-10318936D01*
X13585523Y-10214174D02*
X13595047Y-10195127D01*
X13614094Y-10185603D01*
X13642666Y-10185603D01*
X13661713Y-10195127D01*
X13671237Y-10214174D01*
X13671237Y-10318936D01*
X14061713Y-10109412D02*
X13890285Y-10366555D01*
X14318856Y-10118936D02*
X14337904Y-10118936D01*
X14356951Y-10128460D01*
X14366475Y-10137984D01*
X14375999Y-10157031D01*
X14385523Y-10195127D01*
X14385523Y-10242746D01*
X14375999Y-10280841D01*
X14366475Y-10299889D01*
X14356951Y-10309412D01*
X14337904Y-10318936D01*
X14318856Y-10318936D01*
X14299808Y-10309412D01*
X14290285Y-10299889D01*
X14280761Y-10280841D01*
X14271237Y-10242746D01*
X14271237Y-10195127D01*
X14280761Y-10157031D01*
X14290285Y-10137984D01*
X14299808Y-10128460D01*
X14318856Y-10118936D01*
X14471237Y-10299889D02*
X14480761Y-10309412D01*
X14471237Y-10318936D01*
X14461713Y-10309412D01*
X14471237Y-10299889D01*
X14471237Y-10318936D01*
X14604570Y-10118936D02*
X14623618Y-10118936D01*
X14642666Y-10128460D01*
X14652189Y-10137984D01*
X14661713Y-10157031D01*
X14671237Y-10195127D01*
X14671237Y-10242746D01*
X14661713Y-10280841D01*
X14652189Y-10299889D01*
X14642666Y-10309412D01*
X14623618Y-10318936D01*
X14604570Y-10318936D01*
X14585523Y-10309412D01*
X14575999Y-10299889D01*
X14566475Y-10280841D01*
X14556951Y-10242746D01*
X14556951Y-10195127D01*
X14566475Y-10157031D01*
X14575999Y-10137984D01*
X14585523Y-10128460D01*
X14604570Y-10118936D01*
X14861713Y-10318936D02*
X14747428Y-10318936D01*
X14804570Y-10318936D02*
X14804570Y-10118936D01*
X14785523Y-10147508D01*
X14766475Y-10166555D01*
X14747428Y-10176079D01*
X15042666Y-10118936D02*
X14947428Y-10118936D01*
X14937904Y-10214174D01*
X14947428Y-10204650D01*
X14966475Y-10195127D01*
X15014094Y-10195127D01*
X15033142Y-10204650D01*
X15042666Y-10214174D01*
X15052189Y-10233222D01*
X15052189Y-10280841D01*
X15042666Y-10299889D01*
X15033142Y-10309412D01*
X15014094Y-10318936D01*
X14966475Y-10318936D01*
X14947428Y-10309412D01*
X14937904Y-10299889D01*
X15118856Y-10118936D02*
X15252189Y-10118936D01*
X15166475Y-10318936D01*
X15318856Y-10118936D02*
X15318856Y-10157031D01*
X15395047Y-10118936D02*
X15395047Y-10157031D01*
X15690285Y-10395127D02*
X15680761Y-10385603D01*
X15661713Y-10357031D01*
X15652189Y-10337984D01*
X15642666Y-10309412D01*
X15633142Y-10261793D01*
X15633142Y-10223698D01*
X15642666Y-10176079D01*
X15652189Y-10147508D01*
X15661713Y-10128460D01*
X15680761Y-10099889D01*
X15690285Y-10090365D01*
X15756951Y-10137984D02*
X15766475Y-10128460D01*
X15785523Y-10118936D01*
X15833142Y-10118936D01*
X15852189Y-10128460D01*
X15861713Y-10137984D01*
X15871237Y-10157031D01*
X15871237Y-10176079D01*
X15861713Y-10204650D01*
X15747428Y-10318936D01*
X15871237Y-10318936D01*
X16109332Y-10318936D02*
X16109332Y-10118936D01*
X16195047Y-10318936D02*
X16195047Y-10214174D01*
X16185523Y-10195127D01*
X16166475Y-10185603D01*
X16137904Y-10185603D01*
X16118856Y-10195127D01*
X16109332Y-10204650D01*
X16318856Y-10318936D02*
X16299808Y-10309412D01*
X16290285Y-10299889D01*
X16280761Y-10280841D01*
X16280761Y-10223698D01*
X16290285Y-10204650D01*
X16299808Y-10195127D01*
X16318856Y-10185603D01*
X16347428Y-10185603D01*
X16366475Y-10195127D01*
X16375999Y-10204650D01*
X16385523Y-10223698D01*
X16385523Y-10280841D01*
X16375999Y-10299889D01*
X16366475Y-10309412D01*
X16347428Y-10318936D01*
X16318856Y-10318936D01*
X16499808Y-10318936D02*
X16480761Y-10309412D01*
X16471237Y-10290365D01*
X16471237Y-10118936D01*
X16652189Y-10309412D02*
X16633142Y-10318936D01*
X16595047Y-10318936D01*
X16575999Y-10309412D01*
X16566475Y-10290365D01*
X16566475Y-10214174D01*
X16575999Y-10195127D01*
X16595047Y-10185603D01*
X16633142Y-10185603D01*
X16652189Y-10195127D01*
X16661713Y-10214174D01*
X16661713Y-10233222D01*
X16566475Y-10252270D01*
X16737904Y-10309412D02*
X16756951Y-10318936D01*
X16795047Y-10318936D01*
X16814094Y-10309412D01*
X16823618Y-10290365D01*
X16823618Y-10280841D01*
X16814094Y-10261793D01*
X16795047Y-10252270D01*
X16766475Y-10252270D01*
X16747428Y-10242746D01*
X16737904Y-10223698D01*
X16737904Y-10214174D01*
X16747428Y-10195127D01*
X16766475Y-10185603D01*
X16795047Y-10185603D01*
X16814094Y-10195127D01*
X16890285Y-10395127D02*
X16899809Y-10385603D01*
X16918856Y-10357031D01*
X16928380Y-10337984D01*
X16937904Y-10309412D01*
X16947428Y-10261793D01*
X16947428Y-10223698D01*
X16937904Y-10176079D01*
X16928380Y-10147508D01*
X16918856Y-10128460D01*
X16899809Y-10099889D01*
X16890285Y-10090365D01*
D13*
X12118380Y-10492460D02*
G75*
G03*
X12118380Y-10492460I-40000J0D01*
G01*
D11*
X12414094Y-10382936D02*
X12433142Y-10382936D01*
X12452189Y-10392460D01*
X12461713Y-10401984D01*
X12471237Y-10421031D01*
X12480761Y-10459127D01*
X12480761Y-10506746D01*
X12471237Y-10544841D01*
X12461713Y-10563889D01*
X12452189Y-10573412D01*
X12433142Y-10582936D01*
X12414094Y-10582936D01*
X12395047Y-10573412D01*
X12385523Y-10563889D01*
X12375999Y-10544841D01*
X12366475Y-10506746D01*
X12366475Y-10459127D01*
X12375999Y-10421031D01*
X12385523Y-10401984D01*
X12395047Y-10392460D01*
X12414094Y-10382936D01*
X12566475Y-10563889D02*
X12575999Y-10573412D01*
X12566475Y-10582936D01*
X12556951Y-10573412D01*
X12566475Y-10563889D01*
X12566475Y-10582936D01*
X12690285Y-10468650D02*
X12671237Y-10459127D01*
X12661713Y-10449603D01*
X12652189Y-10430555D01*
X12652189Y-10421031D01*
X12661713Y-10401984D01*
X12671237Y-10392460D01*
X12690285Y-10382936D01*
X12728380Y-10382936D01*
X12747428Y-10392460D01*
X12756951Y-10401984D01*
X12766475Y-10421031D01*
X12766475Y-10430555D01*
X12756951Y-10449603D01*
X12747428Y-10459127D01*
X12728380Y-10468650D01*
X12690285Y-10468650D01*
X12671237Y-10478174D01*
X12661713Y-10487698D01*
X12652189Y-10506746D01*
X12652189Y-10544841D01*
X12661713Y-10563889D01*
X12671237Y-10573412D01*
X12690285Y-10582936D01*
X12728380Y-10582936D01*
X12747428Y-10573412D01*
X12756951Y-10563889D01*
X12766475Y-10544841D01*
X12766475Y-10506746D01*
X12756951Y-10487698D01*
X12747428Y-10478174D01*
X12728380Y-10468650D01*
X12890285Y-10382936D02*
X12909332Y-10382936D01*
X12928380Y-10392460D01*
X12937904Y-10401984D01*
X12947428Y-10421031D01*
X12956951Y-10459127D01*
X12956951Y-10506746D01*
X12947428Y-10544841D01*
X12937904Y-10563889D01*
X12928380Y-10573412D01*
X12909332Y-10582936D01*
X12890285Y-10582936D01*
X12871237Y-10573412D01*
X12861713Y-10563889D01*
X12852189Y-10544841D01*
X12842666Y-10506746D01*
X12842666Y-10459127D01*
X12852189Y-10421031D01*
X12861713Y-10401984D01*
X12871237Y-10392460D01*
X12890285Y-10382936D01*
X13080761Y-10382936D02*
X13099808Y-10382936D01*
X13118856Y-10392460D01*
X13128380Y-10401984D01*
X13137904Y-10421031D01*
X13147428Y-10459127D01*
X13147428Y-10506746D01*
X13137904Y-10544841D01*
X13128380Y-10563889D01*
X13118856Y-10573412D01*
X13099808Y-10582936D01*
X13080761Y-10582936D01*
X13061713Y-10573412D01*
X13052189Y-10563889D01*
X13042666Y-10544841D01*
X13033142Y-10506746D01*
X13033142Y-10459127D01*
X13042666Y-10421031D01*
X13052189Y-10401984D01*
X13061713Y-10392460D01*
X13080761Y-10382936D01*
X13233142Y-10582936D02*
X13233142Y-10449603D01*
X13233142Y-10468650D02*
X13242666Y-10459127D01*
X13261713Y-10449603D01*
X13290285Y-10449603D01*
X13309332Y-10459127D01*
X13318856Y-10478174D01*
X13318856Y-10582936D01*
X13318856Y-10478174D02*
X13328380Y-10459127D01*
X13347428Y-10449603D01*
X13375999Y-10449603D01*
X13395047Y-10459127D01*
X13404570Y-10478174D01*
X13404570Y-10582936D01*
X13499808Y-10582936D02*
X13499808Y-10449603D01*
X13499808Y-10468650D02*
X13509332Y-10459127D01*
X13528380Y-10449603D01*
X13556951Y-10449603D01*
X13575999Y-10459127D01*
X13585523Y-10478174D01*
X13585523Y-10582936D01*
X13585523Y-10478174D02*
X13595047Y-10459127D01*
X13614094Y-10449603D01*
X13642666Y-10449603D01*
X13661713Y-10459127D01*
X13671237Y-10478174D01*
X13671237Y-10582936D01*
X14061713Y-10373412D02*
X13890285Y-10630555D01*
X14318856Y-10382936D02*
X14337904Y-10382936D01*
X14356951Y-10392460D01*
X14366475Y-10401984D01*
X14375999Y-10421031D01*
X14385523Y-10459127D01*
X14385523Y-10506746D01*
X14375999Y-10544841D01*
X14366475Y-10563889D01*
X14356951Y-10573412D01*
X14337904Y-10582936D01*
X14318856Y-10582936D01*
X14299808Y-10573412D01*
X14290285Y-10563889D01*
X14280761Y-10544841D01*
X14271237Y-10506746D01*
X14271237Y-10459127D01*
X14280761Y-10421031D01*
X14290285Y-10401984D01*
X14299808Y-10392460D01*
X14318856Y-10382936D01*
X14471237Y-10563889D02*
X14480761Y-10573412D01*
X14471237Y-10582936D01*
X14461713Y-10573412D01*
X14471237Y-10563889D01*
X14471237Y-10582936D01*
X14604570Y-10382936D02*
X14623618Y-10382936D01*
X14642666Y-10392460D01*
X14652189Y-10401984D01*
X14661713Y-10421031D01*
X14671237Y-10459127D01*
X14671237Y-10506746D01*
X14661713Y-10544841D01*
X14652189Y-10563889D01*
X14642666Y-10573412D01*
X14623618Y-10582936D01*
X14604570Y-10582936D01*
X14585523Y-10573412D01*
X14575999Y-10563889D01*
X14566475Y-10544841D01*
X14556951Y-10506746D01*
X14556951Y-10459127D01*
X14566475Y-10421031D01*
X14575999Y-10401984D01*
X14585523Y-10392460D01*
X14604570Y-10382936D01*
X14737904Y-10382936D02*
X14861713Y-10382936D01*
X14795047Y-10459127D01*
X14823618Y-10459127D01*
X14842666Y-10468650D01*
X14852189Y-10478174D01*
X14861713Y-10497222D01*
X14861713Y-10544841D01*
X14852189Y-10563889D01*
X14842666Y-10573412D01*
X14823618Y-10582936D01*
X14766475Y-10582936D01*
X14747428Y-10573412D01*
X14737904Y-10563889D01*
X15052189Y-10582936D02*
X14937904Y-10582936D01*
X14995047Y-10582936D02*
X14995047Y-10382936D01*
X14975999Y-10411508D01*
X14956951Y-10430555D01*
X14937904Y-10440079D01*
X15233142Y-10382936D02*
X15137904Y-10382936D01*
X15128380Y-10478174D01*
X15137904Y-10468650D01*
X15156951Y-10459127D01*
X15204570Y-10459127D01*
X15223618Y-10468650D01*
X15233142Y-10478174D01*
X15242666Y-10497222D01*
X15242666Y-10544841D01*
X15233142Y-10563889D01*
X15223618Y-10573412D01*
X15204570Y-10582936D01*
X15156951Y-10582936D01*
X15137904Y-10573412D01*
X15128380Y-10563889D01*
X15318856Y-10382936D02*
X15318856Y-10421031D01*
X15395047Y-10382936D02*
X15395047Y-10421031D01*
X15690285Y-10659127D02*
X15680761Y-10649603D01*
X15661713Y-10621031D01*
X15652189Y-10601984D01*
X15642666Y-10573412D01*
X15633142Y-10525793D01*
X15633142Y-10487698D01*
X15642666Y-10440079D01*
X15652189Y-10411508D01*
X15661713Y-10392460D01*
X15680761Y-10363889D01*
X15690285Y-10354365D01*
X15756951Y-10401984D02*
X15766475Y-10392460D01*
X15785523Y-10382936D01*
X15833142Y-10382936D01*
X15852189Y-10392460D01*
X15861713Y-10401984D01*
X15871237Y-10421031D01*
X15871237Y-10440079D01*
X15861713Y-10468650D01*
X15747428Y-10582936D01*
X15871237Y-10582936D01*
X16052189Y-10382936D02*
X15956951Y-10382936D01*
X15947428Y-10478174D01*
X15956951Y-10468650D01*
X15975999Y-10459127D01*
X16023618Y-10459127D01*
X16042666Y-10468650D01*
X16052189Y-10478174D01*
X16061713Y-10497222D01*
X16061713Y-10544841D01*
X16052189Y-10563889D01*
X16042666Y-10573412D01*
X16023618Y-10582936D01*
X15975999Y-10582936D01*
X15956951Y-10573412D01*
X15947428Y-10563889D01*
X16299808Y-10582936D02*
X16299808Y-10382936D01*
X16385523Y-10582936D02*
X16385523Y-10478174D01*
X16375999Y-10459127D01*
X16356951Y-10449603D01*
X16328380Y-10449603D01*
X16309332Y-10459127D01*
X16299808Y-10468650D01*
X16509332Y-10582936D02*
X16490285Y-10573412D01*
X16480761Y-10563889D01*
X16471237Y-10544841D01*
X16471237Y-10487698D01*
X16480761Y-10468650D01*
X16490285Y-10459127D01*
X16509332Y-10449603D01*
X16537904Y-10449603D01*
X16556951Y-10459127D01*
X16566475Y-10468650D01*
X16575999Y-10487698D01*
X16575999Y-10544841D01*
X16566475Y-10563889D01*
X16556951Y-10573412D01*
X16537904Y-10582936D01*
X16509332Y-10582936D01*
X16690285Y-10582936D02*
X16671237Y-10573412D01*
X16661713Y-10554365D01*
X16661713Y-10382936D01*
X16842666Y-10573412D02*
X16823618Y-10582936D01*
X16785523Y-10582936D01*
X16766475Y-10573412D01*
X16756951Y-10554365D01*
X16756951Y-10478174D01*
X16766475Y-10459127D01*
X16785523Y-10449603D01*
X16823618Y-10449603D01*
X16842666Y-10459127D01*
X16852190Y-10478174D01*
X16852190Y-10497222D01*
X16756951Y-10516270D01*
X16928380Y-10573412D02*
X16947428Y-10582936D01*
X16985523Y-10582936D01*
X17004570Y-10573412D01*
X17014094Y-10554365D01*
X17014094Y-10544841D01*
X17004570Y-10525793D01*
X16985523Y-10516270D01*
X16956951Y-10516270D01*
X16937904Y-10506746D01*
X16928380Y-10487698D01*
X16928380Y-10478174D01*
X16937904Y-10459127D01*
X16956951Y-10449603D01*
X16985523Y-10449603D01*
X17004570Y-10459127D01*
X17080761Y-10659127D02*
X17090285Y-10649603D01*
X17109332Y-10621031D01*
X17118856Y-10601984D01*
X17128380Y-10573412D01*
X17137904Y-10525793D01*
X17137904Y-10487698D01*
X17128380Y-10440079D01*
X17118856Y-10411508D01*
X17109332Y-10392460D01*
X17090285Y-10363889D01*
X17080761Y-10354365D01*
D14*
X12063380Y-10701460D02*
X12063380Y-10811460D01*
X12008380Y-10756460D02*
X12118380Y-10756460D01*
D11*
X12480761Y-10846936D02*
X12366475Y-10846936D01*
X12423618Y-10846936D02*
X12423618Y-10646936D01*
X12404570Y-10675508D01*
X12385523Y-10694555D01*
X12366475Y-10704079D01*
X12566475Y-10827889D02*
X12575999Y-10837412D01*
X12566475Y-10846936D01*
X12556951Y-10837412D01*
X12566475Y-10827889D01*
X12566475Y-10846936D01*
X12766475Y-10846936D02*
X12652189Y-10846936D01*
X12709332Y-10846936D02*
X12709332Y-10646936D01*
X12690285Y-10675508D01*
X12671237Y-10694555D01*
X12652189Y-10704079D01*
X12890285Y-10646936D02*
X12909332Y-10646936D01*
X12928380Y-10656460D01*
X12937904Y-10665984D01*
X12947428Y-10685031D01*
X12956951Y-10723127D01*
X12956951Y-10770746D01*
X12947428Y-10808841D01*
X12937904Y-10827889D01*
X12928380Y-10837412D01*
X12909332Y-10846936D01*
X12890285Y-10846936D01*
X12871237Y-10837412D01*
X12861713Y-10827889D01*
X12852189Y-10808841D01*
X12842666Y-10770746D01*
X12842666Y-10723127D01*
X12852189Y-10685031D01*
X12861713Y-10665984D01*
X12871237Y-10656460D01*
X12890285Y-10646936D01*
X13080761Y-10646936D02*
X13099808Y-10646936D01*
X13118856Y-10656460D01*
X13128380Y-10665984D01*
X13137904Y-10685031D01*
X13147428Y-10723127D01*
X13147428Y-10770746D01*
X13137904Y-10808841D01*
X13128380Y-10827889D01*
X13118856Y-10837412D01*
X13099808Y-10846936D01*
X13080761Y-10846936D01*
X13061713Y-10837412D01*
X13052189Y-10827889D01*
X13042666Y-10808841D01*
X13033142Y-10770746D01*
X13033142Y-10723127D01*
X13042666Y-10685031D01*
X13052189Y-10665984D01*
X13061713Y-10656460D01*
X13080761Y-10646936D01*
X13233142Y-10846936D02*
X13233142Y-10713603D01*
X13233142Y-10732650D02*
X13242666Y-10723127D01*
X13261713Y-10713603D01*
X13290285Y-10713603D01*
X13309332Y-10723127D01*
X13318856Y-10742174D01*
X13318856Y-10846936D01*
X13318856Y-10742174D02*
X13328380Y-10723127D01*
X13347428Y-10713603D01*
X13375999Y-10713603D01*
X13395047Y-10723127D01*
X13404570Y-10742174D01*
X13404570Y-10846936D01*
X13499808Y-10846936D02*
X13499808Y-10713603D01*
X13499808Y-10732650D02*
X13509332Y-10723127D01*
X13528380Y-10713603D01*
X13556951Y-10713603D01*
X13575999Y-10723127D01*
X13585523Y-10742174D01*
X13585523Y-10846936D01*
X13585523Y-10742174D02*
X13595047Y-10723127D01*
X13614094Y-10713603D01*
X13642666Y-10713603D01*
X13661713Y-10723127D01*
X13671237Y-10742174D01*
X13671237Y-10846936D01*
X14061713Y-10637412D02*
X13890285Y-10894555D01*
X14318856Y-10646936D02*
X14337904Y-10646936D01*
X14356951Y-10656460D01*
X14366475Y-10665984D01*
X14375999Y-10685031D01*
X14385523Y-10723127D01*
X14385523Y-10770746D01*
X14375999Y-10808841D01*
X14366475Y-10827889D01*
X14356951Y-10837412D01*
X14337904Y-10846936D01*
X14318856Y-10846936D01*
X14299808Y-10837412D01*
X14290285Y-10827889D01*
X14280761Y-10808841D01*
X14271237Y-10770746D01*
X14271237Y-10723127D01*
X14280761Y-10685031D01*
X14290285Y-10665984D01*
X14299808Y-10656460D01*
X14318856Y-10646936D01*
X14471237Y-10827889D02*
X14480761Y-10837412D01*
X14471237Y-10846936D01*
X14461713Y-10837412D01*
X14471237Y-10827889D01*
X14471237Y-10846936D01*
X14604570Y-10646936D02*
X14623618Y-10646936D01*
X14642666Y-10656460D01*
X14652189Y-10665984D01*
X14661713Y-10685031D01*
X14671237Y-10723127D01*
X14671237Y-10770746D01*
X14661713Y-10808841D01*
X14652189Y-10827889D01*
X14642666Y-10837412D01*
X14623618Y-10846936D01*
X14604570Y-10846936D01*
X14585523Y-10837412D01*
X14575999Y-10827889D01*
X14566475Y-10808841D01*
X14556951Y-10770746D01*
X14556951Y-10723127D01*
X14566475Y-10685031D01*
X14575999Y-10665984D01*
X14585523Y-10656460D01*
X14604570Y-10646936D01*
X14842666Y-10713603D02*
X14842666Y-10846936D01*
X14795047Y-10637412D02*
X14747428Y-10780270D01*
X14871237Y-10780270D01*
X14928380Y-10646936D02*
X15052189Y-10646936D01*
X14985523Y-10723127D01*
X15014094Y-10723127D01*
X15033142Y-10732650D01*
X15042666Y-10742174D01*
X15052189Y-10761222D01*
X15052189Y-10808841D01*
X15042666Y-10827889D01*
X15033142Y-10837412D01*
X15014094Y-10846936D01*
X14956951Y-10846936D01*
X14937904Y-10837412D01*
X14928380Y-10827889D01*
X15118856Y-10646936D02*
X15242666Y-10646936D01*
X15175999Y-10723127D01*
X15204570Y-10723127D01*
X15223618Y-10732650D01*
X15233142Y-10742174D01*
X15242666Y-10761222D01*
X15242666Y-10808841D01*
X15233142Y-10827889D01*
X15223618Y-10837412D01*
X15204570Y-10846936D01*
X15147428Y-10846936D01*
X15128380Y-10837412D01*
X15118856Y-10827889D01*
X15318856Y-10646936D02*
X15318856Y-10685031D01*
X15395047Y-10646936D02*
X15395047Y-10685031D01*
X15690285Y-10923127D02*
X15680761Y-10913603D01*
X15661713Y-10885031D01*
X15652189Y-10865984D01*
X15642666Y-10837412D01*
X15633142Y-10789793D01*
X15633142Y-10751698D01*
X15642666Y-10704079D01*
X15652189Y-10675508D01*
X15661713Y-10656460D01*
X15680761Y-10627889D01*
X15690285Y-10618365D01*
X15852189Y-10646936D02*
X15814094Y-10646936D01*
X15795047Y-10656460D01*
X15785523Y-10665984D01*
X15766475Y-10694555D01*
X15756951Y-10732650D01*
X15756951Y-10808841D01*
X15766475Y-10827889D01*
X15775999Y-10837412D01*
X15795047Y-10846936D01*
X15833142Y-10846936D01*
X15852189Y-10837412D01*
X15861713Y-10827889D01*
X15871237Y-10808841D01*
X15871237Y-10761222D01*
X15861713Y-10742174D01*
X15852189Y-10732650D01*
X15833142Y-10723127D01*
X15795047Y-10723127D01*
X15775999Y-10732650D01*
X15766475Y-10742174D01*
X15756951Y-10761222D01*
X16109332Y-10846936D02*
X16109332Y-10646936D01*
X16195047Y-10846936D02*
X16195047Y-10742174D01*
X16185523Y-10723127D01*
X16166475Y-10713603D01*
X16137904Y-10713603D01*
X16118856Y-10723127D01*
X16109332Y-10732650D01*
X16318856Y-10846936D02*
X16299808Y-10837412D01*
X16290285Y-10827889D01*
X16280761Y-10808841D01*
X16280761Y-10751698D01*
X16290285Y-10732650D01*
X16299808Y-10723127D01*
X16318856Y-10713603D01*
X16347428Y-10713603D01*
X16366475Y-10723127D01*
X16375999Y-10732650D01*
X16385523Y-10751698D01*
X16385523Y-10808841D01*
X16375999Y-10827889D01*
X16366475Y-10837412D01*
X16347428Y-10846936D01*
X16318856Y-10846936D01*
X16499808Y-10846936D02*
X16480761Y-10837412D01*
X16471237Y-10818365D01*
X16471237Y-10646936D01*
X16652189Y-10837412D02*
X16633142Y-10846936D01*
X16595047Y-10846936D01*
X16575999Y-10837412D01*
X16566475Y-10818365D01*
X16566475Y-10742174D01*
X16575999Y-10723127D01*
X16595047Y-10713603D01*
X16633142Y-10713603D01*
X16652189Y-10723127D01*
X16661713Y-10742174D01*
X16661713Y-10761222D01*
X16566475Y-10780270D01*
X16737904Y-10837412D02*
X16756951Y-10846936D01*
X16795047Y-10846936D01*
X16814094Y-10837412D01*
X16823618Y-10818365D01*
X16823618Y-10808841D01*
X16814094Y-10789793D01*
X16795047Y-10780270D01*
X16766475Y-10780270D01*
X16747428Y-10770746D01*
X16737904Y-10751698D01*
X16737904Y-10742174D01*
X16747428Y-10723127D01*
X16766475Y-10713603D01*
X16795047Y-10713603D01*
X16814094Y-10723127D01*
X16890285Y-10923127D02*
X16899809Y-10913603D01*
X16918856Y-10885031D01*
X16928380Y-10865984D01*
X16937904Y-10837412D01*
X16947428Y-10789793D01*
X16947428Y-10751698D01*
X16937904Y-10704079D01*
X16928380Y-10675508D01*
X16918856Y-10656460D01*
X16899809Y-10627889D01*
X16890285Y-10618365D01*
M02*
